<?xml version="1.0" encoding="UTF-8" standalone="no"?>
<!DOCTYPE svg PUBLIC "-//W3C//DTD SVG 1.1//EN"
 "http://www.w3.org/Graphics/SVG/1.1/DTD/svg11.dtd">
<!-- Generated by graphviz version 2.43.0 (0)
 -->
<!-- Title: /home/jenkins/jenkins&#45;ci/workspace/er_release_release&#45;branch&#45;v3.3.1@2/sdk/c/ifxAlgo/Algo.h Pages: 1 -->
<svg width="867pt" height="341pt"
 viewBox="0.00 0.00 866.50 341.00" xmlns="http://www.w3.org/2000/svg" xmlns:xlink="http://www.w3.org/1999/xlink">
<g id="graph0" class="graph" transform="scale(1 1) rotate(0) translate(4 337)">
<title>/home/jenkins/jenkins&#45;ci/workspace/er_release_release&#45;branch&#45;v3.3.1@2/sdk/c/ifxAlgo/Algo.h</title>
<polygon fill="white" stroke="transparent" points="-4,4 -4,-337 862.5,-337 862.5,4 -4,4"/>
<!-- Node1 -->
<g id="node1" class="node">
<title>Node1</title>
<g id="a_node1"><a xlink:title="Header for ifxAlgo.">
<polygon fill="#bfbfbf" stroke="black" points="296,-280.5 296,-332.5 439,-332.5 439,-280.5 296,-280.5"/>
<text text-anchor="start" x="304" y="-320.5" font-family="Helvetica,sans-Serif" font-size="10.00">/home/jenkins/jenkins</text>
<text text-anchor="start" x="304" y="-309.5" font-family="Helvetica,sans-Serif" font-size="10.00">&#45;ci/workspace/er_release</text>
<text text-anchor="start" x="304" y="-298.5" font-family="Helvetica,sans-Serif" font-size="10.00">_release&#45;branch&#45;v3.3.1@2</text>
<text text-anchor="middle" x="367.5" y="-287.5" font-family="Helvetica,sans-Serif" font-size="10.00">/sdk/c/ifxAlgo/Algo.h</text>
</a>
</g>
</g>
<!-- Node2 -->
<g id="node2" class="node">
<title>Node2</title>
<g id="a_node2"><a xlink:href="2_d_m_t_i_8h.html" target="_top" xlink:title="API for 2D Moving Target Indicator filter (2DMTI)">
<polygon fill="white" stroke="black" points="0,-224.5 0,-243.5 95,-243.5 95,-224.5 0,-224.5"/>
<text text-anchor="middle" x="47.5" y="-231.5" font-family="Helvetica,sans-Serif" font-size="10.00">ifxAlgo/2DMTI.h</text>
</a>
</g>
</g>
<!-- Node1&#45;&gt;Node2 -->
<g id="edge1" class="edge">
<title>Node1&#45;&gt;Node2</title>
<path fill="none" stroke="midnightblue" d="M295.69,-289.68C234.92,-276.29 149.48,-257.47 96.36,-245.76"/>
<polygon fill="midnightblue" stroke="midnightblue" points="97.02,-242.33 86.5,-243.59 95.51,-249.16 97.02,-242.33"/>
</g>
<!-- Node9 -->
<g id="node9" class="node">
<title>Node9</title>
<g id="a_node9"><a xlink:href="_d_b_s_c_a_n_8h.html" target="_top" xlink:title="API for Density&#45;based spatial clustering of applications with noise (DBSCAN) algorithm.">
<polygon fill="white" stroke="black" points="754.5,-112.5 754.5,-131.5 858.5,-131.5 858.5,-112.5 754.5,-112.5"/>
<text text-anchor="middle" x="806.5" y="-119.5" font-family="Helvetica,sans-Serif" font-size="10.00">ifxAlgo/DBSCAN.h</text>
</a>
</g>
</g>
<!-- Node1&#45;&gt;Node9 -->
<g id="edge10" class="edge">
<title>Node1&#45;&gt;Node9</title>
<path fill="none" stroke="midnightblue" d="M439.22,-294C491.92,-284.22 564.64,-267.91 625.5,-244 672.55,-225.51 682.57,-216.23 724.5,-188 747.86,-172.28 772.99,-151.77 789.18,-138.03"/>
<polygon fill="midnightblue" stroke="midnightblue" points="791.46,-140.69 796.78,-131.53 786.91,-135.37 791.46,-140.69"/>
</g>
<!-- Node10 -->
<g id="node10" class="node">
<title>Node10</title>
<g id="a_node10"><a xlink:href="_f_f_t_8h.html" target="_top" xlink:title="API for Fast Fourier Transform (FFT)">
<polygon fill="white" stroke="black" points="390.5,-168.5 390.5,-187.5 470.5,-187.5 470.5,-168.5 390.5,-168.5"/>
<text text-anchor="middle" x="430.5" y="-175.5" font-family="Helvetica,sans-Serif" font-size="10.00">ifxAlgo/FFT.h</text>
</a>
</g>
</g>
<!-- Node1&#45;&gt;Node10 -->
<g id="edge12" class="edge">
<title>Node1&#45;&gt;Node10</title>
<path fill="none" stroke="midnightblue" d="M380.1,-280.2C392.44,-255.43 410.91,-218.33 421.73,-196.61"/>
<polygon fill="midnightblue" stroke="midnightblue" points="424.92,-198.06 426.24,-187.55 418.65,-194.94 424.92,-198.06"/>
</g>
<!-- Node11 -->
<g id="node11" class="node">
<title>Node11</title>
<g id="a_node11"><a xlink:href="_m_t_i_8h.html" target="_top" xlink:title="API for Moving Target Indicator (MTI) filter.">
<polygon fill="white" stroke="black" points="215,-168.5 215,-187.5 296,-187.5 296,-168.5 215,-168.5"/>
<text text-anchor="middle" x="255.5" y="-175.5" font-family="Helvetica,sans-Serif" font-size="10.00">ifxAlgo/MTI.h</text>
</a>
</g>
</g>
<!-- Node1&#45;&gt;Node11 -->
<g id="edge15" class="edge">
<title>Node1&#45;&gt;Node11</title>
<path fill="none" stroke="midnightblue" d="M315.88,-280.38C300.71,-270.83 285.3,-258.64 274.5,-244 264.58,-230.55 259.82,-211.99 257.54,-198.14"/>
<polygon fill="midnightblue" stroke="midnightblue" points="260.96,-197.28 256.16,-187.84 254.02,-198.21 260.96,-197.28"/>
</g>
<!-- Node12 -->
<g id="node12" class="node">
<title>Node12</title>
<g id="a_node12"><a xlink:href="_o_s_c_f_a_r_8h.html" target="_top" xlink:title="API for 2D ordered statistic constant false alarm rate (OS&#45;CFAR) algorithm.">
<polygon fill="white" stroke="black" points="113,-224.5 113,-243.5 214,-243.5 214,-224.5 113,-224.5"/>
<text text-anchor="middle" x="163.5" y="-231.5" font-family="Helvetica,sans-Serif" font-size="10.00">ifxAlgo/OSCFAR.h</text>
</a>
</g>
</g>
<!-- Node1&#45;&gt;Node12 -->
<g id="edge18" class="edge">
<title>Node1&#45;&gt;Node12</title>
<path fill="none" stroke="midnightblue" d="M295.86,-280.74C262.68,-269.27 224.77,-256.17 198.05,-246.94"/>
<polygon fill="midnightblue" stroke="midnightblue" points="198.99,-243.56 188.4,-243.6 196.7,-250.18 198.99,-243.56"/>
</g>
<!-- Node13 -->
<g id="node13" class="node">
<title>Node13</title>
<g id="a_node13"><a xlink:href="_preprocessed_f_f_t_8h.html" target="_top" xlink:title="API for Pre&#45;processed FFT.">
<polygon fill="white" stroke="black" points="472,-224.5 472,-243.5 617,-243.5 617,-224.5 472,-224.5"/>
<text text-anchor="middle" x="544.5" y="-231.5" font-family="Helvetica,sans-Serif" font-size="10.00">ifxAlgo/PreprocessedFFT.h</text>
</a>
</g>
</g>
<!-- Node1&#45;&gt;Node13 -->
<g id="edge21" class="edge">
<title>Node1&#45;&gt;Node13</title>
<path fill="none" stroke="midnightblue" d="M430.4,-280.45C458.62,-269.21 490.64,-256.45 513.56,-247.33"/>
<polygon fill="midnightblue" stroke="midnightblue" points="515.1,-250.48 523.09,-243.53 512.51,-243.98 515.1,-250.48"/>
</g>
<!-- Node14 -->
<g id="node14" class="node">
<title>Node14</title>
<g id="a_node14"><a xlink:href="_window_8h.html" target="_top" xlink:title="API for Window function processing.">
<polygon fill="white" stroke="black" points="489,-168.5 489,-187.5 590,-187.5 590,-168.5 489,-168.5"/>
<text text-anchor="middle" x="539.5" y="-175.5" font-family="Helvetica,sans-Serif" font-size="10.00">ifxAlgo/Window.h</text>
</a>
</g>
</g>
<!-- Node1&#45;&gt;Node14 -->
<g id="edge34" class="edge">
<title>Node1&#45;&gt;Node14</title>
<path fill="none" stroke="midnightblue" d="M394.28,-280.24C412.75,-263.4 438.25,-241.27 462.5,-224 478.9,-212.32 498.5,-200.9 513.82,-192.48"/>
<polygon fill="midnightblue" stroke="midnightblue" points="515.61,-195.49 522.74,-187.66 512.28,-189.34 515.61,-195.49"/>
</g>
<!-- Node16 -->
<g id="node16" class="node">
<title>Node16</title>
<g id="a_node16"><a xlink:href="_signal_8h.html" target="_top" xlink:title="API for digital filtering operations.">
<polygon fill="white" stroke="black" points="284,-224.5 284,-243.5 377,-243.5 377,-224.5 284,-224.5"/>
<text text-anchor="middle" x="330.5" y="-231.5" font-family="Helvetica,sans-Serif" font-size="10.00">ifxAlgo/Signal.h</text>
</a>
</g>
</g>
<!-- Node1&#45;&gt;Node16 -->
<g id="edge30" class="edge">
<title>Node1&#45;&gt;Node16</title>
<path fill="none" stroke="midnightblue" d="M354.35,-280.45C349.51,-271.23 344.14,-261 339.72,-252.58"/>
<polygon fill="midnightblue" stroke="midnightblue" points="342.81,-250.92 335.06,-243.7 336.61,-254.18 342.81,-250.92"/>
</g>
<!-- Node3 -->
<g id="node3" class="node">
<title>Node3</title>
<g id="a_node3"><a xlink:href="ifx_base_2_types_8h.html" target="_top" xlink:title="Definitions of data types used within the SDK.">
<polygon fill="white" stroke="black" points="354,-56.5 354,-75.5 447,-75.5 447,-56.5 354,-56.5"/>
<text text-anchor="middle" x="400.5" y="-63.5" font-family="Helvetica,sans-Serif" font-size="10.00">ifxBase/Types.h</text>
</a>
</g>
</g>
<!-- Node2&#45;&gt;Node3 -->
<g id="edge2" class="edge">
<title>Node2&#45;&gt;Node3</title>
<path fill="none" stroke="midnightblue" d="M50.1,-224.32C57.51,-201.28 81.1,-138.56 125.5,-112 161.34,-90.56 273.9,-77.57 343.41,-71.39"/>
<polygon fill="midnightblue" stroke="midnightblue" points="344.1,-74.84 353.76,-70.49 343.49,-67.87 344.1,-74.84"/>
</g>
<!-- Node7 -->
<g id="node7" class="node">
<title>Node7</title>
<g id="a_node7"><a xlink:href="_matrix_8h.html" target="_top" xlink:title="API for operations on Matrix data structures.">
<polygon fill="white" stroke="black" points="100,-168.5 100,-187.5 197,-187.5 197,-168.5 100,-168.5"/>
<text text-anchor="middle" x="148.5" y="-175.5" font-family="Helvetica,sans-Serif" font-size="10.00">ifxBase/Matrix.h</text>
</a>
</g>
</g>
<!-- Node2&#45;&gt;Node7 -->
<g id="edge6" class="edge">
<title>Node2&#45;&gt;Node7</title>
<path fill="none" stroke="midnightblue" d="M63.73,-224.32C79.85,-215.7 104.8,-202.36 123.46,-192.39"/>
<polygon fill="midnightblue" stroke="midnightblue" points="125.14,-195.46 132.31,-187.65 121.84,-189.28 125.14,-195.46"/>
</g>
<!-- Node4 -->
<g id="node4" class="node">
<title>Node4</title>
<g id="a_node4"><a xlink:title=" ">
<polygon fill="white" stroke="#bfbfbf" points="301,-0.5 301,-19.5 354,-19.5 354,-0.5 301,-0.5"/>
<text text-anchor="middle" x="327.5" y="-7.5" font-family="Helvetica,sans-Serif" font-size="10.00">stdint.h</text>
</a>
</g>
</g>
<!-- Node3&#45;&gt;Node4 -->
<g id="edge3" class="edge">
<title>Node3&#45;&gt;Node4</title>
<path fill="none" stroke="midnightblue" d="M388.77,-56.32C377.66,-48.11 360.76,-35.6 347.52,-25.81"/>
<polygon fill="midnightblue" stroke="midnightblue" points="349.56,-22.97 339.44,-19.83 345.4,-28.59 349.56,-22.97"/>
</g>
<!-- Node5 -->
<g id="node5" class="node">
<title>Node5</title>
<g id="a_node5"><a xlink:title=" ">
<polygon fill="white" stroke="#bfbfbf" points="372.5,-0.5 372.5,-19.5 428.5,-19.5 428.5,-0.5 372.5,-0.5"/>
<text text-anchor="middle" x="400.5" y="-7.5" font-family="Helvetica,sans-Serif" font-size="10.00">stddef.h</text>
</a>
</g>
</g>
<!-- Node3&#45;&gt;Node5 -->
<g id="edge4" class="edge">
<title>Node3&#45;&gt;Node5</title>
<path fill="none" stroke="midnightblue" d="M400.5,-56.08C400.5,-49.01 400.5,-38.86 400.5,-29.99"/>
<polygon fill="midnightblue" stroke="midnightblue" points="404,-29.75 400.5,-19.75 397,-29.75 404,-29.75"/>
</g>
<!-- Node6 -->
<g id="node6" class="node">
<title>Node6</title>
<g id="a_node6"><a xlink:title=" ">
<polygon fill="white" stroke="#bfbfbf" points="446.5,-0.5 446.5,-19.5 508.5,-19.5 508.5,-0.5 446.5,-0.5"/>
<text text-anchor="middle" x="477.5" y="-7.5" font-family="Helvetica,sans-Serif" font-size="10.00">stdbool.h</text>
</a>
</g>
</g>
<!-- Node3&#45;&gt;Node6 -->
<g id="edge5" class="edge">
<title>Node3&#45;&gt;Node6</title>
<path fill="none" stroke="midnightblue" d="M412.87,-56.32C424.66,-48.06 442.63,-35.45 456.64,-25.63"/>
<polygon fill="midnightblue" stroke="midnightblue" points="458.98,-28.26 465.16,-19.65 454.96,-22.53 458.98,-28.26"/>
</g>
<!-- Node7&#45;&gt;Node3 -->
<g id="edge7" class="edge">
<title>Node7&#45;&gt;Node3</title>
<path fill="none" stroke="midnightblue" d="M165.76,-168.43C191.73,-155.64 242.5,-131.02 286.5,-112 313.72,-100.23 345.09,-87.94 368.03,-79.18"/>
<polygon fill="midnightblue" stroke="midnightblue" points="369.51,-82.36 377.61,-75.54 367.02,-75.82 369.51,-82.36"/>
</g>
<!-- Node8 -->
<g id="node8" class="node">
<title>Node8</title>
<g id="a_node8"><a xlink:href="_vector_8h.html" target="_top" xlink:title="API for operations on Vector data structures.">
<polygon fill="white" stroke="black" points="353,-112.5 353,-131.5 448,-131.5 448,-112.5 353,-112.5"/>
<text text-anchor="middle" x="400.5" y="-119.5" font-family="Helvetica,sans-Serif" font-size="10.00">ifxBase/Vector.h</text>
</a>
</g>
</g>
<!-- Node7&#45;&gt;Node8 -->
<g id="edge8" class="edge">
<title>Node7&#45;&gt;Node8</title>
<path fill="none" stroke="midnightblue" d="M188.43,-168.44C232.39,-159.02 303.13,-143.87 350.68,-133.68"/>
<polygon fill="midnightblue" stroke="midnightblue" points="351.71,-137.03 360.76,-131.52 350.25,-130.19 351.71,-137.03"/>
</g>
<!-- Node8&#45;&gt;Node3 -->
<g id="edge9" class="edge">
<title>Node8&#45;&gt;Node3</title>
<path fill="none" stroke="midnightblue" d="M400.5,-112.08C400.5,-105.01 400.5,-94.86 400.5,-85.99"/>
<polygon fill="midnightblue" stroke="midnightblue" points="404,-85.75 400.5,-75.75 397,-85.75 404,-85.75"/>
</g>
<!-- Node9&#45;&gt;Node3 -->
<g id="edge11" class="edge">
<title>Node9&#45;&gt;Node3</title>
<path fill="none" stroke="midnightblue" d="M754.26,-113.86C749.61,-113.23 744.97,-112.6 740.5,-112 640.87,-98.61 524.77,-83.31 457.26,-74.44"/>
<polygon fill="midnightblue" stroke="midnightblue" points="457.63,-70.96 447.26,-73.13 456.71,-77.9 457.63,-70.96"/>
</g>
<!-- Node10&#45;&gt;Node3 -->
<g id="edge13" class="edge">
<title>Node10&#45;&gt;Node3</title>
<path fill="none" stroke="midnightblue" d="M438.51,-168.43C449.26,-155.85 465.96,-131.73 456.5,-112 450.25,-98.95 438.16,-88.49 426.82,-80.95"/>
<polygon fill="midnightblue" stroke="midnightblue" points="428.35,-77.79 418,-75.54 424.69,-83.75 428.35,-77.79"/>
</g>
<!-- Node10&#45;&gt;Node8 -->
<g id="edge14" class="edge">
<title>Node10&#45;&gt;Node8</title>
<path fill="none" stroke="midnightblue" d="M425.55,-168.08C421.4,-160.61 415.35,-149.72 410.23,-140.52"/>
<polygon fill="midnightblue" stroke="midnightblue" points="413.28,-138.79 405.36,-131.75 407.16,-142.19 413.28,-138.79"/>
</g>
<!-- Node11&#45;&gt;Node3 -->
<g id="edge16" class="edge">
<title>Node11&#45;&gt;Node3</title>
<path fill="none" stroke="midnightblue" d="M261.03,-168.46C270.06,-155.03 289.11,-128.81 310.5,-112 327.77,-98.43 349.78,-87.33 367.71,-79.56"/>
<polygon fill="midnightblue" stroke="midnightblue" points="369.33,-82.68 377.2,-75.58 366.62,-76.22 369.33,-82.68"/>
</g>
<!-- Node11&#45;&gt;Node8 -->
<g id="edge17" class="edge">
<title>Node11&#45;&gt;Node8</title>
<path fill="none" stroke="midnightblue" d="M278.48,-168.44C302.66,-159.44 340.92,-145.19 368.15,-135.05"/>
<polygon fill="midnightblue" stroke="midnightblue" points="369.48,-138.29 377.63,-131.52 367.04,-131.73 369.48,-138.29"/>
</g>
<!-- Node12&#45;&gt;Node3 -->
<g id="edge19" class="edge">
<title>Node12&#45;&gt;Node3</title>
<path fill="none" stroke="midnightblue" d="M139.7,-224.34C112.53,-213.08 73.86,-191.98 90.5,-168 146.87,-86.78 270.62,-69.37 343.57,-66.51"/>
<polygon fill="midnightblue" stroke="midnightblue" points="344.07,-70 353.95,-66.19 343.85,-63 344.07,-70"/>
</g>
<!-- Node12&#45;&gt;Node7 -->
<g id="edge20" class="edge">
<title>Node12&#45;&gt;Node7</title>
<path fill="none" stroke="midnightblue" d="M161.02,-224.08C159.01,-216.85 156.11,-206.41 153.61,-197.4"/>
<polygon fill="midnightblue" stroke="midnightblue" points="156.98,-196.45 150.93,-187.75 150.24,-198.32 156.98,-196.45"/>
</g>
<!-- Node13&#45;&gt;Node3 -->
<g id="edge26" class="edge">
<title>Node13&#45;&gt;Node3</title>
<path fill="none" stroke="midnightblue" d="M617.26,-228.09C672.39,-221.37 734.42,-205.49 707.5,-168 650.58,-88.72 529.27,-70.55 457.36,-67.04"/>
<polygon fill="midnightblue" stroke="midnightblue" points="457.25,-63.54 447.12,-66.63 456.97,-70.53 457.25,-63.54"/>
</g>
<!-- Node13&#45;&gt;Node10 -->
<g id="edge22" class="edge">
<title>Node13&#45;&gt;Node10</title>
<path fill="none" stroke="midnightblue" d="M526.44,-224.44C507.93,-215.68 478.92,-201.94 457.64,-191.86"/>
<polygon fill="midnightblue" stroke="midnightblue" points="459.01,-188.63 448.48,-187.52 456.02,-194.96 459.01,-188.63"/>
</g>
<!-- Node13&#45;&gt;Node14 -->
<g id="edge23" class="edge">
<title>Node13&#45;&gt;Node14</title>
<path fill="none" stroke="midnightblue" d="M543.67,-224.08C543.02,-217.01 542.08,-206.86 541.26,-197.99"/>
<polygon fill="midnightblue" stroke="midnightblue" points="544.72,-197.39 540.31,-187.75 537.75,-198.03 544.72,-197.39"/>
</g>
<!-- Node15 -->
<g id="node15" class="node">
<title>Node15</title>
<g id="a_node15"><a xlink:href="_math_8h.html" target="_top" xlink:title="API for Mathematical operations.">
<polygon fill="white" stroke="black" points="608.5,-168.5 608.5,-187.5 698.5,-187.5 698.5,-168.5 608.5,-168.5"/>
<text text-anchor="middle" x="653.5" y="-175.5" font-family="Helvetica,sans-Serif" font-size="10.00">ifxBase/Math.h</text>
</a>
</g>
</g>
<!-- Node13&#45;&gt;Node15 -->
<g id="edge27" class="edge">
<title>Node13&#45;&gt;Node15</title>
<path fill="none" stroke="midnightblue" d="M562.01,-224.32C579.57,-215.62 606.83,-202.12 627.03,-192.11"/>
<polygon fill="midnightblue" stroke="midnightblue" points="628.62,-195.23 636.03,-187.65 625.52,-188.96 628.62,-195.23"/>
</g>
<!-- Node14&#45;&gt;Node3 -->
<g id="edge24" class="edge">
<title>Node14&#45;&gt;Node3</title>
<path fill="none" stroke="midnightblue" d="M531.76,-168.41C519.79,-155.37 495.72,-130.19 472.5,-112 457.55,-100.29 439.42,-88.98 425.1,-80.62"/>
<polygon fill="midnightblue" stroke="midnightblue" points="426.72,-77.52 416.3,-75.58 423.24,-83.59 426.72,-77.52"/>
</g>
<!-- Node14&#45;&gt;Node8 -->
<g id="edge25" class="edge">
<title>Node14&#45;&gt;Node8</title>
<path fill="none" stroke="midnightblue" d="M517.48,-168.44C494.4,-159.48 457.94,-145.31 431.86,-135.18"/>
<polygon fill="midnightblue" stroke="midnightblue" points="433.01,-131.88 422.42,-131.52 430.48,-138.4 433.01,-131.88"/>
</g>
<!-- Node15&#45;&gt;Node3 -->
<g id="edge28" class="edge">
<title>Node15&#45;&gt;Node3</title>
<path fill="none" stroke="midnightblue" d="M633.65,-168.37C589.22,-149.05 481.6,-102.26 429.59,-79.65"/>
<polygon fill="midnightblue" stroke="midnightblue" points="430.83,-76.37 420.26,-75.59 428.04,-82.79 430.83,-76.37"/>
</g>
<!-- Node15&#45;&gt;Node8 -->
<g id="edge29" class="edge">
<title>Node15&#45;&gt;Node8</title>
<path fill="none" stroke="midnightblue" d="M613.41,-168.44C569.18,-159 497.96,-143.8 450.22,-133.61"/>
<polygon fill="midnightblue" stroke="midnightblue" points="450.91,-130.18 440.4,-131.52 449.45,-137.03 450.91,-130.18"/>
</g>
<!-- Node16&#45;&gt;Node3 -->
<g id="edge31" class="edge">
<title>Node16&#45;&gt;Node3</title>
<path fill="none" stroke="midnightblue" d="M329.27,-224.42C326.74,-203.63 322.76,-149.54 343.5,-112 350.69,-98.98 363.35,-88.41 374.92,-80.79"/>
<polygon fill="midnightblue" stroke="midnightblue" points="376.76,-83.77 383.44,-75.55 373.09,-77.81 376.76,-83.77"/>
</g>
<!-- Node16&#45;&gt;Node7 -->
<g id="edge32" class="edge">
<title>Node16&#45;&gt;Node7</title>
<path fill="none" stroke="midnightblue" d="M301.66,-224.44C270.64,-215.24 221.17,-200.56 186.88,-190.39"/>
<polygon fill="midnightblue" stroke="midnightblue" points="187.79,-187.01 177.2,-187.52 185.79,-193.72 187.79,-187.01"/>
</g>
<!-- Node16&#45;&gt;Node8 -->
<g id="edge33" class="edge">
<title>Node16&#45;&gt;Node8</title>
<path fill="none" stroke="midnightblue" d="M335.99,-224.37C347.49,-206.3 374.3,-164.18 389.49,-140.31"/>
<polygon fill="midnightblue" stroke="midnightblue" points="392.62,-141.91 395.03,-131.59 386.71,-138.15 392.62,-141.91"/>
</g>
</g>
</svg>
