<?xml version="1.0" encoding="UTF-8" standalone="no"?>
<!DOCTYPE svg PUBLIC "-//W3C//DTD SVG 1.1//EN"
 "http://www.w3.org/Graphics/SVG/1.1/DTD/svg11.dtd">
<!-- Generated by graphviz version 2.43.0 (0)
 -->
<!-- Title: /home/jenkins/jenkins&#45;ci/workspace/er_release_release&#45;branch&#45;v3.3.1@2/sdk/c/ifxRadar/AngleMonopulse.h Pages: 1 -->
<svg width="250pt" height="397pt"
 viewBox="0.00 0.00 250.00 397.00" xmlns="http://www.w3.org/2000/svg" xmlns:xlink="http://www.w3.org/1999/xlink">
<g id="graph0" class="graph" transform="scale(1 1) rotate(0) translate(4 393)">
<title>/home/jenkins/jenkins&#45;ci/workspace/er_release_release&#45;branch&#45;v3.3.1@2/sdk/c/ifxRadar/AngleMonopulse.h</title>
<polygon fill="white" stroke="transparent" points="-4,4 -4,-393 246,-393 246,4 -4,4"/>
<!-- Node1 -->
<g id="node1" class="node">
<title>Node1</title>
<g id="a_node1"><a xlink:title="API for Phase Monopulse algorithm.">
<polygon fill="#bfbfbf" stroke="black" points="49.5,-336.5 49.5,-388.5 231.5,-388.5 231.5,-336.5 49.5,-336.5"/>
<text text-anchor="start" x="57.5" y="-376.5" font-family="Helvetica,sans-Serif" font-size="10.00">/home/jenkins/jenkins</text>
<text text-anchor="start" x="57.5" y="-365.5" font-family="Helvetica,sans-Serif" font-size="10.00">&#45;ci/workspace/er_release</text>
<text text-anchor="start" x="57.5" y="-354.5" font-family="Helvetica,sans-Serif" font-size="10.00">_release&#45;branch&#45;v3.3.1@2</text>
<text text-anchor="middle" x="140.5" y="-343.5" font-family="Helvetica,sans-Serif" font-size="10.00">/sdk/c/ifxRadar/AngleMonopulse.h</text>
</a>
</g>
</g>
<!-- Node2 -->
<g id="node2" class="node">
<title>Node2</title>
<g id="a_node2"><a xlink:href="ifx_base_2_types_8h.html" target="_top" xlink:title="Definitions of data types used within the SDK.">
<polygon fill="white" stroke="black" points="53,-56.5 53,-75.5 146,-75.5 146,-56.5 53,-56.5"/>
<text text-anchor="middle" x="99.5" y="-63.5" font-family="Helvetica,sans-Serif" font-size="10.00">ifxBase/Types.h</text>
</a>
</g>
</g>
<!-- Node1&#45;&gt;Node2 -->
<g id="edge1" class="edge">
<title>Node1&#45;&gt;Node2</title>
<path fill="none" stroke="midnightblue" d="M104.56,-336.29C76.6,-313.42 42.5,-276.95 42.5,-235 42.5,-235 42.5,-235 42.5,-177 42.5,-140.3 67.82,-103.66 84.71,-83.3"/>
<polygon fill="midnightblue" stroke="midnightblue" points="87.45,-85.48 91.33,-75.62 82.15,-80.9 87.45,-85.48"/>
</g>
<!-- Node6 -->
<g id="node6" class="node">
<title>Node6</title>
<g id="a_node6"><a xlink:href="_complex_8h.html" target="_top" xlink:title="API for operations on complex numbers.">
<polygon fill="white" stroke="black" points="86,-280.5 86,-299.5 195,-299.5 195,-280.5 86,-280.5"/>
<text text-anchor="middle" x="140.5" y="-287.5" font-family="Helvetica,sans-Serif" font-size="10.00">ifxBase/Complex.h</text>
</a>
</g>
</g>
<!-- Node1&#45;&gt;Node6 -->
<g id="edge5" class="edge">
<title>Node1&#45;&gt;Node6</title>
<path fill="none" stroke="midnightblue" d="M140.5,-336.45C140.5,-327.73 140.5,-318.1 140.5,-309.96"/>
<polygon fill="midnightblue" stroke="midnightblue" points="144,-309.7 140.5,-299.7 137,-309.7 144,-309.7"/>
</g>
<!-- Node9 -->
<g id="node9" class="node">
<title>Node9</title>
<g id="a_node9"><a xlink:href="_vector_8h.html" target="_top" xlink:title="API for operations on Vector data structures.">
<polygon fill="white" stroke="black" points="147,-112.5 147,-131.5 242,-131.5 242,-112.5 147,-112.5"/>
<text text-anchor="middle" x="194.5" y="-119.5" font-family="Helvetica,sans-Serif" font-size="10.00">ifxBase/Vector.h</text>
</a>
</g>
</g>
<!-- Node1&#45;&gt;Node9 -->
<g id="edge12" class="edge">
<title>Node1&#45;&gt;Node9</title>
<path fill="none" stroke="midnightblue" d="M172.47,-336.34C183.66,-326.12 195.43,-313.52 203.5,-300 216.76,-277.77 215.91,-269.63 219.5,-244 224.66,-207.16 211.35,-164.7 202.23,-141.14"/>
<polygon fill="midnightblue" stroke="midnightblue" points="205.42,-139.69 198.42,-131.74 198.93,-142.32 205.42,-139.69"/>
</g>
<!-- Node3 -->
<g id="node3" class="node">
<title>Node3</title>
<g id="a_node3"><a xlink:title=" ">
<polygon fill="white" stroke="#bfbfbf" points="0,-0.5 0,-19.5 53,-19.5 53,-0.5 0,-0.5"/>
<text text-anchor="middle" x="26.5" y="-7.5" font-family="Helvetica,sans-Serif" font-size="10.00">stdint.h</text>
</a>
</g>
</g>
<!-- Node2&#45;&gt;Node3 -->
<g id="edge2" class="edge">
<title>Node2&#45;&gt;Node3</title>
<path fill="none" stroke="midnightblue" d="M87.77,-56.32C76.66,-48.11 59.76,-35.6 46.52,-25.81"/>
<polygon fill="midnightblue" stroke="midnightblue" points="48.56,-22.97 38.44,-19.83 44.4,-28.59 48.56,-22.97"/>
</g>
<!-- Node4 -->
<g id="node4" class="node">
<title>Node4</title>
<g id="a_node4"><a xlink:title=" ">
<polygon fill="white" stroke="#bfbfbf" points="71.5,-0.5 71.5,-19.5 127.5,-19.5 127.5,-0.5 71.5,-0.5"/>
<text text-anchor="middle" x="99.5" y="-7.5" font-family="Helvetica,sans-Serif" font-size="10.00">stddef.h</text>
</a>
</g>
</g>
<!-- Node2&#45;&gt;Node4 -->
<g id="edge3" class="edge">
<title>Node2&#45;&gt;Node4</title>
<path fill="none" stroke="midnightblue" d="M99.5,-56.08C99.5,-49.01 99.5,-38.86 99.5,-29.99"/>
<polygon fill="midnightblue" stroke="midnightblue" points="103,-29.75 99.5,-19.75 96,-29.75 103,-29.75"/>
</g>
<!-- Node5 -->
<g id="node5" class="node">
<title>Node5</title>
<g id="a_node5"><a xlink:title=" ">
<polygon fill="white" stroke="#bfbfbf" points="145.5,-0.5 145.5,-19.5 207.5,-19.5 207.5,-0.5 145.5,-0.5"/>
<text text-anchor="middle" x="176.5" y="-7.5" font-family="Helvetica,sans-Serif" font-size="10.00">stdbool.h</text>
</a>
</g>
</g>
<!-- Node2&#45;&gt;Node5 -->
<g id="edge4" class="edge">
<title>Node2&#45;&gt;Node5</title>
<path fill="none" stroke="midnightblue" d="M111.87,-56.32C123.66,-48.06 141.63,-35.45 155.64,-25.63"/>
<polygon fill="midnightblue" stroke="midnightblue" points="157.98,-28.26 164.16,-19.65 153.96,-22.53 157.98,-28.26"/>
</g>
<!-- Node6&#45;&gt;Node2 -->
<g id="edge11" class="edge">
<title>Node6&#45;&gt;Node2</title>
<path fill="none" stroke="midnightblue" d="M128.96,-280.49C119.02,-272.38 105.38,-259.18 99.5,-244 78.46,-189.66 88.59,-118.7 95.26,-85.56"/>
<polygon fill="midnightblue" stroke="midnightblue" points="98.74,-86.02 97.42,-75.51 91.9,-84.55 98.74,-86.02"/>
</g>
<!-- Node7 -->
<g id="node7" class="node">
<title>Node7</title>
<g id="a_node7"><a xlink:href="_defines_8h.html" target="_top" xlink:title="Internal definitions used by standard math.h functions as Macros, to use float or double precision.">
<polygon fill="white" stroke="black" points="108.5,-224.5 108.5,-243.5 210.5,-243.5 210.5,-224.5 108.5,-224.5"/>
<text text-anchor="middle" x="159.5" y="-231.5" font-family="Helvetica,sans-Serif" font-size="10.00">ifxBase/Defines.h</text>
</a>
</g>
</g>
<!-- Node6&#45;&gt;Node7 -->
<g id="edge6" class="edge">
<title>Node6&#45;&gt;Node7</title>
<path fill="none" stroke="midnightblue" d="M143.64,-280.08C146.18,-272.85 149.86,-262.41 153.03,-253.4"/>
<polygon fill="midnightblue" stroke="midnightblue" points="156.4,-254.35 156.42,-243.75 149.8,-252.02 156.4,-254.35"/>
</g>
<!-- Node8 -->
<g id="node8" class="node">
<title>Node8</title>
<g id="a_node8"><a xlink:href="_math_8h.html" target="_top" xlink:title="API for Mathematical operations.">
<polygon fill="white" stroke="black" points="134,-168.5 134,-187.5 185,-187.5 185,-168.5 134,-168.5"/>
<text text-anchor="middle" x="159.5" y="-175.5" font-family="Helvetica,sans-Serif" font-size="10.00">math.h</text>
</a>
</g>
</g>
<!-- Node7&#45;&gt;Node8 -->
<g id="edge7" class="edge">
<title>Node7&#45;&gt;Node8</title>
<path fill="none" stroke="midnightblue" d="M159.5,-224.08C159.5,-217.01 159.5,-206.86 159.5,-197.99"/>
<polygon fill="midnightblue" stroke="midnightblue" points="163,-197.75 159.5,-187.75 156,-197.75 163,-197.75"/>
</g>
<!-- Node8&#45;&gt;Node2 -->
<g id="edge8" class="edge">
<title>Node8&#45;&gt;Node2</title>
<path fill="none" stroke="midnightblue" d="M154.79,-168.37C144.98,-150.38 122.16,-108.55 109.11,-84.63"/>
<polygon fill="midnightblue" stroke="midnightblue" points="112.05,-82.69 104.19,-75.59 105.9,-86.05 112.05,-82.69"/>
</g>
<!-- Node8&#45;&gt;Node9 -->
<g id="edge9" class="edge">
<title>Node8&#45;&gt;Node9</title>
<path fill="none" stroke="midnightblue" d="M165.28,-168.08C170.17,-160.53 177.33,-149.49 183.33,-140.23"/>
<polygon fill="midnightblue" stroke="midnightblue" points="186.33,-142.05 188.83,-131.75 180.45,-138.24 186.33,-142.05"/>
</g>
<!-- Node9&#45;&gt;Node2 -->
<g id="edge10" class="edge">
<title>Node9&#45;&gt;Node2</title>
<path fill="none" stroke="midnightblue" d="M179.24,-112.32C164.28,-103.82 141.25,-90.73 123.77,-80.8"/>
<polygon fill="midnightblue" stroke="midnightblue" points="125.15,-77.55 114.73,-75.65 121.69,-83.64 125.15,-77.55"/>
</g>
</g>
</svg>
