<?xml version="1.0" encoding="UTF-8" standalone="no"?>
<!DOCTYPE svg PUBLIC "-//W3C//DTD SVG 1.1//EN"
 "http://www.w3.org/Graphics/SVG/1.1/DTD/svg11.dtd">
<!-- Generated by graphviz version 2.43.0 (0)
 -->
<!-- Title: /home/jenkins/jenkins&#45;ci/workspace/er_release_release&#45;branch&#45;v3.3.1@2/sdk/c/ifxRadar/AngleCapon.h Pages: 1 -->
<svg width="265pt" height="397pt"
 viewBox="0.00 0.00 264.50 397.00" xmlns="http://www.w3.org/2000/svg" xmlns:xlink="http://www.w3.org/1999/xlink">
<g id="graph0" class="graph" transform="scale(1 1) rotate(0) translate(4 393)">
<title>/home/jenkins/jenkins&#45;ci/workspace/er_release_release&#45;branch&#45;v3.3.1@2/sdk/c/ifxRadar/AngleCapon.h</title>
<polygon fill="white" stroke="transparent" points="-4,4 -4,-393 260.5,-393 260.5,4 -4,4"/>
<!-- Node1 -->
<g id="node1" class="node">
<title>Node1</title>
<g id="a_node1"><a xlink:title="API for the 1&#45;D Angle Capon algorithm.">
<polygon fill="#bfbfbf" stroke="black" points="0,-336.5 0,-388.5 160,-388.5 160,-336.5 0,-336.5"/>
<text text-anchor="start" x="8" y="-376.5" font-family="Helvetica,sans-Serif" font-size="10.00">/home/jenkins/jenkins</text>
<text text-anchor="start" x="8" y="-365.5" font-family="Helvetica,sans-Serif" font-size="10.00">&#45;ci/workspace/er_release</text>
<text text-anchor="start" x="8" y="-354.5" font-family="Helvetica,sans-Serif" font-size="10.00">_release&#45;branch&#45;v3.3.1@2</text>
<text text-anchor="middle" x="80" y="-343.5" font-family="Helvetica,sans-Serif" font-size="10.00">/sdk/c/ifxRadar/AngleCapon.h</text>
</a>
</g>
</g>
<!-- Node2 -->
<g id="node2" class="node">
<title>Node2</title>
<g id="a_node2"><a xlink:href="ifx_base_2_types_8h.html" target="_top" xlink:title="Definitions of data types used within the SDK.">
<polygon fill="white" stroke="black" points="70.5,-56.5 70.5,-75.5 163.5,-75.5 163.5,-56.5 70.5,-56.5"/>
<text text-anchor="middle" x="117" y="-63.5" font-family="Helvetica,sans-Serif" font-size="10.00">ifxBase/Types.h</text>
</a>
</g>
</g>
<!-- Node1&#45;&gt;Node2 -->
<g id="edge1" class="edge">
<title>Node1&#45;&gt;Node2</title>
<path fill="none" stroke="midnightblue" d="M67.23,-336.04C55.86,-310.99 41,-271.31 41,-235 41,-235 41,-235 41,-177 41,-137.28 74.96,-101.5 97.48,-82.15"/>
<polygon fill="midnightblue" stroke="midnightblue" points="99.98,-84.63 105.46,-75.57 95.52,-79.24 99.98,-84.63"/>
</g>
<!-- Node6 -->
<g id="node6" class="node">
<title>Node6</title>
<g id="a_node6"><a xlink:href="_cube_8h.html" target="_top" xlink:title="API for operations on Cube data structures.">
<polygon fill="white" stroke="black" points="75,-280.5 75,-299.5 165,-299.5 165,-280.5 75,-280.5"/>
<text text-anchor="middle" x="120" y="-287.5" font-family="Helvetica,sans-Serif" font-size="10.00">ifxBase/Cube.h</text>
</a>
</g>
</g>
<!-- Node1&#45;&gt;Node6 -->
<g id="edge5" class="edge">
<title>Node1&#45;&gt;Node6</title>
<path fill="none" stroke="midnightblue" d="M94.22,-336.45C99.44,-327.23 105.25,-317 110.03,-308.58"/>
<polygon fill="midnightblue" stroke="midnightblue" points="113.18,-310.12 115.07,-299.7 107.09,-306.67 113.18,-310.12"/>
</g>
<!-- Node3 -->
<g id="node3" class="node">
<title>Node3</title>
<g id="a_node3"><a xlink:title=" ">
<polygon fill="white" stroke="#bfbfbf" points="17.5,-0.5 17.5,-19.5 70.5,-19.5 70.5,-0.5 17.5,-0.5"/>
<text text-anchor="middle" x="44" y="-7.5" font-family="Helvetica,sans-Serif" font-size="10.00">stdint.h</text>
</a>
</g>
</g>
<!-- Node2&#45;&gt;Node3 -->
<g id="edge2" class="edge">
<title>Node2&#45;&gt;Node3</title>
<path fill="none" stroke="midnightblue" d="M105.27,-56.32C94.16,-48.11 77.26,-35.6 64.02,-25.81"/>
<polygon fill="midnightblue" stroke="midnightblue" points="66.06,-22.97 55.94,-19.83 61.9,-28.59 66.06,-22.97"/>
</g>
<!-- Node4 -->
<g id="node4" class="node">
<title>Node4</title>
<g id="a_node4"><a xlink:title=" ">
<polygon fill="white" stroke="#bfbfbf" points="89,-0.5 89,-19.5 145,-19.5 145,-0.5 89,-0.5"/>
<text text-anchor="middle" x="117" y="-7.5" font-family="Helvetica,sans-Serif" font-size="10.00">stddef.h</text>
</a>
</g>
</g>
<!-- Node2&#45;&gt;Node4 -->
<g id="edge3" class="edge">
<title>Node2&#45;&gt;Node4</title>
<path fill="none" stroke="midnightblue" d="M117,-56.08C117,-49.01 117,-38.86 117,-29.99"/>
<polygon fill="midnightblue" stroke="midnightblue" points="120.5,-29.75 117,-19.75 113.5,-29.75 120.5,-29.75"/>
</g>
<!-- Node5 -->
<g id="node5" class="node">
<title>Node5</title>
<g id="a_node5"><a xlink:title=" ">
<polygon fill="white" stroke="#bfbfbf" points="163,-0.5 163,-19.5 225,-19.5 225,-0.5 163,-0.5"/>
<text text-anchor="middle" x="194" y="-7.5" font-family="Helvetica,sans-Serif" font-size="10.00">stdbool.h</text>
</a>
</g>
</g>
<!-- Node2&#45;&gt;Node5 -->
<g id="edge4" class="edge">
<title>Node2&#45;&gt;Node5</title>
<path fill="none" stroke="midnightblue" d="M129.37,-56.32C141.16,-48.06 159.13,-35.45 173.14,-25.63"/>
<polygon fill="midnightblue" stroke="midnightblue" points="175.48,-28.26 181.66,-19.65 171.46,-22.53 175.48,-28.26"/>
</g>
<!-- Node7 -->
<g id="node7" class="node">
<title>Node7</title>
<g id="a_node7"><a xlink:href="_defines_8h.html" target="_top" xlink:title="Internal definitions used by standard math.h functions as Macros, to use float or double precision.">
<polygon fill="white" stroke="black" points="69,-224.5 69,-243.5 171,-243.5 171,-224.5 69,-224.5"/>
<text text-anchor="middle" x="120" y="-231.5" font-family="Helvetica,sans-Serif" font-size="10.00">ifxBase/Defines.h</text>
</a>
</g>
</g>
<!-- Node6&#45;&gt;Node7 -->
<g id="edge6" class="edge">
<title>Node6&#45;&gt;Node7</title>
<path fill="none" stroke="midnightblue" d="M120,-280.08C120,-273.01 120,-262.86 120,-253.99"/>
<polygon fill="midnightblue" stroke="midnightblue" points="123.5,-253.75 120,-243.75 116.5,-253.75 123.5,-253.75"/>
</g>
<!-- Node10 -->
<g id="node10" class="node">
<title>Node10</title>
<g id="a_node10"><a xlink:href="_matrix_8h.html" target="_top" xlink:title="API for operations on Matrix data structures.">
<polygon fill="white" stroke="black" points="159.5,-168.5 159.5,-187.5 256.5,-187.5 256.5,-168.5 159.5,-168.5"/>
<text text-anchor="middle" x="208" y="-175.5" font-family="Helvetica,sans-Serif" font-size="10.00">ifxBase/Matrix.h</text>
</a>
</g>
</g>
<!-- Node6&#45;&gt;Node10 -->
<g id="edge11" class="edge">
<title>Node6&#45;&gt;Node10</title>
<path fill="none" stroke="midnightblue" d="M135.6,-280.45C148.9,-272.5 167.76,-259.55 180,-244 190.92,-230.14 198.4,-211.37 202.86,-197.57"/>
<polygon fill="midnightblue" stroke="midnightblue" points="206.28,-198.33 205.8,-187.75 199.58,-196.32 206.28,-198.33"/>
</g>
<!-- Node8 -->
<g id="node8" class="node">
<title>Node8</title>
<g id="a_node8"><a xlink:href="_math_8h.html" target="_top" xlink:title="API for Mathematical operations.">
<polygon fill="white" stroke="black" points="90.5,-168.5 90.5,-187.5 141.5,-187.5 141.5,-168.5 90.5,-168.5"/>
<text text-anchor="middle" x="116" y="-175.5" font-family="Helvetica,sans-Serif" font-size="10.00">math.h</text>
</a>
</g>
</g>
<!-- Node7&#45;&gt;Node8 -->
<g id="edge7" class="edge">
<title>Node7&#45;&gt;Node8</title>
<path fill="none" stroke="midnightblue" d="M119.34,-224.08C118.82,-217.01 118.06,-206.86 117.41,-197.99"/>
<polygon fill="midnightblue" stroke="midnightblue" points="120.88,-197.47 116.65,-187.75 113.9,-197.98 120.88,-197.47"/>
</g>
<!-- Node8&#45;&gt;Node2 -->
<g id="edge8" class="edge">
<title>Node8&#45;&gt;Node2</title>
<path fill="none" stroke="midnightblue" d="M110.85,-168.26C104.18,-155.87 93.86,-132.43 98,-112 99.89,-102.65 103.79,-92.83 107.57,-84.75"/>
<polygon fill="midnightblue" stroke="midnightblue" points="110.79,-86.14 112.12,-75.63 104.53,-83.01 110.79,-86.14"/>
</g>
<!-- Node9 -->
<g id="node9" class="node">
<title>Node9</title>
<g id="a_node9"><a xlink:href="_vector_8h.html" target="_top" xlink:title="API for operations on Vector data structures.">
<polygon fill="white" stroke="black" points="107.5,-112.5 107.5,-131.5 202.5,-131.5 202.5,-112.5 107.5,-112.5"/>
<text text-anchor="middle" x="155" y="-119.5" font-family="Helvetica,sans-Serif" font-size="10.00">ifxBase/Vector.h</text>
</a>
</g>
</g>
<!-- Node8&#45;&gt;Node9 -->
<g id="edge9" class="edge">
<title>Node8&#45;&gt;Node9</title>
<path fill="none" stroke="midnightblue" d="M122.44,-168.08C127.95,-160.46 136.03,-149.26 142.76,-139.94"/>
<polygon fill="midnightblue" stroke="midnightblue" points="145.66,-141.91 148.68,-131.75 139.99,-137.81 145.66,-141.91"/>
</g>
<!-- Node9&#45;&gt;Node2 -->
<g id="edge10" class="edge">
<title>Node9&#45;&gt;Node2</title>
<path fill="none" stroke="midnightblue" d="M148.73,-112.08C143.36,-104.46 135.48,-93.26 128.92,-83.94"/>
<polygon fill="midnightblue" stroke="midnightblue" points="131.78,-81.91 123.16,-75.75 126.05,-85.94 131.78,-81.91"/>
</g>
<!-- Node10&#45;&gt;Node2 -->
<g id="edge12" class="edge">
<title>Node10&#45;&gt;Node2</title>
<path fill="none" stroke="midnightblue" d="M211.57,-168.2C216.34,-154.91 223,-129.39 212,-112 201.95,-96.13 184.63,-85.74 167.5,-79"/>
<polygon fill="midnightblue" stroke="midnightblue" points="168.65,-75.69 158.05,-75.62 166.29,-82.28 168.65,-75.69"/>
</g>
<!-- Node10&#45;&gt;Node9 -->
<g id="edge13" class="edge">
<title>Node10&#45;&gt;Node9</title>
<path fill="none" stroke="midnightblue" d="M199.25,-168.08C191.53,-160.22 180.1,-148.57 170.78,-139.08"/>
<polygon fill="midnightblue" stroke="midnightblue" points="173.09,-136.44 163.59,-131.75 168.1,-141.34 173.09,-136.44"/>
</g>
</g>
</svg>
