<?xml version="1.0" encoding="UTF-8" standalone="no"?>
<!DOCTYPE svg PUBLIC "-//W3C//DTD SVG 1.1//EN"
 "http://www.w3.org/Graphics/SVG/1.1/DTD/svg11.dtd">
<!-- Generated by graphviz version 2.43.0 (0)
 -->
<!-- Title: /home/jenkins/jenkins&#45;ci/workspace/er_release_release&#45;branch&#45;v3.3.1@2/sdk/c/ifxAvian/Avian.h Pages: 1 -->
<svg width="765pt" height="520pt"
 viewBox="0.00 0.00 764.58 520.00" xmlns="http://www.w3.org/2000/svg" xmlns:xlink="http://www.w3.org/1999/xlink">
<g id="graph0" class="graph" transform="scale(1 1) rotate(0) translate(4 516)">
<title>/home/jenkins/jenkins&#45;ci/workspace/er_release_release&#45;branch&#45;v3.3.1@2/sdk/c/ifxAvian/Avian.h</title>
<polygon fill="white" stroke="transparent" points="-4,4 -4,-516 760.58,-516 760.58,4 -4,4"/>
<!-- Node1 -->
<g id="node1" class="node">
<title>Node1</title>
<g id="a_node1"><a xlink:title="Header for ifxAvian.">
<polygon fill="#bfbfbf" stroke="black" points="234,-459.5 234,-511.5 377,-511.5 377,-459.5 234,-459.5"/>
<text text-anchor="start" x="242" y="-499.5" font-family="Helvetica,sans-Serif" font-size="10.00">/home/jenkins/jenkins</text>
<text text-anchor="start" x="242" y="-488.5" font-family="Helvetica,sans-Serif" font-size="10.00">&#45;ci/workspace/er_release</text>
<text text-anchor="start" x="242" y="-477.5" font-family="Helvetica,sans-Serif" font-size="10.00">_release&#45;branch&#45;v3.3.1@2</text>
<text text-anchor="middle" x="305.5" y="-466.5" font-family="Helvetica,sans-Serif" font-size="10.00">/sdk/c/ifxAvian/Avian.h</text>
</a>
</g>
</g>
<!-- Node2 -->
<g id="node2" class="node">
<title>Node2</title>
<g id="a_node2"><a xlink:href="_device_config_8h.html" target="_top" xlink:title="API for Radar device configuration.">
<polygon fill="white" stroke="black" points="0,-235.5 0,-254.5 133,-254.5 133,-235.5 0,-235.5"/>
<text text-anchor="middle" x="66.5" y="-242.5" font-family="Helvetica,sans-Serif" font-size="10.00">ifxAvian/DeviceConfig.h</text>
</a>
</g>
</g>
<!-- Node1&#45;&gt;Node2 -->
<g id="edge1" class="edge">
<title>Node1&#45;&gt;Node2</title>
<path fill="none" stroke="midnightblue" d="M233.76,-482.45C187.26,-477.14 129.11,-462.3 94.5,-423 54.79,-377.92 59.06,-300.14 63.55,-264.64"/>
<polygon fill="midnightblue" stroke="midnightblue" points="67.02,-265.09 64.96,-254.69 60.09,-264.1 67.02,-265.09"/>
</g>
<!-- Node8 -->
<g id="node8" class="node">
<title>Node8</title>
<g id="a_node8"><a xlink:href="_device_control_8h.html" target="_top" xlink:title="API for Radar device control operations.">
<polygon fill="white" stroke="black" points="277,-347.5 277,-366.5 414,-366.5 414,-347.5 277,-347.5"/>
<text text-anchor="middle" x="345.5" y="-354.5" font-family="Helvetica,sans-Serif" font-size="10.00">ifxAvian/DeviceControl.h</text>
</a>
</g>
</g>
<!-- Node1&#45;&gt;Node8 -->
<g id="edge8" class="edge">
<title>Node1&#45;&gt;Node8</title>
<path fill="none" stroke="midnightblue" d="M310,-459.15C313.23,-442.87 318.14,-421.4 324.5,-403 327.7,-393.73 332.21,-383.82 336.22,-375.66"/>
<polygon fill="midnightblue" stroke="midnightblue" points="339.34,-377.24 340.76,-366.74 333.1,-374.07 339.34,-377.24"/>
</g>
<!-- Node19 -->
<g id="node19" class="node">
<title>Node19</title>
<g id="a_node19"><a xlink:href="_constant_wave_control_8h.html" target="_top" xlink:title="Header for Constant Wave Control. It provides APIs to use an Avian device in constant wave mode....">
<polygon fill="white" stroke="black" points="103.5,-403.5 103.5,-422.5 277.5,-422.5 277.5,-403.5 103.5,-403.5"/>
<text text-anchor="middle" x="190.5" y="-410.5" font-family="Helvetica,sans-Serif" font-size="10.00">ifxAvian/ConstantWaveControl.h</text>
</a>
</g>
</g>
<!-- Node1&#45;&gt;Node19 -->
<g id="edge31" class="edge">
<title>Node1&#45;&gt;Node19</title>
<path fill="none" stroke="midnightblue" d="M264.63,-459.45C247.37,-448.86 227.91,-436.94 213.27,-427.96"/>
<polygon fill="midnightblue" stroke="midnightblue" points="214.76,-424.77 204.41,-422.53 211.11,-430.74 214.76,-424.77"/>
</g>
<!-- Node20 -->
<g id="node20" class="node">
<title>Node20</title>
<g id="a_node20"><a xlink:href="_metrics_8h.html" target="_top" xlink:title="API for Metrics.">
<polygon fill="white" stroke="black" points="333.5,-403.5 333.5,-422.5 437.5,-422.5 437.5,-403.5 333.5,-403.5"/>
<text text-anchor="middle" x="385.5" y="-410.5" font-family="Helvetica,sans-Serif" font-size="10.00">ifxAvian/Metrics.h</text>
</a>
</g>
</g>
<!-- Node1&#45;&gt;Node20 -->
<g id="edge34" class="edge">
<title>Node1&#45;&gt;Node20</title>
<path fill="none" stroke="midnightblue" d="M333.93,-459.45C345.3,-449.43 358.03,-438.21 368,-429.42"/>
<polygon fill="midnightblue" stroke="midnightblue" points="370.44,-431.93 375.63,-422.7 365.82,-426.68 370.44,-431.93"/>
</g>
<!-- Node21 -->
<g id="node21" class="node">
<title>Node21</title>
<g id="a_node21"><a xlink:href="_shapes_8h.html" target="_top" xlink:title=" ">
<polygon fill="white" stroke="black" points="455.5,-403.5 455.5,-422.5 559.5,-422.5 559.5,-403.5 455.5,-403.5"/>
<text text-anchor="middle" x="507.5" y="-410.5" font-family="Helvetica,sans-Serif" font-size="10.00">ifxAvian/Shapes.h</text>
</a>
</g>
</g>
<!-- Node1&#45;&gt;Node21 -->
<g id="edge37" class="edge">
<title>Node1&#45;&gt;Node21</title>
<path fill="none" stroke="midnightblue" d="M377,-459.55C409.81,-448.09 447.17,-435.06 473.48,-425.87"/>
<polygon fill="midnightblue" stroke="midnightblue" points="474.71,-429.15 482.99,-422.55 472.4,-422.54 474.71,-429.15"/>
</g>
<!-- Node3 -->
<g id="node3" class="node">
<title>Node3</title>
<g id="a_node3"><a xlink:href="ifx_base_2_types_8h.html" target="_top" xlink:title="Definitions of data types used within the SDK.">
<polygon fill="white" stroke="black" points="414,-56.5 414,-75.5 507,-75.5 507,-56.5 414,-56.5"/>
<text text-anchor="middle" x="460.5" y="-63.5" font-family="Helvetica,sans-Serif" font-size="10.00">ifxBase/Types.h</text>
</a>
</g>
</g>
<!-- Node2&#45;&gt;Node3 -->
<g id="edge2" class="edge">
<title>Node2&#45;&gt;Node3</title>
<path fill="none" stroke="midnightblue" d="M68.48,-235.42C74.53,-211.36 95.17,-142.99 140.5,-112 182.16,-83.51 323.33,-72.84 403.55,-69.01"/>
<polygon fill="midnightblue" stroke="midnightblue" points="404.14,-72.49 413.97,-68.54 403.83,-65.5 404.14,-72.49"/>
</g>
<!-- Node7 -->
<g id="node7" class="node">
<title>Node7</title>
<g id="a_node7"><a xlink:href="_radar_device_common_8h.html" target="_top" xlink:title="Header for ifxRadarDeviceCommon.">
<polygon fill="white" stroke="black" points="182.5,-168.5 182.5,-198.5 318.5,-198.5 318.5,-168.5 182.5,-168.5"/>
<text text-anchor="start" x="190.5" y="-186.5" font-family="Helvetica,sans-Serif" font-size="10.00">ifxRadarDeviceCommon</text>
<text text-anchor="middle" x="250.5" y="-175.5" font-family="Helvetica,sans-Serif" font-size="10.00">/RadarDeviceCommon.h</text>
</a>
</g>
</g>
<!-- Node2&#45;&gt;Node7 -->
<g id="edge6" class="edge">
<title>Node2&#45;&gt;Node7</title>
<path fill="none" stroke="midnightblue" d="M92.86,-235.48C120,-226.7 163.02,-212.79 197.27,-201.71"/>
<polygon fill="midnightblue" stroke="midnightblue" points="198.7,-204.93 207.13,-198.52 196.54,-198.27 198.7,-204.93"/>
</g>
<!-- Node4 -->
<g id="node4" class="node">
<title>Node4</title>
<g id="a_node4"><a xlink:title=" ">
<polygon fill="white" stroke="#bfbfbf" points="361,-0.5 361,-19.5 414,-19.5 414,-0.5 361,-0.5"/>
<text text-anchor="middle" x="387.5" y="-7.5" font-family="Helvetica,sans-Serif" font-size="10.00">stdint.h</text>
</a>
</g>
</g>
<!-- Node3&#45;&gt;Node4 -->
<g id="edge3" class="edge">
<title>Node3&#45;&gt;Node4</title>
<path fill="none" stroke="midnightblue" d="M448.77,-56.32C437.66,-48.11 420.76,-35.6 407.52,-25.81"/>
<polygon fill="midnightblue" stroke="midnightblue" points="409.56,-22.97 399.44,-19.83 405.4,-28.59 409.56,-22.97"/>
</g>
<!-- Node5 -->
<g id="node5" class="node">
<title>Node5</title>
<g id="a_node5"><a xlink:title=" ">
<polygon fill="white" stroke="#bfbfbf" points="432.5,-0.5 432.5,-19.5 488.5,-19.5 488.5,-0.5 432.5,-0.5"/>
<text text-anchor="middle" x="460.5" y="-7.5" font-family="Helvetica,sans-Serif" font-size="10.00">stddef.h</text>
</a>
</g>
</g>
<!-- Node3&#45;&gt;Node5 -->
<g id="edge4" class="edge">
<title>Node3&#45;&gt;Node5</title>
<path fill="none" stroke="midnightblue" d="M460.5,-56.08C460.5,-49.01 460.5,-38.86 460.5,-29.99"/>
<polygon fill="midnightblue" stroke="midnightblue" points="464,-29.75 460.5,-19.75 457,-29.75 464,-29.75"/>
</g>
<!-- Node6 -->
<g id="node6" class="node">
<title>Node6</title>
<g id="a_node6"><a xlink:title=" ">
<polygon fill="white" stroke="#bfbfbf" points="506.5,-0.5 506.5,-19.5 568.5,-19.5 568.5,-0.5 506.5,-0.5"/>
<text text-anchor="middle" x="537.5" y="-7.5" font-family="Helvetica,sans-Serif" font-size="10.00">stdbool.h</text>
</a>
</g>
</g>
<!-- Node3&#45;&gt;Node6 -->
<g id="edge5" class="edge">
<title>Node3&#45;&gt;Node6</title>
<path fill="none" stroke="midnightblue" d="M472.87,-56.32C484.66,-48.06 502.63,-35.45 516.64,-25.63"/>
<polygon fill="midnightblue" stroke="midnightblue" points="518.98,-28.26 525.16,-19.65 514.96,-22.53 518.98,-28.26"/>
</g>
<!-- Node7&#45;&gt;Node3 -->
<g id="edge7" class="edge">
<title>Node7&#45;&gt;Node3</title>
<path fill="none" stroke="midnightblue" d="M263.77,-168.27C279.05,-152.61 305.52,-127.6 332.5,-112 358.43,-97.01 390.17,-85.82 415.55,-78.34"/>
<polygon fill="midnightblue" stroke="midnightblue" points="416.65,-81.67 425.3,-75.56 414.72,-74.93 416.65,-81.67"/>
</g>
<!-- Node8&#45;&gt;Node2 -->
<g id="edge25" class="edge">
<title>Node8&#45;&gt;Node2</title>
<path fill="none" stroke="midnightblue" d="M276.9,-353.43C230.85,-349.09 170.28,-338.12 123.5,-311 103.69,-299.51 87.24,-278.63 77.19,-263.63"/>
<polygon fill="midnightblue" stroke="midnightblue" points="79.87,-261.32 71.54,-254.78 73.97,-265.09 79.87,-261.32"/>
</g>
<!-- Node8&#45;&gt;Node3 -->
<g id="edge9" class="edge">
<title>Node8&#45;&gt;Node3</title>
<path fill="none" stroke="midnightblue" d="M414.21,-351.46C481.66,-342.83 574.5,-317.89 574.5,-246 574.5,-246 574.5,-246 574.5,-182.5 574.5,-133.7 522.31,-98.06 488.55,-80.11"/>
<polygon fill="midnightblue" stroke="midnightblue" points="490.08,-76.96 479.58,-75.52 486.89,-83.19 490.08,-76.96"/>
</g>
<!-- Node8&#45;&gt;Node7 -->
<g id="edge30" class="edge">
<title>Node8&#45;&gt;Node7</title>
<path fill="none" stroke="midnightblue" d="M340.66,-347.26C326.47,-321.65 284.66,-246.17 263.33,-207.66"/>
<polygon fill="midnightblue" stroke="midnightblue" points="266.29,-205.77 258.38,-198.72 260.16,-209.17 266.29,-205.77"/>
</g>
<!-- Node9 -->
<g id="node9" class="node">
<title>Node9</title>
<g id="a_node9"><a xlink:href="_error_8h.html" target="_top" xlink:title="API for error handling.">
<polygon fill="white" stroke="black" points="602.5,-291.5 602.5,-310.5 690.5,-310.5 690.5,-291.5 602.5,-291.5"/>
<text text-anchor="middle" x="646.5" y="-298.5" font-family="Helvetica,sans-Serif" font-size="10.00">ifxBase/Error.h</text>
</a>
</g>
</g>
<!-- Node8&#45;&gt;Node9 -->
<g id="edge10" class="edge">
<title>Node8&#45;&gt;Node9</title>
<path fill="none" stroke="midnightblue" d="M393.19,-347.44C447.46,-337.71 535.88,-321.85 592.6,-311.67"/>
<polygon fill="midnightblue" stroke="midnightblue" points="593.23,-315.11 602.46,-309.9 592,-308.22 593.23,-315.11"/>
</g>
<!-- Node12 -->
<g id="node12" class="node">
<title>Node12</title>
<g id="a_node12"><a xlink:href="_list_8h.html" target="_top" xlink:title=" ">
<polygon fill="white" stroke="black" points="305,-235.5 305,-254.5 388,-254.5 388,-235.5 305,-235.5"/>
<text text-anchor="middle" x="346.5" y="-242.5" font-family="Helvetica,sans-Serif" font-size="10.00">ifxBase/List.h</text>
</a>
</g>
</g>
<!-- Node8&#45;&gt;Node12 -->
<g id="edge14" class="edge">
<title>Node8&#45;&gt;Node12</title>
<path fill="none" stroke="midnightblue" d="M345.58,-347.37C345.74,-329.62 346.11,-288.67 346.33,-264.6"/>
<polygon fill="midnightblue" stroke="midnightblue" points="349.83,-264.62 346.42,-254.59 342.83,-264.56 349.83,-264.62"/>
</g>
<!-- Node13 -->
<g id="node13" class="node">
<title>Node13</title>
<g id="a_node13"><a xlink:href="_cube_8h.html" target="_top" xlink:title="API for operations on Cube data structures.">
<polygon fill="white" stroke="black" points="373.5,-291.5 373.5,-310.5 463.5,-310.5 463.5,-291.5 373.5,-291.5"/>
<text text-anchor="middle" x="418.5" y="-298.5" font-family="Helvetica,sans-Serif" font-size="10.00">ifxBase/Cube.h</text>
</a>
</g>
</g>
<!-- Node8&#45;&gt;Node13 -->
<g id="edge16" class="edge">
<title>Node8&#45;&gt;Node13</title>
<path fill="none" stroke="midnightblue" d="M357.23,-347.32C368.34,-339.11 385.24,-326.6 398.48,-316.81"/>
<polygon fill="midnightblue" stroke="midnightblue" points="400.6,-319.59 406.56,-310.83 396.44,-313.97 400.6,-319.59"/>
</g>
<!-- Node18 -->
<g id="node18" class="node">
<title>Node18</title>
<g id="a_node18"><a xlink:href="_recording_8h.html" target="_top" xlink:title="This file defines functions to handle Recordings.">
<polygon fill="white" stroke="black" points="133,-291.5 133,-310.5 272,-310.5 272,-291.5 133,-291.5"/>
<text text-anchor="middle" x="202.5" y="-298.5" font-family="Helvetica,sans-Serif" font-size="10.00">ifxRecording/Recording.h</text>
</a>
</g>
</g>
<!-- Node8&#45;&gt;Node18 -->
<g id="edge26" class="edge">
<title>Node8&#45;&gt;Node18</title>
<path fill="none" stroke="midnightblue" d="M322.84,-347.44C299.1,-338.48 261.59,-324.31 234.76,-314.18"/>
<polygon fill="midnightblue" stroke="midnightblue" points="235.64,-310.77 225.05,-310.52 233.17,-317.32 235.64,-310.77"/>
</g>
<!-- Node10 -->
<g id="node10" class="node">
<title>Node10</title>
<g id="a_node10"><a xlink:href="_log_8h.html" target="_top" xlink:title="API for logging.">
<polygon fill="white" stroke="black" points="605,-235.5 605,-254.5 688,-254.5 688,-235.5 605,-235.5"/>
<text text-anchor="middle" x="646.5" y="-242.5" font-family="Helvetica,sans-Serif" font-size="10.00">ifxBase/Log.h</text>
</a>
</g>
</g>
<!-- Node9&#45;&gt;Node10 -->
<g id="edge11" class="edge">
<title>Node9&#45;&gt;Node10</title>
<path fill="none" stroke="midnightblue" d="M646.5,-291.08C646.5,-284.01 646.5,-273.86 646.5,-264.99"/>
<polygon fill="midnightblue" stroke="midnightblue" points="650,-264.75 646.5,-254.75 643,-264.75 650,-264.75"/>
</g>
<!-- Node10&#45;&gt;Node3 -->
<g id="edge13" class="edge">
<title>Node10&#45;&gt;Node3</title>
<path fill="none" stroke="midnightblue" d="M651.73,-235.09C659.63,-220.39 672.57,-190.43 661.5,-168 634.75,-113.77 566.83,-88.19 517.33,-76.45"/>
<polygon fill="midnightblue" stroke="midnightblue" points="517.9,-72.99 507.38,-74.21 516.37,-79.82 517.9,-72.99"/>
</g>
<!-- Node11 -->
<g id="node11" class="node">
<title>Node11</title>
<g id="a_node11"><a xlink:title=" ">
<polygon fill="white" stroke="#bfbfbf" points="602.5,-174 602.5,-193 652.5,-193 652.5,-174 602.5,-174"/>
<text text-anchor="middle" x="627.5" y="-181" font-family="Helvetica,sans-Serif" font-size="10.00">stdio.h</text>
</a>
</g>
</g>
<!-- Node10&#45;&gt;Node11 -->
<g id="edge12" class="edge">
<title>Node10&#45;&gt;Node11</title>
<path fill="none" stroke="midnightblue" d="M643.78,-235.48C641.07,-226.99 636.83,-213.7 633.35,-202.82"/>
<polygon fill="midnightblue" stroke="midnightblue" points="636.59,-201.47 630.22,-193.01 629.93,-203.6 636.59,-201.47"/>
</g>
<!-- Node12&#45;&gt;Node3 -->
<g id="edge15" class="edge">
<title>Node12&#45;&gt;Node3</title>
<path fill="none" stroke="midnightblue" d="M347.57,-235.49C350.83,-212.75 362.6,-149.74 396.5,-112 407.6,-99.64 422.7,-88.82 435.45,-80.89"/>
<polygon fill="midnightblue" stroke="midnightblue" points="437.44,-83.78 444.22,-75.64 433.85,-77.77 437.44,-83.78"/>
</g>
<!-- Node14 -->
<g id="node14" class="node">
<title>Node14</title>
<g id="a_node14"><a xlink:href="_defines_8h.html" target="_top" xlink:title="Internal definitions used by standard math.h functions as Macros, to use float or double precision.">
<polygon fill="white" stroke="black" points="444.5,-235.5 444.5,-254.5 546.5,-254.5 546.5,-235.5 444.5,-235.5"/>
<text text-anchor="middle" x="495.5" y="-242.5" font-family="Helvetica,sans-Serif" font-size="10.00">ifxBase/Defines.h</text>
</a>
</g>
</g>
<!-- Node13&#45;&gt;Node14 -->
<g id="edge17" class="edge">
<title>Node13&#45;&gt;Node14</title>
<path fill="none" stroke="midnightblue" d="M430.87,-291.32C442.66,-283.06 460.63,-270.45 474.64,-260.63"/>
<polygon fill="midnightblue" stroke="midnightblue" points="476.98,-263.26 483.16,-254.65 472.96,-257.53 476.98,-263.26"/>
</g>
<!-- Node17 -->
<g id="node17" class="node">
<title>Node17</title>
<g id="a_node17"><a xlink:href="_matrix_8h.html" target="_top" xlink:title="API for operations on Matrix data structures.">
<polygon fill="white" stroke="black" points="375,-174 375,-193 472,-193 472,-174 375,-174"/>
<text text-anchor="middle" x="423.5" y="-181" font-family="Helvetica,sans-Serif" font-size="10.00">ifxBase/Matrix.h</text>
</a>
</g>
</g>
<!-- Node13&#45;&gt;Node17 -->
<g id="edge22" class="edge">
<title>Node13&#45;&gt;Node17</title>
<path fill="none" stroke="midnightblue" d="M418.88,-291.32C419.68,-272.76 421.58,-228.84 422.68,-203.47"/>
<polygon fill="midnightblue" stroke="midnightblue" points="426.18,-203.42 423.12,-193.28 419.19,-203.12 426.18,-203.42"/>
</g>
<!-- Node15 -->
<g id="node15" class="node">
<title>Node15</title>
<g id="a_node15"><a xlink:href="_math_8h.html" target="_top" xlink:title="API for Mathematical operations.">
<polygon fill="white" stroke="black" points="490,-174 490,-193 541,-193 541,-174 490,-174"/>
<text text-anchor="middle" x="515.5" y="-181" font-family="Helvetica,sans-Serif" font-size="10.00">math.h</text>
</a>
</g>
</g>
<!-- Node14&#45;&gt;Node15 -->
<g id="edge18" class="edge">
<title>Node14&#45;&gt;Node15</title>
<path fill="none" stroke="midnightblue" d="M498.37,-235.48C501.22,-226.99 505.68,-213.7 509.34,-202.82"/>
<polygon fill="midnightblue" stroke="midnightblue" points="512.77,-203.6 512.64,-193.01 506.14,-201.37 512.77,-203.6"/>
</g>
<!-- Node15&#45;&gt;Node3 -->
<g id="edge19" class="edge">
<title>Node15&#45;&gt;Node3</title>
<path fill="none" stroke="midnightblue" d="M518,-173.73C521.46,-159.85 526.23,-132.31 516.5,-112 510.25,-98.95 498.16,-88.49 486.82,-80.95"/>
<polygon fill="midnightblue" stroke="midnightblue" points="488.35,-77.79 478,-75.54 484.69,-83.75 488.35,-77.79"/>
</g>
<!-- Node16 -->
<g id="node16" class="node">
<title>Node16</title>
<g id="a_node16"><a xlink:href="_vector_8h.html" target="_top" xlink:title="API for operations on Vector data structures.">
<polygon fill="white" stroke="black" points="413,-112.5 413,-131.5 508,-131.5 508,-112.5 413,-112.5"/>
<text text-anchor="middle" x="460.5" y="-119.5" font-family="Helvetica,sans-Serif" font-size="10.00">ifxBase/Vector.h</text>
</a>
</g>
</g>
<!-- Node15&#45;&gt;Node16 -->
<g id="edge20" class="edge">
<title>Node15&#45;&gt;Node16</title>
<path fill="none" stroke="midnightblue" d="M507.62,-173.98C499.21,-164.87 485.68,-150.24 475.27,-138.98"/>
<polygon fill="midnightblue" stroke="midnightblue" points="477.72,-136.48 468.37,-131.51 472.58,-141.23 477.72,-136.48"/>
</g>
<!-- Node16&#45;&gt;Node3 -->
<g id="edge21" class="edge">
<title>Node16&#45;&gt;Node3</title>
<path fill="none" stroke="midnightblue" d="M460.5,-112.08C460.5,-105.01 460.5,-94.86 460.5,-85.99"/>
<polygon fill="midnightblue" stroke="midnightblue" points="464,-85.75 460.5,-75.75 457,-85.75 464,-85.75"/>
</g>
<!-- Node17&#45;&gt;Node3 -->
<g id="edge23" class="edge">
<title>Node17&#45;&gt;Node3</title>
<path fill="none" stroke="midnightblue" d="M417.22,-173.91C408.09,-160.27 393.29,-133.07 403.5,-112 409.9,-98.8 422.25,-88.3 433.83,-80.78"/>
<polygon fill="midnightblue" stroke="midnightblue" points="435.66,-83.77 442.42,-75.61 432.05,-77.77 435.66,-83.77"/>
</g>
<!-- Node17&#45;&gt;Node16 -->
<g id="edge24" class="edge">
<title>Node17&#45;&gt;Node16</title>
<path fill="none" stroke="midnightblue" d="M428.8,-173.98C434.24,-165.23 442.86,-151.37 449.74,-140.31"/>
<polygon fill="midnightblue" stroke="midnightblue" points="452.9,-141.85 455.21,-131.51 446.96,-138.15 452.9,-141.85"/>
</g>
<!-- Node18&#45;&gt;Node2 -->
<g id="edge28" class="edge">
<title>Node18&#45;&gt;Node2</title>
<path fill="none" stroke="midnightblue" d="M180.95,-291.44C158.47,-282.52 123.01,-268.44 97.52,-258.32"/>
<polygon fill="midnightblue" stroke="midnightblue" points="98.53,-254.95 87.95,-254.52 95.95,-261.46 98.53,-254.95"/>
</g>
<!-- Node18&#45;&gt;Node3 -->
<g id="edge27" class="edge">
<title>Node18&#45;&gt;Node3</title>
<path fill="none" stroke="midnightblue" d="M196.58,-291.49C181.92,-269.26 146.99,-208.41 173.5,-168 223.25,-92.17 335.35,-72.63 403.8,-67.98"/>
<polygon fill="midnightblue" stroke="midnightblue" points="404.21,-71.46 413.98,-67.37 403.79,-64.47 404.21,-71.46"/>
</g>
<!-- Node18&#45;&gt;Node12 -->
<g id="edge29" class="edge">
<title>Node18&#45;&gt;Node12</title>
<path fill="none" stroke="midnightblue" d="M225.32,-291.44C249.33,-282.44 287.33,-268.19 314.37,-258.05"/>
<polygon fill="midnightblue" stroke="midnightblue" points="315.66,-261.3 323.79,-254.52 313.2,-254.75 315.66,-261.3"/>
</g>
<!-- Node19&#45;&gt;Node2 -->
<g id="edge33" class="edge">
<title>Node19&#45;&gt;Node2</title>
<path fill="none" stroke="midnightblue" d="M180.62,-403.38C162.19,-386.91 122.12,-349.19 96.5,-311 86.66,-296.34 78.51,-277.94 73.2,-264.46"/>
<polygon fill="midnightblue" stroke="midnightblue" points="76.38,-262.99 69.57,-254.87 69.83,-265.46 76.38,-262.99"/>
</g>
<!-- Node19&#45;&gt;Node8 -->
<g id="edge32" class="edge">
<title>Node19&#45;&gt;Node8</title>
<path fill="none" stroke="midnightblue" d="M215.06,-403.44C241.02,-394.4 282.17,-380.06 311.3,-369.92"/>
<polygon fill="midnightblue" stroke="midnightblue" points="312.76,-373.11 321.05,-366.52 310.46,-366.5 312.76,-373.11"/>
</g>
<!-- Node20&#45;&gt;Node3 -->
<g id="edge35" class="edge">
<title>Node20&#45;&gt;Node3</title>
<path fill="none" stroke="midnightblue" d="M423.7,-403.49C511.17,-383.46 718.5,-332.75 718.5,-302 718.5,-302 718.5,-302 718.5,-182.5 718.5,-95.09 593.6,-73.4 517.6,-68.29"/>
<polygon fill="midnightblue" stroke="midnightblue" points="517.41,-64.78 507.22,-67.68 517,-71.76 517.41,-64.78"/>
</g>
<!-- Node20&#45;&gt;Node8 -->
<g id="edge36" class="edge">
<title>Node20&#45;&gt;Node8</title>
<path fill="none" stroke="midnightblue" d="M378.89,-403.08C373.24,-395.46 364.96,-384.26 358.05,-374.94"/>
<polygon fill="midnightblue" stroke="midnightblue" points="360.75,-372.7 351.98,-366.75 355.12,-376.87 360.75,-372.7"/>
</g>
<!-- Node21&#45;&gt;Node3 -->
<g id="edge38" class="edge">
<title>Node21&#45;&gt;Node3</title>
<path fill="none" stroke="midnightblue" d="M559.71,-407.44C617.85,-401.36 707.03,-388.77 732.5,-367 755.91,-346.99 756.5,-332.8 756.5,-302 756.5,-302 756.5,-302 756.5,-182.5 756.5,-149.4 757.74,-133.41 732.5,-112 700.84,-85.15 587.19,-74.03 517.21,-69.64"/>
<polygon fill="midnightblue" stroke="midnightblue" points="517.41,-66.15 507.22,-69.04 516.99,-73.14 517.41,-66.15"/>
</g>
<!-- Node21&#45;&gt;Node8 -->
<g id="edge39" class="edge">
<title>Node21&#45;&gt;Node8</title>
<path fill="none" stroke="midnightblue" d="M481.83,-403.44C454.58,-394.36 411.32,-379.94 380.85,-369.78"/>
<polygon fill="midnightblue" stroke="midnightblue" points="381.64,-366.36 371.05,-366.52 379.43,-373 381.64,-366.36"/>
</g>
</g>
</svg>
