<?xml version="1.0" encoding="UTF-8" standalone="no"?>
<!DOCTYPE svg PUBLIC "-//W3C//DTD SVG 1.1//EN"
 "http://www.w3.org/Graphics/SVG/1.1/DTD/svg11.dtd">
<!-- Generated by graphviz version 2.43.0 (0)
 -->
<!-- Title: /home/jenkins/jenkins&#45;ci/workspace/er_release_release&#45;branch&#45;v3.3.1@2/sdk/c/ifxBase/Base.h Pages: 1 -->
<svg width="927pt" height="397pt"
 viewBox="0.00 0.00 927.41 397.00" xmlns="http://www.w3.org/2000/svg" xmlns:xlink="http://www.w3.org/1999/xlink">
<g id="graph0" class="graph" transform="scale(1 1) rotate(0) translate(4 393)">
<title>/home/jenkins/jenkins&#45;ci/workspace/er_release_release&#45;branch&#45;v3.3.1@2/sdk/c/ifxBase/Base.h</title>
<polygon fill="white" stroke="transparent" points="-4,4 -4,-393 923.41,-393 923.41,4 -4,4"/>
<!-- Node1 -->
<g id="node1" class="node">
<title>Node1</title>
<g id="a_node1"><a xlink:title="Header for ifxBase.">
<polygon fill="#bfbfbf" stroke="black" points="350.41,-336.5 350.41,-388.5 493.41,-388.5 493.41,-336.5 350.41,-336.5"/>
<text text-anchor="start" x="358.41" y="-376.5" font-family="Helvetica,sans-Serif" font-size="10.00">/home/jenkins/jenkins</text>
<text text-anchor="start" x="358.41" y="-365.5" font-family="Helvetica,sans-Serif" font-size="10.00">&#45;ci/workspace/er_release</text>
<text text-anchor="start" x="358.41" y="-354.5" font-family="Helvetica,sans-Serif" font-size="10.00">_release&#45;branch&#45;v3.3.1@2</text>
<text text-anchor="middle" x="421.91" y="-343.5" font-family="Helvetica,sans-Serif" font-size="10.00">/sdk/c/ifxBase/Base.h</text>
</a>
</g>
</g>
<!-- Node2 -->
<g id="node2" class="node">
<title>Node2</title>
<g id="a_node2"><a xlink:href="_complex_8h.html" target="_top" xlink:title="API for operations on complex numbers.">
<polygon fill="white" stroke="black" points="29.41,-280.5 29.41,-299.5 138.41,-299.5 138.41,-280.5 29.41,-280.5"/>
<text text-anchor="middle" x="83.91" y="-287.5" font-family="Helvetica,sans-Serif" font-size="10.00">ifxBase/Complex.h</text>
</a>
</g>
</g>
<!-- Node1&#45;&gt;Node2 -->
<g id="edge1" class="edge">
<title>Node1&#45;&gt;Node2</title>
<path fill="none" stroke="midnightblue" d="M350.23,-346.55C285.52,-333.05 191.92,-313.53 134.65,-301.58"/>
<polygon fill="midnightblue" stroke="midnightblue" points="135.25,-298.13 124.75,-299.52 133.82,-304.99 135.25,-298.13"/>
</g>
<!-- Node3 -->
<g id="node3" class="node">
<title>Node3</title>
<g id="a_node3"><a xlink:href="_defines_8h.html" target="_top" xlink:title="Internal definitions used by standard math.h functions as Macros, to use float or double precision.">
<polygon fill="white" stroke="black" points="194.91,-224.5 194.91,-243.5 296.91,-243.5 296.91,-224.5 194.91,-224.5"/>
<text text-anchor="middle" x="245.91" y="-231.5" font-family="Helvetica,sans-Serif" font-size="10.00">ifxBase/Defines.h</text>
</a>
</g>
</g>
<!-- Node1&#45;&gt;Node3 -->
<g id="edge16" class="edge">
<title>Node1&#45;&gt;Node3</title>
<path fill="none" stroke="midnightblue" d="M350.34,-359.49C306.21,-354.09 252.73,-339.13 223.91,-300 213.36,-285.68 222.6,-265.95 232.13,-252"/>
<polygon fill="midnightblue" stroke="midnightblue" points="235.09,-253.89 238.24,-243.78 229.47,-249.72 235.09,-253.89"/>
</g>
<!-- Node4 -->
<g id="node4" class="node">
<title>Node4</title>
<g id="a_node4"><a xlink:href="_math_8h.html" target="_top" xlink:title="API for Mathematical operations.">
<polygon fill="white" stroke="black" points="222.41,-168.5 222.41,-187.5 273.41,-187.5 273.41,-168.5 222.41,-168.5"/>
<text text-anchor="middle" x="247.91" y="-175.5" font-family="Helvetica,sans-Serif" font-size="10.00">math.h</text>
</a>
</g>
</g>
<!-- Node1&#45;&gt;Node4 -->
<g id="edge27" class="edge">
<title>Node1&#45;&gt;Node4</title>
<path fill="none" stroke="midnightblue" d="M350.11,-354.39C306.89,-346.9 253.05,-331.53 214.91,-300 187.05,-276.96 169.49,-256.21 185.91,-224 192.91,-210.27 206.28,-199.75 218.81,-192.35"/>
<polygon fill="midnightblue" stroke="midnightblue" points="220.59,-195.37 227.69,-187.51 217.23,-189.22 220.59,-195.37"/>
</g>
<!-- Node5 -->
<g id="node5" class="node">
<title>Node5</title>
<g id="a_node5"><a xlink:href="ifx_base_2_types_8h.html" target="_top" xlink:title="Definitions of data types used within the SDK.">
<polygon fill="white" stroke="black" points="429.41,-56.5 429.41,-75.5 522.41,-75.5 522.41,-56.5 429.41,-56.5"/>
<text text-anchor="middle" x="475.91" y="-63.5" font-family="Helvetica,sans-Serif" font-size="10.00">ifxBase/Types.h</text>
</a>
</g>
</g>
<!-- Node1&#45;&gt;Node5 -->
<g id="edge31" class="edge">
<title>Node1&#45;&gt;Node5</title>
<path fill="none" stroke="midnightblue" d="M350.15,-359.56C248.04,-355.33 67.85,-341.97 19.91,-300 -2.73,-280.17 0.91,-265.1 0.91,-235 0.91,-235 0.91,-235 0.91,-177 0.91,-92.09 292.6,-72.71 418.82,-68.3"/>
<polygon fill="midnightblue" stroke="midnightblue" points="419.19,-71.79 429.07,-67.96 418.96,-64.79 419.19,-71.79"/>
</g>
<!-- Node9 -->
<g id="node9" class="node">
<title>Node9</title>
<g id="a_node9"><a xlink:href="_vector_8h.html" target="_top" xlink:title="API for operations on Vector data structures.">
<polygon fill="white" stroke="black" points="295.41,-112.5 295.41,-131.5 390.41,-131.5 390.41,-112.5 295.41,-112.5"/>
<text text-anchor="middle" x="342.91" y="-119.5" font-family="Helvetica,sans-Serif" font-size="10.00">ifxBase/Vector.h</text>
</a>
</g>
</g>
<!-- Node1&#45;&gt;Node9 -->
<g id="edge34" class="edge">
<title>Node1&#45;&gt;Node9</title>
<path fill="none" stroke="midnightblue" d="M399.14,-336.18C380.58,-313.76 355.74,-279.2 344.91,-244 334.2,-209.15 337.09,-165.96 340.06,-141.74"/>
<polygon fill="midnightblue" stroke="midnightblue" points="343.54,-142.15 341.43,-131.77 336.6,-141.2 343.54,-142.15"/>
</g>
<!-- Node10 -->
<g id="node10" class="node">
<title>Node10</title>
<g id="a_node10"><a xlink:href="_cube_8h.html" target="_top" xlink:title="API for operations on Cube data structures.">
<polygon fill="white" stroke="black" points="232.91,-280.5 232.91,-299.5 322.91,-299.5 322.91,-280.5 232.91,-280.5"/>
<text text-anchor="middle" x="277.91" y="-287.5" font-family="Helvetica,sans-Serif" font-size="10.00">ifxBase/Cube.h</text>
</a>
</g>
</g>
<!-- Node1&#45;&gt;Node10 -->
<g id="edge11" class="edge">
<title>Node1&#45;&gt;Node10</title>
<path fill="none" stroke="midnightblue" d="M370.74,-336.45C348.3,-325.46 322.9,-313.03 304.35,-303.94"/>
<polygon fill="midnightblue" stroke="midnightblue" points="305.85,-300.78 295.33,-299.53 302.77,-307.07 305.85,-300.78"/>
</g>
<!-- Node11 -->
<g id="node11" class="node">
<title>Node11</title>
<g id="a_node11"><a xlink:href="_matrix_8h.html" target="_top" xlink:title="API for operations on Matrix data structures.">
<polygon fill="white" stroke="black" points="353.41,-224.5 353.41,-243.5 450.41,-243.5 450.41,-224.5 353.41,-224.5"/>
<text text-anchor="middle" x="401.91" y="-231.5" font-family="Helvetica,sans-Serif" font-size="10.00">ifxBase/Matrix.h</text>
</a>
</g>
</g>
<!-- Node1&#45;&gt;Node11 -->
<g id="edge28" class="edge">
<title>Node1&#45;&gt;Node11</title>
<path fill="none" stroke="midnightblue" d="M415.36,-336.21C412.71,-325.16 409.82,-312 407.91,-300 405.46,-284.59 403.91,-266.96 403,-253.95"/>
<polygon fill="midnightblue" stroke="midnightblue" points="406.49,-253.64 402.36,-243.88 399.5,-254.08 406.49,-253.64"/>
</g>
<!-- Node12 -->
<g id="node12" class="node">
<title>Node12</title>
<g id="a_node12"><a xlink:href="_error_8h.html" target="_top" xlink:title="API for error handling.">
<polygon fill="white" stroke="black" points="550.91,-280.5 550.91,-299.5 638.91,-299.5 638.91,-280.5 550.91,-280.5"/>
<text text-anchor="middle" x="594.91" y="-287.5" font-family="Helvetica,sans-Serif" font-size="10.00">ifxBase/Error.h</text>
</a>
</g>
</g>
<!-- Node1&#45;&gt;Node12 -->
<g id="edge17" class="edge">
<title>Node1&#45;&gt;Node12</title>
<path fill="none" stroke="midnightblue" d="M483.39,-336.45C510.97,-325.21 542.26,-312.45 564.67,-303.33"/>
<polygon fill="midnightblue" stroke="midnightblue" points="566.05,-306.54 573.99,-299.53 563.41,-300.06 566.05,-306.54"/>
</g>
<!-- Node13 -->
<g id="node13" class="node">
<title>Node13</title>
<g id="a_node13"><a xlink:href="_log_8h.html" target="_top" xlink:title="API for logging.">
<polygon fill="white" stroke="black" points="525.41,-224.5 525.41,-243.5 608.41,-243.5 608.41,-224.5 525.41,-224.5"/>
<text text-anchor="middle" x="566.91" y="-231.5" font-family="Helvetica,sans-Serif" font-size="10.00">ifxBase/Log.h</text>
</a>
</g>
</g>
<!-- Node1&#45;&gt;Node13 -->
<g id="edge26" class="edge">
<title>Node1&#45;&gt;Node13</title>
<path fill="none" stroke="midnightblue" d="M457.98,-336.34C472.64,-325.64 489.49,-312.71 503.91,-300 521.49,-284.51 539.96,-265.02 552.32,-251.44"/>
<polygon fill="midnightblue" stroke="midnightblue" points="555.07,-253.61 559.16,-243.84 549.87,-248.93 555.07,-253.61"/>
</g>
<!-- Node15 -->
<g id="node15" class="node">
<title>Node15</title>
<g id="a_node15"><a xlink:href="_l_a_8h.html" target="_top" xlink:title="API for Linear Algebra (LA)">
<polygon fill="white" stroke="black" points="416.91,-280.5 416.91,-299.5 494.91,-299.5 494.91,-280.5 416.91,-280.5"/>
<text text-anchor="middle" x="455.91" y="-287.5" font-family="Helvetica,sans-Serif" font-size="10.00">ifxBase/LA.h</text>
</a>
</g>
</g>
<!-- Node1&#45;&gt;Node15 -->
<g id="edge21" class="edge">
<title>Node1&#45;&gt;Node15</title>
<path fill="none" stroke="midnightblue" d="M433.99,-336.45C438.39,-327.33 443.27,-317.22 447.3,-308.85"/>
<polygon fill="midnightblue" stroke="midnightblue" points="450.53,-310.22 451.72,-299.7 444.22,-307.18 450.53,-310.22"/>
</g>
<!-- Node16 -->
<g id="node16" class="node">
<title>Node16</title>
<g id="a_node16"><a xlink:href="_list_8h.html" target="_top" xlink:title=" ">
<polygon fill="white" stroke="black" points="605.41,-112.5 605.41,-131.5 688.41,-131.5 688.41,-112.5 605.41,-112.5"/>
<text text-anchor="middle" x="646.91" y="-119.5" font-family="Helvetica,sans-Serif" font-size="10.00">ifxBase/List.h</text>
</a>
</g>
</g>
<!-- Node1&#45;&gt;Node16 -->
<g id="edge24" class="edge">
<title>Node1&#45;&gt;Node16</title>
<path fill="none" stroke="midnightblue" d="M493.63,-351.55C552.49,-341.74 629.08,-324.63 647.91,-300 666.46,-275.73 655.59,-182.38 649.81,-141.9"/>
<polygon fill="midnightblue" stroke="midnightblue" points="653.24,-141.16 648.32,-131.78 646.32,-142.19 653.24,-141.16"/>
</g>
<!-- Node17 -->
<g id="node17" class="node">
<title>Node17</title>
<g id="a_node17"><a xlink:href="_mem_8h.html" target="_top" xlink:title="API for memory management.">
<polygon fill="white" stroke="black" points="671.91,-168.5 671.91,-187.5 761.91,-187.5 761.91,-168.5 671.91,-168.5"/>
<text text-anchor="middle" x="716.91" y="-175.5" font-family="Helvetica,sans-Serif" font-size="10.00">ifxBase/Mem.h</text>
</a>
</g>
</g>
<!-- Node1&#45;&gt;Node17 -->
<g id="edge29" class="edge">
<title>Node1&#45;&gt;Node17</title>
<path fill="none" stroke="midnightblue" d="M493.47,-352.62C560.47,-342.91 654.17,-325.28 680.91,-300 709.35,-273.11 715.63,-224.86 716.83,-198.13"/>
<polygon fill="midnightblue" stroke="midnightblue" points="720.34,-197.9 717.08,-187.82 713.34,-197.73 720.34,-197.9"/>
</g>
<!-- Node18 -->
<g id="node18" class="node">
<title>Node18</title>
<g id="a_node18"><a xlink:href="_uuid_8h.html" target="_top" xlink:title=" ">
<polygon fill="white" stroke="black" points="744.91,-112.5 744.91,-131.5 832.91,-131.5 832.91,-112.5 744.91,-112.5"/>
<text text-anchor="middle" x="788.91" y="-119.5" font-family="Helvetica,sans-Serif" font-size="10.00">ifxBase/Uuid.h</text>
</a>
</g>
</g>
<!-- Node1&#45;&gt;Node18 -->
<g id="edge32" class="edge">
<title>Node1&#45;&gt;Node18</title>
<path fill="none" stroke="midnightblue" d="M493.66,-360.91C554.23,-357.09 640.63,-343.51 701.91,-300 756.31,-261.38 778.3,-179.01 785.7,-141.86"/>
<polygon fill="midnightblue" stroke="midnightblue" points="789.17,-142.36 787.55,-131.89 782.29,-141.08 789.17,-142.36"/>
</g>
<!-- Node19 -->
<g id="node19" class="node">
<title>Node19</title>
<g id="a_node19"><a xlink:href="_version_8h.html" target="_top" xlink:title="Version information of SDK.">
<polygon fill="white" stroke="black" points="818.41,-224.5 818.41,-243.5 919.41,-243.5 919.41,-224.5 818.41,-224.5"/>
<text text-anchor="middle" x="868.91" y="-231.5" font-family="Helvetica,sans-Serif" font-size="10.00">ifxBase/Version.h</text>
</a>
</g>
</g>
<!-- Node1&#45;&gt;Node19 -->
<g id="edge35" class="edge">
<title>Node1&#45;&gt;Node19</title>
<path fill="none" stroke="midnightblue" d="M493.47,-355.27C588.63,-346.1 750.98,-327.06 803.91,-300 826.01,-288.71 845.24,-267.15 856.94,-251.97"/>
<polygon fill="midnightblue" stroke="midnightblue" points="859.78,-254.01 862.92,-243.89 854.15,-249.85 859.78,-254.01"/>
</g>
<!-- Node2&#45;&gt;Node3 -->
<g id="edge2" class="edge">
<title>Node2&#45;&gt;Node3</title>
<path fill="none" stroke="midnightblue" d="M109.58,-280.44C136.83,-271.36 180.1,-256.94 210.56,-246.78"/>
<polygon fill="midnightblue" stroke="midnightblue" points="211.98,-250 220.36,-243.52 209.77,-243.36 211.98,-250"/>
</g>
<!-- Node2&#45;&gt;Node5 -->
<g id="edge10" class="edge">
<title>Node2&#45;&gt;Node5</title>
<path fill="none" stroke="midnightblue" d="M89.9,-280.27C110.36,-251.13 180.91,-156.6 263.91,-112 312.34,-85.98 374.55,-75 419.03,-70.37"/>
<polygon fill="midnightblue" stroke="midnightblue" points="419.47,-73.85 429.09,-69.4 418.8,-66.88 419.47,-73.85"/>
</g>
<!-- Node3&#45;&gt;Node4 -->
<g id="edge3" class="edge">
<title>Node3&#45;&gt;Node4</title>
<path fill="none" stroke="midnightblue" d="M246.24,-224.08C246.5,-217.01 246.88,-206.86 247.21,-197.99"/>
<polygon fill="midnightblue" stroke="midnightblue" points="250.71,-197.87 247.59,-187.75 243.72,-197.61 250.71,-197.87"/>
</g>
<!-- Node4&#45;&gt;Node5 -->
<g id="edge4" class="edge">
<title>Node4&#45;&gt;Node5</title>
<path fill="none" stroke="midnightblue" d="M250.63,-168.32C255.52,-154.22 267.16,-126.46 286.91,-112 325.34,-83.86 378.88,-73.07 419.17,-69.06"/>
<polygon fill="midnightblue" stroke="midnightblue" points="419.71,-72.52 429.37,-68.15 419.1,-65.55 419.71,-72.52"/>
</g>
<!-- Node4&#45;&gt;Node9 -->
<g id="edge8" class="edge">
<title>Node4&#45;&gt;Node9</title>
<path fill="none" stroke="midnightblue" d="M263.17,-168.32C278.13,-159.82 301.17,-146.73 318.64,-136.8"/>
<polygon fill="midnightblue" stroke="midnightblue" points="320.72,-139.64 327.69,-131.65 317.26,-133.55 320.72,-139.64"/>
</g>
<!-- Node6 -->
<g id="node6" class="node">
<title>Node6</title>
<g id="a_node6"><a xlink:title=" ">
<polygon fill="white" stroke="#bfbfbf" points="376.41,-0.5 376.41,-19.5 429.41,-19.5 429.41,-0.5 376.41,-0.5"/>
<text text-anchor="middle" x="402.91" y="-7.5" font-family="Helvetica,sans-Serif" font-size="10.00">stdint.h</text>
</a>
</g>
</g>
<!-- Node5&#45;&gt;Node6 -->
<g id="edge5" class="edge">
<title>Node5&#45;&gt;Node6</title>
<path fill="none" stroke="midnightblue" d="M464.18,-56.32C453.07,-48.11 436.17,-35.6 422.93,-25.81"/>
<polygon fill="midnightblue" stroke="midnightblue" points="424.97,-22.97 414.85,-19.83 420.81,-28.59 424.97,-22.97"/>
</g>
<!-- Node7 -->
<g id="node7" class="node">
<title>Node7</title>
<g id="a_node7"><a xlink:title=" ">
<polygon fill="white" stroke="#bfbfbf" points="447.91,-0.5 447.91,-19.5 503.91,-19.5 503.91,-0.5 447.91,-0.5"/>
<text text-anchor="middle" x="475.91" y="-7.5" font-family="Helvetica,sans-Serif" font-size="10.00">stddef.h</text>
</a>
</g>
</g>
<!-- Node5&#45;&gt;Node7 -->
<g id="edge6" class="edge">
<title>Node5&#45;&gt;Node7</title>
<path fill="none" stroke="midnightblue" d="M475.91,-56.08C475.91,-49.01 475.91,-38.86 475.91,-29.99"/>
<polygon fill="midnightblue" stroke="midnightblue" points="479.41,-29.75 475.91,-19.75 472.41,-29.75 479.41,-29.75"/>
</g>
<!-- Node8 -->
<g id="node8" class="node">
<title>Node8</title>
<g id="a_node8"><a xlink:title=" ">
<polygon fill="white" stroke="#bfbfbf" points="521.91,-0.5 521.91,-19.5 583.91,-19.5 583.91,-0.5 521.91,-0.5"/>
<text text-anchor="middle" x="552.91" y="-7.5" font-family="Helvetica,sans-Serif" font-size="10.00">stdbool.h</text>
</a>
</g>
</g>
<!-- Node5&#45;&gt;Node8 -->
<g id="edge7" class="edge">
<title>Node5&#45;&gt;Node8</title>
<path fill="none" stroke="midnightblue" d="M488.28,-56.32C500.07,-48.06 518.04,-35.45 532.05,-25.63"/>
<polygon fill="midnightblue" stroke="midnightblue" points="534.39,-28.26 540.57,-19.65 530.37,-22.53 534.39,-28.26"/>
</g>
<!-- Node9&#45;&gt;Node5 -->
<g id="edge9" class="edge">
<title>Node9&#45;&gt;Node5</title>
<path fill="none" stroke="midnightblue" d="M363.99,-112.44C385.97,-103.52 420.65,-89.44 445.58,-79.32"/>
<polygon fill="midnightblue" stroke="midnightblue" points="446.99,-82.52 454.94,-75.52 444.35,-76.04 446.99,-82.52"/>
</g>
<!-- Node10&#45;&gt;Node3 -->
<g id="edge12" class="edge">
<title>Node10&#45;&gt;Node3</title>
<path fill="none" stroke="midnightblue" d="M272.63,-280.08C268.2,-272.61 261.75,-261.72 256.29,-252.52"/>
<polygon fill="midnightblue" stroke="midnightblue" points="259.21,-250.57 251.1,-243.75 253.18,-254.14 259.21,-250.57"/>
</g>
<!-- Node10&#45;&gt;Node11 -->
<g id="edge13" class="edge">
<title>Node10&#45;&gt;Node11</title>
<path fill="none" stroke="midnightblue" d="M297.56,-280.44C317.88,-271.6 349.81,-257.69 373.01,-247.59"/>
<polygon fill="midnightblue" stroke="midnightblue" points="374.58,-250.72 382.36,-243.52 371.79,-244.3 374.58,-250.72"/>
</g>
<!-- Node11&#45;&gt;Node5 -->
<g id="edge14" class="edge">
<title>Node11&#45;&gt;Node5</title>
<path fill="none" stroke="midnightblue" d="M405.89,-224.08C417.59,-197.83 452.04,-120.55 467.84,-85.12"/>
<polygon fill="midnightblue" stroke="midnightblue" points="471.22,-86.13 472.09,-75.57 464.82,-83.28 471.22,-86.13"/>
</g>
<!-- Node11&#45;&gt;Node9 -->
<g id="edge15" class="edge">
<title>Node11&#45;&gt;Node9</title>
<path fill="none" stroke="midnightblue" d="M397.28,-224.37C387.63,-206.38 365.2,-164.55 352.37,-140.63"/>
<polygon fill="midnightblue" stroke="midnightblue" points="355.33,-138.75 347.52,-131.59 349.16,-142.06 355.33,-138.75"/>
</g>
<!-- Node12&#45;&gt;Node13 -->
<g id="edge18" class="edge">
<title>Node12&#45;&gt;Node13</title>
<path fill="none" stroke="midnightblue" d="M590.29,-280.08C586.45,-272.69 580.89,-261.95 576.15,-252.81"/>
<polygon fill="midnightblue" stroke="midnightblue" points="579.16,-251.02 571.45,-243.75 572.95,-254.24 579.16,-251.02"/>
</g>
<!-- Node13&#45;&gt;Node5 -->
<g id="edge20" class="edge">
<title>Node13&#45;&gt;Node5</title>
<path fill="none" stroke="midnightblue" d="M568.09,-224.2C569.44,-211.33 570.58,-186.85 562.91,-168 548.35,-132.2 515.77,-100.13 494.87,-82.16"/>
<polygon fill="midnightblue" stroke="midnightblue" points="496.89,-79.28 486.97,-75.56 492.4,-84.65 496.89,-79.28"/>
</g>
<!-- Node14 -->
<g id="node14" class="node">
<title>Node14</title>
<g id="a_node14"><a xlink:title=" ">
<polygon fill="white" stroke="#bfbfbf" points="503.91,-168.5 503.91,-187.5 553.91,-187.5 553.91,-168.5 503.91,-168.5"/>
<text text-anchor="middle" x="528.91" y="-175.5" font-family="Helvetica,sans-Serif" font-size="10.00">stdio.h</text>
</a>
</g>
</g>
<!-- Node13&#45;&gt;Node14 -->
<g id="edge19" class="edge">
<title>Node13&#45;&gt;Node14</title>
<path fill="none" stroke="midnightblue" d="M560.64,-224.08C555.27,-216.46 547.39,-205.26 540.83,-195.94"/>
<polygon fill="midnightblue" stroke="midnightblue" points="543.69,-193.91 535.07,-187.75 537.96,-197.94 543.69,-193.91"/>
</g>
<!-- Node15&#45;&gt;Node5 -->
<g id="edge22" class="edge">
<title>Node15&#45;&gt;Node5</title>
<path fill="none" stroke="midnightblue" d="M456.7,-280.3C459.64,-247.63 470.07,-131.87 474.2,-85.96"/>
<polygon fill="midnightblue" stroke="midnightblue" points="477.7,-86.16 475.11,-75.88 470.73,-85.53 477.7,-86.16"/>
</g>
<!-- Node15&#45;&gt;Node11 -->
<g id="edge23" class="edge">
<title>Node15&#45;&gt;Node11</title>
<path fill="none" stroke="midnightblue" d="M446.99,-280.08C439.13,-272.22 427.48,-260.57 417.99,-251.08"/>
<polygon fill="midnightblue" stroke="midnightblue" points="420.21,-248.35 410.66,-243.75 415.26,-253.3 420.21,-248.35"/>
</g>
<!-- Node16&#45;&gt;Node5 -->
<g id="edge25" class="edge">
<title>Node16&#45;&gt;Node5</title>
<path fill="none" stroke="midnightblue" d="M619.82,-112.44C590.92,-103.32 544.99,-88.81 512.81,-78.65"/>
<polygon fill="midnightblue" stroke="midnightblue" points="513.47,-75.19 502.88,-75.52 511.36,-81.87 513.47,-75.19"/>
</g>
<!-- Node17&#45;&gt;Node5 -->
<g id="edge30" class="edge">
<title>Node17&#45;&gt;Node5</title>
<path fill="none" stroke="midnightblue" d="M717.04,-168.4C716.75,-154.41 714.01,-126.8 697.91,-112 674.28,-90.29 590.56,-77.97 532.96,-71.89"/>
<polygon fill="midnightblue" stroke="midnightblue" points="533.19,-68.4 522.89,-70.87 532.48,-75.36 533.19,-68.4"/>
</g>
<!-- Node18&#45;&gt;Node5 -->
<g id="edge33" class="edge">
<title>Node18&#45;&gt;Node5</title>
<path fill="none" stroke="midnightblue" d="M744.73,-113.38C689.14,-103.79 593.57,-87.3 532.63,-76.79"/>
<polygon fill="midnightblue" stroke="midnightblue" points="532.87,-73.27 522.42,-75.02 531.68,-80.17 532.87,-73.27"/>
</g>
<!-- Node19&#45;&gt;Node5 -->
<g id="edge36" class="edge">
<title>Node19&#45;&gt;Node5</title>
<path fill="none" stroke="midnightblue" d="M869.98,-224.37C872.22,-201.99 874.75,-141.79 841.91,-112 797.74,-71.93 623.99,-66.35 532.68,-66.28"/>
<polygon fill="midnightblue" stroke="midnightblue" points="532.5,-62.78 522.5,-66.3 532.51,-69.78 532.5,-62.78"/>
</g>
</g>
</svg>
