<?xml version="1.0" encoding="UTF-8" standalone="no"?>
<!DOCTYPE svg PUBLIC "-//W3C//DTD SVG 1.1//EN"
 "http://www.w3.org/Graphics/SVG/1.1/DTD/svg11.dtd">
<!-- Generated by graphviz version 2.43.0 (0)
 -->
<!-- Title: /home/jenkins/jenkins&#45;ci/workspace/er_release_release&#45;branch&#45;v3.3.1@2/sdk/c/ifxBase/Complex.h Pages: 1 -->
<svg width="513pt" height="239pt"
 viewBox="0.00 0.00 513.00 239.00" xmlns="http://www.w3.org/2000/svg" xmlns:xlink="http://www.w3.org/1999/xlink">
<g id="graph0" class="graph" transform="scale(1 1) rotate(0) translate(4 235)">
<title>/home/jenkins/jenkins&#45;ci/workspace/er_release_release&#45;branch&#45;v3.3.1@2/sdk/c/ifxBase/Complex.h</title>
<polygon fill="white" stroke="transparent" points="-4,4 -4,-235 509,-235 509,4 -4,4"/>
<!-- Node1 -->
<g id="node1" class="node">
<title>Node1</title>
<g id="a_node1"><a xlink:title="API for operations on complex numbers.">
<polygon fill="#bfbfbf" stroke="black" points="181,-178.5 181,-230.5 324,-230.5 324,-178.5 181,-178.5"/>
<text text-anchor="start" x="189" y="-218.5" font-family="Helvetica,sans-Serif" font-size="10.00">/home/jenkins/jenkins</text>
<text text-anchor="start" x="189" y="-207.5" font-family="Helvetica,sans-Serif" font-size="10.00">&#45;ci/workspace/er_release</text>
<text text-anchor="start" x="189" y="-196.5" font-family="Helvetica,sans-Serif" font-size="10.00">_release&#45;branch&#45;v3.3.1@2</text>
<text text-anchor="middle" x="252.5" y="-185.5" font-family="Helvetica,sans-Serif" font-size="10.00">/sdk/c/ifxBase/Complex.h</text>
</a>
</g>
</g>
<!-- Node2 -->
<g id="node2" class="node">
<title>Node2</title>
<g id="a_node2"><a xlink:href="_base_8h.html" target="_top" xlink:title="Header for ifxBase.">
<polygon fill="white" stroke="black" points="0,-89.5 0,-141.5 143,-141.5 143,-89.5 0,-89.5"/>
<text text-anchor="start" x="8" y="-129.5" font-family="Helvetica,sans-Serif" font-size="10.00">/home/jenkins/jenkins</text>
<text text-anchor="start" x="8" y="-118.5" font-family="Helvetica,sans-Serif" font-size="10.00">&#45;ci/workspace/er_release</text>
<text text-anchor="start" x="8" y="-107.5" font-family="Helvetica,sans-Serif" font-size="10.00">_release&#45;branch&#45;v3.3.1@2</text>
<text text-anchor="middle" x="71.5" y="-96.5" font-family="Helvetica,sans-Serif" font-size="10.00">/sdk/c/ifxBase/Base.h</text>
</a>
</g>
</g>
<!-- Node1&#45;&gt;Node2 -->
<g id="edge1" class="edge">
<title>Node1&#45;&gt;Node2</title>
<path fill="none" stroke="midnightblue" d="M190.95,-173.92C169.1,-163.41 144.73,-151.7 123.74,-141.61"/>
<polygon fill="midnightblue" stroke="midnightblue" points="189.62,-177.16 200.15,-178.34 192.65,-170.85 189.62,-177.16"/>
</g>
<!-- Node3 -->
<g id="node3" class="node">
<title>Node3</title>
<g id="a_node3"><a xlink:href="_angle_monopulse_8h.html" target="_top" xlink:title="API for Phase Monopulse algorithm.">
<polygon fill="white" stroke="black" points="161.5,-89.5 161.5,-141.5 343.5,-141.5 343.5,-89.5 161.5,-89.5"/>
<text text-anchor="start" x="169.5" y="-129.5" font-family="Helvetica,sans-Serif" font-size="10.00">/home/jenkins/jenkins</text>
<text text-anchor="start" x="169.5" y="-118.5" font-family="Helvetica,sans-Serif" font-size="10.00">&#45;ci/workspace/er_release</text>
<text text-anchor="start" x="169.5" y="-107.5" font-family="Helvetica,sans-Serif" font-size="10.00">_release&#45;branch&#45;v3.3.1@2</text>
<text text-anchor="middle" x="252.5" y="-96.5" font-family="Helvetica,sans-Serif" font-size="10.00">/sdk/c/ifxRadar/AngleMonopulse.h</text>
</a>
</g>
</g>
<!-- Node1&#45;&gt;Node3 -->
<g id="edge2" class="edge">
<title>Node1&#45;&gt;Node3</title>
<path fill="none" stroke="midnightblue" d="M252.5,-168.19C252.5,-159.28 252.5,-149.9 252.5,-141.61"/>
<polygon fill="midnightblue" stroke="midnightblue" points="249,-168.34 252.5,-178.34 256,-168.34 249,-168.34"/>
</g>
<!-- Node5 -->
<g id="node5" class="node">
<title>Node5</title>
<g id="a_node5"><a xlink:href="_util_8h.html" target="_top" xlink:title="This file defines some utility functions like printing to, reading from files or printing to console....">
<polygon fill="white" stroke="black" points="362,-89.5 362,-141.5 505,-141.5 505,-89.5 362,-89.5"/>
<text text-anchor="start" x="370" y="-129.5" font-family="Helvetica,sans-Serif" font-size="10.00">/home/jenkins/jenkins</text>
<text text-anchor="start" x="370" y="-118.5" font-family="Helvetica,sans-Serif" font-size="10.00">&#45;ci/workspace/er_release</text>
<text text-anchor="start" x="370" y="-107.5" font-family="Helvetica,sans-Serif" font-size="10.00">_release&#45;branch&#45;v3.3.1@2</text>
<text text-anchor="middle" x="433.5" y="-96.5" font-family="Helvetica,sans-Serif" font-size="10.00">/sdk/c/ifxUtil/Util.h</text>
</a>
</g>
</g>
<!-- Node1&#45;&gt;Node5 -->
<g id="edge4" class="edge">
<title>Node1&#45;&gt;Node5</title>
<path fill="none" stroke="midnightblue" d="M314.05,-173.92C335.9,-163.41 360.27,-151.7 381.26,-141.61"/>
<polygon fill="midnightblue" stroke="midnightblue" points="312.35,-170.85 304.85,-178.34 315.38,-177.16 312.35,-170.85"/>
</g>
<!-- Node4 -->
<g id="node4" class="node">
<title>Node4</title>
<g id="a_node4"><a xlink:href="_radar_8h.html" target="_top" xlink:title="Header for ifxRadar.">
<polygon fill="white" stroke="black" points="181,-0.5 181,-52.5 324,-52.5 324,-0.5 181,-0.5"/>
<text text-anchor="start" x="189" y="-40.5" font-family="Helvetica,sans-Serif" font-size="10.00">/home/jenkins/jenkins</text>
<text text-anchor="start" x="189" y="-29.5" font-family="Helvetica,sans-Serif" font-size="10.00">&#45;ci/workspace/er_release</text>
<text text-anchor="start" x="189" y="-18.5" font-family="Helvetica,sans-Serif" font-size="10.00">_release&#45;branch&#45;v3.3.1@2</text>
<text text-anchor="middle" x="252.5" y="-7.5" font-family="Helvetica,sans-Serif" font-size="10.00">/sdk/c/ifxRadar/Radar.h</text>
</a>
</g>
</g>
<!-- Node3&#45;&gt;Node4 -->
<g id="edge3" class="edge">
<title>Node3&#45;&gt;Node4</title>
<path fill="none" stroke="midnightblue" d="M252.5,-79.19C252.5,-70.28 252.5,-60.9 252.5,-52.61"/>
<polygon fill="midnightblue" stroke="midnightblue" points="249,-79.34 252.5,-89.34 256,-79.34 249,-79.34"/>
</g>
</g>
</svg>
