<?xml version="1.0" encoding="UTF-8" standalone="no"?>
<!DOCTYPE svg PUBLIC "-//W3C//DTD SVG 1.1//EN"
 "http://www.w3.org/Graphics/SVG/1.1/DTD/svg11.dtd">
<!-- Generated by graphviz version 2.43.0 (0)
 -->
<!-- Title: /home/jenkins/jenkins&#45;ci/workspace/er_release_release&#45;branch&#45;v3.3.1@2/sdk/c/ifxAvian/ConstantWaveControl.h Pages: 1 -->
<svg width="669pt" height="464pt"
 viewBox="0.00 0.00 668.50 464.00" xmlns="http://www.w3.org/2000/svg" xmlns:xlink="http://www.w3.org/1999/xlink">
<g id="graph0" class="graph" transform="scale(1 1) rotate(0) translate(4 460)">
<title>/home/jenkins/jenkins&#45;ci/workspace/er_release_release&#45;branch&#45;v3.3.1@2/sdk/c/ifxAvian/ConstantWaveControl.h</title>
<polygon fill="white" stroke="transparent" points="-4,4 -4,-460 664.5,-460 664.5,4 -4,4"/>
<!-- Node1 -->
<g id="node1" class="node">
<title>Node1</title>
<g id="a_node1"><a xlink:title="Header for Constant Wave Control. It provides APIs to use an Avian device in constant wave mode....">
<polygon fill="#bfbfbf" stroke="black" points="163.5,-403.5 163.5,-455.5 369.5,-455.5 369.5,-403.5 163.5,-403.5"/>
<text text-anchor="start" x="171.5" y="-443.5" font-family="Helvetica,sans-Serif" font-size="10.00">/home/jenkins/jenkins</text>
<text text-anchor="start" x="171.5" y="-432.5" font-family="Helvetica,sans-Serif" font-size="10.00">&#45;ci/workspace/er_release</text>
<text text-anchor="start" x="171.5" y="-421.5" font-family="Helvetica,sans-Serif" font-size="10.00">_release&#45;branch&#45;v3.3.1@2</text>
<text text-anchor="middle" x="266.5" y="-410.5" font-family="Helvetica,sans-Serif" font-size="10.00">/sdk/c/ifxAvian/ConstantWaveControl.h</text>
</a>
</g>
</g>
<!-- Node2 -->
<g id="node2" class="node">
<title>Node2</title>
<g id="a_node2"><a xlink:href="_device_control_8h.html" target="_top" xlink:title="API for Radar device control operations.">
<polygon fill="white" stroke="black" points="247,-347.5 247,-366.5 384,-366.5 384,-347.5 247,-347.5"/>
<text text-anchor="middle" x="315.5" y="-354.5" font-family="Helvetica,sans-Serif" font-size="10.00">ifxAvian/DeviceControl.h</text>
</a>
</g>
</g>
<!-- Node1&#45;&gt;Node2 -->
<g id="edge1" class="edge">
<title>Node1&#45;&gt;Node2</title>
<path fill="none" stroke="midnightblue" d="M283.91,-403.45C290.46,-394.03 297.74,-383.55 303.66,-375.03"/>
<polygon fill="midnightblue" stroke="midnightblue" points="306.62,-376.9 309.46,-366.7 300.88,-372.91 306.62,-376.9"/>
</g>
<!-- Node16 -->
<g id="node16" class="node">
<title>Node16</title>
<g id="a_node16"><a xlink:href="_device_config_8h.html" target="_top" xlink:title="API for Radar device configuration.">
<polygon fill="white" stroke="black" points="142,-235.5 142,-254.5 275,-254.5 275,-235.5 142,-235.5"/>
<text text-anchor="middle" x="208.5" y="-242.5" font-family="Helvetica,sans-Serif" font-size="10.00">ifxAvian/DeviceConfig.h</text>
</a>
</g>
</g>
<!-- Node1&#45;&gt;Node16 -->
<g id="edge30" class="edge">
<title>Node1&#45;&gt;Node16</title>
<path fill="none" stroke="midnightblue" d="M253.16,-403.26C247.76,-392.33 241.8,-379.25 237.5,-367 225.07,-331.64 216.17,-288.62 211.72,-264.58"/>
<polygon fill="midnightblue" stroke="midnightblue" points="215.16,-263.91 209.95,-254.68 208.27,-265.14 215.16,-263.91"/>
</g>
<!-- Node3 -->
<g id="node3" class="node">
<title>Node3</title>
<g id="a_node3"><a xlink:href="ifx_base_2_types_8h.html" target="_top" xlink:title="Definitions of data types used within the SDK.">
<polygon fill="white" stroke="black" points="295,-56.5 295,-75.5 388,-75.5 388,-56.5 295,-56.5"/>
<text text-anchor="middle" x="341.5" y="-63.5" font-family="Helvetica,sans-Serif" font-size="10.00">ifxBase/Types.h</text>
</a>
</g>
</g>
<!-- Node2&#45;&gt;Node3 -->
<g id="edge2" class="edge">
<title>Node2&#45;&gt;Node3</title>
<path fill="none" stroke="midnightblue" d="M319.01,-347.32C326.1,-328.96 341.5,-284.66 341.5,-246 341.5,-246 341.5,-246 341.5,-182.5 341.5,-148.36 341.5,-108.55 341.5,-85.71"/>
<polygon fill="midnightblue" stroke="midnightblue" points="345,-85.69 341.5,-75.69 338,-85.69 345,-85.69"/>
</g>
<!-- Node7 -->
<g id="node7" class="node">
<title>Node7</title>
<g id="a_node7"><a xlink:href="_error_8h.html" target="_top" xlink:title="API for error handling.">
<polygon fill="white" stroke="black" points="369.5,-291.5 369.5,-310.5 457.5,-310.5 457.5,-291.5 369.5,-291.5"/>
<text text-anchor="middle" x="413.5" y="-298.5" font-family="Helvetica,sans-Serif" font-size="10.00">ifxBase/Error.h</text>
</a>
</g>
</g>
<!-- Node2&#45;&gt;Node7 -->
<g id="edge6" class="edge">
<title>Node2&#45;&gt;Node7</title>
<path fill="none" stroke="midnightblue" d="M331.25,-347.32C346.82,-338.74 370.88,-325.49 388.96,-315.52"/>
<polygon fill="midnightblue" stroke="midnightblue" points="390.72,-318.55 397.79,-310.65 387.35,-312.42 390.72,-318.55"/>
</g>
<!-- Node10 -->
<g id="node10" class="node">
<title>Node10</title>
<g id="a_node10"><a xlink:href="_list_8h.html" target="_top" xlink:title=" ">
<polygon fill="white" stroke="black" points="0,-235.5 0,-254.5 83,-254.5 83,-235.5 0,-235.5"/>
<text text-anchor="middle" x="41.5" y="-242.5" font-family="Helvetica,sans-Serif" font-size="10.00">ifxBase/List.h</text>
</a>
</g>
</g>
<!-- Node2&#45;&gt;Node10 -->
<g id="edge10" class="edge">
<title>Node2&#45;&gt;Node10</title>
<path fill="none" stroke="midnightblue" d="M246.99,-354.52C174.6,-351.34 67.36,-341.45 41.5,-311 30.79,-298.39 32.35,-278.9 35.64,-264.55"/>
<polygon fill="midnightblue" stroke="midnightblue" points="39.05,-265.35 38.31,-254.78 32.29,-263.5 39.05,-265.35"/>
</g>
<!-- Node11 -->
<g id="node11" class="node">
<title>Node11</title>
<g id="a_node11"><a xlink:href="_cube_8h.html" target="_top" xlink:title="API for operations on Cube data structures.">
<polygon fill="white" stroke="black" points="479.5,-291.5 479.5,-310.5 569.5,-310.5 569.5,-291.5 479.5,-291.5"/>
<text text-anchor="middle" x="524.5" y="-298.5" font-family="Helvetica,sans-Serif" font-size="10.00">ifxBase/Cube.h</text>
</a>
</g>
</g>
<!-- Node2&#45;&gt;Node11 -->
<g id="edge12" class="edge">
<title>Node2&#45;&gt;Node11</title>
<path fill="none" stroke="midnightblue" d="M348.62,-347.44C384.62,-338.14 442.27,-323.25 481.69,-313.06"/>
<polygon fill="midnightblue" stroke="midnightblue" points="482.73,-316.41 491.54,-310.52 480.98,-309.63 482.73,-316.41"/>
</g>
<!-- Node2&#45;&gt;Node16 -->
<g id="edge21" class="edge">
<title>Node2&#45;&gt;Node16</title>
<path fill="none" stroke="midnightblue" d="M307.1,-347.37C289.21,-328.97 247.09,-285.67 224.11,-262.05"/>
<polygon fill="midnightblue" stroke="midnightblue" points="226.34,-259.32 216.86,-254.59 221.32,-264.2 226.34,-259.32"/>
</g>
<!-- Node17 -->
<g id="node17" class="node">
<title>Node17</title>
<g id="a_node17"><a xlink:href="_radar_device_common_8h.html" target="_top" xlink:title="Header for ifxRadarDeviceCommon.">
<polygon fill="white" stroke="black" points="177.5,-168.5 177.5,-198.5 313.5,-198.5 313.5,-168.5 177.5,-168.5"/>
<text text-anchor="start" x="185.5" y="-186.5" font-family="Helvetica,sans-Serif" font-size="10.00">ifxRadarDeviceCommon</text>
<text text-anchor="middle" x="245.5" y="-175.5" font-family="Helvetica,sans-Serif" font-size="10.00">/RadarDeviceCommon.h</text>
</a>
</g>
</g>
<!-- Node2&#45;&gt;Node17 -->
<g id="edge29" class="edge">
<title>Node2&#45;&gt;Node17</title>
<path fill="none" stroke="midnightblue" d="M314.39,-347.39C311.51,-327 302.66,-274.49 283.5,-235 278.61,-224.93 271.59,-214.87 264.9,-206.41"/>
<polygon fill="midnightblue" stroke="midnightblue" points="267.48,-204.03 258.43,-198.54 262.08,-208.48 267.48,-204.03"/>
</g>
<!-- Node18 -->
<g id="node18" class="node">
<title>Node18</title>
<g id="a_node18"><a xlink:href="_recording_8h.html" target="_top" xlink:title="This file defines functions to handle Recordings.">
<polygon fill="white" stroke="black" points="51,-291.5 51,-310.5 190,-310.5 190,-291.5 51,-291.5"/>
<text text-anchor="middle" x="120.5" y="-298.5" font-family="Helvetica,sans-Serif" font-size="10.00">ifxRecording/Recording.h</text>
</a>
</g>
</g>
<!-- Node2&#45;&gt;Node18 -->
<g id="edge25" class="edge">
<title>Node2&#45;&gt;Node18</title>
<path fill="none" stroke="midnightblue" d="M284.6,-347.44C251.23,-338.2 197.91,-323.44 161.15,-313.26"/>
<polygon fill="midnightblue" stroke="midnightblue" points="161.83,-309.81 151.25,-310.52 159.96,-316.56 161.83,-309.81"/>
</g>
<!-- Node4 -->
<g id="node4" class="node">
<title>Node4</title>
<g id="a_node4"><a xlink:title=" ">
<polygon fill="white" stroke="#bfbfbf" points="242,-0.5 242,-19.5 295,-19.5 295,-0.5 242,-0.5"/>
<text text-anchor="middle" x="268.5" y="-7.5" font-family="Helvetica,sans-Serif" font-size="10.00">stdint.h</text>
</a>
</g>
</g>
<!-- Node3&#45;&gt;Node4 -->
<g id="edge3" class="edge">
<title>Node3&#45;&gt;Node4</title>
<path fill="none" stroke="midnightblue" d="M329.77,-56.32C318.66,-48.11 301.76,-35.6 288.52,-25.81"/>
<polygon fill="midnightblue" stroke="midnightblue" points="290.56,-22.97 280.44,-19.83 286.4,-28.59 290.56,-22.97"/>
</g>
<!-- Node5 -->
<g id="node5" class="node">
<title>Node5</title>
<g id="a_node5"><a xlink:title=" ">
<polygon fill="white" stroke="#bfbfbf" points="313.5,-0.5 313.5,-19.5 369.5,-19.5 369.5,-0.5 313.5,-0.5"/>
<text text-anchor="middle" x="341.5" y="-7.5" font-family="Helvetica,sans-Serif" font-size="10.00">stddef.h</text>
</a>
</g>
</g>
<!-- Node3&#45;&gt;Node5 -->
<g id="edge4" class="edge">
<title>Node3&#45;&gt;Node5</title>
<path fill="none" stroke="midnightblue" d="M341.5,-56.08C341.5,-49.01 341.5,-38.86 341.5,-29.99"/>
<polygon fill="midnightblue" stroke="midnightblue" points="345,-29.75 341.5,-19.75 338,-29.75 345,-29.75"/>
</g>
<!-- Node6 -->
<g id="node6" class="node">
<title>Node6</title>
<g id="a_node6"><a xlink:title=" ">
<polygon fill="white" stroke="#bfbfbf" points="387.5,-0.5 387.5,-19.5 449.5,-19.5 449.5,-0.5 387.5,-0.5"/>
<text text-anchor="middle" x="418.5" y="-7.5" font-family="Helvetica,sans-Serif" font-size="10.00">stdbool.h</text>
</a>
</g>
</g>
<!-- Node3&#45;&gt;Node6 -->
<g id="edge5" class="edge">
<title>Node3&#45;&gt;Node6</title>
<path fill="none" stroke="midnightblue" d="M353.87,-56.32C365.66,-48.06 383.63,-35.45 397.64,-25.63"/>
<polygon fill="midnightblue" stroke="midnightblue" points="399.98,-28.26 406.16,-19.65 395.96,-22.53 399.98,-28.26"/>
</g>
<!-- Node8 -->
<g id="node8" class="node">
<title>Node8</title>
<g id="a_node8"><a xlink:href="_log_8h.html" target="_top" xlink:title="API for logging.">
<polygon fill="white" stroke="black" points="372,-235.5 372,-254.5 455,-254.5 455,-235.5 372,-235.5"/>
<text text-anchor="middle" x="413.5" y="-242.5" font-family="Helvetica,sans-Serif" font-size="10.00">ifxBase/Log.h</text>
</a>
</g>
</g>
<!-- Node7&#45;&gt;Node8 -->
<g id="edge7" class="edge">
<title>Node7&#45;&gt;Node8</title>
<path fill="none" stroke="midnightblue" d="M413.5,-291.08C413.5,-284.01 413.5,-273.86 413.5,-264.99"/>
<polygon fill="midnightblue" stroke="midnightblue" points="417,-264.75 413.5,-254.75 410,-264.75 417,-264.75"/>
</g>
<!-- Node8&#45;&gt;Node3 -->
<g id="edge9" class="edge">
<title>Node8&#45;&gt;Node3</title>
<path fill="none" stroke="midnightblue" d="M410.03,-235.46C398.94,-208.19 364.19,-122.78 348.88,-85.13"/>
<polygon fill="midnightblue" stroke="midnightblue" points="352.12,-83.81 345.11,-75.87 345.63,-86.45 352.12,-83.81"/>
</g>
<!-- Node9 -->
<g id="node9" class="node">
<title>Node9</title>
<g id="a_node9"><a xlink:title=" ">
<polygon fill="white" stroke="#bfbfbf" points="407.5,-174 407.5,-193 457.5,-193 457.5,-174 407.5,-174"/>
<text text-anchor="middle" x="432.5" y="-181" font-family="Helvetica,sans-Serif" font-size="10.00">stdio.h</text>
</a>
</g>
</g>
<!-- Node8&#45;&gt;Node9 -->
<g id="edge8" class="edge">
<title>Node8&#45;&gt;Node9</title>
<path fill="none" stroke="midnightblue" d="M416.22,-235.48C418.93,-226.99 423.17,-213.7 426.65,-202.82"/>
<polygon fill="midnightblue" stroke="midnightblue" points="430.07,-203.6 429.78,-193.01 423.41,-201.47 430.07,-203.6"/>
</g>
<!-- Node10&#45;&gt;Node3 -->
<g id="edge11" class="edge">
<title>Node10&#45;&gt;Node3</title>
<path fill="none" stroke="midnightblue" d="M42.41,-235.24C45.38,-211.29 57.11,-144.4 97.5,-112 125.71,-89.37 221.88,-77.07 284.72,-71.28"/>
<polygon fill="midnightblue" stroke="midnightblue" points="285.24,-74.75 294.89,-70.37 284.62,-67.78 285.24,-74.75"/>
</g>
<!-- Node12 -->
<g id="node12" class="node">
<title>Node12</title>
<g id="a_node12"><a xlink:href="_defines_8h.html" target="_top" xlink:title="Internal definitions used by standard math.h functions as Macros, to use float or double precision.">
<polygon fill="white" stroke="black" points="558.5,-235.5 558.5,-254.5 660.5,-254.5 660.5,-235.5 558.5,-235.5"/>
<text text-anchor="middle" x="609.5" y="-242.5" font-family="Helvetica,sans-Serif" font-size="10.00">ifxBase/Defines.h</text>
</a>
</g>
</g>
<!-- Node11&#45;&gt;Node12 -->
<g id="edge13" class="edge">
<title>Node11&#45;&gt;Node12</title>
<path fill="none" stroke="midnightblue" d="M538.16,-291.32C551.42,-282.9 571.77,-269.97 587.35,-260.07"/>
<polygon fill="midnightblue" stroke="midnightblue" points="589.31,-262.97 595.88,-254.65 585.56,-257.06 589.31,-262.97"/>
</g>
<!-- Node15 -->
<g id="node15" class="node">
<title>Node15</title>
<g id="a_node15"><a xlink:href="_matrix_8h.html" target="_top" xlink:title="API for operations on Matrix data structures.">
<polygon fill="white" stroke="black" points="476,-174 476,-193 573,-193 573,-174 476,-174"/>
<text text-anchor="middle" x="524.5" y="-181" font-family="Helvetica,sans-Serif" font-size="10.00">ifxBase/Matrix.h</text>
</a>
</g>
</g>
<!-- Node11&#45;&gt;Node15 -->
<g id="edge18" class="edge">
<title>Node11&#45;&gt;Node15</title>
<path fill="none" stroke="midnightblue" d="M524.5,-291.32C524.5,-272.76 524.5,-228.84 524.5,-203.47"/>
<polygon fill="midnightblue" stroke="midnightblue" points="528,-203.28 524.5,-193.28 521,-203.28 528,-203.28"/>
</g>
<!-- Node13 -->
<g id="node13" class="node">
<title>Node13</title>
<g id="a_node13"><a xlink:href="_math_8h.html" target="_top" xlink:title="API for Mathematical operations.">
<polygon fill="white" stroke="black" points="591,-174 591,-193 642,-193 642,-174 591,-174"/>
<text text-anchor="middle" x="616.5" y="-181" font-family="Helvetica,sans-Serif" font-size="10.00">math.h</text>
</a>
</g>
</g>
<!-- Node12&#45;&gt;Node13 -->
<g id="edge14" class="edge">
<title>Node12&#45;&gt;Node13</title>
<path fill="none" stroke="midnightblue" d="M610.5,-235.48C611.49,-227.08 613.03,-213.98 614.3,-203.16"/>
<polygon fill="midnightblue" stroke="midnightblue" points="617.81,-203.35 615.5,-193.01 610.85,-202.53 617.81,-203.35"/>
</g>
<!-- Node13&#45;&gt;Node3 -->
<g id="edge15" class="edge">
<title>Node13&#45;&gt;Node3</title>
<path fill="none" stroke="midnightblue" d="M614.85,-173.98C611.46,-158.91 602.21,-127.66 581.5,-112 553.28,-90.65 459.79,-78.01 398.17,-71.8"/>
<polygon fill="midnightblue" stroke="midnightblue" points="398.48,-68.31 388.19,-70.82 397.8,-75.28 398.48,-68.31"/>
</g>
<!-- Node14 -->
<g id="node14" class="node">
<title>Node14</title>
<g id="a_node14"><a xlink:href="_vector_8h.html" target="_top" xlink:title="API for operations on Vector data structures.">
<polygon fill="white" stroke="black" points="477,-112.5 477,-131.5 572,-131.5 572,-112.5 477,-112.5"/>
<text text-anchor="middle" x="524.5" y="-119.5" font-family="Helvetica,sans-Serif" font-size="10.00">ifxBase/Vector.h</text>
</a>
</g>
</g>
<!-- Node13&#45;&gt;Node14 -->
<g id="edge16" class="edge">
<title>Node13&#45;&gt;Node14</title>
<path fill="none" stroke="midnightblue" d="M603.32,-173.98C588.43,-164.34 563.96,-148.52 546.23,-137.05"/>
<polygon fill="midnightblue" stroke="midnightblue" points="547.95,-134 537.66,-131.51 544.15,-139.88 547.95,-134"/>
</g>
<!-- Node14&#45;&gt;Node3 -->
<g id="edge17" class="edge">
<title>Node14&#45;&gt;Node3</title>
<path fill="none" stroke="midnightblue" d="M495.5,-112.44C464.32,-103.24 414.57,-88.56 380.09,-78.39"/>
<polygon fill="midnightblue" stroke="midnightblue" points="380.94,-74.99 370.36,-75.52 378.96,-81.7 380.94,-74.99"/>
</g>
<!-- Node15&#45;&gt;Node3 -->
<g id="edge19" class="edge">
<title>Node15&#45;&gt;Node3</title>
<path fill="none" stroke="midnightblue" d="M510.75,-173.82C479.48,-154.09 402.82,-105.7 364.33,-81.41"/>
<polygon fill="midnightblue" stroke="midnightblue" points="365.74,-78.16 355.41,-75.78 362,-84.08 365.74,-78.16"/>
</g>
<!-- Node15&#45;&gt;Node14 -->
<g id="edge20" class="edge">
<title>Node15&#45;&gt;Node14</title>
<path fill="none" stroke="midnightblue" d="M524.5,-173.98C524.5,-165.58 524.5,-152.48 524.5,-141.66"/>
<polygon fill="midnightblue" stroke="midnightblue" points="528,-141.51 524.5,-131.51 521,-141.51 528,-141.51"/>
</g>
<!-- Node16&#45;&gt;Node3 -->
<g id="edge22" class="edge">
<title>Node16&#45;&gt;Node3</title>
<path fill="none" stroke="midnightblue" d="M197.23,-235.43C187.53,-227.27 174.22,-214.05 168.5,-199 163.6,-186.12 161.64,-179.95 168.5,-168 196.23,-119.69 256.98,-92.3 298.58,-78.56"/>
<polygon fill="midnightblue" stroke="midnightblue" points="299.71,-81.87 308.18,-75.51 297.59,-75.2 299.71,-81.87"/>
</g>
<!-- Node16&#45;&gt;Node17 -->
<g id="edge23" class="edge">
<title>Node16&#45;&gt;Node17</title>
<path fill="none" stroke="midnightblue" d="M213.8,-235.48C218.39,-228.09 225.24,-217.08 231.4,-207.17"/>
<polygon fill="midnightblue" stroke="midnightblue" points="234.47,-208.86 236.78,-198.52 228.53,-205.17 234.47,-208.86"/>
</g>
<!-- Node17&#45;&gt;Node3 -->
<g id="edge24" class="edge">
<title>Node17&#45;&gt;Node3</title>
<path fill="none" stroke="midnightblue" d="M257.27,-168.34C275.12,-146.86 308.94,-106.17 327.84,-83.43"/>
<polygon fill="midnightblue" stroke="midnightblue" points="330.59,-85.6 334.29,-75.67 325.21,-81.12 330.59,-85.6"/>
</g>
<!-- Node18&#45;&gt;Node3 -->
<g id="edge26" class="edge">
<title>Node18&#45;&gt;Node3</title>
<path fill="none" stroke="midnightblue" d="M121.06,-291.44C123.54,-261.1 136.34,-158.01 197.5,-112 222.87,-92.92 256.5,-81.82 284.88,-75.42"/>
<polygon fill="midnightblue" stroke="midnightblue" points="285.61,-78.84 294.67,-73.34 284.17,-71.99 285.61,-78.84"/>
</g>
<!-- Node18&#45;&gt;Node10 -->
<g id="edge28" class="edge">
<title>Node18&#45;&gt;Node10</title>
<path fill="none" stroke="midnightblue" d="M107.81,-291.32C95.6,-282.98 76.92,-270.21 62.5,-260.35"/>
<polygon fill="midnightblue" stroke="midnightblue" points="64.39,-257.41 54.16,-254.65 60.44,-263.19 64.39,-257.41"/>
</g>
<!-- Node18&#45;&gt;Node16 -->
<g id="edge27" class="edge">
<title>Node18&#45;&gt;Node16</title>
<path fill="none" stroke="midnightblue" d="M134.64,-291.32C148.37,-282.9 169.44,-269.97 185.56,-260.07"/>
<polygon fill="midnightblue" stroke="midnightblue" points="187.7,-262.87 194.4,-254.65 184.04,-256.9 187.7,-262.87"/>
</g>
</g>
</svg>
