<?xml version="1.0" encoding="UTF-8" standalone="no"?>
<!DOCTYPE svg PUBLIC "-//W3C//DTD SVG 1.1//EN"
 "http://www.w3.org/Graphics/SVG/1.1/DTD/svg11.dtd">
<!-- Generated by graphviz version 2.43.0 (0)
 -->
<!-- Title: /home/jenkins/jenkins&#45;ci/workspace/er_release_release&#45;branch&#45;v3.3.1@2/sdk/c/ifxBase/Cube.h Pages: 1 -->
<svg width="1427pt" height="350pt"
 viewBox="0.00 0.00 1426.74 350.00" xmlns="http://www.w3.org/2000/svg" xmlns:xlink="http://www.w3.org/1999/xlink">
<g id="graph0" class="graph" transform="scale(1 1) rotate(0) translate(4 346)">
<title>/home/jenkins/jenkins&#45;ci/workspace/er_release_release&#45;branch&#45;v3.3.1@2/sdk/c/ifxBase/Cube.h</title>
<polygon fill="white" stroke="transparent" points="-4,4 -4,-346 1422.74,-346 1422.74,4 -4,4"/>
<!-- Node1 -->
<g id="node1" class="node">
<title>Node1</title>
<g id="a_node1"><a xlink:title="API for operations on Cube data structures.">
<polygon fill="#bfbfbf" stroke="black" points="849.74,-289.5 849.74,-341.5 992.74,-341.5 992.74,-289.5 849.74,-289.5"/>
<text text-anchor="start" x="857.74" y="-329.5" font-family="Helvetica,sans-Serif" font-size="10.00">/home/jenkins/jenkins</text>
<text text-anchor="start" x="857.74" y="-318.5" font-family="Helvetica,sans-Serif" font-size="10.00">&#45;ci/workspace/er_release</text>
<text text-anchor="start" x="857.74" y="-307.5" font-family="Helvetica,sans-Serif" font-size="10.00">_release&#45;branch&#45;v3.3.1@2</text>
<text text-anchor="middle" x="921.24" y="-296.5" font-family="Helvetica,sans-Serif" font-size="10.00">/sdk/c/ifxBase/Cube.h</text>
</a>
</g>
</g>
<!-- Node2 -->
<g id="node2" class="node">
<title>Node2</title>
<g id="a_node2"><a xlink:href="_device_control_8h.html" target="_top" xlink:title="API for Radar device control operations.">
<polygon fill="white" stroke="black" points="272.74,-195 272.74,-247 441.74,-247 441.74,-195 272.74,-195"/>
<text text-anchor="start" x="280.74" y="-235" font-family="Helvetica,sans-Serif" font-size="10.00">/home/jenkins/jenkins</text>
<text text-anchor="start" x="280.74" y="-224" font-family="Helvetica,sans-Serif" font-size="10.00">&#45;ci/workspace/er_release</text>
<text text-anchor="start" x="280.74" y="-213" font-family="Helvetica,sans-Serif" font-size="10.00">_release&#45;branch&#45;v3.3.1@2</text>
<text text-anchor="middle" x="357.24" y="-202" font-family="Helvetica,sans-Serif" font-size="10.00">/sdk/c/ifxAvian/DeviceControl.h</text>
</a>
</g>
</g>
<!-- Node1&#45;&gt;Node2 -->
<g id="edge1" class="edge">
<title>Node1&#45;&gt;Node2</title>
<path fill="none" stroke="midnightblue" d="M839.42,-306.11C749.78,-296.24 602.01,-277.98 476.24,-253 465.04,-250.77 453.32,-248.13 441.79,-245.33"/>
<polygon fill="midnightblue" stroke="midnightblue" points="839.19,-309.61 849.52,-307.21 839.96,-302.65 839.19,-309.61"/>
</g>
<!-- Node9 -->
<g id="node9" class="node">
<title>Node9</title>
<g id="a_node9"><a xlink:href="_base_8h.html" target="_top" xlink:title="Header for ifxBase.">
<polygon fill="white" stroke="black" points="485.74,-195 485.74,-247 628.74,-247 628.74,-195 485.74,-195"/>
<text text-anchor="start" x="493.74" y="-235" font-family="Helvetica,sans-Serif" font-size="10.00">/home/jenkins/jenkins</text>
<text text-anchor="start" x="493.74" y="-224" font-family="Helvetica,sans-Serif" font-size="10.00">&#45;ci/workspace/er_release</text>
<text text-anchor="start" x="493.74" y="-213" font-family="Helvetica,sans-Serif" font-size="10.00">_release&#45;branch&#45;v3.3.1@2</text>
<text text-anchor="middle" x="557.24" y="-202" font-family="Helvetica,sans-Serif" font-size="10.00">/sdk/c/ifxBase/Base.h</text>
</a>
</g>
</g>
<!-- Node1&#45;&gt;Node9 -->
<g id="edge11" class="edge">
<title>Node1&#45;&gt;Node9</title>
<path fill="none" stroke="midnightblue" d="M839.5,-300.14C782.53,-289.31 705.06,-272.92 638.24,-253 632.32,-251.24 626.22,-249.24 620.15,-247.14"/>
<polygon fill="midnightblue" stroke="midnightblue" points="839.06,-303.62 849.53,-302.03 840.36,-296.74 839.06,-303.62"/>
</g>
<!-- Node10 -->
<g id="node10" class="node">
<title>Node10</title>
<g id="a_node10"><a xlink:href="_motion_angle_8h.html" target="_top" xlink:title=" ">
<polygon fill="white" stroke="black" points="647.24,-195 647.24,-247 843.24,-247 843.24,-195 647.24,-195"/>
<text text-anchor="start" x="655.24" y="-235" font-family="Helvetica,sans-Serif" font-size="10.00">/home/jenkins/jenkins</text>
<text text-anchor="start" x="655.24" y="-224" font-family="Helvetica,sans-Serif" font-size="10.00">&#45;ci/workspace/er_release</text>
<text text-anchor="start" x="655.24" y="-213" font-family="Helvetica,sans-Serif" font-size="10.00">_release&#45;branch&#45;v3.3.1@2</text>
<text text-anchor="middle" x="745.24" y="-202" font-family="Helvetica,sans-Serif" font-size="10.00">/sdk/c/ifxMotionAngle/MotionAngle.h</text>
</a>
</g>
</g>
<!-- Node1&#45;&gt;Node10 -->
<g id="edge12" class="edge">
<title>Node1&#45;&gt;Node10</title>
<path fill="none" stroke="midnightblue" d="M864.59,-284.73C841.47,-272.58 815.02,-258.67 792.9,-247.05"/>
<polygon fill="midnightblue" stroke="midnightblue" points="863.13,-287.91 873.61,-289.47 866.39,-281.72 863.13,-287.91"/>
</g>
<!-- Node11 -->
<g id="node11" class="node">
<title>Node11</title>
<g id="a_node11"><a xlink:href="_angle_capon_8h.html" target="_top" xlink:title="API for the 1&#45;D Angle Capon algorithm.">
<polygon fill="white" stroke="black" points="771.24,-95 771.24,-147 931.24,-147 931.24,-95 771.24,-95"/>
<text text-anchor="start" x="779.24" y="-135" font-family="Helvetica,sans-Serif" font-size="10.00">/home/jenkins/jenkins</text>
<text text-anchor="start" x="779.24" y="-124" font-family="Helvetica,sans-Serif" font-size="10.00">&#45;ci/workspace/er_release</text>
<text text-anchor="start" x="779.24" y="-113" font-family="Helvetica,sans-Serif" font-size="10.00">_release&#45;branch&#45;v3.3.1@2</text>
<text text-anchor="middle" x="851.24" y="-102" font-family="Helvetica,sans-Serif" font-size="10.00">/sdk/c/ifxRadar/AngleCapon.h</text>
</a>
</g>
</g>
<!-- Node1&#45;&gt;Node11 -->
<g id="edge13" class="edge">
<title>Node1&#45;&gt;Node11</title>
<path fill="none" stroke="midnightblue" d="M902.56,-280.12C898.21,-271.41 893.8,-261.98 890.24,-253 875.96,-217.05 864.05,-173.77 857.29,-147.07"/>
<polygon fill="midnightblue" stroke="midnightblue" points="899.56,-281.93 907.23,-289.23 905.79,-278.74 899.56,-281.93"/>
</g>
<!-- Node12 -->
<g id="node12" class="node">
<title>Node12</title>
<g id="a_node12"><a xlink:href="_d_b_f_8h.html" target="_top" xlink:title="API for Digital Beamforming (DBF) algorithm.">
<polygon fill="white" stroke="black" points="899.74,-195 899.74,-247 1042.74,-247 1042.74,-195 899.74,-195"/>
<text text-anchor="start" x="907.74" y="-235" font-family="Helvetica,sans-Serif" font-size="10.00">/home/jenkins/jenkins</text>
<text text-anchor="start" x="907.74" y="-224" font-family="Helvetica,sans-Serif" font-size="10.00">&#45;ci/workspace/er_release</text>
<text text-anchor="start" x="907.74" y="-213" font-family="Helvetica,sans-Serif" font-size="10.00">_release&#45;branch&#45;v3.3.1@2</text>
<text text-anchor="middle" x="971.24" y="-202" font-family="Helvetica,sans-Serif" font-size="10.00">/sdk/c/ifxRadar/DBF.h</text>
</a>
</g>
</g>
<!-- Node1&#45;&gt;Node12 -->
<g id="edge15" class="edge">
<title>Node1&#45;&gt;Node12</title>
<path fill="none" stroke="midnightblue" d="M939.72,-280.31C945.64,-269.36 952.08,-257.44 957.59,-247.25"/>
<polygon fill="midnightblue" stroke="midnightblue" points="936.58,-278.76 934.9,-289.22 942.74,-282.09 936.58,-278.76"/>
</g>
<!-- Node13 -->
<g id="node13" class="node">
<title>Node13</title>
<g id="a_node13"><a xlink:href="_range_angle_image_8h.html" target="_top" xlink:title="API for Range Angle Image algorithm.">
<polygon fill="white" stroke="black" points="987.74,-95 987.74,-147 1178.74,-147 1178.74,-95 987.74,-95"/>
<text text-anchor="start" x="995.74" y="-135" font-family="Helvetica,sans-Serif" font-size="10.00">/home/jenkins/jenkins</text>
<text text-anchor="start" x="995.74" y="-124" font-family="Helvetica,sans-Serif" font-size="10.00">&#45;ci/workspace/er_release</text>
<text text-anchor="start" x="995.74" y="-113" font-family="Helvetica,sans-Serif" font-size="10.00">_release&#45;branch&#45;v3.3.1@2</text>
<text text-anchor="middle" x="1083.24" y="-102" font-family="Helvetica,sans-Serif" font-size="10.00">/sdk/c/ifxRadar/RangeAngleImage.h</text>
</a>
</g>
</g>
<!-- Node1&#45;&gt;Node13 -->
<g id="edge19" class="edge">
<title>Node1&#45;&gt;Node13</title>
<path fill="none" stroke="midnightblue" d="M1002.33,-289.63C1020.63,-280.66 1038.41,-268.72 1051.24,-253 1076.03,-222.61 1082.08,-175.91 1083.3,-147.25"/>
<polygon fill="midnightblue" stroke="midnightblue" points="1000.64,-286.56 993.03,-293.93 1003.57,-292.91 1000.64,-286.56"/>
</g>
<!-- Node14 -->
<g id="node14" class="node">
<title>Node14</title>
<g id="a_node14"><a xlink:href="_segmentation_8h.html" target="_top" xlink:title="API for Segmentation and Seamless Tracking algorithm.">
<polygon fill="white" stroke="black" points="1099.24,-189.5 1099.24,-252.5 1257.24,-252.5 1257.24,-189.5 1099.24,-189.5"/>
<text text-anchor="start" x="1107.24" y="-240.5" font-family="Helvetica,sans-Serif" font-size="10.00">/home/jenkins/jenkins</text>
<text text-anchor="start" x="1107.24" y="-229.5" font-family="Helvetica,sans-Serif" font-size="10.00">&#45;ci/workspace/er_release</text>
<text text-anchor="start" x="1107.24" y="-218.5" font-family="Helvetica,sans-Serif" font-size="10.00">_release&#45;branch&#45;v3.3.1@2</text>
<text text-anchor="start" x="1107.24" y="-207.5" font-family="Helvetica,sans-Serif" font-size="10.00">/sdk/c/ifxRadarSegmentation</text>
<text text-anchor="middle" x="1178.24" y="-196.5" font-family="Helvetica,sans-Serif" font-size="10.00">/Segmentation.h</text>
</a>
</g>
</g>
<!-- Node1&#45;&gt;Node14 -->
<g id="edge20" class="edge">
<title>Node1&#45;&gt;Node14</title>
<path fill="none" stroke="midnightblue" d="M1000.36,-286.02C1031.73,-274.73 1067.73,-261.77 1099.1,-250.48"/>
<polygon fill="midnightblue" stroke="midnightblue" points="999.01,-282.79 990.79,-289.47 1001.38,-289.37 999.01,-282.79"/>
</g>
<!-- Node16 -->
<g id="node16" class="node">
<title>Node16</title>
<g id="a_node16"><a xlink:href="_util_8h.html" target="_top" xlink:title="This file defines some utility functions like printing to, reading from files or printing to console....">
<polygon fill="white" stroke="black" points="1275.74,-195 1275.74,-247 1418.74,-247 1418.74,-195 1275.74,-195"/>
<text text-anchor="start" x="1283.74" y="-235" font-family="Helvetica,sans-Serif" font-size="10.00">/home/jenkins/jenkins</text>
<text text-anchor="start" x="1283.74" y="-224" font-family="Helvetica,sans-Serif" font-size="10.00">&#45;ci/workspace/er_release</text>
<text text-anchor="start" x="1283.74" y="-213" font-family="Helvetica,sans-Serif" font-size="10.00">_release&#45;branch&#45;v3.3.1@2</text>
<text text-anchor="middle" x="1347.24" y="-202" font-family="Helvetica,sans-Serif" font-size="10.00">/sdk/c/ifxUtil/Util.h</text>
</a>
</g>
</g>
<!-- Node1&#45;&gt;Node16 -->
<g id="edge22" class="edge">
<title>Node1&#45;&gt;Node16</title>
<path fill="none" stroke="midnightblue" d="M1002.97,-304.37C1073.5,-294.58 1177.68,-277.6 1266.24,-253 1272.48,-251.27 1278.91,-249.24 1285.28,-247.07"/>
<polygon fill="midnightblue" stroke="midnightblue" points="1002.25,-300.94 992.82,-305.76 1003.2,-307.87 1002.25,-300.94"/>
</g>
<!-- Node3 -->
<g id="node3" class="node">
<title>Node3</title>
<g id="a_node3"><a xlink:href="_avian_8h.html" target="_top" xlink:title="Header for ifxAvian.">
<polygon fill="white" stroke="black" points="150.74,-0.5 150.74,-52.5 293.74,-52.5 293.74,-0.5 150.74,-0.5"/>
<text text-anchor="start" x="158.74" y="-40.5" font-family="Helvetica,sans-Serif" font-size="10.00">/home/jenkins/jenkins</text>
<text text-anchor="start" x="158.74" y="-29.5" font-family="Helvetica,sans-Serif" font-size="10.00">&#45;ci/workspace/er_release</text>
<text text-anchor="start" x="158.74" y="-18.5" font-family="Helvetica,sans-Serif" font-size="10.00">_release&#45;branch&#45;v3.3.1@2</text>
<text text-anchor="middle" x="222.24" y="-7.5" font-family="Helvetica,sans-Serif" font-size="10.00">/sdk/c/ifxAvian/Avian.h</text>
</a>
</g>
</g>
<!-- Node2&#45;&gt;Node3 -->
<g id="edge2" class="edge">
<title>Node2&#45;&gt;Node3</title>
<path fill="none" stroke="midnightblue" d="M262.68,-214.75C171.98,-207.5 44.33,-190.74 13.24,-153 -4.85,-131.05 -3.8,-111.78 13.24,-89 29.98,-66.63 97.01,-49.59 150.71,-39.19"/>
<polygon fill="midnightblue" stroke="midnightblue" points="262.48,-218.24 272.72,-215.52 263.02,-211.26 262.48,-218.24"/>
</g>
<!-- Node4 -->
<g id="node4" class="node">
<title>Node4</title>
<g id="a_node4"><a xlink:href="_constant_wave_control_8h.html" target="_top" xlink:title="Header for Constant Wave Control. It provides APIs to use an Avian device in constant wave mode....">
<polygon fill="white" stroke="black" points="22.24,-95 22.24,-147 228.24,-147 228.24,-95 22.24,-95"/>
<text text-anchor="start" x="30.24" y="-135" font-family="Helvetica,sans-Serif" font-size="10.00">/home/jenkins/jenkins</text>
<text text-anchor="start" x="30.24" y="-124" font-family="Helvetica,sans-Serif" font-size="10.00">&#45;ci/workspace/er_release</text>
<text text-anchor="start" x="30.24" y="-113" font-family="Helvetica,sans-Serif" font-size="10.00">_release&#45;branch&#45;v3.3.1@2</text>
<text text-anchor="middle" x="125.24" y="-102" font-family="Helvetica,sans-Serif" font-size="10.00">/sdk/c/ifxAvian/ConstantWaveControl.h</text>
</a>
</g>
</g>
<!-- Node2&#45;&gt;Node4 -->
<g id="edge3" class="edge">
<title>Node2&#45;&gt;Node4</title>
<path fill="none" stroke="midnightblue" d="M288.22,-190.84C255.23,-176.91 216.15,-160.4 184.53,-147.04"/>
<polygon fill="midnightblue" stroke="midnightblue" points="287.22,-194.22 297.79,-194.89 289.94,-187.77 287.22,-194.22"/>
</g>
<!-- Node5 -->
<g id="node5" class="node">
<title>Node5</title>
<g id="a_node5"><a xlink:href="_metrics_8h.html" target="_top" xlink:title="API for Metrics.">
<polygon fill="white" stroke="black" points="246.74,-95 246.74,-147 389.74,-147 389.74,-95 246.74,-95"/>
<text text-anchor="start" x="254.74" y="-135" font-family="Helvetica,sans-Serif" font-size="10.00">/home/jenkins/jenkins</text>
<text text-anchor="start" x="254.74" y="-124" font-family="Helvetica,sans-Serif" font-size="10.00">&#45;ci/workspace/er_release</text>
<text text-anchor="start" x="254.74" y="-113" font-family="Helvetica,sans-Serif" font-size="10.00">_release&#45;branch&#45;v3.3.1@2</text>
<text text-anchor="middle" x="318.24" y="-102" font-family="Helvetica,sans-Serif" font-size="10.00">/sdk/c/ifxAvian/Metrics.h</text>
</a>
</g>
</g>
<!-- Node2&#45;&gt;Node5 -->
<g id="edge5" class="edge">
<title>Node2&#45;&gt;Node5</title>
<path fill="none" stroke="midnightblue" d="M343.49,-185.45C338.47,-172.83 332.88,-158.8 328.25,-147.15"/>
<polygon fill="midnightblue" stroke="midnightblue" points="340.25,-186.77 347.2,-194.76 346.75,-184.18 340.25,-186.77"/>
</g>
<!-- Node6 -->
<g id="node6" class="node">
<title>Node6</title>
<g id="a_node6"><a xlink:href="_shapes_8h.html" target="_top" xlink:title=" ">
<polygon fill="white" stroke="black" points="407.74,-95 407.74,-147 550.74,-147 550.74,-95 407.74,-95"/>
<text text-anchor="start" x="415.74" y="-135" font-family="Helvetica,sans-Serif" font-size="10.00">/home/jenkins/jenkins</text>
<text text-anchor="start" x="415.74" y="-124" font-family="Helvetica,sans-Serif" font-size="10.00">&#45;ci/workspace/er_release</text>
<text text-anchor="start" x="415.74" y="-113" font-family="Helvetica,sans-Serif" font-size="10.00">_release&#45;branch&#45;v3.3.1@2</text>
<text text-anchor="middle" x="479.24" y="-102" font-family="Helvetica,sans-Serif" font-size="10.00">/sdk/c/ifxAvian/Shapes.h</text>
</a>
</g>
</g>
<!-- Node2&#45;&gt;Node6 -->
<g id="edge7" class="edge">
<title>Node2&#45;&gt;Node6</title>
<path fill="none" stroke="midnightblue" d="M396.59,-188.39C413.21,-175.04 432.29,-159.71 447.93,-147.15"/>
<polygon fill="midnightblue" stroke="midnightblue" points="394.26,-185.77 388.66,-194.76 398.64,-191.23 394.26,-185.77"/>
</g>
<!-- Node7 -->
<g id="node7" class="node">
<title>Node7</title>
<g id="a_node7"><a xlink:href="_presence_sensing_8h.html" target="_top" xlink:title="API for Presence Sensing algorithm.">
<polygon fill="white" stroke="black" points="569.24,-95 569.24,-147 753.24,-147 753.24,-95 569.24,-95"/>
<text text-anchor="start" x="577.24" y="-135" font-family="Helvetica,sans-Serif" font-size="10.00">/home/jenkins/jenkins</text>
<text text-anchor="start" x="577.24" y="-124" font-family="Helvetica,sans-Serif" font-size="10.00">&#45;ci/workspace/er_release</text>
<text text-anchor="start" x="577.24" y="-113" font-family="Helvetica,sans-Serif" font-size="10.00">_release&#45;branch&#45;v3.3.1@2</text>
<text text-anchor="middle" x="661.24" y="-102" font-family="Helvetica,sans-Serif" font-size="10.00">/sdk/c/ifxRadar/PresenceSensing.h</text>
</a>
</g>
</g>
<!-- Node2&#45;&gt;Node7 -->
<g id="edge9" class="edge">
<title>Node2&#45;&gt;Node7</title>
<path fill="none" stroke="midnightblue" d="M444.91,-191.74C488.7,-177.62 541.22,-160.69 583.55,-147.04"/>
<polygon fill="midnightblue" stroke="midnightblue" points="443.58,-188.49 435.13,-194.89 445.72,-195.15 443.58,-188.49"/>
</g>
<!-- Node4&#45;&gt;Node3 -->
<g id="edge4" class="edge">
<title>Node4&#45;&gt;Node3</title>
<path fill="none" stroke="midnightblue" d="M158.85,-87.95C171,-76.36 184.54,-63.45 195.97,-52.55"/>
<polygon fill="midnightblue" stroke="midnightblue" points="156.31,-85.53 151.49,-94.97 161.14,-90.6 156.31,-85.53"/>
</g>
<!-- Node5&#45;&gt;Node3 -->
<g id="edge6" class="edge">
<title>Node5&#45;&gt;Node3</title>
<path fill="none" stroke="midnightblue" d="M284.98,-87.95C272.95,-76.36 259.55,-63.45 248.24,-52.55"/>
<polygon fill="midnightblue" stroke="midnightblue" points="282.63,-90.55 292.26,-94.97 287.49,-85.51 282.63,-90.55"/>
</g>
<!-- Node6&#45;&gt;Node3 -->
<g id="edge8" class="edge">
<title>Node6&#45;&gt;Node3</title>
<path fill="none" stroke="midnightblue" d="M404.69,-91.38C402.52,-90.57 400.36,-89.78 398.24,-89 364.04,-76.49 325.91,-63.09 293.91,-52.01"/>
<polygon fill="midnightblue" stroke="midnightblue" points="403.72,-94.75 414.31,-94.96 406.16,-88.19 403.72,-94.75"/>
</g>
<!-- Node8 -->
<g id="node8" class="node">
<title>Node8</title>
<g id="a_node8"><a xlink:href="_radar_8h.html" target="_top" xlink:title="Header for ifxRadar.">
<polygon fill="white" stroke="black" points="833.74,-0.5 833.74,-52.5 976.74,-52.5 976.74,-0.5 833.74,-0.5"/>
<text text-anchor="start" x="841.74" y="-40.5" font-family="Helvetica,sans-Serif" font-size="10.00">/home/jenkins/jenkins</text>
<text text-anchor="start" x="841.74" y="-29.5" font-family="Helvetica,sans-Serif" font-size="10.00">&#45;ci/workspace/er_release</text>
<text text-anchor="start" x="841.74" y="-18.5" font-family="Helvetica,sans-Serif" font-size="10.00">_release&#45;branch&#45;v3.3.1@2</text>
<text text-anchor="middle" x="905.24" y="-7.5" font-family="Helvetica,sans-Serif" font-size="10.00">/sdk/c/ifxRadar/Radar.h</text>
</a>
</g>
</g>
<!-- Node7&#45;&gt;Node8 -->
<g id="edge10" class="edge">
<title>Node7&#45;&gt;Node8</title>
<path fill="none" stroke="midnightblue" d="M736.8,-91.35C769.55,-78.94 807.55,-64.53 839.16,-52.55"/>
<polygon fill="midnightblue" stroke="midnightblue" points="735.38,-88.15 727.27,-94.97 737.86,-94.7 735.38,-88.15"/>
</g>
<!-- Node11&#45;&gt;Node8 -->
<g id="edge14" class="edge">
<title>Node11&#45;&gt;Node8</title>
<path fill="none" stroke="midnightblue" d="M871.2,-85.81C877.59,-74.86 884.55,-62.94 890.5,-52.75"/>
<polygon fill="midnightblue" stroke="midnightblue" points="868.01,-84.32 865.99,-94.72 874.06,-87.85 868.01,-84.32"/>
</g>
<!-- Node12&#45;&gt;Node8 -->
<g id="edge16" class="edge">
<title>Node12&#45;&gt;Node8</title>
<path fill="none" stroke="midnightblue" d="M965.7,-184.64C960.82,-157.8 952.55,-120.3 940.24,-89 935.34,-76.54 928.26,-63.54 921.76,-52.72"/>
<polygon fill="midnightblue" stroke="midnightblue" points="962.29,-185.48 967.46,-194.73 969.18,-184.28 962.29,-185.48"/>
</g>
<!-- Node12&#45;&gt;Node13 -->
<g id="edge17" class="edge">
<title>Node12&#45;&gt;Node13</title>
<path fill="none" stroke="midnightblue" d="M1007.78,-188.02C1022.94,-174.76 1040.27,-159.6 1054.49,-147.15"/>
<polygon fill="midnightblue" stroke="midnightblue" points="1005.3,-185.54 1000.08,-194.76 1009.91,-190.81 1005.3,-185.54"/>
</g>
<!-- Node13&#45;&gt;Node8 -->
<g id="edge18" class="edge">
<title>Node13&#45;&gt;Node8</title>
<path fill="none" stroke="midnightblue" d="M1025.95,-90.23C1002.56,-78.08 975.81,-64.17 953.45,-52.55"/>
<polygon fill="midnightblue" stroke="midnightblue" points="1024.58,-93.46 1035.07,-94.97 1027.81,-87.25 1024.58,-93.46"/>
</g>
<!-- Node15 -->
<g id="node15" class="node">
<title>Node15</title>
<g id="a_node15"><a xlink:href="_radar_segmentation_8h.html" target="_top" xlink:title="Header for ifxRadarSegmentation.">
<polygon fill="white" stroke="black" points="1197.24,-89.5 1197.24,-152.5 1355.24,-152.5 1355.24,-89.5 1197.24,-89.5"/>
<text text-anchor="start" x="1205.24" y="-140.5" font-family="Helvetica,sans-Serif" font-size="10.00">/home/jenkins/jenkins</text>
<text text-anchor="start" x="1205.24" y="-129.5" font-family="Helvetica,sans-Serif" font-size="10.00">&#45;ci/workspace/er_release</text>
<text text-anchor="start" x="1205.24" y="-118.5" font-family="Helvetica,sans-Serif" font-size="10.00">_release&#45;branch&#45;v3.3.1@2</text>
<text text-anchor="start" x="1205.24" y="-107.5" font-family="Helvetica,sans-Serif" font-size="10.00">/sdk/c/ifxRadarSegmentation</text>
<text text-anchor="middle" x="1276.24" y="-96.5" font-family="Helvetica,sans-Serif" font-size="10.00">/RadarSegmentation.h</text>
</a>
</g>
</g>
<!-- Node14&#45;&gt;Node15 -->
<g id="edge21" class="edge">
<title>Node14&#45;&gt;Node15</title>
<path fill="none" stroke="midnightblue" d="M1216.27,-181.97C1225.99,-172.25 1236.31,-161.93 1245.61,-152.63"/>
<polygon fill="midnightblue" stroke="midnightblue" points="1213.57,-179.72 1208.98,-189.26 1218.52,-184.66 1213.57,-179.72"/>
</g>
</g>
</svg>
