<?xml version="1.0" encoding="UTF-8" standalone="no"?>
<!DOCTYPE svg PUBLIC "-//W3C//DTD SVG 1.1//EN"
 "http://www.w3.org/Graphics/SVG/1.1/DTD/svg11.dtd">
<!-- Generated by graphviz version 2.43.0 (0)
 -->
<!-- Title: /home/jenkins/jenkins&#45;ci/workspace/er_release_release&#45;branch&#45;v3.3.1@2/sdk/c/ifxRadar/DBF.h Pages: 1 -->
<svg width="256pt" height="397pt"
 viewBox="0.00 0.00 256.00 397.00" xmlns="http://www.w3.org/2000/svg" xmlns:xlink="http://www.w3.org/1999/xlink">
<g id="graph0" class="graph" transform="scale(1 1) rotate(0) translate(4 393)">
<title>/home/jenkins/jenkins&#45;ci/workspace/er_release_release&#45;branch&#45;v3.3.1@2/sdk/c/ifxRadar/DBF.h</title>
<polygon fill="white" stroke="transparent" points="-4,4 -4,-393 252,-393 252,4 -4,4"/>
<!-- Node1 -->
<g id="node1" class="node">
<title>Node1</title>
<g id="a_node1"><a xlink:title="API for Digital Beamforming (DBF) algorithm.">
<polygon fill="#bfbfbf" stroke="black" points="0,-336.5 0,-388.5 143,-388.5 143,-336.5 0,-336.5"/>
<text text-anchor="start" x="8" y="-376.5" font-family="Helvetica,sans-Serif" font-size="10.00">/home/jenkins/jenkins</text>
<text text-anchor="start" x="8" y="-365.5" font-family="Helvetica,sans-Serif" font-size="10.00">&#45;ci/workspace/er_release</text>
<text text-anchor="start" x="8" y="-354.5" font-family="Helvetica,sans-Serif" font-size="10.00">_release&#45;branch&#45;v3.3.1@2</text>
<text text-anchor="middle" x="71.5" y="-343.5" font-family="Helvetica,sans-Serif" font-size="10.00">/sdk/c/ifxRadar/DBF.h</text>
</a>
</g>
</g>
<!-- Node2 -->
<g id="node2" class="node">
<title>Node2</title>
<g id="a_node2"><a xlink:href="ifx_base_2_types_8h.html" target="_top" xlink:title="Definitions of data types used within the SDK.">
<polygon fill="white" stroke="black" points="62,-56.5 62,-75.5 155,-75.5 155,-56.5 62,-56.5"/>
<text text-anchor="middle" x="108.5" y="-63.5" font-family="Helvetica,sans-Serif" font-size="10.00">ifxBase/Types.h</text>
</a>
</g>
</g>
<!-- Node1&#45;&gt;Node2 -->
<g id="edge1" class="edge">
<title>Node1&#45;&gt;Node2</title>
<path fill="none" stroke="midnightblue" d="M58.73,-336.04C47.36,-310.99 32.5,-271.31 32.5,-235 32.5,-235 32.5,-235 32.5,-177 32.5,-137.28 66.46,-101.5 88.98,-82.15"/>
<polygon fill="midnightblue" stroke="midnightblue" points="91.48,-84.63 96.96,-75.57 87.02,-79.24 91.48,-84.63"/>
</g>
<!-- Node6 -->
<g id="node6" class="node">
<title>Node6</title>
<g id="a_node6"><a xlink:href="_cube_8h.html" target="_top" xlink:title="API for operations on Cube data structures.">
<polygon fill="white" stroke="black" points="66.5,-280.5 66.5,-299.5 156.5,-299.5 156.5,-280.5 66.5,-280.5"/>
<text text-anchor="middle" x="111.5" y="-287.5" font-family="Helvetica,sans-Serif" font-size="10.00">ifxBase/Cube.h</text>
</a>
</g>
</g>
<!-- Node1&#45;&gt;Node6 -->
<g id="edge5" class="edge">
<title>Node1&#45;&gt;Node6</title>
<path fill="none" stroke="midnightblue" d="M85.72,-336.45C90.94,-327.23 96.75,-317 101.53,-308.58"/>
<polygon fill="midnightblue" stroke="midnightblue" points="104.68,-310.12 106.57,-299.7 98.59,-306.67 104.68,-310.12"/>
</g>
<!-- Node3 -->
<g id="node3" class="node">
<title>Node3</title>
<g id="a_node3"><a xlink:title=" ">
<polygon fill="white" stroke="#bfbfbf" points="9,-0.5 9,-19.5 62,-19.5 62,-0.5 9,-0.5"/>
<text text-anchor="middle" x="35.5" y="-7.5" font-family="Helvetica,sans-Serif" font-size="10.00">stdint.h</text>
</a>
</g>
</g>
<!-- Node2&#45;&gt;Node3 -->
<g id="edge2" class="edge">
<title>Node2&#45;&gt;Node3</title>
<path fill="none" stroke="midnightblue" d="M96.77,-56.32C85.66,-48.11 68.76,-35.6 55.52,-25.81"/>
<polygon fill="midnightblue" stroke="midnightblue" points="57.56,-22.97 47.44,-19.83 53.4,-28.59 57.56,-22.97"/>
</g>
<!-- Node4 -->
<g id="node4" class="node">
<title>Node4</title>
<g id="a_node4"><a xlink:title=" ">
<polygon fill="white" stroke="#bfbfbf" points="80.5,-0.5 80.5,-19.5 136.5,-19.5 136.5,-0.5 80.5,-0.5"/>
<text text-anchor="middle" x="108.5" y="-7.5" font-family="Helvetica,sans-Serif" font-size="10.00">stddef.h</text>
</a>
</g>
</g>
<!-- Node2&#45;&gt;Node4 -->
<g id="edge3" class="edge">
<title>Node2&#45;&gt;Node4</title>
<path fill="none" stroke="midnightblue" d="M108.5,-56.08C108.5,-49.01 108.5,-38.86 108.5,-29.99"/>
<polygon fill="midnightblue" stroke="midnightblue" points="112,-29.75 108.5,-19.75 105,-29.75 112,-29.75"/>
</g>
<!-- Node5 -->
<g id="node5" class="node">
<title>Node5</title>
<g id="a_node5"><a xlink:title=" ">
<polygon fill="white" stroke="#bfbfbf" points="154.5,-0.5 154.5,-19.5 216.5,-19.5 216.5,-0.5 154.5,-0.5"/>
<text text-anchor="middle" x="185.5" y="-7.5" font-family="Helvetica,sans-Serif" font-size="10.00">stdbool.h</text>
</a>
</g>
</g>
<!-- Node2&#45;&gt;Node5 -->
<g id="edge4" class="edge">
<title>Node2&#45;&gt;Node5</title>
<path fill="none" stroke="midnightblue" d="M120.87,-56.32C132.66,-48.06 150.63,-35.45 164.64,-25.63"/>
<polygon fill="midnightblue" stroke="midnightblue" points="166.98,-28.26 173.16,-19.65 162.96,-22.53 166.98,-28.26"/>
</g>
<!-- Node7 -->
<g id="node7" class="node">
<title>Node7</title>
<g id="a_node7"><a xlink:href="_defines_8h.html" target="_top" xlink:title="Internal definitions used by standard math.h functions as Macros, to use float or double precision.">
<polygon fill="white" stroke="black" points="60.5,-224.5 60.5,-243.5 162.5,-243.5 162.5,-224.5 60.5,-224.5"/>
<text text-anchor="middle" x="111.5" y="-231.5" font-family="Helvetica,sans-Serif" font-size="10.00">ifxBase/Defines.h</text>
</a>
</g>
</g>
<!-- Node6&#45;&gt;Node7 -->
<g id="edge6" class="edge">
<title>Node6&#45;&gt;Node7</title>
<path fill="none" stroke="midnightblue" d="M111.5,-280.08C111.5,-273.01 111.5,-262.86 111.5,-253.99"/>
<polygon fill="midnightblue" stroke="midnightblue" points="115,-253.75 111.5,-243.75 108,-253.75 115,-253.75"/>
</g>
<!-- Node10 -->
<g id="node10" class="node">
<title>Node10</title>
<g id="a_node10"><a xlink:href="_matrix_8h.html" target="_top" xlink:title="API for operations on Matrix data structures.">
<polygon fill="white" stroke="black" points="151,-168.5 151,-187.5 248,-187.5 248,-168.5 151,-168.5"/>
<text text-anchor="middle" x="199.5" y="-175.5" font-family="Helvetica,sans-Serif" font-size="10.00">ifxBase/Matrix.h</text>
</a>
</g>
</g>
<!-- Node6&#45;&gt;Node10 -->
<g id="edge11" class="edge">
<title>Node6&#45;&gt;Node10</title>
<path fill="none" stroke="midnightblue" d="M127.1,-280.45C140.4,-272.5 159.26,-259.55 171.5,-244 182.42,-230.14 189.9,-211.37 194.36,-197.57"/>
<polygon fill="midnightblue" stroke="midnightblue" points="197.78,-198.33 197.3,-187.75 191.08,-196.32 197.78,-198.33"/>
</g>
<!-- Node8 -->
<g id="node8" class="node">
<title>Node8</title>
<g id="a_node8"><a xlink:href="_math_8h.html" target="_top" xlink:title="API for Mathematical operations.">
<polygon fill="white" stroke="black" points="82,-168.5 82,-187.5 133,-187.5 133,-168.5 82,-168.5"/>
<text text-anchor="middle" x="107.5" y="-175.5" font-family="Helvetica,sans-Serif" font-size="10.00">math.h</text>
</a>
</g>
</g>
<!-- Node7&#45;&gt;Node8 -->
<g id="edge7" class="edge">
<title>Node7&#45;&gt;Node8</title>
<path fill="none" stroke="midnightblue" d="M110.84,-224.08C110.32,-217.01 109.56,-206.86 108.91,-197.99"/>
<polygon fill="midnightblue" stroke="midnightblue" points="112.38,-197.47 108.15,-187.75 105.4,-197.98 112.38,-197.47"/>
</g>
<!-- Node8&#45;&gt;Node2 -->
<g id="edge8" class="edge">
<title>Node8&#45;&gt;Node2</title>
<path fill="none" stroke="midnightblue" d="M102.35,-168.26C95.68,-155.87 85.36,-132.43 89.5,-112 91.39,-102.65 95.29,-92.83 99.07,-84.75"/>
<polygon fill="midnightblue" stroke="midnightblue" points="102.29,-86.14 103.62,-75.63 96.03,-83.01 102.29,-86.14"/>
</g>
<!-- Node9 -->
<g id="node9" class="node">
<title>Node9</title>
<g id="a_node9"><a xlink:href="_vector_8h.html" target="_top" xlink:title="API for operations on Vector data structures.">
<polygon fill="white" stroke="black" points="99,-112.5 99,-131.5 194,-131.5 194,-112.5 99,-112.5"/>
<text text-anchor="middle" x="146.5" y="-119.5" font-family="Helvetica,sans-Serif" font-size="10.00">ifxBase/Vector.h</text>
</a>
</g>
</g>
<!-- Node8&#45;&gt;Node9 -->
<g id="edge9" class="edge">
<title>Node8&#45;&gt;Node9</title>
<path fill="none" stroke="midnightblue" d="M113.94,-168.08C119.45,-160.46 127.53,-149.26 134.26,-139.94"/>
<polygon fill="midnightblue" stroke="midnightblue" points="137.16,-141.91 140.18,-131.75 131.49,-137.81 137.16,-141.91"/>
</g>
<!-- Node9&#45;&gt;Node2 -->
<g id="edge10" class="edge">
<title>Node9&#45;&gt;Node2</title>
<path fill="none" stroke="midnightblue" d="M140.23,-112.08C134.86,-104.46 126.98,-93.26 120.42,-83.94"/>
<polygon fill="midnightblue" stroke="midnightblue" points="123.28,-81.91 114.66,-75.75 117.55,-85.94 123.28,-81.91"/>
</g>
<!-- Node10&#45;&gt;Node2 -->
<g id="edge12" class="edge">
<title>Node10&#45;&gt;Node2</title>
<path fill="none" stroke="midnightblue" d="M203.07,-168.2C207.84,-154.91 214.5,-129.39 203.5,-112 193.45,-96.13 176.13,-85.74 159,-79"/>
<polygon fill="midnightblue" stroke="midnightblue" points="160.15,-75.69 149.55,-75.62 157.79,-82.28 160.15,-75.69"/>
</g>
<!-- Node10&#45;&gt;Node9 -->
<g id="edge13" class="edge">
<title>Node10&#45;&gt;Node9</title>
<path fill="none" stroke="midnightblue" d="M190.75,-168.08C183.03,-160.22 171.6,-148.57 162.28,-139.08"/>
<polygon fill="midnightblue" stroke="midnightblue" points="164.59,-136.44 155.09,-131.75 159.6,-141.34 164.59,-136.44"/>
</g>
</g>
</svg>
