<?xml version="1.0" encoding="UTF-8" standalone="no"?>
<!DOCTYPE svg PUBLIC "-//W3C//DTD SVG 1.1//EN"
 "http://www.w3.org/Graphics/SVG/1.1/DTD/svg11.dtd">
<!-- Generated by graphviz version 2.43.0 (0)
 -->
<!-- Title: /home/jenkins/jenkins&#45;ci/workspace/er_release_release&#45;branch&#45;v3.3.1@2/sdk/c/ifxBase/Defines.h Pages: 1 -->
<svg width="1600pt" height="439pt"
 viewBox="0.00 0.00 1599.62 439.00" xmlns="http://www.w3.org/2000/svg" xmlns:xlink="http://www.w3.org/1999/xlink">
<g id="graph0" class="graph" transform="scale(1 1) rotate(0) translate(4 435)">
<title>/home/jenkins/jenkins&#45;ci/workspace/er_release_release&#45;branch&#45;v3.3.1@2/sdk/c/ifxBase/Defines.h</title>
<polygon fill="white" stroke="transparent" points="-4,4 -4,-435 1595.62,-435 1595.62,4 -4,4"/>
<!-- Node1 -->
<g id="node1" class="node">
<title>Node1</title>
<g id="a_node1"><a xlink:title="Internal definitions used by standard math.h functions as Macros, to use float or double precision.">
<polygon fill="#bfbfbf" stroke="black" points="121.12,-378.5 121.12,-430.5 264.12,-430.5 264.12,-378.5 121.12,-378.5"/>
<text text-anchor="start" x="129.12" y="-418.5" font-family="Helvetica,sans-Serif" font-size="10.00">/home/jenkins/jenkins</text>
<text text-anchor="start" x="129.12" y="-407.5" font-family="Helvetica,sans-Serif" font-size="10.00">&#45;ci/workspace/er_release</text>
<text text-anchor="start" x="129.12" y="-396.5" font-family="Helvetica,sans-Serif" font-size="10.00">_release&#45;branch&#45;v3.3.1@2</text>
<text text-anchor="middle" x="192.62" y="-385.5" font-family="Helvetica,sans-Serif" font-size="10.00">/sdk/c/ifxBase/Defines.h</text>
</a>
</g>
</g>
<!-- Node2 -->
<g id="node2" class="node">
<title>Node2</title>
<g id="a_node2"><a xlink:href="_base_8h.html" target="_top" xlink:title="Header for ifxBase.">
<polygon fill="white" stroke="black" points="21.12,-195 21.12,-247 164.12,-247 164.12,-195 21.12,-195"/>
<text text-anchor="start" x="29.12" y="-235" font-family="Helvetica,sans-Serif" font-size="10.00">/home/jenkins/jenkins</text>
<text text-anchor="start" x="29.12" y="-224" font-family="Helvetica,sans-Serif" font-size="10.00">&#45;ci/workspace/er_release</text>
<text text-anchor="start" x="29.12" y="-213" font-family="Helvetica,sans-Serif" font-size="10.00">_release&#45;branch&#45;v3.3.1@2</text>
<text text-anchor="middle" x="92.62" y="-202" font-family="Helvetica,sans-Serif" font-size="10.00">/sdk/c/ifxBase/Base.h</text>
</a>
</g>
</g>
<!-- Node1&#45;&gt;Node2 -->
<g id="edge1" class="edge">
<title>Node1&#45;&gt;Node2</title>
<path fill="none" stroke="midnightblue" d="M138.89,-372.02C128.37,-363.53 118.48,-353.47 111.62,-342 94.18,-312.86 91.16,-272.91 91.32,-247.27"/>
<polygon fill="midnightblue" stroke="midnightblue" points="136.94,-374.94 147.02,-378.2 141.18,-369.36 136.94,-374.94"/>
</g>
<!-- Node3 -->
<g id="node3" class="node">
<title>Node3</title>
<g id="a_node3"><a xlink:href="_complex_8h.html" target="_top" xlink:title="API for operations on complex numbers.">
<polygon fill="white" stroke="black" points="121.12,-289.5 121.12,-341.5 264.12,-341.5 264.12,-289.5 121.12,-289.5"/>
<text text-anchor="start" x="129.12" y="-329.5" font-family="Helvetica,sans-Serif" font-size="10.00">/home/jenkins/jenkins</text>
<text text-anchor="start" x="129.12" y="-318.5" font-family="Helvetica,sans-Serif" font-size="10.00">&#45;ci/workspace/er_release</text>
<text text-anchor="start" x="129.12" y="-307.5" font-family="Helvetica,sans-Serif" font-size="10.00">_release&#45;branch&#45;v3.3.1@2</text>
<text text-anchor="middle" x="192.62" y="-296.5" font-family="Helvetica,sans-Serif" font-size="10.00">/sdk/c/ifxBase/Complex.h</text>
</a>
</g>
</g>
<!-- Node1&#45;&gt;Node3 -->
<g id="edge2" class="edge">
<title>Node1&#45;&gt;Node3</title>
<path fill="none" stroke="midnightblue" d="M192.62,-368.19C192.62,-359.28 192.62,-349.9 192.62,-341.61"/>
<polygon fill="midnightblue" stroke="midnightblue" points="189.12,-368.34 192.62,-378.34 196.12,-368.34 189.12,-368.34"/>
</g>
<!-- Node7 -->
<g id="node7" class="node">
<title>Node7</title>
<g id="a_node7"><a xlink:href="_cube_8h.html" target="_top" xlink:title="API for operations on Cube data structures.">
<polygon fill="white" stroke="black" points="522.12,-289.5 522.12,-341.5 665.12,-341.5 665.12,-289.5 522.12,-289.5"/>
<text text-anchor="start" x="530.12" y="-329.5" font-family="Helvetica,sans-Serif" font-size="10.00">/home/jenkins/jenkins</text>
<text text-anchor="start" x="530.12" y="-318.5" font-family="Helvetica,sans-Serif" font-size="10.00">&#45;ci/workspace/er_release</text>
<text text-anchor="start" x="530.12" y="-307.5" font-family="Helvetica,sans-Serif" font-size="10.00">_release&#45;branch&#45;v3.3.1@2</text>
<text text-anchor="middle" x="593.62" y="-296.5" font-family="Helvetica,sans-Serif" font-size="10.00">/sdk/c/ifxBase/Cube.h</text>
</a>
</g>
</g>
<!-- Node1&#45;&gt;Node7 -->
<g id="edge7" class="edge">
<title>Node1&#45;&gt;Node7</title>
<path fill="none" stroke="midnightblue" d="M274.34,-385.77C347.06,-369.99 452.36,-347.15 521.87,-332.07"/>
<polygon fill="midnightblue" stroke="midnightblue" points="273.34,-382.41 264.31,-387.95 274.82,-389.25 273.34,-382.41"/>
</g>
<!-- Node3&#45;&gt;Node2 -->
<g id="edge3" class="edge">
<title>Node3&#45;&gt;Node2</title>
<path fill="none" stroke="midnightblue" d="M157.97,-282.45C145.44,-270.86 131.49,-257.95 119.7,-247.05"/>
<polygon fill="midnightblue" stroke="midnightblue" points="155.84,-285.25 165.56,-289.47 160.59,-280.11 155.84,-285.25"/>
</g>
<!-- Node4 -->
<g id="node4" class="node">
<title>Node4</title>
<g id="a_node4"><a xlink:href="_angle_monopulse_8h.html" target="_top" xlink:title="API for Phase Monopulse algorithm.">
<polygon fill="white" stroke="black" points="31.62,-95 31.62,-147 213.62,-147 213.62,-95 31.62,-95"/>
<text text-anchor="start" x="39.62" y="-135" font-family="Helvetica,sans-Serif" font-size="10.00">/home/jenkins/jenkins</text>
<text text-anchor="start" x="39.62" y="-124" font-family="Helvetica,sans-Serif" font-size="10.00">&#45;ci/workspace/er_release</text>
<text text-anchor="start" x="39.62" y="-113" font-family="Helvetica,sans-Serif" font-size="10.00">_release&#45;branch&#45;v3.3.1@2</text>
<text text-anchor="middle" x="122.62" y="-102" font-family="Helvetica,sans-Serif" font-size="10.00">/sdk/c/ifxRadar/AngleMonopulse.h</text>
</a>
</g>
</g>
<!-- Node3&#45;&gt;Node4 -->
<g id="edge4" class="edge">
<title>Node3&#45;&gt;Node4</title>
<path fill="none" stroke="midnightblue" d="M110.48,-307.71C73.98,-300.12 34.23,-284.57 11.62,-253 -4.95,-229.88 -2.37,-213.77 11.62,-189 21.8,-170.97 38.99,-157.24 56.85,-147.06"/>
<polygon fill="midnightblue" stroke="midnightblue" points="110.19,-311.22 120.67,-309.65 111.5,-304.35 110.19,-311.22"/>
</g>
<!-- Node6 -->
<g id="node6" class="node">
<title>Node6</title>
<g id="a_node6"><a xlink:href="_util_8h.html" target="_top" xlink:title="This file defines some utility functions like printing to, reading from files or printing to console....">
<polygon fill="white" stroke="black" points="182.12,-195 182.12,-247 325.12,-247 325.12,-195 182.12,-195"/>
<text text-anchor="start" x="190.12" y="-235" font-family="Helvetica,sans-Serif" font-size="10.00">/home/jenkins/jenkins</text>
<text text-anchor="start" x="190.12" y="-224" font-family="Helvetica,sans-Serif" font-size="10.00">&#45;ci/workspace/er_release</text>
<text text-anchor="start" x="190.12" y="-213" font-family="Helvetica,sans-Serif" font-size="10.00">_release&#45;branch&#45;v3.3.1@2</text>
<text text-anchor="middle" x="253.62" y="-202" font-family="Helvetica,sans-Serif" font-size="10.00">/sdk/c/ifxUtil/Util.h</text>
</a>
</g>
</g>
<!-- Node3&#45;&gt;Node6 -->
<g id="edge6" class="edge">
<title>Node3&#45;&gt;Node6</title>
<path fill="none" stroke="midnightblue" d="M214.95,-280.64C222.23,-269.6 230.18,-257.54 236.97,-247.25"/>
<polygon fill="midnightblue" stroke="midnightblue" points="211.87,-278.95 209.28,-289.22 217.71,-282.8 211.87,-278.95"/>
</g>
<!-- Node5 -->
<g id="node5" class="node">
<title>Node5</title>
<g id="a_node5"><a xlink:href="_radar_8h.html" target="_top" xlink:title="Header for ifxRadar.">
<polygon fill="white" stroke="black" points="337.12,-0.5 337.12,-52.5 480.12,-52.5 480.12,-0.5 337.12,-0.5"/>
<text text-anchor="start" x="345.12" y="-40.5" font-family="Helvetica,sans-Serif" font-size="10.00">/home/jenkins/jenkins</text>
<text text-anchor="start" x="345.12" y="-29.5" font-family="Helvetica,sans-Serif" font-size="10.00">&#45;ci/workspace/er_release</text>
<text text-anchor="start" x="345.12" y="-18.5" font-family="Helvetica,sans-Serif" font-size="10.00">_release&#45;branch&#45;v3.3.1@2</text>
<text text-anchor="middle" x="408.62" y="-7.5" font-family="Helvetica,sans-Serif" font-size="10.00">/sdk/c/ifxRadar/Radar.h</text>
</a>
</g>
</g>
<!-- Node4&#45;&gt;Node5 -->
<g id="edge5" class="edge">
<title>Node4&#45;&gt;Node5</title>
<path fill="none" stroke="midnightblue" d="M209.67,-91.84C250.45,-78.66 298.43,-63.14 337.05,-50.65"/>
<polygon fill="midnightblue" stroke="midnightblue" points="208.45,-88.56 200.01,-94.97 210.6,-95.22 208.45,-88.56"/>
</g>
<!-- Node7&#45;&gt;Node2 -->
<g id="edge18" class="edge">
<title>Node7&#45;&gt;Node2</title>
<path fill="none" stroke="midnightblue" d="M511.69,-308.02C426.05,-299.98 288.28,-283.44 172.62,-253 166.28,-251.33 159.76,-249.32 153.3,-247.14"/>
<polygon fill="midnightblue" stroke="midnightblue" points="511.59,-311.53 521.87,-308.96 512.24,-304.56 511.59,-311.53"/>
</g>
<!-- Node7&#45;&gt;Node6 -->
<g id="edge29" class="edge">
<title>Node7&#45;&gt;Node6</title>
<path fill="none" stroke="midnightblue" d="M511.98,-298.02C460.61,-286.93 393.2,-271.08 334.62,-253 328.72,-251.18 322.63,-249.15 316.57,-247.02"/>
<polygon fill="midnightblue" stroke="midnightblue" points="511.52,-301.5 522.03,-300.17 512.98,-294.65 511.52,-301.5"/>
</g>
<!-- Node8 -->
<g id="node8" class="node">
<title>Node8</title>
<g id="a_node8"><a xlink:href="_device_control_8h.html" target="_top" xlink:title="API for Radar device control operations.">
<polygon fill="white" stroke="black" points="774.12,-195 774.12,-247 943.12,-247 943.12,-195 774.12,-195"/>
<text text-anchor="start" x="782.12" y="-235" font-family="Helvetica,sans-Serif" font-size="10.00">/home/jenkins/jenkins</text>
<text text-anchor="start" x="782.12" y="-224" font-family="Helvetica,sans-Serif" font-size="10.00">&#45;ci/workspace/er_release</text>
<text text-anchor="start" x="782.12" y="-213" font-family="Helvetica,sans-Serif" font-size="10.00">_release&#45;branch&#45;v3.3.1@2</text>
<text text-anchor="middle" x="858.62" y="-202" font-family="Helvetica,sans-Serif" font-size="10.00">/sdk/c/ifxAvian/DeviceControl.h</text>
</a>
</g>
</g>
<!-- Node7&#45;&gt;Node8 -->
<g id="edge8" class="edge">
<title>Node7&#45;&gt;Node8</title>
<path fill="none" stroke="midnightblue" d="M675.23,-286.01C710.9,-273.56 752.37,-259.09 786.85,-247.05"/>
<polygon fill="midnightblue" stroke="midnightblue" points="673.62,-282.87 665.33,-289.47 675.92,-289.48 673.62,-282.87"/>
</g>
<!-- Node14 -->
<g id="node14" class="node">
<title>Node14</title>
<g id="a_node14"><a xlink:href="_motion_angle_8h.html" target="_top" xlink:title=" ">
<polygon fill="white" stroke="black" points="960.62,-195 960.62,-247 1156.62,-247 1156.62,-195 960.62,-195"/>
<text text-anchor="start" x="968.62" y="-235" font-family="Helvetica,sans-Serif" font-size="10.00">/home/jenkins/jenkins</text>
<text text-anchor="start" x="968.62" y="-224" font-family="Helvetica,sans-Serif" font-size="10.00">&#45;ci/workspace/er_release</text>
<text text-anchor="start" x="968.62" y="-213" font-family="Helvetica,sans-Serif" font-size="10.00">_release&#45;branch&#45;v3.3.1@2</text>
<text text-anchor="middle" x="1058.62" y="-202" font-family="Helvetica,sans-Serif" font-size="10.00">/sdk/c/ifxMotionAngle/MotionAngle.h</text>
</a>
</g>
</g>
<!-- Node7&#45;&gt;Node14 -->
<g id="edge19" class="edge">
<title>Node7&#45;&gt;Node14</title>
<path fill="none" stroke="midnightblue" d="M675.34,-303.23C748.46,-292.51 858.32,-274.79 952.62,-253 960.37,-251.21 968.39,-249.18 976.4,-247.05"/>
<polygon fill="midnightblue" stroke="midnightblue" points="674.67,-299.79 665.28,-304.7 675.68,-306.72 674.67,-299.79"/>
</g>
<!-- Node15 -->
<g id="node15" class="node">
<title>Node15</title>
<g id="a_node15"><a xlink:href="_angle_capon_8h.html" target="_top" xlink:title="API for the 1&#45;D Angle Capon algorithm.">
<polygon fill="white" stroke="black" points="343.62,-195 343.62,-247 503.62,-247 503.62,-195 343.62,-195"/>
<text text-anchor="start" x="351.62" y="-235" font-family="Helvetica,sans-Serif" font-size="10.00">/home/jenkins/jenkins</text>
<text text-anchor="start" x="351.62" y="-224" font-family="Helvetica,sans-Serif" font-size="10.00">&#45;ci/workspace/er_release</text>
<text text-anchor="start" x="351.62" y="-213" font-family="Helvetica,sans-Serif" font-size="10.00">_release&#45;branch&#45;v3.3.1@2</text>
<text text-anchor="middle" x="423.62" y="-202" font-family="Helvetica,sans-Serif" font-size="10.00">/sdk/c/ifxRadar/AngleCapon.h</text>
</a>
</g>
</g>
<!-- Node7&#45;&gt;Node15 -->
<g id="edge20" class="edge">
<title>Node7&#45;&gt;Node15</title>
<path fill="none" stroke="midnightblue" d="M538.61,-284.57C516.34,-272.45 490.92,-258.62 469.66,-247.05"/>
<polygon fill="midnightblue" stroke="midnightblue" points="537.16,-287.76 547.61,-289.47 540.5,-281.61 537.16,-287.76"/>
</g>
<!-- Node16 -->
<g id="node16" class="node">
<title>Node16</title>
<g id="a_node16"><a xlink:href="_d_b_f_8h.html" target="_top" xlink:title="API for Digital Beamforming (DBF) algorithm.">
<polygon fill="white" stroke="black" points="522.12,-195 522.12,-247 665.12,-247 665.12,-195 522.12,-195"/>
<text text-anchor="start" x="530.12" y="-235" font-family="Helvetica,sans-Serif" font-size="10.00">/home/jenkins/jenkins</text>
<text text-anchor="start" x="530.12" y="-224" font-family="Helvetica,sans-Serif" font-size="10.00">&#45;ci/workspace/er_release</text>
<text text-anchor="start" x="530.12" y="-213" font-family="Helvetica,sans-Serif" font-size="10.00">_release&#45;branch&#45;v3.3.1@2</text>
<text text-anchor="middle" x="593.62" y="-202" font-family="Helvetica,sans-Serif" font-size="10.00">/sdk/c/ifxRadar/DBF.h</text>
</a>
</g>
</g>
<!-- Node7&#45;&gt;Node16 -->
<g id="edge22" class="edge">
<title>Node7&#45;&gt;Node16</title>
<path fill="none" stroke="midnightblue" d="M593.62,-278.99C593.62,-268.41 593.62,-257.03 593.62,-247.25"/>
<polygon fill="midnightblue" stroke="midnightblue" points="590.12,-279.22 593.62,-289.22 597.12,-279.22 590.12,-279.22"/>
</g>
<!-- Node17 -->
<g id="node17" class="node">
<title>Node17</title>
<g id="a_node17"><a xlink:href="_range_angle_image_8h.html" target="_top" xlink:title="API for Range Angle Image algorithm.">
<polygon fill="white" stroke="black" points="437.12,-95 437.12,-147 628.12,-147 628.12,-95 437.12,-95"/>
<text text-anchor="start" x="445.12" y="-135" font-family="Helvetica,sans-Serif" font-size="10.00">/home/jenkins/jenkins</text>
<text text-anchor="start" x="445.12" y="-124" font-family="Helvetica,sans-Serif" font-size="10.00">&#45;ci/workspace/er_release</text>
<text text-anchor="start" x="445.12" y="-113" font-family="Helvetica,sans-Serif" font-size="10.00">_release&#45;branch&#45;v3.3.1@2</text>
<text text-anchor="middle" x="532.62" y="-102" font-family="Helvetica,sans-Serif" font-size="10.00">/sdk/c/ifxRadar/RangeAngleImage.h</text>
</a>
</g>
</g>
<!-- Node7&#45;&gt;Node17 -->
<g id="edge26" class="edge">
<title>Node7&#45;&gt;Node17</title>
<path fill="none" stroke="midnightblue" d="M649.37,-283.23C659.56,-274.81 668.8,-264.72 674.62,-253 687.26,-227.52 689.85,-213.02 674.62,-189 662.87,-170.47 644.47,-156.96 624.76,-147.16"/>
<polygon fill="midnightblue" stroke="midnightblue" points="647.22,-280.47 641.44,-289.34 651.49,-286.01 647.22,-280.47"/>
</g>
<!-- Node18 -->
<g id="node18" class="node">
<title>Node18</title>
<g id="a_node18"><a xlink:href="_segmentation_8h.html" target="_top" xlink:title="API for Segmentation and Seamless Tracking algorithm.">
<polygon fill="white" stroke="black" points="1303.62,-189.5 1303.62,-252.5 1461.62,-252.5 1461.62,-189.5 1303.62,-189.5"/>
<text text-anchor="start" x="1311.62" y="-240.5" font-family="Helvetica,sans-Serif" font-size="10.00">/home/jenkins/jenkins</text>
<text text-anchor="start" x="1311.62" y="-229.5" font-family="Helvetica,sans-Serif" font-size="10.00">&#45;ci/workspace/er_release</text>
<text text-anchor="start" x="1311.62" y="-218.5" font-family="Helvetica,sans-Serif" font-size="10.00">_release&#45;branch&#45;v3.3.1@2</text>
<text text-anchor="start" x="1311.62" y="-207.5" font-family="Helvetica,sans-Serif" font-size="10.00">/sdk/c/ifxRadarSegmentation</text>
<text text-anchor="middle" x="1382.62" y="-196.5" font-family="Helvetica,sans-Serif" font-size="10.00">/Segmentation.h</text>
</a>
</g>
</g>
<!-- Node7&#45;&gt;Node18 -->
<g id="edge27" class="edge">
<title>Node7&#45;&gt;Node18</title>
<path fill="none" stroke="midnightblue" d="M675.63,-306.59C786.79,-295.66 991.43,-274.8 1165.62,-253 1211.4,-247.27 1262.5,-240.01 1303.6,-233.96"/>
<polygon fill="midnightblue" stroke="midnightblue" points="675.11,-303.12 665.5,-307.58 675.79,-310.09 675.11,-303.12"/>
</g>
<!-- Node9 -->
<g id="node9" class="node">
<title>Node9</title>
<g id="a_node9"><a xlink:href="_avian_8h.html" target="_top" xlink:title="Header for ifxAvian.">
<polygon fill="white" stroke="black" points="1014.12,-0.5 1014.12,-52.5 1157.12,-52.5 1157.12,-0.5 1014.12,-0.5"/>
<text text-anchor="start" x="1022.12" y="-40.5" font-family="Helvetica,sans-Serif" font-size="10.00">/home/jenkins/jenkins</text>
<text text-anchor="start" x="1022.12" y="-29.5" font-family="Helvetica,sans-Serif" font-size="10.00">&#45;ci/workspace/er_release</text>
<text text-anchor="start" x="1022.12" y="-18.5" font-family="Helvetica,sans-Serif" font-size="10.00">_release&#45;branch&#45;v3.3.1@2</text>
<text text-anchor="middle" x="1085.62" y="-7.5" font-family="Helvetica,sans-Serif" font-size="10.00">/sdk/c/ifxAvian/Avian.h</text>
</a>
</g>
</g>
<!-- Node8&#45;&gt;Node9 -->
<g id="edge9" class="edge">
<title>Node8&#45;&gt;Node9</title>
<path fill="none" stroke="midnightblue" d="M854.09,-184.66C852.4,-155.59 855.04,-115.07 877.62,-89 911.26,-50.14 968.17,-35.24 1013.96,-29.79"/>
<polygon fill="midnightblue" stroke="midnightblue" points="850.61,-185.11 854.87,-194.81 857.59,-184.57 850.61,-185.11"/>
</g>
<!-- Node10 -->
<g id="node10" class="node">
<title>Node10</title>
<g id="a_node10"><a xlink:href="_constant_wave_control_8h.html" target="_top" xlink:title="Header for Constant Wave Control. It provides APIs to use an Avian device in constant wave mode....">
<polygon fill="white" stroke="black" points="886.62,-95 886.62,-147 1092.62,-147 1092.62,-95 886.62,-95"/>
<text text-anchor="start" x="894.62" y="-135" font-family="Helvetica,sans-Serif" font-size="10.00">/home/jenkins/jenkins</text>
<text text-anchor="start" x="894.62" y="-124" font-family="Helvetica,sans-Serif" font-size="10.00">&#45;ci/workspace/er_release</text>
<text text-anchor="start" x="894.62" y="-113" font-family="Helvetica,sans-Serif" font-size="10.00">_release&#45;branch&#45;v3.3.1@2</text>
<text text-anchor="middle" x="989.62" y="-102" font-family="Helvetica,sans-Serif" font-size="10.00">/sdk/c/ifxAvian/ConstantWaveControl.h</text>
</a>
</g>
</g>
<!-- Node8&#45;&gt;Node10 -->
<g id="edge10" class="edge">
<title>Node8&#45;&gt;Node10</title>
<path fill="none" stroke="midnightblue" d="M900.39,-188.75C918.34,-175.32 939.05,-159.83 956,-147.15"/>
<polygon fill="midnightblue" stroke="midnightblue" points="898.26,-185.97 892.35,-194.76 902.46,-191.57 898.26,-185.97"/>
</g>
<!-- Node11 -->
<g id="node11" class="node">
<title>Node11</title>
<g id="a_node11"><a xlink:href="_metrics_8h.html" target="_top" xlink:title="API for Metrics.">
<polygon fill="white" stroke="black" points="1111.12,-95 1111.12,-147 1254.12,-147 1254.12,-95 1111.12,-95"/>
<text text-anchor="start" x="1119.12" y="-135" font-family="Helvetica,sans-Serif" font-size="10.00">/home/jenkins/jenkins</text>
<text text-anchor="start" x="1119.12" y="-124" font-family="Helvetica,sans-Serif" font-size="10.00">&#45;ci/workspace/er_release</text>
<text text-anchor="start" x="1119.12" y="-113" font-family="Helvetica,sans-Serif" font-size="10.00">_release&#45;branch&#45;v3.3.1@2</text>
<text text-anchor="middle" x="1182.62" y="-102" font-family="Helvetica,sans-Serif" font-size="10.00">/sdk/c/ifxAvian/Metrics.h</text>
</a>
</g>
</g>
<!-- Node8&#45;&gt;Node11 -->
<g id="edge12" class="edge">
<title>Node8&#45;&gt;Node11</title>
<path fill="none" stroke="midnightblue" d="M941.47,-191.98C944.89,-190.95 948.28,-189.95 951.62,-189 1017.53,-170.14 1036.13,-173.3 1101.62,-153 1107.51,-151.17 1113.6,-149.14 1119.66,-147"/>
<polygon fill="midnightblue" stroke="midnightblue" points="940.32,-188.67 931.79,-194.95 942.38,-195.36 940.32,-188.67"/>
</g>
<!-- Node12 -->
<g id="node12" class="node">
<title>Node12</title>
<g id="a_node12"><a xlink:href="_shapes_8h.html" target="_top" xlink:title=" ">
<polygon fill="white" stroke="black" points="1272.12,-95 1272.12,-147 1415.12,-147 1415.12,-95 1272.12,-95"/>
<text text-anchor="start" x="1280.12" y="-135" font-family="Helvetica,sans-Serif" font-size="10.00">/home/jenkins/jenkins</text>
<text text-anchor="start" x="1280.12" y="-124" font-family="Helvetica,sans-Serif" font-size="10.00">&#45;ci/workspace/er_release</text>
<text text-anchor="start" x="1280.12" y="-113" font-family="Helvetica,sans-Serif" font-size="10.00">_release&#45;branch&#45;v3.3.1@2</text>
<text text-anchor="middle" x="1343.62" y="-102" font-family="Helvetica,sans-Serif" font-size="10.00">/sdk/c/ifxAvian/Shapes.h</text>
</a>
</g>
</g>
<!-- Node8&#45;&gt;Node12 -->
<g id="edge14" class="edge">
<title>Node8&#45;&gt;Node12</title>
<path fill="none" stroke="midnightblue" d="M938.32,-192.26C942.79,-191.07 947.25,-189.97 951.62,-189 1087.89,-158.77 1128.11,-186.49 1263.62,-153 1270.27,-151.36 1277.11,-149.3 1283.87,-147.04"/>
<polygon fill="midnightblue" stroke="midnightblue" points="937.2,-188.93 928.51,-194.99 939.09,-195.68 937.2,-188.93"/>
</g>
<!-- Node13 -->
<g id="node13" class="node">
<title>Node13</title>
<g id="a_node13"><a xlink:href="_presence_sensing_8h.html" target="_top" xlink:title="API for Presence Sensing algorithm.">
<polygon fill="white" stroke="black" points="646.62,-95 646.62,-147 830.62,-147 830.62,-95 646.62,-95"/>
<text text-anchor="start" x="654.62" y="-135" font-family="Helvetica,sans-Serif" font-size="10.00">/home/jenkins/jenkins</text>
<text text-anchor="start" x="654.62" y="-124" font-family="Helvetica,sans-Serif" font-size="10.00">&#45;ci/workspace/er_release</text>
<text text-anchor="start" x="654.62" y="-113" font-family="Helvetica,sans-Serif" font-size="10.00">_release&#45;branch&#45;v3.3.1@2</text>
<text text-anchor="middle" x="738.62" y="-102" font-family="Helvetica,sans-Serif" font-size="10.00">/sdk/c/ifxRadar/PresenceSensing.h</text>
</a>
</g>
</g>
<!-- Node8&#45;&gt;Node13 -->
<g id="edge16" class="edge">
<title>Node8&#45;&gt;Node13</title>
<path fill="none" stroke="midnightblue" d="M819.91,-188.39C803.56,-175.04 784.8,-159.71 769.41,-147.15"/>
<polygon fill="midnightblue" stroke="midnightblue" points="817.75,-191.15 827.71,-194.76 822.18,-185.73 817.75,-191.15"/>
</g>
<!-- Node10&#45;&gt;Node9 -->
<g id="edge11" class="edge">
<title>Node10&#45;&gt;Node9</title>
<path fill="none" stroke="midnightblue" d="M1022.88,-87.95C1034.91,-76.36 1048.3,-63.45 1059.62,-52.55"/>
<polygon fill="midnightblue" stroke="midnightblue" points="1020.37,-85.51 1015.6,-94.97 1025.23,-90.55 1020.37,-85.51"/>
</g>
<!-- Node11&#45;&gt;Node9 -->
<g id="edge13" class="edge">
<title>Node11&#45;&gt;Node9</title>
<path fill="none" stroke="midnightblue" d="M1149.01,-87.95C1136.86,-76.36 1123.32,-63.45 1111.89,-52.55"/>
<polygon fill="midnightblue" stroke="midnightblue" points="1146.71,-90.6 1156.37,-94.97 1151.55,-85.53 1146.71,-90.6"/>
</g>
<!-- Node12&#45;&gt;Node9 -->
<g id="edge15" class="edge">
<title>Node12&#45;&gt;Node9</title>
<path fill="none" stroke="midnightblue" d="M1270,-91.36C1267.85,-90.56 1265.72,-89.77 1263.62,-89 1228.77,-76.23 1189.84,-62.7 1157.29,-51.59"/>
<polygon fill="midnightblue" stroke="midnightblue" points="1268.92,-94.69 1279.51,-94.92 1271.37,-88.13 1268.92,-94.69"/>
</g>
<!-- Node13&#45;&gt;Node5 -->
<g id="edge17" class="edge">
<title>Node13&#45;&gt;Node5</title>
<path fill="none" stroke="midnightblue" d="M648.32,-92.11C644.7,-91.05 641.13,-90.01 637.62,-89 585.1,-73.89 525.47,-57.92 480.23,-46.03"/>
<polygon fill="midnightblue" stroke="midnightblue" points="647.35,-95.47 657.93,-94.96 649.33,-88.76 647.35,-95.47"/>
</g>
<!-- Node15&#45;&gt;Node5 -->
<g id="edge21" class="edge">
<title>Node15&#45;&gt;Node5</title>
<path fill="none" stroke="midnightblue" d="M405.45,-185.39C401,-175.23 396.88,-163.91 394.62,-153 387.5,-118.65 394.75,-78.22 401.19,-52.72"/>
<polygon fill="midnightblue" stroke="midnightblue" points="402.39,-187.11 409.76,-194.72 408.74,-184.17 402.39,-187.11"/>
</g>
<!-- Node16&#45;&gt;Node5 -->
<g id="edge23" class="edge">
<title>Node16&#45;&gt;Node5</title>
<path fill="none" stroke="midnightblue" d="M519.93,-191.19C476.34,-173.99 429.26,-155.08 427.62,-153 405.07,-124.47 403.7,-80.58 405.57,-52.99"/>
<polygon fill="midnightblue" stroke="midnightblue" points="518.87,-194.53 529.45,-194.94 521.43,-188.02 518.87,-194.53"/>
</g>
<!-- Node16&#45;&gt;Node17 -->
<g id="edge24" class="edge">
<title>Node16&#45;&gt;Node17</title>
<path fill="none" stroke="midnightblue" d="M572.57,-186.19C564.6,-173.38 555.66,-159.03 548.27,-147.15"/>
<polygon fill="midnightblue" stroke="midnightblue" points="569.65,-188.12 577.91,-194.76 575.59,-184.42 569.65,-188.12"/>
</g>
<!-- Node17&#45;&gt;Node5 -->
<g id="edge25" class="edge">
<title>Node17&#45;&gt;Node5</title>
<path fill="none" stroke="midnightblue" d="M490.97,-88.93C475.1,-77.09 457.23,-63.76 442.2,-52.55"/>
<polygon fill="midnightblue" stroke="midnightblue" points="488.95,-91.79 499.06,-94.97 493.14,-86.18 488.95,-91.79"/>
</g>
<!-- Node19 -->
<g id="node19" class="node">
<title>Node19</title>
<g id="a_node19"><a xlink:href="_radar_segmentation_8h.html" target="_top" xlink:title="Header for ifxRadarSegmentation.">
<polygon fill="white" stroke="black" points="1433.62,-89.5 1433.62,-152.5 1591.62,-152.5 1591.62,-89.5 1433.62,-89.5"/>
<text text-anchor="start" x="1441.62" y="-140.5" font-family="Helvetica,sans-Serif" font-size="10.00">/home/jenkins/jenkins</text>
<text text-anchor="start" x="1441.62" y="-129.5" font-family="Helvetica,sans-Serif" font-size="10.00">&#45;ci/workspace/er_release</text>
<text text-anchor="start" x="1441.62" y="-118.5" font-family="Helvetica,sans-Serif" font-size="10.00">_release&#45;branch&#45;v3.3.1@2</text>
<text text-anchor="start" x="1441.62" y="-107.5" font-family="Helvetica,sans-Serif" font-size="10.00">/sdk/c/ifxRadarSegmentation</text>
<text text-anchor="middle" x="1512.62" y="-96.5" font-family="Helvetica,sans-Serif" font-size="10.00">/RadarSegmentation.h</text>
</a>
</g>
</g>
<!-- Node18&#45;&gt;Node19 -->
<g id="edge28" class="edge">
<title>Node18&#45;&gt;Node19</title>
<path fill="none" stroke="midnightblue" d="M1431.55,-183.11C1444.88,-173.06 1459.17,-162.29 1471.99,-152.63"/>
<polygon fill="midnightblue" stroke="midnightblue" points="1429.27,-180.45 1423.39,-189.26 1433.48,-186.04 1429.27,-180.45"/>
</g>
</g>
</svg>
