<?xml version="1.0" encoding="UTF-8" standalone="no"?>
<!DOCTYPE svg PUBLIC "-//W3C//DTD SVG 1.1//EN"
 "http://www.w3.org/Graphics/SVG/1.1/DTD/svg11.dtd">
<!-- Generated by graphviz version 2.43.0 (0)
 -->
<!-- Title: /home/jenkins/jenkins&#45;ci/workspace/er_release_release&#45;branch&#45;v3.3.1@2/sdk/c/ifxDopplerLTR11/DeviceLTR11Control.h Pages: 1 -->
<svg width="455pt" height="307pt"
 viewBox="0.00 0.00 454.87 307.00" xmlns="http://www.w3.org/2000/svg" xmlns:xlink="http://www.w3.org/1999/xlink">
<g id="graph0" class="graph" transform="scale(1 1) rotate(0) translate(4 303)">
<title>/home/jenkins/jenkins&#45;ci/workspace/er_release_release&#45;branch&#45;v3.3.1@2/sdk/c/ifxDopplerLTR11/DeviceLTR11Control.h</title>
<polygon fill="white" stroke="transparent" points="-4,4 -4,-303 450.87,-303 450.87,4 -4,4"/>
<!-- Node1 -->
<g id="node1" class="node">
<title>Node1</title>
<g id="a_node1"><a xlink:title="API for 60GHz Radar device BGT60LTR11 to configure and get raw data.">
<polygon fill="#bfbfbf" stroke="black" points="118.5,-235.5 118.5,-298.5 312.5,-298.5 312.5,-235.5 118.5,-235.5"/>
<text text-anchor="start" x="126.5" y="-286.5" font-family="Helvetica,sans-Serif" font-size="10.00">/home/jenkins/jenkins</text>
<text text-anchor="start" x="126.5" y="-275.5" font-family="Helvetica,sans-Serif" font-size="10.00">&#45;ci/workspace/er_release</text>
<text text-anchor="start" x="126.5" y="-264.5" font-family="Helvetica,sans-Serif" font-size="10.00">_release&#45;branch&#45;v3.3.1@2</text>
<text text-anchor="start" x="126.5" y="-253.5" font-family="Helvetica,sans-Serif" font-size="10.00">/sdk/c/ifxDopplerLTR11/DeviceLTR11</text>
<text text-anchor="middle" x="215.5" y="-242.5" font-family="Helvetica,sans-Serif" font-size="10.00">Control.h</text>
</a>
</g>
</g>
<!-- Node2 -->
<g id="node2" class="node">
<title>Node2</title>
<g id="a_node2"><a xlink:href="ifx_base_2_types_8h.html" target="_top" xlink:title="Definitions of data types used within the SDK.">
<polygon fill="white" stroke="black" points="241,-56.5 241,-75.5 334,-75.5 334,-56.5 241,-56.5"/>
<text text-anchor="middle" x="287.5" y="-63.5" font-family="Helvetica,sans-Serif" font-size="10.00">ifxBase/Types.h</text>
</a>
</g>
</g>
<!-- Node1&#45;&gt;Node2 -->
<g id="edge1" class="edge">
<title>Node1&#45;&gt;Node2</title>
<path fill="none" stroke="midnightblue" d="M312.56,-248.55C364.89,-236.96 421.9,-220.01 437.5,-199 476.23,-146.85 378.04,-100.37 322.52,-79.16"/>
<polygon fill="midnightblue" stroke="midnightblue" points="323.61,-75.83 313.02,-75.62 321.16,-82.39 323.61,-75.83"/>
</g>
<!-- Node6 -->
<g id="node6" class="node">
<title>Node6</title>
<g id="a_node6"><a xlink:href="_error_8h.html" target="_top" xlink:title="API for error handling.">
<polygon fill="white" stroke="black" points="14.5,-174 14.5,-193 102.5,-193 102.5,-174 14.5,-174"/>
<text text-anchor="middle" x="58.5" y="-181" font-family="Helvetica,sans-Serif" font-size="10.00">ifxBase/Error.h</text>
</a>
</g>
</g>
<!-- Node1&#45;&gt;Node6 -->
<g id="edge5" class="edge">
<title>Node1&#45;&gt;Node6</title>
<path fill="none" stroke="midnightblue" d="M156.59,-235.42C131.47,-222.38 103.48,-207.85 83.86,-197.66"/>
<polygon fill="midnightblue" stroke="midnightblue" points="85.43,-194.54 74.94,-193.03 82.2,-200.75 85.43,-194.54"/>
</g>
<!-- Node9 -->
<g id="node9" class="node">
<title>Node9</title>
<g id="a_node9"><a xlink:href="_list_8h.html" target="_top" xlink:title=" ">
<polygon fill="white" stroke="black" points="101,-112.5 101,-131.5 184,-131.5 184,-112.5 101,-112.5"/>
<text text-anchor="middle" x="142.5" y="-119.5" font-family="Helvetica,sans-Serif" font-size="10.00">ifxBase/List.h</text>
</a>
</g>
</g>
<!-- Node1&#45;&gt;Node9 -->
<g id="edge9" class="edge">
<title>Node1&#45;&gt;Node9</title>
<path fill="none" stroke="midnightblue" d="M199.84,-235.32C185.17,-206.58 163.74,-164.61 151.67,-140.96"/>
<polygon fill="midnightblue" stroke="midnightblue" points="154.63,-139.07 146.97,-131.76 148.4,-142.26 154.63,-139.07"/>
</g>
<!-- Node10 -->
<g id="node10" class="node">
<title>Node10</title>
<g id="a_node10"><a xlink:href="_vector_8h.html" target="_top" xlink:title="API for operations on Vector data structures.">
<polygon fill="white" stroke="black" points="202,-112.5 202,-131.5 297,-131.5 297,-112.5 202,-112.5"/>
<text text-anchor="middle" x="249.5" y="-119.5" font-family="Helvetica,sans-Serif" font-size="10.00">ifxBase/Vector.h</text>
</a>
</g>
</g>
<!-- Node1&#45;&gt;Node10 -->
<g id="edge11" class="edge">
<title>Node1&#45;&gt;Node10</title>
<path fill="none" stroke="midnightblue" d="M205.62,-235.36C200.89,-215.49 197.92,-189.41 206.5,-168 211.18,-156.33 220.49,-145.97 229.26,-138.14"/>
<polygon fill="midnightblue" stroke="midnightblue" points="231.55,-140.78 237,-131.7 227.08,-135.4 231.55,-140.78"/>
</g>
<!-- Node11 -->
<g id="node11" class="node">
<title>Node11</title>
<g id="a_node11"><a xlink:href="ifx_doppler_l_t_r11_2_types_8h.html" target="_top" xlink:title="Header for Types.">
<polygon fill="white" stroke="black" points="215,-174 215,-193 274,-193 274,-174 215,-174"/>
<text text-anchor="middle" x="244.5" y="-181" font-family="Helvetica,sans-Serif" font-size="10.00">./Types.h</text>
</a>
</g>
</g>
<!-- Node1&#45;&gt;Node11 -->
<g id="edge13" class="edge">
<title>Node1&#45;&gt;Node11</title>
<path fill="none" stroke="midnightblue" d="M226.46,-235.19C230.33,-224.31 234.56,-212.44 237.95,-202.91"/>
<polygon fill="midnightblue" stroke="midnightblue" points="241.3,-203.94 241.35,-193.34 234.7,-201.59 241.3,-203.94"/>
</g>
<!-- Node12 -->
<g id="node12" class="node">
<title>Node12</title>
<g id="a_node12"><a xlink:href="_radar_device_common_8h.html" target="_top" xlink:title="Header for ifxRadarDeviceCommon.">
<polygon fill="white" stroke="black" points="292.5,-168.5 292.5,-198.5 428.5,-198.5 428.5,-168.5 292.5,-168.5"/>
<text text-anchor="start" x="300.5" y="-186.5" font-family="Helvetica,sans-Serif" font-size="10.00">ifxRadarDeviceCommon</text>
<text text-anchor="middle" x="360.5" y="-175.5" font-family="Helvetica,sans-Serif" font-size="10.00">/RadarDeviceCommon.h</text>
</a>
</g>
</g>
<!-- Node1&#45;&gt;Node12 -->
<g id="edge15" class="edge">
<title>Node1&#45;&gt;Node12</title>
<path fill="none" stroke="midnightblue" d="M269.91,-235.42C288.89,-224.75 309.64,-213.08 326.49,-203.62"/>
<polygon fill="midnightblue" stroke="midnightblue" points="328.41,-206.55 335.41,-198.6 324.98,-200.45 328.41,-206.55"/>
</g>
<!-- Node3 -->
<g id="node3" class="node">
<title>Node3</title>
<g id="a_node3"><a xlink:title=" ">
<polygon fill="white" stroke="#bfbfbf" points="188,-0.5 188,-19.5 241,-19.5 241,-0.5 188,-0.5"/>
<text text-anchor="middle" x="214.5" y="-7.5" font-family="Helvetica,sans-Serif" font-size="10.00">stdint.h</text>
</a>
</g>
</g>
<!-- Node2&#45;&gt;Node3 -->
<g id="edge2" class="edge">
<title>Node2&#45;&gt;Node3</title>
<path fill="none" stroke="midnightblue" d="M275.77,-56.32C264.66,-48.11 247.76,-35.6 234.52,-25.81"/>
<polygon fill="midnightblue" stroke="midnightblue" points="236.56,-22.97 226.44,-19.83 232.4,-28.59 236.56,-22.97"/>
</g>
<!-- Node4 -->
<g id="node4" class="node">
<title>Node4</title>
<g id="a_node4"><a xlink:title=" ">
<polygon fill="white" stroke="#bfbfbf" points="259.5,-0.5 259.5,-19.5 315.5,-19.5 315.5,-0.5 259.5,-0.5"/>
<text text-anchor="middle" x="287.5" y="-7.5" font-family="Helvetica,sans-Serif" font-size="10.00">stddef.h</text>
</a>
</g>
</g>
<!-- Node2&#45;&gt;Node4 -->
<g id="edge3" class="edge">
<title>Node2&#45;&gt;Node4</title>
<path fill="none" stroke="midnightblue" d="M287.5,-56.08C287.5,-49.01 287.5,-38.86 287.5,-29.99"/>
<polygon fill="midnightblue" stroke="midnightblue" points="291,-29.75 287.5,-19.75 284,-29.75 291,-29.75"/>
</g>
<!-- Node5 -->
<g id="node5" class="node">
<title>Node5</title>
<g id="a_node5"><a xlink:title=" ">
<polygon fill="white" stroke="#bfbfbf" points="333.5,-0.5 333.5,-19.5 395.5,-19.5 395.5,-0.5 333.5,-0.5"/>
<text text-anchor="middle" x="364.5" y="-7.5" font-family="Helvetica,sans-Serif" font-size="10.00">stdbool.h</text>
</a>
</g>
</g>
<!-- Node2&#45;&gt;Node5 -->
<g id="edge4" class="edge">
<title>Node2&#45;&gt;Node5</title>
<path fill="none" stroke="midnightblue" d="M299.87,-56.32C311.66,-48.06 329.63,-35.45 343.64,-25.63"/>
<polygon fill="midnightblue" stroke="midnightblue" points="345.98,-28.26 352.16,-19.65 341.96,-22.53 345.98,-28.26"/>
</g>
<!-- Node7 -->
<g id="node7" class="node">
<title>Node7</title>
<g id="a_node7"><a xlink:href="_log_8h.html" target="_top" xlink:title="API for logging.">
<polygon fill="white" stroke="black" points="0,-112.5 0,-131.5 83,-131.5 83,-112.5 0,-112.5"/>
<text text-anchor="middle" x="41.5" y="-119.5" font-family="Helvetica,sans-Serif" font-size="10.00">ifxBase/Log.h</text>
</a>
</g>
</g>
<!-- Node6&#45;&gt;Node7 -->
<g id="edge6" class="edge">
<title>Node6&#45;&gt;Node7</title>
<path fill="none" stroke="midnightblue" d="M56.06,-173.98C53.64,-165.49 49.84,-152.2 46.73,-141.32"/>
<polygon fill="midnightblue" stroke="midnightblue" points="50.04,-140.16 43.93,-131.51 43.31,-142.09 50.04,-140.16"/>
</g>
<!-- Node7&#45;&gt;Node2 -->
<g id="edge8" class="edge">
<title>Node7&#45;&gt;Node2</title>
<path fill="none" stroke="midnightblue" d="M80.48,-112.44C123.39,-103.02 192.45,-87.87 238.87,-77.68"/>
<polygon fill="midnightblue" stroke="midnightblue" points="239.69,-81.08 248.7,-75.52 238.19,-74.24 239.69,-81.08"/>
</g>
<!-- Node8 -->
<g id="node8" class="node">
<title>Node8</title>
<g id="a_node8"><a xlink:title=" ">
<polygon fill="white" stroke="#bfbfbf" points="16.5,-56.5 16.5,-75.5 66.5,-75.5 66.5,-56.5 16.5,-56.5"/>
<text text-anchor="middle" x="41.5" y="-63.5" font-family="Helvetica,sans-Serif" font-size="10.00">stdio.h</text>
</a>
</g>
</g>
<!-- Node7&#45;&gt;Node8 -->
<g id="edge7" class="edge">
<title>Node7&#45;&gt;Node8</title>
<path fill="none" stroke="midnightblue" d="M41.5,-112.08C41.5,-105.01 41.5,-94.86 41.5,-85.99"/>
<polygon fill="midnightblue" stroke="midnightblue" points="45,-85.75 41.5,-75.75 38,-85.75 45,-85.75"/>
</g>
<!-- Node9&#45;&gt;Node2 -->
<g id="edge10" class="edge">
<title>Node9&#45;&gt;Node2</title>
<path fill="none" stroke="midnightblue" d="M165.48,-112.44C189.66,-103.44 227.92,-89.19 255.15,-79.05"/>
<polygon fill="midnightblue" stroke="midnightblue" points="256.48,-82.29 264.63,-75.52 254.04,-75.73 256.48,-82.29"/>
</g>
<!-- Node10&#45;&gt;Node2 -->
<g id="edge12" class="edge">
<title>Node10&#45;&gt;Node2</title>
<path fill="none" stroke="midnightblue" d="M255.77,-112.08C261.14,-104.46 269.02,-93.26 275.58,-83.94"/>
<polygon fill="midnightblue" stroke="midnightblue" points="278.45,-85.94 281.34,-75.75 272.72,-81.91 278.45,-85.94"/>
</g>
<!-- Node11&#45;&gt;Node2 -->
<g id="edge14" class="edge">
<title>Node11&#45;&gt;Node2</title>
<path fill="none" stroke="midnightblue" d="M262.11,-173.87C277.02,-165.48 297.38,-151.18 306.5,-132 313.81,-116.62 306.77,-97.84 299.27,-84.42"/>
<polygon fill="midnightblue" stroke="midnightblue" points="302.15,-82.42 293.93,-75.73 296.18,-86.08 302.15,-82.42"/>
</g>
<!-- Node12&#45;&gt;Node2 -->
<g id="edge16" class="edge">
<title>Node12&#45;&gt;Node2</title>
<path fill="none" stroke="midnightblue" d="M353.44,-168.38C346.03,-153.9 333.77,-130.88 321.5,-112 315.17,-102.25 307.39,-91.86 300.88,-83.53"/>
<polygon fill="midnightblue" stroke="midnightblue" points="303.62,-81.35 294.66,-75.7 298.14,-85.7 303.62,-81.35"/>
</g>
</g>
</svg>
