<?xml version="1.0" encoding="UTF-8" standalone="no"?>
<!DOCTYPE svg PUBLIC "-//W3C//DTD SVG 1.1//EN"
 "http://www.w3.org/Graphics/SVG/1.1/DTD/svg11.dtd">
<!-- Generated by graphviz version 2.43.0 (0)
 -->
<!-- Title: /home/jenkins/jenkins&#45;ci/workspace/er_release_release&#45;branch&#45;v3.3.1@2/sdk/c/ifxAvian/DeviceControl.h Pages: 1 -->
<svg width="610pt" height="408pt"
 viewBox="0.00 0.00 610.00 408.00" xmlns="http://www.w3.org/2000/svg" xmlns:xlink="http://www.w3.org/1999/xlink">
<g id="graph0" class="graph" transform="scale(1 1) rotate(0) translate(4 404)">
<title>/home/jenkins/jenkins&#45;ci/workspace/er_release_release&#45;branch&#45;v3.3.1@2/sdk/c/ifxAvian/DeviceControl.h</title>
<polygon fill="white" stroke="transparent" points="-4,4 -4,-404 606,-404 606,4 -4,4"/>
<!-- Node1 -->
<g id="node1" class="node">
<title>Node1</title>
<g id="a_node1"><a xlink:title="API for Radar device control operations.">
<polygon fill="#bfbfbf" stroke="black" points="214.5,-347.5 214.5,-399.5 383.5,-399.5 383.5,-347.5 214.5,-347.5"/>
<text text-anchor="start" x="222.5" y="-387.5" font-family="Helvetica,sans-Serif" font-size="10.00">/home/jenkins/jenkins</text>
<text text-anchor="start" x="222.5" y="-376.5" font-family="Helvetica,sans-Serif" font-size="10.00">&#45;ci/workspace/er_release</text>
<text text-anchor="start" x="222.5" y="-365.5" font-family="Helvetica,sans-Serif" font-size="10.00">_release&#45;branch&#45;v3.3.1@2</text>
<text text-anchor="middle" x="299" y="-354.5" font-family="Helvetica,sans-Serif" font-size="10.00">/sdk/c/ifxAvian/DeviceControl.h</text>
</a>
</g>
</g>
<!-- Node2 -->
<g id="node2" class="node">
<title>Node2</title>
<g id="a_node2"><a xlink:href="ifx_base_2_types_8h.html" target="_top" xlink:title="Definitions of data types used within the SDK.">
<polygon fill="white" stroke="black" points="263.5,-56.5 263.5,-75.5 356.5,-75.5 356.5,-56.5 263.5,-56.5"/>
<text text-anchor="middle" x="310" y="-63.5" font-family="Helvetica,sans-Serif" font-size="10.00">ifxBase/Types.h</text>
</a>
</g>
</g>
<!-- Node1&#45;&gt;Node2 -->
<g id="edge1" class="edge">
<title>Node1&#45;&gt;Node2</title>
<path fill="none" stroke="midnightblue" d="M214.12,-371.28C125.72,-364.98 0,-339.56 0,-246 0,-246 0,-246 0,-182.5 0,-129.06 163.79,-92.29 253.25,-76.18"/>
<polygon fill="midnightblue" stroke="midnightblue" points="254.02,-79.6 263.25,-74.41 252.8,-72.71 254.02,-79.6"/>
</g>
<!-- Node6 -->
<g id="node6" class="node">
<title>Node6</title>
<g id="a_node6"><a xlink:href="_error_8h.html" target="_top" xlink:title="API for error handling.">
<polygon fill="white" stroke="black" points="48,-291.5 48,-310.5 136,-310.5 136,-291.5 48,-291.5"/>
<text text-anchor="middle" x="92" y="-298.5" font-family="Helvetica,sans-Serif" font-size="10.00">ifxBase/Error.h</text>
</a>
</g>
</g>
<!-- Node1&#45;&gt;Node6 -->
<g id="edge5" class="edge">
<title>Node1&#45;&gt;Node6</title>
<path fill="none" stroke="midnightblue" d="M225.44,-347.45C191.84,-336.01 153.65,-323 126.76,-313.84"/>
<polygon fill="midnightblue" stroke="midnightblue" points="127.63,-310.44 117.04,-310.53 125.37,-317.06 127.63,-310.44"/>
</g>
<!-- Node9 -->
<g id="node9" class="node">
<title>Node9</title>
<g id="a_node9"><a xlink:href="_list_8h.html" target="_top" xlink:title=" ">
<polygon fill="white" stroke="black" points="288.5,-235.5 288.5,-254.5 371.5,-254.5 371.5,-235.5 288.5,-235.5"/>
<text text-anchor="middle" x="330" y="-242.5" font-family="Helvetica,sans-Serif" font-size="10.00">ifxBase/List.h</text>
</a>
</g>
</g>
<!-- Node1&#45;&gt;Node9 -->
<g id="edge9" class="edge">
<title>Node1&#45;&gt;Node9</title>
<path fill="none" stroke="midnightblue" d="M305.2,-347.2C311.19,-322.77 320.12,-286.34 325.47,-264.5"/>
<polygon fill="midnightblue" stroke="midnightblue" points="328.92,-265.1 327.9,-254.55 322.13,-263.43 328.92,-265.1"/>
</g>
<!-- Node10 -->
<g id="node10" class="node">
<title>Node10</title>
<g id="a_node10"><a xlink:href="_cube_8h.html" target="_top" xlink:title="API for operations on Cube data structures.">
<polygon fill="white" stroke="black" points="174,-291.5 174,-310.5 264,-310.5 264,-291.5 174,-291.5"/>
<text text-anchor="middle" x="219" y="-298.5" font-family="Helvetica,sans-Serif" font-size="10.00">ifxBase/Cube.h</text>
</a>
</g>
</g>
<!-- Node1&#45;&gt;Node10 -->
<g id="edge11" class="edge">
<title>Node1&#45;&gt;Node10</title>
<path fill="none" stroke="midnightblue" d="M270.57,-347.45C259.2,-337.43 246.47,-326.21 236.5,-317.42"/>
<polygon fill="midnightblue" stroke="midnightblue" points="238.68,-314.68 228.87,-310.7 234.06,-319.93 238.68,-314.68"/>
</g>
<!-- Node15 -->
<g id="node15" class="node">
<title>Node15</title>
<g id="a_node15"><a xlink:href="_device_config_8h.html" target="_top" xlink:title="API for Radar device configuration.">
<polygon fill="white" stroke="black" points="428.5,-235.5 428.5,-254.5 561.5,-254.5 561.5,-235.5 428.5,-235.5"/>
<text text-anchor="middle" x="495" y="-242.5" font-family="Helvetica,sans-Serif" font-size="10.00">ifxAvian/DeviceConfig.h</text>
</a>
</g>
</g>
<!-- Node1&#45;&gt;Node15 -->
<g id="edge20" class="edge">
<title>Node1&#45;&gt;Node15</title>
<path fill="none" stroke="midnightblue" d="M383.79,-360.13C416.5,-351.38 451.79,-336.46 476,-311 487.76,-298.63 492.3,-279.39 494.01,-265.04"/>
<polygon fill="midnightblue" stroke="midnightblue" points="497.52,-265.07 494.87,-254.81 490.55,-264.48 497.52,-265.07"/>
</g>
<!-- Node16 -->
<g id="node16" class="node">
<title>Node16</title>
<g id="a_node16"><a xlink:href="_radar_device_common_8h.html" target="_top" xlink:title="Header for ifxRadarDeviceCommon.">
<polygon fill="white" stroke="black" points="466,-168.5 466,-198.5 602,-198.5 602,-168.5 466,-168.5"/>
<text text-anchor="start" x="474" y="-186.5" font-family="Helvetica,sans-Serif" font-size="10.00">ifxRadarDeviceCommon</text>
<text text-anchor="middle" x="534" y="-175.5" font-family="Helvetica,sans-Serif" font-size="10.00">/RadarDeviceCommon.h</text>
</a>
</g>
</g>
<!-- Node1&#45;&gt;Node16 -->
<g id="edge28" class="edge">
<title>Node1&#45;&gt;Node16</title>
<path fill="none" stroke="midnightblue" d="M383.72,-363.93C449.96,-351.99 536.43,-323.41 571,-255 579.29,-238.6 568.99,-220.23 557.18,-206.35"/>
<polygon fill="midnightblue" stroke="midnightblue" points="559.53,-203.73 550.18,-198.75 554.38,-208.47 559.53,-203.73"/>
</g>
<!-- Node17 -->
<g id="node17" class="node">
<title>Node17</title>
<g id="a_node17"><a xlink:href="_recording_8h.html" target="_top" xlink:title="This file defines functions to handle Recordings.">
<polygon fill="white" stroke="black" points="327.5,-291.5 327.5,-310.5 466.5,-310.5 466.5,-291.5 327.5,-291.5"/>
<text text-anchor="middle" x="397" y="-298.5" font-family="Helvetica,sans-Serif" font-size="10.00">ifxRecording/Recording.h</text>
</a>
</g>
</g>
<!-- Node1&#45;&gt;Node17 -->
<g id="edge24" class="edge">
<title>Node1&#45;&gt;Node17</title>
<path fill="none" stroke="midnightblue" d="M333.83,-347.45C348.17,-337.13 364.29,-325.53 376.65,-316.64"/>
<polygon fill="midnightblue" stroke="midnightblue" points="378.84,-319.38 384.91,-310.7 374.75,-313.69 378.84,-319.38"/>
</g>
<!-- Node3 -->
<g id="node3" class="node">
<title>Node3</title>
<g id="a_node3"><a xlink:title=" ">
<polygon fill="white" stroke="#bfbfbf" points="210.5,-0.5 210.5,-19.5 263.5,-19.5 263.5,-0.5 210.5,-0.5"/>
<text text-anchor="middle" x="237" y="-7.5" font-family="Helvetica,sans-Serif" font-size="10.00">stdint.h</text>
</a>
</g>
</g>
<!-- Node2&#45;&gt;Node3 -->
<g id="edge2" class="edge">
<title>Node2&#45;&gt;Node3</title>
<path fill="none" stroke="midnightblue" d="M298.27,-56.32C287.16,-48.11 270.26,-35.6 257.02,-25.81"/>
<polygon fill="midnightblue" stroke="midnightblue" points="259.06,-22.97 248.94,-19.83 254.9,-28.59 259.06,-22.97"/>
</g>
<!-- Node4 -->
<g id="node4" class="node">
<title>Node4</title>
<g id="a_node4"><a xlink:title=" ">
<polygon fill="white" stroke="#bfbfbf" points="282,-0.5 282,-19.5 338,-19.5 338,-0.5 282,-0.5"/>
<text text-anchor="middle" x="310" y="-7.5" font-family="Helvetica,sans-Serif" font-size="10.00">stddef.h</text>
</a>
</g>
</g>
<!-- Node2&#45;&gt;Node4 -->
<g id="edge3" class="edge">
<title>Node2&#45;&gt;Node4</title>
<path fill="none" stroke="midnightblue" d="M310,-56.08C310,-49.01 310,-38.86 310,-29.99"/>
<polygon fill="midnightblue" stroke="midnightblue" points="313.5,-29.75 310,-19.75 306.5,-29.75 313.5,-29.75"/>
</g>
<!-- Node5 -->
<g id="node5" class="node">
<title>Node5</title>
<g id="a_node5"><a xlink:title=" ">
<polygon fill="white" stroke="#bfbfbf" points="356,-0.5 356,-19.5 418,-19.5 418,-0.5 356,-0.5"/>
<text text-anchor="middle" x="387" y="-7.5" font-family="Helvetica,sans-Serif" font-size="10.00">stdbool.h</text>
</a>
</g>
</g>
<!-- Node2&#45;&gt;Node5 -->
<g id="edge4" class="edge">
<title>Node2&#45;&gt;Node5</title>
<path fill="none" stroke="midnightblue" d="M322.37,-56.32C334.16,-48.06 352.13,-35.45 366.14,-25.63"/>
<polygon fill="midnightblue" stroke="midnightblue" points="368.48,-28.26 374.66,-19.65 364.46,-22.53 368.48,-28.26"/>
</g>
<!-- Node7 -->
<g id="node7" class="node">
<title>Node7</title>
<g id="a_node7"><a xlink:href="_log_8h.html" target="_top" xlink:title="API for logging.">
<polygon fill="white" stroke="black" points="28.5,-235.5 28.5,-254.5 111.5,-254.5 111.5,-235.5 28.5,-235.5"/>
<text text-anchor="middle" x="70" y="-242.5" font-family="Helvetica,sans-Serif" font-size="10.00">ifxBase/Log.h</text>
</a>
</g>
</g>
<!-- Node6&#45;&gt;Node7 -->
<g id="edge6" class="edge">
<title>Node6&#45;&gt;Node7</title>
<path fill="none" stroke="midnightblue" d="M88.37,-291.08C85.39,-283.77 81.07,-273.18 77.38,-264.1"/>
<polygon fill="midnightblue" stroke="midnightblue" points="80.58,-262.69 73.57,-254.75 74.1,-265.33 80.58,-262.69"/>
</g>
<!-- Node7&#45;&gt;Node2 -->
<g id="edge8" class="edge">
<title>Node7&#45;&gt;Node2</title>
<path fill="none" stroke="midnightblue" d="M73.88,-235.45C84.92,-212.05 118.89,-146.42 167,-112 192.36,-93.86 225.29,-82.84 253.17,-76.26"/>
<polygon fill="midnightblue" stroke="midnightblue" points="254.18,-79.62 263.18,-74.02 252.66,-72.78 254.18,-79.62"/>
</g>
<!-- Node8 -->
<g id="node8" class="node">
<title>Node8</title>
<g id="a_node8"><a xlink:title=" ">
<polygon fill="white" stroke="#bfbfbf" points="28,-174 28,-193 78,-193 78,-174 28,-174"/>
<text text-anchor="middle" x="53" y="-181" font-family="Helvetica,sans-Serif" font-size="10.00">stdio.h</text>
</a>
</g>
</g>
<!-- Node7&#45;&gt;Node8 -->
<g id="edge7" class="edge">
<title>Node7&#45;&gt;Node8</title>
<path fill="none" stroke="midnightblue" d="M67.56,-235.48C65.14,-226.99 61.34,-213.7 58.23,-202.82"/>
<polygon fill="midnightblue" stroke="midnightblue" points="61.54,-201.66 55.43,-193.01 54.81,-203.59 61.54,-201.66"/>
</g>
<!-- Node9&#45;&gt;Node2 -->
<g id="edge10" class="edge">
<title>Node9&#45;&gt;Node2</title>
<path fill="none" stroke="midnightblue" d="M329.04,-235.46C325.98,-208.43 316.47,-124.24 312.16,-86.11"/>
<polygon fill="midnightblue" stroke="midnightblue" points="315.6,-85.41 311,-75.87 308.65,-86.2 315.6,-85.41"/>
</g>
<!-- Node11 -->
<g id="node11" class="node">
<title>Node11</title>
<g id="a_node11"><a xlink:href="_defines_8h.html" target="_top" xlink:title="Internal definitions used by standard math.h functions as Macros, to use float or double precision.">
<polygon fill="white" stroke="black" points="168,-235.5 168,-254.5 270,-254.5 270,-235.5 168,-235.5"/>
<text text-anchor="middle" x="219" y="-242.5" font-family="Helvetica,sans-Serif" font-size="10.00">ifxBase/Defines.h</text>
</a>
</g>
</g>
<!-- Node10&#45;&gt;Node11 -->
<g id="edge12" class="edge">
<title>Node10&#45;&gt;Node11</title>
<path fill="none" stroke="midnightblue" d="M219,-291.08C219,-284.01 219,-273.86 219,-264.99"/>
<polygon fill="midnightblue" stroke="midnightblue" points="222.5,-264.75 219,-254.75 215.5,-264.75 222.5,-264.75"/>
</g>
<!-- Node14 -->
<g id="node14" class="node">
<title>Node14</title>
<g id="a_node14"><a xlink:href="_matrix_8h.html" target="_top" xlink:title="API for operations on Matrix data structures.">
<polygon fill="white" stroke="black" points="134.5,-174 134.5,-193 231.5,-193 231.5,-174 134.5,-174"/>
<text text-anchor="middle" x="183" y="-181" font-family="Helvetica,sans-Serif" font-size="10.00">ifxBase/Matrix.h</text>
</a>
</g>
</g>
<!-- Node10&#45;&gt;Node14 -->
<g id="edge17" class="edge">
<title>Node10&#45;&gt;Node14</title>
<path fill="none" stroke="midnightblue" d="M199.7,-291.48C185.57,-284.08 167.44,-271.89 159,-255 150.27,-237.55 160.18,-216.17 169.78,-201.56"/>
<polygon fill="midnightblue" stroke="midnightblue" points="172.89,-203.22 175.85,-193.04 167.19,-199.16 172.89,-203.22"/>
</g>
<!-- Node12 -->
<g id="node12" class="node">
<title>Node12</title>
<g id="a_node12"><a xlink:href="_math_8h.html" target="_top" xlink:title="API for Mathematical operations.">
<polygon fill="white" stroke="black" points="249.5,-174 249.5,-193 300.5,-193 300.5,-174 249.5,-174"/>
<text text-anchor="middle" x="275" y="-181" font-family="Helvetica,sans-Serif" font-size="10.00">math.h</text>
</a>
</g>
</g>
<!-- Node11&#45;&gt;Node12 -->
<g id="edge13" class="edge">
<title>Node11&#45;&gt;Node12</title>
<path fill="none" stroke="midnightblue" d="M227.02,-235.48C235.59,-226.37 249.36,-211.74 259.96,-200.48"/>
<polygon fill="midnightblue" stroke="midnightblue" points="262.69,-202.69 266.99,-193.01 257.59,-197.89 262.69,-202.69"/>
</g>
<!-- Node12&#45;&gt;Node2 -->
<g id="edge14" class="edge">
<title>Node12&#45;&gt;Node2</title>
<path fill="none" stroke="midnightblue" d="M277.78,-173.94C281.01,-163.91 286.5,-146.78 291,-132 295.76,-116.36 300.96,-98.53 304.71,-85.51"/>
<polygon fill="midnightblue" stroke="midnightblue" points="308.09,-86.43 307.48,-75.85 301.36,-84.5 308.09,-86.43"/>
</g>
<!-- Node13 -->
<g id="node13" class="node">
<title>Node13</title>
<g id="a_node13"><a xlink:href="_vector_8h.html" target="_top" xlink:title="API for operations on Vector data structures.">
<polygon fill="white" stroke="black" points="186.5,-112.5 186.5,-131.5 281.5,-131.5 281.5,-112.5 186.5,-112.5"/>
<text text-anchor="middle" x="234" y="-119.5" font-family="Helvetica,sans-Serif" font-size="10.00">ifxBase/Vector.h</text>
</a>
</g>
</g>
<!-- Node12&#45;&gt;Node13 -->
<g id="edge15" class="edge">
<title>Node12&#45;&gt;Node13</title>
<path fill="none" stroke="midnightblue" d="M269.13,-173.98C263.04,-165.14 253.36,-151.09 245.7,-139.98"/>
<polygon fill="midnightblue" stroke="midnightblue" points="248.42,-137.76 239.86,-131.51 242.66,-141.73 248.42,-137.76"/>
</g>
<!-- Node13&#45;&gt;Node2 -->
<g id="edge16" class="edge">
<title>Node13&#45;&gt;Node2</title>
<path fill="none" stroke="midnightblue" d="M246.21,-112.32C257.78,-104.11 275.38,-91.6 289.16,-81.81"/>
<polygon fill="midnightblue" stroke="midnightblue" points="291.44,-84.48 297.57,-75.83 287.39,-78.77 291.44,-84.48"/>
</g>
<!-- Node14&#45;&gt;Node2 -->
<g id="edge18" class="edge">
<title>Node14&#45;&gt;Node2</title>
<path fill="none" stroke="midnightblue" d="M179.1,-173.73C173.38,-159.37 164.72,-130.56 178,-112 195.19,-87.98 225.98,-76.63 253.5,-71.33"/>
<polygon fill="midnightblue" stroke="midnightblue" points="254.19,-74.77 263.46,-69.64 253.02,-67.87 254.19,-74.77"/>
</g>
<!-- Node14&#45;&gt;Node13 -->
<g id="edge19" class="edge">
<title>Node14&#45;&gt;Node13</title>
<path fill="none" stroke="midnightblue" d="M190.31,-173.98C198.03,-164.96 210.41,-150.52 220.02,-139.31"/>
<polygon fill="midnightblue" stroke="midnightblue" points="222.86,-141.38 226.71,-131.51 217.54,-136.82 222.86,-141.38"/>
</g>
<!-- Node15&#45;&gt;Node2 -->
<g id="edge21" class="edge">
<title>Node15&#45;&gt;Node2</title>
<path fill="none" stroke="midnightblue" d="M486.45,-235.21C478.26,-226.49 465.86,-212.51 457,-199 433.36,-162.93 445.26,-141.72 414,-112 397.58,-96.39 374.89,-85.72 354.89,-78.7"/>
<polygon fill="midnightblue" stroke="midnightblue" points="355.92,-75.36 345.33,-75.54 353.73,-82 355.92,-75.36"/>
</g>
<!-- Node15&#45;&gt;Node16 -->
<g id="edge22" class="edge">
<title>Node15&#45;&gt;Node16</title>
<path fill="none" stroke="midnightblue" d="M500.59,-235.48C505.43,-228.09 512.65,-217.08 519.14,-207.17"/>
<polygon fill="midnightblue" stroke="midnightblue" points="522.25,-208.81 524.81,-198.52 516.4,-204.97 522.25,-208.81"/>
</g>
<!-- Node16&#45;&gt;Node2 -->
<g id="edge23" class="edge">
<title>Node16&#45;&gt;Node2</title>
<path fill="none" stroke="midnightblue" d="M521.09,-168.4C505.94,-152.62 479.39,-127.27 452,-112 423.94,-96.36 389.66,-85.3 361.82,-78.06"/>
<polygon fill="midnightblue" stroke="midnightblue" points="362.43,-74.6 351.88,-75.56 360.73,-81.39 362.43,-74.6"/>
</g>
<!-- Node17&#45;&gt;Node2 -->
<g id="edge25" class="edge">
<title>Node17&#45;&gt;Node2</title>
<path fill="none" stroke="midnightblue" d="M395.33,-291.47C392.78,-278.94 387.52,-254.88 381,-235 362.54,-178.77 353.35,-166.38 330,-112 326.16,-103.05 321.77,-93.16 318.09,-84.93"/>
<polygon fill="midnightblue" stroke="midnightblue" points="321.19,-83.28 313.9,-75.6 314.81,-86.15 321.19,-83.28"/>
</g>
<!-- Node17&#45;&gt;Node9 -->
<g id="edge27" class="edge">
<title>Node17&#45;&gt;Node9</title>
<path fill="none" stroke="midnightblue" d="M386.24,-291.32C376.23,-283.26 361.11,-271.08 349.07,-261.37"/>
<polygon fill="midnightblue" stroke="midnightblue" points="350.94,-258.38 340.96,-254.83 346.55,-263.83 350.94,-258.38"/>
</g>
<!-- Node17&#45;&gt;Node15 -->
<g id="edge26" class="edge">
<title>Node17&#45;&gt;Node15</title>
<path fill="none" stroke="midnightblue" d="M412.75,-291.32C428.32,-282.74 452.38,-269.49 470.46,-259.52"/>
<polygon fill="midnightblue" stroke="midnightblue" points="472.22,-262.55 479.29,-254.65 468.85,-256.42 472.22,-262.55"/>
</g>
</g>
</svg>
