<?xml version="1.0" encoding="UTF-8" standalone="no"?>
<!DOCTYPE svg PUBLIC "-//W3C//DTD SVG 1.1//EN"
 "http://www.w3.org/Graphics/SVG/1.1/DTD/svg11.dtd">
<!-- Generated by graphviz version 2.43.0 (0)
 -->
<!-- Title: /home/jenkins/jenkins&#45;ci/workspace/er_release_release&#45;branch&#45;v3.3.1@2/sdk/c/ifxAvian/DeviceConfig.h Pages: 1 -->
<svg width="853pt" height="439pt"
 viewBox="0.00 0.00 852.85 439.00" xmlns="http://www.w3.org/2000/svg" xmlns:xlink="http://www.w3.org/1999/xlink">
<g id="graph0" class="graph" transform="scale(1 1) rotate(0) translate(4 435)">
<title>/home/jenkins/jenkins&#45;ci/workspace/er_release_release&#45;branch&#45;v3.3.1@2/sdk/c/ifxAvian/DeviceConfig.h</title>
<polygon fill="white" stroke="transparent" points="-4,4 -4,-435 848.85,-435 848.85,4 -4,4"/>
<!-- Node1 -->
<g id="node1" class="node">
<title>Node1</title>
<g id="a_node1"><a xlink:title="API for Radar device configuration.">
<polygon fill="#bfbfbf" stroke="black" points="249.85,-378.5 249.85,-430.5 413.85,-430.5 413.85,-378.5 249.85,-378.5"/>
<text text-anchor="start" x="257.85" y="-418.5" font-family="Helvetica,sans-Serif" font-size="10.00">/home/jenkins/jenkins</text>
<text text-anchor="start" x="257.85" y="-407.5" font-family="Helvetica,sans-Serif" font-size="10.00">&#45;ci/workspace/er_release</text>
<text text-anchor="start" x="257.85" y="-396.5" font-family="Helvetica,sans-Serif" font-size="10.00">_release&#45;branch&#45;v3.3.1@2</text>
<text text-anchor="middle" x="331.85" y="-385.5" font-family="Helvetica,sans-Serif" font-size="10.00">/sdk/c/ifxAvian/DeviceConfig.h</text>
</a>
</g>
</g>
<!-- Node2 -->
<g id="node2" class="node">
<title>Node2</title>
<g id="a_node2"><a xlink:href="_avian_8h.html" target="_top" xlink:title="Header for ifxAvian.">
<polygon fill="white" stroke="black" points="180.35,-0.5 180.35,-52.5 323.35,-52.5 323.35,-0.5 180.35,-0.5"/>
<text text-anchor="start" x="188.35" y="-40.5" font-family="Helvetica,sans-Serif" font-size="10.00">/home/jenkins/jenkins</text>
<text text-anchor="start" x="188.35" y="-29.5" font-family="Helvetica,sans-Serif" font-size="10.00">&#45;ci/workspace/er_release</text>
<text text-anchor="start" x="188.35" y="-18.5" font-family="Helvetica,sans-Serif" font-size="10.00">_release&#45;branch&#45;v3.3.1@2</text>
<text text-anchor="middle" x="251.85" y="-7.5" font-family="Helvetica,sans-Serif" font-size="10.00">/sdk/c/ifxAvian/Avian.h</text>
</a>
</g>
</g>
<!-- Node1&#45;&gt;Node2 -->
<g id="edge1" class="edge">
<title>Node1&#45;&gt;Node2</title>
<path fill="none" stroke="midnightblue" d="M240.19,-375.79C218.33,-366.9 195.85,-355.71 176.85,-342 82.7,-274.08 48.58,-251.08 8.85,-142 0.79,-119.87 -5.62,-107.59 8.85,-89 29.83,-62.04 116.48,-45.02 180.35,-35.88"/>
<polygon fill="midnightblue" stroke="midnightblue" points="238.92,-379.05 249.51,-379.46 241.49,-372.54 238.92,-379.05"/>
</g>
<!-- Node3 -->
<g id="node3" class="node">
<title>Node3</title>
<g id="a_node3"><a xlink:href="_constant_wave_control_8h.html" target="_top" xlink:title="Header for Constant Wave Control. It provides APIs to use an Avian device in constant wave mode....">
<polygon fill="white" stroke="black" points="17.85,-89.5 17.85,-141.5 223.85,-141.5 223.85,-89.5 17.85,-89.5"/>
<text text-anchor="start" x="25.85" y="-129.5" font-family="Helvetica,sans-Serif" font-size="10.00">/home/jenkins/jenkins</text>
<text text-anchor="start" x="25.85" y="-118.5" font-family="Helvetica,sans-Serif" font-size="10.00">&#45;ci/workspace/er_release</text>
<text text-anchor="start" x="25.85" y="-107.5" font-family="Helvetica,sans-Serif" font-size="10.00">_release&#45;branch&#45;v3.3.1@2</text>
<text text-anchor="middle" x="120.85" y="-96.5" font-family="Helvetica,sans-Serif" font-size="10.00">/sdk/c/ifxAvian/ConstantWaveControl.h</text>
</a>
</g>
</g>
<!-- Node1&#45;&gt;Node3 -->
<g id="edge2" class="edge">
<title>Node1&#45;&gt;Node3</title>
<path fill="none" stroke="midnightblue" d="M264.63,-373.35C250.26,-364.71 236.04,-354.24 224.85,-342 169.58,-281.54 139.06,-186.61 127,-141.68"/>
<polygon fill="midnightblue" stroke="midnightblue" points="263.17,-376.54 273.58,-378.49 266.66,-370.47 263.17,-376.54"/>
</g>
<!-- Node4 -->
<g id="node4" class="node">
<title>Node4</title>
<g id="a_node4"><a xlink:href="_device_control_8h.html" target="_top" xlink:title="API for Radar device control operations.">
<polygon fill="white" stroke="black" points="247.35,-184 247.35,-236 416.35,-236 416.35,-184 247.35,-184"/>
<text text-anchor="start" x="255.35" y="-224" font-family="Helvetica,sans-Serif" font-size="10.00">/home/jenkins/jenkins</text>
<text text-anchor="start" x="255.35" y="-213" font-family="Helvetica,sans-Serif" font-size="10.00">&#45;ci/workspace/er_release</text>
<text text-anchor="start" x="255.35" y="-202" font-family="Helvetica,sans-Serif" font-size="10.00">_release&#45;branch&#45;v3.3.1@2</text>
<text text-anchor="middle" x="331.85" y="-191" font-family="Helvetica,sans-Serif" font-size="10.00">/sdk/c/ifxAvian/DeviceControl.h</text>
</a>
</g>
</g>
<!-- Node1&#45;&gt;Node4 -->
<g id="edge4" class="edge">
<title>Node1&#45;&gt;Node4</title>
<path fill="none" stroke="midnightblue" d="M265.76,-372.58C254.55,-364.28 244.42,-354.15 237.85,-342 224.32,-316.98 224.82,-303.29 237.85,-278 246.85,-260.54 262.73,-246.63 278.91,-236.11"/>
<polygon fill="midnightblue" stroke="midnightblue" points="263.86,-375.52 274.08,-378.31 267.83,-369.76 263.86,-375.52"/>
</g>
<!-- Node7 -->
<g id="node7" class="node">
<title>Node7</title>
<g id="a_node7"><a xlink:href="_presence_sensing_8h.html" target="_top" xlink:title="API for Presence Sensing algorithm.">
<polygon fill="white" stroke="black" points="602.85,-89.5 602.85,-141.5 786.85,-141.5 786.85,-89.5 602.85,-89.5"/>
<text text-anchor="start" x="610.85" y="-129.5" font-family="Helvetica,sans-Serif" font-size="10.00">/home/jenkins/jenkins</text>
<text text-anchor="start" x="610.85" y="-118.5" font-family="Helvetica,sans-Serif" font-size="10.00">&#45;ci/workspace/er_release</text>
<text text-anchor="start" x="610.85" y="-107.5" font-family="Helvetica,sans-Serif" font-size="10.00">_release&#45;branch&#45;v3.3.1@2</text>
<text text-anchor="middle" x="694.85" y="-96.5" font-family="Helvetica,sans-Serif" font-size="10.00">/sdk/c/ifxRadar/PresenceSensing.h</text>
</a>
</g>
</g>
<!-- Node1&#45;&gt;Node7 -->
<g id="edge14" class="edge">
<title>Node1&#45;&gt;Node7</title>
<path fill="none" stroke="midnightblue" d="M388.16,-372.64C401.43,-363.81 414.9,-353.44 425.85,-342 448.73,-318.1 441.34,-302.24 463.85,-278 518.28,-219.36 597.41,-169.75 647.49,-141.55"/>
<polygon fill="midnightblue" stroke="midnightblue" points="386,-369.86 379.48,-378.21 389.79,-375.75 386,-369.86"/>
</g>
<!-- Node9 -->
<g id="node9" class="node">
<title>Node9</title>
<g id="a_node9"><a xlink:href="_motion_angle_8h.html" target="_top" xlink:title=" ">
<polygon fill="white" stroke="black" points="472.85,-284 472.85,-336 668.85,-336 668.85,-284 472.85,-284"/>
<text text-anchor="start" x="480.85" y="-324" font-family="Helvetica,sans-Serif" font-size="10.00">/home/jenkins/jenkins</text>
<text text-anchor="start" x="480.85" y="-313" font-family="Helvetica,sans-Serif" font-size="10.00">&#45;ci/workspace/er_release</text>
<text text-anchor="start" x="480.85" y="-302" font-family="Helvetica,sans-Serif" font-size="10.00">_release&#45;branch&#45;v3.3.1@2</text>
<text text-anchor="middle" x="570.85" y="-291" font-family="Helvetica,sans-Serif" font-size="10.00">/sdk/c/ifxMotionAngle/MotionAngle.h</text>
</a>
</g>
</g>
<!-- Node1&#45;&gt;Node9 -->
<g id="edge13" class="edge">
<title>Node1&#45;&gt;Node9</title>
<path fill="none" stroke="midnightblue" d="M405.87,-374.85C437.94,-362.44 475.16,-348.03 506.12,-336.05"/>
<polygon fill="midnightblue" stroke="midnightblue" points="404.59,-371.59 396.53,-378.47 407.12,-378.12 404.59,-371.59"/>
</g>
<!-- Node10 -->
<g id="node10" class="node">
<title>Node10</title>
<g id="a_node10"><a xlink:href="_segmentation_8h.html" target="_top" xlink:title="API for Segmentation and Seamless Tracking algorithm.">
<polygon fill="white" stroke="black" points="686.85,-278.5 686.85,-341.5 844.85,-341.5 844.85,-278.5 686.85,-278.5"/>
<text text-anchor="start" x="694.85" y="-329.5" font-family="Helvetica,sans-Serif" font-size="10.00">/home/jenkins/jenkins</text>
<text text-anchor="start" x="694.85" y="-318.5" font-family="Helvetica,sans-Serif" font-size="10.00">&#45;ci/workspace/er_release</text>
<text text-anchor="start" x="694.85" y="-307.5" font-family="Helvetica,sans-Serif" font-size="10.00">_release&#45;branch&#45;v3.3.1@2</text>
<text text-anchor="start" x="694.85" y="-296.5" font-family="Helvetica,sans-Serif" font-size="10.00">/sdk/c/ifxRadarSegmentation</text>
<text text-anchor="middle" x="765.85" y="-285.5" font-family="Helvetica,sans-Serif" font-size="10.00">/Segmentation.h</text>
</a>
</g>
</g>
<!-- Node1&#45;&gt;Node10 -->
<g id="edge15" class="edge">
<title>Node1&#45;&gt;Node10</title>
<path fill="none" stroke="midnightblue" d="M424.26,-391.26C494.46,-380.95 593.07,-364.31 677.85,-342 680.67,-341.26 683.53,-340.47 686.41,-339.64"/>
<polygon fill="midnightblue" stroke="midnightblue" points="423.5,-387.83 414.11,-392.73 424.51,-394.76 423.5,-387.83"/>
</g>
<!-- Node12 -->
<g id="node12" class="node">
<title>Node12</title>
<g id="a_node12"><a xlink:href="_recording_8h.html" target="_top" xlink:title="This file defines functions to handle Recordings.">
<polygon fill="white" stroke="black" points="246.85,-284 246.85,-336 416.85,-336 416.85,-284 246.85,-284"/>
<text text-anchor="start" x="254.85" y="-324" font-family="Helvetica,sans-Serif" font-size="10.00">/home/jenkins/jenkins</text>
<text text-anchor="start" x="254.85" y="-313" font-family="Helvetica,sans-Serif" font-size="10.00">&#45;ci/workspace/er_release</text>
<text text-anchor="start" x="254.85" y="-302" font-family="Helvetica,sans-Serif" font-size="10.00">_release&#45;branch&#45;v3.3.1@2</text>
<text text-anchor="middle" x="331.85" y="-291" font-family="Helvetica,sans-Serif" font-size="10.00">/sdk/c/ifxRecording/Recording.h</text>
</a>
</g>
</g>
<!-- Node1&#45;&gt;Node12 -->
<g id="edge17" class="edge">
<title>Node1&#45;&gt;Node12</title>
<path fill="none" stroke="midnightblue" d="M331.85,-367.99C331.85,-357.41 331.85,-346.03 331.85,-336.25"/>
<polygon fill="midnightblue" stroke="midnightblue" points="328.35,-368.22 331.85,-378.22 335.35,-368.22 328.35,-368.22"/>
</g>
<!-- Node3&#45;&gt;Node2 -->
<g id="edge3" class="edge">
<title>Node3&#45;&gt;Node2</title>
<path fill="none" stroke="midnightblue" d="M167.1,-83.79C182.47,-73.58 199.39,-62.34 214.04,-52.61"/>
<polygon fill="midnightblue" stroke="midnightblue" points="165.13,-80.89 158.74,-89.34 169.01,-86.72 165.13,-80.89"/>
</g>
<!-- Node4&#45;&gt;Node2 -->
<g id="edge5" class="edge">
<title>Node4&#45;&gt;Node2</title>
<path fill="none" stroke="midnightblue" d="M295.47,-176.56C286.08,-166.39 276.92,-154.52 270.85,-142 257.05,-113.53 253.03,-76.92 251.98,-52.86"/>
<polygon fill="midnightblue" stroke="midnightblue" points="293.18,-179.23 302.64,-183.99 298.21,-174.36 293.18,-179.23"/>
</g>
<!-- Node4&#45;&gt;Node3 -->
<g id="edge6" class="edge">
<title>Node4&#45;&gt;Node3</title>
<path fill="none" stroke="midnightblue" d="M265.41,-179.87C237.34,-167.57 204.98,-153.38 178,-141.55"/>
<polygon fill="midnightblue" stroke="midnightblue" points="264.19,-183.16 274.75,-183.97 267,-176.75 264.19,-183.16"/>
</g>
<!-- Node5 -->
<g id="node5" class="node">
<title>Node5</title>
<g id="a_node5"><a xlink:href="_metrics_8h.html" target="_top" xlink:title="API for Metrics.">
<polygon fill="white" stroke="black" points="280.35,-89.5 280.35,-141.5 423.35,-141.5 423.35,-89.5 280.35,-89.5"/>
<text text-anchor="start" x="288.35" y="-129.5" font-family="Helvetica,sans-Serif" font-size="10.00">/home/jenkins/jenkins</text>
<text text-anchor="start" x="288.35" y="-118.5" font-family="Helvetica,sans-Serif" font-size="10.00">&#45;ci/workspace/er_release</text>
<text text-anchor="start" x="288.35" y="-107.5" font-family="Helvetica,sans-Serif" font-size="10.00">_release&#45;branch&#45;v3.3.1@2</text>
<text text-anchor="middle" x="351.85" y="-96.5" font-family="Helvetica,sans-Serif" font-size="10.00">/sdk/c/ifxAvian/Metrics.h</text>
</a>
</g>
</g>
<!-- Node4&#45;&gt;Node5 -->
<g id="edge7" class="edge">
<title>Node4&#45;&gt;Node5</title>
<path fill="none" stroke="midnightblue" d="M339.46,-173.82C341.76,-163.15 344.25,-151.63 346.39,-141.75"/>
<polygon fill="midnightblue" stroke="midnightblue" points="336.01,-173.21 337.31,-183.72 342.85,-174.69 336.01,-173.21"/>
</g>
<!-- Node6 -->
<g id="node6" class="node">
<title>Node6</title>
<g id="a_node6"><a xlink:href="_shapes_8h.html" target="_top" xlink:title=" ">
<polygon fill="white" stroke="black" points="441.35,-89.5 441.35,-141.5 584.35,-141.5 584.35,-89.5 441.35,-89.5"/>
<text text-anchor="start" x="449.35" y="-129.5" font-family="Helvetica,sans-Serif" font-size="10.00">/home/jenkins/jenkins</text>
<text text-anchor="start" x="449.35" y="-118.5" font-family="Helvetica,sans-Serif" font-size="10.00">&#45;ci/workspace/er_release</text>
<text text-anchor="start" x="449.35" y="-107.5" font-family="Helvetica,sans-Serif" font-size="10.00">_release&#45;branch&#45;v3.3.1@2</text>
<text text-anchor="middle" x="512.85" y="-96.5" font-family="Helvetica,sans-Serif" font-size="10.00">/sdk/c/ifxAvian/Shapes.h</text>
</a>
</g>
</g>
<!-- Node4&#45;&gt;Node6 -->
<g id="edge9" class="edge">
<title>Node4&#45;&gt;Node6</title>
<path fill="none" stroke="midnightblue" d="M389.79,-179.39C413.65,-167.2 440.99,-153.23 463.83,-141.55"/>
<polygon fill="midnightblue" stroke="midnightblue" points="388.14,-176.3 380.83,-183.97 391.33,-182.53 388.14,-176.3"/>
</g>
<!-- Node4&#45;&gt;Node7 -->
<g id="edge11" class="edge">
<title>Node4&#45;&gt;Node7</title>
<path fill="none" stroke="midnightblue" d="M419.25,-181.19C423.16,-180.08 427.04,-179.01 430.85,-178 502.54,-158.9 521.65,-159.08 593.85,-142 596.75,-141.31 599.7,-140.61 602.68,-139.89"/>
<polygon fill="midnightblue" stroke="midnightblue" points="418.13,-177.87 409.49,-184 420.06,-184.59 418.13,-177.87"/>
</g>
<!-- Node5&#45;&gt;Node2 -->
<g id="edge8" class="edge">
<title>Node5&#45;&gt;Node2</title>
<path fill="none" stroke="midnightblue" d="M315.24,-82.65C303.86,-72.75 291.48,-61.98 280.71,-52.61"/>
<polygon fill="midnightblue" stroke="midnightblue" points="313.08,-85.41 322.93,-89.34 317.68,-80.13 313.08,-85.41"/>
</g>
<!-- Node6&#45;&gt;Node2 -->
<g id="edge10" class="edge">
<title>Node6&#45;&gt;Node2</title>
<path fill="none" stroke="midnightblue" d="M431.57,-87.41C396.92,-75.86 356.85,-62.5 323.35,-51.33"/>
<polygon fill="midnightblue" stroke="midnightblue" points="430.59,-90.77 441.19,-90.61 432.81,-84.13 430.59,-90.77"/>
</g>
<!-- Node8 -->
<g id="node8" class="node">
<title>Node8</title>
<g id="a_node8"><a xlink:href="_radar_8h.html" target="_top" xlink:title="Header for ifxRadar.">
<polygon fill="white" stroke="black" points="623.35,-0.5 623.35,-52.5 766.35,-52.5 766.35,-0.5 623.35,-0.5"/>
<text text-anchor="start" x="631.35" y="-40.5" font-family="Helvetica,sans-Serif" font-size="10.00">/home/jenkins/jenkins</text>
<text text-anchor="start" x="631.35" y="-29.5" font-family="Helvetica,sans-Serif" font-size="10.00">&#45;ci/workspace/er_release</text>
<text text-anchor="start" x="631.35" y="-18.5" font-family="Helvetica,sans-Serif" font-size="10.00">_release&#45;branch&#45;v3.3.1@2</text>
<text text-anchor="middle" x="694.85" y="-7.5" font-family="Helvetica,sans-Serif" font-size="10.00">/sdk/c/ifxRadar/Radar.h</text>
</a>
</g>
</g>
<!-- Node7&#45;&gt;Node8 -->
<g id="edge12" class="edge">
<title>Node7&#45;&gt;Node8</title>
<path fill="none" stroke="midnightblue" d="M694.85,-79.19C694.85,-70.28 694.85,-60.9 694.85,-52.61"/>
<polygon fill="midnightblue" stroke="midnightblue" points="691.35,-79.34 694.85,-89.34 698.35,-79.34 691.35,-79.34"/>
</g>
<!-- Node11 -->
<g id="node11" class="node">
<title>Node11</title>
<g id="a_node11"><a xlink:href="_radar_segmentation_8h.html" target="_top" xlink:title="Header for ifxRadarSegmentation.">
<polygon fill="white" stroke="black" points="686.85,-178.5 686.85,-241.5 844.85,-241.5 844.85,-178.5 686.85,-178.5"/>
<text text-anchor="start" x="694.85" y="-229.5" font-family="Helvetica,sans-Serif" font-size="10.00">/home/jenkins/jenkins</text>
<text text-anchor="start" x="694.85" y="-218.5" font-family="Helvetica,sans-Serif" font-size="10.00">&#45;ci/workspace/er_release</text>
<text text-anchor="start" x="694.85" y="-207.5" font-family="Helvetica,sans-Serif" font-size="10.00">_release&#45;branch&#45;v3.3.1@2</text>
<text text-anchor="start" x="694.85" y="-196.5" font-family="Helvetica,sans-Serif" font-size="10.00">/sdk/c/ifxRadarSegmentation</text>
<text text-anchor="middle" x="765.85" y="-185.5" font-family="Helvetica,sans-Serif" font-size="10.00">/RadarSegmentation.h</text>
</a>
</g>
</g>
<!-- Node10&#45;&gt;Node11 -->
<g id="edge16" class="edge">
<title>Node10&#45;&gt;Node11</title>
<path fill="none" stroke="midnightblue" d="M765.85,-268.1C765.85,-259.24 765.85,-250.01 765.85,-241.63"/>
<polygon fill="midnightblue" stroke="midnightblue" points="762.35,-268.26 765.85,-278.26 769.35,-268.26 762.35,-268.26"/>
</g>
<!-- Node12&#45;&gt;Node4 -->
<g id="edge18" class="edge">
<title>Node12&#45;&gt;Node4</title>
<path fill="none" stroke="midnightblue" d="M331.85,-273.7C331.85,-261.28 331.85,-247.57 331.85,-236.15"/>
<polygon fill="midnightblue" stroke="midnightblue" points="328.35,-273.76 331.85,-283.76 335.35,-273.76 328.35,-273.76"/>
</g>
</g>
</svg>
