<?xml version="1.0" encoding="UTF-8" standalone="no"?>
<!DOCTYPE svg PUBLIC "-//W3C//DTD SVG 1.1//EN"
 "http://www.w3.org/Graphics/SVG/1.1/DTD/svg11.dtd">
<!-- Generated by graphviz version 2.43.0 (0)
 -->
<!-- Title: /home/jenkins/jenkins&#45;ci/workspace/er_release_release&#45;branch&#45;v3.3.1@2/sdk/c/ifxDopplerLTR11/DopplerLTR11.h Pages: 1 -->
<svg width="456pt" height="363pt"
 viewBox="0.00 0.00 455.57 363.00" xmlns="http://www.w3.org/2000/svg" xmlns:xlink="http://www.w3.org/1999/xlink">
<g id="graph0" class="graph" transform="scale(1 1) rotate(0) translate(4 359)">
<title>/home/jenkins/jenkins&#45;ci/workspace/er_release_release&#45;branch&#45;v3.3.1@2/sdk/c/ifxDopplerLTR11/DopplerLTR11.h</title>
<polygon fill="white" stroke="transparent" points="-4,4 -4,-359 451.57,-359 451.57,4 -4,4"/>
<!-- Node1 -->
<g id="node1" class="node">
<title>Node1</title>
<g id="a_node1"><a xlink:title="Main header file for ifxDopplerLTR11.">
<polygon fill="#bfbfbf" stroke="black" points="111.5,-302.5 111.5,-354.5 319.5,-354.5 319.5,-302.5 111.5,-302.5"/>
<text text-anchor="start" x="119.5" y="-342.5" font-family="Helvetica,sans-Serif" font-size="10.00">/home/jenkins/jenkins</text>
<text text-anchor="start" x="119.5" y="-331.5" font-family="Helvetica,sans-Serif" font-size="10.00">&#45;ci/workspace/er_release</text>
<text text-anchor="start" x="119.5" y="-320.5" font-family="Helvetica,sans-Serif" font-size="10.00">_release&#45;branch&#45;v3.3.1@2</text>
<text text-anchor="middle" x="215.5" y="-309.5" font-family="Helvetica,sans-Serif" font-size="10.00">/sdk/c/ifxDopplerLTR11/DopplerLTR11.h</text>
</a>
</g>
</g>
<!-- Node2 -->
<g id="node2" class="node">
<title>Node2</title>
<g id="a_node2"><a xlink:href="_device_l_t_r11_control_8h.html" target="_top" xlink:title="API for 60GHz Radar device BGT60LTR11 to configure and get raw data.">
<polygon fill="white" stroke="black" points="134,-235.5 134,-265.5 297,-265.5 297,-235.5 134,-235.5"/>
<text text-anchor="start" x="142" y="-253.5" font-family="Helvetica,sans-Serif" font-size="10.00">ifxDopplerLTR11/DeviceLTR11</text>
<text text-anchor="middle" x="215.5" y="-242.5" font-family="Helvetica,sans-Serif" font-size="10.00">Control.h</text>
</a>
</g>
</g>
<!-- Node1&#45;&gt;Node2 -->
<g id="edge1" class="edge">
<title>Node1&#45;&gt;Node2</title>
<path fill="none" stroke="midnightblue" d="M215.5,-302.19C215.5,-293.79 215.5,-284.44 215.5,-276.09"/>
<polygon fill="midnightblue" stroke="midnightblue" points="219,-275.85 215.5,-265.85 212,-275.85 219,-275.85"/>
</g>
<!-- Node3 -->
<g id="node3" class="node">
<title>Node3</title>
<g id="a_node3"><a xlink:href="ifx_base_2_types_8h.html" target="_top" xlink:title="Definitions of data types used within the SDK.">
<polygon fill="white" stroke="black" points="241,-56.5 241,-75.5 334,-75.5 334,-56.5 241,-56.5"/>
<text text-anchor="middle" x="287.5" y="-63.5" font-family="Helvetica,sans-Serif" font-size="10.00">ifxBase/Types.h</text>
</a>
</g>
</g>
<!-- Node2&#45;&gt;Node3 -->
<g id="edge2" class="edge">
<title>Node2&#45;&gt;Node3</title>
<path fill="none" stroke="midnightblue" d="M297.07,-241.54C352.9,-234.21 419.9,-221.05 437.5,-199 478.22,-147.97 378,-100.63 322.06,-79.13"/>
<polygon fill="midnightblue" stroke="midnightblue" points="323.09,-75.78 312.5,-75.55 320.63,-82.34 323.09,-75.78"/>
</g>
<!-- Node7 -->
<g id="node7" class="node">
<title>Node7</title>
<g id="a_node7"><a xlink:href="_error_8h.html" target="_top" xlink:title="API for error handling.">
<polygon fill="white" stroke="black" points="14.5,-174 14.5,-193 102.5,-193 102.5,-174 14.5,-174"/>
<text text-anchor="middle" x="58.5" y="-181" font-family="Helvetica,sans-Serif" font-size="10.00">ifxBase/Error.h</text>
</a>
</g>
</g>
<!-- Node2&#45;&gt;Node7 -->
<g id="edge6" class="edge">
<title>Node2&#45;&gt;Node7</title>
<path fill="none" stroke="midnightblue" d="M181.43,-235.4C153.76,-223.94 115.11,-207.94 88.58,-196.95"/>
<polygon fill="midnightblue" stroke="midnightblue" points="89.63,-193.6 79.05,-193.01 86.95,-200.07 89.63,-193.6"/>
</g>
<!-- Node10 -->
<g id="node10" class="node">
<title>Node10</title>
<g id="a_node10"><a xlink:href="_list_8h.html" target="_top" xlink:title=" ">
<polygon fill="white" stroke="black" points="101,-112.5 101,-131.5 184,-131.5 184,-112.5 101,-112.5"/>
<text text-anchor="middle" x="142.5" y="-119.5" font-family="Helvetica,sans-Serif" font-size="10.00">ifxBase/List.h</text>
</a>
</g>
</g>
<!-- Node2&#45;&gt;Node10 -->
<g id="edge10" class="edge">
<title>Node2&#45;&gt;Node10</title>
<path fill="none" stroke="midnightblue" d="M207.41,-235.48C194.04,-212.31 167.36,-166.07 152.71,-140.69"/>
<polygon fill="midnightblue" stroke="midnightblue" points="155.6,-138.7 147.57,-131.79 149.54,-142.2 155.6,-138.7"/>
</g>
<!-- Node11 -->
<g id="node11" class="node">
<title>Node11</title>
<g id="a_node11"><a xlink:href="_vector_8h.html" target="_top" xlink:title="API for operations on Vector data structures.">
<polygon fill="white" stroke="black" points="202,-112.5 202,-131.5 297,-131.5 297,-112.5 202,-112.5"/>
<text text-anchor="middle" x="249.5" y="-119.5" font-family="Helvetica,sans-Serif" font-size="10.00">ifxBase/Vector.h</text>
</a>
</g>
</g>
<!-- Node2&#45;&gt;Node11 -->
<g id="edge12" class="edge">
<title>Node2&#45;&gt;Node11</title>
<path fill="none" stroke="midnightblue" d="M209.99,-235.4C204.34,-218.7 197.55,-190.33 206.5,-168 211.18,-156.33 220.49,-145.97 229.26,-138.14"/>
<polygon fill="midnightblue" stroke="midnightblue" points="231.55,-140.78 237,-131.7 227.08,-135.4 231.55,-140.78"/>
</g>
<!-- Node12 -->
<g id="node12" class="node">
<title>Node12</title>
<g id="a_node12"><a xlink:href="ifx_doppler_l_t_r11_2_types_8h.html" target="_top" xlink:title="Header for Types.">
<polygon fill="white" stroke="black" points="215,-174 215,-193 274,-193 274,-174 215,-174"/>
<text text-anchor="middle" x="244.5" y="-181" font-family="Helvetica,sans-Serif" font-size="10.00">./Types.h</text>
</a>
</g>
</g>
<!-- Node2&#45;&gt;Node12 -->
<g id="edge14" class="edge">
<title>Node2&#45;&gt;Node12</title>
<path fill="none" stroke="midnightblue" d="M221.79,-235.4C226.09,-225.76 231.82,-212.91 236.45,-202.54"/>
<polygon fill="midnightblue" stroke="midnightblue" points="239.74,-203.75 240.62,-193.19 233.35,-200.9 239.74,-203.75"/>
</g>
<!-- Node13 -->
<g id="node13" class="node">
<title>Node13</title>
<g id="a_node13"><a xlink:href="_radar_device_common_8h.html" target="_top" xlink:title="Header for ifxRadarDeviceCommon.">
<polygon fill="white" stroke="black" points="292.5,-168.5 292.5,-198.5 428.5,-198.5 428.5,-168.5 292.5,-168.5"/>
<text text-anchor="start" x="300.5" y="-186.5" font-family="Helvetica,sans-Serif" font-size="10.00">ifxRadarDeviceCommon</text>
<text text-anchor="middle" x="360.5" y="-175.5" font-family="Helvetica,sans-Serif" font-size="10.00">/RadarDeviceCommon.h</text>
</a>
</g>
</g>
<!-- Node2&#45;&gt;Node13 -->
<g id="edge16" class="edge">
<title>Node2&#45;&gt;Node13</title>
<path fill="none" stroke="midnightblue" d="M246.96,-235.4C268.34,-225.81 296.81,-213.05 319.9,-202.7"/>
<polygon fill="midnightblue" stroke="midnightblue" points="321.41,-205.86 329.1,-198.58 318.54,-199.47 321.41,-205.86"/>
</g>
<!-- Node4 -->
<g id="node4" class="node">
<title>Node4</title>
<g id="a_node4"><a xlink:title=" ">
<polygon fill="white" stroke="#bfbfbf" points="188,-0.5 188,-19.5 241,-19.5 241,-0.5 188,-0.5"/>
<text text-anchor="middle" x="214.5" y="-7.5" font-family="Helvetica,sans-Serif" font-size="10.00">stdint.h</text>
</a>
</g>
</g>
<!-- Node3&#45;&gt;Node4 -->
<g id="edge3" class="edge">
<title>Node3&#45;&gt;Node4</title>
<path fill="none" stroke="midnightblue" d="M275.77,-56.32C264.66,-48.11 247.76,-35.6 234.52,-25.81"/>
<polygon fill="midnightblue" stroke="midnightblue" points="236.56,-22.97 226.44,-19.83 232.4,-28.59 236.56,-22.97"/>
</g>
<!-- Node5 -->
<g id="node5" class="node">
<title>Node5</title>
<g id="a_node5"><a xlink:title=" ">
<polygon fill="white" stroke="#bfbfbf" points="259.5,-0.5 259.5,-19.5 315.5,-19.5 315.5,-0.5 259.5,-0.5"/>
<text text-anchor="middle" x="287.5" y="-7.5" font-family="Helvetica,sans-Serif" font-size="10.00">stddef.h</text>
</a>
</g>
</g>
<!-- Node3&#45;&gt;Node5 -->
<g id="edge4" class="edge">
<title>Node3&#45;&gt;Node5</title>
<path fill="none" stroke="midnightblue" d="M287.5,-56.08C287.5,-49.01 287.5,-38.86 287.5,-29.99"/>
<polygon fill="midnightblue" stroke="midnightblue" points="291,-29.75 287.5,-19.75 284,-29.75 291,-29.75"/>
</g>
<!-- Node6 -->
<g id="node6" class="node">
<title>Node6</title>
<g id="a_node6"><a xlink:title=" ">
<polygon fill="white" stroke="#bfbfbf" points="333.5,-0.5 333.5,-19.5 395.5,-19.5 395.5,-0.5 333.5,-0.5"/>
<text text-anchor="middle" x="364.5" y="-7.5" font-family="Helvetica,sans-Serif" font-size="10.00">stdbool.h</text>
</a>
</g>
</g>
<!-- Node3&#45;&gt;Node6 -->
<g id="edge5" class="edge">
<title>Node3&#45;&gt;Node6</title>
<path fill="none" stroke="midnightblue" d="M299.87,-56.32C311.66,-48.06 329.63,-35.45 343.64,-25.63"/>
<polygon fill="midnightblue" stroke="midnightblue" points="345.98,-28.26 352.16,-19.65 341.96,-22.53 345.98,-28.26"/>
</g>
<!-- Node8 -->
<g id="node8" class="node">
<title>Node8</title>
<g id="a_node8"><a xlink:href="_log_8h.html" target="_top" xlink:title="API for logging.">
<polygon fill="white" stroke="black" points="0,-112.5 0,-131.5 83,-131.5 83,-112.5 0,-112.5"/>
<text text-anchor="middle" x="41.5" y="-119.5" font-family="Helvetica,sans-Serif" font-size="10.00">ifxBase/Log.h</text>
</a>
</g>
</g>
<!-- Node7&#45;&gt;Node8 -->
<g id="edge7" class="edge">
<title>Node7&#45;&gt;Node8</title>
<path fill="none" stroke="midnightblue" d="M56.06,-173.98C53.64,-165.49 49.84,-152.2 46.73,-141.32"/>
<polygon fill="midnightblue" stroke="midnightblue" points="50.04,-140.16 43.93,-131.51 43.31,-142.09 50.04,-140.16"/>
</g>
<!-- Node8&#45;&gt;Node3 -->
<g id="edge9" class="edge">
<title>Node8&#45;&gt;Node3</title>
<path fill="none" stroke="midnightblue" d="M80.48,-112.44C123.39,-103.02 192.45,-87.87 238.87,-77.68"/>
<polygon fill="midnightblue" stroke="midnightblue" points="239.69,-81.08 248.7,-75.52 238.19,-74.24 239.69,-81.08"/>
</g>
<!-- Node9 -->
<g id="node9" class="node">
<title>Node9</title>
<g id="a_node9"><a xlink:title=" ">
<polygon fill="white" stroke="#bfbfbf" points="16.5,-56.5 16.5,-75.5 66.5,-75.5 66.5,-56.5 16.5,-56.5"/>
<text text-anchor="middle" x="41.5" y="-63.5" font-family="Helvetica,sans-Serif" font-size="10.00">stdio.h</text>
</a>
</g>
</g>
<!-- Node8&#45;&gt;Node9 -->
<g id="edge8" class="edge">
<title>Node8&#45;&gt;Node9</title>
<path fill="none" stroke="midnightblue" d="M41.5,-112.08C41.5,-105.01 41.5,-94.86 41.5,-85.99"/>
<polygon fill="midnightblue" stroke="midnightblue" points="45,-85.75 41.5,-75.75 38,-85.75 45,-85.75"/>
</g>
<!-- Node10&#45;&gt;Node3 -->
<g id="edge11" class="edge">
<title>Node10&#45;&gt;Node3</title>
<path fill="none" stroke="midnightblue" d="M165.48,-112.44C189.66,-103.44 227.92,-89.19 255.15,-79.05"/>
<polygon fill="midnightblue" stroke="midnightblue" points="256.48,-82.29 264.63,-75.52 254.04,-75.73 256.48,-82.29"/>
</g>
<!-- Node11&#45;&gt;Node3 -->
<g id="edge13" class="edge">
<title>Node11&#45;&gt;Node3</title>
<path fill="none" stroke="midnightblue" d="M255.77,-112.08C261.14,-104.46 269.02,-93.26 275.58,-83.94"/>
<polygon fill="midnightblue" stroke="midnightblue" points="278.45,-85.94 281.34,-75.75 272.72,-81.91 278.45,-85.94"/>
</g>
<!-- Node12&#45;&gt;Node3 -->
<g id="edge15" class="edge">
<title>Node12&#45;&gt;Node3</title>
<path fill="none" stroke="midnightblue" d="M262.11,-173.87C277.02,-165.48 297.38,-151.18 306.5,-132 313.81,-116.62 306.77,-97.84 299.27,-84.42"/>
<polygon fill="midnightblue" stroke="midnightblue" points="302.15,-82.42 293.93,-75.73 296.18,-86.08 302.15,-82.42"/>
</g>
<!-- Node13&#45;&gt;Node3 -->
<g id="edge17" class="edge">
<title>Node13&#45;&gt;Node3</title>
<path fill="none" stroke="midnightblue" d="M353.44,-168.38C346.03,-153.9 333.77,-130.88 321.5,-112 315.17,-102.25 307.39,-91.86 300.88,-83.53"/>
<polygon fill="midnightblue" stroke="midnightblue" points="303.62,-81.35 294.66,-75.7 298.14,-85.7 303.62,-81.35"/>
</g>
</g>
</svg>
