<?xml version="1.0" encoding="UTF-8" standalone="no"?>
<!DOCTYPE svg PUBLIC "-//W3C//DTD SVG 1.1//EN"
 "http://www.w3.org/Graphics/SVG/1.1/DTD/svg11.dtd">
<!-- Generated by graphviz version 2.43.0 (0)
 -->
<!-- Title: /home/jenkins/jenkins&#45;ci/workspace/er_release_release&#45;branch&#45;v3.3.1@2/sdk/c/ifxBase/Error.h Pages: 1 -->
<svg width="233pt" height="229pt"
 viewBox="0.00 0.00 232.50 229.00" xmlns="http://www.w3.org/2000/svg" xmlns:xlink="http://www.w3.org/1999/xlink">
<g id="graph0" class="graph" transform="scale(1 1) rotate(0) translate(4 225)">
<title>/home/jenkins/jenkins&#45;ci/workspace/er_release_release&#45;branch&#45;v3.3.1@2/sdk/c/ifxBase/Error.h</title>
<polygon fill="white" stroke="transparent" points="-4,4 -4,-225 228.5,-225 228.5,4 -4,4"/>
<!-- Node1 -->
<g id="node1" class="node">
<title>Node1</title>
<g id="a_node1"><a xlink:title="API for error handling.">
<polygon fill="#bfbfbf" stroke="black" points="0,-168.5 0,-220.5 143,-220.5 143,-168.5 0,-168.5"/>
<text text-anchor="start" x="8" y="-208.5" font-family="Helvetica,sans-Serif" font-size="10.00">/home/jenkins/jenkins</text>
<text text-anchor="start" x="8" y="-197.5" font-family="Helvetica,sans-Serif" font-size="10.00">&#45;ci/workspace/er_release</text>
<text text-anchor="start" x="8" y="-186.5" font-family="Helvetica,sans-Serif" font-size="10.00">_release&#45;branch&#45;v3.3.1@2</text>
<text text-anchor="middle" x="71.5" y="-175.5" font-family="Helvetica,sans-Serif" font-size="10.00">/sdk/c/ifxBase/Error.h</text>
</a>
</g>
</g>
<!-- Node2 -->
<g id="node2" class="node">
<title>Node2</title>
<g id="a_node2"><a xlink:href="_log_8h.html" target="_top" xlink:title="API for logging.">
<polygon fill="white" stroke="black" points="30,-112.5 30,-131.5 113,-131.5 113,-112.5 30,-112.5"/>
<text text-anchor="middle" x="71.5" y="-119.5" font-family="Helvetica,sans-Serif" font-size="10.00">ifxBase/Log.h</text>
</a>
</g>
</g>
<!-- Node1&#45;&gt;Node2 -->
<g id="edge1" class="edge">
<title>Node1&#45;&gt;Node2</title>
<path fill="none" stroke="midnightblue" d="M71.5,-168.45C71.5,-159.73 71.5,-150.1 71.5,-141.96"/>
<polygon fill="midnightblue" stroke="midnightblue" points="75,-141.7 71.5,-131.7 68,-141.7 75,-141.7"/>
</g>
<!-- Node3 -->
<g id="node3" class="node">
<title>Node3</title>
<g id="a_node3"><a xlink:title=" ">
<polygon fill="white" stroke="#bfbfbf" points="1.5,-56.5 1.5,-75.5 51.5,-75.5 51.5,-56.5 1.5,-56.5"/>
<text text-anchor="middle" x="26.5" y="-63.5" font-family="Helvetica,sans-Serif" font-size="10.00">stdio.h</text>
</a>
</g>
</g>
<!-- Node2&#45;&gt;Node3 -->
<g id="edge2" class="edge">
<title>Node2&#45;&gt;Node3</title>
<path fill="none" stroke="midnightblue" d="M64.07,-112.08C57.65,-104.38 48.19,-93.03 40.38,-83.65"/>
<polygon fill="midnightblue" stroke="midnightblue" points="42.88,-81.19 33.79,-75.75 37.51,-85.67 42.88,-81.19"/>
</g>
<!-- Node4 -->
<g id="node4" class="node">
<title>Node4</title>
<g id="a_node4"><a xlink:href="ifx_base_2_types_8h.html" target="_top" xlink:title="Definitions of data types used within the SDK.">
<polygon fill="white" stroke="black" points="70,-56.5 70,-75.5 163,-75.5 163,-56.5 70,-56.5"/>
<text text-anchor="middle" x="116.5" y="-63.5" font-family="Helvetica,sans-Serif" font-size="10.00">ifxBase/Types.h</text>
</a>
</g>
</g>
<!-- Node2&#45;&gt;Node4 -->
<g id="edge3" class="edge">
<title>Node2&#45;&gt;Node4</title>
<path fill="none" stroke="midnightblue" d="M78.93,-112.08C85.35,-104.38 94.81,-93.03 102.62,-83.65"/>
<polygon fill="midnightblue" stroke="midnightblue" points="105.49,-85.67 109.21,-75.75 100.12,-81.19 105.49,-85.67"/>
</g>
<!-- Node5 -->
<g id="node5" class="node">
<title>Node5</title>
<g id="a_node5"><a xlink:title=" ">
<polygon fill="white" stroke="#bfbfbf" points="17,-0.5 17,-19.5 70,-19.5 70,-0.5 17,-0.5"/>
<text text-anchor="middle" x="43.5" y="-7.5" font-family="Helvetica,sans-Serif" font-size="10.00">stdint.h</text>
</a>
</g>
</g>
<!-- Node4&#45;&gt;Node5 -->
<g id="edge4" class="edge">
<title>Node4&#45;&gt;Node5</title>
<path fill="none" stroke="midnightblue" d="M104.77,-56.32C93.66,-48.11 76.76,-35.6 63.52,-25.81"/>
<polygon fill="midnightblue" stroke="midnightblue" points="65.56,-22.97 55.44,-19.83 61.4,-28.59 65.56,-22.97"/>
</g>
<!-- Node6 -->
<g id="node6" class="node">
<title>Node6</title>
<g id="a_node6"><a xlink:title=" ">
<polygon fill="white" stroke="#bfbfbf" points="88.5,-0.5 88.5,-19.5 144.5,-19.5 144.5,-0.5 88.5,-0.5"/>
<text text-anchor="middle" x="116.5" y="-7.5" font-family="Helvetica,sans-Serif" font-size="10.00">stddef.h</text>
</a>
</g>
</g>
<!-- Node4&#45;&gt;Node6 -->
<g id="edge5" class="edge">
<title>Node4&#45;&gt;Node6</title>
<path fill="none" stroke="midnightblue" d="M116.5,-56.08C116.5,-49.01 116.5,-38.86 116.5,-29.99"/>
<polygon fill="midnightblue" stroke="midnightblue" points="120,-29.75 116.5,-19.75 113,-29.75 120,-29.75"/>
</g>
<!-- Node7 -->
<g id="node7" class="node">
<title>Node7</title>
<g id="a_node7"><a xlink:title=" ">
<polygon fill="white" stroke="#bfbfbf" points="162.5,-0.5 162.5,-19.5 224.5,-19.5 224.5,-0.5 162.5,-0.5"/>
<text text-anchor="middle" x="193.5" y="-7.5" font-family="Helvetica,sans-Serif" font-size="10.00">stdbool.h</text>
</a>
</g>
</g>
<!-- Node4&#45;&gt;Node7 -->
<g id="edge6" class="edge">
<title>Node4&#45;&gt;Node7</title>
<path fill="none" stroke="midnightblue" d="M128.87,-56.32C140.66,-48.06 158.63,-35.45 172.64,-25.63"/>
<polygon fill="midnightblue" stroke="midnightblue" points="174.98,-28.26 181.16,-19.65 170.96,-22.53 174.98,-28.26"/>
</g>
</g>
</svg>
