<?xml version="1.0" encoding="UTF-8" standalone="no"?>
<!DOCTYPE svg PUBLIC "-//W3C//DTD SVG 1.1//EN"
 "http://www.w3.org/Graphics/SVG/1.1/DTD/svg11.dtd">
<!-- Generated by graphviz version 2.43.0 (0)
 -->
<!-- Title: /home/jenkins/jenkins&#45;ci/workspace/er_release_release&#45;branch&#45;v3.3.1@2/sdk/c/ifxBase/Error.h Pages: 1 -->
<svg width="1082pt" height="339pt"
 viewBox="0.00 0.00 1081.54 339.00" xmlns="http://www.w3.org/2000/svg" xmlns:xlink="http://www.w3.org/1999/xlink">
<g id="graph0" class="graph" transform="scale(1 1) rotate(0) translate(4 335)">
<title>/home/jenkins/jenkins&#45;ci/workspace/er_release_release&#45;branch&#45;v3.3.1@2/sdk/c/ifxBase/Error.h</title>
<polygon fill="white" stroke="transparent" points="-4,4 -4,-335 1077.54,-335 1077.54,4 -4,4"/>
<!-- Node1 -->
<g id="node1" class="node">
<title>Node1</title>
<g id="a_node1"><a xlink:title="API for error handling.">
<polygon fill="#bfbfbf" stroke="black" points="649.54,-278.5 649.54,-330.5 792.54,-330.5 792.54,-278.5 649.54,-278.5"/>
<text text-anchor="start" x="657.54" y="-318.5" font-family="Helvetica,sans-Serif" font-size="10.00">/home/jenkins/jenkins</text>
<text text-anchor="start" x="657.54" y="-307.5" font-family="Helvetica,sans-Serif" font-size="10.00">&#45;ci/workspace/er_release</text>
<text text-anchor="start" x="657.54" y="-296.5" font-family="Helvetica,sans-Serif" font-size="10.00">_release&#45;branch&#45;v3.3.1@2</text>
<text text-anchor="middle" x="721.04" y="-285.5" font-family="Helvetica,sans-Serif" font-size="10.00">/sdk/c/ifxBase/Error.h</text>
</a>
</g>
</g>
<!-- Node2 -->
<g id="node2" class="node">
<title>Node2</title>
<g id="a_node2"><a xlink:href="_device_control_8h.html" target="_top" xlink:title="API for Radar device control operations.">
<polygon fill="white" stroke="black" points="311.54,-184 311.54,-236 480.54,-236 480.54,-184 311.54,-184"/>
<text text-anchor="start" x="319.54" y="-224" font-family="Helvetica,sans-Serif" font-size="10.00">/home/jenkins/jenkins</text>
<text text-anchor="start" x="319.54" y="-213" font-family="Helvetica,sans-Serif" font-size="10.00">&#45;ci/workspace/er_release</text>
<text text-anchor="start" x="319.54" y="-202" font-family="Helvetica,sans-Serif" font-size="10.00">_release&#45;branch&#45;v3.3.1@2</text>
<text text-anchor="middle" x="396.04" y="-191" font-family="Helvetica,sans-Serif" font-size="10.00">/sdk/c/ifxAvian/DeviceControl.h</text>
</a>
</g>
</g>
<!-- Node1&#45;&gt;Node2 -->
<g id="edge1" class="edge">
<title>Node1&#45;&gt;Node2</title>
<path fill="none" stroke="midnightblue" d="M639.5,-280.29C591.09,-266.51 529.8,-249.07 480.83,-235.13"/>
<polygon fill="midnightblue" stroke="midnightblue" points="638.74,-283.71 649.32,-283.09 640.66,-276.98 638.74,-283.71"/>
</g>
<!-- Node9 -->
<g id="node9" class="node">
<title>Node9</title>
<g id="a_node9"><a xlink:href="_base_8h.html" target="_top" xlink:title="Header for ifxBase.">
<polygon fill="white" stroke="black" points="556.54,-184 556.54,-236 699.54,-236 699.54,-184 556.54,-184"/>
<text text-anchor="start" x="564.54" y="-224" font-family="Helvetica,sans-Serif" font-size="10.00">/home/jenkins/jenkins</text>
<text text-anchor="start" x="564.54" y="-213" font-family="Helvetica,sans-Serif" font-size="10.00">&#45;ci/workspace/er_release</text>
<text text-anchor="start" x="564.54" y="-202" font-family="Helvetica,sans-Serif" font-size="10.00">_release&#45;branch&#45;v3.3.1@2</text>
<text text-anchor="middle" x="628.04" y="-191" font-family="Helvetica,sans-Serif" font-size="10.00">/sdk/c/ifxBase/Base.h</text>
</a>
</g>
</g>
<!-- Node1&#45;&gt;Node9 -->
<g id="edge11" class="edge">
<title>Node1&#45;&gt;Node9</title>
<path fill="none" stroke="midnightblue" d="M688.31,-270.95C676.86,-259.56 664.19,-246.95 653.42,-236.25"/>
<polygon fill="midnightblue" stroke="midnightblue" points="686.07,-273.65 695.63,-278.22 691.01,-268.69 686.07,-273.65"/>
</g>
<!-- Node10 -->
<g id="node10" class="node">
<title>Node10</title>
<g id="a_node10"><a xlink:href="_device_l_t_r11_control_8h.html" target="_top" xlink:title="API for 60GHz Radar device BGT60LTR11 to configure and get raw data.">
<polygon fill="white" stroke="black" points="718.04,-178.5 718.04,-241.5 912.04,-241.5 912.04,-178.5 718.04,-178.5"/>
<text text-anchor="start" x="726.04" y="-229.5" font-family="Helvetica,sans-Serif" font-size="10.00">/home/jenkins/jenkins</text>
<text text-anchor="start" x="726.04" y="-218.5" font-family="Helvetica,sans-Serif" font-size="10.00">&#45;ci/workspace/er_release</text>
<text text-anchor="start" x="726.04" y="-207.5" font-family="Helvetica,sans-Serif" font-size="10.00">_release&#45;branch&#45;v3.3.1@2</text>
<text text-anchor="start" x="726.04" y="-196.5" font-family="Helvetica,sans-Serif" font-size="10.00">/sdk/c/ifxDopplerLTR11/DeviceLTR11</text>
<text text-anchor="middle" x="815.04" y="-185.5" font-family="Helvetica,sans-Serif" font-size="10.00">Control.h</text>
</a>
</g>
</g>
<!-- Node1&#45;&gt;Node10 -->
<g id="edge12" class="edge">
<title>Node1&#45;&gt;Node10</title>
<path fill="none" stroke="midnightblue" d="M753.99,-271.08C763.75,-261.47 774.4,-250.99 784.04,-241.51"/>
<polygon fill="midnightblue" stroke="midnightblue" points="751.4,-268.72 746.73,-278.22 756.31,-273.7 751.4,-268.72"/>
</g>
<!-- Node12 -->
<g id="node12" class="node">
<title>Node12</title>
<g id="a_node12"><a xlink:href="_util_8h.html" target="_top" xlink:title="This file defines some utility functions like printing to, reading from files or printing to console....">
<polygon fill="white" stroke="black" points="930.54,-184 930.54,-236 1073.54,-236 1073.54,-184 930.54,-184"/>
<text text-anchor="start" x="938.54" y="-224" font-family="Helvetica,sans-Serif" font-size="10.00">/home/jenkins/jenkins</text>
<text text-anchor="start" x="938.54" y="-213" font-family="Helvetica,sans-Serif" font-size="10.00">&#45;ci/workspace/er_release</text>
<text text-anchor="start" x="938.54" y="-202" font-family="Helvetica,sans-Serif" font-size="10.00">_release&#45;branch&#45;v3.3.1@2</text>
<text text-anchor="middle" x="1002.04" y="-191" font-family="Helvetica,sans-Serif" font-size="10.00">/sdk/c/ifxUtil/Util.h</text>
</a>
</g>
</g>
<!-- Node1&#45;&gt;Node12 -->
<g id="edge14" class="edge">
<title>Node1&#45;&gt;Node12</title>
<path fill="none" stroke="midnightblue" d="M802.3,-279.86C838.79,-268.9 882.26,-255.37 921.04,-242 926.45,-240.14 932.04,-238.14 937.64,-236.1"/>
<polygon fill="midnightblue" stroke="midnightblue" points="801.27,-276.52 792.69,-282.74 803.28,-283.23 801.27,-276.52"/>
</g>
<!-- Node3 -->
<g id="node3" class="node">
<title>Node3</title>
<g id="a_node3"><a xlink:href="_avian_8h.html" target="_top" xlink:title="Header for ifxAvian.">
<polygon fill="white" stroke="black" points="148.54,-0.5 148.54,-52.5 291.54,-52.5 291.54,-0.5 148.54,-0.5"/>
<text text-anchor="start" x="156.54" y="-40.5" font-family="Helvetica,sans-Serif" font-size="10.00">/home/jenkins/jenkins</text>
<text text-anchor="start" x="156.54" y="-29.5" font-family="Helvetica,sans-Serif" font-size="10.00">&#45;ci/workspace/er_release</text>
<text text-anchor="start" x="156.54" y="-18.5" font-family="Helvetica,sans-Serif" font-size="10.00">_release&#45;branch&#45;v3.3.1@2</text>
<text text-anchor="middle" x="220.04" y="-7.5" font-family="Helvetica,sans-Serif" font-size="10.00">/sdk/c/ifxAvian/Avian.h</text>
</a>
</g>
</g>
<!-- Node2&#45;&gt;Node3 -->
<g id="edge2" class="edge">
<title>Node2&#45;&gt;Node3</title>
<path fill="none" stroke="midnightblue" d="M301.47,-206.03C199.68,-200.6 47.44,-185.28 11.04,-142 -4.12,-123.97 -3.07,-107.86 11.04,-89 27.78,-66.63 94.82,-49.59 148.52,-39.19"/>
<polygon fill="midnightblue" stroke="midnightblue" points="301.3,-209.52 311.46,-206.54 301.65,-202.53 301.3,-209.52"/>
</g>
<!-- Node4 -->
<g id="node4" class="node">
<title>Node4</title>
<g id="a_node4"><a xlink:href="_constant_wave_control_8h.html" target="_top" xlink:title="Header for Constant Wave Control. It provides APIs to use an Avian device in constant wave mode....">
<polygon fill="white" stroke="black" points="20.04,-89.5 20.04,-141.5 226.04,-141.5 226.04,-89.5 20.04,-89.5"/>
<text text-anchor="start" x="28.04" y="-129.5" font-family="Helvetica,sans-Serif" font-size="10.00">/home/jenkins/jenkins</text>
<text text-anchor="start" x="28.04" y="-118.5" font-family="Helvetica,sans-Serif" font-size="10.00">&#45;ci/workspace/er_release</text>
<text text-anchor="start" x="28.04" y="-107.5" font-family="Helvetica,sans-Serif" font-size="10.00">_release&#45;branch&#45;v3.3.1@2</text>
<text text-anchor="middle" x="123.04" y="-96.5" font-family="Helvetica,sans-Serif" font-size="10.00">/sdk/c/ifxAvian/ConstantWaveControl.h</text>
</a>
</g>
</g>
<!-- Node2&#45;&gt;Node4 -->
<g id="edge3" class="edge">
<title>Node2&#45;&gt;Node4</title>
<path fill="none" stroke="midnightblue" d="M312.44,-180.67C275.59,-168.19 232.65,-153.64 196.98,-141.55"/>
<polygon fill="midnightblue" stroke="midnightblue" points="311.57,-184.07 322.16,-183.97 313.82,-177.44 311.57,-184.07"/>
</g>
<!-- Node5 -->
<g id="node5" class="node">
<title>Node5</title>
<g id="a_node5"><a xlink:href="_metrics_8h.html" target="_top" xlink:title="API for Metrics.">
<polygon fill="white" stroke="black" points="244.54,-89.5 244.54,-141.5 387.54,-141.5 387.54,-89.5 244.54,-89.5"/>
<text text-anchor="start" x="252.54" y="-129.5" font-family="Helvetica,sans-Serif" font-size="10.00">/home/jenkins/jenkins</text>
<text text-anchor="start" x="252.54" y="-118.5" font-family="Helvetica,sans-Serif" font-size="10.00">&#45;ci/workspace/er_release</text>
<text text-anchor="start" x="252.54" y="-107.5" font-family="Helvetica,sans-Serif" font-size="10.00">_release&#45;branch&#45;v3.3.1@2</text>
<text text-anchor="middle" x="316.04" y="-96.5" font-family="Helvetica,sans-Serif" font-size="10.00">/sdk/c/ifxAvian/Metrics.h</text>
</a>
</g>
</g>
<!-- Node2&#45;&gt;Node5 -->
<g id="edge5" class="edge">
<title>Node2&#45;&gt;Node5</title>
<path fill="none" stroke="midnightblue" d="M367.61,-176.12C357.83,-164.82 347.05,-152.35 337.88,-141.75"/>
<polygon fill="midnightblue" stroke="midnightblue" points="364.99,-178.45 374.18,-183.72 370.29,-173.87 364.99,-178.45"/>
</g>
<!-- Node6 -->
<g id="node6" class="node">
<title>Node6</title>
<g id="a_node6"><a xlink:href="_shapes_8h.html" target="_top" xlink:title=" ">
<polygon fill="white" stroke="black" points="405.54,-89.5 405.54,-141.5 548.54,-141.5 548.54,-89.5 405.54,-89.5"/>
<text text-anchor="start" x="413.54" y="-129.5" font-family="Helvetica,sans-Serif" font-size="10.00">/home/jenkins/jenkins</text>
<text text-anchor="start" x="413.54" y="-118.5" font-family="Helvetica,sans-Serif" font-size="10.00">&#45;ci/workspace/er_release</text>
<text text-anchor="start" x="413.54" y="-107.5" font-family="Helvetica,sans-Serif" font-size="10.00">_release&#45;branch&#45;v3.3.1@2</text>
<text text-anchor="middle" x="477.04" y="-96.5" font-family="Helvetica,sans-Serif" font-size="10.00">/sdk/c/ifxAvian/Shapes.h</text>
</a>
</g>
</g>
<!-- Node2&#45;&gt;Node6 -->
<g id="edge7" class="edge">
<title>Node2&#45;&gt;Node6</title>
<path fill="none" stroke="midnightblue" d="M424.83,-176.12C434.73,-164.82 445.65,-152.35 454.94,-141.75"/>
<polygon fill="midnightblue" stroke="midnightblue" points="422.13,-173.89 418.18,-183.72 427.4,-178.51 422.13,-173.89"/>
</g>
<!-- Node7 -->
<g id="node7" class="node">
<title>Node7</title>
<g id="a_node7"><a xlink:href="_presence_sensing_8h.html" target="_top" xlink:title="API for Presence Sensing algorithm.">
<polygon fill="white" stroke="black" points="567.04,-89.5 567.04,-141.5 751.04,-141.5 751.04,-89.5 567.04,-89.5"/>
<text text-anchor="start" x="575.04" y="-129.5" font-family="Helvetica,sans-Serif" font-size="10.00">/home/jenkins/jenkins</text>
<text text-anchor="start" x="575.04" y="-118.5" font-family="Helvetica,sans-Serif" font-size="10.00">&#45;ci/workspace/er_release</text>
<text text-anchor="start" x="575.04" y="-107.5" font-family="Helvetica,sans-Serif" font-size="10.00">_release&#45;branch&#45;v3.3.1@2</text>
<text text-anchor="middle" x="659.04" y="-96.5" font-family="Helvetica,sans-Serif" font-size="10.00">/sdk/c/ifxRadar/PresenceSensing.h</text>
</a>
</g>
</g>
<!-- Node2&#45;&gt;Node7 -->
<g id="edge9" class="edge">
<title>Node2&#45;&gt;Node7</title>
<path fill="none" stroke="midnightblue" d="M477.04,-180.51C512.44,-168.06 553.6,-153.59 587.81,-141.55"/>
<polygon fill="midnightblue" stroke="midnightblue" points="475.49,-177.35 467.21,-183.97 477.81,-183.95 475.49,-177.35"/>
</g>
<!-- Node4&#45;&gt;Node3 -->
<g id="edge4" class="edge">
<title>Node4&#45;&gt;Node3</title>
<path fill="none" stroke="midnightblue" d="M158.55,-82.65C169.59,-72.75 181.6,-61.98 192.05,-52.61"/>
<polygon fill="midnightblue" stroke="midnightblue" points="156.21,-80.05 151.1,-89.34 160.88,-85.26 156.21,-80.05"/>
</g>
<!-- Node5&#45;&gt;Node3 -->
<g id="edge6" class="edge">
<title>Node5&#45;&gt;Node3</title>
<path fill="none" stroke="midnightblue" d="M280.58,-82.36C269.74,-72.54 257.99,-61.89 247.75,-52.61"/>
<polygon fill="midnightblue" stroke="midnightblue" points="278.52,-85.21 288.28,-89.34 283.22,-80.03 278.52,-85.21"/>
</g>
<!-- Node6&#45;&gt;Node3 -->
<g id="edge8" class="edge">
<title>Node6&#45;&gt;Node3</title>
<path fill="none" stroke="midnightblue" d="M395.72,-86.97C362.33,-75.67 324.01,-62.69 291.69,-51.76"/>
<polygon fill="midnightblue" stroke="midnightblue" points="394.86,-90.37 405.45,-90.27 397.1,-83.74 394.86,-90.37"/>
</g>
<!-- Node8 -->
<g id="node8" class="node">
<title>Node8</title>
<g id="a_node8"><a xlink:href="_radar_8h.html" target="_top" xlink:title="Header for ifxRadar.">
<polygon fill="white" stroke="black" points="587.54,-0.5 587.54,-52.5 730.54,-52.5 730.54,-0.5 587.54,-0.5"/>
<text text-anchor="start" x="595.54" y="-40.5" font-family="Helvetica,sans-Serif" font-size="10.00">/home/jenkins/jenkins</text>
<text text-anchor="start" x="595.54" y="-29.5" font-family="Helvetica,sans-Serif" font-size="10.00">&#45;ci/workspace/er_release</text>
<text text-anchor="start" x="595.54" y="-18.5" font-family="Helvetica,sans-Serif" font-size="10.00">_release&#45;branch&#45;v3.3.1@2</text>
<text text-anchor="middle" x="659.04" y="-7.5" font-family="Helvetica,sans-Serif" font-size="10.00">/sdk/c/ifxRadar/Radar.h</text>
</a>
</g>
</g>
<!-- Node7&#45;&gt;Node8 -->
<g id="edge10" class="edge">
<title>Node7&#45;&gt;Node8</title>
<path fill="none" stroke="midnightblue" d="M659.04,-79.19C659.04,-70.28 659.04,-60.9 659.04,-52.61"/>
<polygon fill="midnightblue" stroke="midnightblue" points="655.54,-79.34 659.04,-89.34 662.54,-79.34 655.54,-79.34"/>
</g>
<!-- Node11 -->
<g id="node11" class="node">
<title>Node11</title>
<g id="a_node11"><a xlink:href="_doppler_l_t_r11_8h.html" target="_top" xlink:title="Main header file for ifxDopplerLTR11.">
<polygon fill="white" stroke="black" points="769.04,-89.5 769.04,-141.5 977.04,-141.5 977.04,-89.5 769.04,-89.5"/>
<text text-anchor="start" x="777.04" y="-129.5" font-family="Helvetica,sans-Serif" font-size="10.00">/home/jenkins/jenkins</text>
<text text-anchor="start" x="777.04" y="-118.5" font-family="Helvetica,sans-Serif" font-size="10.00">&#45;ci/workspace/er_release</text>
<text text-anchor="start" x="777.04" y="-107.5" font-family="Helvetica,sans-Serif" font-size="10.00">_release&#45;branch&#45;v3.3.1@2</text>
<text text-anchor="middle" x="873.04" y="-96.5" font-family="Helvetica,sans-Serif" font-size="10.00">/sdk/c/ifxDopplerLTR11/DopplerLTR11.h</text>
</a>
</g>
</g>
<!-- Node10&#45;&gt;Node11 -->
<g id="edge13" class="edge">
<title>Node10&#45;&gt;Node11</title>
<path fill="none" stroke="midnightblue" d="M839.57,-169.88C845.54,-160.37 851.76,-150.44 857.2,-141.77"/>
<polygon fill="midnightblue" stroke="midnightblue" points="836.54,-168.12 834.19,-178.46 842.47,-171.84 836.54,-168.12"/>
</g>
</g>
</svg>
