<?xml version="1.0" encoding="UTF-8" standalone="no"?>
<!DOCTYPE svg PUBLIC "-//W3C//DTD SVG 1.1//EN"
 "http://www.w3.org/Graphics/SVG/1.1/DTD/svg11.dtd">
<!-- Generated by graphviz version 2.43.0 (0)
 -->
<!-- Title: /home/jenkins/jenkins&#45;ci/workspace/er_release_release&#45;branch&#45;v3.3.1@2/sdk/c/ifxAlgo/FFT.h Pages: 1 -->
<svg width="626pt" height="417pt"
 viewBox="0.00 0.00 626.00 417.00" xmlns="http://www.w3.org/2000/svg" xmlns:xlink="http://www.w3.org/1999/xlink">
<g id="graph0" class="graph" transform="scale(1 1) rotate(0) translate(4 413)">
<title>/home/jenkins/jenkins&#45;ci/workspace/er_release_release&#45;branch&#45;v3.3.1@2/sdk/c/ifxAlgo/FFT.h</title>
<polygon fill="white" stroke="transparent" points="-4,4 -4,-413 622,-413 622,4 -4,4"/>
<!-- Node1 -->
<g id="node1" class="node">
<title>Node1</title>
<g id="a_node1"><a xlink:title="API for Fast Fourier Transform (FFT)">
<polygon fill="#bfbfbf" stroke="black" points="185,-356.5 185,-408.5 328,-408.5 328,-356.5 185,-356.5"/>
<text text-anchor="start" x="193" y="-396.5" font-family="Helvetica,sans-Serif" font-size="10.00">/home/jenkins/jenkins</text>
<text text-anchor="start" x="193" y="-385.5" font-family="Helvetica,sans-Serif" font-size="10.00">&#45;ci/workspace/er_release</text>
<text text-anchor="start" x="193" y="-374.5" font-family="Helvetica,sans-Serif" font-size="10.00">_release&#45;branch&#45;v3.3.1@2</text>
<text text-anchor="middle" x="256.5" y="-363.5" font-family="Helvetica,sans-Serif" font-size="10.00">/sdk/c/ifxAlgo/FFT.h</text>
</a>
</g>
</g>
<!-- Node2 -->
<g id="node2" class="node">
<title>Node2</title>
<g id="a_node2"><a xlink:href="_algo_8h.html" target="_top" xlink:title="Header for ifxAlgo.">
<polygon fill="white" stroke="black" points="0,-178.5 0,-230.5 143,-230.5 143,-178.5 0,-178.5"/>
<text text-anchor="start" x="8" y="-218.5" font-family="Helvetica,sans-Serif" font-size="10.00">/home/jenkins/jenkins</text>
<text text-anchor="start" x="8" y="-207.5" font-family="Helvetica,sans-Serif" font-size="10.00">&#45;ci/workspace/er_release</text>
<text text-anchor="start" x="8" y="-196.5" font-family="Helvetica,sans-Serif" font-size="10.00">_release&#45;branch&#45;v3.3.1@2</text>
<text text-anchor="middle" x="71.5" y="-185.5" font-family="Helvetica,sans-Serif" font-size="10.00">/sdk/c/ifxAlgo/Algo.h</text>
</a>
</g>
</g>
<!-- Node1&#45;&gt;Node2 -->
<g id="edge1" class="edge">
<title>Node1&#45;&gt;Node2</title>
<path fill="none" stroke="midnightblue" d="M200.96,-350.97C186.72,-341.92 171.93,-331.36 159.5,-320 130.07,-293.11 103.25,-255.45 87.15,-230.78"/>
<polygon fill="midnightblue" stroke="midnightblue" points="199.38,-354.11 209.73,-356.4 203.07,-348.16 199.38,-354.11"/>
</g>
<!-- Node3 -->
<g id="node3" class="node">
<title>Node3</title>
<g id="a_node3"><a xlink:href="_preprocessed_f_f_t_8h.html" target="_top" xlink:title="API for Pre&#45;processed FFT.">
<polygon fill="white" stroke="black" points="168.5,-267.5 168.5,-319.5 344.5,-319.5 344.5,-267.5 168.5,-267.5"/>
<text text-anchor="start" x="176.5" y="-307.5" font-family="Helvetica,sans-Serif" font-size="10.00">/home/jenkins/jenkins</text>
<text text-anchor="start" x="176.5" y="-296.5" font-family="Helvetica,sans-Serif" font-size="10.00">&#45;ci/workspace/er_release</text>
<text text-anchor="start" x="176.5" y="-285.5" font-family="Helvetica,sans-Serif" font-size="10.00">_release&#45;branch&#45;v3.3.1@2</text>
<text text-anchor="middle" x="256.5" y="-274.5" font-family="Helvetica,sans-Serif" font-size="10.00">/sdk/c/ifxAlgo/PreprocessedFFT.h</text>
</a>
</g>
</g>
<!-- Node1&#45;&gt;Node3 -->
<g id="edge2" class="edge">
<title>Node1&#45;&gt;Node3</title>
<path fill="none" stroke="midnightblue" d="M256.5,-346.19C256.5,-337.28 256.5,-327.9 256.5,-319.61"/>
<polygon fill="midnightblue" stroke="midnightblue" points="253,-346.34 256.5,-356.34 260,-346.34 253,-346.34"/>
</g>
<!-- Node9 -->
<g id="node9" class="node">
<title>Node9</title>
<g id="a_node9"><a xlink:href="_spectrum_axis_8h.html" target="_top" xlink:title="API for Spectrum Axis used by Range spectrum, Range Doppler and Range Angle Map modules.">
<polygon fill="white" stroke="black" points="449,-267.5 449,-319.5 618,-319.5 618,-267.5 449,-267.5"/>
<text text-anchor="start" x="457" y="-307.5" font-family="Helvetica,sans-Serif" font-size="10.00">/home/jenkins/jenkins</text>
<text text-anchor="start" x="457" y="-296.5" font-family="Helvetica,sans-Serif" font-size="10.00">&#45;ci/workspace/er_release</text>
<text text-anchor="start" x="457" y="-285.5" font-family="Helvetica,sans-Serif" font-size="10.00">_release&#45;branch&#45;v3.3.1@2</text>
<text text-anchor="middle" x="533.5" y="-274.5" font-family="Helvetica,sans-Serif" font-size="10.00">/sdk/c/ifxRadar/SpectrumAxis.h</text>
</a>
</g>
</g>
<!-- Node1&#45;&gt;Node9 -->
<g id="edge12" class="edge">
<title>Node1&#45;&gt;Node9</title>
<path fill="none" stroke="midnightblue" d="M337.84,-355.95C374.41,-344.47 417.43,-330.95 453.81,-319.53"/>
<polygon fill="midnightblue" stroke="midnightblue" points="336.69,-352.65 328.19,-358.98 338.78,-359.32 336.69,-352.65"/>
</g>
<!-- Node3&#45;&gt;Node2 -->
<g id="edge3" class="edge">
<title>Node3&#45;&gt;Node2</title>
<path fill="none" stroke="midnightblue" d="M193.89,-263.06C171.48,-252.52 146.45,-240.75 124.89,-230.61"/>
<polygon fill="midnightblue" stroke="midnightblue" points="192.45,-266.25 202.99,-267.34 195.43,-259.91 192.45,-266.25"/>
</g>
<!-- Node4 -->
<g id="node4" class="node">
<title>Node4</title>
<g id="a_node4"><a xlink:href="_range_doppler_map_8h.html" target="_top" xlink:title="API for Range Doppler Map.">
<polygon fill="white" stroke="black" points="161,-178.5 161,-230.5 352,-230.5 352,-178.5 161,-178.5"/>
<text text-anchor="start" x="169" y="-218.5" font-family="Helvetica,sans-Serif" font-size="10.00">/home/jenkins/jenkins</text>
<text text-anchor="start" x="169" y="-207.5" font-family="Helvetica,sans-Serif" font-size="10.00">&#45;ci/workspace/er_release</text>
<text text-anchor="start" x="169" y="-196.5" font-family="Helvetica,sans-Serif" font-size="10.00">_release&#45;branch&#45;v3.3.1@2</text>
<text text-anchor="middle" x="256.5" y="-185.5" font-family="Helvetica,sans-Serif" font-size="10.00">/sdk/c/ifxRadar/RangeDopplerMap.h</text>
</a>
</g>
</g>
<!-- Node3&#45;&gt;Node4 -->
<g id="edge4" class="edge">
<title>Node3&#45;&gt;Node4</title>
<path fill="none" stroke="midnightblue" d="M256.5,-257.19C256.5,-248.28 256.5,-238.9 256.5,-230.61"/>
<polygon fill="midnightblue" stroke="midnightblue" points="253,-257.34 256.5,-267.34 260,-257.34 253,-257.34"/>
</g>
<!-- Node7 -->
<g id="node7" class="node">
<title>Node7</title>
<g id="a_node7"><a xlink:href="_range_spectrum_8h.html" target="_top" xlink:title="API for Range Spectrum.">
<polygon fill="white" stroke="black" points="370,-178.5 370,-230.5 549,-230.5 549,-178.5 370,-178.5"/>
<text text-anchor="start" x="378" y="-218.5" font-family="Helvetica,sans-Serif" font-size="10.00">/home/jenkins/jenkins</text>
<text text-anchor="start" x="378" y="-207.5" font-family="Helvetica,sans-Serif" font-size="10.00">&#45;ci/workspace/er_release</text>
<text text-anchor="start" x="378" y="-196.5" font-family="Helvetica,sans-Serif" font-size="10.00">_release&#45;branch&#45;v3.3.1@2</text>
<text text-anchor="middle" x="459.5" y="-185.5" font-family="Helvetica,sans-Serif" font-size="10.00">/sdk/c/ifxRadar/RangeSpectrum.h</text>
</a>
</g>
</g>
<!-- Node3&#45;&gt;Node7 -->
<g id="edge8" class="edge">
<title>Node3&#45;&gt;Node7</title>
<path fill="none" stroke="midnightblue" d="M324.32,-263.44C349.2,-252.77 377.13,-240.8 401.12,-230.52"/>
<polygon fill="midnightblue" stroke="midnightblue" points="322.76,-260.3 314.94,-267.45 325.51,-266.73 322.76,-260.3"/>
</g>
<!-- Node5 -->
<g id="node5" class="node">
<title>Node5</title>
<g id="a_node5"><a xlink:href="_radar_8h.html" target="_top" xlink:title="Header for ifxRadar.">
<polygon fill="white" stroke="black" points="309,-0.5 309,-52.5 452,-52.5 452,-0.5 309,-0.5"/>
<text text-anchor="start" x="317" y="-40.5" font-family="Helvetica,sans-Serif" font-size="10.00">/home/jenkins/jenkins</text>
<text text-anchor="start" x="317" y="-29.5" font-family="Helvetica,sans-Serif" font-size="10.00">&#45;ci/workspace/er_release</text>
<text text-anchor="start" x="317" y="-18.5" font-family="Helvetica,sans-Serif" font-size="10.00">_release&#45;branch&#45;v3.3.1@2</text>
<text text-anchor="middle" x="380.5" y="-7.5" font-family="Helvetica,sans-Serif" font-size="10.00">/sdk/c/ifxRadar/Radar.h</text>
</a>
</g>
</g>
<!-- Node4&#45;&gt;Node5 -->
<g id="edge5" class="edge">
<title>Node4&#45;&gt;Node5</title>
<path fill="none" stroke="midnightblue" d="M181.48,-172.97C169.48,-164.72 158.67,-154.51 151.5,-142 139.79,-121.56 137.17,-107.69 151.5,-89 170.7,-63.97 248.97,-46.87 308.72,-37.17"/>
<polygon fill="midnightblue" stroke="midnightblue" points="179.63,-175.94 189.95,-178.37 183.4,-170.04 179.63,-175.94"/>
</g>
<!-- Node6 -->
<g id="node6" class="node">
<title>Node6</title>
<g id="a_node6"><a xlink:href="_range_angle_image_8h.html" target="_top" xlink:title="API for Range Angle Image algorithm.">
<polygon fill="white" stroke="black" points="161,-89.5 161,-141.5 352,-141.5 352,-89.5 161,-89.5"/>
<text text-anchor="start" x="169" y="-129.5" font-family="Helvetica,sans-Serif" font-size="10.00">/home/jenkins/jenkins</text>
<text text-anchor="start" x="169" y="-118.5" font-family="Helvetica,sans-Serif" font-size="10.00">&#45;ci/workspace/er_release</text>
<text text-anchor="start" x="169" y="-107.5" font-family="Helvetica,sans-Serif" font-size="10.00">_release&#45;branch&#45;v3.3.1@2</text>
<text text-anchor="middle" x="256.5" y="-96.5" font-family="Helvetica,sans-Serif" font-size="10.00">/sdk/c/ifxRadar/RangeAngleImage.h</text>
</a>
</g>
</g>
<!-- Node4&#45;&gt;Node6 -->
<g id="edge6" class="edge">
<title>Node4&#45;&gt;Node6</title>
<path fill="none" stroke="midnightblue" d="M256.5,-168.19C256.5,-159.28 256.5,-149.9 256.5,-141.61"/>
<polygon fill="midnightblue" stroke="midnightblue" points="253,-168.34 256.5,-178.34 260,-168.34 253,-168.34"/>
</g>
<!-- Node6&#45;&gt;Node5 -->
<g id="edge7" class="edge">
<title>Node6&#45;&gt;Node5</title>
<path fill="none" stroke="midnightblue" d="M300.68,-83.5C315.12,-73.37 330.97,-62.25 344.71,-52.61"/>
<polygon fill="midnightblue" stroke="midnightblue" points="298.54,-80.73 292.37,-89.34 302.56,-86.46 298.54,-80.73"/>
</g>
<!-- Node7&#45;&gt;Node5 -->
<g id="edge11" class="edge">
<title>Node7&#45;&gt;Node5</title>
<path fill="none" stroke="midnightblue" d="M420.72,-171C412.55,-162.37 404.82,-152.5 399.5,-142 385.12,-113.6 381.25,-76.64 380.4,-52.5"/>
<polygon fill="midnightblue" stroke="midnightblue" points="418.41,-173.64 427.95,-178.25 423.36,-168.69 418.41,-173.64"/>
</g>
<!-- Node8 -->
<g id="node8" class="node">
<title>Node8</title>
<g id="a_node8"><a xlink:href="_presence_sensing_8h.html" target="_top" xlink:title="API for Presence Sensing algorithm.">
<polygon fill="white" stroke="black" points="408.5,-89.5 408.5,-141.5 592.5,-141.5 592.5,-89.5 408.5,-89.5"/>
<text text-anchor="start" x="416.5" y="-129.5" font-family="Helvetica,sans-Serif" font-size="10.00">/home/jenkins/jenkins</text>
<text text-anchor="start" x="416.5" y="-118.5" font-family="Helvetica,sans-Serif" font-size="10.00">&#45;ci/workspace/er_release</text>
<text text-anchor="start" x="416.5" y="-107.5" font-family="Helvetica,sans-Serif" font-size="10.00">_release&#45;branch&#45;v3.3.1@2</text>
<text text-anchor="middle" x="500.5" y="-96.5" font-family="Helvetica,sans-Serif" font-size="10.00">/sdk/c/ifxRadar/PresenceSensing.h</text>
</a>
</g>
</g>
<!-- Node7&#45;&gt;Node8 -->
<g id="edge9" class="edge">
<title>Node7&#45;&gt;Node8</title>
<path fill="none" stroke="midnightblue" d="M475.73,-169.06C480.05,-159.9 484.63,-150.17 488.67,-141.61"/>
<polygon fill="midnightblue" stroke="midnightblue" points="472.46,-167.8 471.36,-178.34 478.79,-170.78 472.46,-167.8"/>
</g>
<!-- Node8&#45;&gt;Node5 -->
<g id="edge10" class="edge">
<title>Node8&#45;&gt;Node5</title>
<path fill="none" stroke="midnightblue" d="M457.35,-83.22C443.48,-73.16 428.31,-62.16 415.13,-52.61"/>
<polygon fill="midnightblue" stroke="midnightblue" points="455.64,-86.3 465.79,-89.34 459.75,-80.63 455.64,-86.3"/>
</g>
<!-- Node9&#45;&gt;Node5 -->
<g id="edge13" class="edge">
<title>Node9&#45;&gt;Node5</title>
<path fill="none" stroke="midnightblue" d="M561.88,-259.32C595.06,-216.31 640.77,-140.69 601.5,-89 583.28,-65.02 509.45,-47.91 452.07,-37.92"/>
<polygon fill="midnightblue" stroke="midnightblue" points="559.09,-257.2 555.64,-267.22 564.59,-261.54 559.09,-257.2"/>
</g>
</g>
</svg>
