<?xml version="1.0" encoding="UTF-8" standalone="no"?>
<!DOCTYPE svg PUBLIC "-//W3C//DTD SVG 1.1//EN"
 "http://www.w3.org/Graphics/SVG/1.1/DTD/svg11.dtd">
<!-- Generated by graphviz version 2.43.0 (0)
 -->
<!-- Title: /home/jenkins/jenkins&#45;ci/workspace/er_release_release&#45;branch&#45;v3.3.1@2/sdk/c/ifxBase/Log.h Pages: 1 -->
<svg width="985pt" height="428pt"
 viewBox="0.00 0.00 985.23 428.00" xmlns="http://www.w3.org/2000/svg" xmlns:xlink="http://www.w3.org/1999/xlink">
<g id="graph0" class="graph" transform="scale(1 1) rotate(0) translate(4 424)">
<title>/home/jenkins/jenkins&#45;ci/workspace/er_release_release&#45;branch&#45;v3.3.1@2/sdk/c/ifxBase/Log.h</title>
<polygon fill="white" stroke="transparent" points="-4,4 -4,-424 981.23,-424 981.23,4 -4,4"/>
<!-- Node1 -->
<g id="node1" class="node">
<title>Node1</title>
<g id="a_node1"><a xlink:title="API for logging.">
<polygon fill="#bfbfbf" stroke="black" points="237.73,-367.5 237.73,-419.5 380.73,-419.5 380.73,-367.5 237.73,-367.5"/>
<text text-anchor="start" x="245.73" y="-407.5" font-family="Helvetica,sans-Serif" font-size="10.00">/home/jenkins/jenkins</text>
<text text-anchor="start" x="245.73" y="-396.5" font-family="Helvetica,sans-Serif" font-size="10.00">&#45;ci/workspace/er_release</text>
<text text-anchor="start" x="245.73" y="-385.5" font-family="Helvetica,sans-Serif" font-size="10.00">_release&#45;branch&#45;v3.3.1@2</text>
<text text-anchor="middle" x="309.23" y="-374.5" font-family="Helvetica,sans-Serif" font-size="10.00">/sdk/c/ifxBase/Log.h</text>
</a>
</g>
</g>
<!-- Node2 -->
<g id="node2" class="node">
<title>Node2</title>
<g id="a_node2"><a xlink:href="_base_8h.html" target="_top" xlink:title="Header for ifxBase.">
<polygon fill="white" stroke="black" points="150.73,-184 150.73,-236 293.73,-236 293.73,-184 150.73,-184"/>
<text text-anchor="start" x="158.73" y="-224" font-family="Helvetica,sans-Serif" font-size="10.00">/home/jenkins/jenkins</text>
<text text-anchor="start" x="158.73" y="-213" font-family="Helvetica,sans-Serif" font-size="10.00">&#45;ci/workspace/er_release</text>
<text text-anchor="start" x="158.73" y="-202" font-family="Helvetica,sans-Serif" font-size="10.00">_release&#45;branch&#45;v3.3.1@2</text>
<text text-anchor="middle" x="222.23" y="-191" font-family="Helvetica,sans-Serif" font-size="10.00">/sdk/c/ifxBase/Base.h</text>
</a>
</g>
</g>
<!-- Node1&#45;&gt;Node2 -->
<g id="edge1" class="edge">
<title>Node1&#45;&gt;Node2</title>
<path fill="none" stroke="midnightblue" d="M292.8,-358.21C275.73,-322.6 249.44,-267.75 234.23,-236.02"/>
<polygon fill="midnightblue" stroke="midnightblue" points="289.66,-359.76 297.14,-367.26 295.97,-356.73 289.66,-359.76"/>
</g>
<!-- Node3 -->
<g id="node3" class="node">
<title>Node3</title>
<g id="a_node3"><a xlink:href="_error_8h.html" target="_top" xlink:title="API for error handling.">
<polygon fill="white" stroke="black" points="324.73,-278.5 324.73,-330.5 467.73,-330.5 467.73,-278.5 324.73,-278.5"/>
<text text-anchor="start" x="332.73" y="-318.5" font-family="Helvetica,sans-Serif" font-size="10.00">/home/jenkins/jenkins</text>
<text text-anchor="start" x="332.73" y="-307.5" font-family="Helvetica,sans-Serif" font-size="10.00">&#45;ci/workspace/er_release</text>
<text text-anchor="start" x="332.73" y="-296.5" font-family="Helvetica,sans-Serif" font-size="10.00">_release&#45;branch&#45;v3.3.1@2</text>
<text text-anchor="middle" x="396.23" y="-285.5" font-family="Helvetica,sans-Serif" font-size="10.00">/sdk/c/ifxBase/Error.h</text>
</a>
</g>
</g>
<!-- Node1&#45;&gt;Node3 -->
<g id="edge2" class="edge">
<title>Node1&#45;&gt;Node3</title>
<path fill="none" stroke="midnightblue" d="M341.66,-360.08C351.4,-350.34 361.93,-339.8 371.13,-330.61"/>
<polygon fill="midnightblue" stroke="midnightblue" points="338.99,-357.79 334.4,-367.34 343.94,-362.74 338.99,-357.79"/>
</g>
<!-- Node3&#45;&gt;Node2 -->
<g id="edge13" class="edge">
<title>Node3&#45;&gt;Node2</title>
<path fill="none" stroke="midnightblue" d="M340.23,-273.73C317.37,-261.58 291.22,-247.67 269.36,-236.05"/>
<polygon fill="midnightblue" stroke="midnightblue" points="338.68,-276.86 349.15,-278.47 341.96,-270.68 338.68,-276.86"/>
</g>
<!-- Node4 -->
<g id="node4" class="node">
<title>Node4</title>
<g id="a_node4"><a xlink:href="_device_control_8h.html" target="_top" xlink:title="API for Radar device control operations.">
<polygon fill="white" stroke="black" points="311.73,-184 311.73,-236 480.73,-236 480.73,-184 311.73,-184"/>
<text text-anchor="start" x="319.73" y="-224" font-family="Helvetica,sans-Serif" font-size="10.00">/home/jenkins/jenkins</text>
<text text-anchor="start" x="319.73" y="-213" font-family="Helvetica,sans-Serif" font-size="10.00">&#45;ci/workspace/er_release</text>
<text text-anchor="start" x="319.73" y="-202" font-family="Helvetica,sans-Serif" font-size="10.00">_release&#45;branch&#45;v3.3.1@2</text>
<text text-anchor="middle" x="396.23" y="-191" font-family="Helvetica,sans-Serif" font-size="10.00">/sdk/c/ifxAvian/DeviceControl.h</text>
</a>
</g>
</g>
<!-- Node3&#45;&gt;Node4 -->
<g id="edge3" class="edge">
<title>Node3&#45;&gt;Node4</title>
<path fill="none" stroke="midnightblue" d="M396.23,-267.99C396.23,-257.41 396.23,-246.03 396.23,-236.25"/>
<polygon fill="midnightblue" stroke="midnightblue" points="392.73,-268.22 396.23,-278.22 399.73,-268.22 392.73,-268.22"/>
</g>
<!-- Node11 -->
<g id="node11" class="node">
<title>Node11</title>
<g id="a_node11"><a xlink:href="_device_l_t_r11_control_8h.html" target="_top" xlink:title="API for 60GHz Radar device BGT60LTR11 to configure and get raw data.">
<polygon fill="white" stroke="black" points="498.23,-178.5 498.23,-241.5 692.23,-241.5 692.23,-178.5 498.23,-178.5"/>
<text text-anchor="start" x="506.23" y="-229.5" font-family="Helvetica,sans-Serif" font-size="10.00">/home/jenkins/jenkins</text>
<text text-anchor="start" x="506.23" y="-218.5" font-family="Helvetica,sans-Serif" font-size="10.00">&#45;ci/workspace/er_release</text>
<text text-anchor="start" x="506.23" y="-207.5" font-family="Helvetica,sans-Serif" font-size="10.00">_release&#45;branch&#45;v3.3.1@2</text>
<text text-anchor="start" x="506.23" y="-196.5" font-family="Helvetica,sans-Serif" font-size="10.00">/sdk/c/ifxDopplerLTR11/DeviceLTR11</text>
<text text-anchor="middle" x="595.23" y="-185.5" font-family="Helvetica,sans-Serif" font-size="10.00">Control.h</text>
</a>
</g>
</g>
<!-- Node3&#45;&gt;Node11 -->
<g id="edge14" class="edge">
<title>Node3&#45;&gt;Node11</title>
<path fill="none" stroke="midnightblue" d="M459.44,-274.12C481.71,-263.77 506.78,-252.12 529.27,-241.66"/>
<polygon fill="midnightblue" stroke="midnightblue" points="457.68,-271.08 450.09,-278.47 460.63,-277.43 457.68,-271.08"/>
</g>
<!-- Node13 -->
<g id="node13" class="node">
<title>Node13</title>
<g id="a_node13"><a xlink:href="_util_8h.html" target="_top" xlink:title="This file defines some utility functions like printing to, reading from files or printing to console....">
<polygon fill="white" stroke="black" points="710.73,-184 710.73,-236 853.73,-236 853.73,-184 710.73,-184"/>
<text text-anchor="start" x="718.73" y="-224" font-family="Helvetica,sans-Serif" font-size="10.00">/home/jenkins/jenkins</text>
<text text-anchor="start" x="718.73" y="-213" font-family="Helvetica,sans-Serif" font-size="10.00">&#45;ci/workspace/er_release</text>
<text text-anchor="start" x="718.73" y="-202" font-family="Helvetica,sans-Serif" font-size="10.00">_release&#45;branch&#45;v3.3.1@2</text>
<text text-anchor="middle" x="782.23" y="-191" font-family="Helvetica,sans-Serif" font-size="10.00">/sdk/c/ifxUtil/Util.h</text>
</a>
</g>
</g>
<!-- Node3&#45;&gt;Node13 -->
<g id="edge16" class="edge">
<title>Node3&#45;&gt;Node13</title>
<path fill="none" stroke="midnightblue" d="M478.02,-290.82C539.95,-280.3 626.78,-263.59 701.23,-242 707.31,-240.24 713.57,-238.22 719.79,-236.08"/>
<polygon fill="midnightblue" stroke="midnightblue" points="477.2,-287.41 467.92,-292.52 478.36,-294.31 477.2,-287.41"/>
</g>
<!-- Node5 -->
<g id="node5" class="node">
<title>Node5</title>
<g id="a_node5"><a xlink:href="_avian_8h.html" target="_top" xlink:title="Header for ifxAvian.">
<polygon fill="white" stroke="black" points="148.73,-0.5 148.73,-52.5 291.73,-52.5 291.73,-0.5 148.73,-0.5"/>
<text text-anchor="start" x="156.73" y="-40.5" font-family="Helvetica,sans-Serif" font-size="10.00">/home/jenkins/jenkins</text>
<text text-anchor="start" x="156.73" y="-29.5" font-family="Helvetica,sans-Serif" font-size="10.00">&#45;ci/workspace/er_release</text>
<text text-anchor="start" x="156.73" y="-18.5" font-family="Helvetica,sans-Serif" font-size="10.00">_release&#45;branch&#45;v3.3.1@2</text>
<text text-anchor="middle" x="220.23" y="-7.5" font-family="Helvetica,sans-Serif" font-size="10.00">/sdk/c/ifxAvian/Avian.h</text>
</a>
</g>
</g>
<!-- Node4&#45;&gt;Node5 -->
<g id="edge4" class="edge">
<title>Node4&#45;&gt;Node5</title>
<path fill="none" stroke="midnightblue" d="M315.51,-181.27C311.04,-180.08 306.6,-178.98 302.23,-178 238.66,-163.73 54.39,-190.82 11.23,-142 -4.37,-124.35 -2.88,-107.86 11.23,-89 27.97,-66.63 95.01,-49.59 148.71,-39.19"/>
<polygon fill="midnightblue" stroke="midnightblue" points="314.73,-184.68 325.3,-183.99 316.61,-177.94 314.73,-184.68"/>
</g>
<!-- Node6 -->
<g id="node6" class="node">
<title>Node6</title>
<g id="a_node6"><a xlink:href="_constant_wave_control_8h.html" target="_top" xlink:title="Header for Constant Wave Control. It provides APIs to use an Avian device in constant wave mode....">
<polygon fill="white" stroke="black" points="20.23,-89.5 20.23,-141.5 226.23,-141.5 226.23,-89.5 20.23,-89.5"/>
<text text-anchor="start" x="28.23" y="-129.5" font-family="Helvetica,sans-Serif" font-size="10.00">/home/jenkins/jenkins</text>
<text text-anchor="start" x="28.23" y="-118.5" font-family="Helvetica,sans-Serif" font-size="10.00">&#45;ci/workspace/er_release</text>
<text text-anchor="start" x="28.23" y="-107.5" font-family="Helvetica,sans-Serif" font-size="10.00">_release&#45;branch&#45;v3.3.1@2</text>
<text text-anchor="middle" x="123.23" y="-96.5" font-family="Helvetica,sans-Serif" font-size="10.00">/sdk/c/ifxAvian/ConstantWaveControl.h</text>
</a>
</g>
</g>
<!-- Node4&#45;&gt;Node6 -->
<g id="edge5" class="edge">
<title>Node4&#45;&gt;Node6</title>
<path fill="none" stroke="midnightblue" d="M312.63,-180.67C275.78,-168.19 232.84,-153.64 197.17,-141.55"/>
<polygon fill="midnightblue" stroke="midnightblue" points="311.76,-184.07 322.36,-183.97 314.01,-177.44 311.76,-184.07"/>
</g>
<!-- Node7 -->
<g id="node7" class="node">
<title>Node7</title>
<g id="a_node7"><a xlink:href="_metrics_8h.html" target="_top" xlink:title="API for Metrics.">
<polygon fill="white" stroke="black" points="244.73,-89.5 244.73,-141.5 387.73,-141.5 387.73,-89.5 244.73,-89.5"/>
<text text-anchor="start" x="252.73" y="-129.5" font-family="Helvetica,sans-Serif" font-size="10.00">/home/jenkins/jenkins</text>
<text text-anchor="start" x="252.73" y="-118.5" font-family="Helvetica,sans-Serif" font-size="10.00">&#45;ci/workspace/er_release</text>
<text text-anchor="start" x="252.73" y="-107.5" font-family="Helvetica,sans-Serif" font-size="10.00">_release&#45;branch&#45;v3.3.1@2</text>
<text text-anchor="middle" x="316.23" y="-96.5" font-family="Helvetica,sans-Serif" font-size="10.00">/sdk/c/ifxAvian/Metrics.h</text>
</a>
</g>
</g>
<!-- Node4&#45;&gt;Node7 -->
<g id="edge7" class="edge">
<title>Node4&#45;&gt;Node7</title>
<path fill="none" stroke="midnightblue" d="M367.8,-176.12C358.02,-164.82 347.24,-152.35 338.07,-141.75"/>
<polygon fill="midnightblue" stroke="midnightblue" points="365.19,-178.45 374.37,-183.72 370.48,-173.87 365.19,-178.45"/>
</g>
<!-- Node8 -->
<g id="node8" class="node">
<title>Node8</title>
<g id="a_node8"><a xlink:href="_shapes_8h.html" target="_top" xlink:title=" ">
<polygon fill="white" stroke="black" points="405.73,-89.5 405.73,-141.5 548.73,-141.5 548.73,-89.5 405.73,-89.5"/>
<text text-anchor="start" x="413.73" y="-129.5" font-family="Helvetica,sans-Serif" font-size="10.00">/home/jenkins/jenkins</text>
<text text-anchor="start" x="413.73" y="-118.5" font-family="Helvetica,sans-Serif" font-size="10.00">&#45;ci/workspace/er_release</text>
<text text-anchor="start" x="413.73" y="-107.5" font-family="Helvetica,sans-Serif" font-size="10.00">_release&#45;branch&#45;v3.3.1@2</text>
<text text-anchor="middle" x="477.23" y="-96.5" font-family="Helvetica,sans-Serif" font-size="10.00">/sdk/c/ifxAvian/Shapes.h</text>
</a>
</g>
</g>
<!-- Node4&#45;&gt;Node8 -->
<g id="edge9" class="edge">
<title>Node4&#45;&gt;Node8</title>
<path fill="none" stroke="midnightblue" d="M425.03,-176.12C434.92,-164.82 445.84,-152.35 455.13,-141.75"/>
<polygon fill="midnightblue" stroke="midnightblue" points="422.32,-173.89 418.37,-183.72 427.59,-178.51 422.32,-173.89"/>
</g>
<!-- Node9 -->
<g id="node9" class="node">
<title>Node9</title>
<g id="a_node9"><a xlink:href="_presence_sensing_8h.html" target="_top" xlink:title="API for Presence Sensing algorithm.">
<polygon fill="white" stroke="black" points="567.23,-89.5 567.23,-141.5 751.23,-141.5 751.23,-89.5 567.23,-89.5"/>
<text text-anchor="start" x="575.23" y="-129.5" font-family="Helvetica,sans-Serif" font-size="10.00">/home/jenkins/jenkins</text>
<text text-anchor="start" x="575.23" y="-118.5" font-family="Helvetica,sans-Serif" font-size="10.00">&#45;ci/workspace/er_release</text>
<text text-anchor="start" x="575.23" y="-107.5" font-family="Helvetica,sans-Serif" font-size="10.00">_release&#45;branch&#45;v3.3.1@2</text>
<text text-anchor="middle" x="659.23" y="-96.5" font-family="Helvetica,sans-Serif" font-size="10.00">/sdk/c/ifxRadar/PresenceSensing.h</text>
</a>
</g>
</g>
<!-- Node4&#45;&gt;Node9 -->
<g id="edge11" class="edge">
<title>Node4&#45;&gt;Node9</title>
<path fill="none" stroke="midnightblue" d="M477.23,-180.51C512.63,-168.06 553.79,-153.59 588.01,-141.55"/>
<polygon fill="midnightblue" stroke="midnightblue" points="475.68,-177.35 467.41,-183.97 478,-183.95 475.68,-177.35"/>
</g>
<!-- Node6&#45;&gt;Node5 -->
<g id="edge6" class="edge">
<title>Node6&#45;&gt;Node5</title>
<path fill="none" stroke="midnightblue" d="M158.75,-82.65C169.78,-72.75 181.79,-61.98 192.24,-52.61"/>
<polygon fill="midnightblue" stroke="midnightblue" points="156.4,-80.05 151.29,-89.34 161.07,-85.26 156.4,-80.05"/>
</g>
<!-- Node7&#45;&gt;Node5 -->
<g id="edge8" class="edge">
<title>Node7&#45;&gt;Node5</title>
<path fill="none" stroke="midnightblue" d="M280.77,-82.36C269.94,-72.54 258.18,-61.89 247.94,-52.61"/>
<polygon fill="midnightblue" stroke="midnightblue" points="278.71,-85.21 288.47,-89.34 283.41,-80.03 278.71,-85.21"/>
</g>
<!-- Node8&#45;&gt;Node5 -->
<g id="edge10" class="edge">
<title>Node8&#45;&gt;Node5</title>
<path fill="none" stroke="midnightblue" d="M395.91,-86.97C362.52,-75.67 324.2,-62.69 291.88,-51.76"/>
<polygon fill="midnightblue" stroke="midnightblue" points="395.05,-90.37 405.65,-90.27 397.3,-83.74 395.05,-90.37"/>
</g>
<!-- Node10 -->
<g id="node10" class="node">
<title>Node10</title>
<g id="a_node10"><a xlink:href="_radar_8h.html" target="_top" xlink:title="Header for ifxRadar.">
<polygon fill="white" stroke="black" points="587.73,-0.5 587.73,-52.5 730.73,-52.5 730.73,-0.5 587.73,-0.5"/>
<text text-anchor="start" x="595.73" y="-40.5" font-family="Helvetica,sans-Serif" font-size="10.00">/home/jenkins/jenkins</text>
<text text-anchor="start" x="595.73" y="-29.5" font-family="Helvetica,sans-Serif" font-size="10.00">&#45;ci/workspace/er_release</text>
<text text-anchor="start" x="595.73" y="-18.5" font-family="Helvetica,sans-Serif" font-size="10.00">_release&#45;branch&#45;v3.3.1@2</text>
<text text-anchor="middle" x="659.23" y="-7.5" font-family="Helvetica,sans-Serif" font-size="10.00">/sdk/c/ifxRadar/Radar.h</text>
</a>
</g>
</g>
<!-- Node9&#45;&gt;Node10 -->
<g id="edge12" class="edge">
<title>Node9&#45;&gt;Node10</title>
<path fill="none" stroke="midnightblue" d="M659.23,-79.19C659.23,-70.28 659.23,-60.9 659.23,-52.61"/>
<polygon fill="midnightblue" stroke="midnightblue" points="655.73,-79.34 659.23,-89.34 662.73,-79.34 655.73,-79.34"/>
</g>
<!-- Node12 -->
<g id="node12" class="node">
<title>Node12</title>
<g id="a_node12"><a xlink:href="_doppler_l_t_r11_8h.html" target="_top" xlink:title="Main header file for ifxDopplerLTR11.">
<polygon fill="white" stroke="black" points="769.23,-89.5 769.23,-141.5 977.23,-141.5 977.23,-89.5 769.23,-89.5"/>
<text text-anchor="start" x="777.23" y="-129.5" font-family="Helvetica,sans-Serif" font-size="10.00">/home/jenkins/jenkins</text>
<text text-anchor="start" x="777.23" y="-118.5" font-family="Helvetica,sans-Serif" font-size="10.00">&#45;ci/workspace/er_release</text>
<text text-anchor="start" x="777.23" y="-107.5" font-family="Helvetica,sans-Serif" font-size="10.00">_release&#45;branch&#45;v3.3.1@2</text>
<text text-anchor="middle" x="873.23" y="-96.5" font-family="Helvetica,sans-Serif" font-size="10.00">/sdk/c/ifxDopplerLTR11/DopplerLTR11.h</text>
</a>
</g>
</g>
<!-- Node11&#45;&gt;Node12 -->
<g id="edge15" class="edge">
<title>Node11&#45;&gt;Node12</title>
<path fill="none" stroke="midnightblue" d="M696.82,-175.2C730.19,-164.1 766.67,-151.96 797.75,-141.62"/>
<polygon fill="midnightblue" stroke="midnightblue" points="695.42,-171.98 687.03,-178.46 697.63,-178.62 695.42,-171.98"/>
</g>
</g>
</svg>
