<?xml version="1.0" encoding="UTF-8" standalone="no"?>
<!DOCTYPE svg PUBLIC "-//W3C//DTD SVG 1.1//EN"
 "http://www.w3.org/Graphics/SVG/1.1/DTD/svg11.dtd">
<!-- Generated by graphviz version 2.43.0 (0)
 -->
<!-- Title: /home/jenkins/jenkins&#45;ci/workspace/er_release_release&#45;branch&#45;v3.3.1@2/sdk/c/ifxBase/Matrix.h Pages: 1 -->
<svg width="1909pt" height="439pt"
 viewBox="0.00 0.00 1909.00 439.00" xmlns="http://www.w3.org/2000/svg" xmlns:xlink="http://www.w3.org/1999/xlink">
<g id="graph0" class="graph" transform="scale(1 1) rotate(0) translate(4 435)">
<title>/home/jenkins/jenkins&#45;ci/workspace/er_release_release&#45;branch&#45;v3.3.1@2/sdk/c/ifxBase/Matrix.h</title>
<polygon fill="white" stroke="transparent" points="-4,4 -4,-435 1905,-435 1905,4 -4,4"/>
<!-- Node1 -->
<g id="node1" class="node">
<title>Node1</title>
<g id="a_node1"><a xlink:title="API for operations on Matrix data structures.">
<polygon fill="#bfbfbf" stroke="black" points="622,-378.5 622,-430.5 765,-430.5 765,-378.5 622,-378.5"/>
<text text-anchor="start" x="630" y="-418.5" font-family="Helvetica,sans-Serif" font-size="10.00">/home/jenkins/jenkins</text>
<text text-anchor="start" x="630" y="-407.5" font-family="Helvetica,sans-Serif" font-size="10.00">&#45;ci/workspace/er_release</text>
<text text-anchor="start" x="630" y="-396.5" font-family="Helvetica,sans-Serif" font-size="10.00">_release&#45;branch&#45;v3.3.1@2</text>
<text text-anchor="middle" x="693.5" y="-385.5" font-family="Helvetica,sans-Serif" font-size="10.00">/sdk/c/ifxBase/Matrix.h</text>
</a>
</g>
</g>
<!-- Node2 -->
<g id="node2" class="node">
<title>Node2</title>
<g id="a_node2"><a xlink:href="2_d_m_t_i_8h.html" target="_top" xlink:title="API for 2D Moving Target Indicator filter (2DMTI)">
<polygon fill="white" stroke="black" points="0,-289.5 0,-341.5 143,-341.5 143,-289.5 0,-289.5"/>
<text text-anchor="start" x="8" y="-329.5" font-family="Helvetica,sans-Serif" font-size="10.00">/home/jenkins/jenkins</text>
<text text-anchor="start" x="8" y="-318.5" font-family="Helvetica,sans-Serif" font-size="10.00">&#45;ci/workspace/er_release</text>
<text text-anchor="start" x="8" y="-307.5" font-family="Helvetica,sans-Serif" font-size="10.00">_release&#45;branch&#45;v3.3.1@2</text>
<text text-anchor="middle" x="71.5" y="-296.5" font-family="Helvetica,sans-Serif" font-size="10.00">/sdk/c/ifxAlgo/2DMTI.h</text>
</a>
</g>
</g>
<!-- Node1&#45;&gt;Node2 -->
<g id="edge1" class="edge">
<title>Node1&#45;&gt;Node2</title>
<path fill="none" stroke="midnightblue" d="M611.69,-399.21C504.87,-392.48 312.53,-376.45 151.5,-342 148.79,-341.42 146.04,-340.79 143.28,-340.11"/>
<polygon fill="midnightblue" stroke="midnightblue" points="611.56,-402.71 621.76,-399.83 611.99,-395.72 611.56,-402.71"/>
</g>
<!-- Node4 -->
<g id="node4" class="node">
<title>Node4</title>
<g id="a_node4"><a xlink:href="_o_s_c_f_a_r_8h.html" target="_top" xlink:title="API for 2D ordered statistic constant false alarm rate (OS&#45;CFAR) algorithm.">
<polygon fill="white" stroke="black" points="161,-289.5 161,-341.5 304,-341.5 304,-289.5 161,-289.5"/>
<text text-anchor="start" x="169" y="-329.5" font-family="Helvetica,sans-Serif" font-size="10.00">/home/jenkins/jenkins</text>
<text text-anchor="start" x="169" y="-318.5" font-family="Helvetica,sans-Serif" font-size="10.00">&#45;ci/workspace/er_release</text>
<text text-anchor="start" x="169" y="-307.5" font-family="Helvetica,sans-Serif" font-size="10.00">_release&#45;branch&#45;v3.3.1@2</text>
<text text-anchor="middle" x="232.5" y="-296.5" font-family="Helvetica,sans-Serif" font-size="10.00">/sdk/c/ifxAlgo/OSCFAR.h</text>
</a>
</g>
</g>
<!-- Node1&#45;&gt;Node4 -->
<g id="edge3" class="edge">
<title>Node1&#45;&gt;Node4</title>
<path fill="none" stroke="midnightblue" d="M611.76,-393.88C534.13,-383.9 414.48,-366.34 312.5,-342 309.81,-341.36 307.07,-340.67 304.32,-339.95"/>
<polygon fill="midnightblue" stroke="midnightblue" points="611.59,-397.39 621.95,-395.18 612.48,-390.44 611.59,-397.39"/>
</g>
<!-- Node5 -->
<g id="node5" class="node">
<title>Node5</title>
<g id="a_node5"><a xlink:href="_signal_8h.html" target="_top" xlink:title="API for digital filtering operations.">
<polygon fill="white" stroke="black" points="322,-289.5 322,-341.5 465,-341.5 465,-289.5 322,-289.5"/>
<text text-anchor="start" x="330" y="-329.5" font-family="Helvetica,sans-Serif" font-size="10.00">/home/jenkins/jenkins</text>
<text text-anchor="start" x="330" y="-318.5" font-family="Helvetica,sans-Serif" font-size="10.00">&#45;ci/workspace/er_release</text>
<text text-anchor="start" x="330" y="-307.5" font-family="Helvetica,sans-Serif" font-size="10.00">_release&#45;branch&#45;v3.3.1@2</text>
<text text-anchor="middle" x="393.5" y="-296.5" font-family="Helvetica,sans-Serif" font-size="10.00">/sdk/c/ifxAlgo/Signal.h</text>
</a>
</g>
</g>
<!-- Node1&#45;&gt;Node5 -->
<g id="edge5" class="edge">
<title>Node1&#45;&gt;Node5</title>
<path fill="none" stroke="midnightblue" d="M611.94,-380.24C572,-368.8 523.21,-354.76 479.5,-342 474.87,-340.65 470.09,-339.25 465.28,-337.83"/>
<polygon fill="midnightblue" stroke="midnightblue" points="611.06,-383.62 621.63,-383.01 612.98,-376.89 611.06,-383.62"/>
</g>
<!-- Node6 -->
<g id="node6" class="node">
<title>Node6</title>
<g id="a_node6"><a xlink:href="_base_8h.html" target="_top" xlink:title="Header for ifxBase.">
<polygon fill="white" stroke="black" points="336,-195 336,-247 479,-247 479,-195 336,-195"/>
<text text-anchor="start" x="344" y="-235" font-family="Helvetica,sans-Serif" font-size="10.00">/home/jenkins/jenkins</text>
<text text-anchor="start" x="344" y="-224" font-family="Helvetica,sans-Serif" font-size="10.00">&#45;ci/workspace/er_release</text>
<text text-anchor="start" x="344" y="-213" font-family="Helvetica,sans-Serif" font-size="10.00">_release&#45;branch&#45;v3.3.1@2</text>
<text text-anchor="middle" x="407.5" y="-202" font-family="Helvetica,sans-Serif" font-size="10.00">/sdk/c/ifxBase/Base.h</text>
</a>
</g>
</g>
<!-- Node1&#45;&gt;Node6 -->
<g id="edge7" class="edge">
<title>Node1&#45;&gt;Node6</title>
<path fill="none" stroke="midnightblue" d="M612.07,-387.15C578.98,-377.75 541.75,-363.41 512.5,-342 488.9,-324.72 492.48,-311.25 473.5,-289 461.21,-274.59 446.51,-259.48 434.1,-247.27"/>
<polygon fill="midnightblue" stroke="midnightblue" points="611.16,-390.53 621.73,-389.79 613.01,-383.78 611.16,-390.53"/>
</g>
<!-- Node7 -->
<g id="node7" class="node">
<title>Node7</title>
<g id="a_node7"><a xlink:href="_cube_8h.html" target="_top" xlink:title="API for operations on Cube data structures.">
<polygon fill="white" stroke="black" points="958,-289.5 958,-341.5 1101,-341.5 1101,-289.5 958,-289.5"/>
<text text-anchor="start" x="966" y="-329.5" font-family="Helvetica,sans-Serif" font-size="10.00">/home/jenkins/jenkins</text>
<text text-anchor="start" x="966" y="-318.5" font-family="Helvetica,sans-Serif" font-size="10.00">&#45;ci/workspace/er_release</text>
<text text-anchor="start" x="966" y="-307.5" font-family="Helvetica,sans-Serif" font-size="10.00">_release&#45;branch&#45;v3.3.1@2</text>
<text text-anchor="middle" x="1029.5" y="-296.5" font-family="Helvetica,sans-Serif" font-size="10.00">/sdk/c/ifxBase/Cube.h</text>
</a>
</g>
</g>
<!-- Node1&#45;&gt;Node7 -->
<g id="edge8" class="edge">
<title>Node1&#45;&gt;Node7</title>
<path fill="none" stroke="midnightblue" d="M775.04,-382.39C830.91,-367.92 904.33,-348.91 957.94,-335.03"/>
<polygon fill="midnightblue" stroke="midnightblue" points="773.97,-379.05 765.17,-384.94 775.73,-385.82 773.97,-379.05"/>
</g>
<!-- Node13 -->
<g id="node13" class="node">
<title>Node13</title>
<g id="a_node13"><a xlink:href="_presence_sensing_8h.html" target="_top" xlink:title="API for Presence Sensing algorithm.">
<polygon fill="white" stroke="black" points="640.5,-95 640.5,-147 824.5,-147 824.5,-95 640.5,-95"/>
<text text-anchor="start" x="648.5" y="-135" font-family="Helvetica,sans-Serif" font-size="10.00">/home/jenkins/jenkins</text>
<text text-anchor="start" x="648.5" y="-124" font-family="Helvetica,sans-Serif" font-size="10.00">&#45;ci/workspace/er_release</text>
<text text-anchor="start" x="648.5" y="-113" font-family="Helvetica,sans-Serif" font-size="10.00">_release&#45;branch&#45;v3.3.1@2</text>
<text text-anchor="middle" x="732.5" y="-102" font-family="Helvetica,sans-Serif" font-size="10.00">/sdk/c/ifxRadar/PresenceSensing.h</text>
</a>
</g>
</g>
<!-- Node1&#45;&gt;Node13 -->
<g id="edge33" class="edge">
<title>Node1&#45;&gt;Node13</title>
<path fill="none" stroke="midnightblue" d="M694.46,-367.99C696.11,-325.2 700.57,-251.28 712.5,-189 715.19,-174.93 719.65,-159.6 723.68,-147.15"/>
<polygon fill="midnightblue" stroke="midnightblue" points="690.95,-368.06 694.09,-378.17 697.95,-368.31 690.95,-368.06"/>
</g>
<!-- Node19 -->
<g id="node19" class="node">
<title>Node19</title>
<g id="a_node19"><a xlink:href="_segmentation_8h.html" target="_top" xlink:title="API for Segmentation and Seamless Tracking algorithm.">
<polygon fill="white" stroke="black" points="1581.5,-189.5 1581.5,-252.5 1739.5,-252.5 1739.5,-189.5 1581.5,-189.5"/>
<text text-anchor="start" x="1589.5" y="-240.5" font-family="Helvetica,sans-Serif" font-size="10.00">/home/jenkins/jenkins</text>
<text text-anchor="start" x="1589.5" y="-229.5" font-family="Helvetica,sans-Serif" font-size="10.00">&#45;ci/workspace/er_release</text>
<text text-anchor="start" x="1589.5" y="-218.5" font-family="Helvetica,sans-Serif" font-size="10.00">_release&#45;branch&#45;v3.3.1@2</text>
<text text-anchor="start" x="1589.5" y="-207.5" font-family="Helvetica,sans-Serif" font-size="10.00">/sdk/c/ifxRadarSegmentation</text>
<text text-anchor="middle" x="1660.5" y="-196.5" font-family="Helvetica,sans-Serif" font-size="10.00">/Segmentation.h</text>
</a>
</g>
</g>
<!-- Node1&#45;&gt;Node19 -->
<g id="edge40" class="edge">
<title>Node1&#45;&gt;Node19</title>
<path fill="none" stroke="midnightblue" d="M775.11,-396.95C877.56,-388.01 1058.44,-369.84 1211.5,-342 1374.08,-312.42 1414.16,-300.29 1572.5,-253 1575.45,-252.12 1578.44,-251.2 1581.46,-250.25"/>
<polygon fill="midnightblue" stroke="midnightblue" points="774.8,-393.46 765.14,-397.81 775.4,-400.44 774.8,-393.46"/>
</g>
<!-- Node21 -->
<g id="node21" class="node">
<title>Node21</title>
<g id="a_node21"><a xlink:href="_util_8h.html" target="_top" xlink:title="This file defines some utility functions like printing to, reading from files or printing to console....">
<polygon fill="white" stroke="black" points="1758,-195 1758,-247 1901,-247 1901,-195 1758,-195"/>
<text text-anchor="start" x="1766" y="-235" font-family="Helvetica,sans-Serif" font-size="10.00">/home/jenkins/jenkins</text>
<text text-anchor="start" x="1766" y="-224" font-family="Helvetica,sans-Serif" font-size="10.00">&#45;ci/workspace/er_release</text>
<text text-anchor="start" x="1766" y="-213" font-family="Helvetica,sans-Serif" font-size="10.00">_release&#45;branch&#45;v3.3.1@2</text>
<text text-anchor="middle" x="1829.5" y="-202" font-family="Helvetica,sans-Serif" font-size="10.00">/sdk/c/ifxUtil/Util.h</text>
</a>
</g>
</g>
<!-- Node1&#45;&gt;Node21 -->
<g id="edge41" class="edge">
<title>Node1&#45;&gt;Node21</title>
<path fill="none" stroke="midnightblue" d="M775.17,-398.98C898.74,-391.42 1140.36,-373.81 1343.5,-342 1525.58,-313.49 1571.95,-305.86 1748.5,-253 1754.41,-251.23 1760.51,-249.23 1766.58,-247.12"/>
<polygon fill="midnightblue" stroke="midnightblue" points="774.8,-395.5 765.03,-399.59 775.22,-402.48 774.8,-395.5"/>
</g>
<!-- Node22 -->
<g id="node22" class="node">
<title>Node22</title>
<g id="a_node22"><a xlink:href="_l_a_8h.html" target="_top" xlink:title="API for Linear Algebra (LA)">
<polygon fill="white" stroke="black" points="522,-289.5 522,-341.5 665,-341.5 665,-289.5 522,-289.5"/>
<text text-anchor="start" x="530" y="-329.5" font-family="Helvetica,sans-Serif" font-size="10.00">/home/jenkins/jenkins</text>
<text text-anchor="start" x="530" y="-318.5" font-family="Helvetica,sans-Serif" font-size="10.00">&#45;ci/workspace/er_release</text>
<text text-anchor="start" x="530" y="-307.5" font-family="Helvetica,sans-Serif" font-size="10.00">_release&#45;branch&#45;v3.3.1@2</text>
<text text-anchor="middle" x="593.5" y="-296.5" font-family="Helvetica,sans-Serif" font-size="10.00">/sdk/c/ifxBase/LA.h</text>
</a>
</g>
</g>
<!-- Node1&#45;&gt;Node22 -->
<g id="edge31" class="edge">
<title>Node1&#45;&gt;Node22</title>
<path fill="none" stroke="midnightblue" d="M656.89,-371.65C645.51,-361.75 633.13,-350.98 622.36,-341.61"/>
<polygon fill="midnightblue" stroke="midnightblue" points="654.73,-374.41 664.58,-378.34 659.33,-369.13 654.73,-374.41"/>
</g>
<!-- Node23 -->
<g id="node23" class="node">
<title>Node23</title>
<g id="a_node23"><a xlink:href="_range_doppler_map_8h.html" target="_top" xlink:title="API for Range Doppler Map.">
<polygon fill="white" stroke="black" points="1372,-195 1372,-247 1563,-247 1563,-195 1372,-195"/>
<text text-anchor="start" x="1380" y="-235" font-family="Helvetica,sans-Serif" font-size="10.00">/home/jenkins/jenkins</text>
<text text-anchor="start" x="1380" y="-224" font-family="Helvetica,sans-Serif" font-size="10.00">&#45;ci/workspace/er_release</text>
<text text-anchor="start" x="1380" y="-213" font-family="Helvetica,sans-Serif" font-size="10.00">_release&#45;branch&#45;v3.3.1@2</text>
<text text-anchor="middle" x="1467.5" y="-202" font-family="Helvetica,sans-Serif" font-size="10.00">/sdk/c/ifxRadar/RangeDopplerMap.h</text>
</a>
</g>
</g>
<!-- Node1&#45;&gt;Node23 -->
<g id="edge34" class="edge">
<title>Node1&#45;&gt;Node23</title>
<path fill="none" stroke="midnightblue" d="M775.31,-395.72C859.79,-386.69 995.05,-369.41 1109.5,-342 1214.84,-316.77 1333.36,-274.11 1404.15,-247.04"/>
<polygon fill="midnightblue" stroke="midnightblue" points="774.84,-392.25 765.26,-396.78 775.58,-399.21 774.84,-392.25"/>
</g>
<!-- Node24 -->
<g id="node24" class="node">
<title>Node24</title>
<g id="a_node24"><a xlink:href="_range_spectrum_8h.html" target="_top" xlink:title="API for Range Spectrum.">
<polygon fill="white" stroke="black" points="722,-195 722,-247 901,-247 901,-195 722,-195"/>
<text text-anchor="start" x="730" y="-235" font-family="Helvetica,sans-Serif" font-size="10.00">/home/jenkins/jenkins</text>
<text text-anchor="start" x="730" y="-224" font-family="Helvetica,sans-Serif" font-size="10.00">&#45;ci/workspace/er_release</text>
<text text-anchor="start" x="730" y="-213" font-family="Helvetica,sans-Serif" font-size="10.00">_release&#45;branch&#45;v3.3.1@2</text>
<text text-anchor="middle" x="811.5" y="-202" font-family="Helvetica,sans-Serif" font-size="10.00">/sdk/c/ifxRadar/RangeSpectrum.h</text>
</a>
</g>
</g>
<!-- Node1&#45;&gt;Node24 -->
<g id="edge37" class="edge">
<title>Node1&#45;&gt;Node24</title>
<path fill="none" stroke="midnightblue" d="M715.5,-369.66C738.64,-334.07 774.52,-278.89 795.23,-247.02"/>
<polygon fill="midnightblue" stroke="midnightblue" points="712.42,-367.97 709.91,-378.26 718.29,-371.79 712.42,-367.97"/>
</g>
<!-- Node3 -->
<g id="node3" class="node">
<title>Node3</title>
<g id="a_node3"><a xlink:href="_algo_8h.html" target="_top" xlink:title="Header for ifxAlgo.">
<polygon fill="white" stroke="black" points="161,-195 161,-247 304,-247 304,-195 161,-195"/>
<text text-anchor="start" x="169" y="-235" font-family="Helvetica,sans-Serif" font-size="10.00">/home/jenkins/jenkins</text>
<text text-anchor="start" x="169" y="-224" font-family="Helvetica,sans-Serif" font-size="10.00">&#45;ci/workspace/er_release</text>
<text text-anchor="start" x="169" y="-213" font-family="Helvetica,sans-Serif" font-size="10.00">_release&#45;branch&#45;v3.3.1@2</text>
<text text-anchor="middle" x="232.5" y="-202" font-family="Helvetica,sans-Serif" font-size="10.00">/sdk/c/ifxAlgo/Algo.h</text>
</a>
</g>
</g>
<!-- Node2&#45;&gt;Node3 -->
<g id="edge2" class="edge">
<title>Node2&#45;&gt;Node3</title>
<path fill="none" stroke="midnightblue" d="M123.88,-284.41C144.9,-272.33 168.85,-258.57 188.9,-247.05"/>
<polygon fill="midnightblue" stroke="midnightblue" points="122,-281.45 115.07,-289.47 125.48,-287.52 122,-281.45"/>
</g>
<!-- Node4&#45;&gt;Node3 -->
<g id="edge4" class="edge">
<title>Node4&#45;&gt;Node3</title>
<path fill="none" stroke="midnightblue" d="M232.5,-278.99C232.5,-268.41 232.5,-257.03 232.5,-247.25"/>
<polygon fill="midnightblue" stroke="midnightblue" points="229,-279.22 232.5,-289.22 236,-279.22 229,-279.22"/>
</g>
<!-- Node5&#45;&gt;Node3 -->
<g id="edge6" class="edge">
<title>Node5&#45;&gt;Node3</title>
<path fill="none" stroke="midnightblue" d="M341.12,-284.41C320.1,-272.33 296.15,-258.57 276.1,-247.05"/>
<polygon fill="midnightblue" stroke="midnightblue" points="339.52,-287.52 349.93,-289.47 343,-281.45 339.52,-287.52"/>
</g>
<!-- Node7&#45;&gt;Node6 -->
<g id="edge19" class="edge">
<title>Node7&#45;&gt;Node6</title>
<path fill="none" stroke="midnightblue" d="M947.79,-311.75C840.69,-306.66 647.63,-292.41 487.5,-253 480.85,-251.36 474,-249.31 467.25,-247.05"/>
<polygon fill="midnightblue" stroke="midnightblue" points="947.73,-315.25 957.88,-312.21 948.06,-308.25 947.73,-315.25"/>
</g>
<!-- Node8 -->
<g id="node8" class="node">
<title>Node8</title>
<g id="a_node8"><a xlink:href="_device_control_8h.html" target="_top" xlink:title="API for Radar device control operations.">
<polygon fill="white" stroke="black" points="497,-195 497,-247 666,-247 666,-195 497,-195"/>
<text text-anchor="start" x="505" y="-235" font-family="Helvetica,sans-Serif" font-size="10.00">/home/jenkins/jenkins</text>
<text text-anchor="start" x="505" y="-224" font-family="Helvetica,sans-Serif" font-size="10.00">&#45;ci/workspace/er_release</text>
<text text-anchor="start" x="505" y="-213" font-family="Helvetica,sans-Serif" font-size="10.00">_release&#45;branch&#45;v3.3.1@2</text>
<text text-anchor="middle" x="581.5" y="-202" font-family="Helvetica,sans-Serif" font-size="10.00">/sdk/c/ifxAvian/DeviceControl.h</text>
</a>
</g>
</g>
<!-- Node7&#45;&gt;Node8 -->
<g id="edge9" class="edge">
<title>Node7&#45;&gt;Node8</title>
<path fill="none" stroke="midnightblue" d="M947.83,-299.6C883.7,-287.68 792.22,-270.16 712.5,-253 697.53,-249.78 681.65,-246.18 666.3,-242.6"/>
<polygon fill="midnightblue" stroke="midnightblue" points="947.41,-303.08 957.88,-301.47 948.69,-296.2 947.41,-303.08"/>
</g>
<!-- Node15 -->
<g id="node15" class="node">
<title>Node15</title>
<g id="a_node15"><a xlink:href="_motion_angle_8h.html" target="_top" xlink:title=" ">
<polygon fill="white" stroke="black" points="1157.5,-195 1157.5,-247 1353.5,-247 1353.5,-195 1157.5,-195"/>
<text text-anchor="start" x="1165.5" y="-235" font-family="Helvetica,sans-Serif" font-size="10.00">/home/jenkins/jenkins</text>
<text text-anchor="start" x="1165.5" y="-224" font-family="Helvetica,sans-Serif" font-size="10.00">&#45;ci/workspace/er_release</text>
<text text-anchor="start" x="1165.5" y="-213" font-family="Helvetica,sans-Serif" font-size="10.00">_release&#45;branch&#45;v3.3.1@2</text>
<text text-anchor="middle" x="1255.5" y="-202" font-family="Helvetica,sans-Serif" font-size="10.00">/sdk/c/ifxMotionAngle/MotionAngle.h</text>
</a>
</g>
</g>
<!-- Node7&#45;&gt;Node15 -->
<g id="edge20" class="edge">
<title>Node7&#45;&gt;Node15</title>
<path fill="none" stroke="midnightblue" d="M1100.27,-285.53C1130.43,-273.19 1165.27,-258.93 1194.29,-247.05"/>
<polygon fill="midnightblue" stroke="midnightblue" points="1098.59,-282.44 1090.66,-289.47 1101.24,-288.92 1098.59,-282.44"/>
</g>
<!-- Node16 -->
<g id="node16" class="node">
<title>Node16</title>
<g id="a_node16"><a xlink:href="_angle_capon_8h.html" target="_top" xlink:title="API for the 1&#45;D Angle Capon algorithm.">
<polygon fill="white" stroke="black" points="880.5,-95 880.5,-147 1040.5,-147 1040.5,-95 880.5,-95"/>
<text text-anchor="start" x="888.5" y="-135" font-family="Helvetica,sans-Serif" font-size="10.00">/home/jenkins/jenkins</text>
<text text-anchor="start" x="888.5" y="-124" font-family="Helvetica,sans-Serif" font-size="10.00">&#45;ci/workspace/er_release</text>
<text text-anchor="start" x="888.5" y="-113" font-family="Helvetica,sans-Serif" font-size="10.00">_release&#45;branch&#45;v3.3.1@2</text>
<text text-anchor="middle" x="960.5" y="-102" font-family="Helvetica,sans-Serif" font-size="10.00">/sdk/c/ifxRadar/AngleCapon.h</text>
</a>
</g>
</g>
<!-- Node7&#45;&gt;Node16 -->
<g id="edge21" class="edge">
<title>Node7&#45;&gt;Node16</title>
<path fill="none" stroke="midnightblue" d="M973.74,-283.23C963.55,-274.81 954.32,-264.72 948.5,-253 931.75,-219.25 941.57,-174.58 950.68,-147.1"/>
<polygon fill="midnightblue" stroke="midnightblue" points="971.62,-286.01 981.68,-289.34 975.89,-280.47 971.62,-286.01"/>
</g>
<!-- Node17 -->
<g id="node17" class="node">
<title>Node17</title>
<g id="a_node17"><a xlink:href="_d_b_f_8h.html" target="_top" xlink:title="API for Digital Beamforming (DBF) algorithm.">
<polygon fill="white" stroke="black" points="958,-195 958,-247 1101,-247 1101,-195 958,-195"/>
<text text-anchor="start" x="966" y="-235" font-family="Helvetica,sans-Serif" font-size="10.00">/home/jenkins/jenkins</text>
<text text-anchor="start" x="966" y="-224" font-family="Helvetica,sans-Serif" font-size="10.00">&#45;ci/workspace/er_release</text>
<text text-anchor="start" x="966" y="-213" font-family="Helvetica,sans-Serif" font-size="10.00">_release&#45;branch&#45;v3.3.1@2</text>
<text text-anchor="middle" x="1029.5" y="-202" font-family="Helvetica,sans-Serif" font-size="10.00">/sdk/c/ifxRadar/DBF.h</text>
</a>
</g>
</g>
<!-- Node7&#45;&gt;Node17 -->
<g id="edge23" class="edge">
<title>Node7&#45;&gt;Node17</title>
<path fill="none" stroke="midnightblue" d="M1029.5,-278.99C1029.5,-268.41 1029.5,-257.03 1029.5,-247.25"/>
<polygon fill="midnightblue" stroke="midnightblue" points="1026,-279.22 1029.5,-289.22 1033,-279.22 1026,-279.22"/>
</g>
<!-- Node18 -->
<g id="node18" class="node">
<title>Node18</title>
<g id="a_node18"><a xlink:href="_range_angle_image_8h.html" target="_top" xlink:title="API for Range Angle Image algorithm.">
<polygon fill="white" stroke="black" points="1097,-95 1097,-147 1288,-147 1288,-95 1097,-95"/>
<text text-anchor="start" x="1105" y="-135" font-family="Helvetica,sans-Serif" font-size="10.00">/home/jenkins/jenkins</text>
<text text-anchor="start" x="1105" y="-124" font-family="Helvetica,sans-Serif" font-size="10.00">&#45;ci/workspace/er_release</text>
<text text-anchor="start" x="1105" y="-113" font-family="Helvetica,sans-Serif" font-size="10.00">_release&#45;branch&#45;v3.3.1@2</text>
<text text-anchor="middle" x="1192.5" y="-102" font-family="Helvetica,sans-Serif" font-size="10.00">/sdk/c/ifxRadar/RangeAngleImage.h</text>
</a>
</g>
</g>
<!-- Node7&#45;&gt;Node18 -->
<g id="edge27" class="edge">
<title>Node7&#45;&gt;Node18</title>
<path fill="none" stroke="midnightblue" d="M1076.47,-282.99C1088,-274.06 1099.8,-263.81 1109.5,-253 1131.75,-228.21 1130.69,-217.15 1148.5,-189 1157.36,-175.01 1167.49,-159.55 1175.79,-147"/>
<polygon fill="midnightblue" stroke="midnightblue" points="1074.04,-280.44 1068.16,-289.25 1078.25,-286.03 1074.04,-280.44"/>
</g>
<!-- Node7&#45;&gt;Node19 -->
<g id="edge28" class="edge">
<title>Node7&#45;&gt;Node19</title>
<path fill="none" stroke="midnightblue" d="M1111.18,-311C1218.28,-305.11 1411.49,-289.98 1572.5,-253 1575.34,-252.35 1578.22,-251.63 1581.11,-250.87"/>
<polygon fill="midnightblue" stroke="midnightblue" points="1110.88,-307.51 1101.09,-311.54 1111.26,-314.5 1110.88,-307.51"/>
</g>
<!-- Node7&#45;&gt;Node21 -->
<g id="edge30" class="edge">
<title>Node7&#45;&gt;Node21</title>
<path fill="none" stroke="midnightblue" d="M1111.43,-314.9C1246.1,-313.91 1521.93,-304.96 1748.5,-253 1755.4,-251.42 1762.49,-249.37 1769.48,-247.09"/>
<polygon fill="midnightblue" stroke="midnightblue" points="1111.17,-311.4 1101.19,-314.96 1111.21,-318.4 1111.17,-311.4"/>
</g>
<!-- Node9 -->
<g id="node9" class="node">
<title>Node9</title>
<g id="a_node9"><a xlink:href="_avian_8h.html" target="_top" xlink:title="Header for ifxAvian.">
<polygon fill="white" stroke="black" points="222,-0.5 222,-52.5 365,-52.5 365,-0.5 222,-0.5"/>
<text text-anchor="start" x="230" y="-40.5" font-family="Helvetica,sans-Serif" font-size="10.00">/home/jenkins/jenkins</text>
<text text-anchor="start" x="230" y="-29.5" font-family="Helvetica,sans-Serif" font-size="10.00">&#45;ci/workspace/er_release</text>
<text text-anchor="start" x="230" y="-18.5" font-family="Helvetica,sans-Serif" font-size="10.00">_release&#45;branch&#45;v3.3.1@2</text>
<text text-anchor="middle" x="293.5" y="-7.5" font-family="Helvetica,sans-Serif" font-size="10.00">/sdk/c/ifxAvian/Avian.h</text>
</a>
</g>
</g>
<!-- Node8&#45;&gt;Node9 -->
<g id="edge10" class="edge">
<title>Node8&#45;&gt;Node9</title>
<path fill="none" stroke="midnightblue" d="M501.64,-192.3C496.88,-191.07 492.15,-189.96 487.5,-189 443.47,-179.9 114.84,-186.17 84.5,-153 65.3,-132.01 67.46,-111.78 84.5,-89 101.24,-66.63 168.27,-49.59 221.97,-39.19"/>
<polygon fill="midnightblue" stroke="midnightblue" points="500.83,-195.7 511.4,-194.95 502.67,-188.95 500.83,-195.7"/>
</g>
<!-- Node10 -->
<g id="node10" class="node">
<title>Node10</title>
<g id="a_node10"><a xlink:href="_constant_wave_control_8h.html" target="_top" xlink:title="Header for Constant Wave Control. It provides APIs to use an Avian device in constant wave mode....">
<polygon fill="white" stroke="black" points="93.5,-95 93.5,-147 299.5,-147 299.5,-95 93.5,-95"/>
<text text-anchor="start" x="101.5" y="-135" font-family="Helvetica,sans-Serif" font-size="10.00">/home/jenkins/jenkins</text>
<text text-anchor="start" x="101.5" y="-124" font-family="Helvetica,sans-Serif" font-size="10.00">&#45;ci/workspace/er_release</text>
<text text-anchor="start" x="101.5" y="-113" font-family="Helvetica,sans-Serif" font-size="10.00">_release&#45;branch&#45;v3.3.1@2</text>
<text text-anchor="middle" x="196.5" y="-102" font-family="Helvetica,sans-Serif" font-size="10.00">/sdk/c/ifxAvian/ConstantWaveControl.h</text>
</a>
</g>
</g>
<!-- Node8&#45;&gt;Node10 -->
<g id="edge11" class="edge">
<title>Node8&#45;&gt;Node10</title>
<path fill="none" stroke="midnightblue" d="M498.51,-192.04C494.8,-190.98 491.12,-189.96 487.5,-189 409.05,-168.25 387.43,-171.84 308.5,-153 300.75,-151.15 292.72,-149.13 284.69,-147.04"/>
<polygon fill="midnightblue" stroke="midnightblue" points="497.79,-195.47 508.37,-194.94 499.77,-188.76 497.79,-195.47"/>
</g>
<!-- Node11 -->
<g id="node11" class="node">
<title>Node11</title>
<g id="a_node11"><a xlink:href="_metrics_8h.html" target="_top" xlink:title="API for Metrics.">
<polygon fill="white" stroke="black" points="318,-95 318,-147 461,-147 461,-95 318,-95"/>
<text text-anchor="start" x="326" y="-135" font-family="Helvetica,sans-Serif" font-size="10.00">/home/jenkins/jenkins</text>
<text text-anchor="start" x="326" y="-124" font-family="Helvetica,sans-Serif" font-size="10.00">&#45;ci/workspace/er_release</text>
<text text-anchor="start" x="326" y="-113" font-family="Helvetica,sans-Serif" font-size="10.00">_release&#45;branch&#45;v3.3.1@2</text>
<text text-anchor="middle" x="389.5" y="-102" font-family="Helvetica,sans-Serif" font-size="10.00">/sdk/c/ifxAvian/Metrics.h</text>
</a>
</g>
</g>
<!-- Node8&#45;&gt;Node11 -->
<g id="edge13" class="edge">
<title>Node8&#45;&gt;Node11</title>
<path fill="none" stroke="midnightblue" d="M523.11,-190.2C496.16,-176.44 464.51,-160.28 438.78,-147.15"/>
<polygon fill="midnightblue" stroke="midnightblue" points="521.56,-193.33 532.06,-194.76 524.74,-187.1 521.56,-193.33"/>
</g>
<!-- Node12 -->
<g id="node12" class="node">
<title>Node12</title>
<g id="a_node12"><a xlink:href="_shapes_8h.html" target="_top" xlink:title=" ">
<polygon fill="white" stroke="black" points="479,-95 479,-147 622,-147 622,-95 479,-95"/>
<text text-anchor="start" x="487" y="-135" font-family="Helvetica,sans-Serif" font-size="10.00">/home/jenkins/jenkins</text>
<text text-anchor="start" x="487" y="-124" font-family="Helvetica,sans-Serif" font-size="10.00">&#45;ci/workspace/er_release</text>
<text text-anchor="start" x="487" y="-113" font-family="Helvetica,sans-Serif" font-size="10.00">_release&#45;branch&#45;v3.3.1@2</text>
<text text-anchor="middle" x="550.5" y="-102" font-family="Helvetica,sans-Serif" font-size="10.00">/sdk/c/ifxAvian/Shapes.h</text>
</a>
</g>
</g>
<!-- Node8&#45;&gt;Node12 -->
<g id="edge15" class="edge">
<title>Node8&#45;&gt;Node12</title>
<path fill="none" stroke="midnightblue" d="M570.45,-185.08C566.49,-172.55 562.1,-158.69 558.46,-147.15"/>
<polygon fill="midnightblue" stroke="midnightblue" points="567.16,-186.28 573.52,-194.76 573.84,-184.17 567.16,-186.28"/>
</g>
<!-- Node8&#45;&gt;Node13 -->
<g id="edge17" class="edge">
<title>Node8&#45;&gt;Node13</title>
<path fill="none" stroke="midnightblue" d="M628.81,-189.3C649.7,-175.74 673.95,-160 693.75,-147.15"/>
<polygon fill="midnightblue" stroke="midnightblue" points="626.87,-186.38 620.39,-194.76 630.68,-192.25 626.87,-186.38"/>
</g>
<!-- Node10&#45;&gt;Node9 -->
<g id="edge12" class="edge">
<title>Node10&#45;&gt;Node9</title>
<path fill="none" stroke="midnightblue" d="M230.11,-87.95C242.26,-76.36 255.8,-63.45 267.23,-52.55"/>
<polygon fill="midnightblue" stroke="midnightblue" points="227.57,-85.53 222.75,-94.97 232.4,-90.6 227.57,-85.53"/>
</g>
<!-- Node11&#45;&gt;Node9 -->
<g id="edge14" class="edge">
<title>Node11&#45;&gt;Node9</title>
<path fill="none" stroke="midnightblue" d="M356.24,-87.95C344.21,-76.36 330.81,-63.45 319.5,-52.55"/>
<polygon fill="midnightblue" stroke="midnightblue" points="353.89,-90.55 363.52,-94.97 358.75,-85.51 353.89,-90.55"/>
</g>
<!-- Node12&#45;&gt;Node9 -->
<g id="edge16" class="edge">
<title>Node12&#45;&gt;Node9</title>
<path fill="none" stroke="midnightblue" d="M475.95,-91.38C473.78,-90.57 471.63,-89.78 469.5,-89 435.3,-76.49 397.18,-63.09 365.17,-52.01"/>
<polygon fill="midnightblue" stroke="midnightblue" points="474.98,-94.75 485.57,-94.96 477.42,-88.19 474.98,-94.75"/>
</g>
<!-- Node14 -->
<g id="node14" class="node">
<title>Node14</title>
<g id="a_node14"><a xlink:href="_radar_8h.html" target="_top" xlink:title="Header for ifxRadar.">
<polygon fill="white" stroke="black" points="943,-0.5 943,-52.5 1086,-52.5 1086,-0.5 943,-0.5"/>
<text text-anchor="start" x="951" y="-40.5" font-family="Helvetica,sans-Serif" font-size="10.00">/home/jenkins/jenkins</text>
<text text-anchor="start" x="951" y="-29.5" font-family="Helvetica,sans-Serif" font-size="10.00">&#45;ci/workspace/er_release</text>
<text text-anchor="start" x="951" y="-18.5" font-family="Helvetica,sans-Serif" font-size="10.00">_release&#45;branch&#45;v3.3.1@2</text>
<text text-anchor="middle" x="1014.5" y="-7.5" font-family="Helvetica,sans-Serif" font-size="10.00">/sdk/c/ifxRadar/Radar.h</text>
</a>
</g>
</g>
<!-- Node13&#45;&gt;Node14 -->
<g id="edge18" class="edge">
<title>Node13&#45;&gt;Node14</title>
<path fill="none" stroke="midnightblue" d="M818.51,-91.79C858.34,-78.72 905.11,-63.38 942.97,-50.96"/>
<polygon fill="midnightblue" stroke="midnightblue" points="817.22,-88.53 808.81,-94.97 819.41,-95.18 817.22,-88.53"/>
</g>
<!-- Node16&#45;&gt;Node14 -->
<g id="edge22" class="edge">
<title>Node16&#45;&gt;Node14</title>
<path fill="none" stroke="midnightblue" d="M980.46,-85.81C986.85,-74.86 993.81,-62.94 999.76,-52.75"/>
<polygon fill="midnightblue" stroke="midnightblue" points="977.27,-84.32 975.26,-94.72 983.32,-87.85 977.27,-84.32"/>
</g>
<!-- Node17&#45;&gt;Node14 -->
<g id="edge24" class="edge">
<title>Node17&#45;&gt;Node14</title>
<path fill="none" stroke="midnightblue" d="M1042.56,-184.91C1050.62,-158.29 1057.95,-120.95 1049.5,-89 1046.11,-76.17 1039.35,-63.22 1032.66,-52.54"/>
<polygon fill="midnightblue" stroke="midnightblue" points="1039.19,-183.97 1039.47,-194.56 1045.85,-186.1 1039.19,-183.97"/>
</g>
<!-- Node17&#45;&gt;Node18 -->
<g id="edge25" class="edge">
<title>Node17&#45;&gt;Node18</title>
<path fill="none" stroke="midnightblue" d="M1080.27,-189.48C1102.89,-175.88 1129.2,-160.06 1150.67,-147.15"/>
<polygon fill="midnightblue" stroke="midnightblue" points="1078.24,-186.61 1071.48,-194.76 1081.85,-192.61 1078.24,-186.61"/>
</g>
<!-- Node18&#45;&gt;Node14 -->
<g id="edge26" class="edge">
<title>Node18&#45;&gt;Node14</title>
<path fill="none" stroke="midnightblue" d="M1135.21,-90.23C1111.82,-78.08 1085.07,-64.17 1062.71,-52.55"/>
<polygon fill="midnightblue" stroke="midnightblue" points="1133.84,-93.46 1144.33,-94.97 1137.07,-87.25 1133.84,-93.46"/>
</g>
<!-- Node20 -->
<g id="node20" class="node">
<title>Node20</title>
<g id="a_node20"><a xlink:href="_radar_segmentation_8h.html" target="_top" xlink:title="Header for ifxRadarSegmentation.">
<polygon fill="white" stroke="black" points="1581.5,-89.5 1581.5,-152.5 1739.5,-152.5 1739.5,-89.5 1581.5,-89.5"/>
<text text-anchor="start" x="1589.5" y="-140.5" font-family="Helvetica,sans-Serif" font-size="10.00">/home/jenkins/jenkins</text>
<text text-anchor="start" x="1589.5" y="-129.5" font-family="Helvetica,sans-Serif" font-size="10.00">&#45;ci/workspace/er_release</text>
<text text-anchor="start" x="1589.5" y="-118.5" font-family="Helvetica,sans-Serif" font-size="10.00">_release&#45;branch&#45;v3.3.1@2</text>
<text text-anchor="start" x="1589.5" y="-107.5" font-family="Helvetica,sans-Serif" font-size="10.00">/sdk/c/ifxRadarSegmentation</text>
<text text-anchor="middle" x="1660.5" y="-96.5" font-family="Helvetica,sans-Serif" font-size="10.00">/RadarSegmentation.h</text>
</a>
</g>
</g>
<!-- Node19&#45;&gt;Node20 -->
<g id="edge29" class="edge">
<title>Node19&#45;&gt;Node20</title>
<path fill="none" stroke="midnightblue" d="M1660.5,-179.1C1660.5,-170.24 1660.5,-161.01 1660.5,-152.63"/>
<polygon fill="midnightblue" stroke="midnightblue" points="1657,-179.26 1660.5,-189.26 1664,-179.26 1657,-179.26"/>
</g>
<!-- Node22&#45;&gt;Node6 -->
<g id="edge32" class="edge">
<title>Node22&#45;&gt;Node6</title>
<path fill="none" stroke="midnightblue" d="M533.96,-284.89C509.44,-272.7 481.35,-258.73 457.87,-247.05"/>
<polygon fill="midnightblue" stroke="midnightblue" points="532.65,-288.15 543.17,-289.47 535.77,-281.88 532.65,-288.15"/>
</g>
<!-- Node23&#45;&gt;Node14 -->
<g id="edge35" class="edge">
<title>Node23&#45;&gt;Node14</title>
<path fill="none" stroke="midnightblue" d="M1435.21,-187.93C1403.02,-157.82 1350.83,-113.8 1297.5,-89 1229.68,-57.46 1145.13,-41.81 1086.19,-34.23"/>
<polygon fill="midnightblue" stroke="midnightblue" points="1432.89,-190.55 1442.56,-194.89 1437.7,-185.47 1432.89,-190.55"/>
</g>
<!-- Node23&#45;&gt;Node18 -->
<g id="edge36" class="edge">
<title>Node23&#45;&gt;Node18</title>
<path fill="none" stroke="midnightblue" d="M1387.19,-191.38C1347.78,-177.34 1300.75,-160.58 1262.78,-147.04"/>
<polygon fill="midnightblue" stroke="midnightblue" points="1386.44,-194.83 1397.04,-194.89 1388.79,-188.24 1386.44,-194.83"/>
</g>
<!-- Node24&#45;&gt;Node13 -->
<g id="edge38" class="edge">
<title>Node24&#45;&gt;Node13</title>
<path fill="none" stroke="midnightblue" d="M784.84,-186.93C774.36,-173.93 762.53,-159.26 752.78,-147.15"/>
<polygon fill="midnightblue" stroke="midnightblue" points="782.15,-189.17 791.16,-194.76 787.6,-184.78 782.15,-189.17"/>
</g>
<!-- Node24&#45;&gt;Node14 -->
<g id="edge39" class="edge">
<title>Node24&#45;&gt;Node14</title>
<path fill="none" stroke="midnightblue" d="M824.07,-185.43C836.94,-151.59 857.05,-103.12 871.5,-89 891.22,-69.74 917.92,-56.06 942.92,-46.58"/>
<polygon fill="midnightblue" stroke="midnightblue" points="820.73,-184.39 820.49,-194.98 827.28,-186.85 820.73,-184.39"/>
</g>
</g>
</svg>
