<?xml version="1.0" encoding="UTF-8" standalone="no"?>
<!DOCTYPE svg PUBLIC "-//W3C//DTD SVG 1.1//EN"
 "http://www.w3.org/Graphics/SVG/1.1/DTD/svg11.dtd">
<!-- Generated by graphviz version 2.43.0 (0)
 -->
<!-- Title: /home/jenkins/jenkins&#45;ci/workspace/er_release_release&#45;branch&#45;v3.3.1@2/sdk/c/ifxBase/Math.h Pages: 1 -->
<svg width="216pt" height="229pt"
 viewBox="0.00 0.00 215.50 229.00" xmlns="http://www.w3.org/2000/svg" xmlns:xlink="http://www.w3.org/1999/xlink">
<g id="graph0" class="graph" transform="scale(1 1) rotate(0) translate(4 225)">
<title>/home/jenkins/jenkins&#45;ci/workspace/er_release_release&#45;branch&#45;v3.3.1@2/sdk/c/ifxBase/Math.h</title>
<polygon fill="white" stroke="transparent" points="-4,4 -4,-225 211.5,-225 211.5,4 -4,4"/>
<!-- Node1 -->
<g id="node1" class="node">
<title>Node1</title>
<g id="a_node1"><a xlink:title="API for Mathematical operations.">
<polygon fill="#bfbfbf" stroke="black" points="28,-168.5 28,-220.5 171,-220.5 171,-168.5 28,-168.5"/>
<text text-anchor="start" x="36" y="-208.5" font-family="Helvetica,sans-Serif" font-size="10.00">/home/jenkins/jenkins</text>
<text text-anchor="start" x="36" y="-197.5" font-family="Helvetica,sans-Serif" font-size="10.00">&#45;ci/workspace/er_release</text>
<text text-anchor="start" x="36" y="-186.5" font-family="Helvetica,sans-Serif" font-size="10.00">_release&#45;branch&#45;v3.3.1@2</text>
<text text-anchor="middle" x="99.5" y="-175.5" font-family="Helvetica,sans-Serif" font-size="10.00">/sdk/c/ifxBase/Math.h</text>
</a>
</g>
</g>
<!-- Node2 -->
<g id="node2" class="node">
<title>Node2</title>
<g id="a_node2"><a xlink:href="ifx_base_2_types_8h.html" target="_top" xlink:title="Definitions of data types used within the SDK.">
<polygon fill="white" stroke="black" points="53,-56.5 53,-75.5 146,-75.5 146,-56.5 53,-56.5"/>
<text text-anchor="middle" x="99.5" y="-63.5" font-family="Helvetica,sans-Serif" font-size="10.00">ifxBase/Types.h</text>
</a>
</g>
</g>
<!-- Node1&#45;&gt;Node2 -->
<g id="edge1" class="edge">
<title>Node1&#45;&gt;Node2</title>
<path fill="none" stroke="midnightblue" d="M87.9,-168.25C81.94,-152.2 76.67,-130.94 80.5,-112 82.39,-102.65 86.29,-92.83 90.07,-84.75"/>
<polygon fill="midnightblue" stroke="midnightblue" points="93.29,-86.14 94.62,-75.63 87.03,-83.01 93.29,-86.14"/>
</g>
<!-- Node6 -->
<g id="node6" class="node">
<title>Node6</title>
<g id="a_node6"><a xlink:href="_vector_8h.html" target="_top" xlink:title="API for operations on Vector data structures.">
<polygon fill="white" stroke="black" points="90,-112.5 90,-131.5 185,-131.5 185,-112.5 90,-112.5"/>
<text text-anchor="middle" x="137.5" y="-119.5" font-family="Helvetica,sans-Serif" font-size="10.00">ifxBase/Vector.h</text>
</a>
</g>
</g>
<!-- Node1&#45;&gt;Node6 -->
<g id="edge5" class="edge">
<title>Node1&#45;&gt;Node6</title>
<path fill="none" stroke="midnightblue" d="M113,-168.45C117.97,-159.23 123.49,-149 128.03,-140.58"/>
<polygon fill="midnightblue" stroke="midnightblue" points="131.15,-142.16 132.81,-131.7 124.99,-138.84 131.15,-142.16"/>
</g>
<!-- Node3 -->
<g id="node3" class="node">
<title>Node3</title>
<g id="a_node3"><a xlink:title=" ">
<polygon fill="white" stroke="#bfbfbf" points="0,-0.5 0,-19.5 53,-19.5 53,-0.5 0,-0.5"/>
<text text-anchor="middle" x="26.5" y="-7.5" font-family="Helvetica,sans-Serif" font-size="10.00">stdint.h</text>
</a>
</g>
</g>
<!-- Node2&#45;&gt;Node3 -->
<g id="edge2" class="edge">
<title>Node2&#45;&gt;Node3</title>
<path fill="none" stroke="midnightblue" d="M87.77,-56.32C76.66,-48.11 59.76,-35.6 46.52,-25.81"/>
<polygon fill="midnightblue" stroke="midnightblue" points="48.56,-22.97 38.44,-19.83 44.4,-28.59 48.56,-22.97"/>
</g>
<!-- Node4 -->
<g id="node4" class="node">
<title>Node4</title>
<g id="a_node4"><a xlink:title=" ">
<polygon fill="white" stroke="#bfbfbf" points="71.5,-0.5 71.5,-19.5 127.5,-19.5 127.5,-0.5 71.5,-0.5"/>
<text text-anchor="middle" x="99.5" y="-7.5" font-family="Helvetica,sans-Serif" font-size="10.00">stddef.h</text>
</a>
</g>
</g>
<!-- Node2&#45;&gt;Node4 -->
<g id="edge3" class="edge">
<title>Node2&#45;&gt;Node4</title>
<path fill="none" stroke="midnightblue" d="M99.5,-56.08C99.5,-49.01 99.5,-38.86 99.5,-29.99"/>
<polygon fill="midnightblue" stroke="midnightblue" points="103,-29.75 99.5,-19.75 96,-29.75 103,-29.75"/>
</g>
<!-- Node5 -->
<g id="node5" class="node">
<title>Node5</title>
<g id="a_node5"><a xlink:title=" ">
<polygon fill="white" stroke="#bfbfbf" points="145.5,-0.5 145.5,-19.5 207.5,-19.5 207.5,-0.5 145.5,-0.5"/>
<text text-anchor="middle" x="176.5" y="-7.5" font-family="Helvetica,sans-Serif" font-size="10.00">stdbool.h</text>
</a>
</g>
</g>
<!-- Node2&#45;&gt;Node5 -->
<g id="edge4" class="edge">
<title>Node2&#45;&gt;Node5</title>
<path fill="none" stroke="midnightblue" d="M111.87,-56.32C123.66,-48.06 141.63,-35.45 155.64,-25.63"/>
<polygon fill="midnightblue" stroke="midnightblue" points="157.98,-28.26 164.16,-19.65 153.96,-22.53 157.98,-28.26"/>
</g>
<!-- Node6&#45;&gt;Node2 -->
<g id="edge6" class="edge">
<title>Node6&#45;&gt;Node2</title>
<path fill="none" stroke="midnightblue" d="M131.23,-112.08C125.86,-104.46 117.98,-93.26 111.42,-83.94"/>
<polygon fill="midnightblue" stroke="midnightblue" points="114.28,-81.91 105.66,-75.75 108.55,-85.94 114.28,-81.91"/>
</g>
</g>
</svg>
