<?xml version="1.0" encoding="UTF-8" standalone="no"?>
<!DOCTYPE svg PUBLIC "-//W3C//DTD SVG 1.1//EN"
 "http://www.w3.org/Graphics/SVG/1.1/DTD/svg11.dtd">
<!-- Generated by graphviz version 2.43.0 (0)
 -->
<!-- Title: /home/jenkins/jenkins&#45;ci/workspace/er_release_release&#45;branch&#45;v3.3.1@2/sdk/c/ifxBase/Math.h Pages: 1 -->
<svg width="2120pt" height="528pt"
 viewBox="0.00 0.00 2119.50 528.00" xmlns="http://www.w3.org/2000/svg" xmlns:xlink="http://www.w3.org/1999/xlink">
<g id="graph0" class="graph" transform="scale(1 1) rotate(0) translate(4 524)">
<title>/home/jenkins/jenkins&#45;ci/workspace/er_release_release&#45;branch&#45;v3.3.1@2/sdk/c/ifxBase/Math.h</title>
<polygon fill="white" stroke="transparent" points="-4,4 -4,-524 2115.5,-524 2115.5,4 -4,4"/>
<!-- Node1 -->
<g id="node1" class="node">
<title>Node1</title>
<g id="a_node1"><a xlink:title="API for Mathematical operations.">
<polygon fill="#bfbfbf" stroke="black" points="598,-467.5 598,-519.5 741,-519.5 741,-467.5 598,-467.5"/>
<text text-anchor="start" x="606" y="-507.5" font-family="Helvetica,sans-Serif" font-size="10.00">/home/jenkins/jenkins</text>
<text text-anchor="start" x="606" y="-496.5" font-family="Helvetica,sans-Serif" font-size="10.00">&#45;ci/workspace/er_release</text>
<text text-anchor="start" x="606" y="-485.5" font-family="Helvetica,sans-Serif" font-size="10.00">_release&#45;branch&#45;v3.3.1@2</text>
<text text-anchor="middle" x="669.5" y="-474.5" font-family="Helvetica,sans-Serif" font-size="10.00">/sdk/c/ifxBase/Math.h</text>
</a>
</g>
</g>
<!-- Node2 -->
<g id="node2" class="node">
<title>Node2</title>
<g id="a_node2"><a xlink:href="_preprocessed_f_f_t_8h.html" target="_top" xlink:title="API for Pre&#45;processed FFT.">
<polygon fill="white" stroke="black" points="270.5,-289.5 270.5,-341.5 446.5,-341.5 446.5,-289.5 270.5,-289.5"/>
<text text-anchor="start" x="278.5" y="-329.5" font-family="Helvetica,sans-Serif" font-size="10.00">/home/jenkins/jenkins</text>
<text text-anchor="start" x="278.5" y="-318.5" font-family="Helvetica,sans-Serif" font-size="10.00">&#45;ci/workspace/er_release</text>
<text text-anchor="start" x="278.5" y="-307.5" font-family="Helvetica,sans-Serif" font-size="10.00">_release&#45;branch&#45;v3.3.1@2</text>
<text text-anchor="middle" x="358.5" y="-296.5" font-family="Helvetica,sans-Serif" font-size="10.00">/sdk/c/ifxAlgo/PreprocessedFFT.h</text>
</a>
</g>
</g>
<!-- Node1&#45;&gt;Node2 -->
<g id="edge1" class="edge">
<title>Node1&#45;&gt;Node2</title>
<path fill="none" stroke="midnightblue" d="M616.3,-462.39C556.09,-428.32 459.1,-373.43 402.83,-341.59"/>
<polygon fill="midnightblue" stroke="midnightblue" points="614.84,-465.59 625.27,-467.47 618.29,-459.5 614.84,-465.59"/>
</g>
<!-- Node9 -->
<g id="node9" class="node">
<title>Node9</title>
<g id="a_node9"><a xlink:href="_base_8h.html" target="_top" xlink:title="Header for ifxBase.">
<polygon fill="white" stroke="black" points="567,-195 567,-247 710,-247 710,-195 567,-195"/>
<text text-anchor="start" x="575" y="-235" font-family="Helvetica,sans-Serif" font-size="10.00">/home/jenkins/jenkins</text>
<text text-anchor="start" x="575" y="-224" font-family="Helvetica,sans-Serif" font-size="10.00">&#45;ci/workspace/er_release</text>
<text text-anchor="start" x="575" y="-213" font-family="Helvetica,sans-Serif" font-size="10.00">_release&#45;branch&#45;v3.3.1@2</text>
<text text-anchor="middle" x="638.5" y="-202" font-family="Helvetica,sans-Serif" font-size="10.00">/sdk/c/ifxBase/Base.h</text>
</a>
</g>
</g>
<!-- Node1&#45;&gt;Node9 -->
<g id="edge11" class="edge">
<title>Node1&#45;&gt;Node9</title>
<path fill="none" stroke="midnightblue" d="M662.06,-457.64C660.38,-448.97 658.74,-439.67 657.5,-431 648.09,-364.99 642.42,-286.56 639.96,-247.19"/>
<polygon fill="midnightblue" stroke="midnightblue" points="658.63,-458.34 664.01,-467.46 665.49,-456.97 658.63,-458.34"/>
</g>
<!-- Node10 -->
<g id="node10" class="node">
<title>Node10</title>
<g id="a_node10"><a xlink:href="_defines_8h.html" target="_top" xlink:title="Internal definitions used by standard math.h functions as Macros, to use float or double precision.">
<polygon fill="white" stroke="black" points="667,-378.5 667,-430.5 810,-430.5 810,-378.5 667,-378.5"/>
<text text-anchor="start" x="675" y="-418.5" font-family="Helvetica,sans-Serif" font-size="10.00">/home/jenkins/jenkins</text>
<text text-anchor="start" x="675" y="-407.5" font-family="Helvetica,sans-Serif" font-size="10.00">&#45;ci/workspace/er_release</text>
<text text-anchor="start" x="675" y="-396.5" font-family="Helvetica,sans-Serif" font-size="10.00">_release&#45;branch&#45;v3.3.1@2</text>
<text text-anchor="middle" x="738.5" y="-385.5" font-family="Helvetica,sans-Serif" font-size="10.00">/sdk/c/ifxBase/Defines.h</text>
</a>
</g>
</g>
<!-- Node1&#45;&gt;Node10 -->
<g id="edge12" class="edge">
<title>Node1&#45;&gt;Node10</title>
<path fill="none" stroke="midnightblue" d="M695.9,-459.22C703.43,-449.72 711.51,-439.53 718.59,-430.61"/>
<polygon fill="midnightblue" stroke="midnightblue" points="692.93,-457.33 689.46,-467.34 698.41,-461.68 692.93,-457.33"/>
</g>
<!-- Node25 -->
<g id="node25" class="node">
<title>Node25</title>
<g id="a_node25"><a xlink:href="_spectrum_axis_8h.html" target="_top" xlink:title="API for Spectrum Axis used by Range spectrum, Range Doppler and Range Angle Map modules.">
<polygon fill="white" stroke="black" points="1076,-378.5 1076,-430.5 1245,-430.5 1245,-378.5 1076,-378.5"/>
<text text-anchor="start" x="1084" y="-418.5" font-family="Helvetica,sans-Serif" font-size="10.00">/home/jenkins/jenkins</text>
<text text-anchor="start" x="1084" y="-407.5" font-family="Helvetica,sans-Serif" font-size="10.00">&#45;ci/workspace/er_release</text>
<text text-anchor="start" x="1084" y="-396.5" font-family="Helvetica,sans-Serif" font-size="10.00">_release&#45;branch&#45;v3.3.1@2</text>
<text text-anchor="middle" x="1160.5" y="-385.5" font-family="Helvetica,sans-Serif" font-size="10.00">/sdk/c/ifxRadar/SpectrumAxis.h</text>
</a>
</g>
</g>
<!-- Node1&#45;&gt;Node25 -->
<g id="edge40" class="edge">
<title>Node1&#45;&gt;Node25</title>
<path fill="none" stroke="midnightblue" d="M751.03,-478.05C840.92,-462.13 984.84,-436.63 1075.92,-420.49"/>
<polygon fill="midnightblue" stroke="midnightblue" points="750.39,-474.61 741.16,-479.8 751.62,-481.5 750.39,-474.61"/>
</g>
<!-- Node3 -->
<g id="node3" class="node">
<title>Node3</title>
<g id="a_node3"><a xlink:href="_algo_8h.html" target="_top" xlink:title="Header for ifxAlgo.">
<polygon fill="white" stroke="black" points="0,-195 0,-247 143,-247 143,-195 0,-195"/>
<text text-anchor="start" x="8" y="-235" font-family="Helvetica,sans-Serif" font-size="10.00">/home/jenkins/jenkins</text>
<text text-anchor="start" x="8" y="-224" font-family="Helvetica,sans-Serif" font-size="10.00">&#45;ci/workspace/er_release</text>
<text text-anchor="start" x="8" y="-213" font-family="Helvetica,sans-Serif" font-size="10.00">_release&#45;branch&#45;v3.3.1@2</text>
<text text-anchor="middle" x="71.5" y="-202" font-family="Helvetica,sans-Serif" font-size="10.00">/sdk/c/ifxAlgo/Algo.h</text>
</a>
</g>
</g>
<!-- Node2&#45;&gt;Node3 -->
<g id="edge2" class="edge">
<title>Node2&#45;&gt;Node3</title>
<path fill="none" stroke="midnightblue" d="M260.72,-287.21C226.03,-277.07 186.85,-265.08 151.5,-253 146,-251.12 140.32,-249.1 134.65,-247.01"/>
<polygon fill="midnightblue" stroke="midnightblue" points="259.8,-290.59 270.38,-290.02 261.75,-283.87 259.8,-290.59"/>
</g>
<!-- Node4 -->
<g id="node4" class="node">
<title>Node4</title>
<g id="a_node4"><a xlink:href="_range_doppler_map_8h.html" target="_top" xlink:title="API for Range Doppler Map.">
<polygon fill="white" stroke="black" points="161,-195 161,-247 352,-247 352,-195 161,-195"/>
<text text-anchor="start" x="169" y="-235" font-family="Helvetica,sans-Serif" font-size="10.00">/home/jenkins/jenkins</text>
<text text-anchor="start" x="169" y="-224" font-family="Helvetica,sans-Serif" font-size="10.00">&#45;ci/workspace/er_release</text>
<text text-anchor="start" x="169" y="-213" font-family="Helvetica,sans-Serif" font-size="10.00">_release&#45;branch&#45;v3.3.1@2</text>
<text text-anchor="middle" x="256.5" y="-202" font-family="Helvetica,sans-Serif" font-size="10.00">/sdk/c/ifxRadar/RangeDopplerMap.h</text>
</a>
</g>
</g>
<!-- Node2&#45;&gt;Node4 -->
<g id="edge3" class="edge">
<title>Node2&#45;&gt;Node4</title>
<path fill="none" stroke="midnightblue" d="M323.16,-282.45C310.38,-270.86 296.15,-257.95 284.12,-247.05"/>
<polygon fill="midnightblue" stroke="midnightblue" points="321.14,-285.34 330.9,-289.47 325.84,-280.16 321.14,-285.34"/>
</g>
<!-- Node7 -->
<g id="node7" class="node">
<title>Node7</title>
<g id="a_node7"><a xlink:href="_range_spectrum_8h.html" target="_top" xlink:title="API for Range Spectrum.">
<polygon fill="white" stroke="black" points="370,-195 370,-247 549,-247 549,-195 370,-195"/>
<text text-anchor="start" x="378" y="-235" font-family="Helvetica,sans-Serif" font-size="10.00">/home/jenkins/jenkins</text>
<text text-anchor="start" x="378" y="-224" font-family="Helvetica,sans-Serif" font-size="10.00">&#45;ci/workspace/er_release</text>
<text text-anchor="start" x="378" y="-213" font-family="Helvetica,sans-Serif" font-size="10.00">_release&#45;branch&#45;v3.3.1@2</text>
<text text-anchor="middle" x="459.5" y="-202" font-family="Helvetica,sans-Serif" font-size="10.00">/sdk/c/ifxRadar/RangeSpectrum.h</text>
</a>
</g>
</g>
<!-- Node2&#45;&gt;Node7 -->
<g id="edge7" class="edge">
<title>Node2&#45;&gt;Node7</title>
<path fill="none" stroke="midnightblue" d="M393.49,-282.45C406.15,-270.86 420.24,-257.95 432.15,-247.05"/>
<polygon fill="midnightblue" stroke="midnightblue" points="390.84,-280.13 385.83,-289.47 395.57,-285.3 390.84,-280.13"/>
</g>
<!-- Node5 -->
<g id="node5" class="node">
<title>Node5</title>
<g id="a_node5"><a xlink:href="_radar_8h.html" target="_top" xlink:title="Header for ifxRadar.">
<polygon fill="white" stroke="black" points="808,-0.5 808,-52.5 951,-52.5 951,-0.5 808,-0.5"/>
<text text-anchor="start" x="816" y="-40.5" font-family="Helvetica,sans-Serif" font-size="10.00">/home/jenkins/jenkins</text>
<text text-anchor="start" x="816" y="-29.5" font-family="Helvetica,sans-Serif" font-size="10.00">&#45;ci/workspace/er_release</text>
<text text-anchor="start" x="816" y="-18.5" font-family="Helvetica,sans-Serif" font-size="10.00">_release&#45;branch&#45;v3.3.1@2</text>
<text text-anchor="middle" x="879.5" y="-7.5" font-family="Helvetica,sans-Serif" font-size="10.00">/sdk/c/ifxRadar/Radar.h</text>
</a>
</g>
</g>
<!-- Node4&#45;&gt;Node5 -->
<g id="edge4" class="edge">
<title>Node4&#45;&gt;Node5</title>
<path fill="none" stroke="midnightblue" d="M293.93,-188.56C332.57,-157.91 395.87,-112.59 458.5,-89 575.67,-44.87 722.24,-32.22 807.92,-28.71"/>
<polygon fill="midnightblue" stroke="midnightblue" points="291.68,-185.88 286.07,-194.86 296.06,-191.34 291.68,-185.88"/>
</g>
<!-- Node6 -->
<g id="node6" class="node">
<title>Node6</title>
<g id="a_node6"><a xlink:href="_range_angle_image_8h.html" target="_top" xlink:title="API for Range Angle Image algorithm.">
<polygon fill="white" stroke="black" points="881,-95 881,-147 1072,-147 1072,-95 881,-95"/>
<text text-anchor="start" x="889" y="-135" font-family="Helvetica,sans-Serif" font-size="10.00">/home/jenkins/jenkins</text>
<text text-anchor="start" x="889" y="-124" font-family="Helvetica,sans-Serif" font-size="10.00">&#45;ci/workspace/er_release</text>
<text text-anchor="start" x="889" y="-113" font-family="Helvetica,sans-Serif" font-size="10.00">_release&#45;branch&#45;v3.3.1@2</text>
<text text-anchor="middle" x="976.5" y="-102" font-family="Helvetica,sans-Serif" font-size="10.00">/sdk/c/ifxRadar/RangeAngleImage.h</text>
</a>
</g>
</g>
<!-- Node4&#45;&gt;Node6 -->
<g id="edge5" class="edge">
<title>Node4&#45;&gt;Node6</title>
<path fill="none" stroke="midnightblue" d="M343.3,-192.6C349.09,-191.25 354.86,-190.03 360.5,-189 584.5,-148.24 647.45,-193.47 871.5,-153 880.38,-151.4 889.59,-149.32 898.68,-147"/>
<polygon fill="midnightblue" stroke="midnightblue" points="342.44,-189.21 333.57,-194.99 344.11,-196.01 342.44,-189.21"/>
</g>
<!-- Node6&#45;&gt;Node5 -->
<g id="edge6" class="edge">
<title>Node6&#45;&gt;Node5</title>
<path fill="none" stroke="midnightblue" d="M942.89,-87.95C930.74,-76.36 917.2,-63.45 905.77,-52.55"/>
<polygon fill="midnightblue" stroke="midnightblue" points="940.6,-90.6 950.25,-94.97 945.43,-85.53 940.6,-90.6"/>
</g>
<!-- Node7&#45;&gt;Node5 -->
<g id="edge10" class="edge">
<title>Node7&#45;&gt;Node5</title>
<path fill="none" stroke="midnightblue" d="M458.67,-184.9C459.99,-154.98 466.97,-113.1 493.5,-89 538.46,-48.16 709.26,-34.37 807.94,-29.76"/>
<polygon fill="midnightblue" stroke="midnightblue" points="455.17,-184.85 458.42,-194.94 462.17,-185.03 455.17,-184.85"/>
</g>
<!-- Node8 -->
<g id="node8" class="node">
<title>Node8</title>
<g id="a_node8"><a xlink:href="_presence_sensing_8h.html" target="_top" xlink:title="API for Presence Sensing algorithm.">
<polygon fill="white" stroke="black" points="1166.5,-95 1166.5,-147 1350.5,-147 1350.5,-95 1166.5,-95"/>
<text text-anchor="start" x="1174.5" y="-135" font-family="Helvetica,sans-Serif" font-size="10.00">/home/jenkins/jenkins</text>
<text text-anchor="start" x="1174.5" y="-124" font-family="Helvetica,sans-Serif" font-size="10.00">&#45;ci/workspace/er_release</text>
<text text-anchor="start" x="1174.5" y="-113" font-family="Helvetica,sans-Serif" font-size="10.00">_release&#45;branch&#45;v3.3.1@2</text>
<text text-anchor="middle" x="1258.5" y="-102" font-family="Helvetica,sans-Serif" font-size="10.00">/sdk/c/ifxRadar/PresenceSensing.h</text>
</a>
</g>
</g>
<!-- Node7&#45;&gt;Node8 -->
<g id="edge8" class="edge">
<title>Node7&#45;&gt;Node8</title>
<path fill="none" stroke="midnightblue" d="M542.05,-192.37C547.25,-191.1 552.43,-189.96 557.5,-189 786.41,-145.56 849.2,-181.03 1080.5,-153 1108.53,-149.6 1138.85,-144.76 1166.38,-139.92"/>
<polygon fill="midnightblue" stroke="midnightblue" points="540.87,-189.06 532.06,-194.95 542.62,-195.84 540.87,-189.06"/>
</g>
<!-- Node8&#45;&gt;Node5 -->
<g id="edge9" class="edge">
<title>Node8&#45;&gt;Node5</title>
<path fill="none" stroke="midnightblue" d="M1164.91,-92.28C1160.72,-91.15 1156.57,-90.05 1152.5,-89 1084.53,-71.42 1006.31,-54.1 951.07,-42.33"/>
<polygon fill="midnightblue" stroke="midnightblue" points="1164.17,-95.71 1174.74,-94.97 1166.02,-88.96 1164.17,-95.71"/>
</g>
<!-- Node10&#45;&gt;Node9 -->
<g id="edge13" class="edge">
<title>Node10&#45;&gt;Node9</title>
<path fill="none" stroke="midnightblue" d="M700.24,-371.35C691.51,-362.55 682.92,-352.51 676.5,-342 658.28,-312.16 647.99,-272.74 642.84,-247.38"/>
<polygon fill="midnightblue" stroke="midnightblue" points="697.95,-374 707.57,-378.44 702.82,-368.97 697.95,-374"/>
</g>
<!-- Node11 -->
<g id="node11" class="node">
<title>Node11</title>
<g id="a_node11"><a xlink:href="_complex_8h.html" target="_top" xlink:title="API for operations on complex numbers.">
<polygon fill="white" stroke="black" points="686,-289.5 686,-341.5 829,-341.5 829,-289.5 686,-289.5"/>
<text text-anchor="start" x="694" y="-329.5" font-family="Helvetica,sans-Serif" font-size="10.00">/home/jenkins/jenkins</text>
<text text-anchor="start" x="694" y="-318.5" font-family="Helvetica,sans-Serif" font-size="10.00">&#45;ci/workspace/er_release</text>
<text text-anchor="start" x="694" y="-307.5" font-family="Helvetica,sans-Serif" font-size="10.00">_release&#45;branch&#45;v3.3.1@2</text>
<text text-anchor="middle" x="757.5" y="-296.5" font-family="Helvetica,sans-Serif" font-size="10.00">/sdk/c/ifxBase/Complex.h</text>
</a>
</g>
</g>
<!-- Node10&#45;&gt;Node11 -->
<g id="edge14" class="edge">
<title>Node10&#45;&gt;Node11</title>
<path fill="none" stroke="midnightblue" d="M746.15,-368.48C748.11,-359.49 750.19,-349.99 752.02,-341.61"/>
<polygon fill="midnightblue" stroke="midnightblue" points="742.71,-367.82 744,-378.34 749.55,-369.31 742.71,-367.82"/>
</g>
<!-- Node14 -->
<g id="node14" class="node">
<title>Node14</title>
<g id="a_node14"><a xlink:href="_cube_8h.html" target="_top" xlink:title="API for operations on Cube data structures.">
<polygon fill="white" stroke="black" points="905,-289.5 905,-341.5 1048,-341.5 1048,-289.5 905,-289.5"/>
<text text-anchor="start" x="913" y="-329.5" font-family="Helvetica,sans-Serif" font-size="10.00">/home/jenkins/jenkins</text>
<text text-anchor="start" x="913" y="-318.5" font-family="Helvetica,sans-Serif" font-size="10.00">&#45;ci/workspace/er_release</text>
<text text-anchor="start" x="913" y="-307.5" font-family="Helvetica,sans-Serif" font-size="10.00">_release&#45;branch&#45;v3.3.1@2</text>
<text text-anchor="middle" x="976.5" y="-296.5" font-family="Helvetica,sans-Serif" font-size="10.00">/sdk/c/ifxBase/Cube.h</text>
</a>
</g>
</g>
<!-- Node10&#45;&gt;Node14 -->
<g id="edge19" class="edge">
<title>Node10&#45;&gt;Node14</title>
<path fill="none" stroke="midnightblue" d="M816.47,-375C846.03,-364.19 879.44,-351.98 908.05,-341.52"/>
<polygon fill="midnightblue" stroke="midnightblue" points="815.21,-371.73 807.02,-378.45 817.61,-378.31 815.21,-371.73"/>
</g>
<!-- Node11&#45;&gt;Node9 -->
<g id="edge15" class="edge">
<title>Node11&#45;&gt;Node9</title>
<path fill="none" stroke="midnightblue" d="M717.11,-283.11C701.99,-271.35 685.02,-258.16 670.73,-247.05"/>
<polygon fill="midnightblue" stroke="midnightblue" points="715.25,-286.09 725.3,-289.47 719.55,-280.57 715.25,-286.09"/>
</g>
<!-- Node12 -->
<g id="node12" class="node">
<title>Node12</title>
<g id="a_node12"><a xlink:href="_angle_monopulse_8h.html" target="_top" xlink:title="API for Phase Monopulse algorithm.">
<polygon fill="white" stroke="black" points="502.5,-95 502.5,-147 684.5,-147 684.5,-95 502.5,-95"/>
<text text-anchor="start" x="510.5" y="-135" font-family="Helvetica,sans-Serif" font-size="10.00">/home/jenkins/jenkins</text>
<text text-anchor="start" x="510.5" y="-124" font-family="Helvetica,sans-Serif" font-size="10.00">&#45;ci/workspace/er_release</text>
<text text-anchor="start" x="510.5" y="-113" font-family="Helvetica,sans-Serif" font-size="10.00">_release&#45;branch&#45;v3.3.1@2</text>
<text text-anchor="middle" x="593.5" y="-102" font-family="Helvetica,sans-Serif" font-size="10.00">/sdk/c/ifxRadar/AngleMonopulse.h</text>
</a>
</g>
</g>
<!-- Node11&#45;&gt;Node12 -->
<g id="edge16" class="edge">
<title>Node11&#45;&gt;Node12</title>
<path fill="none" stroke="midnightblue" d="M753.86,-279.3C749.45,-252.05 739.75,-214.74 718.5,-189 703.77,-171.15 683,-157.38 662.62,-147.09"/>
<polygon fill="midnightblue" stroke="midnightblue" points="750.4,-279.82 755.3,-289.21 757.32,-278.81 750.4,-279.82"/>
</g>
<!-- Node13 -->
<g id="node13" class="node">
<title>Node13</title>
<g id="a_node13"><a xlink:href="_util_8h.html" target="_top" xlink:title="This file defines some utility functions like printing to, reading from files or printing to console....">
<polygon fill="white" stroke="black" points="767,-195 767,-247 910,-247 910,-195 767,-195"/>
<text text-anchor="start" x="775" y="-235" font-family="Helvetica,sans-Serif" font-size="10.00">/home/jenkins/jenkins</text>
<text text-anchor="start" x="775" y="-224" font-family="Helvetica,sans-Serif" font-size="10.00">&#45;ci/workspace/er_release</text>
<text text-anchor="start" x="775" y="-213" font-family="Helvetica,sans-Serif" font-size="10.00">_release&#45;branch&#45;v3.3.1@2</text>
<text text-anchor="middle" x="838.5" y="-202" font-family="Helvetica,sans-Serif" font-size="10.00">/sdk/c/ifxUtil/Util.h</text>
</a>
</g>
</g>
<!-- Node11&#45;&gt;Node13 -->
<g id="edge18" class="edge">
<title>Node11&#45;&gt;Node13</title>
<path fill="none" stroke="midnightblue" d="M786.29,-281.62C796.19,-270.32 807.11,-257.85 816.39,-247.25"/>
<polygon fill="midnightblue" stroke="midnightblue" points="783.59,-279.39 779.63,-289.22 788.85,-284.01 783.59,-279.39"/>
</g>
<!-- Node12&#45;&gt;Node5 -->
<g id="edge17" class="edge">
<title>Node12&#45;&gt;Node5</title>
<path fill="none" stroke="midnightblue" d="M680.55,-91.84C721.33,-78.66 769.31,-63.14 807.93,-50.65"/>
<polygon fill="midnightblue" stroke="midnightblue" points="679.33,-88.56 670.9,-94.97 681.49,-95.22 679.33,-88.56"/>
</g>
<!-- Node14&#45;&gt;Node6 -->
<g id="edge36" class="edge">
<title>Node14&#45;&gt;Node6</title>
<path fill="none" stroke="midnightblue" d="M976.5,-279.17C976.5,-240.92 976.5,-180.9 976.5,-147.17"/>
<polygon fill="midnightblue" stroke="midnightblue" points="973,-279.33 976.5,-289.33 980,-279.33 973,-279.33"/>
</g>
<!-- Node14&#45;&gt;Node9 -->
<g id="edge29" class="edge">
<title>Node14&#45;&gt;Node9</title>
<path fill="none" stroke="midnightblue" d="M894.86,-292.16C838.46,-276.72 764.16,-256.39 710.08,-241.59"/>
<polygon fill="midnightblue" stroke="midnightblue" points="894.25,-295.62 904.82,-294.88 896.1,-288.87 894.25,-295.62"/>
</g>
<!-- Node14&#45;&gt;Node13 -->
<g id="edge39" class="edge">
<title>Node14&#45;&gt;Node13</title>
<path fill="none" stroke="midnightblue" d="M930.64,-283.76C912.85,-271.84 892.75,-258.37 875.87,-247.05"/>
<polygon fill="midnightblue" stroke="midnightblue" points="928.9,-286.81 939.16,-289.47 932.8,-280.99 928.9,-286.81"/>
</g>
<!-- Node15 -->
<g id="node15" class="node">
<title>Node15</title>
<g id="a_node15"><a xlink:href="_device_control_8h.html" target="_top" xlink:title="API for Radar device control operations.">
<polygon fill="white" stroke="black" points="1499,-195 1499,-247 1668,-247 1668,-195 1499,-195"/>
<text text-anchor="start" x="1507" y="-235" font-family="Helvetica,sans-Serif" font-size="10.00">/home/jenkins/jenkins</text>
<text text-anchor="start" x="1507" y="-224" font-family="Helvetica,sans-Serif" font-size="10.00">&#45;ci/workspace/er_release</text>
<text text-anchor="start" x="1507" y="-213" font-family="Helvetica,sans-Serif" font-size="10.00">_release&#45;branch&#45;v3.3.1@2</text>
<text text-anchor="middle" x="1583.5" y="-202" font-family="Helvetica,sans-Serif" font-size="10.00">/sdk/c/ifxAvian/DeviceControl.h</text>
</a>
</g>
</g>
<!-- Node14&#45;&gt;Node15 -->
<g id="edge20" class="edge">
<title>Node14&#45;&gt;Node15</title>
<path fill="none" stroke="midnightblue" d="M1058.38,-302.02C1173.52,-284.48 1382.21,-252.67 1498.84,-234.9"/>
<polygon fill="midnightblue" stroke="midnightblue" points="1057.57,-298.6 1048.21,-303.57 1058.63,-305.52 1057.57,-298.6"/>
</g>
<!-- Node20 -->
<g id="node20" class="node">
<title>Node20</title>
<g id="a_node20"><a xlink:href="_motion_angle_8h.html" target="_top" xlink:title=" ">
<polygon fill="white" stroke="black" points="1166.5,-195 1166.5,-247 1362.5,-247 1362.5,-195 1166.5,-195"/>
<text text-anchor="start" x="1174.5" y="-235" font-family="Helvetica,sans-Serif" font-size="10.00">/home/jenkins/jenkins</text>
<text text-anchor="start" x="1174.5" y="-224" font-family="Helvetica,sans-Serif" font-size="10.00">&#45;ci/workspace/er_release</text>
<text text-anchor="start" x="1174.5" y="-213" font-family="Helvetica,sans-Serif" font-size="10.00">_release&#45;branch&#45;v3.3.1@2</text>
<text text-anchor="middle" x="1264.5" y="-202" font-family="Helvetica,sans-Serif" font-size="10.00">/sdk/c/ifxMotionAngle/MotionAngle.h</text>
</a>
</g>
</g>
<!-- Node14&#45;&gt;Node20 -->
<g id="edge30" class="edge">
<title>Node14&#45;&gt;Node20</title>
<path fill="none" stroke="midnightblue" d="M1057.6,-288.45C1097.97,-275.49 1146.54,-259.89 1186.48,-247.06"/>
<polygon fill="midnightblue" stroke="midnightblue" points="1056.51,-285.13 1048.06,-291.52 1058.65,-291.79 1056.51,-285.13"/>
</g>
<!-- Node21 -->
<g id="node21" class="node">
<title>Node21</title>
<g id="a_node21"><a xlink:href="_angle_capon_8h.html" target="_top" xlink:title="API for the 1&#45;D Angle Capon algorithm.">
<polygon fill="white" stroke="black" points="702.5,-95 702.5,-147 862.5,-147 862.5,-95 702.5,-95"/>
<text text-anchor="start" x="710.5" y="-135" font-family="Helvetica,sans-Serif" font-size="10.00">/home/jenkins/jenkins</text>
<text text-anchor="start" x="710.5" y="-124" font-family="Helvetica,sans-Serif" font-size="10.00">&#45;ci/workspace/er_release</text>
<text text-anchor="start" x="710.5" y="-113" font-family="Helvetica,sans-Serif" font-size="10.00">_release&#45;branch&#45;v3.3.1@2</text>
<text text-anchor="middle" x="782.5" y="-102" font-family="Helvetica,sans-Serif" font-size="10.00">/sdk/c/ifxRadar/AngleCapon.h</text>
</a>
</g>
</g>
<!-- Node14&#45;&gt;Node21 -->
<g id="edge31" class="edge">
<title>Node14&#45;&gt;Node21</title>
<path fill="none" stroke="midnightblue" d="M967.46,-279.83C958.78,-252.32 943.28,-214.4 918.5,-189 901.13,-171.19 878.05,-157.41 855.85,-147.09"/>
<polygon fill="midnightblue" stroke="midnightblue" points="964.12,-280.88 970.35,-289.45 970.82,-278.86 964.12,-280.88"/>
</g>
<!-- Node22 -->
<g id="node22" class="node">
<title>Node22</title>
<g id="a_node22"><a xlink:href="_d_b_f_8h.html" target="_top" xlink:title="API for Digital Beamforming (DBF) algorithm.">
<polygon fill="white" stroke="black" points="1005,-195 1005,-247 1148,-247 1148,-195 1005,-195"/>
<text text-anchor="start" x="1013" y="-235" font-family="Helvetica,sans-Serif" font-size="10.00">/home/jenkins/jenkins</text>
<text text-anchor="start" x="1013" y="-224" font-family="Helvetica,sans-Serif" font-size="10.00">&#45;ci/workspace/er_release</text>
<text text-anchor="start" x="1013" y="-213" font-family="Helvetica,sans-Serif" font-size="10.00">_release&#45;branch&#45;v3.3.1@2</text>
<text text-anchor="middle" x="1076.5" y="-202" font-family="Helvetica,sans-Serif" font-size="10.00">/sdk/c/ifxRadar/DBF.h</text>
</a>
</g>
</g>
<!-- Node14&#45;&gt;Node22 -->
<g id="edge33" class="edge">
<title>Node14&#45;&gt;Node22</title>
<path fill="none" stroke="midnightblue" d="M1011.15,-282.45C1023.68,-270.86 1037.63,-257.95 1049.42,-247.05"/>
<polygon fill="midnightblue" stroke="midnightblue" points="1008.53,-280.11 1003.56,-289.47 1013.28,-285.25 1008.53,-280.11"/>
</g>
<!-- Node23 -->
<g id="node23" class="node">
<title>Node23</title>
<g id="a_node23"><a xlink:href="_segmentation_8h.html" target="_top" xlink:title="API for Segmentation and Seamless Tracking algorithm.">
<polygon fill="white" stroke="black" points="1778.5,-189.5 1778.5,-252.5 1936.5,-252.5 1936.5,-189.5 1778.5,-189.5"/>
<text text-anchor="start" x="1786.5" y="-240.5" font-family="Helvetica,sans-Serif" font-size="10.00">/home/jenkins/jenkins</text>
<text text-anchor="start" x="1786.5" y="-229.5" font-family="Helvetica,sans-Serif" font-size="10.00">&#45;ci/workspace/er_release</text>
<text text-anchor="start" x="1786.5" y="-218.5" font-family="Helvetica,sans-Serif" font-size="10.00">_release&#45;branch&#45;v3.3.1@2</text>
<text text-anchor="start" x="1786.5" y="-207.5" font-family="Helvetica,sans-Serif" font-size="10.00">/sdk/c/ifxRadarSegmentation</text>
<text text-anchor="middle" x="1857.5" y="-196.5" font-family="Helvetica,sans-Serif" font-size="10.00">/Segmentation.h</text>
</a>
</g>
</g>
<!-- Node14&#45;&gt;Node23 -->
<g id="edge37" class="edge">
<title>Node14&#45;&gt;Node23</title>
<path fill="none" stroke="midnightblue" d="M1058.46,-309.53C1189.57,-301.07 1454.41,-281.95 1677.5,-253 1710.68,-248.7 1747.08,-242.67 1778.41,-237.08"/>
<polygon fill="midnightblue" stroke="midnightblue" points="1057.87,-306.06 1048.11,-310.19 1058.31,-313.04 1057.87,-306.06"/>
</g>
<!-- Node15&#45;&gt;Node8 -->
<g id="edge28" class="edge">
<title>Node15&#45;&gt;Node8</title>
<path fill="none" stroke="midnightblue" d="M1489.4,-192.02C1449.34,-180.06 1402.12,-165.91 1359.5,-153 1353.09,-151.06 1346.46,-149.04 1339.79,-147.01"/>
<polygon fill="midnightblue" stroke="midnightblue" points="1488.58,-195.42 1499.16,-194.93 1490.58,-188.72 1488.58,-195.42"/>
</g>
<!-- Node16 -->
<g id="node16" class="node">
<title>Node16</title>
<g id="a_node16"><a xlink:href="_avian_8h.html" target="_top" xlink:title="Header for ifxAvian.">
<polygon fill="white" stroke="black" points="1673,-0.5 1673,-52.5 1816,-52.5 1816,-0.5 1673,-0.5"/>
<text text-anchor="start" x="1681" y="-40.5" font-family="Helvetica,sans-Serif" font-size="10.00">/home/jenkins/jenkins</text>
<text text-anchor="start" x="1681" y="-29.5" font-family="Helvetica,sans-Serif" font-size="10.00">&#45;ci/workspace/er_release</text>
<text text-anchor="start" x="1681" y="-18.5" font-family="Helvetica,sans-Serif" font-size="10.00">_release&#45;branch&#45;v3.3.1@2</text>
<text text-anchor="middle" x="1744.5" y="-7.5" font-family="Helvetica,sans-Serif" font-size="10.00">/sdk/c/ifxAvian/Avian.h</text>
</a>
</g>
</g>
<!-- Node15&#45;&gt;Node16 -->
<g id="edge21" class="edge">
<title>Node15&#45;&gt;Node16</title>
<path fill="none" stroke="midnightblue" d="M1678.22,-203.35C1770.87,-186.61 1899.15,-162.03 1906.5,-153 1924.45,-130.94 1922.65,-112.41 1906.5,-89 1886.08,-59.41 1849.43,-44.04 1816.14,-36.07"/>
<polygon fill="midnightblue" stroke="midnightblue" points="1677.46,-199.93 1668.24,-205.15 1678.7,-206.82 1677.46,-199.93"/>
</g>
<!-- Node17 -->
<g id="node17" class="node">
<title>Node17</title>
<g id="a_node17"><a xlink:href="_constant_wave_control_8h.html" target="_top" xlink:title="Header for Constant Wave Control. It provides APIs to use an Avian device in constant wave mode....">
<polygon fill="white" stroke="black" points="1368.5,-95 1368.5,-147 1574.5,-147 1574.5,-95 1368.5,-95"/>
<text text-anchor="start" x="1376.5" y="-135" font-family="Helvetica,sans-Serif" font-size="10.00">/home/jenkins/jenkins</text>
<text text-anchor="start" x="1376.5" y="-124" font-family="Helvetica,sans-Serif" font-size="10.00">&#45;ci/workspace/er_release</text>
<text text-anchor="start" x="1376.5" y="-113" font-family="Helvetica,sans-Serif" font-size="10.00">_release&#45;branch&#45;v3.3.1@2</text>
<text text-anchor="middle" x="1471.5" y="-102" font-family="Helvetica,sans-Serif" font-size="10.00">/sdk/c/ifxAvian/ConstantWaveControl.h</text>
</a>
</g>
</g>
<!-- Node15&#45;&gt;Node17 -->
<g id="edge22" class="edge">
<title>Node15&#45;&gt;Node17</title>
<path fill="none" stroke="midnightblue" d="M1546.96,-188.02C1531.8,-174.76 1514.47,-159.6 1500.25,-147.15"/>
<polygon fill="midnightblue" stroke="midnightblue" points="1544.83,-190.81 1554.66,-194.76 1549.44,-185.54 1544.83,-190.81"/>
</g>
<!-- Node18 -->
<g id="node18" class="node">
<title>Node18</title>
<g id="a_node18"><a xlink:href="_metrics_8h.html" target="_top" xlink:title="API for Metrics.">
<polygon fill="white" stroke="black" points="1593,-95 1593,-147 1736,-147 1736,-95 1593,-95"/>
<text text-anchor="start" x="1601" y="-135" font-family="Helvetica,sans-Serif" font-size="10.00">/home/jenkins/jenkins</text>
<text text-anchor="start" x="1601" y="-124" font-family="Helvetica,sans-Serif" font-size="10.00">&#45;ci/workspace/er_release</text>
<text text-anchor="start" x="1601" y="-113" font-family="Helvetica,sans-Serif" font-size="10.00">_release&#45;branch&#45;v3.3.1@2</text>
<text text-anchor="middle" x="1664.5" y="-102" font-family="Helvetica,sans-Serif" font-size="10.00">/sdk/c/ifxAvian/Metrics.h</text>
</a>
</g>
</g>
<!-- Node15&#45;&gt;Node18 -->
<g id="edge24" class="edge">
<title>Node15&#45;&gt;Node18</title>
<path fill="none" stroke="midnightblue" d="M1610.84,-186.93C1621.58,-173.93 1633.71,-159.26 1643.71,-147.15"/>
<polygon fill="midnightblue" stroke="midnightblue" points="1608.03,-184.82 1604.36,-194.76 1613.43,-189.28 1608.03,-184.82"/>
</g>
<!-- Node19 -->
<g id="node19" class="node">
<title>Node19</title>
<g id="a_node19"><a xlink:href="_shapes_8h.html" target="_top" xlink:title=" ">
<polygon fill="white" stroke="black" points="1754,-95 1754,-147 1897,-147 1897,-95 1754,-95"/>
<text text-anchor="start" x="1762" y="-135" font-family="Helvetica,sans-Serif" font-size="10.00">/home/jenkins/jenkins</text>
<text text-anchor="start" x="1762" y="-124" font-family="Helvetica,sans-Serif" font-size="10.00">&#45;ci/workspace/er_release</text>
<text text-anchor="start" x="1762" y="-113" font-family="Helvetica,sans-Serif" font-size="10.00">_release&#45;branch&#45;v3.3.1@2</text>
<text text-anchor="middle" x="1825.5" y="-102" font-family="Helvetica,sans-Serif" font-size="10.00">/sdk/c/ifxAvian/Shapes.h</text>
</a>
</g>
</g>
<!-- Node15&#45;&gt;Node19 -->
<g id="edge26" class="edge">
<title>Node15&#45;&gt;Node19</title>
<path fill="none" stroke="midnightblue" d="M1655.05,-191.02C1689.55,-177.05 1730.53,-160.46 1763.65,-147.04"/>
<polygon fill="midnightblue" stroke="midnightblue" points="1653.46,-187.89 1645.51,-194.89 1656.09,-194.38 1653.46,-187.89"/>
</g>
<!-- Node17&#45;&gt;Node16 -->
<g id="edge23" class="edge">
<title>Node17&#45;&gt;Node16</title>
<path fill="none" stroke="midnightblue" d="M1555.3,-91.61C1592.93,-78.86 1636.86,-63.97 1672.92,-51.75"/>
<polygon fill="midnightblue" stroke="midnightblue" points="1553.73,-88.44 1545.38,-94.97 1555.97,-95.07 1553.73,-88.44"/>
</g>
<!-- Node18&#45;&gt;Node16 -->
<g id="edge25" class="edge">
<title>Node18&#45;&gt;Node16</title>
<path fill="none" stroke="midnightblue" d="M1692.94,-87.12C1702.71,-75.82 1713.5,-63.35 1722.67,-52.75"/>
<polygon fill="midnightblue" stroke="midnightblue" points="1690.25,-84.87 1686.36,-94.72 1695.55,-89.45 1690.25,-84.87"/>
</g>
<!-- Node19&#45;&gt;Node16 -->
<g id="edge27" class="edge">
<title>Node19&#45;&gt;Node16</title>
<path fill="none" stroke="midnightblue" d="M1796.71,-87.12C1786.81,-75.82 1775.89,-63.35 1766.61,-52.75"/>
<polygon fill="midnightblue" stroke="midnightblue" points="1794.15,-89.51 1803.37,-94.72 1799.41,-84.89 1794.15,-89.51"/>
</g>
<!-- Node21&#45;&gt;Node5 -->
<g id="edge32" class="edge">
<title>Node21&#45;&gt;Node5</title>
<path fill="none" stroke="midnightblue" d="M816.11,-87.95C828.26,-76.36 841.8,-63.45 853.23,-52.55"/>
<polygon fill="midnightblue" stroke="midnightblue" points="813.57,-85.53 808.75,-94.97 818.4,-90.6 813.57,-85.53"/>
</g>
<!-- Node22&#45;&gt;Node5 -->
<g id="edge34" class="edge">
<title>Node22&#45;&gt;Node5</title>
<path fill="none" stroke="midnightblue" d="M1088.55,-184.86C1095.99,-156.26 1100.69,-116.29 1080.5,-89 1050.98,-49.1 996.1,-34.24 951.13,-29.07"/>
<polygon fill="midnightblue" stroke="midnightblue" points="1085.08,-184.27 1085.73,-194.84 1091.82,-186.17 1085.08,-184.27"/>
</g>
<!-- Node22&#45;&gt;Node6 -->
<g id="edge35" class="edge">
<title>Node22&#45;&gt;Node6</title>
<path fill="none" stroke="midnightblue" d="M1043.5,-187.66C1030.06,-174.48 1014.75,-159.49 1002.17,-147.15"/>
<polygon fill="midnightblue" stroke="midnightblue" points="1041.16,-190.26 1050.75,-194.76 1046.06,-185.26 1041.16,-190.26"/>
</g>
<!-- Node24 -->
<g id="node24" class="node">
<title>Node24</title>
<g id="a_node24"><a xlink:href="_radar_segmentation_8h.html" target="_top" xlink:title="Header for ifxRadarSegmentation.">
<polygon fill="white" stroke="black" points="1953.5,-89.5 1953.5,-152.5 2111.5,-152.5 2111.5,-89.5 1953.5,-89.5"/>
<text text-anchor="start" x="1961.5" y="-140.5" font-family="Helvetica,sans-Serif" font-size="10.00">/home/jenkins/jenkins</text>
<text text-anchor="start" x="1961.5" y="-129.5" font-family="Helvetica,sans-Serif" font-size="10.00">&#45;ci/workspace/er_release</text>
<text text-anchor="start" x="1961.5" y="-118.5" font-family="Helvetica,sans-Serif" font-size="10.00">_release&#45;branch&#45;v3.3.1@2</text>
<text text-anchor="start" x="1961.5" y="-107.5" font-family="Helvetica,sans-Serif" font-size="10.00">/sdk/c/ifxRadarSegmentation</text>
<text text-anchor="middle" x="2032.5" y="-96.5" font-family="Helvetica,sans-Serif" font-size="10.00">/RadarSegmentation.h</text>
</a>
</g>
</g>
<!-- Node23&#45;&gt;Node24 -->
<g id="edge38" class="edge">
<title>Node23&#45;&gt;Node24</title>
<path fill="none" stroke="midnightblue" d="M1921.34,-184.25C1939.86,-173.88 1959.9,-162.65 1977.8,-152.63"/>
<polygon fill="midnightblue" stroke="midnightblue" points="1919.41,-181.32 1912.39,-189.26 1922.83,-187.43 1919.41,-181.32"/>
</g>
<!-- Node25&#45;&gt;Node5 -->
<g id="edge41" class="edge">
<title>Node25&#45;&gt;Node5</title>
<path fill="none" stroke="midnightblue" d="M1227.55,-373.96C1309.59,-333.82 1430.7,-258.99 1371.5,-189 1309.21,-115.36 1241.5,-200.4 1157.5,-153 1124.84,-134.57 1134.18,-109.08 1102.5,-89 1056.71,-59.97 997.2,-44.46 951.17,-36.28"/>
<polygon fill="midnightblue" stroke="midnightblue" points="1225.74,-370.95 1218.25,-378.45 1228.78,-377.26 1225.74,-370.95"/>
</g>
</g>
</svg>
