<?xml version="1.0" encoding="UTF-8" standalone="no"?>
<!DOCTYPE svg PUBLIC "-//W3C//DTD SVG 1.1//EN"
 "http://www.w3.org/Graphics/SVG/1.1/DTD/svg11.dtd">
<!-- Generated by graphviz version 2.43.0 (0)
 -->
<!-- Title: /home/jenkins/jenkins&#45;ci/workspace/er_release_release&#45;branch&#45;v3.3.1@2/sdk/c/ifxMotionAngle/MotionAngle.h Pages: 1 -->
<svg width="400pt" height="408pt"
 viewBox="0.00 0.00 400.00 408.00" xmlns="http://www.w3.org/2000/svg" xmlns:xlink="http://www.w3.org/1999/xlink">
<g id="graph0" class="graph" transform="scale(1 1) rotate(0) translate(4 404)">
<title>/home/jenkins/jenkins&#45;ci/workspace/er_release_release&#45;branch&#45;v3.3.1@2/sdk/c/ifxMotionAngle/MotionAngle.h</title>
<polygon fill="white" stroke="transparent" points="-4,4 -4,-404 396,-404 396,4 -4,4"/>
<!-- Node1 -->
<g id="node1" class="node">
<title>Node1</title>
<g id="a_node1"><a xlink:title=" ">
<polygon fill="#bfbfbf" stroke="black" points="20,-347.5 20,-399.5 216,-399.5 216,-347.5 20,-347.5"/>
<text text-anchor="start" x="28" y="-387.5" font-family="Helvetica,sans-Serif" font-size="10.00">/home/jenkins/jenkins</text>
<text text-anchor="start" x="28" y="-376.5" font-family="Helvetica,sans-Serif" font-size="10.00">&#45;ci/workspace/er_release</text>
<text text-anchor="start" x="28" y="-365.5" font-family="Helvetica,sans-Serif" font-size="10.00">_release&#45;branch&#45;v3.3.1@2</text>
<text text-anchor="middle" x="118" y="-354.5" font-family="Helvetica,sans-Serif" font-size="10.00">/sdk/c/ifxMotionAngle/MotionAngle.h</text>
</a>
</g>
</g>
<!-- Node2 -->
<g id="node2" class="node">
<title>Node2</title>
<g id="a_node2"><a xlink:href="ifx_base_2_types_8h.html" target="_top" xlink:title="Definitions of data types used within the SDK.">
<polygon fill="white" stroke="black" points="105.5,-56.5 105.5,-75.5 198.5,-75.5 198.5,-56.5 105.5,-56.5"/>
<text text-anchor="middle" x="152" y="-63.5" font-family="Helvetica,sans-Serif" font-size="10.00">ifxBase/Types.h</text>
</a>
</g>
</g>
<!-- Node1&#45;&gt;Node2 -->
<g id="edge1" class="edge">
<title>Node1&#45;&gt;Node2</title>
<path fill="none" stroke="midnightblue" d="M72.38,-347.46C39.17,-325.55 0,-290.3 0,-246 0,-246 0,-246 0,-188 0,-148.28 16.91,-137.92 47,-112 64.69,-96.76 88.32,-86.02 108.68,-78.87"/>
<polygon fill="midnightblue" stroke="midnightblue" points="109.99,-82.12 118.37,-75.64 107.78,-75.48 109.99,-82.12"/>
</g>
<!-- Node6 -->
<g id="node6" class="node">
<title>Node6</title>
<g id="a_node6"><a xlink:href="_cube_8h.html" target="_top" xlink:title="API for operations on Cube data structures.">
<polygon fill="white" stroke="black" points="73,-291.5 73,-310.5 163,-310.5 163,-291.5 73,-291.5"/>
<text text-anchor="middle" x="118" y="-298.5" font-family="Helvetica,sans-Serif" font-size="10.00">ifxBase/Cube.h</text>
</a>
</g>
</g>
<!-- Node1&#45;&gt;Node6 -->
<g id="edge5" class="edge">
<title>Node1&#45;&gt;Node6</title>
<path fill="none" stroke="midnightblue" d="M118,-347.45C118,-338.73 118,-329.1 118,-320.96"/>
<polygon fill="midnightblue" stroke="midnightblue" points="121.5,-320.7 118,-310.7 114.5,-320.7 121.5,-320.7"/>
</g>
<!-- Node11 -->
<g id="node11" class="node">
<title>Node11</title>
<g id="a_node11"><a xlink:href="_device_config_8h.html" target="_top" xlink:title="API for Radar device configuration.">
<polygon fill="white" stroke="black" points="224.5,-179.5 224.5,-198.5 357.5,-198.5 357.5,-179.5 224.5,-179.5"/>
<text text-anchor="middle" x="291" y="-186.5" font-family="Helvetica,sans-Serif" font-size="10.00">ifxAvian/DeviceConfig.h</text>
</a>
</g>
</g>
<!-- Node1&#45;&gt;Node11 -->
<g id="edge14" class="edge">
<title>Node1&#45;&gt;Node11</title>
<path fill="none" stroke="midnightblue" d="M142.05,-347.12C178.19,-309 245.46,-238.04 275.65,-206.2"/>
<polygon fill="midnightblue" stroke="midnightblue" points="278.46,-208.31 282.8,-198.65 273.38,-203.5 278.46,-208.31"/>
</g>
<!-- Node3 -->
<g id="node3" class="node">
<title>Node3</title>
<g id="a_node3"><a xlink:title=" ">
<polygon fill="white" stroke="#bfbfbf" points="52.5,-0.5 52.5,-19.5 105.5,-19.5 105.5,-0.5 52.5,-0.5"/>
<text text-anchor="middle" x="79" y="-7.5" font-family="Helvetica,sans-Serif" font-size="10.00">stdint.h</text>
</a>
</g>
</g>
<!-- Node2&#45;&gt;Node3 -->
<g id="edge2" class="edge">
<title>Node2&#45;&gt;Node3</title>
<path fill="none" stroke="midnightblue" d="M140.27,-56.32C129.16,-48.11 112.26,-35.6 99.02,-25.81"/>
<polygon fill="midnightblue" stroke="midnightblue" points="101.06,-22.97 90.94,-19.83 96.9,-28.59 101.06,-22.97"/>
</g>
<!-- Node4 -->
<g id="node4" class="node">
<title>Node4</title>
<g id="a_node4"><a xlink:title=" ">
<polygon fill="white" stroke="#bfbfbf" points="124,-0.5 124,-19.5 180,-19.5 180,-0.5 124,-0.5"/>
<text text-anchor="middle" x="152" y="-7.5" font-family="Helvetica,sans-Serif" font-size="10.00">stddef.h</text>
</a>
</g>
</g>
<!-- Node2&#45;&gt;Node4 -->
<g id="edge3" class="edge">
<title>Node2&#45;&gt;Node4</title>
<path fill="none" stroke="midnightblue" d="M152,-56.08C152,-49.01 152,-38.86 152,-29.99"/>
<polygon fill="midnightblue" stroke="midnightblue" points="155.5,-29.75 152,-19.75 148.5,-29.75 155.5,-29.75"/>
</g>
<!-- Node5 -->
<g id="node5" class="node">
<title>Node5</title>
<g id="a_node5"><a xlink:title=" ">
<polygon fill="white" stroke="#bfbfbf" points="198,-0.5 198,-19.5 260,-19.5 260,-0.5 198,-0.5"/>
<text text-anchor="middle" x="229" y="-7.5" font-family="Helvetica,sans-Serif" font-size="10.00">stdbool.h</text>
</a>
</g>
</g>
<!-- Node2&#45;&gt;Node5 -->
<g id="edge4" class="edge">
<title>Node2&#45;&gt;Node5</title>
<path fill="none" stroke="midnightblue" d="M164.37,-56.32C176.16,-48.06 194.13,-35.45 208.14,-25.63"/>
<polygon fill="midnightblue" stroke="midnightblue" points="210.48,-28.26 216.66,-19.65 206.46,-22.53 210.48,-28.26"/>
</g>
<!-- Node7 -->
<g id="node7" class="node">
<title>Node7</title>
<g id="a_node7"><a xlink:href="_defines_8h.html" target="_top" xlink:title="Internal definitions used by standard math.h functions as Macros, to use float or double precision.">
<polygon fill="white" stroke="black" points="28,-235.5 28,-254.5 130,-254.5 130,-235.5 28,-235.5"/>
<text text-anchor="middle" x="79" y="-242.5" font-family="Helvetica,sans-Serif" font-size="10.00">ifxBase/Defines.h</text>
</a>
</g>
</g>
<!-- Node6&#45;&gt;Node7 -->
<g id="edge6" class="edge">
<title>Node6&#45;&gt;Node7</title>
<path fill="none" stroke="midnightblue" d="M111.56,-291.08C106.05,-283.46 97.97,-272.26 91.24,-262.94"/>
<polygon fill="midnightblue" stroke="midnightblue" points="94.01,-260.81 85.32,-254.75 88.34,-264.91 94.01,-260.81"/>
</g>
<!-- Node10 -->
<g id="node10" class="node">
<title>Node10</title>
<g id="a_node10"><a xlink:href="_matrix_8h.html" target="_top" xlink:title="API for operations on Matrix data structures.">
<polygon fill="white" stroke="black" points="109.5,-179.5 109.5,-198.5 206.5,-198.5 206.5,-179.5 109.5,-179.5"/>
<text text-anchor="middle" x="158" y="-186.5" font-family="Helvetica,sans-Serif" font-size="10.00">ifxBase/Matrix.h</text>
</a>
</g>
</g>
<!-- Node6&#45;&gt;Node10 -->
<g id="edge11" class="edge">
<title>Node6&#45;&gt;Node10</title>
<path fill="none" stroke="midnightblue" d="M122.59,-291.21C127.15,-282.26 134.13,-267.91 139,-255 144.83,-239.53 149.99,-221.44 153.45,-208.28"/>
<polygon fill="midnightblue" stroke="midnightblue" points="156.86,-209.1 155.94,-198.55 150.07,-207.37 156.86,-209.1"/>
</g>
<!-- Node8 -->
<g id="node8" class="node">
<title>Node8</title>
<g id="a_node8"><a xlink:href="_math_8h.html" target="_top" xlink:title="API for Mathematical operations.">
<polygon fill="white" stroke="black" points="40.5,-179.5 40.5,-198.5 91.5,-198.5 91.5,-179.5 40.5,-179.5"/>
<text text-anchor="middle" x="66" y="-186.5" font-family="Helvetica,sans-Serif" font-size="10.00">math.h</text>
</a>
</g>
</g>
<!-- Node7&#45;&gt;Node8 -->
<g id="edge7" class="edge">
<title>Node7&#45;&gt;Node8</title>
<path fill="none" stroke="midnightblue" d="M76.85,-235.08C75.13,-227.93 72.65,-217.64 70.5,-208.69"/>
<polygon fill="midnightblue" stroke="midnightblue" points="73.85,-207.65 68.11,-198.75 67.04,-209.29 73.85,-207.65"/>
</g>
<!-- Node8&#45;&gt;Node2 -->
<g id="edge8" class="edge">
<title>Node8&#45;&gt;Node2</title>
<path fill="none" stroke="midnightblue" d="M61.6,-179.23C54.76,-164.2 43.64,-133.11 57,-112 67.05,-96.13 84.37,-85.74 101.5,-79"/>
<polygon fill="midnightblue" stroke="midnightblue" points="102.71,-82.28 110.95,-75.62 100.35,-75.69 102.71,-82.28"/>
</g>
<!-- Node9 -->
<g id="node9" class="node">
<title>Node9</title>
<g id="a_node9"><a xlink:href="_vector_8h.html" target="_top" xlink:title="API for operations on Vector data structures.">
<polygon fill="white" stroke="black" points="66.5,-118 66.5,-137 161.5,-137 161.5,-118 66.5,-118"/>
<text text-anchor="middle" x="114" y="-125" font-family="Helvetica,sans-Serif" font-size="10.00">ifxBase/Vector.h</text>
</a>
</g>
</g>
<!-- Node8&#45;&gt;Node9 -->
<g id="edge9" class="edge">
<title>Node8&#45;&gt;Node9</title>
<path fill="none" stroke="midnightblue" d="M72.88,-179.48C80.15,-170.46 91.8,-156.02 100.84,-144.81"/>
<polygon fill="midnightblue" stroke="midnightblue" points="103.58,-146.99 107.14,-137.01 98.13,-142.59 103.58,-146.99"/>
</g>
<!-- Node9&#45;&gt;Node2 -->
<g id="edge10" class="edge">
<title>Node9&#45;&gt;Node2</title>
<path fill="none" stroke="midnightblue" d="M119.44,-117.98C125.09,-109.14 134.06,-95.09 141.16,-83.98"/>
<polygon fill="midnightblue" stroke="midnightblue" points="144.13,-85.82 146.57,-75.51 138.23,-82.05 144.13,-85.82"/>
</g>
<!-- Node10&#45;&gt;Node2 -->
<g id="edge12" class="edge">
<title>Node10&#45;&gt;Node2</title>
<path fill="none" stroke="midnightblue" d="M161.42,-179.07C166.42,-164.84 174.65,-136.14 170,-112 168.21,-102.7 164.52,-92.89 160.94,-84.8"/>
<polygon fill="midnightblue" stroke="midnightblue" points="164.06,-83.21 156.62,-75.66 157.73,-86.2 164.06,-83.21"/>
</g>
<!-- Node10&#45;&gt;Node9 -->
<g id="edge13" class="edge">
<title>Node10&#45;&gt;Node9</title>
<path fill="none" stroke="midnightblue" d="M151.7,-179.48C145.1,-170.55 134.56,-156.31 126.31,-145.14"/>
<polygon fill="midnightblue" stroke="midnightblue" points="129.05,-142.97 120.29,-137.01 123.42,-147.13 129.05,-142.97"/>
</g>
<!-- Node11&#45;&gt;Node2 -->
<g id="edge15" class="edge">
<title>Node11&#45;&gt;Node2</title>
<path fill="none" stroke="midnightblue" d="M281,-179.3C257.66,-158.98 199.31,-108.19 169.76,-82.46"/>
<polygon fill="midnightblue" stroke="midnightblue" points="171.75,-79.55 161.91,-75.62 167.15,-84.83 171.75,-79.55"/>
</g>
<!-- Node12 -->
<g id="node12" class="node">
<title>Node12</title>
<g id="a_node12"><a xlink:href="_radar_device_common_8h.html" target="_top" xlink:title="Header for ifxRadarDeviceCommon.">
<polygon fill="white" stroke="black" points="256,-112.5 256,-142.5 392,-142.5 392,-112.5 256,-112.5"/>
<text text-anchor="start" x="264" y="-130.5" font-family="Helvetica,sans-Serif" font-size="10.00">ifxRadarDeviceCommon</text>
<text text-anchor="middle" x="324" y="-119.5" font-family="Helvetica,sans-Serif" font-size="10.00">/RadarDeviceCommon.h</text>
</a>
</g>
</g>
<!-- Node11&#45;&gt;Node12 -->
<g id="edge16" class="edge">
<title>Node11&#45;&gt;Node12</title>
<path fill="none" stroke="midnightblue" d="M295.73,-179.48C299.78,-172.17 305.81,-161.3 311.26,-151.47"/>
<polygon fill="midnightblue" stroke="midnightblue" points="314.43,-152.97 316.22,-142.52 308.31,-149.57 314.43,-152.97"/>
</g>
<!-- Node12&#45;&gt;Node2 -->
<g id="edge17" class="edge">
<title>Node12&#45;&gt;Node2</title>
<path fill="none" stroke="midnightblue" d="M283.24,-112.4C253.78,-102.21 214.41,-88.59 186.5,-78.93"/>
<polygon fill="midnightblue" stroke="midnightblue" points="187.37,-75.53 176.78,-75.57 185.08,-82.15 187.37,-75.53"/>
</g>
</g>
</svg>
