<?xml version="1.0" encoding="UTF-8" standalone="no"?>
<!DOCTYPE svg PUBLIC "-//W3C//DTD SVG 1.1//EN"
 "http://www.w3.org/Graphics/SVG/1.1/DTD/svg11.dtd">
<!-- Generated by graphviz version 2.43.0 (0)
 -->
<!-- Title: /home/jenkins/jenkins&#45;ci/workspace/er_release_release&#45;branch&#45;v3.3.1@2/sdk/c/ifxAlgo/PreprocessedFFT.h Pages: 1 -->
<svg width="640pt" height="328pt"
 viewBox="0.00 0.00 639.50 328.00" xmlns="http://www.w3.org/2000/svg" xmlns:xlink="http://www.w3.org/1999/xlink">
<g id="graph0" class="graph" transform="scale(1 1) rotate(0) translate(4 324)">
<title>/home/jenkins/jenkins&#45;ci/workspace/er_release_release&#45;branch&#45;v3.3.1@2/sdk/c/ifxAlgo/PreprocessedFFT.h</title>
<polygon fill="white" stroke="transparent" points="-4,4 -4,-324 635.5,-324 635.5,4 -4,4"/>
<!-- Node1 -->
<g id="node1" class="node">
<title>Node1</title>
<g id="a_node1"><a xlink:title="API for Pre&#45;processed FFT.">
<polygon fill="#bfbfbf" stroke="black" points="168.5,-267.5 168.5,-319.5 344.5,-319.5 344.5,-267.5 168.5,-267.5"/>
<text text-anchor="start" x="176.5" y="-307.5" font-family="Helvetica,sans-Serif" font-size="10.00">/home/jenkins/jenkins</text>
<text text-anchor="start" x="176.5" y="-296.5" font-family="Helvetica,sans-Serif" font-size="10.00">&#45;ci/workspace/er_release</text>
<text text-anchor="start" x="176.5" y="-285.5" font-family="Helvetica,sans-Serif" font-size="10.00">_release&#45;branch&#45;v3.3.1@2</text>
<text text-anchor="middle" x="256.5" y="-274.5" font-family="Helvetica,sans-Serif" font-size="10.00">/sdk/c/ifxAlgo/PreprocessedFFT.h</text>
</a>
</g>
</g>
<!-- Node2 -->
<g id="node2" class="node">
<title>Node2</title>
<g id="a_node2"><a xlink:href="_algo_8h.html" target="_top" xlink:title="Header for ifxAlgo.">
<polygon fill="white" stroke="black" points="0,-178.5 0,-230.5 143,-230.5 143,-178.5 0,-178.5"/>
<text text-anchor="start" x="8" y="-218.5" font-family="Helvetica,sans-Serif" font-size="10.00">/home/jenkins/jenkins</text>
<text text-anchor="start" x="8" y="-207.5" font-family="Helvetica,sans-Serif" font-size="10.00">&#45;ci/workspace/er_release</text>
<text text-anchor="start" x="8" y="-196.5" font-family="Helvetica,sans-Serif" font-size="10.00">_release&#45;branch&#45;v3.3.1@2</text>
<text text-anchor="middle" x="71.5" y="-185.5" font-family="Helvetica,sans-Serif" font-size="10.00">/sdk/c/ifxAlgo/Algo.h</text>
</a>
</g>
</g>
<!-- Node1&#45;&gt;Node2 -->
<g id="edge1" class="edge">
<title>Node1&#45;&gt;Node2</title>
<path fill="none" stroke="midnightblue" d="M193.89,-263.06C171.48,-252.52 146.45,-240.75 124.89,-230.61"/>
<polygon fill="midnightblue" stroke="midnightblue" points="192.45,-266.25 202.99,-267.34 195.43,-259.91 192.45,-266.25"/>
</g>
<!-- Node3 -->
<g id="node3" class="node">
<title>Node3</title>
<g id="a_node3"><a xlink:href="_range_doppler_map_8h.html" target="_top" xlink:title="API for Range Doppler Map.">
<polygon fill="white" stroke="black" points="161,-178.5 161,-230.5 352,-230.5 352,-178.5 161,-178.5"/>
<text text-anchor="start" x="169" y="-218.5" font-family="Helvetica,sans-Serif" font-size="10.00">/home/jenkins/jenkins</text>
<text text-anchor="start" x="169" y="-207.5" font-family="Helvetica,sans-Serif" font-size="10.00">&#45;ci/workspace/er_release</text>
<text text-anchor="start" x="169" y="-196.5" font-family="Helvetica,sans-Serif" font-size="10.00">_release&#45;branch&#45;v3.3.1@2</text>
<text text-anchor="middle" x="256.5" y="-185.5" font-family="Helvetica,sans-Serif" font-size="10.00">/sdk/c/ifxRadar/RangeDopplerMap.h</text>
</a>
</g>
</g>
<!-- Node1&#45;&gt;Node3 -->
<g id="edge2" class="edge">
<title>Node1&#45;&gt;Node3</title>
<path fill="none" stroke="midnightblue" d="M256.5,-257.19C256.5,-248.28 256.5,-238.9 256.5,-230.61"/>
<polygon fill="midnightblue" stroke="midnightblue" points="253,-257.34 256.5,-267.34 260,-257.34 253,-257.34"/>
</g>
<!-- Node6 -->
<g id="node6" class="node">
<title>Node6</title>
<g id="a_node6"><a xlink:href="_range_spectrum_8h.html" target="_top" xlink:title="API for Range Spectrum.">
<polygon fill="white" stroke="black" points="370,-178.5 370,-230.5 549,-230.5 549,-178.5 370,-178.5"/>
<text text-anchor="start" x="378" y="-218.5" font-family="Helvetica,sans-Serif" font-size="10.00">/home/jenkins/jenkins</text>
<text text-anchor="start" x="378" y="-207.5" font-family="Helvetica,sans-Serif" font-size="10.00">&#45;ci/workspace/er_release</text>
<text text-anchor="start" x="378" y="-196.5" font-family="Helvetica,sans-Serif" font-size="10.00">_release&#45;branch&#45;v3.3.1@2</text>
<text text-anchor="middle" x="459.5" y="-185.5" font-family="Helvetica,sans-Serif" font-size="10.00">/sdk/c/ifxRadar/RangeSpectrum.h</text>
</a>
</g>
</g>
<!-- Node1&#45;&gt;Node6 -->
<g id="edge6" class="edge">
<title>Node1&#45;&gt;Node6</title>
<path fill="none" stroke="midnightblue" d="M324.32,-263.44C349.2,-252.77 377.13,-240.8 401.12,-230.52"/>
<polygon fill="midnightblue" stroke="midnightblue" points="322.76,-260.3 314.94,-267.45 325.51,-266.73 322.76,-260.3"/>
</g>
<!-- Node4 -->
<g id="node4" class="node">
<title>Node4</title>
<g id="a_node4"><a xlink:href="_radar_8h.html" target="_top" xlink:title="Header for ifxRadar.">
<polygon fill="white" stroke="black" points="286,-0.5 286,-52.5 429,-52.5 429,-0.5 286,-0.5"/>
<text text-anchor="start" x="294" y="-40.5" font-family="Helvetica,sans-Serif" font-size="10.00">/home/jenkins/jenkins</text>
<text text-anchor="start" x="294" y="-29.5" font-family="Helvetica,sans-Serif" font-size="10.00">&#45;ci/workspace/er_release</text>
<text text-anchor="start" x="294" y="-18.5" font-family="Helvetica,sans-Serif" font-size="10.00">_release&#45;branch&#45;v3.3.1@2</text>
<text text-anchor="middle" x="357.5" y="-7.5" font-family="Helvetica,sans-Serif" font-size="10.00">/sdk/c/ifxRadar/Radar.h</text>
</a>
</g>
</g>
<!-- Node3&#45;&gt;Node4 -->
<g id="edge3" class="edge">
<title>Node3&#45;&gt;Node4</title>
<path fill="none" stroke="midnightblue" d="M211.73,-171.42C203.11,-162.92 195.28,-153 190.5,-142 181.1,-120.4 177.03,-108.32 190.5,-89 212.06,-58.08 251,-42.67 285.86,-35"/>
<polygon fill="midnightblue" stroke="midnightblue" points="209.38,-174.02 219.11,-178.22 214.13,-168.87 209.38,-174.02"/>
</g>
<!-- Node5 -->
<g id="node5" class="node">
<title>Node5</title>
<g id="a_node5"><a xlink:href="_range_angle_image_8h.html" target="_top" xlink:title="API for Range Angle Image algorithm.">
<polygon fill="white" stroke="black" points="200,-89.5 200,-141.5 391,-141.5 391,-89.5 200,-89.5"/>
<text text-anchor="start" x="208" y="-129.5" font-family="Helvetica,sans-Serif" font-size="10.00">/home/jenkins/jenkins</text>
<text text-anchor="start" x="208" y="-118.5" font-family="Helvetica,sans-Serif" font-size="10.00">&#45;ci/workspace/er_release</text>
<text text-anchor="start" x="208" y="-107.5" font-family="Helvetica,sans-Serif" font-size="10.00">_release&#45;branch&#45;v3.3.1@2</text>
<text text-anchor="middle" x="295.5" y="-96.5" font-family="Helvetica,sans-Serif" font-size="10.00">/sdk/c/ifxRadar/RangeAngleImage.h</text>
</a>
</g>
</g>
<!-- Node3&#45;&gt;Node5 -->
<g id="edge4" class="edge">
<title>Node3&#45;&gt;Node5</title>
<path fill="none" stroke="midnightblue" d="M271.94,-169.06C276.05,-159.9 280.41,-150.17 284.24,-141.61"/>
<polygon fill="midnightblue" stroke="midnightblue" points="268.68,-167.78 267.78,-178.34 275.06,-170.64 268.68,-167.78"/>
</g>
<!-- Node5&#45;&gt;Node4 -->
<g id="edge5" class="edge">
<title>Node5&#45;&gt;Node4</title>
<path fill="none" stroke="midnightblue" d="M319.43,-80.93C326.14,-71.51 333.31,-61.44 339.61,-52.61"/>
<polygon fill="midnightblue" stroke="midnightblue" points="316.39,-79.16 313.43,-89.34 322.09,-83.22 316.39,-79.16"/>
</g>
<!-- Node6&#45;&gt;Node4 -->
<g id="edge9" class="edge">
<title>Node6&#45;&gt;Node4</title>
<path fill="none" stroke="midnightblue" d="M442.95,-169.42C431.43,-146.34 415.34,-115.38 399.5,-89 392.18,-76.81 383.39,-63.74 375.75,-52.8"/>
<polygon fill="midnightblue" stroke="midnightblue" points="439.86,-171.07 447.44,-178.47 446.13,-167.96 439.86,-171.07"/>
</g>
<!-- Node7 -->
<g id="node7" class="node">
<title>Node7</title>
<g id="a_node7"><a xlink:href="_presence_sensing_8h.html" target="_top" xlink:title="API for Presence Sensing algorithm.">
<polygon fill="white" stroke="black" points="447.5,-89.5 447.5,-141.5 631.5,-141.5 631.5,-89.5 447.5,-89.5"/>
<text text-anchor="start" x="455.5" y="-129.5" font-family="Helvetica,sans-Serif" font-size="10.00">/home/jenkins/jenkins</text>
<text text-anchor="start" x="455.5" y="-118.5" font-family="Helvetica,sans-Serif" font-size="10.00">&#45;ci/workspace/er_release</text>
<text text-anchor="start" x="455.5" y="-107.5" font-family="Helvetica,sans-Serif" font-size="10.00">_release&#45;branch&#45;v3.3.1@2</text>
<text text-anchor="middle" x="539.5" y="-96.5" font-family="Helvetica,sans-Serif" font-size="10.00">/sdk/c/ifxRadar/PresenceSensing.h</text>
</a>
</g>
</g>
<!-- Node6&#45;&gt;Node7 -->
<g id="edge7" class="edge">
<title>Node6&#45;&gt;Node7</title>
<path fill="none" stroke="midnightblue" d="M489.58,-170.79C498.46,-161.13 508.04,-150.71 516.41,-141.61"/>
<polygon fill="midnightblue" stroke="midnightblue" points="486.83,-168.61 482.64,-178.34 491.98,-173.34 486.83,-168.61"/>
</g>
<!-- Node7&#45;&gt;Node4 -->
<g id="edge8" class="edge">
<title>Node7&#45;&gt;Node4</title>
<path fill="none" stroke="midnightblue" d="M477.61,-84.92C455.64,-74.41 431.14,-62.7 410.02,-52.61"/>
<polygon fill="midnightblue" stroke="midnightblue" points="476.33,-88.18 486.86,-89.34 479.35,-81.87 476.33,-88.18"/>
</g>
</g>
</svg>
