<?xml version="1.0" encoding="UTF-8" standalone="no"?>
<!DOCTYPE svg PUBLIC "-//W3C//DTD SVG 1.1//EN"
 "http://www.w3.org/Graphics/SVG/1.1/DTD/svg11.dtd">
<!-- Generated by graphviz version 2.43.0 (0)
 -->
<!-- Title: /home/jenkins/jenkins&#45;ci/workspace/er_release_release&#45;branch&#45;v3.3.1@2/sdk/c/ifxRadar/PresenceSensing.h Pages: 1 -->
<svg width="1053pt" height="464pt"
 viewBox="0.00 0.00 1052.50 464.00" xmlns="http://www.w3.org/2000/svg" xmlns:xlink="http://www.w3.org/1999/xlink">
<g id="graph0" class="graph" transform="scale(1 1) rotate(0) translate(4 460)">
<title>/home/jenkins/jenkins&#45;ci/workspace/er_release_release&#45;branch&#45;v3.3.1@2/sdk/c/ifxRadar/PresenceSensing.h</title>
<polygon fill="white" stroke="transparent" points="-4,4 -4,-460 1048.5,-460 1048.5,4 -4,4"/>
<!-- Node1 -->
<g id="node1" class="node">
<title>Node1</title>
<g id="a_node1"><a xlink:title="API for Presence Sensing algorithm.">
<polygon fill="#bfbfbf" stroke="black" points="237,-403.5 237,-455.5 421,-455.5 421,-403.5 237,-403.5"/>
<text text-anchor="start" x="245" y="-443.5" font-family="Helvetica,sans-Serif" font-size="10.00">/home/jenkins/jenkins</text>
<text text-anchor="start" x="245" y="-432.5" font-family="Helvetica,sans-Serif" font-size="10.00">&#45;ci/workspace/er_release</text>
<text text-anchor="start" x="245" y="-421.5" font-family="Helvetica,sans-Serif" font-size="10.00">_release&#45;branch&#45;v3.3.1@2</text>
<text text-anchor="middle" x="329" y="-410.5" font-family="Helvetica,sans-Serif" font-size="10.00">/sdk/c/ifxRadar/PresenceSensing.h</text>
</a>
</g>
</g>
<!-- Node2 -->
<g id="node2" class="node">
<title>Node2</title>
<g id="a_node2"><a xlink:href="_window_8h.html" target="_top" xlink:title="API for Window function processing.">
<polygon fill="white" stroke="black" points="66.5,-174 66.5,-193 167.5,-193 167.5,-174 66.5,-174"/>
<text text-anchor="middle" x="117" y="-181" font-family="Helvetica,sans-Serif" font-size="10.00">ifxAlgo/Window.h</text>
</a>
</g>
</g>
<!-- Node1&#45;&gt;Node2 -->
<g id="edge1" class="edge">
<title>Node1&#45;&gt;Node2</title>
<path fill="none" stroke="midnightblue" d="M278.34,-403.48C239.95,-382.66 187.73,-350.17 151,-311 131.39,-290.09 126.75,-282.6 119,-255 114.25,-238.07 114.2,-217.95 115.07,-203.54"/>
<polygon fill="midnightblue" stroke="midnightblue" points="118.57,-203.64 115.89,-193.39 111.6,-203.07 118.57,-203.64"/>
</g>
<!-- Node3 -->
<g id="node3" class="node">
<title>Node3</title>
<g id="a_node3"><a xlink:href="ifx_base_2_types_8h.html" target="_top" xlink:title="Definitions of data types used within the SDK.">
<polygon fill="white" stroke="black" points="412.5,-56.5 412.5,-75.5 505.5,-75.5 505.5,-56.5 412.5,-56.5"/>
<text text-anchor="middle" x="459" y="-63.5" font-family="Helvetica,sans-Serif" font-size="10.00">ifxBase/Types.h</text>
</a>
</g>
</g>
<!-- Node1&#45;&gt;Node3 -->
<g id="edge8" class="edge">
<title>Node1&#45;&gt;Node3</title>
<path fill="none" stroke="midnightblue" d="M236.92,-411.7C139.59,-391.25 0,-353.02 0,-302 0,-302 0,-302 0,-182.5 0,-132.04 42.43,-131.44 89,-112 144.21,-88.95 312.73,-75.72 402.05,-70.15"/>
<polygon fill="midnightblue" stroke="midnightblue" points="402.5,-73.63 412.27,-69.52 402.08,-66.64 402.5,-73.63"/>
</g>
<!-- Node8 -->
<g id="node8" class="node">
<title>Node8</title>
<g id="a_node8"><a xlink:href="_matrix_8h.html" target="_top" xlink:title="API for operations on Matrix data structures.">
<polygon fill="white" stroke="black" points="344.5,-235.5 344.5,-254.5 441.5,-254.5 441.5,-235.5 344.5,-235.5"/>
<text text-anchor="middle" x="393" y="-242.5" font-family="Helvetica,sans-Serif" font-size="10.00">ifxBase/Matrix.h</text>
</a>
</g>
</g>
<!-- Node1&#45;&gt;Node8 -->
<g id="edge9" class="edge">
<title>Node1&#45;&gt;Node8</title>
<path fill="none" stroke="midnightblue" d="M337.9,-403.12C350.98,-365.81 375.1,-297.04 386.59,-264.28"/>
<polygon fill="midnightblue" stroke="midnightblue" points="389.96,-265.24 389.97,-254.65 383.35,-262.93 389.96,-265.24"/>
</g>
<!-- Node9 -->
<g id="node9" class="node">
<title>Node9</title>
<g id="a_node9"><a xlink:href="_device_config_8h.html" target="_top" xlink:title="API for Radar device configuration.">
<polygon fill="white" stroke="black" points="810.5,-235.5 810.5,-254.5 943.5,-254.5 943.5,-235.5 810.5,-235.5"/>
<text text-anchor="middle" x="877" y="-242.5" font-family="Helvetica,sans-Serif" font-size="10.00">ifxAvian/DeviceConfig.h</text>
</a>
</g>
</g>
<!-- Node1&#45;&gt;Node9 -->
<g id="edge12" class="edge">
<title>Node1&#45;&gt;Node9</title>
<path fill="none" stroke="midnightblue" d="M421.34,-421.08C505.9,-412.8 633.96,-396.51 742,-367 805.85,-349.56 843.03,-365.9 880,-311 889.06,-297.54 887.01,-278.73 883.47,-264.8"/>
<polygon fill="midnightblue" stroke="midnightblue" points="886.71,-263.45 880.49,-254.88 880.01,-265.46 886.71,-263.45"/>
</g>
<!-- Node11 -->
<g id="node11" class="node">
<title>Node11</title>
<g id="a_node11"><a xlink:href="_device_control_8h.html" target="_top" xlink:title="API for Radar device control operations.">
<polygon fill="white" stroke="black" points="596.5,-347.5 596.5,-366.5 733.5,-366.5 733.5,-347.5 596.5,-347.5"/>
<text text-anchor="middle" x="665" y="-354.5" font-family="Helvetica,sans-Serif" font-size="10.00">ifxAvian/DeviceControl.h</text>
</a>
</g>
</g>
<!-- Node1&#45;&gt;Node11 -->
<g id="edge16" class="edge">
<title>Node1&#45;&gt;Node11</title>
<path fill="none" stroke="midnightblue" d="M421.26,-409.14C483.55,-396.07 563.41,-379.32 614.4,-368.62"/>
<polygon fill="midnightblue" stroke="midnightblue" points="615.14,-372.04 624.21,-366.56 613.7,-365.19 615.14,-372.04"/>
</g>
<!-- Node20 -->
<g id="node20" class="node">
<title>Node20</title>
<g id="a_node20"><a xlink:href="_range_spectrum_8h.html" target="_top" xlink:title="API for Range Spectrum.">
<polygon fill="white" stroke="black" points="160.5,-291.5 160.5,-310.5 307.5,-310.5 307.5,-291.5 160.5,-291.5"/>
<text text-anchor="middle" x="234" y="-298.5" font-family="Helvetica,sans-Serif" font-size="10.00">ifxRadar/RangeSpectrum.h</text>
</a>
</g>
</g>
<!-- Node1&#45;&gt;Node20 -->
<g id="edge36" class="edge">
<title>Node1&#45;&gt;Node20</title>
<path fill="none" stroke="midnightblue" d="M310,-403.2C291.15,-378.1 262.78,-340.32 246.56,-318.73"/>
<polygon fill="midnightblue" stroke="midnightblue" points="249.22,-316.44 240.42,-310.55 243.63,-320.65 249.22,-316.44"/>
</g>
<!-- Node2&#45;&gt;Node3 -->
<g id="edge2" class="edge">
<title>Node2&#45;&gt;Node3</title>
<path fill="none" stroke="midnightblue" d="M122.18,-173.85C131.83,-158.56 154.14,-126.98 182,-112 219.09,-92.05 332.4,-78.52 402.08,-71.84"/>
<polygon fill="midnightblue" stroke="midnightblue" points="402.82,-75.29 412.45,-70.87 402.17,-68.32 402.82,-75.29"/>
</g>
<!-- Node7 -->
<g id="node7" class="node">
<title>Node7</title>
<g id="a_node7"><a xlink:href="_vector_8h.html" target="_top" xlink:title="API for operations on Vector data structures.">
<polygon fill="white" stroke="black" points="304.5,-112.5 304.5,-131.5 399.5,-131.5 399.5,-112.5 304.5,-112.5"/>
<text text-anchor="middle" x="352" y="-119.5" font-family="Helvetica,sans-Serif" font-size="10.00">ifxBase/Vector.h</text>
</a>
</g>
</g>
<!-- Node2&#45;&gt;Node7 -->
<g id="edge6" class="edge">
<title>Node2&#45;&gt;Node7</title>
<path fill="none" stroke="midnightblue" d="M150.67,-173.98C192.2,-163.46 262.89,-145.56 308.5,-134.01"/>
<polygon fill="midnightblue" stroke="midnightblue" points="309.56,-137.36 318.39,-131.51 307.84,-130.57 309.56,-137.36"/>
</g>
<!-- Node4 -->
<g id="node4" class="node">
<title>Node4</title>
<g id="a_node4"><a xlink:title=" ">
<polygon fill="white" stroke="#bfbfbf" points="359.5,-0.5 359.5,-19.5 412.5,-19.5 412.5,-0.5 359.5,-0.5"/>
<text text-anchor="middle" x="386" y="-7.5" font-family="Helvetica,sans-Serif" font-size="10.00">stdint.h</text>
</a>
</g>
</g>
<!-- Node3&#45;&gt;Node4 -->
<g id="edge3" class="edge">
<title>Node3&#45;&gt;Node4</title>
<path fill="none" stroke="midnightblue" d="M447.27,-56.32C436.16,-48.11 419.26,-35.6 406.02,-25.81"/>
<polygon fill="midnightblue" stroke="midnightblue" points="408.06,-22.97 397.94,-19.83 403.9,-28.59 408.06,-22.97"/>
</g>
<!-- Node5 -->
<g id="node5" class="node">
<title>Node5</title>
<g id="a_node5"><a xlink:title=" ">
<polygon fill="white" stroke="#bfbfbf" points="431,-0.5 431,-19.5 487,-19.5 487,-0.5 431,-0.5"/>
<text text-anchor="middle" x="459" y="-7.5" font-family="Helvetica,sans-Serif" font-size="10.00">stddef.h</text>
</a>
</g>
</g>
<!-- Node3&#45;&gt;Node5 -->
<g id="edge4" class="edge">
<title>Node3&#45;&gt;Node5</title>
<path fill="none" stroke="midnightblue" d="M459,-56.08C459,-49.01 459,-38.86 459,-29.99"/>
<polygon fill="midnightblue" stroke="midnightblue" points="462.5,-29.75 459,-19.75 455.5,-29.75 462.5,-29.75"/>
</g>
<!-- Node6 -->
<g id="node6" class="node">
<title>Node6</title>
<g id="a_node6"><a xlink:title=" ">
<polygon fill="white" stroke="#bfbfbf" points="505,-0.5 505,-19.5 567,-19.5 567,-0.5 505,-0.5"/>
<text text-anchor="middle" x="536" y="-7.5" font-family="Helvetica,sans-Serif" font-size="10.00">stdbool.h</text>
</a>
</g>
</g>
<!-- Node3&#45;&gt;Node6 -->
<g id="edge5" class="edge">
<title>Node3&#45;&gt;Node6</title>
<path fill="none" stroke="midnightblue" d="M471.37,-56.32C483.16,-48.06 501.13,-35.45 515.14,-25.63"/>
<polygon fill="midnightblue" stroke="midnightblue" points="517.48,-28.26 523.66,-19.65 513.46,-22.53 517.48,-28.26"/>
</g>
<!-- Node7&#45;&gt;Node3 -->
<g id="edge7" class="edge">
<title>Node7&#45;&gt;Node3</title>
<path fill="none" stroke="midnightblue" d="M369.19,-112.32C386.35,-103.66 412.95,-90.24 432.75,-80.25"/>
<polygon fill="midnightblue" stroke="midnightblue" points="434.5,-83.28 441.85,-75.65 431.35,-77.04 434.5,-83.28"/>
</g>
<!-- Node8&#45;&gt;Node3 -->
<g id="edge10" class="edge">
<title>Node8&#45;&gt;Node3</title>
<path fill="none" stroke="midnightblue" d="M414.77,-235.43C429.89,-228.19 448.89,-216.23 458,-199 477.22,-162.66 469.99,-112.44 463.95,-85.63"/>
<polygon fill="midnightblue" stroke="midnightblue" points="467.29,-84.56 461.51,-75.68 460.49,-86.23 467.29,-84.56"/>
</g>
<!-- Node8&#45;&gt;Node7 -->
<g id="edge11" class="edge">
<title>Node8&#45;&gt;Node7</title>
<path fill="none" stroke="midnightblue" d="M390.05,-235.3C383.4,-215.68 367.13,-167.64 358.16,-141.19"/>
<polygon fill="midnightblue" stroke="midnightblue" points="361.45,-139.97 354.92,-131.62 354.82,-142.22 361.45,-139.97"/>
</g>
<!-- Node9&#45;&gt;Node3 -->
<g id="edge13" class="edge">
<title>Node9&#45;&gt;Node3</title>
<path fill="none" stroke="midnightblue" d="M874.58,-235.38C867.29,-211.23 843.11,-142.63 796,-112 750.93,-82.69 599.38,-72.31 515.7,-68.76"/>
<polygon fill="midnightblue" stroke="midnightblue" points="515.73,-65.26 505.59,-68.35 515.44,-72.25 515.73,-65.26"/>
</g>
<!-- Node10 -->
<g id="node10" class="node">
<title>Node10</title>
<g id="a_node10"><a xlink:href="_radar_device_common_8h.html" target="_top" xlink:title="Header for ifxRadarDeviceCommon.">
<polygon fill="white" stroke="black" points="618,-168.5 618,-198.5 754,-198.5 754,-168.5 618,-168.5"/>
<text text-anchor="start" x="626" y="-186.5" font-family="Helvetica,sans-Serif" font-size="10.00">ifxRadarDeviceCommon</text>
<text text-anchor="middle" x="686" y="-175.5" font-family="Helvetica,sans-Serif" font-size="10.00">/RadarDeviceCommon.h</text>
</a>
</g>
</g>
<!-- Node9&#45;&gt;Node10 -->
<g id="edge14" class="edge">
<title>Node9&#45;&gt;Node10</title>
<path fill="none" stroke="midnightblue" d="M849.63,-235.48C821.35,-226.66 776.42,-212.67 740.8,-201.57"/>
<polygon fill="midnightblue" stroke="midnightblue" points="741.6,-198.16 731.01,-198.52 739.52,-204.84 741.6,-198.16"/>
</g>
<!-- Node10&#45;&gt;Node3 -->
<g id="edge15" class="edge">
<title>Node10&#45;&gt;Node3</title>
<path fill="none" stroke="midnightblue" d="M673.1,-168.37C657.97,-152.56 631.43,-127.18 604,-112 575.43,-96.19 540.55,-85.14 512.16,-77.95"/>
<polygon fill="midnightblue" stroke="midnightblue" points="512.96,-74.54 502.41,-75.56 511.3,-81.34 512.96,-74.54"/>
</g>
<!-- Node11&#45;&gt;Node3 -->
<g id="edge17" class="edge">
<title>Node11&#45;&gt;Node3</title>
<path fill="none" stroke="midnightblue" d="M658.83,-347.35C630.17,-307.13 509.66,-138.08 471,-83.83"/>
<polygon fill="midnightblue" stroke="midnightblue" points="473.8,-81.73 465.14,-75.62 468.1,-85.79 473.8,-81.73"/>
</g>
<!-- Node11&#45;&gt;Node9 -->
<g id="edge30" class="edge">
<title>Node11&#45;&gt;Node9</title>
<path fill="none" stroke="midnightblue" d="M733.5,-347.78C782.19,-340.57 841.99,-328.49 860,-311 872.28,-299.07 876.07,-279.46 877.06,-264.89"/>
<polygon fill="midnightblue" stroke="midnightblue" points="880.57,-264.63 877.37,-254.53 873.58,-264.42 880.57,-264.63"/>
</g>
<!-- Node11&#45;&gt;Node10 -->
<g id="edge35" class="edge">
<title>Node11&#45;&gt;Node10</title>
<path fill="none" stroke="midnightblue" d="M670.43,-347.24C680.63,-330.24 702.29,-291.24 710,-255 713.44,-238.82 707.45,-221.2 700.59,-207.63"/>
<polygon fill="midnightblue" stroke="midnightblue" points="703.47,-205.59 695.57,-198.53 697.34,-208.98 703.47,-205.59"/>
</g>
<!-- Node12 -->
<g id="node12" class="node">
<title>Node12</title>
<g id="a_node12"><a xlink:href="_error_8h.html" target="_top" xlink:title="API for error handling.">
<polygon fill="white" stroke="black" points="952,-291.5 952,-310.5 1040,-310.5 1040,-291.5 952,-291.5"/>
<text text-anchor="middle" x="996" y="-298.5" font-family="Helvetica,sans-Serif" font-size="10.00">ifxBase/Error.h</text>
</a>
</g>
</g>
<!-- Node11&#45;&gt;Node12 -->
<g id="edge18" class="edge">
<title>Node11&#45;&gt;Node12</title>
<path fill="none" stroke="midnightblue" d="M717.45,-347.44C778.83,-337.43 879.97,-320.93 942.01,-310.81"/>
<polygon fill="midnightblue" stroke="midnightblue" points="942.69,-314.24 952,-309.18 941.57,-307.33 942.69,-314.24"/>
</g>
<!-- Node15 -->
<g id="node15" class="node">
<title>Node15</title>
<g id="a_node15"><a xlink:href="_list_8h.html" target="_top" xlink:title=" ">
<polygon fill="white" stroke="black" points="618.5,-235.5 618.5,-254.5 701.5,-254.5 701.5,-235.5 618.5,-235.5"/>
<text text-anchor="middle" x="660" y="-242.5" font-family="Helvetica,sans-Serif" font-size="10.00">ifxBase/List.h</text>
</a>
</g>
</g>
<!-- Node11&#45;&gt;Node15 -->
<g id="edge22" class="edge">
<title>Node11&#45;&gt;Node15</title>
<path fill="none" stroke="midnightblue" d="M664.61,-347.37C663.8,-329.62 661.94,-288.67 660.85,-264.6"/>
<polygon fill="midnightblue" stroke="midnightblue" points="664.34,-264.42 660.39,-254.59 657.35,-264.74 664.34,-264.42"/>
</g>
<!-- Node16 -->
<g id="node16" class="node">
<title>Node16</title>
<g id="a_node16"><a xlink:href="_cube_8h.html" target="_top" xlink:title="API for operations on Cube data structures.">
<polygon fill="white" stroke="black" points="466,-291.5 466,-310.5 556,-310.5 556,-291.5 466,-291.5"/>
<text text-anchor="middle" x="511" y="-298.5" font-family="Helvetica,sans-Serif" font-size="10.00">ifxBase/Cube.h</text>
</a>
</g>
</g>
<!-- Node11&#45;&gt;Node16 -->
<g id="edge24" class="edge">
<title>Node11&#45;&gt;Node16</title>
<path fill="none" stroke="midnightblue" d="M640.6,-347.44C614.8,-338.4 573.92,-324.06 544.98,-313.92"/>
<polygon fill="midnightblue" stroke="midnightblue" points="545.88,-310.52 535.29,-310.52 543.57,-317.13 545.88,-310.52"/>
</g>
<!-- Node19 -->
<g id="node19" class="node">
<title>Node19</title>
<g id="a_node19"><a xlink:href="_recording_8h.html" target="_top" xlink:title="This file defines functions to handle Recordings.">
<polygon fill="white" stroke="black" points="712.5,-291.5 712.5,-310.5 851.5,-310.5 851.5,-291.5 712.5,-291.5"/>
<text text-anchor="middle" x="782" y="-298.5" font-family="Helvetica,sans-Serif" font-size="10.00">ifxRecording/Recording.h</text>
</a>
</g>
</g>
<!-- Node11&#45;&gt;Node19 -->
<g id="edge31" class="edge">
<title>Node11&#45;&gt;Node19</title>
<path fill="none" stroke="midnightblue" d="M683.54,-347.44C702.62,-338.64 732.57,-324.81 754.44,-314.72"/>
<polygon fill="midnightblue" stroke="midnightblue" points="755.93,-317.88 763.55,-310.52 753,-311.53 755.93,-317.88"/>
</g>
<!-- Node13 -->
<g id="node13" class="node">
<title>Node13</title>
<g id="a_node13"><a xlink:href="_log_8h.html" target="_top" xlink:title="API for logging.">
<polygon fill="white" stroke="black" points="961.5,-235.5 961.5,-254.5 1044.5,-254.5 1044.5,-235.5 961.5,-235.5"/>
<text text-anchor="middle" x="1003" y="-242.5" font-family="Helvetica,sans-Serif" font-size="10.00">ifxBase/Log.h</text>
</a>
</g>
</g>
<!-- Node12&#45;&gt;Node13 -->
<g id="edge19" class="edge">
<title>Node12&#45;&gt;Node13</title>
<path fill="none" stroke="midnightblue" d="M997.16,-291.08C998.08,-283.93 999.42,-273.64 1000.58,-264.69"/>
<polygon fill="midnightblue" stroke="midnightblue" points="1004.05,-265.12 1001.87,-254.75 997.11,-264.22 1004.05,-265.12"/>
</g>
<!-- Node13&#45;&gt;Node3 -->
<g id="edge21" class="edge">
<title>Node13&#45;&gt;Node3</title>
<path fill="none" stroke="midnightblue" d="M994.58,-235.31C970.39,-210.96 897.58,-141.9 822,-112 767.61,-90.48 603.55,-76.63 515.8,-70.56"/>
<polygon fill="midnightblue" stroke="midnightblue" points="515.97,-67.06 505.75,-69.87 515.49,-74.04 515.97,-67.06"/>
</g>
<!-- Node14 -->
<g id="node14" class="node">
<title>Node14</title>
<g id="a_node14"><a xlink:title=" ">
<polygon fill="white" stroke="#bfbfbf" points="978,-174 978,-193 1028,-193 1028,-174 978,-174"/>
<text text-anchor="middle" x="1003" y="-181" font-family="Helvetica,sans-Serif" font-size="10.00">stdio.h</text>
</a>
</g>
</g>
<!-- Node13&#45;&gt;Node14 -->
<g id="edge20" class="edge">
<title>Node13&#45;&gt;Node14</title>
<path fill="none" stroke="midnightblue" d="M1003,-235.48C1003,-227.08 1003,-213.98 1003,-203.16"/>
<polygon fill="midnightblue" stroke="midnightblue" points="1006.5,-203.01 1003,-193.01 999.5,-203.01 1006.5,-203.01"/>
</g>
<!-- Node15&#45;&gt;Node3 -->
<g id="edge23" class="edge">
<title>Node15&#45;&gt;Node3</title>
<path fill="none" stroke="midnightblue" d="M647.86,-235.46C636.69,-227.14 620.2,-213.63 609,-199 582.78,-164.75 597.41,-141.56 566,-112 549.29,-96.28 526.27,-85.64 505.87,-78.67"/>
<polygon fill="midnightblue" stroke="midnightblue" points="506.69,-75.26 496.1,-75.54 504.56,-81.92 506.69,-75.26"/>
</g>
<!-- Node16&#45;&gt;Node8 -->
<g id="edge29" class="edge">
<title>Node16&#45;&gt;Node8</title>
<path fill="none" stroke="midnightblue" d="M492.3,-291.44C473.06,-282.64 442.85,-268.81 420.8,-258.72"/>
<polygon fill="midnightblue" stroke="midnightblue" points="422.16,-255.5 411.61,-254.52 419.25,-261.86 422.16,-255.5"/>
</g>
<!-- Node17 -->
<g id="node17" class="node">
<title>Node17</title>
<g id="a_node17"><a xlink:href="_defines_8h.html" target="_top" xlink:title="Internal definitions used by standard math.h functions as Macros, to use float or double precision.">
<polygon fill="white" stroke="black" points="460,-235.5 460,-254.5 562,-254.5 562,-235.5 460,-235.5"/>
<text text-anchor="middle" x="511" y="-242.5" font-family="Helvetica,sans-Serif" font-size="10.00">ifxBase/Defines.h</text>
</a>
</g>
</g>
<!-- Node16&#45;&gt;Node17 -->
<g id="edge25" class="edge">
<title>Node16&#45;&gt;Node17</title>
<path fill="none" stroke="midnightblue" d="M511,-291.08C511,-284.01 511,-273.86 511,-264.99"/>
<polygon fill="midnightblue" stroke="midnightblue" points="514.5,-264.75 511,-254.75 507.5,-264.75 514.5,-264.75"/>
</g>
<!-- Node18 -->
<g id="node18" class="node">
<title>Node18</title>
<g id="a_node18"><a xlink:href="_math_8h.html" target="_top" xlink:title="API for Mathematical operations.">
<polygon fill="white" stroke="black" points="398.5,-174 398.5,-193 449.5,-193 449.5,-174 398.5,-174"/>
<text text-anchor="middle" x="424" y="-181" font-family="Helvetica,sans-Serif" font-size="10.00">math.h</text>
</a>
</g>
</g>
<!-- Node17&#45;&gt;Node18 -->
<g id="edge26" class="edge">
<title>Node17&#45;&gt;Node18</title>
<path fill="none" stroke="midnightblue" d="M498.54,-235.48C484.58,-225.93 461.74,-210.31 445.01,-198.87"/>
<polygon fill="midnightblue" stroke="midnightblue" points="446.67,-195.77 436.44,-193.01 442.72,-201.54 446.67,-195.77"/>
</g>
<!-- Node18&#45;&gt;Node3 -->
<g id="edge27" class="edge">
<title>Node18&#45;&gt;Node3</title>
<path fill="none" stroke="midnightblue" d="M426.63,-173.82C432.28,-155.17 445.68,-110.94 453.35,-85.63"/>
<polygon fill="midnightblue" stroke="midnightblue" points="456.79,-86.37 456.34,-75.78 450.09,-84.34 456.79,-86.37"/>
</g>
<!-- Node18&#45;&gt;Node7 -->
<g id="edge28" class="edge">
<title>Node18&#45;&gt;Node7</title>
<path fill="none" stroke="midnightblue" d="M413.68,-173.98C402.35,-164.61 383.93,-149.38 370.16,-138.01"/>
<polygon fill="midnightblue" stroke="midnightblue" points="372.23,-135.18 362.3,-131.51 367.78,-140.58 372.23,-135.18"/>
</g>
<!-- Node19&#45;&gt;Node3 -->
<g id="edge32" class="edge">
<title>Node19&#45;&gt;Node3</title>
<path fill="none" stroke="midnightblue" d="M783.43,-291.19C786.63,-268.26 792,-205.87 763,-168 704.51,-91.61 586.25,-72.34 515.71,-67.88"/>
<polygon fill="midnightblue" stroke="midnightblue" points="515.84,-64.38 505.66,-67.32 515.45,-71.37 515.84,-64.38"/>
</g>
<!-- Node19&#45;&gt;Node9 -->
<g id="edge33" class="edge">
<title>Node19&#45;&gt;Node9</title>
<path fill="none" stroke="midnightblue" d="M797.26,-291.32C812.22,-282.82 835.25,-269.73 852.73,-259.8"/>
<polygon fill="midnightblue" stroke="midnightblue" points="854.81,-262.64 861.77,-254.65 851.35,-256.55 854.81,-262.64"/>
</g>
<!-- Node19&#45;&gt;Node15 -->
<g id="edge34" class="edge">
<title>Node19&#45;&gt;Node15</title>
<path fill="none" stroke="midnightblue" d="M762.67,-291.44C742.68,-282.6 711.26,-268.69 688.44,-258.59"/>
<polygon fill="midnightblue" stroke="midnightblue" points="689.8,-255.36 679.24,-254.52 686.97,-261.76 689.8,-255.36"/>
</g>
<!-- Node20&#45;&gt;Node2 -->
<g id="edge44" class="edge">
<title>Node20&#45;&gt;Node2</title>
<path fill="none" stroke="midnightblue" d="M194.19,-291.43C173.05,-284.89 148.35,-273.69 133,-255 121.2,-240.62 117.7,-219.26 116.84,-203.82"/>
<polygon fill="midnightblue" stroke="midnightblue" points="120.33,-203.3 116.61,-193.38 113.33,-203.46 120.33,-203.3"/>
</g>
<!-- Node20&#45;&gt;Node3 -->
<g id="edge45" class="edge">
<title>Node20&#45;&gt;Node3</title>
<path fill="none" stroke="midnightblue" d="M199.95,-291.48C138.85,-274.38 20.25,-231.99 57,-168 81.6,-125.17 106.38,-128.33 153,-112 236.65,-82.69 339.64,-72.47 402.26,-68.91"/>
<polygon fill="midnightblue" stroke="midnightblue" points="402.53,-72.4 412.33,-68.37 402.16,-65.41 402.53,-72.4"/>
</g>
<!-- Node20&#45;&gt;Node7 -->
<g id="edge47" class="edge">
<title>Node20&#45;&gt;Node7</title>
<path fill="none" stroke="midnightblue" d="M250.42,-291.43C264.17,-283.55 283.5,-270.72 296,-255 324.06,-219.73 340.44,-168.32 347.63,-141.25"/>
<polygon fill="midnightblue" stroke="midnightblue" points="351.02,-142.1 350.08,-131.55 344.24,-140.38 351.02,-142.1"/>
</g>
<!-- Node20&#45;&gt;Node8 -->
<g id="edge46" class="edge">
<title>Node20&#45;&gt;Node8</title>
<path fill="none" stroke="midnightblue" d="M259.19,-291.44C285.94,-282.36 328.4,-267.94 358.31,-257.78"/>
<polygon fill="midnightblue" stroke="midnightblue" points="359.58,-261.05 367.92,-254.52 357.33,-254.42 359.58,-261.05"/>
</g>
<!-- Node21 -->
<g id="node21" class="node">
<title>Node21</title>
<g id="a_node21"><a xlink:href="_preprocessed_f_f_t_8h.html" target="_top" xlink:title="API for Pre&#45;processed FFT.">
<polygon fill="white" stroke="black" points="142.5,-235.5 142.5,-254.5 287.5,-254.5 287.5,-235.5 142.5,-235.5"/>
<text text-anchor="middle" x="215" y="-242.5" font-family="Helvetica,sans-Serif" font-size="10.00">ifxAlgo/PreprocessedFFT.h</text>
</a>
</g>
</g>
<!-- Node20&#45;&gt;Node21 -->
<g id="edge37" class="edge">
<title>Node20&#45;&gt;Node21</title>
<path fill="none" stroke="midnightblue" d="M230.86,-291.08C228.32,-283.85 224.64,-273.41 221.47,-264.4"/>
<polygon fill="midnightblue" stroke="midnightblue" points="224.7,-263.02 218.08,-254.75 218.1,-265.35 224.7,-263.02"/>
</g>
<!-- Node21&#45;&gt;Node2 -->
<g id="edge41" class="edge">
<title>Node21&#45;&gt;Node2</title>
<path fill="none" stroke="midnightblue" d="M200.96,-235.48C184.95,-225.75 158.55,-209.73 139.63,-198.24"/>
<polygon fill="midnightblue" stroke="midnightblue" points="141.38,-195.21 131.01,-193.01 137.75,-201.19 141.38,-195.21"/>
</g>
<!-- Node21&#45;&gt;Node3 -->
<g id="edge42" class="edge">
<title>Node21&#45;&gt;Node3</title>
<path fill="none" stroke="midnightblue" d="M212.79,-235.1C209.6,-220.41 205.13,-190.47 215,-168 229.81,-134.31 243.56,-129.38 276,-112 315.28,-90.95 364.56,-79.57 402.08,-73.51"/>
<polygon fill="midnightblue" stroke="midnightblue" points="402.98,-76.92 412.34,-71.95 401.92,-70 402.98,-76.92"/>
</g>
<!-- Node21&#45;&gt;Node18 -->
<g id="edge43" class="edge">
<title>Node21&#45;&gt;Node18</title>
<path fill="none" stroke="midnightblue" d="M244.94,-235.48C282.92,-224.66 348.32,-206.05 388.69,-194.55"/>
<polygon fill="midnightblue" stroke="midnightblue" points="389.72,-197.9 398.38,-191.79 387.81,-191.16 389.72,-197.9"/>
</g>
<!-- Node22 -->
<g id="node22" class="node">
<title>Node22</title>
<g id="a_node22"><a xlink:href="_f_f_t_8h.html" target="_top" xlink:title="API for Fast Fourier Transform (FFT)">
<polygon fill="white" stroke="black" points="224,-174 224,-193 304,-193 304,-174 224,-174"/>
<text text-anchor="middle" x="264" y="-181" font-family="Helvetica,sans-Serif" font-size="10.00">ifxAlgo/FFT.h</text>
</a>
</g>
</g>
<!-- Node21&#45;&gt;Node22 -->
<g id="edge38" class="edge">
<title>Node21&#45;&gt;Node22</title>
<path fill="none" stroke="midnightblue" d="M222.02,-235.48C229.44,-226.46 241.33,-212.02 250.57,-200.81"/>
<polygon fill="midnightblue" stroke="midnightblue" points="253.34,-202.95 256.99,-193.01 247.93,-198.5 253.34,-202.95"/>
</g>
<!-- Node22&#45;&gt;Node3 -->
<g id="edge39" class="edge">
<title>Node22&#45;&gt;Node3</title>
<path fill="none" stroke="midnightblue" d="M265.37,-173.7C268.17,-158.75 275.97,-128.43 295,-112 324.7,-86.36 367.75,-75.22 402.3,-70.42"/>
<polygon fill="midnightblue" stroke="midnightblue" points="402.77,-73.89 412.26,-69.18 401.9,-66.95 402.77,-73.89"/>
</g>
<!-- Node22&#45;&gt;Node7 -->
<g id="edge40" class="edge">
<title>Node22&#45;&gt;Node7</title>
<path fill="none" stroke="midnightblue" d="M276.61,-173.98C290.72,-164.43 313.83,-148.81 330.75,-137.37"/>
<polygon fill="midnightblue" stroke="midnightblue" points="333.09,-140.01 339.42,-131.51 329.17,-134.21 333.09,-140.01"/>
</g>
</g>
</svg>
