<?xml version="1.0" encoding="UTF-8" standalone="no"?>
<!DOCTYPE svg PUBLIC "-//W3C//DTD SVG 1.1//EN"
 "http://www.w3.org/Graphics/SVG/1.1/DTD/svg11.dtd">
<!-- Generated by graphviz version 2.43.0 (0)
 -->
<!-- Title: /home/jenkins/jenkins&#45;ci/workspace/er_release_release&#45;branch&#45;v3.3.1@2/sdk/c/ifxRadarSegmentation/RadarSegmentation.h Pages: 1 -->
<svg width="457pt" height="486pt"
 viewBox="0.00 0.00 457.00 486.00" xmlns="http://www.w3.org/2000/svg" xmlns:xlink="http://www.w3.org/1999/xlink">
<g id="graph0" class="graph" transform="scale(1 1) rotate(0) translate(4 482)">
<title>/home/jenkins/jenkins&#45;ci/workspace/er_release_release&#45;branch&#45;v3.3.1@2/sdk/c/ifxRadarSegmentation/RadarSegmentation.h</title>
<polygon fill="white" stroke="transparent" points="-4,4 -4,-482 453,-482 453,4 -4,4"/>
<!-- Node1 -->
<g id="node1" class="node">
<title>Node1</title>
<g id="a_node1"><a xlink:title="Header for ifxRadarSegmentation.">
<polygon fill="#bfbfbf" stroke="black" points="137,-414.5 137,-477.5 295,-477.5 295,-414.5 137,-414.5"/>
<text text-anchor="start" x="145" y="-465.5" font-family="Helvetica,sans-Serif" font-size="10.00">/home/jenkins/jenkins</text>
<text text-anchor="start" x="145" y="-454.5" font-family="Helvetica,sans-Serif" font-size="10.00">&#45;ci/workspace/er_release</text>
<text text-anchor="start" x="145" y="-443.5" font-family="Helvetica,sans-Serif" font-size="10.00">_release&#45;branch&#45;v3.3.1@2</text>
<text text-anchor="start" x="145" y="-432.5" font-family="Helvetica,sans-Serif" font-size="10.00">/sdk/c/ifxRadarSegmentation</text>
<text text-anchor="middle" x="216" y="-421.5" font-family="Helvetica,sans-Serif" font-size="10.00">/RadarSegmentation.h</text>
</a>
</g>
</g>
<!-- Node2 -->
<g id="node2" class="node">
<title>Node2</title>
<g id="a_node2"><a xlink:href="_segmentation_8h.html" target="_top" xlink:title="API for Segmentation and Seamless Tracking algorithm.">
<polygon fill="white" stroke="black" points="153,-347.5 153,-377.5 279,-377.5 279,-347.5 153,-347.5"/>
<text text-anchor="start" x="161" y="-365.5" font-family="Helvetica,sans-Serif" font-size="10.00">ifxRadarSegmentation</text>
<text text-anchor="middle" x="216" y="-354.5" font-family="Helvetica,sans-Serif" font-size="10.00">/Segmentation.h</text>
</a>
</g>
</g>
<!-- Node1&#45;&gt;Node2 -->
<g id="edge1" class="edge">
<title>Node1&#45;&gt;Node2</title>
<path fill="none" stroke="midnightblue" d="M216,-414.19C216,-405.41 216,-395.98 216,-387.66"/>
<polygon fill="midnightblue" stroke="midnightblue" points="219.5,-387.52 216,-377.52 212.5,-387.52 219.5,-387.52"/>
</g>
<!-- Node3 -->
<g id="node3" class="node">
<title>Node3</title>
<g id="a_node3"><a xlink:href="ifx_base_2_types_8h.html" target="_top" xlink:title="Definitions of data types used within the SDK.">
<polygon fill="white" stroke="black" points="124.5,-56.5 124.5,-75.5 217.5,-75.5 217.5,-56.5 124.5,-56.5"/>
<text text-anchor="middle" x="171" y="-63.5" font-family="Helvetica,sans-Serif" font-size="10.00">ifxBase/Types.h</text>
</a>
</g>
</g>
<!-- Node2&#45;&gt;Node3 -->
<g id="edge2" class="edge">
<title>Node2&#45;&gt;Node3</title>
<path fill="none" stroke="midnightblue" d="M152.94,-354.59C89.19,-343.7 0,-315.95 0,-246 0,-246 0,-246 0,-188 0,-126.97 73.48,-93.96 124.1,-78.46"/>
<polygon fill="midnightblue" stroke="midnightblue" points="125.28,-81.76 133.9,-75.59 123.31,-75.04 125.28,-81.76"/>
</g>
<!-- Node7 -->
<g id="node7" class="node">
<title>Node7</title>
<g id="a_node7"><a xlink:href="_cube_8h.html" target="_top" xlink:title="API for operations on Cube data structures.">
<polygon fill="white" stroke="black" points="98,-291.5 98,-310.5 188,-310.5 188,-291.5 98,-291.5"/>
<text text-anchor="middle" x="143" y="-298.5" font-family="Helvetica,sans-Serif" font-size="10.00">ifxBase/Cube.h</text>
</a>
</g>
</g>
<!-- Node2&#45;&gt;Node7 -->
<g id="edge6" class="edge">
<title>Node2&#45;&gt;Node7</title>
<path fill="none" stroke="midnightblue" d="M198.7,-347.4C187.55,-338.31 173.05,-326.49 161.64,-317.19"/>
<polygon fill="midnightblue" stroke="midnightblue" points="163.58,-314.26 153.62,-310.66 159.16,-319.69 163.58,-314.26"/>
</g>
<!-- Node10 -->
<g id="node10" class="node">
<title>Node10</title>
<g id="a_node10"><a xlink:href="_vector_8h.html" target="_top" xlink:title="API for operations on Vector data structures.">
<polygon fill="white" stroke="black" points="161.5,-118 161.5,-137 256.5,-137 256.5,-118 161.5,-118"/>
<text text-anchor="middle" x="209" y="-125" font-family="Helvetica,sans-Serif" font-size="10.00">ifxBase/Vector.h</text>
</a>
</g>
</g>
<!-- Node2&#45;&gt;Node10 -->
<g id="edge16" class="edge">
<title>Node2&#45;&gt;Node10</title>
<path fill="none" stroke="midnightblue" d="M225.09,-347.3C238.83,-324.13 262.42,-276.58 254,-235 247.32,-202.03 230.1,-166.59 219.01,-146.04"/>
<polygon fill="midnightblue" stroke="midnightblue" points="222.03,-144.28 214.12,-137.22 215.91,-147.67 222.03,-144.28"/>
</g>
<!-- Node11 -->
<g id="node11" class="node">
<title>Node11</title>
<g id="a_node11"><a xlink:href="_matrix_8h.html" target="_top" xlink:title="API for operations on Matrix data structures.">
<polygon fill="white" stroke="black" points="148.5,-235.5 148.5,-254.5 245.5,-254.5 245.5,-235.5 148.5,-235.5"/>
<text text-anchor="middle" x="197" y="-242.5" font-family="Helvetica,sans-Serif" font-size="10.00">ifxBase/Matrix.h</text>
</a>
</g>
</g>
<!-- Node2&#45;&gt;Node11 -->
<g id="edge15" class="edge">
<title>Node2&#45;&gt;Node11</title>
<path fill="none" stroke="midnightblue" d="M213.67,-347.34C210.25,-326.53 203.85,-287.66 200.06,-264.58"/>
<polygon fill="midnightblue" stroke="midnightblue" points="203.5,-263.97 198.43,-254.67 196.6,-265.1 203.5,-263.97"/>
</g>
<!-- Node12 -->
<g id="node12" class="node">
<title>Node12</title>
<g id="a_node12"><a xlink:href="_device_config_8h.html" target="_top" xlink:title="API for Radar device configuration.">
<polygon fill="white" stroke="black" points="302.5,-179.5 302.5,-198.5 435.5,-198.5 435.5,-179.5 302.5,-179.5"/>
<text text-anchor="middle" x="369" y="-186.5" font-family="Helvetica,sans-Serif" font-size="10.00">ifxAvian/DeviceConfig.h</text>
</a>
</g>
</g>
<!-- Node2&#45;&gt;Node12 -->
<g id="edge17" class="edge">
<title>Node2&#45;&gt;Node12</title>
<path fill="none" stroke="midnightblue" d="M240.73,-347.36C255.49,-338.18 274.01,-325.3 288,-311 319.54,-278.76 346.46,-232.69 359.88,-207.72"/>
<polygon fill="midnightblue" stroke="midnightblue" points="363.07,-209.17 364.64,-198.7 356.88,-205.91 363.07,-209.17"/>
</g>
<!-- Node4 -->
<g id="node4" class="node">
<title>Node4</title>
<g id="a_node4"><a xlink:title=" ">
<polygon fill="white" stroke="#bfbfbf" points="71.5,-0.5 71.5,-19.5 124.5,-19.5 124.5,-0.5 71.5,-0.5"/>
<text text-anchor="middle" x="98" y="-7.5" font-family="Helvetica,sans-Serif" font-size="10.00">stdint.h</text>
</a>
</g>
</g>
<!-- Node3&#45;&gt;Node4 -->
<g id="edge3" class="edge">
<title>Node3&#45;&gt;Node4</title>
<path fill="none" stroke="midnightblue" d="M159.27,-56.32C148.16,-48.11 131.26,-35.6 118.02,-25.81"/>
<polygon fill="midnightblue" stroke="midnightblue" points="120.06,-22.97 109.94,-19.83 115.9,-28.59 120.06,-22.97"/>
</g>
<!-- Node5 -->
<g id="node5" class="node">
<title>Node5</title>
<g id="a_node5"><a xlink:title=" ">
<polygon fill="white" stroke="#bfbfbf" points="143,-0.5 143,-19.5 199,-19.5 199,-0.5 143,-0.5"/>
<text text-anchor="middle" x="171" y="-7.5" font-family="Helvetica,sans-Serif" font-size="10.00">stddef.h</text>
</a>
</g>
</g>
<!-- Node3&#45;&gt;Node5 -->
<g id="edge4" class="edge">
<title>Node3&#45;&gt;Node5</title>
<path fill="none" stroke="midnightblue" d="M171,-56.08C171,-49.01 171,-38.86 171,-29.99"/>
<polygon fill="midnightblue" stroke="midnightblue" points="174.5,-29.75 171,-19.75 167.5,-29.75 174.5,-29.75"/>
</g>
<!-- Node6 -->
<g id="node6" class="node">
<title>Node6</title>
<g id="a_node6"><a xlink:title=" ">
<polygon fill="white" stroke="#bfbfbf" points="217,-0.5 217,-19.5 279,-19.5 279,-0.5 217,-0.5"/>
<text text-anchor="middle" x="248" y="-7.5" font-family="Helvetica,sans-Serif" font-size="10.00">stdbool.h</text>
</a>
</g>
</g>
<!-- Node3&#45;&gt;Node6 -->
<g id="edge5" class="edge">
<title>Node3&#45;&gt;Node6</title>
<path fill="none" stroke="midnightblue" d="M183.37,-56.32C195.16,-48.06 213.13,-35.45 227.14,-25.63"/>
<polygon fill="midnightblue" stroke="midnightblue" points="229.48,-28.26 235.66,-19.65 225.46,-22.53 229.48,-28.26"/>
</g>
<!-- Node8 -->
<g id="node8" class="node">
<title>Node8</title>
<g id="a_node8"><a xlink:href="_defines_8h.html" target="_top" xlink:title="Internal definitions used by standard math.h functions as Macros, to use float or double precision.">
<polygon fill="white" stroke="black" points="28,-235.5 28,-254.5 130,-254.5 130,-235.5 28,-235.5"/>
<text text-anchor="middle" x="79" y="-242.5" font-family="Helvetica,sans-Serif" font-size="10.00">ifxBase/Defines.h</text>
</a>
</g>
</g>
<!-- Node7&#45;&gt;Node8 -->
<g id="edge7" class="edge">
<title>Node7&#45;&gt;Node8</title>
<path fill="none" stroke="midnightblue" d="M132.72,-291.32C123.16,-283.26 108.72,-271.08 97.22,-261.37"/>
<polygon fill="midnightblue" stroke="midnightblue" points="99.37,-258.61 89.47,-254.83 94.86,-263.96 99.37,-258.61"/>
</g>
<!-- Node7&#45;&gt;Node11 -->
<g id="edge12" class="edge">
<title>Node7&#45;&gt;Node11</title>
<path fill="none" stroke="midnightblue" d="M151.92,-291.08C159.78,-283.22 171.43,-271.57 180.92,-262.08"/>
<polygon fill="midnightblue" stroke="midnightblue" points="183.65,-264.3 188.25,-254.75 178.7,-259.35 183.65,-264.3"/>
</g>
<!-- Node9 -->
<g id="node9" class="node">
<title>Node9</title>
<g id="a_node9"><a xlink:href="_math_8h.html" target="_top" xlink:title="API for Mathematical operations.">
<polygon fill="white" stroke="black" points="53.5,-179.5 53.5,-198.5 104.5,-198.5 104.5,-179.5 53.5,-179.5"/>
<text text-anchor="middle" x="79" y="-186.5" font-family="Helvetica,sans-Serif" font-size="10.00">math.h</text>
</a>
</g>
</g>
<!-- Node8&#45;&gt;Node9 -->
<g id="edge8" class="edge">
<title>Node8&#45;&gt;Node9</title>
<path fill="none" stroke="midnightblue" d="M79,-235.08C79,-228.01 79,-217.86 79,-208.99"/>
<polygon fill="midnightblue" stroke="midnightblue" points="82.5,-208.75 79,-198.75 75.5,-208.75 82.5,-208.75"/>
</g>
<!-- Node9&#45;&gt;Node3 -->
<g id="edge9" class="edge">
<title>Node9&#45;&gt;Node3</title>
<path fill="none" stroke="midnightblue" d="M82.28,-179.41C88.17,-164.65 101.57,-133.95 119,-112 128.05,-100.6 140.27,-89.86 150.59,-81.73"/>
<polygon fill="midnightblue" stroke="midnightblue" points="152.86,-84.4 158.7,-75.56 148.62,-78.83 152.86,-84.4"/>
</g>
<!-- Node9&#45;&gt;Node10 -->
<g id="edge10" class="edge">
<title>Node9&#45;&gt;Node10</title>
<path fill="none" stroke="midnightblue" d="M97.63,-179.48C119.44,-169.49 155.8,-152.85 181.02,-141.31"/>
<polygon fill="midnightblue" stroke="midnightblue" points="182.77,-144.35 190.41,-137.01 179.86,-137.99 182.77,-144.35"/>
</g>
<!-- Node10&#45;&gt;Node3 -->
<g id="edge11" class="edge">
<title>Node10&#45;&gt;Node3</title>
<path fill="none" stroke="midnightblue" d="M203.56,-117.98C197.91,-109.14 188.94,-95.09 181.84,-83.98"/>
<polygon fill="midnightblue" stroke="midnightblue" points="184.77,-82.05 176.43,-75.51 178.87,-85.82 184.77,-82.05"/>
</g>
<!-- Node11&#45;&gt;Node3 -->
<g id="edge13" class="edge">
<title>Node11&#45;&gt;Node3</title>
<path fill="none" stroke="midnightblue" d="M191.57,-235.24C181.37,-218.24 159.71,-179.24 152,-143 149.13,-129.52 149.27,-125.5 152,-112 153.89,-102.65 157.79,-92.83 161.57,-84.75"/>
<polygon fill="midnightblue" stroke="midnightblue" points="164.79,-86.14 166.12,-75.63 158.53,-83.01 164.79,-86.14"/>
</g>
<!-- Node11&#45;&gt;Node10 -->
<g id="edge14" class="edge">
<title>Node11&#45;&gt;Node10</title>
<path fill="none" stroke="midnightblue" d="M197.9,-235.32C199.83,-216.76 204.39,-172.84 207.03,-147.47"/>
<polygon fill="midnightblue" stroke="midnightblue" points="210.54,-147.59 208.09,-137.28 203.57,-146.87 210.54,-147.59"/>
</g>
<!-- Node12&#45;&gt;Node3 -->
<g id="edge18" class="edge">
<title>Node12&#45;&gt;Node3</title>
<path fill="none" stroke="midnightblue" d="M355.87,-179.28C342.62,-170.4 321.63,-156.09 304,-143 286.22,-129.8 283.77,-123.74 265,-112 244.75,-99.33 220.4,-87.77 201.55,-79.53"/>
<polygon fill="midnightblue" stroke="midnightblue" points="202.82,-76.27 192.25,-75.54 200.06,-82.7 202.82,-76.27"/>
</g>
<!-- Node13 -->
<g id="node13" class="node">
<title>Node13</title>
<g id="a_node13"><a xlink:href="_radar_device_common_8h.html" target="_top" xlink:title="Header for ifxRadarDeviceCommon.">
<polygon fill="white" stroke="black" points="313,-112.5 313,-142.5 449,-142.5 449,-112.5 313,-112.5"/>
<text text-anchor="start" x="321" y="-130.5" font-family="Helvetica,sans-Serif" font-size="10.00">ifxRadarDeviceCommon</text>
<text text-anchor="middle" x="381" y="-119.5" font-family="Helvetica,sans-Serif" font-size="10.00">/RadarDeviceCommon.h</text>
</a>
</g>
</g>
<!-- Node12&#45;&gt;Node13 -->
<g id="edge19" class="edge">
<title>Node12&#45;&gt;Node13</title>
<path fill="none" stroke="midnightblue" d="M370.72,-179.48C372.15,-172.4 374.25,-161.97 376.18,-152.39"/>
<polygon fill="midnightblue" stroke="midnightblue" points="379.63,-153.02 378.17,-142.52 372.76,-151.63 379.63,-153.02"/>
</g>
<!-- Node13&#45;&gt;Node3 -->
<g id="edge20" class="edge">
<title>Node13&#45;&gt;Node3</title>
<path fill="none" stroke="midnightblue" d="M331.5,-112.47C294.64,-102.03 244.97,-87.96 210.69,-78.25"/>
<polygon fill="midnightblue" stroke="midnightblue" points="211.6,-74.87 201.02,-75.51 209.69,-81.6 211.6,-74.87"/>
</g>
</g>
</svg>
