<?xml version="1.0" encoding="UTF-8" standalone="no"?>
<!DOCTYPE svg PUBLIC "-//W3C//DTD SVG 1.1//EN"
 "http://www.w3.org/Graphics/SVG/1.1/DTD/svg11.dtd">
<!-- Generated by graphviz version 2.43.0 (0)
 -->
<!-- Title: /home/jenkins/jenkins&#45;ci/workspace/er_release_release&#45;branch&#45;v3.3.1@2/sdk/c/ifxRadar/Radar.h Pages: 1 -->
<svg width="1603pt" height="520pt"
 viewBox="0.00 0.00 1603.43 520.00" xmlns="http://www.w3.org/2000/svg" xmlns:xlink="http://www.w3.org/1999/xlink">
<g id="graph0" class="graph" transform="scale(1 1) rotate(0) translate(4 516)">
<title>/home/jenkins/jenkins&#45;ci/workspace/er_release_release&#45;branch&#45;v3.3.1@2/sdk/c/ifxRadar/Radar.h</title>
<polygon fill="white" stroke="transparent" points="-4,4 -4,-516 1599.43,-516 1599.43,4 -4,4"/>
<!-- Node1 -->
<g id="node1" class="node">
<title>Node1</title>
<g id="a_node1"><a xlink:title="Header for ifxRadar.">
<polygon fill="#bfbfbf" stroke="black" points="500,-459.5 500,-511.5 643,-511.5 643,-459.5 500,-459.5"/>
<text text-anchor="start" x="508" y="-499.5" font-family="Helvetica,sans-Serif" font-size="10.00">/home/jenkins/jenkins</text>
<text text-anchor="start" x="508" y="-488.5" font-family="Helvetica,sans-Serif" font-size="10.00">&#45;ci/workspace/er_release</text>
<text text-anchor="start" x="508" y="-477.5" font-family="Helvetica,sans-Serif" font-size="10.00">_release&#45;branch&#45;v3.3.1@2</text>
<text text-anchor="middle" x="571.5" y="-466.5" font-family="Helvetica,sans-Serif" font-size="10.00">/sdk/c/ifxRadar/Radar.h</text>
</a>
</g>
</g>
<!-- Node2 -->
<g id="node2" class="node">
<title>Node2</title>
<g id="a_node2"><a xlink:href="_angle_monopulse_8h.html" target="_top" xlink:title="API for Phase Monopulse algorithm.">
<polygon fill="white" stroke="black" points="0,-347.5 0,-366.5 151,-366.5 151,-347.5 0,-347.5"/>
<text text-anchor="middle" x="75.5" y="-354.5" font-family="Helvetica,sans-Serif" font-size="10.00">ifxRadar/AngleMonopulse.h</text>
</a>
</g>
</g>
<!-- Node1&#45;&gt;Node2 -->
<g id="edge1" class="edge">
<title>Node1&#45;&gt;Node2</title>
<path fill="none" stroke="midnightblue" d="M499.9,-467.99C448.26,-455.93 376.95,-438.96 314.5,-423 244.25,-405.05 162.85,-382.54 115.47,-369.27"/>
<polygon fill="midnightblue" stroke="midnightblue" points="116.18,-365.84 105.6,-366.51 114.29,-372.58 116.18,-365.84"/>
</g>
<!-- Node11 -->
<g id="node11" class="node">
<title>Node11</title>
<g id="a_node11"><a xlink:href="_d_b_f_8h.html" target="_top" xlink:title="API for Digital Beamforming (DBF) algorithm.">
<polygon fill="white" stroke="black" points="316,-347.5 316,-366.5 405,-366.5 405,-347.5 316,-347.5"/>
<text text-anchor="middle" x="360.5" y="-354.5" font-family="Helvetica,sans-Serif" font-size="10.00">ifxRadar/DBF.h</text>
</a>
</g>
</g>
<!-- Node1&#45;&gt;Node11 -->
<g id="edge14" class="edge">
<title>Node1&#45;&gt;Node11</title>
<path fill="none" stroke="midnightblue" d="M499.64,-479.35C457.82,-472.59 407.24,-457.29 375.5,-423 364.08,-410.66 360.79,-391.41 360.08,-377.06"/>
<polygon fill="midnightblue" stroke="midnightblue" points="363.58,-376.78 359.96,-366.82 356.58,-376.86 363.58,-376.78"/>
</g>
<!-- Node14 -->
<g id="node14" class="node">
<title>Node14</title>
<g id="a_node14"><a xlink:href="_presence_sensing_8h.html" target="_top" xlink:title="API for Presence Sensing algorithm.">
<polygon fill="white" stroke="black" points="946.5,-403.5 946.5,-422.5 1098.5,-422.5 1098.5,-403.5 946.5,-403.5"/>
<text text-anchor="middle" x="1022.5" y="-410.5" font-family="Helvetica,sans-Serif" font-size="10.00">ifxRadar/PresenceSensing.h</text>
</a>
</g>
</g>
<!-- Node1&#45;&gt;Node14 -->
<g id="edge21" class="edge">
<title>Node1&#45;&gt;Node14</title>
<path fill="none" stroke="midnightblue" d="M643.46,-473.25C730.12,-459.7 874.4,-437.15 957.72,-424.13"/>
<polygon fill="midnightblue" stroke="midnightblue" points="958.48,-427.55 967.82,-422.55 957.4,-420.63 958.48,-427.55"/>
</g>
<!-- Node24 -->
<g id="node24" class="node">
<title>Node24</title>
<g id="a_node24"><a xlink:href="_range_spectrum_8h.html" target="_top" xlink:title="API for Range Spectrum.">
<polygon fill="white" stroke="black" points="835,-291.5 835,-310.5 982,-310.5 982,-291.5 835,-291.5"/>
<text text-anchor="middle" x="908.5" y="-298.5" font-family="Helvetica,sans-Serif" font-size="10.00">ifxRadar/RangeSpectrum.h</text>
</a>
</g>
</g>
<!-- Node1&#45;&gt;Node24 -->
<g id="edge62" class="edge">
<title>Node1&#45;&gt;Node24</title>
<path fill="none" stroke="midnightblue" d="M618,-459.32C690.38,-420.12 827.46,-345.89 883.59,-315.49"/>
<polygon fill="midnightblue" stroke="midnightblue" points="885.36,-318.51 892.49,-310.67 882.03,-312.35 885.36,-318.51"/>
</g>
<!-- Node27 -->
<g id="node27" class="node">
<title>Node27</title>
<g id="a_node27"><a xlink:href="_range_doppler_map_8h.html" target="_top" xlink:title="API for Range Doppler Map.">
<polygon fill="white" stroke="black" points="599.5,-291.5 599.5,-310.5 759.5,-310.5 759.5,-291.5 599.5,-291.5"/>
<text text-anchor="middle" x="679.5" y="-298.5" font-family="Helvetica,sans-Serif" font-size="10.00">ifxRadar/RangeDopplerMap.h</text>
</a>
</g>
</g>
<!-- Node1&#45;&gt;Node27 -->
<g id="edge58" class="edge">
<title>Node1&#45;&gt;Node27</title>
<path fill="none" stroke="midnightblue" d="M586.52,-459.12C608.79,-421.49 650,-351.85 669.18,-319.44"/>
<polygon fill="midnightblue" stroke="midnightblue" points="672.3,-321.04 674.38,-310.65 666.28,-317.47 672.3,-321.04"/>
</g>
<!-- Node28 -->
<g id="node28" class="node">
<title>Node28</title>
<g id="a_node28"><a xlink:href="_spectrum_axis_8h.html" target="_top" xlink:title="API for Spectrum Axis used by Range spectrum, Range Doppler and Range Angle Map modules.">
<polygon fill="white" stroke="black" points="388,-235.5 388,-254.5 525,-254.5 525,-235.5 388,-235.5"/>
<text text-anchor="middle" x="456.5" y="-242.5" font-family="Helvetica,sans-Serif" font-size="10.00">ifxRadar/SpectrumAxis.h</text>
</a>
</g>
</g>
<!-- Node1&#45;&gt;Node28 -->
<g id="edge63" class="edge">
<title>Node1&#45;&gt;Node28</title>
<path fill="none" stroke="midnightblue" d="M576.34,-459.23C582.48,-419.49 588.34,-341.72 552.5,-291 541.3,-275.15 523.03,-264.72 505.42,-257.93"/>
<polygon fill="midnightblue" stroke="midnightblue" points="506.35,-254.55 495.76,-254.53 504.03,-261.15 506.35,-254.55"/>
</g>
<!-- Node29 -->
<g id="node29" class="node">
<title>Node29</title>
<g id="a_node29"><a xlink:href="_peak_search_8h.html" target="_top" xlink:title="API for Peak Search preprocessing.">
<polygon fill="white" stroke="black" points="1346,-174 1346,-193 1473,-193 1473,-174 1346,-174"/>
<text text-anchor="middle" x="1409.5" y="-181" font-family="Helvetica,sans-Serif" font-size="10.00">ifxRadar/PeakSearch.h</text>
</a>
</g>
</g>
<!-- Node1&#45;&gt;Node29 -->
<g id="edge67" class="edge">
<title>Node1&#45;&gt;Node29</title>
<path fill="none" stroke="midnightblue" d="M643.22,-483.09C844.41,-477.43 1406.34,-449.28 1511.5,-311 1516.88,-303.92 1514.81,-299.25 1511.5,-291 1502.72,-269.15 1453.89,-223.7 1427.1,-199.86"/>
<polygon fill="midnightblue" stroke="midnightblue" points="1429.37,-197.2 1419.56,-193.2 1424.74,-202.45 1429.37,-197.2"/>
</g>
<!-- Node30 -->
<g id="node30" class="node">
<title>Node30</title>
<g id="a_node30"><a xlink:href="_angle_capon_8h.html" target="_top" xlink:title="API for the 1&#45;D Angle Capon algorithm.">
<polygon fill="white" stroke="black" points="169.5,-347.5 169.5,-366.5 297.5,-366.5 297.5,-347.5 169.5,-347.5"/>
<text text-anchor="middle" x="233.5" y="-354.5" font-family="Helvetica,sans-Serif" font-size="10.00">ifxRadar/AngleCapon.h</text>
</a>
</g>
</g>
<!-- Node1&#45;&gt;Node30 -->
<g id="edge70" class="edge">
<title>Node1&#45;&gt;Node30</title>
<path fill="none" stroke="midnightblue" d="M499.92,-467.06C458.79,-456.17 406.53,-440.85 361.5,-423 323.7,-408.02 282.09,-385.73 256.88,-371.53"/>
<polygon fill="midnightblue" stroke="midnightblue" points="258.49,-368.42 248.06,-366.52 255.03,-374.51 258.49,-368.42"/>
</g>
<!-- Node31 -->
<g id="node31" class="node">
<title>Node31</title>
<g id="a_node31"><a xlink:href="_range_angle_image_8h.html" target="_top" xlink:title="API for Range Angle Image algorithm.">
<polygon fill="white" stroke="black" points="385,-403.5 385,-422.5 544,-422.5 544,-403.5 385,-403.5"/>
<text text-anchor="middle" x="464.5" y="-410.5" font-family="Helvetica,sans-Serif" font-size="10.00">ifxRadar/RangeAngleImage.h</text>
</a>
</g>
</g>
<!-- Node1&#45;&gt;Node31 -->
<g id="edge73" class="edge">
<title>Node1&#45;&gt;Node31</title>
<path fill="none" stroke="midnightblue" d="M533.47,-459.45C517.56,-448.96 499.66,-437.16 486.07,-428.22"/>
<polygon fill="midnightblue" stroke="midnightblue" points="487.72,-425.11 477.44,-422.53 483.87,-430.95 487.72,-425.11"/>
</g>
<!-- Node3 -->
<g id="node3" class="node">
<title>Node3</title>
<g id="a_node3"><a xlink:href="ifx_base_2_types_8h.html" target="_top" xlink:title="Definitions of data types used within the SDK.">
<polygon fill="white" stroke="black" points="723,-56.5 723,-75.5 816,-75.5 816,-56.5 723,-56.5"/>
<text text-anchor="middle" x="769.5" y="-63.5" font-family="Helvetica,sans-Serif" font-size="10.00">ifxBase/Types.h</text>
</a>
</g>
</g>
<!-- Node2&#45;&gt;Node3 -->
<g id="edge2" class="edge">
<title>Node2&#45;&gt;Node3</title>
<path fill="none" stroke="midnightblue" d="M75.24,-347.44C74.7,-328.94 73.5,-283.82 73.5,-246 73.5,-246 73.5,-246 73.5,-182.5 73.5,-141.64 96.11,-130.59 132.5,-112 183.42,-85.99 565.94,-72.68 712.55,-68.49"/>
<polygon fill="midnightblue" stroke="midnightblue" points="712.79,-71.98 722.69,-68.2 712.6,-64.99 712.79,-71.98"/>
</g>
<!-- Node7 -->
<g id="node7" class="node">
<title>Node7</title>
<g id="a_node7"><a xlink:href="_complex_8h.html" target="_top" xlink:title="API for operations on complex numbers.">
<polygon fill="white" stroke="black" points="140,-291.5 140,-310.5 249,-310.5 249,-291.5 140,-291.5"/>
<text text-anchor="middle" x="194.5" y="-298.5" font-family="Helvetica,sans-Serif" font-size="10.00">ifxBase/Complex.h</text>
</a>
</g>
</g>
<!-- Node2&#45;&gt;Node7 -->
<g id="edge6" class="edge">
<title>Node2&#45;&gt;Node7</title>
<path fill="none" stroke="midnightblue" d="M94.36,-347.44C113.77,-338.64 144.23,-324.81 166.46,-314.72"/>
<polygon fill="midnightblue" stroke="midnightblue" points="168.07,-317.84 175.73,-310.52 165.18,-311.46 168.07,-317.84"/>
</g>
<!-- Node10 -->
<g id="node10" class="node">
<title>Node10</title>
<g id="a_node10"><a xlink:href="_vector_8h.html" target="_top" xlink:title="API for operations on Vector data structures.">
<polygon fill="white" stroke="black" points="684,-112.5 684,-131.5 779,-131.5 779,-112.5 684,-112.5"/>
<text text-anchor="middle" x="731.5" y="-119.5" font-family="Helvetica,sans-Serif" font-size="10.00">ifxBase/Vector.h</text>
</a>
</g>
</g>
<!-- Node2&#45;&gt;Node10 -->
<g id="edge13" class="edge">
<title>Node2&#45;&gt;Node10</title>
<path fill="none" stroke="midnightblue" d="M120.69,-347.48C203.25,-331.59 383.74,-295.38 533.5,-255 553.21,-249.68 694.18,-213.55 708.5,-199 723.51,-183.75 728.77,-159.06 730.59,-141.98"/>
<polygon fill="midnightblue" stroke="midnightblue" points="734.11,-141.82 731.38,-131.58 727.13,-141.29 734.11,-141.82"/>
</g>
<!-- Node4 -->
<g id="node4" class="node">
<title>Node4</title>
<g id="a_node4"><a xlink:title=" ">
<polygon fill="white" stroke="#bfbfbf" points="670,-0.5 670,-19.5 723,-19.5 723,-0.5 670,-0.5"/>
<text text-anchor="middle" x="696.5" y="-7.5" font-family="Helvetica,sans-Serif" font-size="10.00">stdint.h</text>
</a>
</g>
</g>
<!-- Node3&#45;&gt;Node4 -->
<g id="edge3" class="edge">
<title>Node3&#45;&gt;Node4</title>
<path fill="none" stroke="midnightblue" d="M757.77,-56.32C746.66,-48.11 729.76,-35.6 716.52,-25.81"/>
<polygon fill="midnightblue" stroke="midnightblue" points="718.56,-22.97 708.44,-19.83 714.4,-28.59 718.56,-22.97"/>
</g>
<!-- Node5 -->
<g id="node5" class="node">
<title>Node5</title>
<g id="a_node5"><a xlink:title=" ">
<polygon fill="white" stroke="#bfbfbf" points="741.5,-0.5 741.5,-19.5 797.5,-19.5 797.5,-0.5 741.5,-0.5"/>
<text text-anchor="middle" x="769.5" y="-7.5" font-family="Helvetica,sans-Serif" font-size="10.00">stddef.h</text>
</a>
</g>
</g>
<!-- Node3&#45;&gt;Node5 -->
<g id="edge4" class="edge">
<title>Node3&#45;&gt;Node5</title>
<path fill="none" stroke="midnightblue" d="M769.5,-56.08C769.5,-49.01 769.5,-38.86 769.5,-29.99"/>
<polygon fill="midnightblue" stroke="midnightblue" points="773,-29.75 769.5,-19.75 766,-29.75 773,-29.75"/>
</g>
<!-- Node6 -->
<g id="node6" class="node">
<title>Node6</title>
<g id="a_node6"><a xlink:title=" ">
<polygon fill="white" stroke="#bfbfbf" points="815.5,-0.5 815.5,-19.5 877.5,-19.5 877.5,-0.5 815.5,-0.5"/>
<text text-anchor="middle" x="846.5" y="-7.5" font-family="Helvetica,sans-Serif" font-size="10.00">stdbool.h</text>
</a>
</g>
</g>
<!-- Node3&#45;&gt;Node6 -->
<g id="edge5" class="edge">
<title>Node3&#45;&gt;Node6</title>
<path fill="none" stroke="midnightblue" d="M781.87,-56.32C793.66,-48.06 811.63,-35.45 825.64,-25.63"/>
<polygon fill="midnightblue" stroke="midnightblue" points="827.98,-28.26 834.16,-19.65 823.96,-22.53 827.98,-28.26"/>
</g>
<!-- Node7&#45;&gt;Node3 -->
<g id="edge12" class="edge">
<title>Node7&#45;&gt;Node3</title>
<path fill="none" stroke="midnightblue" d="M190.53,-291.46C177.51,-262.02 139.58,-163.77 187.5,-112 222.72,-73.95 573.49,-67.98 712.85,-67.11"/>
<polygon fill="midnightblue" stroke="midnightblue" points="712.93,-70.61 722.91,-67.06 712.89,-63.61 712.93,-70.61"/>
</g>
<!-- Node8 -->
<g id="node8" class="node">
<title>Node8</title>
<g id="a_node8"><a xlink:href="_defines_8h.html" target="_top" xlink:title="Internal definitions used by standard math.h functions as Macros, to use float or double precision.">
<polygon fill="white" stroke="black" points="267.5,-235.5 267.5,-254.5 369.5,-254.5 369.5,-235.5 267.5,-235.5"/>
<text text-anchor="middle" x="318.5" y="-242.5" font-family="Helvetica,sans-Serif" font-size="10.00">ifxBase/Defines.h</text>
</a>
</g>
</g>
<!-- Node7&#45;&gt;Node8 -->
<g id="edge7" class="edge">
<title>Node7&#45;&gt;Node8</title>
<path fill="none" stroke="midnightblue" d="M214.15,-291.44C234.46,-282.6 266.4,-268.69 289.6,-258.59"/>
<polygon fill="midnightblue" stroke="midnightblue" points="291.17,-261.72 298.94,-254.52 288.38,-255.3 291.17,-261.72"/>
</g>
<!-- Node9 -->
<g id="node9" class="node">
<title>Node9</title>
<g id="a_node9"><a xlink:href="_math_8h.html" target="_top" xlink:title="API for Mathematical operations.">
<polygon fill="white" stroke="black" points="474,-174 474,-193 525,-193 525,-174 474,-174"/>
<text text-anchor="middle" x="499.5" y="-181" font-family="Helvetica,sans-Serif" font-size="10.00">math.h</text>
</a>
</g>
</g>
<!-- Node8&#45;&gt;Node9 -->
<g id="edge8" class="edge">
<title>Node8&#45;&gt;Node9</title>
<path fill="none" stroke="midnightblue" d="M344.43,-235.48C375.84,-225.15 428.89,-207.71 464.05,-196.15"/>
<polygon fill="midnightblue" stroke="midnightblue" points="465.5,-199.36 473.91,-192.91 463.31,-192.71 465.5,-199.36"/>
</g>
<!-- Node9&#45;&gt;Node3 -->
<g id="edge9" class="edge">
<title>Node9&#45;&gt;Node3</title>
<path fill="none" stroke="midnightblue" d="M501.78,-173.97C506.28,-158.89 517.8,-127.62 539.5,-112 566.64,-92.46 653.76,-79.46 712.64,-72.66"/>
<polygon fill="midnightblue" stroke="midnightblue" points="713.37,-76.1 722.92,-71.5 712.59,-69.14 713.37,-76.1"/>
</g>
<!-- Node9&#45;&gt;Node10 -->
<g id="edge10" class="edge">
<title>Node9&#45;&gt;Node10</title>
<path fill="none" stroke="midnightblue" d="M525.21,-175.91C564.65,-165.79 640.5,-146.34 688.42,-134.05"/>
<polygon fill="midnightblue" stroke="midnightblue" points="689.39,-137.41 698.2,-131.54 687.65,-130.63 689.39,-137.41"/>
</g>
<!-- Node10&#45;&gt;Node3 -->
<g id="edge11" class="edge">
<title>Node10&#45;&gt;Node3</title>
<path fill="none" stroke="midnightblue" d="M737.77,-112.08C743.14,-104.46 751.02,-93.26 757.58,-83.94"/>
<polygon fill="midnightblue" stroke="midnightblue" points="760.45,-85.94 763.34,-75.75 754.72,-81.91 760.45,-85.94"/>
</g>
<!-- Node11&#45;&gt;Node3 -->
<g id="edge15" class="edge">
<title>Node11&#45;&gt;Node3</title>
<path fill="none" stroke="midnightblue" d="M345.83,-347.37C313.63,-328.1 238.61,-281.17 225.5,-255 197.04,-198.17 182.45,-158.76 225.5,-112 258,-76.7 579.52,-69.09 712.44,-67.45"/>
<polygon fill="midnightblue" stroke="midnightblue" points="712.86,-70.95 722.82,-67.33 712.78,-63.95 712.86,-70.95"/>
</g>
<!-- Node12 -->
<g id="node12" class="node">
<title>Node12</title>
<g id="a_node12"><a xlink:href="_cube_8h.html" target="_top" xlink:title="API for operations on Cube data structures.">
<polygon fill="white" stroke="black" points="453.5,-291.5 453.5,-310.5 543.5,-310.5 543.5,-291.5 453.5,-291.5"/>
<text text-anchor="middle" x="498.5" y="-298.5" font-family="Helvetica,sans-Serif" font-size="10.00">ifxBase/Cube.h</text>
</a>
</g>
</g>
<!-- Node11&#45;&gt;Node12 -->
<g id="edge16" class="edge">
<title>Node11&#45;&gt;Node12</title>
<path fill="none" stroke="midnightblue" d="M382.37,-347.44C405.28,-338.48 441.48,-324.31 467.37,-314.18"/>
<polygon fill="midnightblue" stroke="midnightblue" points="468.7,-317.42 476.74,-310.52 466.15,-310.9 468.7,-317.42"/>
</g>
<!-- Node12&#45;&gt;Node8 -->
<g id="edge17" class="edge">
<title>Node12&#45;&gt;Node8</title>
<path fill="none" stroke="midnightblue" d="M469.98,-291.44C439.43,-282.28 390.79,-267.69 356.9,-257.52"/>
<polygon fill="midnightblue" stroke="midnightblue" points="357.47,-254.04 346.89,-254.52 355.46,-260.74 357.47,-254.04"/>
</g>
<!-- Node13 -->
<g id="node13" class="node">
<title>Node13</title>
<g id="a_node13"><a xlink:href="_matrix_8h.html" target="_top" xlink:title="API for operations on Matrix data structures.">
<polygon fill="white" stroke="black" points="620,-235.5 620,-254.5 717,-254.5 717,-235.5 620,-235.5"/>
<text text-anchor="middle" x="668.5" y="-242.5" font-family="Helvetica,sans-Serif" font-size="10.00">ifxBase/Matrix.h</text>
</a>
</g>
</g>
<!-- Node12&#45;&gt;Node13 -->
<g id="edge18" class="edge">
<title>Node12&#45;&gt;Node13</title>
<path fill="none" stroke="midnightblue" d="M525.44,-291.44C554.16,-282.32 599.83,-267.81 631.82,-257.65"/>
<polygon fill="midnightblue" stroke="midnightblue" points="633.22,-260.88 641.69,-254.52 631.1,-254.21 633.22,-260.88"/>
</g>
<!-- Node13&#45;&gt;Node3 -->
<g id="edge19" class="edge">
<title>Node13&#45;&gt;Node3</title>
<path fill="none" stroke="midnightblue" d="M650.11,-235.47C636.4,-228 618.69,-215.71 610.5,-199 604.44,-186.63 605.53,-180.85 610.5,-168 629.26,-119.54 685.99,-92.33 726.32,-78.65"/>
<polygon fill="midnightblue" stroke="midnightblue" points="727.5,-81.95 735.94,-75.54 725.34,-75.29 727.5,-81.95"/>
</g>
<!-- Node13&#45;&gt;Node10 -->
<g id="edge20" class="edge">
<title>Node13&#45;&gt;Node10</title>
<path fill="none" stroke="midnightblue" d="M694.71,-235.41C711.35,-228.44 731.56,-216.81 741.5,-199 751.5,-181.08 745.83,-157.17 739.73,-140.99"/>
<polygon fill="midnightblue" stroke="midnightblue" points="742.9,-139.5 735.82,-131.61 736.44,-142.19 742.9,-139.5"/>
</g>
<!-- Node14&#45;&gt;Node3 -->
<g id="edge25" class="edge">
<title>Node14&#45;&gt;Node3</title>
<path fill="none" stroke="midnightblue" d="M1098.52,-405.84C1278.4,-388.5 1705.11,-329.53 1568.5,-168 1531.01,-123.68 1506.68,-126.62 1450.5,-112 1333.18,-81.47 968.3,-71 826.59,-68.02"/>
<polygon fill="midnightblue" stroke="midnightblue" points="826.45,-64.52 816.38,-67.81 826.3,-71.52 826.45,-64.52"/>
</g>
<!-- Node14&#45;&gt;Node13 -->
<g id="edge26" class="edge">
<title>Node14&#45;&gt;Node13</title>
<path fill="none" stroke="midnightblue" d="M1004.7,-403.36C963.36,-383.32 857.59,-332.26 768.5,-291 744.45,-279.86 716.98,-267.53 696.93,-258.6"/>
<polygon fill="midnightblue" stroke="midnightblue" points="698.29,-255.37 687.73,-254.5 695.44,-261.77 698.29,-255.37"/>
</g>
<!-- Node15 -->
<g id="node15" class="node">
<title>Node15</title>
<g id="a_node15"><a xlink:href="_window_8h.html" target="_top" xlink:title="API for Window function processing.">
<polygon fill="white" stroke="black" points="874,-174 874,-193 975,-193 975,-174 874,-174"/>
<text text-anchor="middle" x="924.5" y="-181" font-family="Helvetica,sans-Serif" font-size="10.00">ifxAlgo/Window.h</text>
</a>
</g>
</g>
<!-- Node14&#45;&gt;Node15 -->
<g id="edge22" class="edge">
<title>Node14&#45;&gt;Node15</title>
<path fill="none" stroke="midnightblue" d="M1021.1,-403.2C1017.65,-382.83 1007.78,-331.11 990.5,-291 975.95,-257.22 951.82,-221.6 937.12,-201.31"/>
<polygon fill="midnightblue" stroke="midnightblue" points="939.85,-199.1 931.1,-193.12 934.21,-203.25 939.85,-199.1"/>
</g>
<!-- Node16 -->
<g id="node16" class="node">
<title>Node16</title>
<g id="a_node16"><a xlink:href="_device_config_8h.html" target="_top" xlink:title="API for Radar device configuration.">
<polygon fill="white" stroke="black" points="1089,-235.5 1089,-254.5 1222,-254.5 1222,-235.5 1089,-235.5"/>
<text text-anchor="middle" x="1155.5" y="-242.5" font-family="Helvetica,sans-Serif" font-size="10.00">ifxAvian/DeviceConfig.h</text>
</a>
</g>
</g>
<!-- Node14&#45;&gt;Node16 -->
<g id="edge27" class="edge">
<title>Node14&#45;&gt;Node16</title>
<path fill="none" stroke="midnightblue" d="M1029.65,-403.08C1050.95,-376.49 1114.21,-297.54 1142.07,-262.76"/>
<polygon fill="midnightblue" stroke="midnightblue" points="1145.11,-264.56 1148.64,-254.57 1139.65,-260.18 1145.11,-264.56"/>
</g>
<!-- Node18 -->
<g id="node18" class="node">
<title>Node18</title>
<g id="a_node18"><a xlink:href="_device_control_8h.html" target="_top" xlink:title="API for Radar device control operations.">
<polygon fill="white" stroke="black" points="1106,-347.5 1106,-366.5 1243,-366.5 1243,-347.5 1106,-347.5"/>
<text text-anchor="middle" x="1174.5" y="-354.5" font-family="Helvetica,sans-Serif" font-size="10.00">ifxAvian/DeviceControl.h</text>
</a>
</g>
</g>
<!-- Node14&#45;&gt;Node18 -->
<g id="edge31" class="edge">
<title>Node14&#45;&gt;Node18</title>
<path fill="none" stroke="midnightblue" d="M1046.58,-403.44C1072.04,-394.4 1112.39,-380.06 1140.96,-369.92"/>
<polygon fill="midnightblue" stroke="midnightblue" points="1142.28,-373.16 1150.53,-366.52 1139.93,-366.57 1142.28,-373.16"/>
</g>
<!-- Node14&#45;&gt;Node24 -->
<g id="edge46" class="edge">
<title>Node14&#45;&gt;Node24</title>
<path fill="none" stroke="midnightblue" d="M1013.55,-403.37C994.41,-384.89 949.22,-341.29 924.82,-317.74"/>
<polygon fill="midnightblue" stroke="midnightblue" points="927.03,-315.02 917.4,-310.59 922.17,-320.05 927.03,-315.02"/>
</g>
<!-- Node15&#45;&gt;Node3 -->
<g id="edge23" class="edge">
<title>Node15&#45;&gt;Node3</title>
<path fill="none" stroke="midnightblue" d="M912.85,-173.82C886.59,-154.25 822.53,-106.52 789.67,-82.03"/>
<polygon fill="midnightblue" stroke="midnightblue" points="791.4,-78.95 781.29,-75.78 787.21,-84.56 791.4,-78.95"/>
</g>
<!-- Node15&#45;&gt;Node10 -->
<g id="edge24" class="edge">
<title>Node15&#45;&gt;Node10</title>
<path fill="none" stroke="midnightblue" d="M896.85,-173.98C863.31,-163.64 806.63,-146.16 769.13,-134.6"/>
<polygon fill="midnightblue" stroke="midnightblue" points="769.69,-131.11 759.1,-131.51 767.63,-137.8 769.69,-131.11"/>
</g>
<!-- Node16&#45;&gt;Node3 -->
<g id="edge28" class="edge">
<title>Node16&#45;&gt;Node3</title>
<path fill="none" stroke="midnightblue" d="M1143.86,-235.36C1133.14,-226.97 1117.31,-213.41 1106.5,-199 1080.62,-164.49 1098.31,-137.47 1063.5,-112 1026.74,-85.09 900.98,-73.9 826.37,-69.54"/>
<polygon fill="midnightblue" stroke="midnightblue" points="826.38,-66.04 816.2,-68.97 825.99,-73.02 826.38,-66.04"/>
</g>
<!-- Node17 -->
<g id="node17" class="node">
<title>Node17</title>
<g id="a_node17"><a xlink:href="_radar_device_common_8h.html" target="_top" xlink:title="Header for ifxRadarDeviceCommon.">
<polygon fill="white" stroke="black" points="1115.5,-168.5 1115.5,-198.5 1251.5,-198.5 1251.5,-168.5 1115.5,-168.5"/>
<text text-anchor="start" x="1123.5" y="-186.5" font-family="Helvetica,sans-Serif" font-size="10.00">ifxRadarDeviceCommon</text>
<text text-anchor="middle" x="1183.5" y="-175.5" font-family="Helvetica,sans-Serif" font-size="10.00">/RadarDeviceCommon.h</text>
</a>
</g>
</g>
<!-- Node16&#45;&gt;Node17 -->
<g id="edge29" class="edge">
<title>Node16&#45;&gt;Node17</title>
<path fill="none" stroke="midnightblue" d="M1159.51,-235.48C1162.91,-228.25 1167.96,-217.53 1172.55,-207.78"/>
<polygon fill="midnightblue" stroke="midnightblue" points="1175.81,-209.06 1176.9,-198.52 1169.48,-206.08 1175.81,-209.06"/>
</g>
<!-- Node17&#45;&gt;Node3 -->
<g id="edge30" class="edge">
<title>Node17&#45;&gt;Node3</title>
<path fill="none" stroke="midnightblue" d="M1171.81,-168.41C1157.22,-151.88 1130.61,-125.08 1101.5,-112 1053.55,-90.45 907.78,-76.89 826.24,-70.79"/>
<polygon fill="midnightblue" stroke="midnightblue" points="826.37,-67.29 816.14,-70.05 825.86,-74.27 826.37,-67.29"/>
</g>
<!-- Node18&#45;&gt;Node3 -->
<g id="edge32" class="edge">
<title>Node18&#45;&gt;Node3</title>
<path fill="none" stroke="midnightblue" d="M1166.3,-347.42C1149.75,-330.08 1111.25,-289.57 1079.5,-255 1021.6,-191.96 1024.01,-155.85 950.5,-112 912.63,-89.41 863.82,-78.12 826.44,-72.5"/>
<polygon fill="midnightblue" stroke="midnightblue" points="826.6,-68.99 816.21,-71.06 825.63,-75.92 826.6,-68.99"/>
</g>
<!-- Node18&#45;&gt;Node12 -->
<g id="edge39" class="edge">
<title>Node18&#45;&gt;Node12</title>
<path fill="none" stroke="midnightblue" d="M1105.69,-351.16C996.45,-343.37 776.64,-327.27 590.5,-311 578.63,-309.96 565.92,-308.77 553.84,-307.6"/>
<polygon fill="midnightblue" stroke="midnightblue" points="554.17,-304.12 543.87,-306.63 553.49,-311.08 554.17,-304.12"/>
</g>
<!-- Node18&#45;&gt;Node16 -->
<g id="edge40" class="edge">
<title>Node18&#45;&gt;Node16</title>
<path fill="none" stroke="midnightblue" d="M1173.01,-347.37C1169.94,-329.62 1162.87,-288.67 1158.71,-264.6"/>
<polygon fill="midnightblue" stroke="midnightblue" points="1162.14,-263.85 1156.98,-254.59 1155.24,-265.04 1162.14,-263.85"/>
</g>
<!-- Node18&#45;&gt;Node17 -->
<g id="edge45" class="edge">
<title>Node18&#45;&gt;Node17</title>
<path fill="none" stroke="midnightblue" d="M1179.16,-347.12C1185.78,-334.55 1198.34,-310.9 1209.5,-291 1218.56,-274.84 1225.67,-272.88 1230.5,-255 1232.82,-246.42 1233.75,-243.27 1230.5,-235 1226.14,-223.91 1218.06,-213.81 1209.82,-205.6"/>
<polygon fill="midnightblue" stroke="midnightblue" points="1212.02,-202.87 1202.31,-198.63 1207.26,-208 1212.02,-202.87"/>
</g>
<!-- Node19 -->
<g id="node19" class="node">
<title>Node19</title>
<g id="a_node19"><a xlink:href="_error_8h.html" target="_top" xlink:title="API for error handling.">
<polygon fill="white" stroke="black" points="1414.5,-291.5 1414.5,-310.5 1502.5,-310.5 1502.5,-291.5 1414.5,-291.5"/>
<text text-anchor="middle" x="1458.5" y="-298.5" font-family="Helvetica,sans-Serif" font-size="10.00">ifxBase/Error.h</text>
</a>
</g>
</g>
<!-- Node18&#45;&gt;Node19 -->
<g id="edge33" class="edge">
<title>Node18&#45;&gt;Node19</title>
<path fill="none" stroke="midnightblue" d="M1219.5,-347.44C1269.61,-337.92 1350.58,-322.52 1404.17,-312.33"/>
<polygon fill="midnightblue" stroke="midnightblue" points="1405.01,-315.73 1414.18,-310.43 1403.7,-308.86 1405.01,-315.73"/>
</g>
<!-- Node22 -->
<g id="node22" class="node">
<title>Node22</title>
<g id="a_node22"><a xlink:href="_list_8h.html" target="_top" xlink:title=" ">
<polygon fill="white" stroke="black" points="1317,-235.5 1317,-254.5 1400,-254.5 1400,-235.5 1317,-235.5"/>
<text text-anchor="middle" x="1358.5" y="-242.5" font-family="Helvetica,sans-Serif" font-size="10.00">ifxBase/List.h</text>
</a>
</g>
</g>
<!-- Node18&#45;&gt;Node22 -->
<g id="edge37" class="edge">
<title>Node18&#45;&gt;Node22</title>
<path fill="none" stroke="midnightblue" d="M1243.04,-348.89C1291.74,-342.26 1351.11,-330.42 1366.5,-311 1376.96,-297.81 1372.64,-278.13 1367.14,-263.89"/>
<polygon fill="midnightblue" stroke="midnightblue" points="1370.32,-262.42 1363.13,-254.64 1363.9,-265.21 1370.32,-262.42"/>
</g>
<!-- Node23 -->
<g id="node23" class="node">
<title>Node23</title>
<g id="a_node23"><a xlink:href="_recording_8h.html" target="_top" xlink:title="This file defines functions to handle Recordings.">
<polygon fill="white" stroke="black" points="1219,-291.5 1219,-310.5 1358,-310.5 1358,-291.5 1219,-291.5"/>
<text text-anchor="middle" x="1288.5" y="-298.5" font-family="Helvetica,sans-Serif" font-size="10.00">ifxRecording/Recording.h</text>
</a>
</g>
</g>
<!-- Node18&#45;&gt;Node23 -->
<g id="edge41" class="edge">
<title>Node18&#45;&gt;Node23</title>
<path fill="none" stroke="midnightblue" d="M1192.56,-347.44C1211.07,-338.68 1240.08,-324.94 1261.36,-314.86"/>
<polygon fill="midnightblue" stroke="midnightblue" points="1262.98,-317.96 1270.52,-310.52 1259.99,-311.63 1262.98,-317.96"/>
</g>
<!-- Node20 -->
<g id="node20" class="node">
<title>Node20</title>
<g id="a_node20"><a xlink:href="_log_8h.html" target="_top" xlink:title="API for logging.">
<polygon fill="white" stroke="black" points="1496,-235.5 1496,-254.5 1579,-254.5 1579,-235.5 1496,-235.5"/>
<text text-anchor="middle" x="1537.5" y="-242.5" font-family="Helvetica,sans-Serif" font-size="10.00">ifxBase/Log.h</text>
</a>
</g>
</g>
<!-- Node19&#45;&gt;Node20 -->
<g id="edge34" class="edge">
<title>Node19&#45;&gt;Node20</title>
<path fill="none" stroke="midnightblue" d="M1471.19,-291.32C1483.4,-282.98 1502.08,-270.21 1516.5,-260.35"/>
<polygon fill="midnightblue" stroke="midnightblue" points="1518.56,-263.19 1524.84,-254.65 1514.61,-257.41 1518.56,-263.19"/>
</g>
<!-- Node20&#45;&gt;Node3 -->
<g id="edge36" class="edge">
<title>Node20&#45;&gt;Node3</title>
<path fill="none" stroke="midnightblue" d="M1542.95,-235.03C1551.49,-219.7 1565.56,-188.16 1550.5,-168 1498.08,-97.8 1447.66,-127.85 1361.5,-112 1167.5,-76.3 932.71,-68.83 826.54,-67.33"/>
<polygon fill="midnightblue" stroke="midnightblue" points="826.41,-63.83 816.37,-67.2 826.32,-70.83 826.41,-63.83"/>
</g>
<!-- Node21 -->
<g id="node21" class="node">
<title>Node21</title>
<g id="a_node21"><a xlink:title=" ">
<polygon fill="white" stroke="#bfbfbf" points="1491.5,-174 1491.5,-193 1541.5,-193 1541.5,-174 1491.5,-174"/>
<text text-anchor="middle" x="1516.5" y="-181" font-family="Helvetica,sans-Serif" font-size="10.00">stdio.h</text>
</a>
</g>
</g>
<!-- Node20&#45;&gt;Node21 -->
<g id="edge35" class="edge">
<title>Node20&#45;&gt;Node21</title>
<path fill="none" stroke="midnightblue" d="M1534.49,-235.48C1531.47,-226.9 1526.71,-213.43 1522.85,-202.48"/>
<polygon fill="midnightblue" stroke="midnightblue" points="1526.13,-201.27 1519.5,-193.01 1519.53,-203.6 1526.13,-201.27"/>
</g>
<!-- Node22&#45;&gt;Node3 -->
<g id="edge38" class="edge">
<title>Node22&#45;&gt;Node3</title>
<path fill="none" stroke="midnightblue" d="M1354.29,-235.37C1340,-206.12 1294.21,-112.49 1293.5,-112 1255.65,-86.13 954.63,-73.15 826.7,-68.76"/>
<polygon fill="midnightblue" stroke="midnightblue" points="826.44,-65.25 816.33,-68.41 826.21,-72.25 826.44,-65.25"/>
</g>
<!-- Node23&#45;&gt;Node3 -->
<g id="edge42" class="edge">
<title>Node23&#45;&gt;Node3</title>
<path fill="none" stroke="midnightblue" d="M1289.19,-291.47C1290.55,-268.68 1291.19,-205.55 1260.5,-168 1206.18,-101.52 943.95,-77.52 826.55,-70.01"/>
<polygon fill="midnightblue" stroke="midnightblue" points="826.52,-66.5 816.32,-69.37 826.09,-73.49 826.52,-66.5"/>
</g>
<!-- Node23&#45;&gt;Node16 -->
<g id="edge43" class="edge">
<title>Node23&#45;&gt;Node16</title>
<path fill="none" stroke="midnightblue" d="M1267.43,-291.44C1245.44,-282.52 1210.77,-268.44 1185.84,-258.32"/>
<polygon fill="midnightblue" stroke="midnightblue" points="1187.06,-255.04 1176.48,-254.52 1184.42,-261.52 1187.06,-255.04"/>
</g>
<!-- Node23&#45;&gt;Node22 -->
<g id="edge44" class="edge">
<title>Node23&#45;&gt;Node22</title>
<path fill="none" stroke="midnightblue" d="M1299.75,-291.32C1310.3,-283.18 1326.3,-270.84 1338.94,-261.09"/>
<polygon fill="midnightblue" stroke="midnightblue" points="1341.27,-263.71 1347.05,-254.83 1336.99,-258.17 1341.27,-263.71"/>
</g>
<!-- Node24&#45;&gt;Node3 -->
<g id="edge55" class="edge">
<title>Node24&#45;&gt;Node3</title>
<path fill="none" stroke="midnightblue" d="M920.09,-291.5C947.57,-270.27 1012.29,-213.42 983.5,-168 949.17,-113.84 877.14,-88.17 826.15,-76.39"/>
<polygon fill="midnightblue" stroke="midnightblue" points="826.77,-72.95 816.25,-74.22 825.27,-79.78 826.77,-72.95"/>
</g>
<!-- Node24&#45;&gt;Node10 -->
<g id="edge57" class="edge">
<title>Node24&#45;&gt;Node10</title>
<path fill="none" stroke="midnightblue" d="M907.6,-291.22C905.88,-277.93 901.07,-252.43 888.5,-235 854.75,-188.21 795.31,-153.67 760.05,-136.08"/>
<polygon fill="midnightblue" stroke="midnightblue" points="761.31,-132.8 750.79,-131.58 758.25,-139.1 761.31,-132.8"/>
</g>
<!-- Node24&#45;&gt;Node13 -->
<g id="edge56" class="edge">
<title>Node24&#45;&gt;Node13</title>
<path fill="none" stroke="midnightblue" d="M870.47,-291.44C828.69,-282.04 761.52,-266.93 716.23,-256.74"/>
<polygon fill="midnightblue" stroke="midnightblue" points="716.88,-253.3 706.35,-254.52 715.34,-260.13 716.88,-253.3"/>
</g>
<!-- Node24&#45;&gt;Node15 -->
<g id="edge54" class="edge">
<title>Node24&#45;&gt;Node15</title>
<path fill="none" stroke="midnightblue" d="M912.02,-291.21C915.42,-282.26 920.35,-267.91 922.5,-255 925.39,-237.65 925.67,-217.58 925.35,-203.3"/>
<polygon fill="midnightblue" stroke="midnightblue" points="928.85,-203.13 925.01,-193.26 921.85,-203.37 928.85,-203.13"/>
</g>
<!-- Node25 -->
<g id="node25" class="node">
<title>Node25</title>
<g id="a_node25"><a xlink:href="_preprocessed_f_f_t_8h.html" target="_top" xlink:title="API for Pre&#45;processed FFT.">
<polygon fill="white" stroke="black" points="735,-235.5 735,-254.5 880,-254.5 880,-235.5 735,-235.5"/>
<text text-anchor="middle" x="807.5" y="-242.5" font-family="Helvetica,sans-Serif" font-size="10.00">ifxAlgo/PreprocessedFFT.h</text>
</a>
</g>
</g>
<!-- Node24&#45;&gt;Node25 -->
<g id="edge47" class="edge">
<title>Node24&#45;&gt;Node25</title>
<path fill="none" stroke="midnightblue" d="M892.27,-291.32C876.15,-282.7 851.2,-269.36 832.54,-259.39"/>
<polygon fill="midnightblue" stroke="midnightblue" points="834.16,-256.28 823.69,-254.65 830.86,-262.46 834.16,-256.28"/>
</g>
<!-- Node25&#45;&gt;Node3 -->
<g id="edge52" class="edge">
<title>Node25&#45;&gt;Node3</title>
<path fill="none" stroke="midnightblue" d="M806.87,-235.21C805.19,-213.8 799.84,-157.4 787.5,-112 785.02,-102.87 781.24,-93.07 777.79,-84.96"/>
<polygon fill="midnightblue" stroke="midnightblue" points="780.96,-83.48 773.71,-75.76 774.56,-86.32 780.96,-83.48"/>
</g>
<!-- Node25&#45;&gt;Node9 -->
<g id="edge53" class="edge">
<title>Node25&#45;&gt;Node9</title>
<path fill="none" stroke="midnightblue" d="M763.37,-235.48C701.83,-223.59 591.45,-202.26 534.94,-191.35"/>
<polygon fill="midnightblue" stroke="midnightblue" points="535.53,-187.89 525.04,-189.43 534.2,-194.77 535.53,-187.89"/>
</g>
<!-- Node25&#45;&gt;Node15 -->
<g id="edge51" class="edge">
<title>Node25&#45;&gt;Node15</title>
<path fill="none" stroke="midnightblue" d="M824.26,-235.48C843.72,-225.58 876.05,-209.14 898.71,-197.62"/>
<polygon fill="midnightblue" stroke="midnightblue" points="900.44,-200.66 907.77,-193.01 897.27,-194.42 900.44,-200.66"/>
</g>
<!-- Node26 -->
<g id="node26" class="node">
<title>Node26</title>
<g id="a_node26"><a xlink:href="_f_f_t_8h.html" target="_top" xlink:title="API for Fast Fourier Transform (FFT)">
<polygon fill="white" stroke="black" points="619.5,-174 619.5,-193 699.5,-193 699.5,-174 619.5,-174"/>
<text text-anchor="middle" x="659.5" y="-181" font-family="Helvetica,sans-Serif" font-size="10.00">ifxAlgo/FFT.h</text>
</a>
</g>
</g>
<!-- Node25&#45;&gt;Node26 -->
<g id="edge48" class="edge">
<title>Node25&#45;&gt;Node26</title>
<path fill="none" stroke="midnightblue" d="M786.3,-235.48C761.13,-225.36 718.96,-208.4 690.22,-196.85"/>
<polygon fill="midnightblue" stroke="midnightblue" points="691.25,-193.49 680.67,-193.01 688.64,-199.99 691.25,-193.49"/>
</g>
<!-- Node26&#45;&gt;Node3 -->
<g id="edge49" class="edge">
<title>Node26&#45;&gt;Node3</title>
<path fill="none" stroke="midnightblue" d="M659.01,-173.66C658.69,-159.2 660.06,-130.26 674.5,-112 686.82,-96.42 705.84,-85.95 723.63,-79.07"/>
<polygon fill="midnightblue" stroke="midnightblue" points="725.1,-82.26 733.34,-75.6 722.74,-75.67 725.1,-82.26"/>
</g>
<!-- Node26&#45;&gt;Node10 -->
<g id="edge50" class="edge">
<title>Node26&#45;&gt;Node10</title>
<path fill="none" stroke="midnightblue" d="M669.82,-173.98C681.15,-164.61 699.57,-149.38 713.34,-138.01"/>
<polygon fill="midnightblue" stroke="midnightblue" points="715.72,-140.58 721.2,-131.51 711.27,-135.18 715.72,-140.58"/>
</g>
<!-- Node27&#45;&gt;Node3 -->
<g id="edge60" class="edge">
<title>Node27&#45;&gt;Node3</title>
<path fill="none" stroke="midnightblue" d="M657.13,-291.37C641.45,-284.1 621.41,-272.13 610.5,-255 589.63,-222.25 593.05,-205.66 602.5,-168 609.37,-140.61 610.87,-130.15 632.5,-112 655.2,-92.95 686.2,-81.9 712.97,-75.52"/>
<polygon fill="midnightblue" stroke="midnightblue" points="713.99,-78.87 723,-73.29 712.48,-72.04 713.99,-78.87"/>
</g>
<!-- Node27&#45;&gt;Node13 -->
<g id="edge61" class="edge">
<title>Node27&#45;&gt;Node13</title>
<path fill="none" stroke="midnightblue" d="M677.68,-291.08C676.23,-283.93 674.13,-273.64 672.31,-264.69"/>
<polygon fill="midnightblue" stroke="midnightblue" points="675.71,-263.85 670.28,-254.75 668.85,-265.25 675.71,-263.85"/>
</g>
<!-- Node27&#45;&gt;Node25 -->
<g id="edge59" class="edge">
<title>Node27&#45;&gt;Node25</title>
<path fill="none" stroke="midnightblue" d="M699.78,-291.44C720.85,-282.56 754.02,-268.56 777.99,-258.45"/>
<polygon fill="midnightblue" stroke="midnightblue" points="779.46,-261.63 787.31,-254.52 776.74,-255.18 779.46,-261.63"/>
</g>
<!-- Node28&#45;&gt;Node3 -->
<g id="edge64" class="edge">
<title>Node28&#45;&gt;Node3</title>
<path fill="none" stroke="midnightblue" d="M455.63,-235.08C454.58,-220.35 454.08,-190.37 464.5,-168 479.1,-136.66 488,-128.29 518.5,-112 579.46,-79.45 659.4,-69.86 712.51,-67.34"/>
<polygon fill="midnightblue" stroke="midnightblue" points="712.91,-70.82 722.76,-66.92 712.62,-63.83 712.91,-70.82"/>
</g>
<!-- Node28&#45;&gt;Node9 -->
<g id="edge65" class="edge">
<title>Node28&#45;&gt;Node9</title>
<path fill="none" stroke="midnightblue" d="M462.66,-235.48C469.11,-226.55 479.4,-212.31 487.47,-201.14"/>
<polygon fill="midnightblue" stroke="midnightblue" points="490.33,-203.16 493.35,-193.01 484.66,-199.06 490.33,-203.16"/>
</g>
<!-- Node28&#45;&gt;Node26 -->
<g id="edge66" class="edge">
<title>Node28&#45;&gt;Node26</title>
<path fill="none" stroke="midnightblue" d="M485.58,-235.48C521.08,-225.07 581.25,-207.44 620.67,-195.88"/>
<polygon fill="midnightblue" stroke="midnightblue" points="621.86,-199.18 630.47,-193.01 619.89,-192.46 621.86,-199.18"/>
</g>
<!-- Node29&#45;&gt;Node3 -->
<g id="edge68" class="edge">
<title>Node29&#45;&gt;Node3</title>
<path fill="none" stroke="midnightblue" d="M1403.16,-173.84C1391.17,-158.26 1363.51,-125.81 1331.5,-112 1241.79,-73.29 950.22,-67.59 826.18,-66.95"/>
<polygon fill="midnightblue" stroke="midnightblue" points="826.14,-63.45 816.13,-66.91 826.11,-70.45 826.14,-63.45"/>
</g>
<!-- Node29&#45;&gt;Node10 -->
<g id="edge69" class="edge">
<title>Node29&#45;&gt;Node10</title>
<path fill="none" stroke="midnightblue" d="M1345.71,-176.12C1319.34,-173.53 1288.45,-170.55 1260.5,-168 1089.35,-152.39 886.89,-135.65 789.51,-127.7"/>
<polygon fill="midnightblue" stroke="midnightblue" points="789.55,-124.19 779.3,-126.87 788.98,-131.17 789.55,-124.19"/>
</g>
<!-- Node30&#45;&gt;Node3 -->
<g id="edge71" class="edge">
<title>Node30&#45;&gt;Node3</title>
<path fill="none" stroke="midnightblue" d="M194.12,-347.49C172.55,-340.91 146.94,-329.68 130.5,-311 110.62,-288.4 111.5,-276.1 111.5,-246 111.5,-246 111.5,-246 111.5,-182.5 111.5,-141.36 134.82,-130.65 171.5,-112 218.98,-87.86 572.64,-73.56 712.66,-68.79"/>
<polygon fill="midnightblue" stroke="midnightblue" points="712.89,-72.29 722.76,-68.45 712.65,-65.29 712.89,-72.29"/>
</g>
<!-- Node30&#45;&gt;Node12 -->
<g id="edge72" class="edge">
<title>Node30&#45;&gt;Node12</title>
<path fill="none" stroke="midnightblue" d="M275.49,-347.44C321.91,-337.98 396.73,-322.74 446.74,-312.55"/>
<polygon fill="midnightblue" stroke="midnightblue" points="447.61,-315.94 456.71,-310.52 446.21,-309.08 447.61,-315.94"/>
</g>
<!-- Node31&#45;&gt;Node3 -->
<g id="edge74" class="edge">
<title>Node31&#45;&gt;Node3</title>
<path fill="none" stroke="midnightblue" d="M459.1,-403.16C450.62,-389.81 433.12,-364.23 413.5,-347 353.3,-294.14 298.14,-324.62 258.5,-255 254.1,-247.28 253.96,-242.64 258.5,-235 316.92,-136.69 376.22,-148.79 484.5,-112 561.01,-86.01 654.26,-74.9 712.78,-70.25"/>
<polygon fill="midnightblue" stroke="midnightblue" points="713.22,-73.72 722.93,-69.48 712.69,-66.74 713.22,-73.72"/>
</g>
<!-- Node31&#45;&gt;Node11 -->
<g id="edge76" class="edge">
<title>Node31&#45;&gt;Node11</title>
<path fill="none" stroke="midnightblue" d="M447.79,-403.32C431.19,-394.7 405.5,-381.36 386.28,-371.39"/>
<polygon fill="midnightblue" stroke="midnightblue" points="387.66,-368.16 377.17,-366.65 384.43,-374.37 387.66,-368.16"/>
</g>
<!-- Node31&#45;&gt;Node12 -->
<g id="edge75" class="edge">
<title>Node31&#45;&gt;Node12</title>
<path fill="none" stroke="midnightblue" d="M467.17,-403.37C472.68,-385.54 485.43,-344.3 492.85,-320.27"/>
<polygon fill="midnightblue" stroke="midnightblue" points="496.24,-321.18 495.84,-310.59 489.55,-319.11 496.24,-321.18"/>
</g>
<!-- Node31&#45;&gt;Node27 -->
<g id="edge77" class="edge">
<title>Node31&#45;&gt;Node27</title>
<path fill="none" stroke="midnightblue" d="M481.37,-403.37C518.81,-384.21 609.07,-338.04 653.67,-315.22"/>
<polygon fill="midnightblue" stroke="midnightblue" points="655.4,-318.26 662.71,-310.59 652.21,-312.03 655.4,-318.26"/>
</g>
</g>
</svg>
