<?xml version="1.0" encoding="UTF-8" standalone="no"?>
<!DOCTYPE svg PUBLIC "-//W3C//DTD SVG 1.1//EN"
 "http://www.w3.org/Graphics/SVG/1.1/DTD/svg11.dtd">
<!-- Generated by graphviz version 2.43.0 (0)
 -->
<!-- Title: /home/jenkins/jenkins&#45;ci/workspace/er_release_release&#45;branch&#45;v3.3.1@2/sdk/c/ifxRadarDeviceCommon/RadarDeviceCommon.h Pages: 1 -->
<svg width="1053pt" height="550pt"
 viewBox="0.00 0.00 1052.50 550.00" xmlns="http://www.w3.org/2000/svg" xmlns:xlink="http://www.w3.org/1999/xlink">
<g id="graph0" class="graph" transform="scale(1 1) rotate(0) translate(4 546)">
<title>/home/jenkins/jenkins&#45;ci/workspace/er_release_release&#45;branch&#45;v3.3.1@2/sdk/c/ifxRadarDeviceCommon/RadarDeviceCommon.h</title>
<polygon fill="white" stroke="transparent" points="-4,4 -4,-546 1048.5,-546 1048.5,4 -4,4"/>
<!-- Node1 -->
<g id="node1" class="node">
<title>Node1</title>
<g id="a_node1"><a xlink:title="Header for ifxRadarDeviceCommon.">
<polygon fill="#bfbfbf" stroke="black" points="473,-478.5 473,-541.5 640,-541.5 640,-478.5 473,-478.5"/>
<text text-anchor="start" x="481" y="-529.5" font-family="Helvetica,sans-Serif" font-size="10.00">/home/jenkins/jenkins</text>
<text text-anchor="start" x="481" y="-518.5" font-family="Helvetica,sans-Serif" font-size="10.00">&#45;ci/workspace/er_release</text>
<text text-anchor="start" x="481" y="-507.5" font-family="Helvetica,sans-Serif" font-size="10.00">_release&#45;branch&#45;v3.3.1@2</text>
<text text-anchor="start" x="481" y="-496.5" font-family="Helvetica,sans-Serif" font-size="10.00">/sdk/c/ifxRadarDeviceCommon</text>
<text text-anchor="middle" x="556.5" y="-485.5" font-family="Helvetica,sans-Serif" font-size="10.00">/RadarDeviceCommon.h</text>
</a>
</g>
</g>
<!-- Node2 -->
<g id="node2" class="node">
<title>Node2</title>
<g id="a_node2"><a xlink:href="_device_config_8h.html" target="_top" xlink:title="API for Radar device configuration.">
<polygon fill="white" stroke="black" points="474.5,-384 474.5,-436 638.5,-436 638.5,-384 474.5,-384"/>
<text text-anchor="start" x="482.5" y="-424" font-family="Helvetica,sans-Serif" font-size="10.00">/home/jenkins/jenkins</text>
<text text-anchor="start" x="482.5" y="-413" font-family="Helvetica,sans-Serif" font-size="10.00">&#45;ci/workspace/er_release</text>
<text text-anchor="start" x="482.5" y="-402" font-family="Helvetica,sans-Serif" font-size="10.00">_release&#45;branch&#45;v3.3.1@2</text>
<text text-anchor="middle" x="556.5" y="-391" font-family="Helvetica,sans-Serif" font-size="10.00">/sdk/c/ifxAvian/DeviceConfig.h</text>
</a>
</g>
</g>
<!-- Node1&#45;&gt;Node2 -->
<g id="edge1" class="edge">
<title>Node1&#45;&gt;Node2</title>
<path fill="none" stroke="midnightblue" d="M556.5,-468.08C556.5,-457.21 556.5,-445.79 556.5,-436.05"/>
<polygon fill="midnightblue" stroke="midnightblue" points="553,-468.26 556.5,-478.26 560,-468.26 553,-468.26"/>
</g>
<!-- Node5 -->
<g id="node5" class="node">
<title>Node5</title>
<g id="a_node5"><a xlink:href="_device_control_8h.html" target="_top" xlink:title="API for Radar device control operations.">
<polygon fill="white" stroke="black" points="247,-184 247,-236 416,-236 416,-184 247,-184"/>
<text text-anchor="start" x="255" y="-224" font-family="Helvetica,sans-Serif" font-size="10.00">/home/jenkins/jenkins</text>
<text text-anchor="start" x="255" y="-213" font-family="Helvetica,sans-Serif" font-size="10.00">&#45;ci/workspace/er_release</text>
<text text-anchor="start" x="255" y="-202" font-family="Helvetica,sans-Serif" font-size="10.00">_release&#45;branch&#45;v3.3.1@2</text>
<text text-anchor="middle" x="331.5" y="-191" font-family="Helvetica,sans-Serif" font-size="10.00">/sdk/c/ifxAvian/DeviceControl.h</text>
</a>
</g>
</g>
<!-- Node1&#45;&gt;Node5 -->
<g id="edge20" class="edge">
<title>Node1&#45;&gt;Node5</title>
<path fill="none" stroke="midnightblue" d="M462.86,-505C354.35,-494.76 179.93,-459.71 97.5,-342 81.18,-318.7 80.38,-300.71 97.5,-278 115.82,-253.7 187.56,-235.54 246.84,-224.3"/>
<polygon fill="midnightblue" stroke="midnightblue" points="462.56,-508.49 472.83,-505.89 463.18,-501.52 462.56,-508.49"/>
</g>
<!-- Node14 -->
<g id="node14" class="node">
<title>Node14</title>
<g id="a_node14"><a xlink:href="_device_l_t_r11_control_8h.html" target="_top" xlink:title="API for 60GHz Radar device BGT60LTR11 to configure and get raw data.">
<polygon fill="white" stroke="black" points="749.5,-378.5 749.5,-441.5 943.5,-441.5 943.5,-378.5 749.5,-378.5"/>
<text text-anchor="start" x="757.5" y="-429.5" font-family="Helvetica,sans-Serif" font-size="10.00">/home/jenkins/jenkins</text>
<text text-anchor="start" x="757.5" y="-418.5" font-family="Helvetica,sans-Serif" font-size="10.00">&#45;ci/workspace/er_release</text>
<text text-anchor="start" x="757.5" y="-407.5" font-family="Helvetica,sans-Serif" font-size="10.00">_release&#45;branch&#45;v3.3.1@2</text>
<text text-anchor="start" x="757.5" y="-396.5" font-family="Helvetica,sans-Serif" font-size="10.00">/sdk/c/ifxDopplerLTR11/DeviceLTR11</text>
<text text-anchor="middle" x="846.5" y="-385.5" font-family="Helvetica,sans-Serif" font-size="10.00">Control.h</text>
</a>
</g>
</g>
<!-- Node1&#45;&gt;Node14 -->
<g id="edge21" class="edge">
<title>Node1&#45;&gt;Node14</title>
<path fill="none" stroke="midnightblue" d="M649.87,-477.45C683.95,-465.93 722.41,-452.93 756.22,-441.51"/>
<polygon fill="midnightblue" stroke="midnightblue" points="648.73,-474.14 640.38,-480.65 650.97,-480.77 648.73,-474.14"/>
</g>
<!-- Node3 -->
<g id="node3" class="node">
<title>Node3</title>
<g id="a_node3"><a xlink:href="_avian_8h.html" target="_top" xlink:title="Header for ifxAvian.">
<polygon fill="white" stroke="black" points="261,-0.5 261,-52.5 404,-52.5 404,-0.5 261,-0.5"/>
<text text-anchor="start" x="269" y="-40.5" font-family="Helvetica,sans-Serif" font-size="10.00">/home/jenkins/jenkins</text>
<text text-anchor="start" x="269" y="-29.5" font-family="Helvetica,sans-Serif" font-size="10.00">&#45;ci/workspace/er_release</text>
<text text-anchor="start" x="269" y="-18.5" font-family="Helvetica,sans-Serif" font-size="10.00">_release&#45;branch&#45;v3.3.1@2</text>
<text text-anchor="middle" x="332.5" y="-7.5" font-family="Helvetica,sans-Serif" font-size="10.00">/sdk/c/ifxAvian/Avian.h</text>
</a>
</g>
</g>
<!-- Node2&#45;&gt;Node3 -->
<g id="edge2" class="edge">
<title>Node2&#45;&gt;Node3</title>
<path fill="none" stroke="midnightblue" d="M572.07,-374.08C597.96,-310.11 640.89,-173 575.5,-89 554.52,-62.04 467.87,-45.02 404,-35.88"/>
<polygon fill="midnightblue" stroke="midnightblue" points="568.68,-373.12 568.08,-383.7 575.15,-375.8 568.68,-373.12"/>
</g>
<!-- Node4 -->
<g id="node4" class="node">
<title>Node4</title>
<g id="a_node4"><a xlink:href="_constant_wave_control_8h.html" target="_top" xlink:title="Header for Constant Wave Control. It provides APIs to use an Avian device in constant wave mode....">
<polygon fill="white" stroke="black" points="360.5,-89.5 360.5,-141.5 566.5,-141.5 566.5,-89.5 360.5,-89.5"/>
<text text-anchor="start" x="368.5" y="-129.5" font-family="Helvetica,sans-Serif" font-size="10.00">/home/jenkins/jenkins</text>
<text text-anchor="start" x="368.5" y="-118.5" font-family="Helvetica,sans-Serif" font-size="10.00">&#45;ci/workspace/er_release</text>
<text text-anchor="start" x="368.5" y="-107.5" font-family="Helvetica,sans-Serif" font-size="10.00">_release&#45;branch&#45;v3.3.1@2</text>
<text text-anchor="middle" x="463.5" y="-96.5" font-family="Helvetica,sans-Serif" font-size="10.00">/sdk/c/ifxAvian/ConstantWaveControl.h</text>
</a>
</g>
</g>
<!-- Node2&#45;&gt;Node4 -->
<g id="edge3" class="edge">
<title>Node2&#45;&gt;Node4</title>
<path fill="none" stroke="midnightblue" d="M554.14,-373.89C551.7,-347.17 546.86,-309.72 537.5,-278 522.62,-227.56 494.74,-172.67 477.77,-141.63"/>
<polygon fill="midnightblue" stroke="midnightblue" points="550.66,-374.25 555,-383.92 557.64,-373.66 550.66,-374.25"/>
</g>
<!-- Node2&#45;&gt;Node5 -->
<g id="edge5" class="edge">
<title>Node2&#45;&gt;Node5</title>
<path fill="none" stroke="midnightblue" d="M464.4,-401.08C423.26,-392.68 377.79,-375.78 349.5,-342 324.66,-312.34 324.72,-264.97 327.67,-236.06"/>
<polygon fill="midnightblue" stroke="midnightblue" points="464,-404.57 474.47,-402.99 465.3,-397.69 464,-404.57"/>
</g>
<!-- Node8 -->
<g id="node8" class="node">
<title>Node8</title>
<g id="a_node8"><a xlink:href="_presence_sensing_8h.html" target="_top" xlink:title="API for Presence Sensing algorithm.">
<polygon fill="white" stroke="black" points="622.5,-89.5 622.5,-141.5 806.5,-141.5 806.5,-89.5 622.5,-89.5"/>
<text text-anchor="start" x="630.5" y="-129.5" font-family="Helvetica,sans-Serif" font-size="10.00">/home/jenkins/jenkins</text>
<text text-anchor="start" x="630.5" y="-118.5" font-family="Helvetica,sans-Serif" font-size="10.00">&#45;ci/workspace/er_release</text>
<text text-anchor="start" x="630.5" y="-107.5" font-family="Helvetica,sans-Serif" font-size="10.00">_release&#45;branch&#45;v3.3.1@2</text>
<text text-anchor="middle" x="714.5" y="-96.5" font-family="Helvetica,sans-Serif" font-size="10.00">/sdk/c/ifxRadar/PresenceSensing.h</text>
</a>
</g>
</g>
<!-- Node2&#45;&gt;Node8 -->
<g id="edge15" class="edge">
<title>Node2&#45;&gt;Node8</title>
<path fill="none" stroke="midnightblue" d="M586.36,-376C594.48,-365.68 602.64,-353.88 608.5,-342 641.83,-274.42 613.61,-243.13 651.5,-178 659.42,-164.39 671.16,-151.78 682.37,-141.56"/>
<polygon fill="midnightblue" stroke="midnightblue" points="583.5,-373.96 579.89,-383.92 588.93,-378.38 583.5,-373.96"/>
</g>
<!-- Node10 -->
<g id="node10" class="node">
<title>Node10</title>
<g id="a_node10"><a xlink:href="_motion_angle_8h.html" target="_top" xlink:title=" ">
<polygon fill="white" stroke="black" points="106.5,-284 106.5,-336 302.5,-336 302.5,-284 106.5,-284"/>
<text text-anchor="start" x="114.5" y="-324" font-family="Helvetica,sans-Serif" font-size="10.00">/home/jenkins/jenkins</text>
<text text-anchor="start" x="114.5" y="-313" font-family="Helvetica,sans-Serif" font-size="10.00">&#45;ci/workspace/er_release</text>
<text text-anchor="start" x="114.5" y="-302" font-family="Helvetica,sans-Serif" font-size="10.00">_release&#45;branch&#45;v3.3.1@2</text>
<text text-anchor="middle" x="204.5" y="-291" font-family="Helvetica,sans-Serif" font-size="10.00">/sdk/c/ifxMotionAngle/MotionAngle.h</text>
</a>
</g>
</g>
<!-- Node2&#45;&gt;Node10 -->
<g id="edge14" class="edge">
<title>Node2&#45;&gt;Node10</title>
<path fill="none" stroke="midnightblue" d="M464.77,-383.46C412.26,-368.84 346.65,-350.58 294.44,-336.04"/>
<polygon fill="midnightblue" stroke="midnightblue" points="463.84,-386.84 474.42,-386.15 465.72,-380.09 463.84,-386.84"/>
</g>
<!-- Node11 -->
<g id="node11" class="node">
<title>Node11</title>
<g id="a_node11"><a xlink:href="_segmentation_8h.html" target="_top" xlink:title="API for Segmentation and Seamless Tracking algorithm.">
<polygon fill="white" stroke="black" points="660.5,-278.5 660.5,-341.5 818.5,-341.5 818.5,-278.5 660.5,-278.5"/>
<text text-anchor="start" x="668.5" y="-329.5" font-family="Helvetica,sans-Serif" font-size="10.00">/home/jenkins/jenkins</text>
<text text-anchor="start" x="668.5" y="-318.5" font-family="Helvetica,sans-Serif" font-size="10.00">&#45;ci/workspace/er_release</text>
<text text-anchor="start" x="668.5" y="-307.5" font-family="Helvetica,sans-Serif" font-size="10.00">_release&#45;branch&#45;v3.3.1@2</text>
<text text-anchor="start" x="668.5" y="-296.5" font-family="Helvetica,sans-Serif" font-size="10.00">/sdk/c/ifxRadarSegmentation</text>
<text text-anchor="middle" x="739.5" y="-285.5" font-family="Helvetica,sans-Serif" font-size="10.00">/Segmentation.h</text>
</a>
</g>
</g>
<!-- Node2&#45;&gt;Node11 -->
<g id="edge16" class="edge">
<title>Node2&#45;&gt;Node11</title>
<path fill="none" stroke="midnightblue" d="M612.58,-378.97C634.73,-367.1 660.16,-353.49 682.41,-341.57"/>
<polygon fill="midnightblue" stroke="midnightblue" points="610.79,-375.96 603.63,-383.76 614.09,-382.13 610.79,-375.96"/>
</g>
<!-- Node13 -->
<g id="node13" class="node">
<title>Node13</title>
<g id="a_node13"><a xlink:href="_recording_8h.html" target="_top" xlink:title="This file defines functions to handle Recordings.">
<polygon fill="white" stroke="black" points="358.5,-284 358.5,-336 528.5,-336 528.5,-284 358.5,-284"/>
<text text-anchor="start" x="366.5" y="-324" font-family="Helvetica,sans-Serif" font-size="10.00">/home/jenkins/jenkins</text>
<text text-anchor="start" x="366.5" y="-313" font-family="Helvetica,sans-Serif" font-size="10.00">&#45;ci/workspace/er_release</text>
<text text-anchor="start" x="366.5" y="-302" font-family="Helvetica,sans-Serif" font-size="10.00">_release&#45;branch&#45;v3.3.1@2</text>
<text text-anchor="middle" x="443.5" y="-291" font-family="Helvetica,sans-Serif" font-size="10.00">/sdk/c/ifxRecording/Recording.h</text>
</a>
</g>
</g>
<!-- Node2&#45;&gt;Node13 -->
<g id="edge18" class="edge">
<title>Node2&#45;&gt;Node13</title>
<path fill="none" stroke="midnightblue" d="M519.63,-377.02C504.34,-363.76 486.85,-348.6 472.5,-336.15"/>
<polygon fill="midnightblue" stroke="midnightblue" points="517.55,-379.85 527.4,-383.76 522.14,-374.57 517.55,-379.85"/>
</g>
<!-- Node4&#45;&gt;Node3 -->
<g id="edge4" class="edge">
<title>Node4&#45;&gt;Node3</title>
<path fill="none" stroke="midnightblue" d="M417.25,-83.79C401.88,-73.58 384.96,-62.34 370.31,-52.61"/>
<polygon fill="midnightblue" stroke="midnightblue" points="415.34,-86.72 425.61,-89.34 419.22,-80.89 415.34,-86.72"/>
</g>
<!-- Node5&#45;&gt;Node3 -->
<g id="edge6" class="edge">
<title>Node5&#45;&gt;Node3</title>
<path fill="none" stroke="midnightblue" d="M331.7,-173.34C331.89,-137.7 332.19,-83.85 332.36,-52.52"/>
<polygon fill="midnightblue" stroke="midnightblue" points="328.19,-173.74 331.64,-183.76 335.19,-173.78 328.19,-173.74"/>
</g>
<!-- Node5&#45;&gt;Node4 -->
<g id="edge7" class="edge">
<title>Node5&#45;&gt;Node4</title>
<path fill="none" stroke="midnightblue" d="M375.83,-177.93C392.73,-166.09 411.75,-152.76 427.75,-141.55"/>
<polygon fill="midnightblue" stroke="midnightblue" points="373.4,-175.36 367.22,-183.97 377.42,-181.1 373.4,-175.36"/>
</g>
<!-- Node6 -->
<g id="node6" class="node">
<title>Node6</title>
<g id="a_node6"><a xlink:href="_metrics_8h.html" target="_top" xlink:title="API for Metrics.">
<polygon fill="white" stroke="black" points="0,-89.5 0,-141.5 143,-141.5 143,-89.5 0,-89.5"/>
<text text-anchor="start" x="8" y="-129.5" font-family="Helvetica,sans-Serif" font-size="10.00">/home/jenkins/jenkins</text>
<text text-anchor="start" x="8" y="-118.5" font-family="Helvetica,sans-Serif" font-size="10.00">&#45;ci/workspace/er_release</text>
<text text-anchor="start" x="8" y="-107.5" font-family="Helvetica,sans-Serif" font-size="10.00">_release&#45;branch&#45;v3.3.1@2</text>
<text text-anchor="middle" x="71.5" y="-96.5" font-family="Helvetica,sans-Serif" font-size="10.00">/sdk/c/ifxAvian/Metrics.h</text>
</a>
</g>
</g>
<!-- Node5&#45;&gt;Node6 -->
<g id="edge8" class="edge">
<title>Node5&#45;&gt;Node6</title>
<path fill="none" stroke="midnightblue" d="M251.43,-180.51C216.43,-168.06 175.74,-153.59 141.92,-141.55"/>
<polygon fill="midnightblue" stroke="midnightblue" points="250.55,-183.91 261.14,-183.97 252.89,-177.32 250.55,-183.91"/>
</g>
<!-- Node7 -->
<g id="node7" class="node">
<title>Node7</title>
<g id="a_node7"><a xlink:href="_shapes_8h.html" target="_top" xlink:title=" ">
<polygon fill="white" stroke="black" points="161,-89.5 161,-141.5 304,-141.5 304,-89.5 161,-89.5"/>
<text text-anchor="start" x="169" y="-129.5" font-family="Helvetica,sans-Serif" font-size="10.00">/home/jenkins/jenkins</text>
<text text-anchor="start" x="169" y="-118.5" font-family="Helvetica,sans-Serif" font-size="10.00">&#45;ci/workspace/er_release</text>
<text text-anchor="start" x="169" y="-107.5" font-family="Helvetica,sans-Serif" font-size="10.00">_release&#45;branch&#45;v3.3.1@2</text>
<text text-anchor="middle" x="232.5" y="-96.5" font-family="Helvetica,sans-Serif" font-size="10.00">/sdk/c/ifxAvian/Shapes.h</text>
</a>
</g>
</g>
<!-- Node5&#45;&gt;Node7 -->
<g id="edge10" class="edge">
<title>Node5&#45;&gt;Node7</title>
<path fill="none" stroke="midnightblue" d="M297.2,-176.95C284.8,-165.36 270.98,-152.45 259.31,-141.55"/>
<polygon fill="midnightblue" stroke="midnightblue" points="295.01,-179.7 304.71,-183.97 299.79,-174.58 295.01,-179.7"/>
</g>
<!-- Node5&#45;&gt;Node8 -->
<g id="edge12" class="edge">
<title>Node5&#45;&gt;Node8</title>
<path fill="none" stroke="midnightblue" d="M425.87,-186.21C485.81,-171.73 563.01,-153.09 622.49,-138.72"/>
<polygon fill="midnightblue" stroke="midnightblue" points="424.92,-182.84 416.03,-188.59 426.57,-189.64 424.92,-182.84"/>
</g>
<!-- Node6&#45;&gt;Node3 -->
<g id="edge9" class="edge">
<title>Node6&#45;&gt;Node3</title>
<path fill="none" stroke="midnightblue" d="M152.78,-87.41C187.43,-75.86 227.5,-62.5 261,-51.33"/>
<polygon fill="midnightblue" stroke="midnightblue" points="151.54,-84.13 143.16,-90.61 153.76,-90.77 151.54,-84.13"/>
</g>
<!-- Node7&#45;&gt;Node3 -->
<g id="edge11" class="edge">
<title>Node7&#45;&gt;Node3</title>
<path fill="none" stroke="midnightblue" d="M269.11,-82.65C280.49,-72.75 292.87,-61.98 303.64,-52.61"/>
<polygon fill="midnightblue" stroke="midnightblue" points="266.67,-80.13 261.42,-89.34 271.27,-85.41 266.67,-80.13"/>
</g>
<!-- Node9 -->
<g id="node9" class="node">
<title>Node9</title>
<g id="a_node9"><a xlink:href="_radar_8h.html" target="_top" xlink:title="Header for ifxRadar.">
<polygon fill="white" stroke="black" points="643,-0.5 643,-52.5 786,-52.5 786,-0.5 643,-0.5"/>
<text text-anchor="start" x="651" y="-40.5" font-family="Helvetica,sans-Serif" font-size="10.00">/home/jenkins/jenkins</text>
<text text-anchor="start" x="651" y="-29.5" font-family="Helvetica,sans-Serif" font-size="10.00">&#45;ci/workspace/er_release</text>
<text text-anchor="start" x="651" y="-18.5" font-family="Helvetica,sans-Serif" font-size="10.00">_release&#45;branch&#45;v3.3.1@2</text>
<text text-anchor="middle" x="714.5" y="-7.5" font-family="Helvetica,sans-Serif" font-size="10.00">/sdk/c/ifxRadar/Radar.h</text>
</a>
</g>
</g>
<!-- Node8&#45;&gt;Node9 -->
<g id="edge13" class="edge">
<title>Node8&#45;&gt;Node9</title>
<path fill="none" stroke="midnightblue" d="M714.5,-79.19C714.5,-70.28 714.5,-60.9 714.5,-52.61"/>
<polygon fill="midnightblue" stroke="midnightblue" points="711,-79.34 714.5,-89.34 718,-79.34 711,-79.34"/>
</g>
<!-- Node12 -->
<g id="node12" class="node">
<title>Node12</title>
<g id="a_node12"><a xlink:href="_radar_segmentation_8h.html" target="_top" xlink:title="Header for ifxRadarSegmentation.">
<polygon fill="white" stroke="black" points="660.5,-178.5 660.5,-241.5 818.5,-241.5 818.5,-178.5 660.5,-178.5"/>
<text text-anchor="start" x="668.5" y="-229.5" font-family="Helvetica,sans-Serif" font-size="10.00">/home/jenkins/jenkins</text>
<text text-anchor="start" x="668.5" y="-218.5" font-family="Helvetica,sans-Serif" font-size="10.00">&#45;ci/workspace/er_release</text>
<text text-anchor="start" x="668.5" y="-207.5" font-family="Helvetica,sans-Serif" font-size="10.00">_release&#45;branch&#45;v3.3.1@2</text>
<text text-anchor="start" x="668.5" y="-196.5" font-family="Helvetica,sans-Serif" font-size="10.00">/sdk/c/ifxRadarSegmentation</text>
<text text-anchor="middle" x="739.5" y="-185.5" font-family="Helvetica,sans-Serif" font-size="10.00">/RadarSegmentation.h</text>
</a>
</g>
</g>
<!-- Node11&#45;&gt;Node12 -->
<g id="edge17" class="edge">
<title>Node11&#45;&gt;Node12</title>
<path fill="none" stroke="midnightblue" d="M739.5,-268.1C739.5,-259.24 739.5,-250.01 739.5,-241.63"/>
<polygon fill="midnightblue" stroke="midnightblue" points="736,-268.26 739.5,-278.26 743,-268.26 736,-268.26"/>
</g>
<!-- Node13&#45;&gt;Node5 -->
<g id="edge19" class="edge">
<title>Node13&#45;&gt;Node5</title>
<path fill="none" stroke="midnightblue" d="M406.96,-277.02C391.8,-263.76 374.47,-248.6 360.25,-236.15"/>
<polygon fill="midnightblue" stroke="midnightblue" points="404.83,-279.81 414.66,-283.76 409.44,-274.54 404.83,-279.81"/>
</g>
<!-- Node15 -->
<g id="node15" class="node">
<title>Node15</title>
<g id="a_node15"><a xlink:href="_doppler_l_t_r11_8h.html" target="_top" xlink:title="Main header file for ifxDopplerLTR11.">
<polygon fill="white" stroke="black" points="836.5,-284 836.5,-336 1044.5,-336 1044.5,-284 836.5,-284"/>
<text text-anchor="start" x="844.5" y="-324" font-family="Helvetica,sans-Serif" font-size="10.00">/home/jenkins/jenkins</text>
<text text-anchor="start" x="844.5" y="-313" font-family="Helvetica,sans-Serif" font-size="10.00">&#45;ci/workspace/er_release</text>
<text text-anchor="start" x="844.5" y="-302" font-family="Helvetica,sans-Serif" font-size="10.00">_release&#45;branch&#45;v3.3.1@2</text>
<text text-anchor="middle" x="940.5" y="-291" font-family="Helvetica,sans-Serif" font-size="10.00">/sdk/c/ifxDopplerLTR11/DopplerLTR11.h</text>
</a>
</g>
</g>
<!-- Node14&#45;&gt;Node15 -->
<g id="edge22" class="edge">
<title>Node14&#45;&gt;Node15</title>
<path fill="none" stroke="midnightblue" d="M883.18,-370.76C894.36,-359.1 906.36,-346.6 916.47,-336.05"/>
<polygon fill="midnightblue" stroke="midnightblue" points="880.38,-368.62 875.98,-378.26 885.43,-373.47 880.38,-368.62"/>
</g>
</g>
</svg>
