<?xml version="1.0" encoding="UTF-8" standalone="no"?>
<!DOCTYPE svg PUBLIC "-//W3C//DTD SVG 1.1//EN"
 "http://www.w3.org/Graphics/SVG/1.1/DTD/svg11.dtd">
<!-- Generated by graphviz version 2.43.0 (0)
 -->
<!-- Title: /home/jenkins/jenkins&#45;ci/workspace/er_release_release&#45;branch&#45;v3.3.1@2/sdk/c/ifxRadar/RangeDopplerMap.h Pages: 1 -->
<svg width="448pt" height="341pt"
 viewBox="0.00 0.00 448.32 341.00" xmlns="http://www.w3.org/2000/svg" xmlns:xlink="http://www.w3.org/1999/xlink">
<g id="graph0" class="graph" transform="scale(1 1) rotate(0) translate(4 337)">
<title>/home/jenkins/jenkins&#45;ci/workspace/er_release_release&#45;branch&#45;v3.3.1@2/sdk/c/ifxRadar/RangeDopplerMap.h</title>
<polygon fill="white" stroke="transparent" points="-4,4 -4,-337 444.32,-337 444.32,4 -4,4"/>
<!-- Node1 -->
<g id="node1" class="node">
<title>Node1</title>
<g id="a_node1"><a xlink:title="API for Range Doppler Map.">
<polygon fill="#bfbfbf" stroke="black" points="15.32,-280.5 15.32,-332.5 206.32,-332.5 206.32,-280.5 15.32,-280.5"/>
<text text-anchor="start" x="23.32" y="-320.5" font-family="Helvetica,sans-Serif" font-size="10.00">/home/jenkins/jenkins</text>
<text text-anchor="start" x="23.32" y="-309.5" font-family="Helvetica,sans-Serif" font-size="10.00">&#45;ci/workspace/er_release</text>
<text text-anchor="start" x="23.32" y="-298.5" font-family="Helvetica,sans-Serif" font-size="10.00">_release&#45;branch&#45;v3.3.1@2</text>
<text text-anchor="middle" x="110.82" y="-287.5" font-family="Helvetica,sans-Serif" font-size="10.00">/sdk/c/ifxRadar/RangeDopplerMap.h</text>
</a>
</g>
</g>
<!-- Node2 -->
<g id="node2" class="node">
<title>Node2</title>
<g id="a_node2"><a xlink:href="_preprocessed_f_f_t_8h.html" target="_top" xlink:title="API for Pre&#45;processed FFT.">
<polygon fill="white" stroke="black" points="38.32,-224.5 38.32,-243.5 183.32,-243.5 183.32,-224.5 38.32,-224.5"/>
<text text-anchor="middle" x="110.82" y="-231.5" font-family="Helvetica,sans-Serif" font-size="10.00">ifxAlgo/PreprocessedFFT.h</text>
</a>
</g>
</g>
<!-- Node1&#45;&gt;Node2 -->
<g id="edge1" class="edge">
<title>Node1&#45;&gt;Node2</title>
<path fill="none" stroke="midnightblue" d="M110.82,-280.45C110.82,-271.73 110.82,-262.1 110.82,-253.96"/>
<polygon fill="midnightblue" stroke="midnightblue" points="114.32,-253.7 110.82,-243.7 107.32,-253.7 114.32,-253.7"/>
</g>
<!-- Node4 -->
<g id="node4" class="node">
<title>Node4</title>
<g id="a_node4"><a xlink:href="ifx_base_2_types_8h.html" target="_top" xlink:title="Definitions of data types used within the SDK.">
<polygon fill="white" stroke="black" points="68.32,-56.5 68.32,-75.5 161.32,-75.5 161.32,-56.5 68.32,-56.5"/>
<text text-anchor="middle" x="114.82" y="-63.5" font-family="Helvetica,sans-Serif" font-size="10.00">ifxBase/Types.h</text>
</a>
</g>
</g>
<!-- Node1&#45;&gt;Node4 -->
<g id="edge16" class="edge">
<title>Node1&#45;&gt;Node4</title>
<path fill="none" stroke="midnightblue" d="M69.4,-280.39C34.3,-255.51 -8.8,-214.48 1.82,-168 7.97,-141.06 9.6,-131.86 28.82,-112 42.73,-97.63 62.23,-86.91 79.14,-79.54"/>
<polygon fill="midnightblue" stroke="midnightblue" points="80.83,-82.64 88.74,-75.59 78.16,-76.16 80.83,-82.64"/>
</g>
<!-- Node11 -->
<g id="node11" class="node">
<title>Node11</title>
<g id="a_node11"><a xlink:href="_matrix_8h.html" target="_top" xlink:title="API for operations on Matrix data structures.">
<polygon fill="white" stroke="black" points="343.32,-168.5 343.32,-187.5 440.32,-187.5 440.32,-168.5 343.32,-168.5"/>
<text text-anchor="middle" x="391.82" y="-175.5" font-family="Helvetica,sans-Serif" font-size="10.00">ifxBase/Matrix.h</text>
</a>
</g>
</g>
<!-- Node1&#45;&gt;Node11 -->
<g id="edge17" class="edge">
<title>Node1&#45;&gt;Node11</title>
<path fill="none" stroke="midnightblue" d="M166.67,-280.36C226.02,-253.64 317.49,-212.46 363.43,-191.78"/>
<polygon fill="midnightblue" stroke="midnightblue" points="365.09,-194.87 372.77,-187.57 362.22,-188.49 365.09,-194.87"/>
</g>
<!-- Node3 -->
<g id="node3" class="node">
<title>Node3</title>
<g id="a_node3"><a xlink:href="_f_f_t_8h.html" target="_top" xlink:title="API for Fast Fourier Transform (FFT)">
<polygon fill="white" stroke="black" points="16.82,-168.5 16.82,-187.5 96.82,-187.5 96.82,-168.5 16.82,-168.5"/>
<text text-anchor="middle" x="56.82" y="-175.5" font-family="Helvetica,sans-Serif" font-size="10.00">ifxAlgo/FFT.h</text>
</a>
</g>
</g>
<!-- Node2&#45;&gt;Node3 -->
<g id="edge2" class="edge">
<title>Node2&#45;&gt;Node3</title>
<path fill="none" stroke="midnightblue" d="M101.9,-224.08C94.03,-216.22 82.38,-204.57 72.9,-195.08"/>
<polygon fill="midnightblue" stroke="midnightblue" points="75.11,-192.35 65.57,-187.75 70.16,-197.3 75.11,-192.35"/>
</g>
<!-- Node2&#45;&gt;Node4 -->
<g id="edge12" class="edge">
<title>Node2&#45;&gt;Node4</title>
<path fill="none" stroke="midnightblue" d="M68.32,-224.42C34.56,-215.24 -5.04,-197.8 7.82,-168 24.64,-128.97 64.8,-98.01 90.85,-81.12"/>
<polygon fill="midnightblue" stroke="midnightblue" points="92.8,-84.02 99.41,-75.74 89.08,-78.09 92.8,-84.02"/>
</g>
<!-- Node9 -->
<g id="node9" class="node">
<title>Node9</title>
<g id="a_node9"><a xlink:href="_window_8h.html" target="_top" xlink:title="API for Window function processing.">
<polygon fill="white" stroke="black" points="115.32,-168.5 115.32,-187.5 216.32,-187.5 216.32,-168.5 115.32,-168.5"/>
<text text-anchor="middle" x="165.82" y="-175.5" font-family="Helvetica,sans-Serif" font-size="10.00">ifxAlgo/Window.h</text>
</a>
</g>
</g>
<!-- Node2&#45;&gt;Node9 -->
<g id="edge9" class="edge">
<title>Node2&#45;&gt;Node9</title>
<path fill="none" stroke="midnightblue" d="M119.9,-224.08C127.99,-216.14 140.01,-204.34 149.73,-194.8"/>
<polygon fill="midnightblue" stroke="midnightblue" points="152.22,-197.25 156.9,-187.75 147.31,-192.26 152.22,-197.25"/>
</g>
<!-- Node10 -->
<g id="node10" class="node">
<title>Node10</title>
<g id="a_node10"><a xlink:href="_math_8h.html" target="_top" xlink:title="API for Mathematical operations.">
<polygon fill="white" stroke="black" points="234.82,-168.5 234.82,-187.5 324.82,-187.5 324.82,-168.5 234.82,-168.5"/>
<text text-anchor="middle" x="279.82" y="-175.5" font-family="Helvetica,sans-Serif" font-size="10.00">ifxBase/Math.h</text>
</a>
</g>
</g>
<!-- Node2&#45;&gt;Node10 -->
<g id="edge13" class="edge">
<title>Node2&#45;&gt;Node10</title>
<path fill="none" stroke="midnightblue" d="M137.59,-224.44C166.15,-215.32 211.55,-200.81 243.35,-190.65"/>
<polygon fill="midnightblue" stroke="midnightblue" points="244.7,-193.89 253.16,-187.52 242.57,-187.23 244.7,-193.89"/>
</g>
<!-- Node3&#45;&gt;Node4 -->
<g id="edge3" class="edge">
<title>Node3&#45;&gt;Node4</title>
<path fill="none" stroke="midnightblue" d="M61.37,-168.37C70.85,-150.38 92.91,-108.55 105.52,-84.63"/>
<polygon fill="midnightblue" stroke="midnightblue" points="108.72,-86.07 110.29,-75.59 102.53,-82.8 108.72,-86.07"/>
</g>
<!-- Node8 -->
<g id="node8" class="node">
<title>Node8</title>
<g id="a_node8"><a xlink:href="_vector_8h.html" target="_top" xlink:title="API for operations on Vector data structures.">
<polygon fill="white" stroke="black" points="143.32,-112.5 143.32,-131.5 238.32,-131.5 238.32,-112.5 143.32,-112.5"/>
<text text-anchor="middle" x="190.82" y="-119.5" font-family="Helvetica,sans-Serif" font-size="10.00">ifxBase/Vector.h</text>
</a>
</g>
</g>
<!-- Node3&#45;&gt;Node8 -->
<g id="edge7" class="edge">
<title>Node3&#45;&gt;Node8</title>
<path fill="none" stroke="midnightblue" d="M78.05,-168.44C100.2,-159.52 135.13,-145.44 160.25,-135.32"/>
<polygon fill="midnightblue" stroke="midnightblue" points="161.72,-138.5 169.68,-131.52 159.1,-132.01 161.72,-138.5"/>
</g>
<!-- Node5 -->
<g id="node5" class="node">
<title>Node5</title>
<g id="a_node5"><a xlink:title=" ">
<polygon fill="white" stroke="#bfbfbf" points="15.32,-0.5 15.32,-19.5 68.32,-19.5 68.32,-0.5 15.32,-0.5"/>
<text text-anchor="middle" x="41.82" y="-7.5" font-family="Helvetica,sans-Serif" font-size="10.00">stdint.h</text>
</a>
</g>
</g>
<!-- Node4&#45;&gt;Node5 -->
<g id="edge4" class="edge">
<title>Node4&#45;&gt;Node5</title>
<path fill="none" stroke="midnightblue" d="M103.09,-56.32C91.98,-48.11 75.07,-35.6 61.83,-25.81"/>
<polygon fill="midnightblue" stroke="midnightblue" points="63.88,-22.97 53.76,-19.83 59.72,-28.59 63.88,-22.97"/>
</g>
<!-- Node6 -->
<g id="node6" class="node">
<title>Node6</title>
<g id="a_node6"><a xlink:title=" ">
<polygon fill="white" stroke="#bfbfbf" points="86.82,-0.5 86.82,-19.5 142.82,-19.5 142.82,-0.5 86.82,-0.5"/>
<text text-anchor="middle" x="114.82" y="-7.5" font-family="Helvetica,sans-Serif" font-size="10.00">stddef.h</text>
</a>
</g>
</g>
<!-- Node4&#45;&gt;Node6 -->
<g id="edge5" class="edge">
<title>Node4&#45;&gt;Node6</title>
<path fill="none" stroke="midnightblue" d="M114.82,-56.08C114.82,-49.01 114.82,-38.86 114.82,-29.99"/>
<polygon fill="midnightblue" stroke="midnightblue" points="118.32,-29.75 114.82,-19.75 111.32,-29.75 118.32,-29.75"/>
</g>
<!-- Node7 -->
<g id="node7" class="node">
<title>Node7</title>
<g id="a_node7"><a xlink:title=" ">
<polygon fill="white" stroke="#bfbfbf" points="160.82,-0.5 160.82,-19.5 222.82,-19.5 222.82,-0.5 160.82,-0.5"/>
<text text-anchor="middle" x="191.82" y="-7.5" font-family="Helvetica,sans-Serif" font-size="10.00">stdbool.h</text>
</a>
</g>
</g>
<!-- Node4&#45;&gt;Node7 -->
<g id="edge6" class="edge">
<title>Node4&#45;&gt;Node7</title>
<path fill="none" stroke="midnightblue" d="M127.19,-56.32C138.97,-48.06 156.95,-35.45 170.95,-25.63"/>
<polygon fill="midnightblue" stroke="midnightblue" points="173.3,-28.26 179.47,-19.65 169.28,-22.53 173.3,-28.26"/>
</g>
<!-- Node8&#45;&gt;Node4 -->
<g id="edge8" class="edge">
<title>Node8&#45;&gt;Node4</title>
<path fill="none" stroke="midnightblue" d="M178.6,-112.32C167.04,-104.11 149.44,-91.6 135.65,-81.81"/>
<polygon fill="midnightblue" stroke="midnightblue" points="137.43,-78.77 127.25,-75.83 133.37,-84.48 137.43,-78.77"/>
</g>
<!-- Node9&#45;&gt;Node4 -->
<g id="edge10" class="edge">
<title>Node9&#45;&gt;Node4</title>
<path fill="none" stroke="midnightblue" d="M158.54,-168.2C151.62,-159.47 141.35,-145.49 134.82,-132 127.58,-117.06 122.26,-98.92 118.93,-85.6"/>
<polygon fill="midnightblue" stroke="midnightblue" points="122.31,-84.66 116.61,-75.73 115.49,-86.26 122.31,-84.66"/>
</g>
<!-- Node9&#45;&gt;Node8 -->
<g id="edge11" class="edge">
<title>Node9&#45;&gt;Node8</title>
<path fill="none" stroke="midnightblue" d="M169.94,-168.08C173.33,-160.77 178.23,-150.18 182.43,-141.1"/>
<polygon fill="midnightblue" stroke="midnightblue" points="185.74,-142.3 186.76,-131.75 179.39,-139.36 185.74,-142.3"/>
</g>
<!-- Node10&#45;&gt;Node4 -->
<g id="edge14" class="edge">
<title>Node10&#45;&gt;Node4</title>
<path fill="none" stroke="midnightblue" d="M277.78,-168.09C274.14,-154.16 265.22,-127.26 247.82,-112 226.54,-93.35 197.21,-82.36 171.5,-75.92"/>
<polygon fill="midnightblue" stroke="midnightblue" points="172.02,-72.44 161.49,-73.58 170.43,-79.26 172.02,-72.44"/>
</g>
<!-- Node10&#45;&gt;Node8 -->
<g id="edge15" class="edge">
<title>Node10&#45;&gt;Node8</title>
<path fill="none" stroke="midnightblue" d="M265.52,-168.32C251.63,-159.9 230.32,-146.97 214.01,-137.07"/>
<polygon fill="midnightblue" stroke="midnightblue" points="215.44,-133.85 205.08,-131.65 211.81,-139.83 215.44,-133.85"/>
</g>
<!-- Node11&#45;&gt;Node4 -->
<g id="edge18" class="edge">
<title>Node11&#45;&gt;Node4</title>
<path fill="none" stroke="midnightblue" d="M377.87,-168.43C355.52,-154.97 310,-128.7 268.82,-112 233.8,-97.8 192.64,-86.01 161.69,-78.07"/>
<polygon fill="midnightblue" stroke="midnightblue" points="162.17,-74.58 151.61,-75.52 160.45,-81.37 162.17,-74.58"/>
</g>
<!-- Node11&#45;&gt;Node8 -->
<g id="edge19" class="edge">
<title>Node11&#45;&gt;Node8</title>
<path fill="none" stroke="midnightblue" d="M359.97,-168.44C325.42,-159.16 270.13,-144.31 232.23,-134.13"/>
<polygon fill="midnightblue" stroke="midnightblue" points="233.08,-130.73 222.52,-131.52 231.26,-137.49 233.08,-130.73"/>
</g>
</g>
</svg>
