<?xml version="1.0" encoding="UTF-8" standalone="no"?>
<!DOCTYPE svg PUBLIC "-//W3C//DTD SVG 1.1//EN"
 "http://www.w3.org/Graphics/SVG/1.1/DTD/svg11.dtd">
<!-- Generated by graphviz version 2.43.0 (0)
 -->
<!-- Title: /home/jenkins/jenkins&#45;ci/workspace/er_release_release&#45;branch&#45;v3.3.1@2/sdk/c/ifxRadar/RangeAngleImage.h Pages: 1 -->
<svg width="487pt" height="453pt"
 viewBox="0.00 0.00 487.00 453.00" xmlns="http://www.w3.org/2000/svg" xmlns:xlink="http://www.w3.org/1999/xlink">
<g id="graph0" class="graph" transform="scale(1 1) rotate(0) translate(4 449)">
<title>/home/jenkins/jenkins&#45;ci/workspace/er_release_release&#45;branch&#45;v3.3.1@2/sdk/c/ifxRadar/RangeAngleImage.h</title>
<polygon fill="white" stroke="transparent" points="-4,4 -4,-449 483,-449 483,4 -4,4"/>
<!-- Node1 -->
<g id="node1" class="node">
<title>Node1</title>
<g id="a_node1"><a xlink:title="API for Range Angle Image algorithm.">
<polygon fill="#bfbfbf" stroke="black" points="90.5,-392.5 90.5,-444.5 281.5,-444.5 281.5,-392.5 90.5,-392.5"/>
<text text-anchor="start" x="98.5" y="-432.5" font-family="Helvetica,sans-Serif" font-size="10.00">/home/jenkins/jenkins</text>
<text text-anchor="start" x="98.5" y="-421.5" font-family="Helvetica,sans-Serif" font-size="10.00">&#45;ci/workspace/er_release</text>
<text text-anchor="start" x="98.5" y="-410.5" font-family="Helvetica,sans-Serif" font-size="10.00">_release&#45;branch&#45;v3.3.1@2</text>
<text text-anchor="middle" x="186" y="-399.5" font-family="Helvetica,sans-Serif" font-size="10.00">/sdk/c/ifxRadar/RangeAngleImage.h</text>
</a>
</g>
</g>
<!-- Node2 -->
<g id="node2" class="node">
<title>Node2</title>
<g id="a_node2"><a xlink:href="ifx_base_2_types_8h.html" target="_top" xlink:title="Definitions of data types used within the SDK.">
<polygon fill="white" stroke="black" points="167.5,-56.5 167.5,-75.5 260.5,-75.5 260.5,-56.5 167.5,-56.5"/>
<text text-anchor="middle" x="214" y="-63.5" font-family="Helvetica,sans-Serif" font-size="10.00">ifxBase/Types.h</text>
</a>
</g>
</g>
<!-- Node1&#45;&gt;Node2 -->
<g id="edge1" class="edge">
<title>Node1&#45;&gt;Node2</title>
<path fill="none" stroke="midnightblue" d="M94.63,-392.41C47.6,-373.35 0,-341.57 0,-291 0,-291 0,-291 0,-177 0,-106.27 93.62,-80.98 157.02,-71.97"/>
<polygon fill="midnightblue" stroke="midnightblue" points="157.85,-75.39 167.3,-70.61 156.93,-68.45 157.85,-75.39"/>
</g>
<!-- Node6 -->
<g id="node6" class="node">
<title>Node6</title>
<g id="a_node6"><a xlink:href="_cube_8h.html" target="_top" xlink:title="API for operations on Cube data structures.">
<polygon fill="white" stroke="black" points="241,-280.5 241,-299.5 331,-299.5 331,-280.5 241,-280.5"/>
<text text-anchor="middle" x="286" y="-287.5" font-family="Helvetica,sans-Serif" font-size="10.00">ifxBase/Cube.h</text>
</a>
</g>
</g>
<!-- Node1&#45;&gt;Node6 -->
<g id="edge5" class="edge">
<title>Node1&#45;&gt;Node6</title>
<path fill="none" stroke="midnightblue" d="M197.74,-392.18C206.22,-375.32 218.67,-353.19 233,-336 242.42,-324.7 254.88,-313.96 265.36,-305.81"/>
<polygon fill="midnightblue" stroke="midnightblue" points="267.7,-308.43 273.58,-299.61 263.48,-302.84 267.7,-308.43"/>
</g>
<!-- Node11 -->
<g id="node11" class="node">
<title>Node11</title>
<g id="a_node11"><a xlink:href="_d_b_f_8h.html" target="_top" xlink:title="API for Digital Beamforming (DBF) algorithm.">
<polygon fill="white" stroke="black" points="241.5,-336.5 241.5,-355.5 330.5,-355.5 330.5,-336.5 241.5,-336.5"/>
<text text-anchor="middle" x="286" y="-343.5" font-family="Helvetica,sans-Serif" font-size="10.00">ifxRadar/DBF.h</text>
</a>
</g>
</g>
<!-- Node1&#45;&gt;Node11 -->
<g id="edge14" class="edge">
<title>Node1&#45;&gt;Node11</title>
<path fill="none" stroke="midnightblue" d="M221.54,-392.45C236.17,-382.13 252.62,-370.53 265.24,-361.64"/>
<polygon fill="midnightblue" stroke="midnightblue" points="267.51,-364.32 273.67,-355.7 263.48,-358.6 267.51,-364.32"/>
</g>
<!-- Node12 -->
<g id="node12" class="node">
<title>Node12</title>
<g id="a_node12"><a xlink:href="_range_doppler_map_8h.html" target="_top" xlink:title="API for Range Doppler Map.">
<polygon fill="white" stroke="black" points="63,-280.5 63,-299.5 223,-299.5 223,-280.5 63,-280.5"/>
<text text-anchor="middle" x="143" y="-287.5" font-family="Helvetica,sans-Serif" font-size="10.00">ifxRadar/RangeDopplerMap.h</text>
</a>
</g>
</g>
<!-- Node1&#45;&gt;Node12 -->
<g id="edge17" class="edge">
<title>Node1&#45;&gt;Node12</title>
<path fill="none" stroke="midnightblue" d="M177.4,-392.2C169.06,-367.66 156.6,-331 149.19,-309.2"/>
<polygon fill="midnightblue" stroke="midnightblue" points="152.44,-307.89 145.91,-299.55 145.81,-310.14 152.44,-307.89"/>
</g>
<!-- Node3 -->
<g id="node3" class="node">
<title>Node3</title>
<g id="a_node3"><a xlink:title=" ">
<polygon fill="white" stroke="#bfbfbf" points="114.5,-0.5 114.5,-19.5 167.5,-19.5 167.5,-0.5 114.5,-0.5"/>
<text text-anchor="middle" x="141" y="-7.5" font-family="Helvetica,sans-Serif" font-size="10.00">stdint.h</text>
</a>
</g>
</g>
<!-- Node2&#45;&gt;Node3 -->
<g id="edge2" class="edge">
<title>Node2&#45;&gt;Node3</title>
<path fill="none" stroke="midnightblue" d="M202.27,-56.32C191.16,-48.11 174.26,-35.6 161.02,-25.81"/>
<polygon fill="midnightblue" stroke="midnightblue" points="163.06,-22.97 152.94,-19.83 158.9,-28.59 163.06,-22.97"/>
</g>
<!-- Node4 -->
<g id="node4" class="node">
<title>Node4</title>
<g id="a_node4"><a xlink:title=" ">
<polygon fill="white" stroke="#bfbfbf" points="186,-0.5 186,-19.5 242,-19.5 242,-0.5 186,-0.5"/>
<text text-anchor="middle" x="214" y="-7.5" font-family="Helvetica,sans-Serif" font-size="10.00">stddef.h</text>
</a>
</g>
</g>
<!-- Node2&#45;&gt;Node4 -->
<g id="edge3" class="edge">
<title>Node2&#45;&gt;Node4</title>
<path fill="none" stroke="midnightblue" d="M214,-56.08C214,-49.01 214,-38.86 214,-29.99"/>
<polygon fill="midnightblue" stroke="midnightblue" points="217.5,-29.75 214,-19.75 210.5,-29.75 217.5,-29.75"/>
</g>
<!-- Node5 -->
<g id="node5" class="node">
<title>Node5</title>
<g id="a_node5"><a xlink:title=" ">
<polygon fill="white" stroke="#bfbfbf" points="260,-0.5 260,-19.5 322,-19.5 322,-0.5 260,-0.5"/>
<text text-anchor="middle" x="291" y="-7.5" font-family="Helvetica,sans-Serif" font-size="10.00">stdbool.h</text>
</a>
</g>
</g>
<!-- Node2&#45;&gt;Node5 -->
<g id="edge4" class="edge">
<title>Node2&#45;&gt;Node5</title>
<path fill="none" stroke="midnightblue" d="M226.37,-56.32C238.16,-48.06 256.13,-35.45 270.14,-25.63"/>
<polygon fill="midnightblue" stroke="midnightblue" points="272.48,-28.26 278.66,-19.65 268.46,-22.53 272.48,-28.26"/>
</g>
<!-- Node7 -->
<g id="node7" class="node">
<title>Node7</title>
<g id="a_node7"><a xlink:href="_defines_8h.html" target="_top" xlink:title="Internal definitions used by standard math.h functions as Macros, to use float or double precision.">
<polygon fill="white" stroke="black" points="349,-224.5 349,-243.5 451,-243.5 451,-224.5 349,-224.5"/>
<text text-anchor="middle" x="400" y="-231.5" font-family="Helvetica,sans-Serif" font-size="10.00">ifxBase/Defines.h</text>
</a>
</g>
</g>
<!-- Node6&#45;&gt;Node7 -->
<g id="edge6" class="edge">
<title>Node6&#45;&gt;Node7</title>
<path fill="none" stroke="midnightblue" d="M304.06,-280.44C322.57,-271.68 351.58,-257.94 372.86,-247.86"/>
<polygon fill="midnightblue" stroke="midnightblue" points="374.48,-250.96 382.02,-243.52 371.49,-244.63 374.48,-250.96"/>
</g>
<!-- Node10 -->
<g id="node10" class="node">
<title>Node10</title>
<g id="a_node10"><a xlink:href="_matrix_8h.html" target="_top" xlink:title="API for operations on Matrix data structures.">
<polygon fill="white" stroke="black" points="233.5,-224.5 233.5,-243.5 330.5,-243.5 330.5,-224.5 233.5,-224.5"/>
<text text-anchor="middle" x="282" y="-231.5" font-family="Helvetica,sans-Serif" font-size="10.00">ifxBase/Matrix.h</text>
</a>
</g>
</g>
<!-- Node6&#45;&gt;Node10 -->
<g id="edge11" class="edge">
<title>Node6&#45;&gt;Node10</title>
<path fill="none" stroke="midnightblue" d="M285.34,-280.08C284.82,-273.01 284.06,-262.86 283.41,-253.99"/>
<polygon fill="midnightblue" stroke="midnightblue" points="286.88,-253.47 282.65,-243.75 279.9,-253.98 286.88,-253.47"/>
</g>
<!-- Node8 -->
<g id="node8" class="node">
<title>Node8</title>
<g id="a_node8"><a xlink:href="_math_8h.html" target="_top" xlink:title="API for Mathematical operations.">
<polygon fill="white" stroke="black" points="360.5,-168.5 360.5,-187.5 411.5,-187.5 411.5,-168.5 360.5,-168.5"/>
<text text-anchor="middle" x="386" y="-175.5" font-family="Helvetica,sans-Serif" font-size="10.00">math.h</text>
</a>
</g>
</g>
<!-- Node7&#45;&gt;Node8 -->
<g id="edge7" class="edge">
<title>Node7&#45;&gt;Node8</title>
<path fill="none" stroke="midnightblue" d="M397.69,-224.08C395.83,-216.93 393.16,-206.64 390.85,-197.69"/>
<polygon fill="midnightblue" stroke="midnightblue" points="394.17,-196.55 388.27,-187.75 387.39,-198.31 394.17,-196.55"/>
</g>
<!-- Node8&#45;&gt;Node2 -->
<g id="edge8" class="edge">
<title>Node8&#45;&gt;Node2</title>
<path fill="none" stroke="midnightblue" d="M382.95,-168.07C377.75,-154.13 365.85,-127.19 347,-112 325.13,-94.38 296.01,-83.5 270.59,-76.87"/>
<polygon fill="midnightblue" stroke="midnightblue" points="271.24,-73.43 260.69,-74.45 269.58,-80.23 271.24,-73.43"/>
</g>
<!-- Node9 -->
<g id="node9" class="node">
<title>Node9</title>
<g id="a_node9"><a xlink:href="_vector_8h.html" target="_top" xlink:title="API for operations on Vector data structures.">
<polygon fill="white" stroke="black" points="242.5,-112.5 242.5,-131.5 337.5,-131.5 337.5,-112.5 242.5,-112.5"/>
<text text-anchor="middle" x="290" y="-119.5" font-family="Helvetica,sans-Serif" font-size="10.00">ifxBase/Vector.h</text>
</a>
</g>
</g>
<!-- Node8&#45;&gt;Node9 -->
<g id="edge9" class="edge">
<title>Node8&#45;&gt;Node9</title>
<path fill="none" stroke="midnightblue" d="M370.58,-168.32C355.46,-159.82 332.18,-146.73 314.53,-136.8"/>
<polygon fill="midnightblue" stroke="midnightblue" points="315.82,-133.51 305.39,-131.65 312.39,-139.61 315.82,-133.51"/>
</g>
<!-- Node9&#45;&gt;Node2 -->
<g id="edge10" class="edge">
<title>Node9&#45;&gt;Node2</title>
<path fill="none" stroke="midnightblue" d="M277.79,-112.32C266.22,-104.11 248.62,-91.6 234.84,-81.81"/>
<polygon fill="midnightblue" stroke="midnightblue" points="236.61,-78.77 226.43,-75.83 232.56,-84.48 236.61,-78.77"/>
</g>
<!-- Node10&#45;&gt;Node2 -->
<g id="edge12" class="edge">
<title>Node10&#45;&gt;Node2</title>
<path fill="none" stroke="midnightblue" d="M326.57,-224.47C362.78,-216.53 409.66,-203.59 421,-188 426.23,-180.81 424.25,-176.27 421,-168 397.79,-108.91 323.75,-84.26 270.86,-74.07"/>
<polygon fill="midnightblue" stroke="midnightblue" points="271.38,-70.61 260.91,-72.27 270.13,-77.49 271.38,-70.61"/>
</g>
<!-- Node10&#45;&gt;Node9 -->
<g id="edge13" class="edge">
<title>Node10&#45;&gt;Node9</title>
<path fill="none" stroke="midnightblue" d="M290.48,-224.23C298.05,-215.75 308.6,-202.13 313,-188 318.09,-171.63 310.29,-153.23 302.42,-140.2"/>
<polygon fill="midnightblue" stroke="midnightblue" points="305.29,-138.19 296.87,-131.76 299.44,-142.04 305.29,-138.19"/>
</g>
<!-- Node11&#45;&gt;Node2 -->
<g id="edge15" class="edge">
<title>Node11&#45;&gt;Node2</title>
<path fill="none" stroke="midnightblue" d="M330.76,-339.37C387.78,-329.42 479,-302.88 479,-235 479,-235 479,-235 479,-177 479,-87.61 348.8,-69.49 270.92,-66.65"/>
<polygon fill="midnightblue" stroke="midnightblue" points="270.86,-63.14 260.77,-66.35 270.66,-70.14 270.86,-63.14"/>
</g>
<!-- Node11&#45;&gt;Node6 -->
<g id="edge16" class="edge">
<title>Node11&#45;&gt;Node6</title>
<path fill="none" stroke="midnightblue" d="M286,-336.08C286,-329.01 286,-318.86 286,-309.99"/>
<polygon fill="midnightblue" stroke="midnightblue" points="289.5,-309.75 286,-299.75 282.5,-309.75 289.5,-309.75"/>
</g>
<!-- Node12&#45;&gt;Node2 -->
<g id="edge27" class="edge">
<title>Node12&#45;&gt;Node2</title>
<path fill="none" stroke="midnightblue" d="M111.19,-280.38C93.05,-273.66 71.84,-262.31 61,-244 56.47,-236.35 58.99,-232.66 61,-224 73.55,-169.98 76.28,-150.7 116,-112 131.64,-96.76 153.38,-86.06 172.41,-78.94"/>
<polygon fill="midnightblue" stroke="midnightblue" points="173.8,-82.16 182.07,-75.53 171.47,-75.55 173.8,-82.16"/>
</g>
<!-- Node12&#45;&gt;Node10 -->
<g id="edge28" class="edge">
<title>Node12&#45;&gt;Node10</title>
<path fill="none" stroke="midnightblue" d="M165.02,-280.44C188.1,-271.48 224.56,-257.31 250.64,-247.18"/>
<polygon fill="midnightblue" stroke="midnightblue" points="252.02,-250.4 260.08,-243.52 249.49,-243.88 252.02,-250.4"/>
</g>
<!-- Node13 -->
<g id="node13" class="node">
<title>Node13</title>
<g id="a_node13"><a xlink:href="_preprocessed_f_f_t_8h.html" target="_top" xlink:title="API for Pre&#45;processed FFT.">
<polygon fill="white" stroke="black" points="70.5,-224.5 70.5,-243.5 215.5,-243.5 215.5,-224.5 70.5,-224.5"/>
<text text-anchor="middle" x="143" y="-231.5" font-family="Helvetica,sans-Serif" font-size="10.00">ifxAlgo/PreprocessedFFT.h</text>
</a>
</g>
</g>
<!-- Node12&#45;&gt;Node13 -->
<g id="edge18" class="edge">
<title>Node12&#45;&gt;Node13</title>
<path fill="none" stroke="midnightblue" d="M143,-280.08C143,-273.01 143,-262.86 143,-253.99"/>
<polygon fill="midnightblue" stroke="midnightblue" points="146.5,-253.75 143,-243.75 139.5,-253.75 146.5,-253.75"/>
</g>
<!-- Node13&#45;&gt;Node2 -->
<g id="edge25" class="edge">
<title>Node13&#45;&gt;Node2</title>
<path fill="none" stroke="midnightblue" d="M128.83,-224.49C111.21,-212.73 84.63,-190.41 95,-168 113.9,-127.17 158.34,-96.82 187.24,-80.53"/>
<polygon fill="midnightblue" stroke="midnightblue" points="188.92,-83.6 196.03,-75.74 185.57,-77.45 188.92,-83.6"/>
</g>
<!-- Node13&#45;&gt;Node8 -->
<g id="edge26" class="edge">
<title>Node13&#45;&gt;Node8</title>
<path fill="none" stroke="midnightblue" d="M181.5,-224.44C227.94,-214.12 305.35,-196.92 350.43,-186.9"/>
<polygon fill="midnightblue" stroke="midnightblue" points="351.35,-190.29 360.35,-184.7 349.83,-183.45 351.35,-190.29"/>
</g>
<!-- Node14 -->
<g id="node14" class="node">
<title>Node14</title>
<g id="a_node14"><a xlink:href="_f_f_t_8h.html" target="_top" xlink:title="API for Fast Fourier Transform (FFT)">
<polygon fill="white" stroke="black" points="104,-168.5 104,-187.5 184,-187.5 184,-168.5 104,-168.5"/>
<text text-anchor="middle" x="144" y="-175.5" font-family="Helvetica,sans-Serif" font-size="10.00">ifxAlgo/FFT.h</text>
</a>
</g>
</g>
<!-- Node13&#45;&gt;Node14 -->
<g id="edge19" class="edge">
<title>Node13&#45;&gt;Node14</title>
<path fill="none" stroke="midnightblue" d="M143.17,-224.08C143.3,-217.01 143.48,-206.86 143.65,-197.99"/>
<polygon fill="midnightblue" stroke="midnightblue" points="147.15,-197.81 143.84,-187.75 140.15,-197.68 147.15,-197.81"/>
</g>
<!-- Node15 -->
<g id="node15" class="node">
<title>Node15</title>
<g id="a_node15"><a xlink:href="_window_8h.html" target="_top" xlink:title="API for Window function processing.">
<polygon fill="white" stroke="black" points="202.5,-168.5 202.5,-187.5 303.5,-187.5 303.5,-168.5 202.5,-168.5"/>
<text text-anchor="middle" x="253" y="-175.5" font-family="Helvetica,sans-Serif" font-size="10.00">ifxAlgo/Window.h</text>
</a>
</g>
</g>
<!-- Node13&#45;&gt;Node15 -->
<g id="edge22" class="edge">
<title>Node13&#45;&gt;Node15</title>
<path fill="none" stroke="midnightblue" d="M160.67,-224.32C178.39,-215.62 205.9,-202.12 226.29,-192.11"/>
<polygon fill="midnightblue" stroke="midnightblue" points="227.94,-195.2 235.37,-187.65 224.85,-188.92 227.94,-195.2"/>
</g>
<!-- Node14&#45;&gt;Node2 -->
<g id="edge20" class="edge">
<title>Node14&#45;&gt;Node2</title>
<path fill="none" stroke="midnightblue" d="M149.49,-168.37C160.99,-150.3 187.8,-108.18 202.99,-84.31"/>
<polygon fill="midnightblue" stroke="midnightblue" points="206.12,-85.91 208.53,-75.59 200.21,-82.15 206.12,-85.91"/>
</g>
<!-- Node14&#45;&gt;Node9 -->
<g id="edge21" class="edge">
<title>Node14&#45;&gt;Node9</title>
<path fill="none" stroke="midnightblue" d="M167.13,-168.44C191.48,-159.44 230.01,-145.19 257.42,-135.05"/>
<polygon fill="midnightblue" stroke="midnightblue" points="258.81,-138.27 266.97,-131.52 256.38,-131.7 258.81,-138.27"/>
</g>
<!-- Node15&#45;&gt;Node2 -->
<g id="edge23" class="edge">
<title>Node15&#45;&gt;Node2</title>
<path fill="none" stroke="midnightblue" d="M249.1,-168.48C245.06,-159.5 238.7,-144.91 234,-132 228.32,-116.4 222.85,-98.32 219.07,-85.2"/>
<polygon fill="midnightblue" stroke="midnightblue" points="222.41,-84.17 216.32,-75.5 215.68,-86.08 222.41,-84.17"/>
</g>
<!-- Node15&#45;&gt;Node9 -->
<g id="edge24" class="edge">
<title>Node15&#45;&gt;Node9</title>
<path fill="none" stroke="midnightblue" d="M259.11,-168.08C264.28,-160.53 271.85,-149.49 278.19,-140.23"/>
<polygon fill="midnightblue" stroke="midnightblue" points="281.24,-141.98 284,-131.75 275.46,-138.02 281.24,-141.98"/>
</g>
</g>
</svg>
