<?xml version="1.0" encoding="UTF-8" standalone="no"?>
<!DOCTYPE svg PUBLIC "-//W3C//DTD SVG 1.1//EN"
 "http://www.w3.org/Graphics/SVG/1.1/DTD/svg11.dtd">
<!-- Generated by graphviz version 2.43.0 (0)
 -->
<!-- Title: /home/jenkins/jenkins&#45;ci/workspace/er_release_release&#45;branch&#45;v3.3.1@2/sdk/c/ifxRadar/RangeSpectrum.h Pages: 1 -->
<svg width="493pt" height="341pt"
 viewBox="0.00 0.00 493.25 341.00" xmlns="http://www.w3.org/2000/svg" xmlns:xlink="http://www.w3.org/1999/xlink">
<g id="graph0" class="graph" transform="scale(1 1) rotate(0) translate(4 337)">
<title>/home/jenkins/jenkins&#45;ci/workspace/er_release_release&#45;branch&#45;v3.3.1@2/sdk/c/ifxRadar/RangeSpectrum.h</title>
<polygon fill="white" stroke="transparent" points="-4,4 -4,-337 489.25,-337 489.25,4 -4,4"/>
<!-- Node1 -->
<g id="node1" class="node">
<title>Node1</title>
<g id="a_node1"><a xlink:title="API for Range Spectrum.">
<polygon fill="#bfbfbf" stroke="black" points="191.25,-280.5 191.25,-332.5 370.25,-332.5 370.25,-280.5 191.25,-280.5"/>
<text text-anchor="start" x="199.25" y="-320.5" font-family="Helvetica,sans-Serif" font-size="10.00">/home/jenkins/jenkins</text>
<text text-anchor="start" x="199.25" y="-309.5" font-family="Helvetica,sans-Serif" font-size="10.00">&#45;ci/workspace/er_release</text>
<text text-anchor="start" x="199.25" y="-298.5" font-family="Helvetica,sans-Serif" font-size="10.00">_release&#45;branch&#45;v3.3.1@2</text>
<text text-anchor="middle" x="280.75" y="-287.5" font-family="Helvetica,sans-Serif" font-size="10.00">/sdk/c/ifxRadar/RangeSpectrum.h</text>
</a>
</g>
</g>
<!-- Node2 -->
<g id="node2" class="node">
<title>Node2</title>
<g id="a_node2"><a xlink:href="_preprocessed_f_f_t_8h.html" target="_top" xlink:title="API for Pre&#45;processed FFT.">
<polygon fill="white" stroke="black" points="99.25,-224.5 99.25,-243.5 244.25,-243.5 244.25,-224.5 99.25,-224.5"/>
<text text-anchor="middle" x="171.75" y="-231.5" font-family="Helvetica,sans-Serif" font-size="10.00">ifxAlgo/PreprocessedFFT.h</text>
</a>
</g>
</g>
<!-- Node1&#45;&gt;Node2 -->
<g id="edge1" class="edge">
<title>Node1&#45;&gt;Node2</title>
<path fill="none" stroke="midnightblue" d="M242.01,-280.45C225.81,-269.96 207.56,-258.16 193.73,-249.22"/>
<polygon fill="midnightblue" stroke="midnightblue" points="195.23,-246.02 184.93,-243.53 191.43,-251.9 195.23,-246.02"/>
</g>
<!-- Node4 -->
<g id="node4" class="node">
<title>Node4</title>
<g id="a_node4"><a xlink:href="ifx_base_2_types_8h.html" target="_top" xlink:title="Definitions of data types used within the SDK.">
<polygon fill="white" stroke="black" points="82.25,-56.5 82.25,-75.5 175.25,-75.5 175.25,-56.5 82.25,-56.5"/>
<text text-anchor="middle" x="128.75" y="-63.5" font-family="Helvetica,sans-Serif" font-size="10.00">ifxBase/Types.h</text>
</a>
</g>
</g>
<!-- Node1&#45;&gt;Node4 -->
<g id="edge17" class="edge">
<title>Node1&#45;&gt;Node4</title>
<path fill="none" stroke="midnightblue" d="M191.07,-296.13C124.79,-283.74 40.04,-254.93 3.75,-188 -7.71,-166.87 12.48,-121.14 20.75,-112 35.33,-95.88 56.59,-85.38 76.39,-78.61"/>
<polygon fill="midnightblue" stroke="midnightblue" points="77.49,-81.93 85.97,-75.58 75.38,-75.26 77.49,-81.93"/>
</g>
<!-- Node8 -->
<g id="node8" class="node">
<title>Node8</title>
<g id="a_node8"><a xlink:href="_vector_8h.html" target="_top" xlink:title="API for operations on Vector data structures.">
<polygon fill="white" stroke="black" points="157.25,-112.5 157.25,-131.5 252.25,-131.5 252.25,-112.5 157.25,-112.5"/>
<text text-anchor="middle" x="204.75" y="-119.5" font-family="Helvetica,sans-Serif" font-size="10.00">ifxBase/Vector.h</text>
</a>
</g>
</g>
<!-- Node1&#45;&gt;Node8 -->
<g id="edge21" class="edge">
<title>Node1&#45;&gt;Node8</title>
<path fill="none" stroke="midnightblue" d="M306.46,-280.24C332.73,-251.31 366.3,-203.36 340.75,-168 330.61,-153.96 291.26,-141.88 257.48,-133.78"/>
<polygon fill="midnightblue" stroke="midnightblue" points="258.2,-130.36 247.67,-131.5 256.62,-137.18 258.2,-130.36"/>
</g>
<!-- Node9 -->
<g id="node9" class="node">
<title>Node9</title>
<g id="a_node9"><a xlink:href="_window_8h.html" target="_top" xlink:title="API for Window function processing.">
<polygon fill="white" stroke="black" points="230.25,-168.5 230.25,-187.5 331.25,-187.5 331.25,-168.5 230.25,-168.5"/>
<text text-anchor="middle" x="280.75" y="-175.5" font-family="Helvetica,sans-Serif" font-size="10.00">ifxAlgo/Window.h</text>
</a>
</g>
</g>
<!-- Node1&#45;&gt;Node9 -->
<g id="edge16" class="edge">
<title>Node1&#45;&gt;Node9</title>
<path fill="none" stroke="midnightblue" d="M280.75,-280.2C280.75,-255.88 280.75,-219.67 280.75,-197.8"/>
<polygon fill="midnightblue" stroke="midnightblue" points="284.25,-197.55 280.75,-187.55 277.25,-197.55 284.25,-197.55"/>
</g>
<!-- Node11 -->
<g id="node11" class="node">
<title>Node11</title>
<g id="a_node11"><a xlink:href="_matrix_8h.html" target="_top" xlink:title="API for operations on Matrix data structures.">
<polygon fill="white" stroke="black" points="388.25,-168.5 388.25,-187.5 485.25,-187.5 485.25,-168.5 388.25,-168.5"/>
<text text-anchor="middle" x="436.75" y="-175.5" font-family="Helvetica,sans-Serif" font-size="10.00">ifxBase/Matrix.h</text>
</a>
</g>
</g>
<!-- Node1&#45;&gt;Node11 -->
<g id="edge18" class="edge">
<title>Node1&#45;&gt;Node11</title>
<path fill="none" stroke="midnightblue" d="M322.86,-280.4C339.3,-269.9 357.96,-257.1 373.75,-244 391.98,-228.87 410.58,-209.03 422.8,-195.26"/>
<polygon fill="midnightblue" stroke="midnightblue" points="425.57,-197.41 429.52,-187.58 420.3,-192.8 425.57,-197.41"/>
</g>
<!-- Node3 -->
<g id="node3" class="node">
<title>Node3</title>
<g id="a_node3"><a xlink:href="_f_f_t_8h.html" target="_top" xlink:title="API for Fast Fourier Transform (FFT)">
<polygon fill="white" stroke="black" points="131.75,-168.5 131.75,-187.5 211.75,-187.5 211.75,-168.5 131.75,-168.5"/>
<text text-anchor="middle" x="171.75" y="-175.5" font-family="Helvetica,sans-Serif" font-size="10.00">ifxAlgo/FFT.h</text>
</a>
</g>
</g>
<!-- Node2&#45;&gt;Node3 -->
<g id="edge2" class="edge">
<title>Node2&#45;&gt;Node3</title>
<path fill="none" stroke="midnightblue" d="M171.75,-224.08C171.75,-217.01 171.75,-206.86 171.75,-197.99"/>
<polygon fill="midnightblue" stroke="midnightblue" points="175.25,-197.75 171.75,-187.75 168.25,-197.75 175.25,-197.75"/>
</g>
<!-- Node2&#45;&gt;Node4 -->
<g id="edge12" class="edge">
<title>Node2&#45;&gt;Node4</title>
<path fill="none" stroke="midnightblue" d="M117.01,-224.45C76.86,-216.93 27.25,-204.59 14.75,-188 -17.39,-145.36 56.47,-101.15 99.9,-79.92"/>
<polygon fill="midnightblue" stroke="midnightblue" points="101.65,-82.96 109.17,-75.5 98.64,-76.64 101.65,-82.96"/>
</g>
<!-- Node2&#45;&gt;Node9 -->
<g id="edge9" class="edge">
<title>Node2&#45;&gt;Node9</title>
<path fill="none" stroke="midnightblue" d="M189.26,-224.32C206.82,-215.62 234.08,-202.12 254.28,-192.11"/>
<polygon fill="midnightblue" stroke="midnightblue" points="255.87,-195.23 263.28,-187.65 252.77,-188.96 255.87,-195.23"/>
</g>
<!-- Node10 -->
<g id="node10" class="node">
<title>Node10</title>
<g id="a_node10"><a xlink:href="_math_8h.html" target="_top" xlink:title="API for Mathematical operations.">
<polygon fill="white" stroke="black" points="23.75,-168.5 23.75,-187.5 113.75,-187.5 113.75,-168.5 23.75,-168.5"/>
<text text-anchor="middle" x="68.75" y="-175.5" font-family="Helvetica,sans-Serif" font-size="10.00">ifxBase/Math.h</text>
</a>
</g>
</g>
<!-- Node2&#45;&gt;Node10 -->
<g id="edge13" class="edge">
<title>Node2&#45;&gt;Node10</title>
<path fill="none" stroke="midnightblue" d="M155.2,-224.32C138.76,-215.7 113.32,-202.36 94.28,-192.39"/>
<polygon fill="midnightblue" stroke="midnightblue" points="95.74,-189.2 85.26,-187.65 92.49,-195.4 95.74,-189.2"/>
</g>
<!-- Node3&#45;&gt;Node4 -->
<g id="edge3" class="edge">
<title>Node3&#45;&gt;Node4</title>
<path fill="none" stroke="midnightblue" d="M166.7,-168.25C161.69,-159.33 154.03,-145.01 148.75,-132 142.51,-116.62 137.09,-98.52 133.47,-85.33"/>
<polygon fill="midnightblue" stroke="midnightblue" points="136.83,-84.34 130.88,-75.58 130.06,-86.14 136.83,-84.34"/>
</g>
<!-- Node3&#45;&gt;Node8 -->
<g id="edge7" class="edge">
<title>Node3&#45;&gt;Node8</title>
<path fill="none" stroke="midnightblue" d="M177.2,-168.08C181.76,-160.61 188.42,-149.72 194.04,-140.52"/>
<polygon fill="midnightblue" stroke="midnightblue" points="197.17,-142.11 199.4,-131.75 191.2,-138.46 197.17,-142.11"/>
</g>
<!-- Node5 -->
<g id="node5" class="node">
<title>Node5</title>
<g id="a_node5"><a xlink:title=" ">
<polygon fill="white" stroke="#bfbfbf" points="29.25,-0.5 29.25,-19.5 82.25,-19.5 82.25,-0.5 29.25,-0.5"/>
<text text-anchor="middle" x="55.75" y="-7.5" font-family="Helvetica,sans-Serif" font-size="10.00">stdint.h</text>
</a>
</g>
</g>
<!-- Node4&#45;&gt;Node5 -->
<g id="edge4" class="edge">
<title>Node4&#45;&gt;Node5</title>
<path fill="none" stroke="midnightblue" d="M117.02,-56.32C105.91,-48.11 89.01,-35.6 75.77,-25.81"/>
<polygon fill="midnightblue" stroke="midnightblue" points="77.81,-22.97 67.69,-19.83 73.65,-28.59 77.81,-22.97"/>
</g>
<!-- Node6 -->
<g id="node6" class="node">
<title>Node6</title>
<g id="a_node6"><a xlink:title=" ">
<polygon fill="white" stroke="#bfbfbf" points="100.75,-0.5 100.75,-19.5 156.75,-19.5 156.75,-0.5 100.75,-0.5"/>
<text text-anchor="middle" x="128.75" y="-7.5" font-family="Helvetica,sans-Serif" font-size="10.00">stddef.h</text>
</a>
</g>
</g>
<!-- Node4&#45;&gt;Node6 -->
<g id="edge5" class="edge">
<title>Node4&#45;&gt;Node6</title>
<path fill="none" stroke="midnightblue" d="M128.75,-56.08C128.75,-49.01 128.75,-38.86 128.75,-29.99"/>
<polygon fill="midnightblue" stroke="midnightblue" points="132.25,-29.75 128.75,-19.75 125.25,-29.75 132.25,-29.75"/>
</g>
<!-- Node7 -->
<g id="node7" class="node">
<title>Node7</title>
<g id="a_node7"><a xlink:title=" ">
<polygon fill="white" stroke="#bfbfbf" points="174.75,-0.5 174.75,-19.5 236.75,-19.5 236.75,-0.5 174.75,-0.5"/>
<text text-anchor="middle" x="205.75" y="-7.5" font-family="Helvetica,sans-Serif" font-size="10.00">stdbool.h</text>
</a>
</g>
</g>
<!-- Node4&#45;&gt;Node7 -->
<g id="edge6" class="edge">
<title>Node4&#45;&gt;Node7</title>
<path fill="none" stroke="midnightblue" d="M141.12,-56.32C152.91,-48.06 170.88,-35.45 184.89,-25.63"/>
<polygon fill="midnightblue" stroke="midnightblue" points="187.23,-28.26 193.41,-19.65 183.21,-22.53 187.23,-28.26"/>
</g>
<!-- Node8&#45;&gt;Node4 -->
<g id="edge8" class="edge">
<title>Node8&#45;&gt;Node4</title>
<path fill="none" stroke="midnightblue" d="M192.54,-112.32C180.97,-104.11 163.37,-91.6 149.59,-81.81"/>
<polygon fill="midnightblue" stroke="midnightblue" points="151.36,-78.77 141.18,-75.83 147.31,-84.48 151.36,-78.77"/>
</g>
<!-- Node9&#45;&gt;Node4 -->
<g id="edge10" class="edge">
<title>Node9&#45;&gt;Node4</title>
<path fill="none" stroke="midnightblue" d="M280.64,-168.17C279.99,-154.36 276.72,-127.61 261.75,-112 241.78,-91.17 211.84,-79.99 185.42,-73.98"/>
<polygon fill="midnightblue" stroke="midnightblue" points="186,-70.52 175.49,-71.92 184.57,-77.38 186,-70.52"/>
</g>
<!-- Node9&#45;&gt;Node8 -->
<g id="edge11" class="edge">
<title>Node9&#45;&gt;Node8</title>
<path fill="none" stroke="midnightblue" d="M268.54,-168.32C256.97,-160.11 239.37,-147.6 225.59,-137.81"/>
<polygon fill="midnightblue" stroke="midnightblue" points="227.36,-134.77 217.18,-131.83 223.31,-140.48 227.36,-134.77"/>
</g>
<!-- Node10&#45;&gt;Node4 -->
<g id="edge14" class="edge">
<title>Node10&#45;&gt;Node4</title>
<path fill="none" stroke="midnightblue" d="M73.46,-168.37C83.27,-150.38 106.09,-108.55 119.14,-84.63"/>
<polygon fill="midnightblue" stroke="midnightblue" points="122.35,-86.05 124.06,-75.59 116.2,-82.69 122.35,-86.05"/>
</g>
<!-- Node10&#45;&gt;Node8 -->
<g id="edge15" class="edge">
<title>Node10&#45;&gt;Node8</title>
<path fill="none" stroke="midnightblue" d="M90.3,-168.44C112.78,-159.52 148.24,-145.44 173.73,-135.32"/>
<polygon fill="midnightblue" stroke="midnightblue" points="175.3,-138.46 183.3,-131.52 172.72,-131.95 175.3,-138.46"/>
</g>
<!-- Node11&#45;&gt;Node4 -->
<g id="edge19" class="edge">
<title>Node11&#45;&gt;Node4</title>
<path fill="none" stroke="midnightblue" d="M417.79,-168.33C388.69,-155.19 331.07,-129.87 280.75,-112 244.29,-99.05 202.02,-86.75 171.33,-78.29"/>
<polygon fill="midnightblue" stroke="midnightblue" points="171.96,-74.84 161.39,-75.58 170.12,-81.59 171.96,-74.84"/>
</g>
<!-- Node11&#45;&gt;Node8 -->
<g id="edge20" class="edge">
<title>Node11&#45;&gt;Node8</title>
<path fill="none" stroke="midnightblue" d="M399.99,-168.44C359.69,-159.06 294.94,-143.99 251.17,-133.8"/>
<polygon fill="midnightblue" stroke="midnightblue" points="251.87,-130.37 241.34,-131.52 250.29,-137.19 251.87,-130.37"/>
</g>
</g>
</svg>
