<?xml version="1.0" encoding="UTF-8" standalone="no"?>
<!DOCTYPE svg PUBLIC "-//W3C//DTD SVG 1.1//EN"
 "http://www.w3.org/Graphics/SVG/1.1/DTD/svg11.dtd">
<!-- Generated by graphviz version 2.43.0 (0)
 -->
<!-- Title: /home/jenkins/jenkins&#45;ci/workspace/er_release_release&#45;branch&#45;v3.3.1@2/sdk/c/ifxRadarSegmentation/RangeAngleImage7.h Pages: 1 -->
<svg width="205pt" height="184pt"
 viewBox="0.00 0.00 204.50 184.00" xmlns="http://www.w3.org/2000/svg" xmlns:xlink="http://www.w3.org/1999/xlink">
<g id="graph0" class="graph" transform="scale(1 1) rotate(0) translate(4 180)">
<title>/home/jenkins/jenkins&#45;ci/workspace/er_release_release&#45;branch&#45;v3.3.1@2/sdk/c/ifxRadarSegmentation/RangeAngleImage7.h</title>
<polygon fill="white" stroke="transparent" points="-4,4 -4,-180 200.5,-180 200.5,4 -4,4"/>
<!-- Node1 -->
<g id="node1" class="node">
<title>Node1</title>
<g id="a_node1"><a xlink:title=" ">
<polygon fill="#bfbfbf" stroke="black" points="0,-112.5 0,-175.5 158,-175.5 158,-112.5 0,-112.5"/>
<text text-anchor="start" x="8" y="-163.5" font-family="Helvetica,sans-Serif" font-size="10.00">/home/jenkins/jenkins</text>
<text text-anchor="start" x="8" y="-152.5" font-family="Helvetica,sans-Serif" font-size="10.00">&#45;ci/workspace/er_release</text>
<text text-anchor="start" x="8" y="-141.5" font-family="Helvetica,sans-Serif" font-size="10.00">_release&#45;branch&#45;v3.3.1@2</text>
<text text-anchor="start" x="8" y="-130.5" font-family="Helvetica,sans-Serif" font-size="10.00">/sdk/c/ifxRadarSegmentation</text>
<text text-anchor="middle" x="79" y="-119.5" font-family="Helvetica,sans-Serif" font-size="10.00">/RangeAngleImage7.h</text>
</a>
</g>
</g>
<!-- Node2 -->
<g id="node2" class="node">
<title>Node2</title>
<g id="a_node2"><a xlink:title=" ">
<polygon fill="white" stroke="#bfbfbf" points="52.5,-0.5 52.5,-19.5 105.5,-19.5 105.5,-0.5 52.5,-0.5"/>
<text text-anchor="middle" x="79" y="-7.5" font-family="Helvetica,sans-Serif" font-size="10.00">stdint.h</text>
</a>
</g>
</g>
<!-- Node1&#45;&gt;Node2 -->
<g id="edge1" class="edge">
<title>Node1&#45;&gt;Node2</title>
<path fill="none" stroke="midnightblue" d="M59.17,-112.16C50.95,-95.6 44.47,-74.79 50,-56 53.01,-45.76 59.15,-35.66 65.01,-27.63"/>
<polygon fill="midnightblue" stroke="midnightblue" points="67.93,-29.58 71.33,-19.54 62.41,-25.27 67.93,-29.58"/>
</g>
<!-- Node3 -->
<g id="node3" class="node">
<title>Node3</title>
<g id="a_node3"><a xlink:href="_range_angle_image___util_8h.html" target="_top" xlink:title=" ">
<polygon fill="white" stroke="black" points="59.5,-56.5 59.5,-75.5 196.5,-75.5 196.5,-56.5 59.5,-56.5"/>
<text text-anchor="middle" x="128" y="-63.5" font-family="Helvetica,sans-Serif" font-size="10.00">RangeAngleImage_Util.h</text>
</a>
</g>
</g>
<!-- Node1&#45;&gt;Node3 -->
<g id="edge2" class="edge">
<title>Node1&#45;&gt;Node3</title>
<path fill="none" stroke="midnightblue" d="M98.93,-112.09C105.02,-102.64 111.51,-92.58 116.8,-84.36"/>
<polygon fill="midnightblue" stroke="midnightblue" points="119.9,-86.02 122.38,-75.72 114.02,-82.23 119.9,-86.02"/>
</g>
<!-- Node3&#45;&gt;Node2 -->
<g id="edge3" class="edge">
<title>Node3&#45;&gt;Node2</title>
<path fill="none" stroke="midnightblue" d="M119.91,-56.08C112.84,-48.3 102.41,-36.8 93.85,-27.37"/>
<polygon fill="midnightblue" stroke="midnightblue" points="96.25,-24.8 86.94,-19.75 91.07,-29.51 96.25,-24.8"/>
</g>
</g>
</svg>
