<?xml version="1.0" encoding="UTF-8" standalone="no"?>
<!DOCTYPE svg PUBLIC "-//W3C//DTD SVG 1.1//EN"
 "http://www.w3.org/Graphics/SVG/1.1/DTD/svg11.dtd">
<!-- Generated by graphviz version 2.43.0 (0)
 -->
<!-- Title: /home/jenkins/jenkins&#45;ci/workspace/er_release_release&#45;branch&#45;v3.3.1@2/sdk/c/ifxRecording/Recording.h Pages: 1 -->
<svg width="759pt" height="328pt"
 viewBox="0.00 0.00 758.94 328.00" xmlns="http://www.w3.org/2000/svg" xmlns:xlink="http://www.w3.org/1999/xlink">
<g id="graph0" class="graph" transform="scale(1 1) rotate(0) translate(4 324)">
<title>/home/jenkins/jenkins&#45;ci/workspace/er_release_release&#45;branch&#45;v3.3.1@2/sdk/c/ifxRecording/Recording.h</title>
<polygon fill="white" stroke="transparent" points="-4,4 -4,-324 754.94,-324 754.94,4 -4,4"/>
<!-- Node1 -->
<g id="node1" class="node">
<title>Node1</title>
<g id="a_node1"><a xlink:title="This file defines functions to handle Recordings.">
<polygon fill="#bfbfbf" stroke="black" points="230.94,-267.5 230.94,-319.5 400.94,-319.5 400.94,-267.5 230.94,-267.5"/>
<text text-anchor="start" x="238.94" y="-307.5" font-family="Helvetica,sans-Serif" font-size="10.00">/home/jenkins/jenkins</text>
<text text-anchor="start" x="238.94" y="-296.5" font-family="Helvetica,sans-Serif" font-size="10.00">&#45;ci/workspace/er_release</text>
<text text-anchor="start" x="238.94" y="-285.5" font-family="Helvetica,sans-Serif" font-size="10.00">_release&#45;branch&#45;v3.3.1@2</text>
<text text-anchor="middle" x="315.94" y="-274.5" font-family="Helvetica,sans-Serif" font-size="10.00">/sdk/c/ifxRecording/Recording.h</text>
</a>
</g>
</g>
<!-- Node2 -->
<g id="node2" class="node">
<title>Node2</title>
<g id="a_node2"><a xlink:href="_device_control_8h.html" target="_top" xlink:title="API for Radar device control operations.">
<polygon fill="white" stroke="black" points="231.44,-178.5 231.44,-230.5 400.44,-230.5 400.44,-178.5 231.44,-178.5"/>
<text text-anchor="start" x="239.44" y="-218.5" font-family="Helvetica,sans-Serif" font-size="10.00">/home/jenkins/jenkins</text>
<text text-anchor="start" x="239.44" y="-207.5" font-family="Helvetica,sans-Serif" font-size="10.00">&#45;ci/workspace/er_release</text>
<text text-anchor="start" x="239.44" y="-196.5" font-family="Helvetica,sans-Serif" font-size="10.00">_release&#45;branch&#45;v3.3.1@2</text>
<text text-anchor="middle" x="315.94" y="-185.5" font-family="Helvetica,sans-Serif" font-size="10.00">/sdk/c/ifxAvian/DeviceControl.h</text>
</a>
</g>
</g>
<!-- Node1&#45;&gt;Node2 -->
<g id="edge1" class="edge">
<title>Node1&#45;&gt;Node2</title>
<path fill="none" stroke="midnightblue" d="M315.94,-257.19C315.94,-248.28 315.94,-238.9 315.94,-230.61"/>
<polygon fill="midnightblue" stroke="midnightblue" points="312.44,-257.34 315.94,-267.34 319.44,-257.34 312.44,-257.34"/>
</g>
<!-- Node3 -->
<g id="node3" class="node">
<title>Node3</title>
<g id="a_node3"><a xlink:href="_avian_8h.html" target="_top" xlink:title="Header for ifxAvian.">
<polygon fill="white" stroke="black" points="148.44,-0.5 148.44,-52.5 291.44,-52.5 291.44,-0.5 148.44,-0.5"/>
<text text-anchor="start" x="156.44" y="-40.5" font-family="Helvetica,sans-Serif" font-size="10.00">/home/jenkins/jenkins</text>
<text text-anchor="start" x="156.44" y="-29.5" font-family="Helvetica,sans-Serif" font-size="10.00">&#45;ci/workspace/er_release</text>
<text text-anchor="start" x="156.44" y="-18.5" font-family="Helvetica,sans-Serif" font-size="10.00">_release&#45;branch&#45;v3.3.1@2</text>
<text text-anchor="middle" x="219.94" y="-7.5" font-family="Helvetica,sans-Serif" font-size="10.00">/sdk/c/ifxAvian/Avian.h</text>
</a>
</g>
</g>
<!-- Node2&#45;&gt;Node3 -->
<g id="edge2" class="edge">
<title>Node2&#45;&gt;Node3</title>
<path fill="none" stroke="midnightblue" d="M221.31,-197.27C141.86,-189.84 37.23,-174.12 10.94,-142 -3.98,-123.77 -3.17,-107.86 10.94,-89 27.68,-66.63 94.71,-49.59 148.41,-39.19"/>
<polygon fill="midnightblue" stroke="midnightblue" points="221.08,-200.77 231.36,-198.18 221.71,-193.79 221.08,-200.77"/>
</g>
<!-- Node4 -->
<g id="node4" class="node">
<title>Node4</title>
<g id="a_node4"><a xlink:href="_constant_wave_control_8h.html" target="_top" xlink:title="Header for Constant Wave Control. It provides APIs to use an Avian device in constant wave mode....">
<polygon fill="white" stroke="black" points="19.94,-89.5 19.94,-141.5 225.94,-141.5 225.94,-89.5 19.94,-89.5"/>
<text text-anchor="start" x="27.94" y="-129.5" font-family="Helvetica,sans-Serif" font-size="10.00">/home/jenkins/jenkins</text>
<text text-anchor="start" x="27.94" y="-118.5" font-family="Helvetica,sans-Serif" font-size="10.00">&#45;ci/workspace/er_release</text>
<text text-anchor="start" x="27.94" y="-107.5" font-family="Helvetica,sans-Serif" font-size="10.00">_release&#45;branch&#45;v3.3.1@2</text>
<text text-anchor="middle" x="122.94" y="-96.5" font-family="Helvetica,sans-Serif" font-size="10.00">/sdk/c/ifxAvian/ConstantWaveControl.h</text>
</a>
</g>
</g>
<!-- Node2&#45;&gt;Node4 -->
<g id="edge3" class="edge">
<title>Node2&#45;&gt;Node4</title>
<path fill="none" stroke="midnightblue" d="M251.15,-174.29C227.57,-163.67 201.15,-151.76 178.44,-141.52"/>
<polygon fill="midnightblue" stroke="midnightblue" points="249.82,-177.53 260.37,-178.45 252.69,-171.15 249.82,-177.53"/>
</g>
<!-- Node5 -->
<g id="node5" class="node">
<title>Node5</title>
<g id="a_node5"><a xlink:href="_metrics_8h.html" target="_top" xlink:title="API for Metrics.">
<polygon fill="white" stroke="black" points="244.44,-89.5 244.44,-141.5 387.44,-141.5 387.44,-89.5 244.44,-89.5"/>
<text text-anchor="start" x="252.44" y="-129.5" font-family="Helvetica,sans-Serif" font-size="10.00">/home/jenkins/jenkins</text>
<text text-anchor="start" x="252.44" y="-118.5" font-family="Helvetica,sans-Serif" font-size="10.00">&#45;ci/workspace/er_release</text>
<text text-anchor="start" x="252.44" y="-107.5" font-family="Helvetica,sans-Serif" font-size="10.00">_release&#45;branch&#45;v3.3.1@2</text>
<text text-anchor="middle" x="315.94" y="-96.5" font-family="Helvetica,sans-Serif" font-size="10.00">/sdk/c/ifxAvian/Metrics.h</text>
</a>
</g>
</g>
<!-- Node2&#45;&gt;Node5 -->
<g id="edge5" class="edge">
<title>Node2&#45;&gt;Node5</title>
<path fill="none" stroke="midnightblue" d="M315.94,-168.19C315.94,-159.28 315.94,-149.9 315.94,-141.61"/>
<polygon fill="midnightblue" stroke="midnightblue" points="312.44,-168.34 315.94,-178.34 319.44,-168.34 312.44,-168.34"/>
</g>
<!-- Node6 -->
<g id="node6" class="node">
<title>Node6</title>
<g id="a_node6"><a xlink:href="_shapes_8h.html" target="_top" xlink:title=" ">
<polygon fill="white" stroke="black" points="405.44,-89.5 405.44,-141.5 548.44,-141.5 548.44,-89.5 405.44,-89.5"/>
<text text-anchor="start" x="413.44" y="-129.5" font-family="Helvetica,sans-Serif" font-size="10.00">/home/jenkins/jenkins</text>
<text text-anchor="start" x="413.44" y="-118.5" font-family="Helvetica,sans-Serif" font-size="10.00">&#45;ci/workspace/er_release</text>
<text text-anchor="start" x="413.44" y="-107.5" font-family="Helvetica,sans-Serif" font-size="10.00">_release&#45;branch&#45;v3.3.1@2</text>
<text text-anchor="middle" x="476.94" y="-96.5" font-family="Helvetica,sans-Serif" font-size="10.00">/sdk/c/ifxAvian/Shapes.h</text>
</a>
</g>
</g>
<!-- Node2&#45;&gt;Node6 -->
<g id="edge7" class="edge">
<title>Node2&#45;&gt;Node6</title>
<path fill="none" stroke="midnightblue" d="M371.46,-173.49C390.7,-163.1 412.05,-151.57 430.47,-141.61"/>
<polygon fill="midnightblue" stroke="midnightblue" points="369.64,-170.5 362.5,-178.34 372.97,-176.66 369.64,-170.5"/>
</g>
<!-- Node7 -->
<g id="node7" class="node">
<title>Node7</title>
<g id="a_node7"><a xlink:href="_presence_sensing_8h.html" target="_top" xlink:title="API for Presence Sensing algorithm.">
<polygon fill="white" stroke="black" points="566.94,-89.5 566.94,-141.5 750.94,-141.5 750.94,-89.5 566.94,-89.5"/>
<text text-anchor="start" x="574.94" y="-129.5" font-family="Helvetica,sans-Serif" font-size="10.00">/home/jenkins/jenkins</text>
<text text-anchor="start" x="574.94" y="-118.5" font-family="Helvetica,sans-Serif" font-size="10.00">&#45;ci/workspace/er_release</text>
<text text-anchor="start" x="574.94" y="-107.5" font-family="Helvetica,sans-Serif" font-size="10.00">_release&#45;branch&#45;v3.3.1@2</text>
<text text-anchor="middle" x="658.94" y="-96.5" font-family="Helvetica,sans-Serif" font-size="10.00">/sdk/c/ifxRadar/PresenceSensing.h</text>
</a>
</g>
</g>
<!-- Node2&#45;&gt;Node7 -->
<g id="edge9" class="edge">
<title>Node2&#45;&gt;Node7</title>
<path fill="none" stroke="midnightblue" d="M410.63,-179.48C459.3,-167.14 518.38,-152.15 566.7,-139.89"/>
<polygon fill="midnightblue" stroke="midnightblue" points="409.56,-176.14 400.72,-181.99 411.28,-182.93 409.56,-176.14"/>
</g>
<!-- Node4&#45;&gt;Node3 -->
<g id="edge4" class="edge">
<title>Node4&#45;&gt;Node3</title>
<path fill="none" stroke="midnightblue" d="M158.45,-82.65C169.49,-72.75 181.49,-61.98 191.94,-52.61"/>
<polygon fill="midnightblue" stroke="midnightblue" points="156.1,-80.05 150.99,-89.34 160.77,-85.26 156.1,-80.05"/>
</g>
<!-- Node5&#45;&gt;Node3 -->
<g id="edge6" class="edge">
<title>Node5&#45;&gt;Node3</title>
<path fill="none" stroke="midnightblue" d="M280.48,-82.36C269.64,-72.54 257.88,-61.89 247.64,-52.61"/>
<polygon fill="midnightblue" stroke="midnightblue" points="278.41,-85.21 288.17,-89.34 283.11,-80.03 278.41,-85.21"/>
</g>
<!-- Node6&#45;&gt;Node3 -->
<g id="edge8" class="edge">
<title>Node6&#45;&gt;Node3</title>
<path fill="none" stroke="midnightblue" d="M395.62,-86.97C362.23,-75.67 323.9,-62.69 291.59,-51.76"/>
<polygon fill="midnightblue" stroke="midnightblue" points="394.75,-90.37 405.35,-90.27 397,-83.74 394.75,-90.37"/>
</g>
<!-- Node8 -->
<g id="node8" class="node">
<title>Node8</title>
<g id="a_node8"><a xlink:href="_radar_8h.html" target="_top" xlink:title="Header for ifxRadar.">
<polygon fill="white" stroke="black" points="587.44,-0.5 587.44,-52.5 730.44,-52.5 730.44,-0.5 587.44,-0.5"/>
<text text-anchor="start" x="595.44" y="-40.5" font-family="Helvetica,sans-Serif" font-size="10.00">/home/jenkins/jenkins</text>
<text text-anchor="start" x="595.44" y="-29.5" font-family="Helvetica,sans-Serif" font-size="10.00">&#45;ci/workspace/er_release</text>
<text text-anchor="start" x="595.44" y="-18.5" font-family="Helvetica,sans-Serif" font-size="10.00">_release&#45;branch&#45;v3.3.1@2</text>
<text text-anchor="middle" x="658.94" y="-7.5" font-family="Helvetica,sans-Serif" font-size="10.00">/sdk/c/ifxRadar/Radar.h</text>
</a>
</g>
</g>
<!-- Node7&#45;&gt;Node8 -->
<g id="edge10" class="edge">
<title>Node7&#45;&gt;Node8</title>
<path fill="none" stroke="midnightblue" d="M658.94,-79.19C658.94,-70.28 658.94,-60.9 658.94,-52.61"/>
<polygon fill="midnightblue" stroke="midnightblue" points="655.44,-79.34 658.94,-89.34 662.44,-79.34 655.44,-79.34"/>
</g>
</g>
</svg>
