<?xml version="1.0" encoding="UTF-8" standalone="no"?>
<!DOCTYPE svg PUBLIC "-//W3C//DTD SVG 1.1//EN"
 "http://www.w3.org/Graphics/SVG/1.1/DTD/svg11.dtd">
<!-- Generated by graphviz version 2.43.0 (0)
 -->
<!-- Title: /home/jenkins/jenkins&#45;ci/workspace/er_release_release&#45;branch&#45;v3.3.1@2/sdk/c/ifxRecording/Recording.h Pages: 1 -->
<svg width="325pt" height="296pt"
 viewBox="0.00 0.00 325.00 296.00" xmlns="http://www.w3.org/2000/svg" xmlns:xlink="http://www.w3.org/1999/xlink">
<g id="graph0" class="graph" transform="scale(1 1) rotate(0) translate(4 292)">
<title>/home/jenkins/jenkins&#45;ci/workspace/er_release_release&#45;branch&#45;v3.3.1@2/sdk/c/ifxRecording/Recording.h</title>
<polygon fill="white" stroke="transparent" points="-4,4 -4,-292 321,-292 321,4 -4,4"/>
<!-- Node1 -->
<g id="node1" class="node">
<title>Node1</title>
<g id="a_node1"><a xlink:title="This file defines functions to handle Recordings.">
<polygon fill="#bfbfbf" stroke="black" points="42.5,-235.5 42.5,-287.5 212.5,-287.5 212.5,-235.5 42.5,-235.5"/>
<text text-anchor="start" x="50.5" y="-275.5" font-family="Helvetica,sans-Serif" font-size="10.00">/home/jenkins/jenkins</text>
<text text-anchor="start" x="50.5" y="-264.5" font-family="Helvetica,sans-Serif" font-size="10.00">&#45;ci/workspace/er_release</text>
<text text-anchor="start" x="50.5" y="-253.5" font-family="Helvetica,sans-Serif" font-size="10.00">_release&#45;branch&#45;v3.3.1@2</text>
<text text-anchor="middle" x="127.5" y="-242.5" font-family="Helvetica,sans-Serif" font-size="10.00">/sdk/c/ifxRecording/Recording.h</text>
</a>
</g>
</g>
<!-- Node2 -->
<g id="node2" class="node">
<title>Node2</title>
<g id="a_node2"><a xlink:href="ifx_base_2_types_8h.html" target="_top" xlink:title="Definitions of data types used within the SDK.">
<polygon fill="white" stroke="black" points="53,-56.5 53,-75.5 146,-75.5 146,-56.5 53,-56.5"/>
<text text-anchor="middle" x="99.5" y="-63.5" font-family="Helvetica,sans-Serif" font-size="10.00">ifxBase/Types.h</text>
</a>
</g>
</g>
<!-- Node1&#45;&gt;Node2 -->
<g id="edge1" class="edge">
<title>Node1&#45;&gt;Node2</title>
<path fill="none" stroke="midnightblue" d="M83.37,-235.39C70.7,-225.77 58.44,-213.55 51.5,-199 42.57,-180.29 48.3,-143.35 62.5,-112 67.38,-101.22 75.53,-90.9 82.94,-82.86"/>
<polygon fill="midnightblue" stroke="midnightblue" points="85.49,-85.26 89.95,-75.66 80.47,-80.38 85.49,-85.26"/>
</g>
<!-- Node6 -->
<g id="node6" class="node">
<title>Node6</title>
<g id="a_node6"><a xlink:href="_device_config_8h.html" target="_top" xlink:title="API for Radar device configuration.">
<polygon fill="white" stroke="black" points="61,-179.5 61,-198.5 194,-198.5 194,-179.5 61,-179.5"/>
<text text-anchor="middle" x="127.5" y="-186.5" font-family="Helvetica,sans-Serif" font-size="10.00">ifxAvian/DeviceConfig.h</text>
</a>
</g>
</g>
<!-- Node1&#45;&gt;Node6 -->
<g id="edge5" class="edge">
<title>Node1&#45;&gt;Node6</title>
<path fill="none" stroke="midnightblue" d="M127.5,-235.45C127.5,-226.73 127.5,-217.1 127.5,-208.96"/>
<polygon fill="midnightblue" stroke="midnightblue" points="131,-208.7 127.5,-198.7 124,-208.7 131,-208.7"/>
</g>
<!-- Node8 -->
<g id="node8" class="node">
<title>Node8</title>
<g id="a_node8"><a xlink:href="_list_8h.html" target="_top" xlink:title=" ">
<polygon fill="white" stroke="black" points="234,-118 234,-137 317,-137 317,-118 234,-118"/>
<text text-anchor="middle" x="275.5" y="-125" font-family="Helvetica,sans-Serif" font-size="10.00">ifxBase/List.h</text>
</a>
</g>
</g>
<!-- Node1&#45;&gt;Node8 -->
<g id="edge9" class="edge">
<title>Node1&#45;&gt;Node8</title>
<path fill="none" stroke="midnightblue" d="M159.86,-235.42C173.56,-224.52 189.56,-211.42 203.5,-199 223.78,-180.94 245.94,-158.85 260.25,-144.27"/>
<polygon fill="midnightblue" stroke="midnightblue" points="262.85,-146.62 267.32,-137.01 257.84,-141.73 262.85,-146.62"/>
</g>
<!-- Node3 -->
<g id="node3" class="node">
<title>Node3</title>
<g id="a_node3"><a xlink:title=" ">
<polygon fill="white" stroke="#bfbfbf" points="0,-0.5 0,-19.5 53,-19.5 53,-0.5 0,-0.5"/>
<text text-anchor="middle" x="26.5" y="-7.5" font-family="Helvetica,sans-Serif" font-size="10.00">stdint.h</text>
</a>
</g>
</g>
<!-- Node2&#45;&gt;Node3 -->
<g id="edge2" class="edge">
<title>Node2&#45;&gt;Node3</title>
<path fill="none" stroke="midnightblue" d="M87.77,-56.32C76.66,-48.11 59.76,-35.6 46.52,-25.81"/>
<polygon fill="midnightblue" stroke="midnightblue" points="48.56,-22.97 38.44,-19.83 44.4,-28.59 48.56,-22.97"/>
</g>
<!-- Node4 -->
<g id="node4" class="node">
<title>Node4</title>
<g id="a_node4"><a xlink:title=" ">
<polygon fill="white" stroke="#bfbfbf" points="71.5,-0.5 71.5,-19.5 127.5,-19.5 127.5,-0.5 71.5,-0.5"/>
<text text-anchor="middle" x="99.5" y="-7.5" font-family="Helvetica,sans-Serif" font-size="10.00">stddef.h</text>
</a>
</g>
</g>
<!-- Node2&#45;&gt;Node4 -->
<g id="edge3" class="edge">
<title>Node2&#45;&gt;Node4</title>
<path fill="none" stroke="midnightblue" d="M99.5,-56.08C99.5,-49.01 99.5,-38.86 99.5,-29.99"/>
<polygon fill="midnightblue" stroke="midnightblue" points="103,-29.75 99.5,-19.75 96,-29.75 103,-29.75"/>
</g>
<!-- Node5 -->
<g id="node5" class="node">
<title>Node5</title>
<g id="a_node5"><a xlink:title=" ">
<polygon fill="white" stroke="#bfbfbf" points="145.5,-0.5 145.5,-19.5 207.5,-19.5 207.5,-0.5 145.5,-0.5"/>
<text text-anchor="middle" x="176.5" y="-7.5" font-family="Helvetica,sans-Serif" font-size="10.00">stdbool.h</text>
</a>
</g>
</g>
<!-- Node2&#45;&gt;Node5 -->
<g id="edge4" class="edge">
<title>Node2&#45;&gt;Node5</title>
<path fill="none" stroke="midnightblue" d="M111.87,-56.32C123.66,-48.06 141.63,-35.45 155.64,-25.63"/>
<polygon fill="midnightblue" stroke="midnightblue" points="157.98,-28.26 164.16,-19.65 153.96,-22.53 157.98,-28.26"/>
</g>
<!-- Node6&#45;&gt;Node2 -->
<g id="edge6" class="edge">
<title>Node6&#45;&gt;Node2</title>
<path fill="none" stroke="midnightblue" d="M109.42,-179.39C95.94,-171.87 78.53,-159.57 70.5,-143 60.92,-123.24 73.68,-99.45 85.17,-83.81"/>
<polygon fill="midnightblue" stroke="midnightblue" points="88.17,-85.66 91.61,-75.64 82.67,-81.32 88.17,-85.66"/>
</g>
<!-- Node7 -->
<g id="node7" class="node">
<title>Node7</title>
<g id="a_node7"><a xlink:href="_radar_device_common_8h.html" target="_top" xlink:title="Header for ifxRadarDeviceCommon.">
<polygon fill="white" stroke="black" points="79.5,-112.5 79.5,-142.5 215.5,-142.5 215.5,-112.5 79.5,-112.5"/>
<text text-anchor="start" x="87.5" y="-130.5" font-family="Helvetica,sans-Serif" font-size="10.00">ifxRadarDeviceCommon</text>
<text text-anchor="middle" x="147.5" y="-119.5" font-family="Helvetica,sans-Serif" font-size="10.00">/RadarDeviceCommon.h</text>
</a>
</g>
</g>
<!-- Node6&#45;&gt;Node7 -->
<g id="edge7" class="edge">
<title>Node6&#45;&gt;Node7</title>
<path fill="none" stroke="midnightblue" d="M130.37,-179.48C132.77,-172.32 136.32,-161.75 139.57,-152.08"/>
<polygon fill="midnightblue" stroke="midnightblue" points="142.92,-153.12 142.79,-142.52 136.28,-150.89 142.92,-153.12"/>
</g>
<!-- Node7&#45;&gt;Node2 -->
<g id="edge8" class="edge">
<title>Node7&#45;&gt;Node2</title>
<path fill="none" stroke="midnightblue" d="M136.12,-112.4C129.15,-103.75 120.19,-92.64 112.87,-83.58"/>
<polygon fill="midnightblue" stroke="midnightblue" points="115.49,-81.24 106.48,-75.66 110.04,-85.64 115.49,-81.24"/>
</g>
<!-- Node8&#45;&gt;Node2 -->
<g id="edge10" class="edge">
<title>Node8&#45;&gt;Node2</title>
<path fill="none" stroke="midnightblue" d="M250.28,-117.98C219.83,-107.68 168.45,-90.31 134.26,-78.75"/>
<polygon fill="midnightblue" stroke="midnightblue" points="135.26,-75.4 124.67,-75.51 133.02,-82.03 135.26,-75.4"/>
</g>
</g>
</svg>
