<?xml version="1.0" encoding="UTF-8" standalone="no"?>
<!DOCTYPE svg PUBLIC "-//W3C//DTD SVG 1.1//EN"
 "http://www.w3.org/Graphics/SVG/1.1/DTD/svg11.dtd">
<!-- Generated by graphviz version 2.43.0 (0)
 -->
<!-- Title: /home/jenkins/jenkins&#45;ci/workspace/er_release_release&#45;branch&#45;v3.3.1@2/sdk/c/ifxAvian/Shapes.h Pages: 1 -->
<svg width="638pt" height="464pt"
 viewBox="0.00 0.00 638.00 464.00" xmlns="http://www.w3.org/2000/svg" xmlns:xlink="http://www.w3.org/1999/xlink">
<g id="graph0" class="graph" transform="scale(1 1) rotate(0) translate(4 460)">
<title>/home/jenkins/jenkins&#45;ci/workspace/er_release_release&#45;branch&#45;v3.3.1@2/sdk/c/ifxAvian/Shapes.h</title>
<polygon fill="white" stroke="transparent" points="-4,4 -4,-460 634,-460 634,4 -4,4"/>
<!-- Node1 -->
<g id="node1" class="node">
<title>Node1</title>
<g id="a_node1"><a xlink:title=" ">
<polygon fill="#bfbfbf" stroke="black" points="77.5,-403.5 77.5,-455.5 220.5,-455.5 220.5,-403.5 77.5,-403.5"/>
<text text-anchor="start" x="85.5" y="-443.5" font-family="Helvetica,sans-Serif" font-size="10.00">/home/jenkins/jenkins</text>
<text text-anchor="start" x="85.5" y="-432.5" font-family="Helvetica,sans-Serif" font-size="10.00">&#45;ci/workspace/er_release</text>
<text text-anchor="start" x="85.5" y="-421.5" font-family="Helvetica,sans-Serif" font-size="10.00">_release&#45;branch&#45;v3.3.1@2</text>
<text text-anchor="middle" x="149" y="-410.5" font-family="Helvetica,sans-Serif" font-size="10.00">/sdk/c/ifxAvian/Shapes.h</text>
</a>
</g>
</g>
<!-- Node2 -->
<g id="node2" class="node">
<title>Node2</title>
<g id="a_node2"><a xlink:href="ifx_base_2_types_8h.html" target="_top" xlink:title="Definitions of data types used within the SDK.">
<polygon fill="white" stroke="black" points="296.5,-56.5 296.5,-75.5 389.5,-75.5 389.5,-56.5 296.5,-56.5"/>
<text text-anchor="middle" x="343" y="-63.5" font-family="Helvetica,sans-Serif" font-size="10.00">ifxBase/Types.h</text>
</a>
</g>
</g>
<!-- Node1&#45;&gt;Node2 -->
<g id="edge1" class="edge">
<title>Node1&#45;&gt;Node2</title>
<path fill="none" stroke="midnightblue" d="M84.95,-403.38C44.56,-382.89 0,-349.51 0,-302 0,-302 0,-302 0,-182.5 0,-122.8 188.99,-88.09 286.4,-74.16"/>
<polygon fill="midnightblue" stroke="midnightblue" points="286.97,-77.62 296.38,-72.76 286,-70.69 286.97,-77.62"/>
</g>
<!-- Node6 -->
<g id="node6" class="node">
<title>Node6</title>
<g id="a_node6"><a xlink:href="_device_control_8h.html" target="_top" xlink:title="API for Radar device control operations.">
<polygon fill="white" stroke="black" points="280.5,-347.5 280.5,-366.5 417.5,-366.5 417.5,-347.5 280.5,-347.5"/>
<text text-anchor="middle" x="349" y="-354.5" font-family="Helvetica,sans-Serif" font-size="10.00">ifxAvian/DeviceControl.h</text>
</a>
</g>
</g>
<!-- Node1&#45;&gt;Node6 -->
<g id="edge5" class="edge">
<title>Node1&#45;&gt;Node6</title>
<path fill="none" stroke="midnightblue" d="M220.08,-403.45C252.39,-392.06 289.11,-379.11 315.07,-369.96"/>
<polygon fill="midnightblue" stroke="midnightblue" points="316.54,-373.15 324.81,-366.53 314.22,-366.55 316.54,-373.15"/>
</g>
<!-- Node3 -->
<g id="node3" class="node">
<title>Node3</title>
<g id="a_node3"><a xlink:title=" ">
<polygon fill="white" stroke="#bfbfbf" points="243.5,-0.5 243.5,-19.5 296.5,-19.5 296.5,-0.5 243.5,-0.5"/>
<text text-anchor="middle" x="270" y="-7.5" font-family="Helvetica,sans-Serif" font-size="10.00">stdint.h</text>
</a>
</g>
</g>
<!-- Node2&#45;&gt;Node3 -->
<g id="edge2" class="edge">
<title>Node2&#45;&gt;Node3</title>
<path fill="none" stroke="midnightblue" d="M331.27,-56.32C320.16,-48.11 303.26,-35.6 290.02,-25.81"/>
<polygon fill="midnightblue" stroke="midnightblue" points="292.06,-22.97 281.94,-19.83 287.9,-28.59 292.06,-22.97"/>
</g>
<!-- Node4 -->
<g id="node4" class="node">
<title>Node4</title>
<g id="a_node4"><a xlink:title=" ">
<polygon fill="white" stroke="#bfbfbf" points="315,-0.5 315,-19.5 371,-19.5 371,-0.5 315,-0.5"/>
<text text-anchor="middle" x="343" y="-7.5" font-family="Helvetica,sans-Serif" font-size="10.00">stddef.h</text>
</a>
</g>
</g>
<!-- Node2&#45;&gt;Node4 -->
<g id="edge3" class="edge">
<title>Node2&#45;&gt;Node4</title>
<path fill="none" stroke="midnightblue" d="M343,-56.08C343,-49.01 343,-38.86 343,-29.99"/>
<polygon fill="midnightblue" stroke="midnightblue" points="346.5,-29.75 343,-19.75 339.5,-29.75 346.5,-29.75"/>
</g>
<!-- Node5 -->
<g id="node5" class="node">
<title>Node5</title>
<g id="a_node5"><a xlink:title=" ">
<polygon fill="white" stroke="#bfbfbf" points="389,-0.5 389,-19.5 451,-19.5 451,-0.5 389,-0.5"/>
<text text-anchor="middle" x="420" y="-7.5" font-family="Helvetica,sans-Serif" font-size="10.00">stdbool.h</text>
</a>
</g>
</g>
<!-- Node2&#45;&gt;Node5 -->
<g id="edge4" class="edge">
<title>Node2&#45;&gt;Node5</title>
<path fill="none" stroke="midnightblue" d="M355.37,-56.32C367.16,-48.06 385.13,-35.45 399.14,-25.63"/>
<polygon fill="midnightblue" stroke="midnightblue" points="401.48,-28.26 407.66,-19.65 397.46,-22.53 401.48,-28.26"/>
</g>
<!-- Node6&#45;&gt;Node2 -->
<g id="edge6" class="edge">
<title>Node6&#45;&gt;Node2</title>
<path fill="none" stroke="midnightblue" d="M417.19,-347.46C455.72,-340.9 504.02,-329.67 544,-311 587.41,-290.72 630,-293.91 630,-246 630,-246 630,-246 630,-182.5 630,-133.08 481.7,-95.03 398.31,-77.54"/>
<polygon fill="midnightblue" stroke="midnightblue" points="398.98,-74.1 388.48,-75.51 397.56,-80.96 398.98,-74.1"/>
</g>
<!-- Node7 -->
<g id="node7" class="node">
<title>Node7</title>
<g id="a_node7"><a xlink:href="_error_8h.html" target="_top" xlink:title="API for error handling.">
<polygon fill="white" stroke="black" points="48,-291.5 48,-310.5 136,-310.5 136,-291.5 48,-291.5"/>
<text text-anchor="middle" x="92" y="-298.5" font-family="Helvetica,sans-Serif" font-size="10.00">ifxBase/Error.h</text>
</a>
</g>
</g>
<!-- Node6&#45;&gt;Node7 -->
<g id="edge7" class="edge">
<title>Node6&#45;&gt;Node7</title>
<path fill="none" stroke="midnightblue" d="M308.28,-347.44C263.35,-338 191,-322.8 142.5,-312.61"/>
<polygon fill="midnightblue" stroke="midnightblue" points="143.04,-309.15 132.53,-310.52 141.6,-316 143.04,-309.15"/>
</g>
<!-- Node10 -->
<g id="node10" class="node">
<title>Node10</title>
<g id="a_node10"><a xlink:href="_list_8h.html" target="_top" xlink:title=" ">
<polygon fill="white" stroke="black" points="288.5,-235.5 288.5,-254.5 371.5,-254.5 371.5,-235.5 288.5,-235.5"/>
<text text-anchor="middle" x="330" y="-242.5" font-family="Helvetica,sans-Serif" font-size="10.00">ifxBase/List.h</text>
</a>
</g>
</g>
<!-- Node6&#45;&gt;Node10 -->
<g id="edge11" class="edge">
<title>Node6&#45;&gt;Node10</title>
<path fill="none" stroke="midnightblue" d="M341.33,-347.46C334.22,-338.93 324.15,-325.09 320,-311 315.47,-295.6 318.93,-277.5 322.98,-264.32"/>
<polygon fill="midnightblue" stroke="midnightblue" points="326.39,-265.17 326.35,-254.57 319.77,-262.88 326.39,-265.17"/>
</g>
<!-- Node11 -->
<g id="node11" class="node">
<title>Node11</title>
<g id="a_node11"><a xlink:href="_cube_8h.html" target="_top" xlink:title="API for operations on Cube data structures.">
<polygon fill="white" stroke="black" points="174,-291.5 174,-310.5 264,-310.5 264,-291.5 174,-291.5"/>
<text text-anchor="middle" x="219" y="-298.5" font-family="Helvetica,sans-Serif" font-size="10.00">ifxBase/Cube.h</text>
</a>
</g>
</g>
<!-- Node6&#45;&gt;Node11 -->
<g id="edge13" class="edge">
<title>Node6&#45;&gt;Node11</title>
<path fill="none" stroke="midnightblue" d="M328.4,-347.44C307.01,-338.56 273.32,-324.56 248.98,-314.45"/>
<polygon fill="midnightblue" stroke="midnightblue" points="250.08,-311.12 239.5,-310.52 247.39,-317.58 250.08,-311.12"/>
</g>
<!-- Node16 -->
<g id="node16" class="node">
<title>Node16</title>
<g id="a_node16"><a xlink:href="_device_config_8h.html" target="_top" xlink:title="API for Radar device configuration.">
<polygon fill="white" stroke="black" points="428.5,-235.5 428.5,-254.5 561.5,-254.5 561.5,-235.5 428.5,-235.5"/>
<text text-anchor="middle" x="495" y="-242.5" font-family="Helvetica,sans-Serif" font-size="10.00">ifxAvian/DeviceConfig.h</text>
</a>
</g>
</g>
<!-- Node6&#45;&gt;Node16 -->
<g id="edge22" class="edge">
<title>Node6&#45;&gt;Node16</title>
<path fill="none" stroke="midnightblue" d="M408.5,-347.43C432.71,-341.1 459.15,-330.11 477,-311 488.61,-298.58 492.84,-279.34 494.33,-265.01"/>
<polygon fill="midnightblue" stroke="midnightblue" points="497.83,-265.01 495.02,-254.8 490.85,-264.54 497.83,-265.01"/>
</g>
<!-- Node17 -->
<g id="node17" class="node">
<title>Node17</title>
<g id="a_node17"><a xlink:href="_radar_device_common_8h.html" target="_top" xlink:title="Header for ifxRadarDeviceCommon.">
<polygon fill="white" stroke="black" points="466,-168.5 466,-198.5 602,-198.5 602,-168.5 466,-168.5"/>
<text text-anchor="start" x="474" y="-186.5" font-family="Helvetica,sans-Serif" font-size="10.00">ifxRadarDeviceCommon</text>
<text text-anchor="middle" x="534" y="-175.5" font-family="Helvetica,sans-Serif" font-size="10.00">/RadarDeviceCommon.h</text>
</a>
</g>
</g>
<!-- Node6&#45;&gt;Node17 -->
<g id="edge30" class="edge">
<title>Node6&#45;&gt;Node17</title>
<path fill="none" stroke="midnightblue" d="M417.57,-347.49C471.68,-336.53 542.63,-311.59 571,-255 579.23,-238.58 568.94,-220.2 557.15,-206.33"/>
<polygon fill="midnightblue" stroke="midnightblue" points="559.5,-203.72 550.15,-198.73 554.35,-208.46 559.5,-203.72"/>
</g>
<!-- Node18 -->
<g id="node18" class="node">
<title>Node18</title>
<g id="a_node18"><a xlink:href="_recording_8h.html" target="_top" xlink:title="This file defines functions to handle Recordings.">
<polygon fill="white" stroke="black" points="328.5,-291.5 328.5,-310.5 467.5,-310.5 467.5,-291.5 328.5,-291.5"/>
<text text-anchor="middle" x="398" y="-298.5" font-family="Helvetica,sans-Serif" font-size="10.00">ifxRecording/Recording.h</text>
</a>
</g>
</g>
<!-- Node6&#45;&gt;Node18 -->
<g id="edge26" class="edge">
<title>Node6&#45;&gt;Node18</title>
<path fill="none" stroke="midnightblue" d="M357.09,-347.08C364.16,-339.3 374.59,-327.8 383.15,-318.37"/>
<polygon fill="midnightblue" stroke="midnightblue" points="385.93,-320.51 390.06,-310.75 380.75,-315.8 385.93,-320.51"/>
</g>
<!-- Node8 -->
<g id="node8" class="node">
<title>Node8</title>
<g id="a_node8"><a xlink:href="_log_8h.html" target="_top" xlink:title="API for logging.">
<polygon fill="white" stroke="black" points="28.5,-235.5 28.5,-254.5 111.5,-254.5 111.5,-235.5 28.5,-235.5"/>
<text text-anchor="middle" x="70" y="-242.5" font-family="Helvetica,sans-Serif" font-size="10.00">ifxBase/Log.h</text>
</a>
</g>
</g>
<!-- Node7&#45;&gt;Node8 -->
<g id="edge8" class="edge">
<title>Node7&#45;&gt;Node8</title>
<path fill="none" stroke="midnightblue" d="M88.37,-291.08C85.39,-283.77 81.07,-273.18 77.38,-264.1"/>
<polygon fill="midnightblue" stroke="midnightblue" points="80.58,-262.69 73.57,-254.75 74.1,-265.33 80.58,-262.69"/>
</g>
<!-- Node8&#45;&gt;Node2 -->
<g id="edge10" class="edge">
<title>Node8&#45;&gt;Node2</title>
<path fill="none" stroke="midnightblue" d="M74.41,-235.18C86.95,-211.1 125.31,-143.89 178,-112 210.92,-92.07 252.79,-80.79 286.12,-74.5"/>
<polygon fill="midnightblue" stroke="midnightblue" points="286.94,-77.91 296.17,-72.71 285.71,-71.02 286.94,-77.91"/>
</g>
<!-- Node9 -->
<g id="node9" class="node">
<title>Node9</title>
<g id="a_node9"><a xlink:title=" ">
<polygon fill="white" stroke="#bfbfbf" points="28,-174 28,-193 78,-193 78,-174 28,-174"/>
<text text-anchor="middle" x="53" y="-181" font-family="Helvetica,sans-Serif" font-size="10.00">stdio.h</text>
</a>
</g>
</g>
<!-- Node8&#45;&gt;Node9 -->
<g id="edge9" class="edge">
<title>Node8&#45;&gt;Node9</title>
<path fill="none" stroke="midnightblue" d="M67.56,-235.48C65.14,-226.99 61.34,-213.7 58.23,-202.82"/>
<polygon fill="midnightblue" stroke="midnightblue" points="61.54,-201.66 55.43,-193.01 54.81,-203.59 61.54,-201.66"/>
</g>
<!-- Node10&#45;&gt;Node2 -->
<g id="edge12" class="edge">
<title>Node10&#45;&gt;Node2</title>
<path fill="none" stroke="midnightblue" d="M330.63,-235.46C332.61,-208.43 338.8,-124.24 341.6,-86.11"/>
<polygon fill="midnightblue" stroke="midnightblue" points="345.11,-86.1 342.35,-75.87 338.13,-85.59 345.11,-86.1"/>
</g>
<!-- Node12 -->
<g id="node12" class="node">
<title>Node12</title>
<g id="a_node12"><a xlink:href="_defines_8h.html" target="_top" xlink:title="Internal definitions used by standard math.h functions as Macros, to use float or double precision.">
<polygon fill="white" stroke="black" points="168,-235.5 168,-254.5 270,-254.5 270,-235.5 168,-235.5"/>
<text text-anchor="middle" x="219" y="-242.5" font-family="Helvetica,sans-Serif" font-size="10.00">ifxBase/Defines.h</text>
</a>
</g>
</g>
<!-- Node11&#45;&gt;Node12 -->
<g id="edge14" class="edge">
<title>Node11&#45;&gt;Node12</title>
<path fill="none" stroke="midnightblue" d="M219,-291.08C219,-284.01 219,-273.86 219,-264.99"/>
<polygon fill="midnightblue" stroke="midnightblue" points="222.5,-264.75 219,-254.75 215.5,-264.75 222.5,-264.75"/>
</g>
<!-- Node15 -->
<g id="node15" class="node">
<title>Node15</title>
<g id="a_node15"><a xlink:href="_matrix_8h.html" target="_top" xlink:title="API for operations on Matrix data structures.">
<polygon fill="white" stroke="black" points="134.5,-174 134.5,-193 231.5,-193 231.5,-174 134.5,-174"/>
<text text-anchor="middle" x="183" y="-181" font-family="Helvetica,sans-Serif" font-size="10.00">ifxBase/Matrix.h</text>
</a>
</g>
</g>
<!-- Node11&#45;&gt;Node15 -->
<g id="edge19" class="edge">
<title>Node11&#45;&gt;Node15</title>
<path fill="none" stroke="midnightblue" d="M199.7,-291.48C185.57,-284.08 167.44,-271.89 159,-255 150.27,-237.55 160.18,-216.17 169.78,-201.56"/>
<polygon fill="midnightblue" stroke="midnightblue" points="172.89,-203.22 175.85,-193.04 167.19,-199.16 172.89,-203.22"/>
</g>
<!-- Node13 -->
<g id="node13" class="node">
<title>Node13</title>
<g id="a_node13"><a xlink:href="_math_8h.html" target="_top" xlink:title="API for Mathematical operations.">
<polygon fill="white" stroke="black" points="249.5,-174 249.5,-193 300.5,-193 300.5,-174 249.5,-174"/>
<text text-anchor="middle" x="275" y="-181" font-family="Helvetica,sans-Serif" font-size="10.00">math.h</text>
</a>
</g>
</g>
<!-- Node12&#45;&gt;Node13 -->
<g id="edge15" class="edge">
<title>Node12&#45;&gt;Node13</title>
<path fill="none" stroke="midnightblue" d="M227.02,-235.48C235.59,-226.37 249.36,-211.74 259.96,-200.48"/>
<polygon fill="midnightblue" stroke="midnightblue" points="262.69,-202.69 266.99,-193.01 257.59,-197.89 262.69,-202.69"/>
</g>
<!-- Node13&#45;&gt;Node2 -->
<g id="edge16" class="edge">
<title>Node13&#45;&gt;Node2</title>
<path fill="none" stroke="midnightblue" d="M280.11,-173.93C286.1,-163.9 296.3,-146.76 305,-132 314.41,-116.03 325.06,-97.8 332.69,-84.72"/>
<polygon fill="midnightblue" stroke="midnightblue" points="335.85,-86.25 337.86,-75.84 329.8,-82.72 335.85,-86.25"/>
</g>
<!-- Node14 -->
<g id="node14" class="node">
<title>Node14</title>
<g id="a_node14"><a xlink:href="_vector_8h.html" target="_top" xlink:title="API for operations on Vector data structures.">
<polygon fill="white" stroke="black" points="200.5,-112.5 200.5,-131.5 295.5,-131.5 295.5,-112.5 200.5,-112.5"/>
<text text-anchor="middle" x="248" y="-119.5" font-family="Helvetica,sans-Serif" font-size="10.00">ifxBase/Vector.h</text>
</a>
</g>
</g>
<!-- Node13&#45;&gt;Node14 -->
<g id="edge17" class="edge">
<title>Node13&#45;&gt;Node14</title>
<path fill="none" stroke="midnightblue" d="M271.13,-173.98C267.2,-165.32 261,-151.65 256.01,-140.65"/>
<polygon fill="midnightblue" stroke="midnightblue" points="259.18,-139.17 251.86,-131.51 252.81,-142.06 259.18,-139.17"/>
</g>
<!-- Node14&#45;&gt;Node2 -->
<g id="edge18" class="edge">
<title>Node14&#45;&gt;Node2</title>
<path fill="none" stroke="midnightblue" d="M263.26,-112.32C278.22,-103.82 301.25,-90.73 318.73,-80.8"/>
<polygon fill="midnightblue" stroke="midnightblue" points="320.81,-83.64 327.77,-75.65 317.35,-77.55 320.81,-83.64"/>
</g>
<!-- Node15&#45;&gt;Node2 -->
<g id="edge20" class="edge">
<title>Node15&#45;&gt;Node2</title>
<path fill="none" stroke="midnightblue" d="M181.39,-173.96C179.17,-159.41 176.98,-129.68 192,-112 215.01,-84.91 253.56,-73.72 285.95,-69.28"/>
<polygon fill="midnightblue" stroke="midnightblue" points="286.71,-72.72 296.22,-68.06 285.88,-65.76 286.71,-72.72"/>
</g>
<!-- Node15&#45;&gt;Node14 -->
<g id="edge21" class="edge">
<title>Node15&#45;&gt;Node14</title>
<path fill="none" stroke="midnightblue" d="M192.31,-173.98C202.45,-164.7 218.86,-149.67 231.25,-138.33"/>
<polygon fill="midnightblue" stroke="midnightblue" points="233.69,-140.84 238.7,-131.51 228.96,-135.68 233.69,-140.84"/>
</g>
<!-- Node16&#45;&gt;Node2 -->
<g id="edge23" class="edge">
<title>Node16&#45;&gt;Node2</title>
<path fill="none" stroke="midnightblue" d="M486.45,-235.21C478.26,-226.49 465.86,-212.51 457,-199 433.36,-162.93 442.84,-144.07 414,-112 402.07,-98.74 385.35,-87.88 371.13,-80.16"/>
<polygon fill="midnightblue" stroke="midnightblue" points="372.71,-77.03 362.22,-75.54 369.49,-83.25 372.71,-77.03"/>
</g>
<!-- Node16&#45;&gt;Node17 -->
<g id="edge24" class="edge">
<title>Node16&#45;&gt;Node17</title>
<path fill="none" stroke="midnightblue" d="M500.59,-235.48C505.43,-228.09 512.65,-217.08 519.14,-207.17"/>
<polygon fill="midnightblue" stroke="midnightblue" points="522.25,-208.81 524.81,-198.52 516.4,-204.97 522.25,-208.81"/>
</g>
<!-- Node17&#45;&gt;Node2 -->
<g id="edge25" class="edge">
<title>Node17&#45;&gt;Node2</title>
<path fill="none" stroke="midnightblue" d="M520.29,-168.25C504.83,-152.81 478.4,-128.21 452,-112 429.46,-98.15 401.9,-86.82 380.14,-78.99"/>
<polygon fill="midnightblue" stroke="midnightblue" points="381.18,-75.65 370.59,-75.64 378.87,-82.25 381.18,-75.65"/>
</g>
<!-- Node18&#45;&gt;Node2 -->
<g id="edge27" class="edge">
<title>Node18&#45;&gt;Node2</title>
<path fill="none" stroke="midnightblue" d="M395.98,-291.43C388.01,-257.68 358.69,-133.47 347.44,-85.8"/>
<polygon fill="midnightblue" stroke="midnightblue" points="350.8,-84.82 345.1,-75.9 343.99,-86.43 350.8,-84.82"/>
</g>
<!-- Node18&#45;&gt;Node10 -->
<g id="edge29" class="edge">
<title>Node18&#45;&gt;Node10</title>
<path fill="none" stroke="midnightblue" d="M387.07,-291.32C376.83,-283.18 361.28,-270.84 349,-261.09"/>
<polygon fill="midnightblue" stroke="midnightblue" points="351.13,-258.31 341.12,-254.83 346.78,-263.79 351.13,-258.31"/>
</g>
<!-- Node18&#45;&gt;Node16 -->
<g id="edge28" class="edge">
<title>Node18&#45;&gt;Node16</title>
<path fill="none" stroke="midnightblue" d="M413.58,-291.32C429,-282.74 452.81,-269.49 470.71,-259.52"/>
<polygon fill="midnightblue" stroke="midnightblue" points="472.42,-262.58 479.45,-254.65 469.01,-256.46 472.42,-262.58"/>
</g>
</g>
</svg>
