<?xml version="1.0" encoding="UTF-8" standalone="no"?>
<!DOCTYPE svg PUBLIC "-//W3C//DTD SVG 1.1//EN"
 "http://www.w3.org/Graphics/SVG/1.1/DTD/svg11.dtd">
<!-- Generated by graphviz version 2.43.0 (0)
 -->
<!-- Title: /home/jenkins/jenkins&#45;ci/workspace/er_release_release&#45;branch&#45;v3.3.1@2/sdk/c/ifxRadar/SpectrumAxis.h Pages: 1 -->
<svg width="248pt" height="285pt"
 viewBox="0.00 0.00 247.50 285.00" xmlns="http://www.w3.org/2000/svg" xmlns:xlink="http://www.w3.org/1999/xlink">
<g id="graph0" class="graph" transform="scale(1 1) rotate(0) translate(4 281)">
<title>/home/jenkins/jenkins&#45;ci/workspace/er_release_release&#45;branch&#45;v3.3.1@2/sdk/c/ifxRadar/SpectrumAxis.h</title>
<polygon fill="white" stroke="transparent" points="-4,4 -4,-281 243.5,-281 243.5,4 -4,4"/>
<!-- Node1 -->
<g id="node1" class="node">
<title>Node1</title>
<g id="a_node1"><a xlink:title="API for Spectrum Axis used by Range spectrum, Range Doppler and Range Angle Map modules.">
<polygon fill="#bfbfbf" stroke="black" points="12,-224.5 12,-276.5 181,-276.5 181,-224.5 12,-224.5"/>
<text text-anchor="start" x="20" y="-264.5" font-family="Helvetica,sans-Serif" font-size="10.00">/home/jenkins/jenkins</text>
<text text-anchor="start" x="20" y="-253.5" font-family="Helvetica,sans-Serif" font-size="10.00">&#45;ci/workspace/er_release</text>
<text text-anchor="start" x="20" y="-242.5" font-family="Helvetica,sans-Serif" font-size="10.00">_release&#45;branch&#45;v3.3.1@2</text>
<text text-anchor="middle" x="96.5" y="-231.5" font-family="Helvetica,sans-Serif" font-size="10.00">/sdk/c/ifxRadar/SpectrumAxis.h</text>
</a>
</g>
</g>
<!-- Node2 -->
<g id="node2" class="node">
<title>Node2</title>
<g id="a_node2"><a xlink:href="ifx_base_2_types_8h.html" target="_top" xlink:title="Definitions of data types used within the SDK.">
<polygon fill="white" stroke="black" points="53,-56.5 53,-75.5 146,-75.5 146,-56.5 53,-56.5"/>
<text text-anchor="middle" x="99.5" y="-63.5" font-family="Helvetica,sans-Serif" font-size="10.00">ifxBase/Types.h</text>
</a>
</g>
</g>
<!-- Node1&#45;&gt;Node2 -->
<g id="edge1" class="edge">
<title>Node1&#45;&gt;Node2</title>
<path fill="none" stroke="midnightblue" d="M66.93,-224.23C57.22,-214.08 47.61,-201.56 42.5,-188 39.37,-179.68 40.24,-176.6 42.5,-168 50.99,-135.7 72.4,-102.86 86.43,-83.73"/>
<polygon fill="midnightblue" stroke="midnightblue" points="89.41,-85.6 92.64,-75.51 83.82,-81.39 89.41,-85.6"/>
</g>
<!-- Node6 -->
<g id="node6" class="node">
<title>Node6</title>
<g id="a_node6"><a xlink:href="_math_8h.html" target="_top" xlink:title="API for Mathematical operations.">
<polygon fill="white" stroke="black" points="51.5,-168.5 51.5,-187.5 141.5,-187.5 141.5,-168.5 51.5,-168.5"/>
<text text-anchor="middle" x="96.5" y="-175.5" font-family="Helvetica,sans-Serif" font-size="10.00">ifxBase/Math.h</text>
</a>
</g>
</g>
<!-- Node1&#45;&gt;Node6 -->
<g id="edge5" class="edge">
<title>Node1&#45;&gt;Node6</title>
<path fill="none" stroke="midnightblue" d="M96.5,-224.45C96.5,-215.73 96.5,-206.1 96.5,-197.96"/>
<polygon fill="midnightblue" stroke="midnightblue" points="100,-197.7 96.5,-187.7 93,-197.7 100,-197.7"/>
</g>
<!-- Node8 -->
<g id="node8" class="node">
<title>Node8</title>
<g id="a_node8"><a xlink:href="_f_f_t_8h.html" target="_top" xlink:title="API for Fast Fourier Transform (FFT)">
<polygon fill="white" stroke="black" points="159.5,-168.5 159.5,-187.5 239.5,-187.5 239.5,-168.5 159.5,-168.5"/>
<text text-anchor="middle" x="199.5" y="-175.5" font-family="Helvetica,sans-Serif" font-size="10.00">ifxAlgo/FFT.h</text>
</a>
</g>
</g>
<!-- Node1&#45;&gt;Node8 -->
<g id="edge9" class="edge">
<title>Node1&#45;&gt;Node8</title>
<path fill="none" stroke="midnightblue" d="M133.1,-224.45C148.33,-214.03 165.45,-202.31 178.49,-193.38"/>
<polygon fill="midnightblue" stroke="midnightblue" points="180.52,-196.23 186.8,-187.7 176.57,-190.46 180.52,-196.23"/>
</g>
<!-- Node3 -->
<g id="node3" class="node">
<title>Node3</title>
<g id="a_node3"><a xlink:title=" ">
<polygon fill="white" stroke="#bfbfbf" points="0,-0.5 0,-19.5 53,-19.5 53,-0.5 0,-0.5"/>
<text text-anchor="middle" x="26.5" y="-7.5" font-family="Helvetica,sans-Serif" font-size="10.00">stdint.h</text>
</a>
</g>
</g>
<!-- Node2&#45;&gt;Node3 -->
<g id="edge2" class="edge">
<title>Node2&#45;&gt;Node3</title>
<path fill="none" stroke="midnightblue" d="M87.77,-56.32C76.66,-48.11 59.76,-35.6 46.52,-25.81"/>
<polygon fill="midnightblue" stroke="midnightblue" points="48.56,-22.97 38.44,-19.83 44.4,-28.59 48.56,-22.97"/>
</g>
<!-- Node4 -->
<g id="node4" class="node">
<title>Node4</title>
<g id="a_node4"><a xlink:title=" ">
<polygon fill="white" stroke="#bfbfbf" points="71.5,-0.5 71.5,-19.5 127.5,-19.5 127.5,-0.5 71.5,-0.5"/>
<text text-anchor="middle" x="99.5" y="-7.5" font-family="Helvetica,sans-Serif" font-size="10.00">stddef.h</text>
</a>
</g>
</g>
<!-- Node2&#45;&gt;Node4 -->
<g id="edge3" class="edge">
<title>Node2&#45;&gt;Node4</title>
<path fill="none" stroke="midnightblue" d="M99.5,-56.08C99.5,-49.01 99.5,-38.86 99.5,-29.99"/>
<polygon fill="midnightblue" stroke="midnightblue" points="103,-29.75 99.5,-19.75 96,-29.75 103,-29.75"/>
</g>
<!-- Node5 -->
<g id="node5" class="node">
<title>Node5</title>
<g id="a_node5"><a xlink:title=" ">
<polygon fill="white" stroke="#bfbfbf" points="145.5,-0.5 145.5,-19.5 207.5,-19.5 207.5,-0.5 145.5,-0.5"/>
<text text-anchor="middle" x="176.5" y="-7.5" font-family="Helvetica,sans-Serif" font-size="10.00">stdbool.h</text>
</a>
</g>
</g>
<!-- Node2&#45;&gt;Node5 -->
<g id="edge4" class="edge">
<title>Node2&#45;&gt;Node5</title>
<path fill="none" stroke="midnightblue" d="M111.87,-56.32C123.66,-48.06 141.63,-35.45 155.64,-25.63"/>
<polygon fill="midnightblue" stroke="midnightblue" points="157.98,-28.26 164.16,-19.65 153.96,-22.53 157.98,-28.26"/>
</g>
<!-- Node6&#45;&gt;Node2 -->
<g id="edge6" class="edge">
<title>Node6&#45;&gt;Node2</title>
<path fill="none" stroke="midnightblue" d="M91.81,-168.22C85.73,-155.78 76.4,-132.28 80.5,-112 82.39,-102.65 86.29,-92.83 90.07,-84.75"/>
<polygon fill="midnightblue" stroke="midnightblue" points="93.29,-86.14 94.62,-75.63 87.03,-83.01 93.29,-86.14"/>
</g>
<!-- Node7 -->
<g id="node7" class="node">
<title>Node7</title>
<g id="a_node7"><a xlink:href="_vector_8h.html" target="_top" xlink:title="API for operations on Vector data structures.">
<polygon fill="white" stroke="black" points="90,-112.5 90,-131.5 185,-131.5 185,-112.5 90,-112.5"/>
<text text-anchor="middle" x="137.5" y="-119.5" font-family="Helvetica,sans-Serif" font-size="10.00">ifxBase/Vector.h</text>
</a>
</g>
</g>
<!-- Node6&#45;&gt;Node7 -->
<g id="edge7" class="edge">
<title>Node6&#45;&gt;Node7</title>
<path fill="none" stroke="midnightblue" d="M103.27,-168.08C109.06,-160.46 117.56,-149.26 124.64,-139.94"/>
<polygon fill="midnightblue" stroke="midnightblue" points="127.6,-141.83 130.86,-131.75 122.02,-137.6 127.6,-141.83"/>
</g>
<!-- Node7&#45;&gt;Node2 -->
<g id="edge8" class="edge">
<title>Node7&#45;&gt;Node2</title>
<path fill="none" stroke="midnightblue" d="M131.23,-112.08C125.86,-104.46 117.98,-93.26 111.42,-83.94"/>
<polygon fill="midnightblue" stroke="midnightblue" points="114.28,-81.91 105.66,-75.75 108.55,-85.94 114.28,-81.91"/>
</g>
<!-- Node8&#45;&gt;Node2 -->
<g id="edge10" class="edge">
<title>Node8&#45;&gt;Node2</title>
<path fill="none" stroke="midnightblue" d="M201.24,-168.09C203.35,-154.64 205.28,-128.93 193.5,-112 182.51,-96.21 164.44,-85.78 147.06,-78.97"/>
<polygon fill="midnightblue" stroke="midnightblue" points="148.12,-75.63 137.52,-75.55 145.76,-82.22 148.12,-75.63"/>
</g>
<!-- Node8&#45;&gt;Node7 -->
<g id="edge11" class="edge">
<title>Node8&#45;&gt;Node7</title>
<path fill="none" stroke="midnightblue" d="M189.54,-168.32C180.37,-160.34 166.56,-148.31 155.47,-138.65"/>
<polygon fill="midnightblue" stroke="midnightblue" points="157.48,-135.76 147.64,-131.83 152.88,-141.04 157.48,-135.76"/>
</g>
</g>
</svg>
