<?xml version="1.0" encoding="UTF-8" standalone="no"?>
<!DOCTYPE svg PUBLIC "-//W3C//DTD SVG 1.1//EN"
 "http://www.w3.org/Graphics/SVG/1.1/DTD/svg11.dtd">
<!-- Generated by graphviz version 2.43.0 (0)
 -->
<!-- Title: /home/jenkins/jenkins&#45;ci/workspace/er_release_release&#45;branch&#45;v3.3.1@2/sdk/c/ifxUtil/Util.h Pages: 1 -->
<svg width="588pt" height="397pt"
 viewBox="0.00 0.00 588.00 397.00" xmlns="http://www.w3.org/2000/svg" xmlns:xlink="http://www.w3.org/1999/xlink">
<g id="graph0" class="graph" transform="scale(1 1) rotate(0) translate(4 393)">
<title>/home/jenkins/jenkins&#45;ci/workspace/er_release_release&#45;branch&#45;v3.3.1@2/sdk/c/ifxUtil/Util.h</title>
<polygon fill="white" stroke="transparent" points="-4,4 -4,-393 584,-393 584,4 -4,4"/>
<!-- Node1 -->
<g id="node1" class="node">
<title>Node1</title>
<g id="a_node1"><a xlink:title="This file defines some utility functions like printing to, reading from files or printing to console....">
<polygon fill="#bfbfbf" stroke="black" points="190,-336.5 190,-388.5 333,-388.5 333,-336.5 190,-336.5"/>
<text text-anchor="start" x="198" y="-376.5" font-family="Helvetica,sans-Serif" font-size="10.00">/home/jenkins/jenkins</text>
<text text-anchor="start" x="198" y="-365.5" font-family="Helvetica,sans-Serif" font-size="10.00">&#45;ci/workspace/er_release</text>
<text text-anchor="start" x="198" y="-354.5" font-family="Helvetica,sans-Serif" font-size="10.00">_release&#45;branch&#45;v3.3.1@2</text>
<text text-anchor="middle" x="261.5" y="-343.5" font-family="Helvetica,sans-Serif" font-size="10.00">/sdk/c/ifxUtil/Util.h</text>
</a>
</g>
</g>
<!-- Node2 -->
<g id="node2" class="node">
<title>Node2</title>
<g id="a_node2"><a xlink:title=" ">
<polygon fill="white" stroke="#bfbfbf" points="0,-280.5 0,-299.5 53,-299.5 53,-280.5 0,-280.5"/>
<text text-anchor="middle" x="26.5" y="-287.5" font-family="Helvetica,sans-Serif" font-size="10.00">stdlib.h</text>
</a>
</g>
</g>
<!-- Node1&#45;&gt;Node2 -->
<g id="edge1" class="edge">
<title>Node1&#45;&gt;Node2</title>
<path fill="none" stroke="midnightblue" d="M189.72,-339.96C147.88,-327.41 96.89,-312.12 63.15,-302"/>
<polygon fill="midnightblue" stroke="midnightblue" points="63.85,-298.55 53.26,-299.03 61.84,-305.26 63.85,-298.55"/>
</g>
<!-- Node3 -->
<g id="node3" class="node">
<title>Node3</title>
<g id="a_node3"><a xlink:title=" ">
<polygon fill="white" stroke="#bfbfbf" points="97.5,-168.5 97.5,-187.5 147.5,-187.5 147.5,-168.5 97.5,-168.5"/>
<text text-anchor="middle" x="122.5" y="-175.5" font-family="Helvetica,sans-Serif" font-size="10.00">stdio.h</text>
</a>
</g>
</g>
<!-- Node1&#45;&gt;Node3 -->
<g id="edge2" class="edge">
<title>Node1&#45;&gt;Node3</title>
<path fill="none" stroke="midnightblue" d="M189.87,-352.71C156.9,-344.68 120.69,-329.33 100.5,-300 78.69,-268.33 98.46,-221.34 112.09,-196.25"/>
<polygon fill="midnightblue" stroke="midnightblue" points="115.17,-197.93 117.09,-187.51 109.09,-194.46 115.17,-197.93"/>
</g>
<!-- Node4 -->
<g id="node4" class="node">
<title>Node4</title>
<g id="a_node4"><a xlink:title=" ">
<polygon fill="white" stroke="#bfbfbf" points="527,-280.5 527,-299.5 580,-299.5 580,-280.5 527,-280.5"/>
<text text-anchor="middle" x="553.5" y="-287.5" font-family="Helvetica,sans-Serif" font-size="10.00">string.h</text>
</a>
</g>
</g>
<!-- Node1&#45;&gt;Node4 -->
<g id="edge3" class="edge">
<title>Node1&#45;&gt;Node4</title>
<path fill="none" stroke="midnightblue" d="M333.03,-344.72C382.22,-333.11 449.3,-317.11 516.8,-300.4"/>
<polygon fill="midnightblue" stroke="midnightblue" points="517.9,-303.73 526.76,-297.93 516.21,-296.94 517.9,-303.73"/>
</g>
<!-- Node5 -->
<g id="node5" class="node">
<title>Node5</title>
<g id="a_node5"><a xlink:href="_vector_8h.html" target="_top" xlink:title="API for operations on Vector data structures.">
<polygon fill="white" stroke="black" points="323,-112.5 323,-131.5 418,-131.5 418,-112.5 323,-112.5"/>
<text text-anchor="middle" x="370.5" y="-119.5" font-family="Helvetica,sans-Serif" font-size="10.00">ifxBase/Vector.h</text>
</a>
</g>
</g>
<!-- Node1&#45;&gt;Node5 -->
<g id="edge4" class="edge">
<title>Node1&#45;&gt;Node5</title>
<path fill="none" stroke="midnightblue" d="M315.08,-336.35C329.52,-326.97 343.59,-314.89 352.5,-300 382.83,-249.27 377.88,-175.48 373.44,-141.45"/>
<polygon fill="midnightblue" stroke="midnightblue" points="376.9,-140.92 372,-131.52 369.97,-141.92 376.9,-140.92"/>
</g>
<!-- Node10 -->
<g id="node10" class="node">
<title>Node10</title>
<g id="a_node10"><a xlink:href="_matrix_8h.html" target="_top" xlink:title="API for operations on Matrix data structures.">
<polygon fill="white" stroke="black" points="246,-168.5 246,-187.5 343,-187.5 343,-168.5 246,-168.5"/>
<text text-anchor="middle" x="294.5" y="-175.5" font-family="Helvetica,sans-Serif" font-size="10.00">ifxBase/Matrix.h</text>
</a>
</g>
</g>
<!-- Node1&#45;&gt;Node10 -->
<g id="edge9" class="edge">
<title>Node1&#45;&gt;Node10</title>
<path fill="none" stroke="midnightblue" d="M250.59,-336.46C244.95,-320.3 240.09,-298.86 244.5,-280 251.86,-248.55 270.52,-215.65 282.85,-196.26"/>
<polygon fill="midnightblue" stroke="midnightblue" points="285.93,-197.95 288.47,-187.66 280.07,-194.12 285.93,-197.95"/>
</g>
<!-- Node11 -->
<g id="node11" class="node">
<title>Node11</title>
<g id="a_node11"><a xlink:href="_cube_8h.html" target="_top" xlink:title="API for operations on Cube data structures.">
<polygon fill="white" stroke="black" points="253.5,-280.5 253.5,-299.5 343.5,-299.5 343.5,-280.5 253.5,-280.5"/>
<text text-anchor="middle" x="298.5" y="-287.5" font-family="Helvetica,sans-Serif" font-size="10.00">ifxBase/Cube.h</text>
</a>
</g>
</g>
<!-- Node1&#45;&gt;Node11 -->
<g id="edge12" class="edge">
<title>Node1&#45;&gt;Node11</title>
<path fill="none" stroke="midnightblue" d="M274.65,-336.45C279.49,-327.23 284.86,-317 289.28,-308.58"/>
<polygon fill="midnightblue" stroke="midnightblue" points="292.39,-310.18 293.94,-299.7 286.19,-306.92 292.39,-310.18"/>
</g>
<!-- Node14 -->
<g id="node14" class="node">
<title>Node14</title>
<g id="a_node14"><a xlink:href="_complex_8h.html" target="_top" xlink:title="API for operations on complex numbers.">
<polygon fill="white" stroke="black" points="400,-280.5 400,-299.5 509,-299.5 509,-280.5 400,-280.5"/>
<text text-anchor="middle" x="454.5" y="-287.5" font-family="Helvetica,sans-Serif" font-size="10.00">ifxBase/Complex.h</text>
</a>
</g>
</g>
<!-- Node1&#45;&gt;Node14 -->
<g id="edge18" class="edge">
<title>Node1&#45;&gt;Node14</title>
<path fill="none" stroke="midnightblue" d="M330.09,-336.45C361.27,-325.06 396.71,-312.11 421.76,-302.96"/>
<polygon fill="midnightblue" stroke="midnightblue" points="422.96,-306.25 431.16,-299.53 420.56,-299.67 422.96,-306.25"/>
</g>
<!-- Node15 -->
<g id="node15" class="node">
<title>Node15</title>
<g id="a_node15"><a xlink:href="_error_8h.html" target="_top" xlink:title="API for error handling.">
<polygon fill="white" stroke="black" points="109.5,-280.5 109.5,-299.5 197.5,-299.5 197.5,-280.5 109.5,-280.5"/>
<text text-anchor="middle" x="153.5" y="-287.5" font-family="Helvetica,sans-Serif" font-size="10.00">ifxBase/Error.h</text>
</a>
</g>
</g>
<!-- Node1&#45;&gt;Node15 -->
<g id="edge21" class="edge">
<title>Node1&#45;&gt;Node15</title>
<path fill="none" stroke="midnightblue" d="M223.12,-336.45C207.06,-325.96 188.98,-314.16 175.28,-305.22"/>
<polygon fill="midnightblue" stroke="midnightblue" points="176.85,-302.06 166.56,-299.53 173.02,-307.92 176.85,-302.06"/>
</g>
<!-- Node6 -->
<g id="node6" class="node">
<title>Node6</title>
<g id="a_node6"><a xlink:href="ifx_base_2_types_8h.html" target="_top" xlink:title="Definitions of data types used within the SDK.">
<polygon fill="white" stroke="black" points="324,-56.5 324,-75.5 417,-75.5 417,-56.5 324,-56.5"/>
<text text-anchor="middle" x="370.5" y="-63.5" font-family="Helvetica,sans-Serif" font-size="10.00">ifxBase/Types.h</text>
</a>
</g>
</g>
<!-- Node5&#45;&gt;Node6 -->
<g id="edge5" class="edge">
<title>Node5&#45;&gt;Node6</title>
<path fill="none" stroke="midnightblue" d="M370.5,-112.08C370.5,-105.01 370.5,-94.86 370.5,-85.99"/>
<polygon fill="midnightblue" stroke="midnightblue" points="374,-85.75 370.5,-75.75 367,-85.75 374,-85.75"/>
</g>
<!-- Node7 -->
<g id="node7" class="node">
<title>Node7</title>
<g id="a_node7"><a xlink:title=" ">
<polygon fill="white" stroke="#bfbfbf" points="271,-0.5 271,-19.5 324,-19.5 324,-0.5 271,-0.5"/>
<text text-anchor="middle" x="297.5" y="-7.5" font-family="Helvetica,sans-Serif" font-size="10.00">stdint.h</text>
</a>
</g>
</g>
<!-- Node6&#45;&gt;Node7 -->
<g id="edge6" class="edge">
<title>Node6&#45;&gt;Node7</title>
<path fill="none" stroke="midnightblue" d="M358.77,-56.32C347.66,-48.11 330.76,-35.6 317.52,-25.81"/>
<polygon fill="midnightblue" stroke="midnightblue" points="319.56,-22.97 309.44,-19.83 315.4,-28.59 319.56,-22.97"/>
</g>
<!-- Node8 -->
<g id="node8" class="node">
<title>Node8</title>
<g id="a_node8"><a xlink:title=" ">
<polygon fill="white" stroke="#bfbfbf" points="342.5,-0.5 342.5,-19.5 398.5,-19.5 398.5,-0.5 342.5,-0.5"/>
<text text-anchor="middle" x="370.5" y="-7.5" font-family="Helvetica,sans-Serif" font-size="10.00">stddef.h</text>
</a>
</g>
</g>
<!-- Node6&#45;&gt;Node8 -->
<g id="edge7" class="edge">
<title>Node6&#45;&gt;Node8</title>
<path fill="none" stroke="midnightblue" d="M370.5,-56.08C370.5,-49.01 370.5,-38.86 370.5,-29.99"/>
<polygon fill="midnightblue" stroke="midnightblue" points="374,-29.75 370.5,-19.75 367,-29.75 374,-29.75"/>
</g>
<!-- Node9 -->
<g id="node9" class="node">
<title>Node9</title>
<g id="a_node9"><a xlink:title=" ">
<polygon fill="white" stroke="#bfbfbf" points="416.5,-0.5 416.5,-19.5 478.5,-19.5 478.5,-0.5 416.5,-0.5"/>
<text text-anchor="middle" x="447.5" y="-7.5" font-family="Helvetica,sans-Serif" font-size="10.00">stdbool.h</text>
</a>
</g>
</g>
<!-- Node6&#45;&gt;Node9 -->
<g id="edge8" class="edge">
<title>Node6&#45;&gt;Node9</title>
<path fill="none" stroke="midnightblue" d="M382.87,-56.32C394.66,-48.06 412.63,-35.45 426.64,-25.63"/>
<polygon fill="midnightblue" stroke="midnightblue" points="428.98,-28.26 435.16,-19.65 424.96,-22.53 428.98,-28.26"/>
</g>
<!-- Node10&#45;&gt;Node5 -->
<g id="edge11" class="edge">
<title>Node10&#45;&gt;Node5</title>
<path fill="none" stroke="midnightblue" d="M306.71,-168.32C318.28,-160.11 335.88,-147.6 349.66,-137.81"/>
<polygon fill="midnightblue" stroke="midnightblue" points="351.94,-140.48 358.07,-131.83 347.89,-134.77 351.94,-140.48"/>
</g>
<!-- Node10&#45;&gt;Node6 -->
<g id="edge10" class="edge">
<title>Node10&#45;&gt;Node6</title>
<path fill="none" stroke="midnightblue" d="M295.52,-168.3C297.42,-155.13 302.43,-129.78 314.5,-112 322.84,-99.7 335.55,-89.11 346.75,-81.29"/>
<polygon fill="midnightblue" stroke="midnightblue" points="348.89,-84.07 355.3,-75.64 345.03,-78.23 348.89,-84.07"/>
</g>
<!-- Node11&#45;&gt;Node10 -->
<g id="edge17" class="edge">
<title>Node11&#45;&gt;Node10</title>
<path fill="none" stroke="midnightblue" d="M298.19,-280.37C297.54,-262.62 296.05,-221.67 295.18,-197.6"/>
<polygon fill="midnightblue" stroke="midnightblue" points="298.67,-197.46 294.81,-187.59 291.68,-197.71 298.67,-197.46"/>
</g>
<!-- Node12 -->
<g id="node12" class="node">
<title>Node12</title>
<g id="a_node12"><a xlink:href="_defines_8h.html" target="_top" xlink:title="Internal definitions used by standard math.h functions as Macros, to use float or double precision.">
<polygon fill="white" stroke="black" points="399.5,-224.5 399.5,-243.5 501.5,-243.5 501.5,-224.5 399.5,-224.5"/>
<text text-anchor="middle" x="450.5" y="-231.5" font-family="Helvetica,sans-Serif" font-size="10.00">ifxBase/Defines.h</text>
</a>
</g>
</g>
<!-- Node11&#45;&gt;Node12 -->
<g id="edge13" class="edge">
<title>Node11&#45;&gt;Node12</title>
<path fill="none" stroke="midnightblue" d="M322.58,-280.44C348.04,-271.4 388.39,-257.06 416.96,-246.92"/>
<polygon fill="midnightblue" stroke="midnightblue" points="418.28,-250.16 426.53,-243.52 415.93,-243.57 418.28,-250.16"/>
</g>
<!-- Node13 -->
<g id="node13" class="node">
<title>Node13</title>
<g id="a_node13"><a xlink:href="_math_8h.html" target="_top" xlink:title="API for Mathematical operations.">
<polygon fill="white" stroke="black" points="421,-168.5 421,-187.5 472,-187.5 472,-168.5 421,-168.5"/>
<text text-anchor="middle" x="446.5" y="-175.5" font-family="Helvetica,sans-Serif" font-size="10.00">math.h</text>
</a>
</g>
</g>
<!-- Node12&#45;&gt;Node13 -->
<g id="edge14" class="edge">
<title>Node12&#45;&gt;Node13</title>
<path fill="none" stroke="midnightblue" d="M449.84,-224.08C449.32,-217.01 448.56,-206.86 447.91,-197.99"/>
<polygon fill="midnightblue" stroke="midnightblue" points="451.38,-197.47 447.15,-187.75 444.4,-197.98 451.38,-197.47"/>
</g>
<!-- Node13&#45;&gt;Node5 -->
<g id="edge16" class="edge">
<title>Node13&#45;&gt;Node5</title>
<path fill="none" stroke="midnightblue" d="M434.29,-168.32C422.72,-160.11 405.12,-147.6 391.34,-137.81"/>
<polygon fill="midnightblue" stroke="midnightblue" points="393.11,-134.77 382.93,-131.83 389.06,-140.48 393.11,-134.77"/>
</g>
<!-- Node13&#45;&gt;Node6 -->
<g id="edge15" class="edge">
<title>Node13&#45;&gt;Node6</title>
<path fill="none" stroke="midnightblue" d="M445.65,-168.29C444.02,-155.11 439.47,-129.74 427.5,-112 419.1,-99.55 406.17,-88.94 394.75,-81.15"/>
<polygon fill="midnightblue" stroke="midnightblue" points="396.33,-78.01 386.03,-75.54 392.54,-83.89 396.33,-78.01"/>
</g>
<!-- Node14&#45;&gt;Node6 -->
<g id="edge20" class="edge">
<title>Node14&#45;&gt;Node6</title>
<path fill="none" stroke="midnightblue" d="M472,-280.46C485.29,-272.92 502.58,-260.53 510.5,-244 514.34,-235.98 512.6,-232.64 510.5,-224 496.88,-168.08 486.82,-152.06 445.5,-112 432.09,-98.99 414.24,-88.09 399.32,-80.28"/>
<polygon fill="midnightblue" stroke="midnightblue" points="400.52,-76.97 390.02,-75.6 397.38,-83.22 400.52,-76.97"/>
</g>
<!-- Node14&#45;&gt;Node12 -->
<g id="edge19" class="edge">
<title>Node14&#45;&gt;Node12</title>
<path fill="none" stroke="midnightblue" d="M453.84,-280.08C453.32,-273.01 452.56,-262.86 451.91,-253.99"/>
<polygon fill="midnightblue" stroke="midnightblue" points="455.38,-253.47 451.15,-243.75 448.4,-253.98 455.38,-253.47"/>
</g>
<!-- Node16 -->
<g id="node16" class="node">
<title>Node16</title>
<g id="a_node16"><a xlink:href="_log_8h.html" target="_top" xlink:title="API for logging.">
<polygon fill="white" stroke="black" points="112,-224.5 112,-243.5 195,-243.5 195,-224.5 112,-224.5"/>
<text text-anchor="middle" x="153.5" y="-231.5" font-family="Helvetica,sans-Serif" font-size="10.00">ifxBase/Log.h</text>
</a>
</g>
</g>
<!-- Node15&#45;&gt;Node16 -->
<g id="edge22" class="edge">
<title>Node15&#45;&gt;Node16</title>
<path fill="none" stroke="midnightblue" d="M153.5,-280.08C153.5,-273.01 153.5,-262.86 153.5,-253.99"/>
<polygon fill="midnightblue" stroke="midnightblue" points="157,-253.75 153.5,-243.75 150,-253.75 157,-253.75"/>
</g>
<!-- Node16&#45;&gt;Node3 -->
<g id="edge23" class="edge">
<title>Node16&#45;&gt;Node3</title>
<path fill="none" stroke="midnightblue" d="M148.38,-224.08C144.09,-216.61 137.84,-205.72 132.56,-196.52"/>
<polygon fill="midnightblue" stroke="midnightblue" points="135.54,-194.68 127.52,-187.75 129.47,-198.17 135.54,-194.68"/>
</g>
<!-- Node16&#45;&gt;Node6 -->
<g id="edge24" class="edge">
<title>Node16&#45;&gt;Node6</title>
<path fill="none" stroke="midnightblue" d="M163.16,-224.37C186.21,-203.93 246.55,-151.34 300.5,-112 315.58,-101 333.27,-89.65 347.09,-81.09"/>
<polygon fill="midnightblue" stroke="midnightblue" points="349.26,-83.87 355.96,-75.66 345.61,-77.9 349.26,-83.87"/>
</g>
</g>
</svg>
