<?xml version="1.0" encoding="UTF-8" standalone="no"?>
<!DOCTYPE svg PUBLIC "-//W3C//DTD SVG 1.1//EN"
 "http://www.w3.org/Graphics/SVG/1.1/DTD/svg11.dtd">
<!-- Generated by graphviz version 2.43.0 (0)
 -->
<!-- Title: /home/jenkins/jenkins&#45;ci/workspace/er_release_release&#45;branch&#45;v3.3.1@2/sdk/c/ifxAlgo/Window.h Pages: 1 -->
<svg width="678pt" height="417pt"
 viewBox="0.00 0.00 677.50 417.00" xmlns="http://www.w3.org/2000/svg" xmlns:xlink="http://www.w3.org/1999/xlink">
<g id="graph0" class="graph" transform="scale(1 1) rotate(0) translate(4 413)">
<title>/home/jenkins/jenkins&#45;ci/workspace/er_release_release&#45;branch&#45;v3.3.1@2/sdk/c/ifxAlgo/Window.h</title>
<polygon fill="white" stroke="transparent" points="-4,4 -4,-413 673.5,-413 673.5,4 -4,4"/>
<!-- Node1 -->
<g id="node1" class="node">
<title>Node1</title>
<g id="a_node1"><a xlink:title="API for Window function processing.">
<polygon fill="#bfbfbf" stroke="black" points="308,-356.5 308,-408.5 451,-408.5 451,-356.5 308,-356.5"/>
<text text-anchor="start" x="316" y="-396.5" font-family="Helvetica,sans-Serif" font-size="10.00">/home/jenkins/jenkins</text>
<text text-anchor="start" x="316" y="-385.5" font-family="Helvetica,sans-Serif" font-size="10.00">&#45;ci/workspace/er_release</text>
<text text-anchor="start" x="316" y="-374.5" font-family="Helvetica,sans-Serif" font-size="10.00">_release&#45;branch&#45;v3.3.1@2</text>
<text text-anchor="middle" x="379.5" y="-363.5" font-family="Helvetica,sans-Serif" font-size="10.00">/sdk/c/ifxAlgo/Window.h</text>
</a>
</g>
</g>
<!-- Node2 -->
<g id="node2" class="node">
<title>Node2</title>
<g id="a_node2"><a xlink:href="_algo_8h.html" target="_top" xlink:title="Header for ifxAlgo.">
<polygon fill="white" stroke="black" points="0,-178.5 0,-230.5 143,-230.5 143,-178.5 0,-178.5"/>
<text text-anchor="start" x="8" y="-218.5" font-family="Helvetica,sans-Serif" font-size="10.00">/home/jenkins/jenkins</text>
<text text-anchor="start" x="8" y="-207.5" font-family="Helvetica,sans-Serif" font-size="10.00">&#45;ci/workspace/er_release</text>
<text text-anchor="start" x="8" y="-196.5" font-family="Helvetica,sans-Serif" font-size="10.00">_release&#45;branch&#45;v3.3.1@2</text>
<text text-anchor="middle" x="71.5" y="-185.5" font-family="Helvetica,sans-Serif" font-size="10.00">/sdk/c/ifxAlgo/Algo.h</text>
</a>
</g>
</g>
<!-- Node1&#45;&gt;Node2 -->
<g id="edge1" class="edge">
<title>Node1&#45;&gt;Node2</title>
<path fill="none" stroke="midnightblue" d="M297.72,-365.93C260.41,-356.42 216.78,-341.79 181.5,-320 143.27,-296.39 109.13,-256.43 89.37,-230.51"/>
<polygon fill="midnightblue" stroke="midnightblue" points="297.02,-369.36 307.56,-368.36 298.69,-362.56 297.02,-369.36"/>
</g>
<!-- Node3 -->
<g id="node3" class="node">
<title>Node3</title>
<g id="a_node3"><a xlink:href="_preprocessed_f_f_t_8h.html" target="_top" xlink:title="API for Pre&#45;processed FFT.">
<polygon fill="white" stroke="black" points="190.5,-267.5 190.5,-319.5 366.5,-319.5 366.5,-267.5 190.5,-267.5"/>
<text text-anchor="start" x="198.5" y="-307.5" font-family="Helvetica,sans-Serif" font-size="10.00">/home/jenkins/jenkins</text>
<text text-anchor="start" x="198.5" y="-296.5" font-family="Helvetica,sans-Serif" font-size="10.00">&#45;ci/workspace/er_release</text>
<text text-anchor="start" x="198.5" y="-285.5" font-family="Helvetica,sans-Serif" font-size="10.00">_release&#45;branch&#45;v3.3.1@2</text>
<text text-anchor="middle" x="278.5" y="-274.5" font-family="Helvetica,sans-Serif" font-size="10.00">/sdk/c/ifxAlgo/PreprocessedFFT.h</text>
</a>
</g>
</g>
<!-- Node1&#45;&gt;Node3 -->
<g id="edge2" class="edge">
<title>Node1&#45;&gt;Node3</title>
<path fill="none" stroke="midnightblue" d="M342.52,-349.65C331.03,-339.75 318.53,-328.98 307.65,-319.61"/>
<polygon fill="midnightblue" stroke="midnightblue" points="340.43,-352.46 350.29,-356.34 344.99,-347.16 340.43,-352.46"/>
</g>
<!-- Node7 -->
<g id="node7" class="node">
<title>Node7</title>
<g id="a_node7"><a xlink:href="_range_spectrum_8h.html" target="_top" xlink:title="API for Range Spectrum.">
<polygon fill="white" stroke="black" points="370,-178.5 370,-230.5 549,-230.5 549,-178.5 370,-178.5"/>
<text text-anchor="start" x="378" y="-218.5" font-family="Helvetica,sans-Serif" font-size="10.00">/home/jenkins/jenkins</text>
<text text-anchor="start" x="378" y="-207.5" font-family="Helvetica,sans-Serif" font-size="10.00">&#45;ci/workspace/er_release</text>
<text text-anchor="start" x="378" y="-196.5" font-family="Helvetica,sans-Serif" font-size="10.00">_release&#45;branch&#45;v3.3.1@2</text>
<text text-anchor="middle" x="459.5" y="-185.5" font-family="Helvetica,sans-Serif" font-size="10.00">/sdk/c/ifxRadar/RangeSpectrum.h</text>
</a>
</g>
</g>
<!-- Node1&#45;&gt;Node7 -->
<g id="edge13" class="edge">
<title>Node1&#45;&gt;Node7</title>
<path fill="none" stroke="midnightblue" d="M395.12,-347.13C410.67,-312.92 434.17,-261.23 448.06,-230.67"/>
<polygon fill="midnightblue" stroke="midnightblue" points="391.91,-345.73 390.96,-356.28 398.29,-348.63 391.91,-345.73"/>
</g>
<!-- Node8 -->
<g id="node8" class="node">
<title>Node8</title>
<g id="a_node8"><a xlink:href="_presence_sensing_8h.html" target="_top" xlink:title="API for Presence Sensing algorithm.">
<polygon fill="white" stroke="black" points="485.5,-89.5 485.5,-141.5 669.5,-141.5 669.5,-89.5 485.5,-89.5"/>
<text text-anchor="start" x="493.5" y="-129.5" font-family="Helvetica,sans-Serif" font-size="10.00">/home/jenkins/jenkins</text>
<text text-anchor="start" x="493.5" y="-118.5" font-family="Helvetica,sans-Serif" font-size="10.00">&#45;ci/workspace/er_release</text>
<text text-anchor="start" x="493.5" y="-107.5" font-family="Helvetica,sans-Serif" font-size="10.00">_release&#45;branch&#45;v3.3.1@2</text>
<text text-anchor="middle" x="577.5" y="-96.5" font-family="Helvetica,sans-Serif" font-size="10.00">/sdk/c/ifxRadar/PresenceSensing.h</text>
</a>
</g>
</g>
<!-- Node1&#45;&gt;Node8 -->
<g id="edge12" class="edge">
<title>Node1&#45;&gt;Node8</title>
<path fill="none" stroke="midnightblue" d="M433.11,-351.1C474.28,-324.8 528.94,-282.87 558.5,-231 574.27,-203.34 577.81,-166.21 578.21,-141.83"/>
<polygon fill="midnightblue" stroke="midnightblue" points="431.16,-348.2 424.54,-356.48 434.87,-354.13 431.16,-348.2"/>
</g>
<!-- Node3&#45;&gt;Node2 -->
<g id="edge3" class="edge">
<title>Node3&#45;&gt;Node2</title>
<path fill="none" stroke="midnightblue" d="M209.68,-263.58C184.22,-252.88 155.6,-240.85 131.03,-230.52"/>
<polygon fill="midnightblue" stroke="midnightblue" points="208.33,-266.8 218.9,-267.45 211.04,-260.35 208.33,-266.8"/>
</g>
<!-- Node4 -->
<g id="node4" class="node">
<title>Node4</title>
<g id="a_node4"><a xlink:href="_range_doppler_map_8h.html" target="_top" xlink:title="API for Range Doppler Map.">
<polygon fill="white" stroke="black" points="161,-178.5 161,-230.5 352,-230.5 352,-178.5 161,-178.5"/>
<text text-anchor="start" x="169" y="-218.5" font-family="Helvetica,sans-Serif" font-size="10.00">/home/jenkins/jenkins</text>
<text text-anchor="start" x="169" y="-207.5" font-family="Helvetica,sans-Serif" font-size="10.00">&#45;ci/workspace/er_release</text>
<text text-anchor="start" x="169" y="-196.5" font-family="Helvetica,sans-Serif" font-size="10.00">_release&#45;branch&#45;v3.3.1@2</text>
<text text-anchor="middle" x="256.5" y="-185.5" font-family="Helvetica,sans-Serif" font-size="10.00">/sdk/c/ifxRadar/RangeDopplerMap.h</text>
</a>
</g>
</g>
<!-- Node3&#45;&gt;Node4 -->
<g id="edge4" class="edge">
<title>Node3&#45;&gt;Node4</title>
<path fill="none" stroke="midnightblue" d="M269.64,-257.48C267.37,-248.49 264.97,-238.99 262.85,-230.61"/>
<polygon fill="midnightblue" stroke="midnightblue" points="266.29,-258.5 272.14,-267.34 273.08,-256.78 266.29,-258.5"/>
</g>
<!-- Node3&#45;&gt;Node7 -->
<g id="edge8" class="edge">
<title>Node3&#45;&gt;Node7</title>
<path fill="none" stroke="midnightblue" d="M340.05,-262.92C361.9,-252.41 386.27,-240.7 407.26,-230.61"/>
<polygon fill="midnightblue" stroke="midnightblue" points="338.35,-259.85 330.85,-267.34 341.38,-266.16 338.35,-259.85"/>
</g>
<!-- Node5 -->
<g id="node5" class="node">
<title>Node5</title>
<g id="a_node5"><a xlink:href="_radar_8h.html" target="_top" xlink:title="Header for ifxRadar.">
<polygon fill="white" stroke="black" points="324,-0.5 324,-52.5 467,-52.5 467,-0.5 324,-0.5"/>
<text text-anchor="start" x="332" y="-40.5" font-family="Helvetica,sans-Serif" font-size="10.00">/home/jenkins/jenkins</text>
<text text-anchor="start" x="332" y="-29.5" font-family="Helvetica,sans-Serif" font-size="10.00">&#45;ci/workspace/er_release</text>
<text text-anchor="start" x="332" y="-18.5" font-family="Helvetica,sans-Serif" font-size="10.00">_release&#45;branch&#45;v3.3.1@2</text>
<text text-anchor="middle" x="395.5" y="-7.5" font-family="Helvetica,sans-Serif" font-size="10.00">/sdk/c/ifxRadar/Radar.h</text>
</a>
</g>
</g>
<!-- Node4&#45;&gt;Node5 -->
<g id="edge5" class="edge">
<title>Node4&#45;&gt;Node5</title>
<path fill="none" stroke="midnightblue" d="M234.63,-169.26C222.16,-144.99 212,-112.67 228.5,-89 250.06,-58.08 289,-42.67 323.86,-35"/>
<polygon fill="midnightblue" stroke="midnightblue" points="231.61,-171.03 239.47,-178.14 237.75,-167.68 231.61,-171.03"/>
</g>
<!-- Node6 -->
<g id="node6" class="node">
<title>Node6</title>
<g id="a_node6"><a xlink:href="_range_angle_image_8h.html" target="_top" xlink:title="API for Range Angle Image algorithm.">
<polygon fill="white" stroke="black" points="238,-89.5 238,-141.5 429,-141.5 429,-89.5 238,-89.5"/>
<text text-anchor="start" x="246" y="-129.5" font-family="Helvetica,sans-Serif" font-size="10.00">/home/jenkins/jenkins</text>
<text text-anchor="start" x="246" y="-118.5" font-family="Helvetica,sans-Serif" font-size="10.00">&#45;ci/workspace/er_release</text>
<text text-anchor="start" x="246" y="-107.5" font-family="Helvetica,sans-Serif" font-size="10.00">_release&#45;branch&#45;v3.3.1@2</text>
<text text-anchor="middle" x="333.5" y="-96.5" font-family="Helvetica,sans-Serif" font-size="10.00">/sdk/c/ifxRadar/RangeAngleImage.h</text>
</a>
</g>
</g>
<!-- Node4&#45;&gt;Node6 -->
<g id="edge6" class="edge">
<title>Node4&#45;&gt;Node6</title>
<path fill="none" stroke="midnightblue" d="M285.45,-170.79C294,-161.13 303.22,-150.71 311.28,-141.61"/>
<polygon fill="midnightblue" stroke="midnightblue" points="282.78,-168.53 278.77,-178.34 288.02,-173.17 282.78,-168.53"/>
</g>
<!-- Node6&#45;&gt;Node5 -->
<g id="edge7" class="edge">
<title>Node6&#45;&gt;Node5</title>
<path fill="none" stroke="midnightblue" d="M357.43,-80.93C364.14,-71.51 371.31,-61.44 377.61,-52.61"/>
<polygon fill="midnightblue" stroke="midnightblue" points="354.39,-79.16 351.43,-89.34 360.09,-83.22 354.39,-79.16"/>
</g>
<!-- Node7&#45;&gt;Node5 -->
<g id="edge11" class="edge">
<title>Node7&#45;&gt;Node5</title>
<path fill="none" stroke="midnightblue" d="M456.46,-167.99C453.57,-144.82 448.02,-114.28 437.5,-89 432.18,-76.23 423.97,-63.39 416.22,-52.77"/>
<polygon fill="midnightblue" stroke="midnightblue" points="453,-168.54 457.61,-178.08 459.95,-167.75 453,-168.54"/>
</g>
<!-- Node7&#45;&gt;Node8 -->
<g id="edge9" class="edge">
<title>Node7&#45;&gt;Node8</title>
<path fill="none" stroke="midnightblue" d="M501.93,-172.22C515.57,-162.16 530.49,-151.16 543.45,-141.61"/>
<polygon fill="midnightblue" stroke="midnightblue" points="499.6,-169.58 493.63,-178.34 503.76,-175.22 499.6,-169.58"/>
</g>
<!-- Node8&#45;&gt;Node5 -->
<g id="edge10" class="edge">
<title>Node8&#45;&gt;Node5</title>
<path fill="none" stroke="midnightblue" d="M515.61,-84.92C493.64,-74.41 469.14,-62.7 448.02,-52.61"/>
<polygon fill="midnightblue" stroke="midnightblue" points="514.33,-88.18 524.86,-89.34 517.35,-81.87 514.33,-88.18"/>
</g>
</g>
</svg>
