<?xml version="1.0" encoding="UTF-8" standalone="no"?>
<!DOCTYPE svg PUBLIC "-//W3C//DTD SVG 1.1//EN"
 "http://www.w3.org/Graphics/SVG/1.1/DTD/svg11.dtd">
<!-- Generated by graphviz version 2.48.0 (20210717.1556)
 -->
<!-- Title: radar_sdk Pages: 1 -->
<svg width="636pt" height="396pt"
 viewBox="0.00 0.00 636.00 396.13" xmlns="http://www.w3.org/2000/svg" xmlns:xlink="http://www.w3.org/1999/xlink">
<g id="graph0" class="graph" transform="scale(1 1) rotate(0) translate(4 392.13)">
<title>radar_sdk</title>
<polygon fill="white" stroke="transparent" points="-4,4 -4,-392.13 632,-392.13 632,4 -4,4"/>
<g id="clust1" class="cluster">
<title>cluster_radar_sdk</title>
<polygon fill="none" stroke="black" points="8,-8.19 8,-379.93 620,-379.93 620,-8.19 8,-8.19"/>
<text text-anchor="middle" x="314" y="-364.73" font-family="Times New Roman,serif" font-size="14.00">Radar SDK library</text>
</g>
<!-- ifxAlgo -->
<g id="node1" class="node">
<title>ifxAlgo</title>
<polygon fill="lightgrey" stroke="black" points="592,-274.19 538,-274.19 538,-238.19 592,-238.19 592,-274.19"/>
<text text-anchor="middle" x="565" y="-253.09" font-family="Times New Roman,serif" font-size="12.00">ifxAlgo</text>
</g>
<!-- ifxBase -->
<g id="node3" class="node">
<title>ifxBase</title>
<polygon fill="lightgrey" stroke="black" points="522,-200.19 468,-200.19 468,-164.19 522,-164.19 522,-200.19"/>
<text text-anchor="middle" x="495" y="-179.09" font-family="Times New Roman,serif" font-size="12.00">ifxBase</text>
</g>
<!-- ifxAlgo&#45;&gt;ifxBase -->
<g id="edge3" class="edge">
<title>ifxAlgo&#45;&gt;ifxBase</title>
<path fill="none" stroke="black" d="M548.41,-238.13C539.65,-229.12 528.73,-217.89 519.06,-207.94"/>
<polygon fill="black" stroke="black" points="521.44,-205.36 511.96,-200.63 516.42,-210.24 521.44,-205.36"/>
</g>
<!-- muFFT -->
<g id="node13" class="node">
<title>muFFT</title>
<polygon fill="none" stroke="black" points="611.58,-182.19 593.79,-200.19 558.21,-200.19 540.42,-182.19 558.21,-164.19 593.79,-164.19 611.58,-182.19"/>
<text text-anchor="middle" x="576" y="-179.09" font-family="Times New Roman,serif" font-size="12.00">muFFT</text>
</g>
<!-- ifxAlgo&#45;&gt;muFFT -->
<g id="edge2" class="edge">
<title>ifxAlgo&#45;&gt;muFFT</title>
<path fill="none" stroke="black" stroke-dasharray="1,5" d="M567.61,-238.13C568.86,-229.91 570.4,-219.85 571.81,-210.6"/>
<polygon fill="black" stroke="black" points="575.28,-211.05 573.34,-200.63 568.37,-209.99 575.28,-211.05"/>
</g>
<!-- ifxAvian -->
<g id="node2" class="node">
<title>ifxAvian</title>
<polygon fill="lightgrey" stroke="black" points="204,-274.19 150,-274.19 150,-238.19 204,-238.19 204,-274.19"/>
<text text-anchor="middle" x="177" y="-253.09" font-family="Times New Roman,serif" font-size="12.00">ifxAvian</text>
</g>
<!-- ifxAvian&#45;&gt;ifxBase -->
<g id="edge6" class="edge">
<title>ifxAvian&#45;&gt;ifxBase</title>
<path fill="none" stroke="black" d="M204.2,-241.4C207.13,-240.2 210.1,-239.1 213,-238.19 310.19,-207.72 339.84,-223.48 439,-200.19 445.23,-198.73 451.79,-196.96 458.13,-195.12"/>
<polygon fill="black" stroke="black" points="459.27,-198.43 467.85,-192.2 457.26,-191.72 459.27,-198.43"/>
</g>
<!-- ifxRadarDeviceCommon -->
<g id="node5" class="node">
<title>ifxRadarDeviceCommon</title>
<polygon fill="lightgrey" stroke="black" points="430,-200.19 302,-200.19 302,-164.19 430,-164.19 430,-200.19"/>
<text text-anchor="middle" x="366" y="-179.09" font-family="Times New Roman,serif" font-size="12.00">ifxRadarDeviceCommon</text>
</g>
<!-- ifxAvian&#45;&gt;ifxRadarDeviceCommon -->
<g id="edge7" class="edge">
<title>ifxAvian&#45;&gt;ifxRadarDeviceCommon</title>
<path fill="none" stroke="black" d="M204,-242.1C207.02,-240.74 210.06,-239.41 213,-238.19 242.85,-225.81 276.61,-213.5 304.8,-203.68"/>
<polygon fill="black" stroke="black" points="306.23,-206.89 314.53,-200.31 303.94,-200.28 306.23,-206.89"/>
</g>
<!-- lib_avian -->
<g id="node11" class="node">
<title>lib_avian</title>
<ellipse fill="none" stroke="black" cx="316" cy="-108.19" rx="34.45" ry="18"/>
<text text-anchor="middle" x="316" y="-105.09" font-family="Times New Roman,serif" font-size="12.00">lib_avian</text>
</g>
<!-- ifxAvian&#45;&gt;lib_avian -->
<g id="edge5" class="edge">
<title>ifxAvian&#45;&gt;lib_avian</title>
<path fill="none" stroke="black" stroke-dasharray="1,5" d="M204.18,-240.88C227.3,-228.34 258.25,-210.53 268,-200.19 277.6,-190.02 293.42,-158.23 304.26,-135.08"/>
<polygon fill="black" stroke="black" points="307.54,-136.33 308.56,-125.78 301.18,-133.39 307.54,-136.33"/>
</g>
<!-- Strata -->
<g id="node12" class="node">
<title>Strata</title>
<ellipse fill="none" stroke="black" cx="342" cy="-35.19" rx="27.17" ry="18"/>
<text text-anchor="middle" x="342" y="-32.09" font-family="Times New Roman,serif" font-size="12.00">Strata</text>
</g>
<!-- ifxAvian&#45;&gt;Strata -->
<g id="edge8" class="edge">
<title>ifxAvian&#45;&gt;Strata</title>
<path fill="none" stroke="black" stroke-dasharray="1,5" d="M204.03,-242.42C220.79,-233.07 241.28,-218.8 253,-200.19 279.48,-158.15 247.31,-132.73 273,-90.19 282.51,-74.45 298.43,-61.53 312.58,-52.28"/>
<polygon fill="black" stroke="black" points="314.43,-55.25 321.09,-47 310.75,-49.3 314.43,-55.25"/>
</g>
<!-- nlohmann -->
<g id="node14" class="node">
<title>nlohmann</title>
<polygon fill="none" stroke="black" points="243.88,-182.19 222.94,-200.19 181.06,-200.19 160.12,-182.19 181.06,-164.19 222.94,-164.19 243.88,-182.19"/>
<text text-anchor="middle" x="202" y="-179.09" font-family="Times New Roman,serif" font-size="12.00">nlohmann</text>
</g>
<!-- ifxAvian&#45;&gt;nlohmann -->
<g id="edge9" class="edge">
<title>ifxAvian&#45;&gt;nlohmann</title>
<path fill="none" stroke="black" d="M182.92,-238.13C185.81,-229.82 189.35,-219.64 192.59,-210.3"/>
<polygon fill="black" stroke="black" points="195.97,-211.23 195.94,-200.63 189.36,-208.93 195.97,-211.23"/>
</g>
<!-- ifxRadar -->
<g id="node4" class="node">
<title>ifxRadar</title>
<polygon fill="lightgrey" stroke="black" points="592.5,-348.19 537.5,-348.19 537.5,-312.19 592.5,-312.19 592.5,-348.19"/>
<text text-anchor="middle" x="565" y="-327.09" font-family="Times New Roman,serif" font-size="12.00">ifxRadar</text>
</g>
<!-- ifxRadar&#45;&gt;ifxAlgo -->
<g id="edge17" class="edge">
<title>ifxRadar&#45;&gt;ifxAlgo</title>
<path fill="none" stroke="black" stroke-dasharray="1,5" d="M565,-312.13C565,-304 565,-294.07 565,-284.9"/>
<polygon fill="black" stroke="black" points="568.5,-284.63 565,-274.63 561.5,-284.63 568.5,-284.63"/>
</g>
<!-- ifxRadar&#45;&gt;ifxAvian -->
<g id="edge18" class="edge">
<title>ifxRadar&#45;&gt;ifxAvian</title>
<path fill="none" stroke="black" stroke-dasharray="5,2" d="M537.46,-325.92C468.73,-317.61 290.29,-295.01 213.85,-273.86"/>
<polygon fill="black" stroke="black" points="214.78,-270.48 204.19,-271.02 212.8,-277.2 214.78,-270.48"/>
</g>
<!-- ifxRadar&#45;&gt;ifxBase -->
<g id="edge19" class="edge">
<title>ifxRadar&#45;&gt;ifxBase</title>
<path fill="none" stroke="black" d="M580.93,-311.95C596.4,-293.03 615.56,-262.15 601,-238.19 598.93,-234.78 560.96,-215.56 531.05,-200.79"/>
<polygon fill="black" stroke="black" points="532.59,-197.65 522.08,-196.37 529.5,-203.93 532.59,-197.65"/>
</g>
<!-- ifxRadarDeviceCommon&#45;&gt;lib_avian -->
<g id="edge15" class="edge">
<title>ifxRadarDeviceCommon&#45;&gt;lib_avian</title>
<path fill="none" stroke="black" stroke-dasharray="1,5" d="M354.15,-164.13C347.9,-155.12 340.11,-143.91 333.2,-133.96"/>
<polygon fill="black" stroke="black" points="336,-131.85 327.42,-125.64 330.25,-135.85 336,-131.85"/>
</g>
<!-- ifxRadarDeviceCommon&#45;&gt;Strata -->
<g id="edge16" class="edge">
<title>ifxRadarDeviceCommon&#45;&gt;Strata</title>
<path fill="none" stroke="black" stroke-dasharray="1,5" d="M365.84,-163.93C365.4,-145.51 363.9,-115.55 359,-90.19 357.23,-81.04 354.44,-71.25 351.62,-62.56"/>
<polygon fill="black" stroke="black" points="354.9,-61.31 348.37,-52.96 348.27,-63.56 354.9,-61.31"/>
</g>
<!-- ifxRadarSegmentation -->
<g id="node6" class="node">
<title>ifxRadarSegmentation</title>
<polygon fill="lightgrey" stroke="black" points="417,-348.19 301,-348.19 301,-312.19 417,-312.19 417,-348.19"/>
<text text-anchor="middle" x="359" y="-327.09" font-family="Times New Roman,serif" font-size="12.00">ifxRadarSegmentation</text>
</g>
<!-- ifxRadarSegmentation&#45;&gt;ifxAlgo -->
<g id="edge20" class="edge">
<title>ifxRadarSegmentation&#45;&gt;ifxAlgo</title>
<path fill="none" stroke="black" stroke-dasharray="1,5" d="M417.09,-312.42C447.92,-303.05 486.49,-290.6 528.14,-274.32"/>
<polygon fill="black" stroke="black" points="529.63,-277.49 537.64,-270.56 527.06,-270.98 529.63,-277.49"/>
</g>
<!-- ifxRadarSegmentation&#45;&gt;ifxAvian -->
<g id="edge22" class="edge">
<title>ifxRadarSegmentation&#45;&gt;ifxAvian</title>
<path fill="none" stroke="black" stroke-dasharray="5,2" d="M310.61,-312.08C284.23,-302.49 250.88,-289.97 213.58,-274.29"/>
<polygon fill="black" stroke="black" points="214.59,-270.92 204.02,-270.24 211.86,-277.36 214.59,-270.92"/>
</g>
<!-- ifxRadarSegmentation&#45;&gt;ifxBase -->
<g id="edge21" class="edge">
<title>ifxRadarSegmentation&#45;&gt;ifxBase</title>
<path fill="none" stroke="black" d="M356.36,-311.94C354.31,-292.14 354.07,-259.66 370,-238.19 371.44,-236.25 421.97,-214.38 458.33,-198.81"/>
<polygon fill="black" stroke="black" points="459.88,-201.96 467.7,-194.81 457.13,-195.52 459.88,-201.96"/>
</g>
<!-- ifxDopplerLTR11 -->
<g id="node7" class="node">
<title>ifxDopplerLTR11</title>
<polygon fill="lightgrey" stroke="black" points="320,-274.19 222,-274.19 222,-238.19 320,-238.19 320,-274.19"/>
<text text-anchor="middle" x="271" y="-253.09" font-family="Times New Roman,serif" font-size="12.00">ifxDopplerLTR11</text>
</g>
<!-- ifxDopplerLTR11&#45;&gt;ifxBase -->
<g id="edge10" class="edge">
<title>ifxDopplerLTR11&#45;&gt;ifxBase</title>
<path fill="none" stroke="black" d="M320.37,-241.82C357.45,-231.42 409.32,-216.13 454,-200.19 455.41,-199.69 456.83,-199.17 458.27,-198.63"/>
<polygon fill="black" stroke="black" points="459.75,-201.81 467.8,-194.92 457.21,-195.29 459.75,-201.81"/>
</g>
<!-- ifxDopplerLTR11&#45;&gt;ifxRadarDeviceCommon -->
<g id="edge11" class="edge">
<title>ifxDopplerLTR11&#45;&gt;ifxRadarDeviceCommon</title>
<path fill="none" stroke="black" d="M293.51,-238.13C305.96,-228.69 321.62,-216.83 335.19,-206.55"/>
<polygon fill="black" stroke="black" points="337.46,-209.21 343.32,-200.38 333.23,-203.63 337.46,-209.21"/>
</g>
<!-- ifxDopplerLTR11&#45;&gt;Strata -->
<g id="edge12" class="edge">
<title>ifxDopplerLTR11&#45;&gt;Strata</title>
<path fill="none" stroke="black" stroke-dasharray="1,5" d="M320.14,-239.48C369.39,-223.68 438.08,-201.47 439,-200.19 475.16,-150.31 407.36,-86.2 367.73,-54.97"/>
<polygon fill="black" stroke="black" points="369.81,-52.15 359.75,-48.82 365.53,-57.7 369.81,-52.15"/>
</g>
<!-- ifxMotionAngle -->
<g id="node8" class="node">
<title>ifxMotionAngle</title>
<polygon fill="lightgrey" stroke="black" points="251,-348.19 165,-348.19 165,-312.19 251,-312.19 251,-348.19"/>
<text text-anchor="middle" x="208" y="-327.09" font-family="Times New Roman,serif" font-size="12.00">ifxMotionAngle</text>
</g>
<!-- ifxMotionAngle&#45;&gt;ifxAvian -->
<g id="edge14" class="edge">
<title>ifxMotionAngle&#45;&gt;ifxAvian</title>
<path fill="none" stroke="black" stroke-dasharray="5,2" d="M200.65,-312.13C197.04,-303.73 192.6,-293.42 188.54,-284"/>
<polygon fill="black" stroke="black" points="191.68,-282.43 184.51,-274.63 185.25,-285.2 191.68,-282.43"/>
</g>
<!-- ifxMotionAngle&#45;&gt;ifxBase -->
<g id="edge13" class="edge">
<title>ifxMotionAngle&#45;&gt;ifxBase</title>
<path fill="none" stroke="black" d="M251.19,-316.41C275.96,-307.51 306.51,-293.7 329,-274.19 343.34,-261.75 337.23,-250.12 352,-238.19 389.63,-207.79 408.98,-217.9 454,-200.19 455.39,-199.65 456.8,-199.08 458.23,-198.51"/>
<polygon fill="black" stroke="black" points="459.76,-201.67 467.71,-194.67 457.13,-195.18 459.76,-201.67"/>
</g>
<!-- ifxRecording -->
<g id="node9" class="node">
<title>ifxRecording</title>
<polygon fill="lightgrey" stroke="black" points="132,-274.19 58,-274.19 58,-238.19 132,-238.19 132,-274.19"/>
<text text-anchor="middle" x="95" y="-253.09" font-family="Times New Roman,serif" font-size="12.00">ifxRecording</text>
</g>
<!-- ifxRecording&#45;&gt;ifxBase -->
<g id="edge23" class="edge">
<title>ifxRecording&#45;&gt;ifxBase</title>
<path fill="none" stroke="black" d="M132.18,-240.65C135.14,-239.74 138.11,-238.9 141,-238.19 270.68,-206.4 308.44,-228.13 439,-200.19 445.26,-198.85 451.83,-197.14 458.18,-195.33"/>
<polygon fill="black" stroke="black" points="459.32,-198.64 467.9,-192.42 457.31,-191.93 459.32,-198.64"/>
</g>
<!-- ifxRecording&#45;&gt;nlohmann -->
<g id="edge24" class="edge">
<title>ifxRecording&#45;&gt;nlohmann</title>
<path fill="none" stroke="black" d="M120.36,-238.13C135.37,-228.02 154.53,-215.14 170.51,-204.38"/>
<polygon fill="black" stroke="black" points="172.67,-207.15 179.01,-198.66 168.76,-201.34 172.67,-207.15"/>
</g>
<!-- zip -->
<g id="node15" class="node">
<title>zip</title>
<polygon fill="none" stroke="black" points="70,-182.19 56.5,-200.19 29.5,-200.19 16,-182.19 29.5,-164.19 56.5,-164.19 70,-182.19"/>
<text text-anchor="middle" x="43" y="-179.09" font-family="Times New Roman,serif" font-size="12.00">zip</text>
</g>
<!-- ifxRecording&#45;&gt;zip -->
<g id="edge26" class="edge">
<title>ifxRecording&#45;&gt;zip</title>
<path fill="none" stroke="black" d="M82.68,-238.13C76.36,-229.38 68.53,-218.55 61.51,-208.82"/>
<polygon fill="black" stroke="black" points="64.29,-206.69 55.6,-200.63 58.61,-210.79 64.29,-206.69"/>
</g>
<!-- mio -->
<g id="node16" class="node">
<title>mio</title>
<polygon fill="none" stroke="black" points="142,-182.19 128.5,-200.19 101.5,-200.19 88,-182.19 101.5,-164.19 128.5,-164.19 142,-182.19"/>
<text text-anchor="middle" x="115" y="-179.09" font-family="Times New Roman,serif" font-size="12.00">mio</text>
</g>
<!-- ifxRecording&#45;&gt;mio -->
<g id="edge25" class="edge">
<title>ifxRecording&#45;&gt;mio</title>
<path fill="none" stroke="black" d="M99.74,-238.13C102.05,-229.82 104.88,-219.64 107.47,-210.3"/>
<polygon fill="black" stroke="black" points="110.85,-211.21 110.16,-200.63 104.11,-209.33 110.85,-211.21"/>
</g>
<!-- ifxAdvancedMotionSensing -->
<g id="node10" class="node">
<title>ifxAdvancedMotionSensing</title>
<polygon fill="lightgrey" stroke="black" points="519.5,-274.19 378.5,-274.19 378.5,-238.19 519.5,-238.19 519.5,-274.19"/>
<text text-anchor="middle" x="449" y="-253.09" font-family="Times New Roman,serif" font-size="12.00">ifxAdvancedMotionSensing</text>
</g>
<!-- ifxAdvancedMotionSensing&#45;&gt;ifxBase -->
<g id="edge1" class="edge">
<title>ifxAdvancedMotionSensing&#45;&gt;ifxBase</title>
<path fill="none" stroke="black" d="M459.9,-238.13C465.43,-229.47 472.27,-218.77 478.44,-209.11"/>
<polygon fill="black" stroke="black" points="481.42,-210.94 483.86,-200.63 475.52,-207.18 481.42,-210.94"/>
</g>
<!-- lib_avian&#45;&gt;Strata -->
<g id="edge4" class="edge">
<title>lib_avian&#45;&gt;Strata</title>
<path fill="none" stroke="black" stroke-dasharray="1,5" d="M322.16,-90.37C325.21,-82.05 328.95,-71.83 332.36,-62.52"/>
<polygon fill="black" stroke="black" points="335.73,-63.49 335.88,-52.9 329.16,-61.08 335.73,-63.49"/>
</g>
</g>
</svg>
