<?xml version="1.0" encoding="UTF-8" standalone="no"?>
<!DOCTYPE svg PUBLIC "-//W3C//DTD SVG 1.1//EN"
 "http://www.w3.org/Graphics/SVG/1.1/DTD/svg11.dtd">
<!-- Generated by graphviz version 2.43.0 (0)
 -->
<!-- Title: /home/jenkins/jenkins&#45;ci/workspace/er_release_release&#45;branch&#45;v3.3.1@2/sdk/c/ifxRadarDeviceCommon Pages: 1 -->
<svg width="176pt" height="151pt"
 viewBox="0.00 0.00 176.00 151.00" xmlns="http://www.w3.org/2000/svg" xmlns:xlink="http://www.w3.org/1999/xlink">
<g id="graph0" class="graph" transform="scale(1 1) rotate(0) translate(4 147)">
<title>/home/jenkins/jenkins&#45;ci/workspace/er_release_release&#45;branch&#45;v3.3.1@2/sdk/c/ifxRadarDeviceCommon</title>
<polygon fill="white" stroke="transparent" points="-4,4 -4,-147 172,-147 172,4 -4,4"/>
<g id="clust1" class="cluster">
<title>clusterdir_cb1b8b20a863d3b4f720b5073297472d</title>
<g id="a_clust1"><a xlink:href="dir_cb1b8b20a863d3b4f720b5073297472d.html" target="_top" xlink:title="c">
<polygon fill="#ddddee" stroke="black" points="8,-64 8,-135 160,-135 160,-64 8,-64"/>
<text text-anchor="middle" x="84" y="-123" font-family="Helvetica,sans-Serif" font-size="10.00">c</text>
</a>
</g>
</g>
<!-- dir_c4ebba6b7f8869d2f5ecfd530fb1e966 -->
<g id="node1" class="node">
<title>dir_c4ebba6b7f8869d2f5ecfd530fb1e966</title>
<g id="a_node1"><a xlink:href="dir_c4ebba6b7f8869d2f5ecfd530fb1e966.html" target="_top" xlink:title="ifxRadarDeviceCommon">
<polygon fill="#eeeeff" stroke="black" points="152,-108 16,-108 16,-72 152,-72 152,-108"/>
<text text-anchor="middle" x="84" y="-87.5" font-family="Helvetica,sans-Serif" font-size="10.00">ifxRadarDeviceCommon</text>
</a>
</g>
</g>
<!-- dir_567fd94d20573b82fae4b73e87e5ca9b -->
<g id="node2" class="node">
<title>dir_567fd94d20573b82fae4b73e87e5ca9b</title>
<g id="a_node2"><a xlink:href="dir_567fd94d20573b82fae4b73e87e5ca9b.html" target="_top" xlink:title="ifxBase">
<polygon fill="none" stroke="black" points="111,-36 57,-36 57,0 111,0 111,-36"/>
<text text-anchor="middle" x="84" y="-15.5" font-family="Helvetica,sans-Serif" font-size="10.00">ifxBase</text>
</a>
</g>
</g>
<!-- dir_c4ebba6b7f8869d2f5ecfd530fb1e966&#45;&gt;dir_567fd94d20573b82fae4b73e87e5ca9b -->
<g id="edge1" class="edge">
<title>dir_c4ebba6b7f8869d2f5ecfd530fb1e966&#45;&gt;dir_567fd94d20573b82fae4b73e87e5ca9b</title>
<path fill="none" stroke="black" d="M84,-71.7C84,-63.98 84,-54.71 84,-46.11"/>
<polygon fill="black" stroke="black" points="87.5,-46.1 84,-36.1 80.5,-46.1 87.5,-46.1"/>
<g id="a_edge1&#45;headlabel"><a xlink:href="dir_000011_000007.html" target="_top" xlink:title="1">
<text text-anchor="middle" x="90.34" y="-47.2" font-family="Helvetica,sans-Serif" font-size="10.00">1</text>
</a>
</g>
</g>
</g>
</svg>
