<?xml version="1.0" encoding="UTF-8" standalone="no"?>
<!DOCTYPE svg PUBLIC "-//W3C//DTD SVG 1.1//EN"
 "http://www.w3.org/Graphics/SVG/1.1/DTD/svg11.dtd">
<!-- Generated by graphviz version 2.43.0 (0)
 -->
<!-- Title: /home/jenkins/jenkins&#45;ci/workspace/er_release_release&#45;branch&#45;v3.3.1@2/sdk/c/ifxRadar Pages: 1 -->
<svg width="153pt" height="223pt"
 viewBox="0.00 0.00 153.00 223.00" xmlns="http://www.w3.org/2000/svg" xmlns:xlink="http://www.w3.org/1999/xlink">
<g id="graph0" class="graph" transform="scale(1 1) rotate(0) translate(4 219)">
<title>/home/jenkins/jenkins&#45;ci/workspace/er_release_release&#45;branch&#45;v3.3.1@2/sdk/c/ifxRadar</title>
<polygon fill="white" stroke="transparent" points="-4,4 -4,-219 149,-219 149,4 -4,4"/>
<g id="clust1" class="cluster">
<title>clusterdir_cb1b8b20a863d3b4f720b5073297472d</title>
<g id="a_clust1"><a xlink:href="dir_cb1b8b20a863d3b4f720b5073297472d.html" target="_top" xlink:title="c">
<polygon fill="#ddddee" stroke="black" points="63,-136 63,-207 137,-207 137,-136 63,-136"/>
<text text-anchor="middle" x="100" y="-195" font-family="Helvetica,sans-Serif" font-size="10.00">c</text>
</a>
</g>
</g>
<!-- dir_dab4b19e452ad33ce9758a674c7abd78 -->
<g id="node1" class="node">
<title>dir_dab4b19e452ad33ce9758a674c7abd78</title>
<g id="a_node1"><a xlink:href="dir_dab4b19e452ad33ce9758a674c7abd78.html" target="_top" xlink:title="ifxRadar">
<polygon fill="#eeeeff" stroke="black" points="129,-180 71,-180 71,-144 129,-144 129,-180"/>
<text text-anchor="middle" x="100" y="-159.5" font-family="Helvetica,sans-Serif" font-size="10.00">ifxRadar</text>
</a>
</g>
</g>
<!-- dir_4697e86ad33e45c91248444b464b6119 -->
<g id="node2" class="node">
<title>dir_4697e86ad33e45c91248444b464b6119</title>
<g id="a_node2"><a xlink:href="dir_4697e86ad33e45c91248444b464b6119.html" target="_top" xlink:title="ifxAlgo">
<polygon fill="none" stroke="black" points="54,-108 0,-108 0,-72 54,-72 54,-108"/>
<text text-anchor="middle" x="27" y="-87.5" font-family="Helvetica,sans-Serif" font-size="10.00">ifxAlgo</text>
</a>
</g>
</g>
<!-- dir_dab4b19e452ad33ce9758a674c7abd78&#45;&gt;dir_4697e86ad33e45c91248444b464b6119 -->
<g id="edge3" class="edge">
<title>dir_dab4b19e452ad33ce9758a674c7abd78&#45;&gt;dir_4697e86ad33e45c91248444b464b6119</title>
<path fill="none" stroke="black" d="M81.96,-143.7C72.94,-135.05 61.88,-124.45 52.06,-115.03"/>
<polygon fill="black" stroke="black" points="54.48,-112.5 44.84,-108.1 49.63,-117.55 54.48,-112.5"/>
<g id="a_edge3&#45;headlabel"><a xlink:href="dir_000010_000005.html" target="_top" xlink:title="5">
<text text-anchor="middle" x="59.04" y="-110.44" font-family="Helvetica,sans-Serif" font-size="10.00">5</text>
</a>
</g>
</g>
<!-- dir_1346ff5bb9c7843a219db733dcd633fb -->
<g id="node3" class="node">
<title>dir_1346ff5bb9c7843a219db733dcd633fb</title>
<g id="a_node3"><a xlink:href="dir_1346ff5bb9c7843a219db733dcd633fb.html" target="_top" xlink:title="ifxAvian">
<polygon fill="none" stroke="black" points="128,-108 72,-108 72,-72 128,-72 128,-108"/>
<text text-anchor="middle" x="100" y="-87.5" font-family="Helvetica,sans-Serif" font-size="10.00">ifxAvian</text>
</a>
</g>
</g>
<!-- dir_dab4b19e452ad33ce9758a674c7abd78&#45;&gt;dir_1346ff5bb9c7843a219db733dcd633fb -->
<g id="edge4" class="edge">
<title>dir_dab4b19e452ad33ce9758a674c7abd78&#45;&gt;dir_1346ff5bb9c7843a219db733dcd633fb</title>
<path fill="none" stroke="black" d="M100,-143.7C100,-135.98 100,-126.71 100,-118.11"/>
<polygon fill="black" stroke="black" points="103.5,-118.1 100,-108.1 96.5,-118.1 103.5,-118.1"/>
<g id="a_edge4&#45;headlabel"><a xlink:href="dir_000010_000006.html" target="_top" xlink:title="2">
<text text-anchor="middle" x="106.34" y="-119.2" font-family="Helvetica,sans-Serif" font-size="10.00">2</text>
</a>
</g>
</g>
<!-- dir_567fd94d20573b82fae4b73e87e5ca9b -->
<g id="node4" class="node">
<title>dir_567fd94d20573b82fae4b73e87e5ca9b</title>
<g id="a_node4"><a xlink:href="dir_567fd94d20573b82fae4b73e87e5ca9b.html" target="_top" xlink:title="ifxBase">
<polygon fill="none" stroke="black" points="127,-36 73,-36 73,0 127,0 127,-36"/>
<text text-anchor="middle" x="100" y="-15.5" font-family="Helvetica,sans-Serif" font-size="10.00">ifxBase</text>
</a>
</g>
</g>
<!-- dir_dab4b19e452ad33ce9758a674c7abd78&#45;&gt;dir_567fd94d20573b82fae4b73e87e5ca9b -->
<g id="edge5" class="edge">
<title>dir_dab4b19e452ad33ce9758a674c7abd78&#45;&gt;dir_567fd94d20573b82fae4b73e87e5ca9b</title>
<path fill="none" stroke="black" d="M116.04,-143.85C124.01,-134.12 132.83,-121.27 137,-108 141.8,-92.74 141.8,-87.26 137,-72 133.9,-62.15 128.25,-52.53 122.28,-44.25"/>
<polygon fill="black" stroke="black" points="124.91,-41.94 116.04,-36.15 119.37,-46.21 124.91,-41.94"/>
<g id="a_edge5&#45;headlabel"><a xlink:href="dir_000010_000007.html" target="_top" xlink:title="20">
<text text-anchor="middle" x="129.36" y="-40.55" font-family="Helvetica,sans-Serif" font-size="10.00">20</text>
</a>
</g>
</g>
<!-- dir_4697e86ad33e45c91248444b464b6119&#45;&gt;dir_567fd94d20573b82fae4b73e87e5ca9b -->
<g id="edge1" class="edge">
<title>dir_4697e86ad33e45c91248444b464b6119&#45;&gt;dir_567fd94d20573b82fae4b73e87e5ca9b</title>
<path fill="none" stroke="black" d="M45.04,-71.7C54.06,-63.05 65.12,-52.45 74.94,-43.03"/>
<polygon fill="black" stroke="black" points="77.37,-45.55 82.16,-36.1 72.52,-40.5 77.37,-45.55"/>
<g id="a_edge1&#45;headlabel"><a xlink:href="dir_000005_000007.html" target="_top" xlink:title="16">
<text text-anchor="middle" x="76.74" y="-47.59" font-family="Helvetica,sans-Serif" font-size="10.00">16</text>
</a>
</g>
</g>
<!-- dir_1346ff5bb9c7843a219db733dcd633fb&#45;&gt;dir_567fd94d20573b82fae4b73e87e5ca9b -->
<g id="edge2" class="edge">
<title>dir_1346ff5bb9c7843a219db733dcd633fb&#45;&gt;dir_567fd94d20573b82fae4b73e87e5ca9b</title>
<path fill="none" stroke="black" d="M100,-71.7C100,-63.98 100,-54.71 100,-46.11"/>
<polygon fill="black" stroke="black" points="103.5,-46.1 100,-36.1 96.5,-46.1 103.5,-46.1"/>
<g id="a_edge2&#45;headlabel"><a xlink:href="dir_000006_000007.html" target="_top" xlink:title="7">
<text text-anchor="middle" x="106.34" y="-47.2" font-family="Helvetica,sans-Serif" font-size="10.00">7</text>
</a>
</g>
</g>
</g>
</svg>
