<?xml version="1.0" encoding="UTF-8" standalone="no"?>
<!DOCTYPE svg PUBLIC "-//W3C//DTD SVG 1.1//EN"
 "http://www.w3.org/Graphics/SVG/1.1/DTD/svg11.dtd">
<!-- Generated by graphviz version 2.43.0 (0)
 -->
<!-- Title: /home/jenkins/jenkins&#45;ci/workspace/er_release_release&#45;branch&#45;v3.3.1@2/sdk/c/ifxAvian Pages: 1 -->
<svg width="255pt" height="223pt"
 viewBox="0.00 0.00 254.58 223.00" xmlns="http://www.w3.org/2000/svg" xmlns:xlink="http://www.w3.org/1999/xlink">
<g id="graph0" class="graph" transform="scale(1 1) rotate(0) translate(4 219)">
<title>/home/jenkins/jenkins&#45;ci/workspace/er_release_release&#45;branch&#45;v3.3.1@2/sdk/c/ifxAvian</title>
<polygon fill="white" stroke="transparent" points="-4,4 -4,-219 250.58,-219 250.58,4 -4,4"/>
<g id="clust1" class="cluster">
<title>clusterdir_cb1b8b20a863d3b4f720b5073297472d</title>
<g id="a_clust1"><a xlink:href="dir_cb1b8b20a863d3b4f720b5073297472d.html" target="_top" xlink:title="c">
<polygon fill="#ddddee" stroke="black" points="128,-136 128,-207 200,-207 200,-136 128,-136"/>
<text text-anchor="middle" x="164" y="-195" font-family="Helvetica,sans-Serif" font-size="10.00">c</text>
</a>
</g>
</g>
<!-- dir_1346ff5bb9c7843a219db733dcd633fb -->
<g id="node1" class="node">
<title>dir_1346ff5bb9c7843a219db733dcd633fb</title>
<g id="a_node1"><a xlink:href="dir_1346ff5bb9c7843a219db733dcd633fb.html" target="_top" xlink:title="ifxAvian">
<polygon fill="#eeeeff" stroke="black" points="192,-180 136,-180 136,-144 192,-144 192,-180"/>
<text text-anchor="middle" x="164" y="-159.5" font-family="Helvetica,sans-Serif" font-size="10.00">ifxAvian</text>
</a>
</g>
</g>
<!-- dir_7462e2f4719e80cf99f56e7bb1f61d9c -->
<g id="node2" class="node">
<title>dir_7462e2f4719e80cf99f56e7bb1f61d9c</title>
<g id="a_node2"><a xlink:href="dir_7462e2f4719e80cf99f56e7bb1f61d9c.html" target="_top" xlink:title="ifxRecording">
<polygon fill="none" stroke="black" points="78,-108 0,-108 0,-72 78,-72 78,-108"/>
<text text-anchor="middle" x="39" y="-87.5" font-family="Helvetica,sans-Serif" font-size="10.00">ifxRecording</text>
</a>
</g>
</g>
<!-- dir_1346ff5bb9c7843a219db733dcd633fb&#45;&gt;dir_7462e2f4719e80cf99f56e7bb1f61d9c -->
<g id="edge3" class="edge">
<title>dir_1346ff5bb9c7843a219db733dcd633fb&#45;&gt;dir_7462e2f4719e80cf99f56e7bb1f61d9c</title>
<path fill="none" stroke="black" d="M135.71,-148.16C116.93,-138.44 92.32,-124.85 72.57,-113.35"/>
<polygon fill="black" stroke="black" points="74.27,-110.29 63.88,-108.24 70.73,-116.33 74.27,-110.29"/>
<g id="a_edge3&#45;headlabel"><a xlink:href="dir_000006_000013.html" target="_top" xlink:title="1">
<text text-anchor="middle" x="78.81" y="-107.17" font-family="Helvetica,sans-Serif" font-size="10.00">1</text>
</a>
</g>
</g>
<!-- dir_c4ebba6b7f8869d2f5ecfd530fb1e966 -->
<g id="node3" class="node">
<title>dir_c4ebba6b7f8869d2f5ecfd530fb1e966</title>
<g id="a_node3"><a xlink:href="dir_c4ebba6b7f8869d2f5ecfd530fb1e966.html" target="_top" xlink:title="ifxRadarDeviceCommon">
<polygon fill="none" stroke="black" points="232,-108 96,-108 96,-72 232,-72 232,-108"/>
<text text-anchor="middle" x="164" y="-87.5" font-family="Helvetica,sans-Serif" font-size="10.00">ifxRadarDeviceCommon</text>
</a>
</g>
</g>
<!-- dir_1346ff5bb9c7843a219db733dcd633fb&#45;&gt;dir_c4ebba6b7f8869d2f5ecfd530fb1e966 -->
<g id="edge4" class="edge">
<title>dir_1346ff5bb9c7843a219db733dcd633fb&#45;&gt;dir_c4ebba6b7f8869d2f5ecfd530fb1e966</title>
<path fill="none" stroke="black" d="M164,-143.7C164,-135.98 164,-126.71 164,-118.11"/>
<polygon fill="black" stroke="black" points="167.5,-118.1 164,-108.1 160.5,-118.1 167.5,-118.1"/>
<g id="a_edge4&#45;headlabel"><a xlink:href="dir_000006_000011.html" target="_top" xlink:title="2">
<text text-anchor="middle" x="170.34" y="-119.2" font-family="Helvetica,sans-Serif" font-size="10.00">2</text>
</a>
</g>
</g>
<!-- dir_567fd94d20573b82fae4b73e87e5ca9b -->
<g id="node4" class="node">
<title>dir_567fd94d20573b82fae4b73e87e5ca9b</title>
<g id="a_node4"><a xlink:href="dir_567fd94d20573b82fae4b73e87e5ca9b.html" target="_top" xlink:title="ifxBase">
<polygon fill="none" stroke="black" points="191,-36 137,-36 137,0 191,0 191,-36"/>
<text text-anchor="middle" x="164" y="-15.5" font-family="Helvetica,sans-Serif" font-size="10.00">ifxBase</text>
</a>
</g>
</g>
<!-- dir_1346ff5bb9c7843a219db733dcd633fb&#45;&gt;dir_567fd94d20573b82fae4b73e87e5ca9b -->
<g id="edge5" class="edge">
<title>dir_1346ff5bb9c7843a219db733dcd633fb&#45;&gt;dir_567fd94d20573b82fae4b73e87e5ca9b</title>
<path fill="none" stroke="black" d="M192.13,-149.86C209.64,-141.27 230.73,-127.54 241,-108 248.44,-93.84 248.44,-86.16 241,-72 232.29,-55.43 215.79,-43.03 200.3,-34.41"/>
<polygon fill="black" stroke="black" points="201.84,-31.27 191.36,-29.77 198.62,-37.48 201.84,-31.27"/>
<g id="a_edge5&#45;headlabel"><a xlink:href="dir_000006_000007.html" target="_top" xlink:title="7">
<text text-anchor="middle" x="206.34" y="-27.9" font-family="Helvetica,sans-Serif" font-size="10.00">7</text>
</a>
</g>
</g>
<!-- dir_7462e2f4719e80cf99f56e7bb1f61d9c&#45;&gt;dir_1346ff5bb9c7843a219db733dcd633fb -->
<g id="edge1" class="edge">
<title>dir_7462e2f4719e80cf99f56e7bb1f61d9c&#45;&gt;dir_1346ff5bb9c7843a219db733dcd633fb</title>
<path fill="none" stroke="black" d="M75.6,-108.19C92.92,-117.35 113.39,-128.74 130.32,-138.59"/>
<polygon fill="black" stroke="black" points="128.92,-141.82 139.32,-143.88 132.47,-135.79 128.92,-141.82"/>
<g id="a_edge1&#45;headlabel"><a xlink:href="dir_000013_000006.html" target="_top" xlink:title="1">
<text text-anchor="middle" x="124.39" y="-139.95" font-family="Helvetica,sans-Serif" font-size="10.00">1</text>
</a>
</g>
</g>
<!-- dir_7462e2f4719e80cf99f56e7bb1f61d9c&#45;&gt;dir_567fd94d20573b82fae4b73e87e5ca9b -->
<g id="edge2" class="edge">
<title>dir_7462e2f4719e80cf99f56e7bb1f61d9c&#45;&gt;dir_567fd94d20573b82fae4b73e87e5ca9b</title>
<path fill="none" stroke="black" d="M69.58,-71.88C87.22,-62 109.5,-49.52 127.98,-39.17"/>
<polygon fill="black" stroke="black" points="129.7,-42.22 136.72,-34.28 126.28,-36.11 129.7,-42.22"/>
<g id="a_edge2&#45;headlabel"><a xlink:href="dir_000013_000007.html" target="_top" xlink:title="2">
<text text-anchor="middle" x="127.95" y="-43.95" font-family="Helvetica,sans-Serif" font-size="10.00">2</text>
</a>
</g>
</g>
<!-- dir_c4ebba6b7f8869d2f5ecfd530fb1e966&#45;&gt;dir_567fd94d20573b82fae4b73e87e5ca9b -->
<g id="edge6" class="edge">
<title>dir_c4ebba6b7f8869d2f5ecfd530fb1e966&#45;&gt;dir_567fd94d20573b82fae4b73e87e5ca9b</title>
<path fill="none" stroke="black" d="M164,-71.7C164,-63.98 164,-54.71 164,-46.11"/>
<polygon fill="black" stroke="black" points="167.5,-46.1 164,-36.1 160.5,-46.1 167.5,-46.1"/>
<g id="a_edge6&#45;headlabel"><a xlink:href="dir_000011_000007.html" target="_top" xlink:title="1">
<text text-anchor="middle" x="170.34" y="-47.2" font-family="Helvetica,sans-Serif" font-size="10.00">1</text>
</a>
</g>
</g>
</g>
</svg>
