<?xml version="1.0" encoding="UTF-8" standalone="no"?>
<!DOCTYPE svg PUBLIC "-//W3C//DTD SVG 1.1//EN"
 "http://www.w3.org/Graphics/SVG/1.1/DTD/svg11.dtd">
<!-- Generated by graphviz version 2.43.0 (0)
 -->
<!-- Title: /home/jenkins/jenkins&#45;ci/workspace/er_release_release&#45;branch&#45;v3.3.1@2/sdk/c/ifxRecording Pages: 1 -->
<svg width="176pt" height="151pt"
 viewBox="0.00 0.00 176.00 151.00" xmlns="http://www.w3.org/2000/svg" xmlns:xlink="http://www.w3.org/1999/xlink">
<g id="graph0" class="graph" transform="scale(1 1) rotate(0) translate(4 147)">
<title>/home/jenkins/jenkins&#45;ci/workspace/er_release_release&#45;branch&#45;v3.3.1@2/sdk/c/ifxRecording</title>
<polygon fill="white" stroke="transparent" points="-4,4 -4,-147 172,-147 172,4 -4,4"/>
<g id="clust1" class="cluster">
<title>clusterdir_cb1b8b20a863d3b4f720b5073297472d</title>
<g id="a_clust1"><a xlink:href="dir_cb1b8b20a863d3b4f720b5073297472d.html" target="_top" xlink:title="c">
<polygon fill="#ddddee" stroke="black" points="8,-64 8,-135 102,-135 102,-64 8,-64"/>
<text text-anchor="middle" x="55" y="-123" font-family="Helvetica,sans-Serif" font-size="10.00">c</text>
</a>
</g>
</g>
<!-- dir_7462e2f4719e80cf99f56e7bb1f61d9c -->
<g id="node1" class="node">
<title>dir_7462e2f4719e80cf99f56e7bb1f61d9c</title>
<g id="a_node1"><a xlink:href="dir_7462e2f4719e80cf99f56e7bb1f61d9c.html" target="_top" xlink:title="ifxRecording">
<polygon fill="#eeeeff" stroke="black" points="94,-108 16,-108 16,-72 94,-72 94,-108"/>
<text text-anchor="middle" x="55" y="-87.5" font-family="Helvetica,sans-Serif" font-size="10.00">ifxRecording</text>
</a>
</g>
</g>
<!-- dir_1346ff5bb9c7843a219db733dcd633fb -->
<g id="node2" class="node">
<title>dir_1346ff5bb9c7843a219db733dcd633fb</title>
<g id="a_node2"><a xlink:href="dir_1346ff5bb9c7843a219db733dcd633fb.html" target="_top" xlink:title="ifxAvian">
<polygon fill="none" stroke="black" points="168,-108 112,-108 112,-72 168,-72 168,-108"/>
<text text-anchor="middle" x="140" y="-87.5" font-family="Helvetica,sans-Serif" font-size="10.00">ifxAvian</text>
</a>
</g>
</g>
<!-- dir_7462e2f4719e80cf99f56e7bb1f61d9c&#45;&gt;dir_1346ff5bb9c7843a219db733dcd633fb -->
<g id="edge1" class="edge">
<title>dir_7462e2f4719e80cf99f56e7bb1f61d9c&#45;&gt;dir_1346ff5bb9c7843a219db733dcd633fb</title>
<path fill="none" stroke="black" d="M94.18,-90C96.65,-90 99.11,-90 101.58,-90"/>
<polygon fill="black" stroke="black" points="101.72,-93.5 111.72,-90 101.72,-86.5 101.72,-93.5"/>
<g id="a_edge1&#45;headlabel"><a xlink:href="dir_000013_000006.html" target="_top" xlink:title="1">
<text text-anchor="middle" x="98.13" y="-93.84" font-family="Helvetica,sans-Serif" font-size="10.00">1</text>
</a>
</g>
</g>
<!-- dir_567fd94d20573b82fae4b73e87e5ca9b -->
<g id="node3" class="node">
<title>dir_567fd94d20573b82fae4b73e87e5ca9b</title>
<g id="a_node3"><a xlink:href="dir_567fd94d20573b82fae4b73e87e5ca9b.html" target="_top" xlink:title="ifxBase">
<polygon fill="none" stroke="black" points="124,-36 70,-36 70,0 124,0 124,-36"/>
<text text-anchor="middle" x="97" y="-15.5" font-family="Helvetica,sans-Serif" font-size="10.00">ifxBase</text>
</a>
</g>
</g>
<!-- dir_7462e2f4719e80cf99f56e7bb1f61d9c&#45;&gt;dir_567fd94d20573b82fae4b73e87e5ca9b -->
<g id="edge2" class="edge">
<title>dir_7462e2f4719e80cf99f56e7bb1f61d9c&#45;&gt;dir_567fd94d20573b82fae4b73e87e5ca9b</title>
<path fill="none" stroke="black" d="M65.38,-71.7C70.26,-63.56 76.19,-53.69 81.58,-44.7"/>
<polygon fill="black" stroke="black" points="84.59,-46.48 86.74,-36.1 78.59,-42.88 84.59,-46.48"/>
<g id="a_edge2&#45;headlabel"><a xlink:href="dir_000013_000007.html" target="_top" xlink:title="2">
<text text-anchor="middle" x="85.18" y="-48.52" font-family="Helvetica,sans-Serif" font-size="10.00">2</text>
</a>
</g>
</g>
<!-- dir_1346ff5bb9c7843a219db733dcd633fb&#45;&gt;dir_7462e2f4719e80cf99f56e7bb1f61d9c -->
<g id="edge3" class="edge">
<title>dir_1346ff5bb9c7843a219db733dcd633fb&#45;&gt;dir_7462e2f4719e80cf99f56e7bb1f61d9c</title>
<path fill="none" stroke="black" d="M111.72,-90C109.25,-90 106.79,-90 104.32,-90"/>
<polygon fill="black" stroke="black" points="104.18,-86.5 94.18,-90 104.18,-93.5 104.18,-86.5"/>
<g id="a_edge3&#45;headlabel"><a xlink:href="dir_000006_000013.html" target="_top" xlink:title="1">
<text text-anchor="middle" x="107.77" y="-81.16" font-family="Helvetica,sans-Serif" font-size="10.00">1</text>
</a>
</g>
</g>
<!-- dir_1346ff5bb9c7843a219db733dcd633fb&#45;&gt;dir_567fd94d20573b82fae4b73e87e5ca9b -->
<g id="edge4" class="edge">
<title>dir_1346ff5bb9c7843a219db733dcd633fb&#45;&gt;dir_567fd94d20573b82fae4b73e87e5ca9b</title>
<path fill="none" stroke="black" d="M129.37,-71.7C124.37,-63.56 118.31,-53.69 112.79,-44.7"/>
<polygon fill="black" stroke="black" points="115.72,-42.79 107.51,-36.1 109.76,-46.46 115.72,-42.79"/>
<g id="a_edge4&#45;headlabel"><a xlink:href="dir_000006_000007.html" target="_top" xlink:title="7">
<text text-anchor="middle" x="120.02" y="-41.87" font-family="Helvetica,sans-Serif" font-size="10.00">7</text>
</a>
</g>
</g>
</g>
</svg>
