<?xml version="1.0" encoding="UTF-8" standalone="no"?>
<!DOCTYPE svg PUBLIC "-//W3C//DTD SVG 1.1//EN"
 "http://www.w3.org/Graphics/SVG/1.1/DTD/svg11.dtd">
<!-- Generated by graphviz version 2.43.0 (0)
 -->
<!-- Title: /home/jenkins/jenkins&#45;ci/workspace/er_release_release&#45;branch&#45;v3.3.1@2/sdk/c/ifxRadarSegmentation Pages: 1 -->
<svg width="166pt" height="223pt"
 viewBox="0.00 0.00 166.00 223.00" xmlns="http://www.w3.org/2000/svg" xmlns:xlink="http://www.w3.org/1999/xlink">
<g id="graph0" class="graph" transform="scale(1 1) rotate(0) translate(4 219)">
<title>/home/jenkins/jenkins&#45;ci/workspace/er_release_release&#45;branch&#45;v3.3.1@2/sdk/c/ifxRadarSegmentation</title>
<polygon fill="white" stroke="transparent" points="-4,4 -4,-219 162,-219 162,4 -4,4"/>
<g id="clust1" class="cluster">
<title>clusterdir_cb1b8b20a863d3b4f720b5073297472d</title>
<g id="a_clust1"><a xlink:href="dir_cb1b8b20a863d3b4f720b5073297472d.html" target="_top" xlink:title="c">
<polygon fill="#ddddee" stroke="black" points="8,-136 8,-207 150,-207 150,-136 8,-136"/>
<text text-anchor="middle" x="79" y="-195" font-family="Helvetica,sans-Serif" font-size="10.00">c</text>
</a>
</g>
</g>
<!-- dir_029b6408fc75c8aa18949ca0afd8f1c3 -->
<g id="node1" class="node">
<title>dir_029b6408fc75c8aa18949ca0afd8f1c3</title>
<g id="a_node1"><a xlink:href="dir_029b6408fc75c8aa18949ca0afd8f1c3.html" target="_top" xlink:title="ifxRadarSegmentation">
<polygon fill="#eeeeff" stroke="black" points="142,-180 16,-180 16,-144 142,-144 142,-180"/>
<text text-anchor="middle" x="79" y="-159.5" font-family="Helvetica,sans-Serif" font-size="10.00">ifxRadarSegmentation</text>
</a>
</g>
</g>
<!-- dir_1346ff5bb9c7843a219db733dcd633fb -->
<g id="node2" class="node">
<title>dir_1346ff5bb9c7843a219db733dcd633fb</title>
<g id="a_node2"><a xlink:href="dir_1346ff5bb9c7843a219db733dcd633fb.html" target="_top" xlink:title="ifxAvian">
<polygon fill="none" stroke="black" points="79,-108 23,-108 23,-72 79,-72 79,-108"/>
<text text-anchor="middle" x="51" y="-87.5" font-family="Helvetica,sans-Serif" font-size="10.00">ifxAvian</text>
</a>
</g>
</g>
<!-- dir_029b6408fc75c8aa18949ca0afd8f1c3&#45;&gt;dir_1346ff5bb9c7843a219db733dcd633fb -->
<g id="edge2" class="edge">
<title>dir_029b6408fc75c8aa18949ca0afd8f1c3&#45;&gt;dir_1346ff5bb9c7843a219db733dcd633fb</title>
<path fill="none" stroke="black" d="M72.08,-143.7C68.93,-135.81 65.12,-126.3 61.62,-117.55"/>
<polygon fill="black" stroke="black" points="64.81,-116.09 57.84,-108.1 58.31,-118.69 64.81,-116.09"/>
<g id="a_edge2&#45;headlabel"><a xlink:href="dir_000012_000006.html" target="_top" xlink:title="1">
<text text-anchor="middle" x="68.78" y="-115.87" font-family="Helvetica,sans-Serif" font-size="10.00">1</text>
</a>
</g>
</g>
<!-- dir_567fd94d20573b82fae4b73e87e5ca9b -->
<g id="node3" class="node">
<title>dir_567fd94d20573b82fae4b73e87e5ca9b</title>
<g id="a_node3"><a xlink:href="dir_567fd94d20573b82fae4b73e87e5ca9b.html" target="_top" xlink:title="ifxBase">
<polygon fill="none" stroke="black" points="106,-36 52,-36 52,0 106,0 106,-36"/>
<text text-anchor="middle" x="79" y="-15.5" font-family="Helvetica,sans-Serif" font-size="10.00">ifxBase</text>
</a>
</g>
</g>
<!-- dir_029b6408fc75c8aa18949ca0afd8f1c3&#45;&gt;dir_567fd94d20573b82fae4b73e87e5ca9b -->
<g id="edge3" class="edge">
<title>dir_029b6408fc75c8aa18949ca0afd8f1c3&#45;&gt;dir_567fd94d20573b82fae4b73e87e5ca9b</title>
<path fill="none" stroke="black" d="M82.65,-143.91C84.68,-133.57 86.98,-120.09 88,-108 89.34,-92.06 89.34,-87.94 88,-72 87.28,-63.5 85.93,-54.31 84.49,-46.01"/>
<polygon fill="black" stroke="black" points="87.91,-45.29 82.65,-36.09 81.03,-46.56 87.91,-45.29"/>
<g id="a_edge3&#45;headlabel"><a xlink:href="dir_000012_000007.html" target="_top" xlink:title="5">
<text text-anchor="middle" x="91.36" y="-45.81" font-family="Helvetica,sans-Serif" font-size="10.00">5</text>
</a>
</g>
</g>
<!-- dir_1346ff5bb9c7843a219db733dcd633fb&#45;&gt;dir_567fd94d20573b82fae4b73e87e5ca9b -->
<g id="edge1" class="edge">
<title>dir_1346ff5bb9c7843a219db733dcd633fb&#45;&gt;dir_567fd94d20573b82fae4b73e87e5ca9b</title>
<path fill="none" stroke="black" d="M57.92,-71.7C61.07,-63.81 64.88,-54.3 68.38,-45.55"/>
<polygon fill="black" stroke="black" points="71.69,-46.69 72.16,-36.1 65.19,-44.09 71.69,-46.69"/>
<g id="a_edge1&#45;headlabel"><a xlink:href="dir_000006_000007.html" target="_top" xlink:title="7">
<text text-anchor="middle" x="73" y="-48.58" font-family="Helvetica,sans-Serif" font-size="10.00">7</text>
</a>
</g>
</g>
</g>
</svg>
