<?xml version="1.0" encoding="UTF-8" standalone="no"?>
<!DOCTYPE svg PUBLIC "-//W3C//DTD SVG 1.1//EN"
 "http://www.w3.org/Graphics/SVG/1.1/DTD/svg11.dtd">
<!-- Generated by graphviz version 2.43.0 (0)
 -->
<!-- Title: /home/jenkins/jenkins&#45;ci/workspace/er_release_release&#45;branch&#45;v3.3.1@2/sdk/c/ifxDopplerLTR11 Pages: 1 -->
<svg width="188pt" height="223pt"
 viewBox="0.00 0.00 188.00 223.00" xmlns="http://www.w3.org/2000/svg" xmlns:xlink="http://www.w3.org/1999/xlink">
<g id="graph0" class="graph" transform="scale(1 1) rotate(0) translate(4 219)">
<title>/home/jenkins/jenkins&#45;ci/workspace/er_release_release&#45;branch&#45;v3.3.1@2/sdk/c/ifxDopplerLTR11</title>
<polygon fill="white" stroke="transparent" points="-4,4 -4,-219 184,-219 184,4 -4,4"/>
<g id="clust1" class="cluster">
<title>clusterdir_cb1b8b20a863d3b4f720b5073297472d</title>
<g id="a_clust1"><a xlink:href="dir_cb1b8b20a863d3b4f720b5073297472d.html" target="_top" xlink:title="c">
<polygon fill="#ddddee" stroke="black" points="60,-136 60,-207 172,-207 172,-136 60,-136"/>
<text text-anchor="middle" x="116" y="-195" font-family="Helvetica,sans-Serif" font-size="10.00">c</text>
</a>
</g>
</g>
<!-- dir_7319906a953183252d2a650fb1ea8ca7 -->
<g id="node1" class="node">
<title>dir_7319906a953183252d2a650fb1ea8ca7</title>
<g id="a_node1"><a xlink:href="dir_7319906a953183252d2a650fb1ea8ca7.html" target="_top" xlink:title="ifxDopplerLTR11">
<polygon fill="#eeeeff" stroke="black" points="164.5,-180 67.5,-180 67.5,-144 164.5,-144 164.5,-180"/>
<text text-anchor="middle" x="116" y="-159.5" font-family="Helvetica,sans-Serif" font-size="10.00">ifxDopplerLTR11</text>
</a>
</g>
</g>
<!-- dir_c4ebba6b7f8869d2f5ecfd530fb1e966 -->
<g id="node2" class="node">
<title>dir_c4ebba6b7f8869d2f5ecfd530fb1e966</title>
<g id="a_node2"><a xlink:href="dir_c4ebba6b7f8869d2f5ecfd530fb1e966.html" target="_top" xlink:title="ifxRadarDeviceCommon">
<polygon fill="none" stroke="black" points="136,-108 0,-108 0,-72 136,-72 136,-108"/>
<text text-anchor="middle" x="68" y="-87.5" font-family="Helvetica,sans-Serif" font-size="10.00">ifxRadarDeviceCommon</text>
</a>
</g>
</g>
<!-- dir_7319906a953183252d2a650fb1ea8ca7&#45;&gt;dir_c4ebba6b7f8869d2f5ecfd530fb1e966 -->
<g id="edge1" class="edge">
<title>dir_7319906a953183252d2a650fb1ea8ca7&#45;&gt;dir_c4ebba6b7f8869d2f5ecfd530fb1e966</title>
<path fill="none" stroke="black" d="M104.13,-143.7C98.5,-135.47 91.65,-125.48 85.43,-116.42"/>
<polygon fill="black" stroke="black" points="88.27,-114.37 79.73,-108.1 82.5,-118.33 88.27,-114.37"/>
<g id="a_edge1&#45;headlabel"><a xlink:href="dir_000008_000011.html" target="_top" xlink:title="1">
<text text-anchor="middle" x="92.65" y="-113.23" font-family="Helvetica,sans-Serif" font-size="10.00">1</text>
</a>
</g>
</g>
<!-- dir_567fd94d20573b82fae4b73e87e5ca9b -->
<g id="node3" class="node">
<title>dir_567fd94d20573b82fae4b73e87e5ca9b</title>
<g id="a_node3"><a xlink:href="dir_567fd94d20573b82fae4b73e87e5ca9b.html" target="_top" xlink:title="ifxBase">
<polygon fill="none" stroke="black" points="143,-36 89,-36 89,0 143,0 143,-36"/>
<text text-anchor="middle" x="116" y="-15.5" font-family="Helvetica,sans-Serif" font-size="10.00">ifxBase</text>
</a>
</g>
</g>
<!-- dir_7319906a953183252d2a650fb1ea8ca7&#45;&gt;dir_567fd94d20573b82fae4b73e87e5ca9b -->
<g id="edge2" class="edge">
<title>dir_7319906a953183252d2a650fb1ea8ca7&#45;&gt;dir_567fd94d20573b82fae4b73e87e5ca9b</title>
<path fill="none" stroke="black" d="M128.31,-143.78C134.65,-133.84 141.73,-120.8 145,-108 148.96,-92.5 148.96,-87.5 145,-72 142.62,-62.7 138.24,-53.27 133.58,-45"/>
<polygon fill="black" stroke="black" points="136.46,-42.99 128.31,-36.22 130.46,-46.59 136.46,-42.99"/>
<g id="a_edge2&#45;headlabel"><a xlink:href="dir_000008_000007.html" target="_top" xlink:title="5">
<text text-anchor="middle" x="140.74" y="-42.11" font-family="Helvetica,sans-Serif" font-size="10.00">5</text>
</a>
</g>
</g>
<!-- dir_c4ebba6b7f8869d2f5ecfd530fb1e966&#45;&gt;dir_567fd94d20573b82fae4b73e87e5ca9b -->
<g id="edge3" class="edge">
<title>dir_c4ebba6b7f8869d2f5ecfd530fb1e966&#45;&gt;dir_567fd94d20573b82fae4b73e87e5ca9b</title>
<path fill="none" stroke="black" d="M79.87,-71.7C85.5,-63.47 92.35,-53.48 98.57,-44.42"/>
<polygon fill="black" stroke="black" points="101.5,-46.33 104.27,-36.1 95.73,-42.37 101.5,-46.33"/>
<g id="a_edge3&#45;headlabel"><a xlink:href="dir_000011_000007.html" target="_top" xlink:title="1">
<text text-anchor="middle" x="101.81" y="-48.4" font-family="Helvetica,sans-Serif" font-size="10.00">1</text>
</a>
</g>
</g>
</g>
</svg>
