<?xml version="1.0" encoding="UTF-8" standalone="no"?>
<!DOCTYPE svg PUBLIC "-//W3C//DTD SVG 1.1//EN"
 "http://www.w3.org/Graphics/SVG/1.1/DTD/svg11.dtd">
<!-- Generated by graphviz version 2.43.0 (0)
 -->
<!-- Title: /home/jenkins/jenkins&#45;ci/workspace/er_release_release&#45;branch&#45;v3.3.1@2/sdk/c Pages: 1 -->
<svg width="646pt" height="327pt"
 viewBox="0.00 0.00 646.00 327.00" xmlns="http://www.w3.org/2000/svg" xmlns:xlink="http://www.w3.org/1999/xlink">
<g id="graph0" class="graph" transform="scale(1 1) rotate(0) translate(4 323)">
<title>/home/jenkins/jenkins&#45;ci/workspace/er_release_release&#45;branch&#45;v3.3.1@2/sdk/c</title>
<polygon fill="white" stroke="transparent" points="-4,4 -4,-323 642,-323 642,4 -4,4"/>
<g id="clust1" class="cluster">
<title>clusterdir_243a4ba6b4f893d71afbb5a3e90552fa</title>
<g id="a_clust1"><a xlink:href="dir_243a4ba6b4f893d71afbb5a3e90552fa.html" target="_top" xlink:title="sdk">
<polygon fill="#ddddee" stroke="black" points="8,-8 8,-311 630,-311 630,-8 8,-8"/>
<text text-anchor="middle" x="319" y="-299" font-family="Helvetica,sans-Serif" font-size="10.00">sdk</text>
</a>
</g>
</g>
<g id="clust2" class="cluster">
<title>clusterdir_cb1b8b20a863d3b4f720b5073297472d</title>
<g id="a_clust2"><a xlink:href="dir_cb1b8b20a863d3b4f720b5073297472d.html" target="_top">
<polygon fill="#eeeeff" stroke="black" points="16,-16 16,-284 622,-284 622,-16 16,-16"/>
</a>
</g>
</g>
<!-- dir_cb1b8b20a863d3b4f720b5073297472d -->
<g id="node1" class="node">
<title>dir_cb1b8b20a863d3b4f720b5073297472d</title>
<text text-anchor="middle" x="562" y="-255.5" font-family="Helvetica,sans-Serif" font-size="10.00">c</text>
</g>
<!-- dir_f3c50492aca301091183f2e22e50c2c8 -->
<g id="node2" class="node">
<title>dir_f3c50492aca301091183f2e22e50c2c8</title>
<g id="a_node2"><a xlink:href="dir_f3c50492aca301091183f2e22e50c2c8.html" target="_top" xlink:title="ifxAdvancedMotionSensing">
<polygon fill="white" stroke="black" points="614.5,-132 465.5,-132 465.5,-96 614.5,-96 614.5,-132"/>
<text text-anchor="middle" x="540" y="-111.5" font-family="Helvetica,sans-Serif" font-size="10.00">ifxAdvancedMotionSensing</text>
</a>
</g>
</g>
<!-- dir_567fd94d20573b82fae4b73e87e5ca9b -->
<g id="node5" class="node">
<title>dir_567fd94d20573b82fae4b73e87e5ca9b</title>
<g id="a_node5"><a xlink:href="dir_567fd94d20573b82fae4b73e87e5ca9b.html" target="_top" xlink:title="ifxBase">
<polygon fill="white" stroke="black" points="370,-60 316,-60 316,-24 370,-24 370,-60"/>
<text text-anchor="middle" x="343" y="-39.5" font-family="Helvetica,sans-Serif" font-size="10.00">ifxBase</text>
</a>
</g>
</g>
<!-- dir_f3c50492aca301091183f2e22e50c2c8&#45;&gt;dir_567fd94d20573b82fae4b73e87e5ca9b -->
<g id="edge6" class="edge">
<title>dir_f3c50492aca301091183f2e22e50c2c8&#45;&gt;dir_567fd94d20573b82fae4b73e87e5ca9b</title>
<path fill="none" stroke="black" d="M492.06,-95.97C457.53,-83.7 411.63,-67.38 379.93,-56.12"/>
<polygon fill="black" stroke="black" points="380.76,-52.7 370.17,-52.65 378.42,-59.3 380.76,-52.7"/>
<g id="a_edge6&#45;headlabel"><a xlink:href="dir_000004_000007.html" target="_top" xlink:title="2">
<text text-anchor="middle" x="385.1" y="-48.73" font-family="Helvetica,sans-Serif" font-size="10.00">2</text>
</a>
</g>
</g>
<!-- dir_4697e86ad33e45c91248444b464b6119 -->
<g id="node3" class="node">
<title>dir_4697e86ad33e45c91248444b464b6119</title>
<g id="a_node3"><a xlink:href="dir_4697e86ad33e45c91248444b464b6119.html" target="_top" xlink:title="ifxAlgo">
<polygon fill="white" stroke="black" points="408,-204 354,-204 354,-168 408,-168 408,-204"/>
<text text-anchor="middle" x="381" y="-183.5" font-family="Helvetica,sans-Serif" font-size="10.00">ifxAlgo</text>
</a>
</g>
</g>
<!-- dir_4697e86ad33e45c91248444b464b6119&#45;&gt;dir_567fd94d20573b82fae4b73e87e5ca9b -->
<g id="edge5" class="edge">
<title>dir_4697e86ad33e45c91248444b464b6119&#45;&gt;dir_567fd94d20573b82fae4b73e87e5ca9b</title>
<path fill="none" stroke="black" d="M387.85,-167.99C394.17,-149.61 401.31,-119.78 392,-96 387.8,-85.28 380.31,-75.43 372.42,-67.2"/>
<polygon fill="black" stroke="black" points="374.76,-64.59 365.15,-60.13 369.88,-69.61 374.76,-64.59"/>
<g id="a_edge5&#45;headlabel"><a xlink:href="dir_000005_000007.html" target="_top" xlink:title="16">
<text text-anchor="middle" x="379.32" y="-62.57" font-family="Helvetica,sans-Serif" font-size="10.00">16</text>
</a>
</g>
</g>
<!-- dir_1346ff5bb9c7843a219db733dcd633fb -->
<g id="node4" class="node">
<title>dir_1346ff5bb9c7843a219db733dcd633fb</title>
<g id="a_node4"><a xlink:href="dir_1346ff5bb9c7843a219db733dcd633fb.html" target="_top" xlink:title="ifxAvian">
<polygon fill="white" stroke="black" points="220,-204 164,-204 164,-168 220,-168 220,-204"/>
<text text-anchor="middle" x="192" y="-183.5" font-family="Helvetica,sans-Serif" font-size="10.00">ifxAvian</text>
</a>
</g>
</g>
<!-- dir_1346ff5bb9c7843a219db733dcd633fb&#45;&gt;dir_567fd94d20573b82fae4b73e87e5ca9b -->
<g id="edge11" class="edge">
<title>dir_1346ff5bb9c7843a219db733dcd633fb&#45;&gt;dir_567fd94d20573b82fae4b73e87e5ca9b</title>
<path fill="none" stroke="black" d="M196.23,-167.85C202.12,-145.12 213.18,-106.64 223,-96 245.04,-72.1 279.82,-58.37 306.27,-50.91"/>
<polygon fill="black" stroke="black" points="307.19,-54.29 315.96,-48.34 305.4,-47.52 307.19,-54.29"/>
<g id="a_edge11&#45;headlabel"><a xlink:href="dir_000006_000007.html" target="_top" xlink:title="7">
<text text-anchor="middle" x="304.44" y="-55.45" font-family="Helvetica,sans-Serif" font-size="10.00">7</text>
</a>
</g>
</g>
<!-- dir_c4ebba6b7f8869d2f5ecfd530fb1e966 -->
<g id="node9" class="node">
<title>dir_c4ebba6b7f8869d2f5ecfd530fb1e966</title>
<g id="a_node9"><a xlink:href="dir_c4ebba6b7f8869d2f5ecfd530fb1e966.html" target="_top" xlink:title="ifxRadarDeviceCommon">
<polygon fill="white" stroke="black" points="368,-132 232,-132 232,-96 368,-96 368,-132"/>
<text text-anchor="middle" x="300" y="-111.5" font-family="Helvetica,sans-Serif" font-size="10.00">ifxRadarDeviceCommon</text>
</a>
</g>
</g>
<!-- dir_1346ff5bb9c7843a219db733dcd633fb&#45;&gt;dir_c4ebba6b7f8869d2f5ecfd530fb1e966 -->
<g id="edge10" class="edge">
<title>dir_1346ff5bb9c7843a219db733dcd633fb&#45;&gt;dir_c4ebba6b7f8869d2f5ecfd530fb1e966</title>
<path fill="none" stroke="black" d="M218.42,-167.88C232.41,-158.81 249.78,-147.55 264.89,-137.76"/>
<polygon fill="black" stroke="black" points="266.99,-140.57 273.48,-132.19 263.18,-134.69 266.99,-140.57"/>
<g id="a_edge10&#45;headlabel"><a xlink:href="dir_000006_000011.html" target="_top" xlink:title="2">
<text text-anchor="middle" x="265.52" y="-142.4" font-family="Helvetica,sans-Serif" font-size="10.00">2</text>
</a>
</g>
</g>
<!-- dir_7462e2f4719e80cf99f56e7bb1f61d9c -->
<g id="node11" class="node">
<title>dir_7462e2f4719e80cf99f56e7bb1f61d9c</title>
<g id="a_node11"><a xlink:href="dir_7462e2f4719e80cf99f56e7bb1f61d9c.html" target="_top" xlink:title="ifxRecording">
<polygon fill="white" stroke="black" points="194,-132 116,-132 116,-96 194,-96 194,-132"/>
<text text-anchor="middle" x="155" y="-111.5" font-family="Helvetica,sans-Serif" font-size="10.00">ifxRecording</text>
</a>
</g>
</g>
<!-- dir_1346ff5bb9c7843a219db733dcd633fb&#45;&gt;dir_7462e2f4719e80cf99f56e7bb1f61d9c -->
<g id="edge9" class="edge">
<title>dir_1346ff5bb9c7843a219db733dcd633fb&#45;&gt;dir_7462e2f4719e80cf99f56e7bb1f61d9c</title>
<path fill="none" stroke="black" d="M176.94,-167.7C171.9,-159.73 166.6,-150.1 162.32,-141.26"/>
<polygon fill="black" stroke="black" points="165.48,-139.75 158.15,-132.1 159.11,-142.66 165.48,-139.75"/>
<g id="a_edge9&#45;headlabel"><a xlink:href="dir_000006_000013.html" target="_top" xlink:title="1">
<text text-anchor="middle" x="169.55" y="-139.34" font-family="Helvetica,sans-Serif" font-size="10.00">1</text>
</a>
</g>
</g>
<!-- dir_7319906a953183252d2a650fb1ea8ca7 -->
<g id="node6" class="node">
<title>dir_7319906a953183252d2a650fb1ea8ca7</title>
<g id="a_node6"><a xlink:href="dir_7319906a953183252d2a650fb1ea8ca7.html" target="_top" xlink:title="ifxDopplerLTR11">
<polygon fill="white" stroke="black" points="335.5,-204 238.5,-204 238.5,-168 335.5,-168 335.5,-204"/>
<text text-anchor="middle" x="287" y="-183.5" font-family="Helvetica,sans-Serif" font-size="10.00">ifxDopplerLTR11</text>
</a>
</g>
</g>
<!-- dir_7319906a953183252d2a650fb1ea8ca7&#45;&gt;dir_567fd94d20573b82fae4b73e87e5ca9b -->
<g id="edge8" class="edge">
<title>dir_7319906a953183252d2a650fb1ea8ca7&#45;&gt;dir_567fd94d20573b82fae4b73e87e5ca9b</title>
<path fill="none" stroke="black" d="M335.56,-167.97C351.67,-159.73 367.82,-148.06 377,-132 388.57,-111.76 377.09,-86.83 364.44,-68.51"/>
<polygon fill="black" stroke="black" points="366.99,-66.06 358.23,-60.1 361.36,-70.22 366.99,-66.06"/>
<g id="a_edge8&#45;headlabel"><a xlink:href="dir_000008_000007.html" target="_top" xlink:title="5">
<text text-anchor="middle" x="371.41" y="-64.77" font-family="Helvetica,sans-Serif" font-size="10.00">5</text>
</a>
</g>
</g>
<!-- dir_7319906a953183252d2a650fb1ea8ca7&#45;&gt;dir_c4ebba6b7f8869d2f5ecfd530fb1e966 -->
<g id="edge7" class="edge">
<title>dir_7319906a953183252d2a650fb1ea8ca7&#45;&gt;dir_c4ebba6b7f8869d2f5ecfd530fb1e966</title>
<path fill="none" stroke="black" d="M290.21,-167.7C291.65,-159.98 293.37,-150.71 294.96,-142.11"/>
<polygon fill="black" stroke="black" points="298.44,-142.58 296.82,-132.1 291.56,-141.3 298.44,-142.58"/>
<g id="a_edge7&#45;headlabel"><a xlink:href="dir_000008_000011.html" target="_top" xlink:title="1">
<text text-anchor="middle" x="300.57" y="-144.13" font-family="Helvetica,sans-Serif" font-size="10.00">1</text>
</a>
</g>
</g>
<!-- dir_b52bee1fca023028b1ddc7682ae2149b -->
<g id="node7" class="node">
<title>dir_b52bee1fca023028b1ddc7682ae2149b</title>
<g id="a_node7"><a xlink:href="dir_b52bee1fca023028b1ddc7682ae2149b.html" target="_top" xlink:title="ifxMotionAngle">
<polygon fill="white" stroke="black" points="492.5,-276 401.5,-276 401.5,-240 492.5,-240 492.5,-276"/>
<text text-anchor="middle" x="447" y="-255.5" font-family="Helvetica,sans-Serif" font-size="10.00">ifxMotionAngle</text>
</a>
</g>
</g>
<!-- dir_b52bee1fca023028b1ddc7682ae2149b&#45;&gt;dir_1346ff5bb9c7843a219db733dcd633fb -->
<g id="edge1" class="edge">
<title>dir_b52bee1fca023028b1ddc7682ae2149b&#45;&gt;dir_1346ff5bb9c7843a219db733dcd633fb</title>
<path fill="none" stroke="black" d="M401.46,-242.61C398.27,-241.7 395.09,-240.82 392,-240 320.71,-221.09 300.02,-227.18 230,-204 229.9,-203.97 229.8,-203.93 229.7,-203.9"/>
<polygon fill="black" stroke="black" points="230.98,-200.64 220.39,-200.44 228.54,-207.2 230.98,-200.64"/>
<g id="a_edge1&#45;headlabel"><a xlink:href="dir_000009_000006.html" target="_top" xlink:title="1">
<text text-anchor="middle" x="235.34" y="-196.73" font-family="Helvetica,sans-Serif" font-size="10.00">1</text>
</a>
</g>
</g>
<!-- dir_b52bee1fca023028b1ddc7682ae2149b&#45;&gt;dir_567fd94d20573b82fae4b73e87e5ca9b -->
<g id="edge2" class="edge">
<title>dir_b52bee1fca023028b1ddc7682ae2149b&#45;&gt;dir_567fd94d20573b82fae4b73e87e5ca9b</title>
<path fill="none" stroke="black" d="M446.7,-239.6C445.39,-208.44 439.12,-142.06 410,-96 402.09,-83.49 390.17,-72.68 378.56,-64.15"/>
<polygon fill="black" stroke="black" points="380.44,-61.19 370.23,-58.34 376.44,-66.93 380.44,-61.19"/>
<g id="a_edge2&#45;headlabel"><a xlink:href="dir_000009_000007.html" target="_top" xlink:title="2">
<text text-anchor="middle" x="385.01" y="-58.41" font-family="Helvetica,sans-Serif" font-size="10.00">2</text>
</a>
</g>
</g>
<!-- dir_dab4b19e452ad33ce9758a674c7abd78 -->
<g id="node8" class="node">
<title>dir_dab4b19e452ad33ce9758a674c7abd78</title>
<g id="a_node8"><a xlink:href="dir_dab4b19e452ad33ce9758a674c7abd78.html" target="_top" xlink:title="ifxRadar">
<polygon fill="white" stroke="black" points="383,-276 325,-276 325,-240 383,-240 383,-276"/>
<text text-anchor="middle" x="354" y="-255.5" font-family="Helvetica,sans-Serif" font-size="10.00">ifxRadar</text>
</a>
</g>
</g>
<!-- dir_dab4b19e452ad33ce9758a674c7abd78&#45;&gt;dir_4697e86ad33e45c91248444b464b6119 -->
<g id="edge16" class="edge">
<title>dir_dab4b19e452ad33ce9758a674c7abd78&#45;&gt;dir_4697e86ad33e45c91248444b464b6119</title>
<path fill="none" stroke="black" d="M360.67,-239.7C363.71,-231.81 367.38,-222.3 370.76,-213.55"/>
<polygon fill="black" stroke="black" points="374.07,-214.69 374.4,-204.1 367.54,-212.17 374.07,-214.69"/>
<g id="a_edge16&#45;headlabel"><a xlink:href="dir_000010_000005.html" target="_top" xlink:title="5">
<text text-anchor="middle" x="375.42" y="-216.57" font-family="Helvetica,sans-Serif" font-size="10.00">5</text>
</a>
</g>
</g>
<!-- dir_dab4b19e452ad33ce9758a674c7abd78&#45;&gt;dir_1346ff5bb9c7843a219db733dcd633fb -->
<g id="edge17" class="edge">
<title>dir_dab4b19e452ad33ce9758a674c7abd78&#45;&gt;dir_1346ff5bb9c7843a219db733dcd633fb</title>
<path fill="none" stroke="black" d="M324.88,-244.71C299.71,-234.06 262.39,-218.17 230,-204 229.8,-203.91 229.6,-203.83 229.4,-203.74"/>
<polygon fill="black" stroke="black" points="230.76,-200.51 220.2,-199.68 227.93,-206.92 230.76,-200.51"/>
<g id="a_edge17&#45;headlabel"><a xlink:href="dir_000010_000006.html" target="_top" xlink:title="2">
<text text-anchor="middle" x="235.2" y="-196.87" font-family="Helvetica,sans-Serif" font-size="10.00">2</text>
</a>
</g>
</g>
<!-- dir_dab4b19e452ad33ce9758a674c7abd78&#45;&gt;dir_567fd94d20573b82fae4b73e87e5ca9b -->
<g id="edge18" class="edge">
<title>dir_dab4b19e452ad33ce9758a674c7abd78&#45;&gt;dir_567fd94d20573b82fae4b73e87e5ca9b</title>
<path fill="none" stroke="black" d="M383.31,-240.5C396.18,-231.53 409.94,-219.16 417,-204 423.75,-189.49 418.95,-183.88 417,-168 412.97,-135.26 415.64,-124.48 399,-96 392.61,-85.08 383.31,-74.99 374.11,-66.62"/>
<polygon fill="black" stroke="black" points="376.33,-63.91 366.48,-60.01 371.74,-69.2 376.33,-63.91"/>
<g id="a_edge18&#45;headlabel"><a xlink:href="dir_000010_000007.html" target="_top" xlink:title="20">
<text text-anchor="middle" x="380.9" y="-61.61" font-family="Helvetica,sans-Serif" font-size="10.00">20</text>
</a>
</g>
</g>
<!-- dir_c4ebba6b7f8869d2f5ecfd530fb1e966&#45;&gt;dir_567fd94d20573b82fae4b73e87e5ca9b -->
<g id="edge12" class="edge">
<title>dir_c4ebba6b7f8869d2f5ecfd530fb1e966&#45;&gt;dir_567fd94d20573b82fae4b73e87e5ca9b</title>
<path fill="none" stroke="black" d="M310.63,-95.7C315.63,-87.56 321.69,-77.69 327.21,-68.7"/>
<polygon fill="black" stroke="black" points="330.24,-70.46 332.49,-60.1 324.28,-66.79 330.24,-70.46"/>
<g id="a_edge12&#45;headlabel"><a xlink:href="dir_000011_000007.html" target="_top" xlink:title="1">
<text text-anchor="middle" x="330.78" y="-72.51" font-family="Helvetica,sans-Serif" font-size="10.00">1</text>
</a>
</g>
</g>
<!-- dir_029b6408fc75c8aa18949ca0afd8f1c3 -->
<g id="node10" class="node">
<title>dir_029b6408fc75c8aa18949ca0afd8f1c3</title>
<g id="a_node10"><a xlink:href="dir_029b6408fc75c8aa18949ca0afd8f1c3.html" target="_top" xlink:title="ifxRadarSegmentation">
<polygon fill="white" stroke="black" points="208,-276 82,-276 82,-240 208,-240 208,-276"/>
<text text-anchor="middle" x="145" y="-255.5" font-family="Helvetica,sans-Serif" font-size="10.00">ifxRadarSegmentation</text>
</a>
</g>
</g>
<!-- dir_029b6408fc75c8aa18949ca0afd8f1c3&#45;&gt;dir_1346ff5bb9c7843a219db733dcd633fb -->
<g id="edge14" class="edge">
<title>dir_029b6408fc75c8aa18949ca0afd8f1c3&#45;&gt;dir_1346ff5bb9c7843a219db733dcd633fb</title>
<path fill="none" stroke="black" d="M156.62,-239.7C162.14,-231.47 168.85,-221.48 174.93,-212.42"/>
<polygon fill="black" stroke="black" points="177.85,-214.36 180.52,-204.1 172.04,-210.46 177.85,-214.36"/>
<g id="a_edge14&#45;headlabel"><a xlink:href="dir_000012_000006.html" target="_top" xlink:title="1">
<text text-anchor="middle" x="178.2" y="-216.42" font-family="Helvetica,sans-Serif" font-size="10.00">1</text>
</a>
</g>
</g>
<!-- dir_029b6408fc75c8aa18949ca0afd8f1c3&#45;&gt;dir_567fd94d20573b82fae4b73e87e5ca9b -->
<g id="edge15" class="edge">
<title>dir_029b6408fc75c8aa18949ca0afd8f1c3&#45;&gt;dir_567fd94d20573b82fae4b73e87e5ca9b</title>
<path fill="none" stroke="black" d="M132.6,-239.92C111.15,-208.09 72.54,-139.05 107,-96 131.44,-65.46 245.31,-51.3 305.49,-45.85"/>
<polygon fill="black" stroke="black" points="306.06,-49.32 315.72,-44.97 305.45,-42.34 306.06,-49.32"/>
<g id="a_edge15&#45;headlabel"><a xlink:href="dir_000012_000007.html" target="_top" xlink:title="5">
<text text-anchor="middle" x="302.73" y="-49.96" font-family="Helvetica,sans-Serif" font-size="10.00">5</text>
</a>
</g>
</g>
<!-- dir_7462e2f4719e80cf99f56e7bb1f61d9c&#45;&gt;dir_1346ff5bb9c7843a219db733dcd633fb -->
<g id="edge3" class="edge">
<title>dir_7462e2f4719e80cf99f56e7bb1f61d9c&#45;&gt;dir_1346ff5bb9c7843a219db733dcd633fb</title>
<path fill="none" stroke="black" d="M169.94,-132.1C174.96,-140.04 180.28,-149.67 184.57,-158.51"/>
<polygon fill="black" stroke="black" points="181.43,-160.06 188.77,-167.7 187.79,-157.15 181.43,-160.06"/>
<g id="a_edge3&#45;headlabel"><a xlink:href="dir_000013_000006.html" target="_top" xlink:title="1">
<text text-anchor="middle" x="177.35" y="-155.47" font-family="Helvetica,sans-Serif" font-size="10.00">1</text>
</a>
</g>
</g>
<!-- dir_7462e2f4719e80cf99f56e7bb1f61d9c&#45;&gt;dir_567fd94d20573b82fae4b73e87e5ca9b -->
<g id="edge4" class="edge">
<title>dir_7462e2f4719e80cf99f56e7bb1f61d9c&#45;&gt;dir_567fd94d20573b82fae4b73e87e5ca9b</title>
<path fill="none" stroke="black" d="M194.41,-98.33C227.39,-86.05 274.09,-68.66 306.29,-56.67"/>
<polygon fill="black" stroke="black" points="307.64,-59.9 315.79,-53.13 305.2,-53.34 307.64,-59.9"/>
<g id="a_edge4&#45;headlabel"><a xlink:href="dir_000013_000007.html" target="_top" xlink:title="2">
<text text-anchor="middle" x="305.26" y="-61.32" font-family="Helvetica,sans-Serif" font-size="10.00">2</text>
</a>
</g>
</g>
<!-- dir_3e15448443e7fb09bbd22f63da6e466f -->
<g id="node12" class="node">
<title>dir_3e15448443e7fb09bbd22f63da6e466f</title>
<g id="a_node12"><a xlink:href="dir_3e15448443e7fb09bbd22f63da6e466f.html" target="_top" xlink:title="ifxUtil">
<polygon fill="white" stroke="black" points="78,-132 24,-132 24,-96 78,-96 78,-132"/>
<text text-anchor="middle" x="51" y="-111.5" font-family="Helvetica,sans-Serif" font-size="10.00">ifxUtil</text>
</a>
</g>
</g>
<!-- dir_3e15448443e7fb09bbd22f63da6e466f&#45;&gt;dir_567fd94d20573b82fae4b73e87e5ca9b -->
<g id="edge13" class="edge">
<title>dir_3e15448443e7fb09bbd22f63da6e466f&#45;&gt;dir_567fd94d20573b82fae4b73e87e5ca9b</title>
<path fill="none" stroke="black" d="M78.09,-100.95C82.68,-99.14 87.44,-97.41 92,-96 166.47,-72.92 256.45,-56.62 305.92,-48.62"/>
<polygon fill="black" stroke="black" points="306.51,-52.07 315.84,-47.04 305.41,-45.16 306.51,-52.07"/>
<g id="a_edge13&#45;headlabel"><a xlink:href="dir_000014_000007.html" target="_top" xlink:title="6">
<text text-anchor="middle" x="303.41" y="-52.94" font-family="Helvetica,sans-Serif" font-size="10.00">6</text>
</a>
</g>
</g>
</g>
</svg>
