<?xml version="1.0" encoding="UTF-8" standalone="no"?>
<!DOCTYPE svg PUBLIC "-//W3C//DTD SVG 1.1//EN"
 "http://www.w3.org/Graphics/SVG/1.1/DTD/svg11.dtd">
<!-- Generated by graphviz version 2.43.0 (0)
 -->
<!-- Title: /home/jenkins/jenkins&#45;ci/workspace/er_release_release&#45;branch&#45;v3.3.1@2/sdk/c/ifxMotionAngle Pages: 1 -->
<svg width="132pt" height="223pt"
 viewBox="0.00 0.00 132.00 223.00" xmlns="http://www.w3.org/2000/svg" xmlns:xlink="http://www.w3.org/1999/xlink">
<g id="graph0" class="graph" transform="scale(1 1) rotate(0) translate(4 219)">
<title>/home/jenkins/jenkins&#45;ci/workspace/er_release_release&#45;branch&#45;v3.3.1@2/sdk/c/ifxMotionAngle</title>
<polygon fill="white" stroke="transparent" points="-4,4 -4,-219 128,-219 128,4 -4,4"/>
<g id="clust1" class="cluster">
<title>clusterdir_cb1b8b20a863d3b4f720b5073297472d</title>
<g id="a_clust1"><a xlink:href="dir_cb1b8b20a863d3b4f720b5073297472d.html" target="_top" xlink:title="c">
<polygon fill="#ddddee" stroke="black" points="8,-136 8,-207 116,-207 116,-136 8,-136"/>
<text text-anchor="middle" x="62" y="-195" font-family="Helvetica,sans-Serif" font-size="10.00">c</text>
</a>
</g>
</g>
<!-- dir_b52bee1fca023028b1ddc7682ae2149b -->
<g id="node1" class="node">
<title>dir_b52bee1fca023028b1ddc7682ae2149b</title>
<g id="a_node1"><a xlink:href="dir_b52bee1fca023028b1ddc7682ae2149b.html" target="_top" xlink:title="ifxMotionAngle">
<polygon fill="#eeeeff" stroke="black" points="107.5,-180 16.5,-180 16.5,-144 107.5,-144 107.5,-180"/>
<text text-anchor="middle" x="62" y="-159.5" font-family="Helvetica,sans-Serif" font-size="10.00">ifxMotionAngle</text>
</a>
</g>
</g>
<!-- dir_1346ff5bb9c7843a219db733dcd633fb -->
<g id="node2" class="node">
<title>dir_1346ff5bb9c7843a219db733dcd633fb</title>
<g id="a_node2"><a xlink:href="dir_1346ff5bb9c7843a219db733dcd633fb.html" target="_top" xlink:title="ifxAvian">
<polygon fill="none" stroke="black" points="62,-108 6,-108 6,-72 62,-72 62,-108"/>
<text text-anchor="middle" x="34" y="-87.5" font-family="Helvetica,sans-Serif" font-size="10.00">ifxAvian</text>
</a>
</g>
</g>
<!-- dir_b52bee1fca023028b1ddc7682ae2149b&#45;&gt;dir_1346ff5bb9c7843a219db733dcd633fb -->
<g id="edge1" class="edge">
<title>dir_b52bee1fca023028b1ddc7682ae2149b&#45;&gt;dir_1346ff5bb9c7843a219db733dcd633fb</title>
<path fill="none" stroke="black" d="M55.08,-143.7C51.93,-135.81 48.12,-126.3 44.62,-117.55"/>
<polygon fill="black" stroke="black" points="47.81,-116.09 40.84,-108.1 41.31,-118.69 47.81,-116.09"/>
<g id="a_edge1&#45;headlabel"><a xlink:href="dir_000009_000006.html" target="_top" xlink:title="1">
<text text-anchor="middle" x="51.78" y="-115.87" font-family="Helvetica,sans-Serif" font-size="10.00">1</text>
</a>
</g>
</g>
<!-- dir_567fd94d20573b82fae4b73e87e5ca9b -->
<g id="node3" class="node">
<title>dir_567fd94d20573b82fae4b73e87e5ca9b</title>
<g id="a_node3"><a xlink:href="dir_567fd94d20573b82fae4b73e87e5ca9b.html" target="_top" xlink:title="ifxBase">
<polygon fill="none" stroke="black" points="89,-36 35,-36 35,0 89,0 89,-36"/>
<text text-anchor="middle" x="62" y="-15.5" font-family="Helvetica,sans-Serif" font-size="10.00">ifxBase</text>
</a>
</g>
</g>
<!-- dir_b52bee1fca023028b1ddc7682ae2149b&#45;&gt;dir_567fd94d20573b82fae4b73e87e5ca9b -->
<g id="edge2" class="edge">
<title>dir_b52bee1fca023028b1ddc7682ae2149b&#45;&gt;dir_567fd94d20573b82fae4b73e87e5ca9b</title>
<path fill="none" stroke="black" d="M65.65,-143.91C67.68,-133.57 69.98,-120.09 71,-108 72.34,-92.06 72.34,-87.94 71,-72 70.28,-63.5 68.93,-54.31 67.49,-46.01"/>
<polygon fill="black" stroke="black" points="70.91,-45.29 65.65,-36.09 64.03,-46.56 70.91,-45.29"/>
<g id="a_edge2&#45;headlabel"><a xlink:href="dir_000009_000007.html" target="_top" xlink:title="2">
<text text-anchor="middle" x="74.36" y="-45.81" font-family="Helvetica,sans-Serif" font-size="10.00">2</text>
</a>
</g>
</g>
<!-- dir_1346ff5bb9c7843a219db733dcd633fb&#45;&gt;dir_567fd94d20573b82fae4b73e87e5ca9b -->
<g id="edge3" class="edge">
<title>dir_1346ff5bb9c7843a219db733dcd633fb&#45;&gt;dir_567fd94d20573b82fae4b73e87e5ca9b</title>
<path fill="none" stroke="black" d="M40.92,-71.7C44.07,-63.81 47.88,-54.3 51.38,-45.55"/>
<polygon fill="black" stroke="black" points="54.69,-46.69 55.16,-36.1 48.19,-44.09 54.69,-46.69"/>
<g id="a_edge3&#45;headlabel"><a xlink:href="dir_000006_000007.html" target="_top" xlink:title="7">
<text text-anchor="middle" x="56" y="-48.58" font-family="Helvetica,sans-Serif" font-size="10.00">7</text>
</a>
</g>
</g>
</g>
</svg>
