<?xml version="1.0" encoding="UTF-8" standalone="no"?>
<!DOCTYPE svg PUBLIC "-//W3C//DTD SVG 1.1//EN"
 "http://www.w3.org/Graphics/SVG/1.1/DTD/svg11.dtd">
<!-- Generated by graphviz version 2.43.0 (0)
 -->
<!-- Title: BGT60LTR11 Doppler Radar Sensors (ifxDopplerLTR11) Pages: 1 -->
<svg width="316pt" height="49pt"
 viewBox="0.00 0.00 316.00 49.00" xmlns="http://www.w3.org/2000/svg" xmlns:xlink="http://www.w3.org/1999/xlink">
<g id="graph0" class="graph" transform="scale(1 1) rotate(0) translate(4 45)">
<title>BGT60LTR11 Doppler Radar Sensors (ifxDopplerLTR11)</title>
<polygon fill="white" stroke="transparent" points="-4,4 -4,-45 312,-45 312,4 -4,4"/>
<!-- Node2 -->
<g id="node1" class="node">
<title>Node2</title>
<g id="a_node1"><a xlink:href="group__gr__device__ltr11__control.html" target="_top" xlink:title="API for 60GHz Radar device BGT60LTR11 to configure and get raw data.">
<polygon fill="white" stroke="black" points="308,-30 183,-30 183,-11 308,-11 308,-30"/>
<text text-anchor="middle" x="245.5" y="-18" font-family="Helvetica,sans-Serif" font-size="10.00">Device LTR11 (60GHz)</text>
</a>
</g>
</g>
<!-- Node1 -->
<g id="node2" class="node">
<title>Node1</title>
<g id="a_node2"><a xlink:title=" ">
<polygon fill="#bfbfbf" stroke="black" points="147,-41 0,-41 0,0 147,0 147,-41"/>
<text text-anchor="start" x="8" y="-29" font-family="Helvetica,sans-Serif" font-size="10.00">BGT60LTR11 Doppler</text>
<text text-anchor="start" x="8" y="-18" font-family="Helvetica,sans-Serif" font-size="10.00"> Radar Sensors (ifxDoppler</text>
<text text-anchor="middle" x="73.5" y="-7" font-family="Helvetica,sans-Serif" font-size="10.00">LTR11)</text>
</a>
</g>
</g>
<!-- Node1&#45;&gt;Node2 -->
<g id="edge1" class="edge">
<title>Node1&#45;&gt;Node2</title>
<path fill="none" stroke="black" d="M157.2,-20.5C165.84,-20.5 174.51,-20.5 182.86,-20.5"/>
<polygon fill="black" stroke="black" points="157.09,-17 147.09,-20.5 157.09,-24 157.09,-17"/>
</g>
</g>
</svg>
