<?xml version="1.0" encoding="UTF-8" standalone="no"?>
<!DOCTYPE svg PUBLIC "-//W3C//DTD SVG 1.1//EN"
 "http://www.w3.org/Graphics/SVG/1.1/DTD/svg11.dtd">
<!-- Generated by graphviz version 2.43.0 (0)
 -->
<!-- Title: Avian Radar Sensor (ifxAvian) Pages: 1 -->
<svg width="274pt" height="138pt"
 viewBox="0.00 0.00 274.00 138.00" xmlns="http://www.w3.org/2000/svg" xmlns:xlink="http://www.w3.org/1999/xlink">
<g id="graph0" class="graph" transform="scale(1 1) rotate(0) translate(4 134)">
<title>Avian Radar Sensor (ifxAvian)</title>
<polygon fill="white" stroke="transparent" points="-4,4 -4,-134 270,-134 270,4 -4,4"/>
<!-- Node4 -->
<g id="node1" class="node">
<title>Node4</title>
<g id="a_node1"><a xlink:href="group__gr__devicecontrol.html" target="_top" xlink:title="API for Radar device control operations.">
<polygon fill="white" stroke="black" points="251,-130 162,-130 162,-111 251,-111 251,-130"/>
<text text-anchor="middle" x="206.5" y="-118" font-family="Helvetica,sans-Serif" font-size="10.00">Device Control</text>
</a>
</g>
</g>
<!-- Node1 -->
<g id="node2" class="node">
<title>Node1</title>
<g id="a_node2"><a xlink:title=" ">
<polygon fill="#bfbfbf" stroke="black" points="111,-79.5 0,-79.5 0,-49.5 111,-49.5 111,-79.5"/>
<text text-anchor="start" x="8" y="-67.5" font-family="Helvetica,sans-Serif" font-size="10.00">Avian Radar Sensor</text>
<text text-anchor="middle" x="55.5" y="-56.5" font-family="Helvetica,sans-Serif" font-size="10.00"> (ifxAvian)</text>
</a>
</g>
</g>
<!-- Node1&#45;&gt;Node4 -->
<g id="edge3" class="edge">
<title>Node1&#45;&gt;Node4</title>
<path fill="none" stroke="black" d="M99.6,-83.62C114.49,-89.96 131.36,-96.83 147,-102.5 155.19,-105.47 164.14,-108.39 172.51,-110.98"/>
<polygon fill="black" stroke="black" points="100.71,-80.29 90.14,-79.56 97.94,-86.72 100.71,-80.29"/>
</g>
<!-- Node5 -->
<g id="node3" class="node">
<title>Node5</title>
<g id="a_node3"><a xlink:href="group__gr__avian__metrics.html" target="_top" xlink:title="API for Metrics.">
<polygon fill="white" stroke="black" points="233,-93 180,-93 180,-74 233,-74 233,-93"/>
<text text-anchor="middle" x="206.5" y="-81" font-family="Helvetica,sans-Serif" font-size="10.00">Metrics</text>
</a>
</g>
</g>
<!-- Node1&#45;&gt;Node5 -->
<g id="edge4" class="edge">
<title>Node1&#45;&gt;Node5</title>
<path fill="none" stroke="black" d="M121.16,-72.74C141.79,-75.38 163.46,-78.14 179.66,-80.21"/>
<polygon fill="black" stroke="black" points="121.5,-69.26 111.14,-71.47 120.61,-76.2 121.5,-69.26"/>
</g>
<!-- Node2 -->
<g id="node4" class="node">
<title>Node2</title>
<g id="a_node4"><a xlink:href="group__gr__constantwave.html" target="_top" xlink:title="API for Radar constant wave operations.">
<polygon fill="white" stroke="black" points="251.5,-56 161.5,-56 161.5,-37 251.5,-37 251.5,-56"/>
<text text-anchor="middle" x="206.5" y="-44" font-family="Helvetica,sans-Serif" font-size="10.00">Constant Wave</text>
</a>
</g>
</g>
<!-- Node1&#45;&gt;Node2 -->
<g id="edge1" class="edge">
<title>Node1&#45;&gt;Node2</title>
<path fill="none" stroke="black" d="M121.3,-56.67C134.74,-55.05 148.61,-53.37 161.11,-51.86"/>
<polygon fill="black" stroke="black" points="120.64,-53.23 111.14,-57.9 121.48,-60.17 120.64,-53.23"/>
</g>
<!-- Node3 -->
<g id="node5" class="node">
<title>Node3</title>
<g id="a_node5"><a xlink:href="group__gr__deviceconfig.html" target="_top" xlink:title="API for Radar device configuration.">
<polygon fill="white" stroke="black" points="266,-19 147,-19 147,0 266,0 266,-19"/>
<text text-anchor="middle" x="206.5" y="-7" font-family="Helvetica,sans-Serif" font-size="10.00">Device Configuration</text>
</a>
</g>
</g>
<!-- Node1&#45;&gt;Node3 -->
<g id="edge2" class="edge">
<title>Node1&#45;&gt;Node3</title>
<path fill="none" stroke="black" d="M102.41,-45.57C116.63,-39.89 132.4,-33.77 147,-28.5 155.94,-25.27 165.73,-21.99 174.71,-19.09"/>
<polygon fill="black" stroke="black" points="100.81,-42.44 92.84,-49.42 103.43,-48.94 100.81,-42.44"/>
</g>
</g>
</svg>
