<?xml version="1.0" encoding="UTF-8" standalone="no"?>
<!DOCTYPE svg PUBLIC "-//W3C//DTD SVG 1.1//EN"
 "http://www.w3.org/Graphics/SVG/1.1/DTD/svg11.dtd">
<!-- Generated by graphviz version 2.43.0 (0)
 -->
<!-- Title: Base (ifxBase) Pages: 1 -->
<svg width="219pt" height="434pt"
 viewBox="0.00 0.00 219.00 434.00" xmlns="http://www.w3.org/2000/svg" xmlns:xlink="http://www.w3.org/1999/xlink">
<g id="graph0" class="graph" transform="scale(1 1) rotate(0) translate(4 430)">
<title>Base (ifxBase)</title>
<polygon fill="white" stroke="transparent" points="-4,4 -4,-430 215,-430 215,4 -4,4"/>
<!-- Node3 -->
<g id="node1" class="node">
<title>Node3</title>
<g id="a_node1"><a xlink:href="group__gr__cube.html" target="_top" xlink:title="API for operations on Cube data structures.">
<polygon fill="white" stroke="black" points="188,-426 147,-426 147,-407 188,-407 188,-426"/>
<text text-anchor="middle" x="167.5" y="-414" font-family="Helvetica,sans-Serif" font-size="10.00">Cube</text>
</a>
</g>
</g>
<!-- Node13 -->
<g id="node2" class="node">
<title>Node13</title>
<g id="a_node2"><a xlink:href="group__gr__sdk__version.html" target="_top" xlink:title="SDK version query.">
<polygon fill="white" stroke="black" points="194,-389 141,-389 141,-370 194,-370 194,-389"/>
<text text-anchor="middle" x="167.5" y="-377" font-family="Helvetica,sans-Serif" font-size="10.00">Version</text>
</a>
</g>
</g>
<!-- Node2 -->
<g id="node3" class="node">
<title>Node2</title>
<g id="a_node3"><a xlink:href="group__gr__complex.html" target="_top" xlink:title="API for operations on complex numbers.">
<polygon fill="white" stroke="black" points="197.5,-352 137.5,-352 137.5,-333 197.5,-333 197.5,-352"/>
<text text-anchor="middle" x="167.5" y="-340" font-family="Helvetica,sans-Serif" font-size="10.00">Complex</text>
</a>
</g>
</g>
<!-- Node11 -->
<g id="node4" class="node">
<title>Node11</title>
<g id="a_node4"><a xlink:href="group__gr__types.html" target="_top" xlink:title="Definitions of data types used within the SDK.">
<polygon fill="white" stroke="black" points="189.5,-315 145.5,-315 145.5,-296 189.5,-296 189.5,-315"/>
<text text-anchor="middle" x="167.5" y="-303" font-family="Helvetica,sans-Serif" font-size="10.00">Types</text>
</a>
</g>
</g>
<!-- Node7 -->
<g id="node5" class="node">
<title>Node7</title>
<g id="a_node5"><a xlink:href="group__gr__log.html" target="_top" xlink:title="API for logging.">
<polygon fill="white" stroke="black" points="184.5,-278 150.5,-278 150.5,-259 184.5,-259 184.5,-278"/>
<text text-anchor="middle" x="167.5" y="-266" font-family="Helvetica,sans-Serif" font-size="10.00">Log</text>
</a>
</g>
</g>
<!-- Node9 -->
<g id="node6" class="node">
<title>Node9</title>
<g id="a_node6"><a xlink:href="group__gr__matrix.html" target="_top" xlink:title="API for operations on Matrix data structures.">
<polygon fill="white" stroke="black" points="191.5,-241 143.5,-241 143.5,-222 191.5,-222 191.5,-241"/>
<text text-anchor="middle" x="167.5" y="-229" font-family="Helvetica,sans-Serif" font-size="10.00">Matrix</text>
</a>
</g>
</g>
<!-- Node10 -->
<g id="node7" class="node">
<title>Node10</title>
<g id="a_node7"><a xlink:href="group__gr__mem.html" target="_top" xlink:title="API for memory management.">
<polygon fill="white" stroke="black" points="196,-204 139,-204 139,-185 196,-185 196,-204"/>
<text text-anchor="middle" x="167.5" y="-192" font-family="Helvetica,sans-Serif" font-size="10.00">Memory</text>
</a>
</g>
</g>
<!-- Node4 -->
<g id="node8" class="node">
<title>Node4</title>
<g id="a_node8"><a xlink:href="group__gr__error.html" target="_top" xlink:title="API for error handling.">
<polygon fill="white" stroke="black" points="187.5,-167 147.5,-167 147.5,-148 187.5,-148 187.5,-167"/>
<text text-anchor="middle" x="167.5" y="-155" font-family="Helvetica,sans-Serif" font-size="10.00">Error</text>
</a>
</g>
</g>
<!-- Node1 -->
<g id="node9" class="node">
<title>Node1</title>
<g id="a_node9"><a xlink:title=" ">
<polygon fill="#bfbfbf" stroke="black" points="88,-222 0,-222 0,-203 88,-203 88,-222"/>
<text text-anchor="middle" x="44" y="-210" font-family="Helvetica,sans-Serif" font-size="10.00">Base (ifxBase)</text>
</a>
</g>
</g>
<!-- Node1&#45;&gt;Node3 -->
<g id="edge2" class="edge">
<title>Node1&#45;&gt;Node3</title>
<path fill="none" stroke="black" d="M48.29,-232.04C55.51,-269.2 76.09,-350.64 124,-398.5 130.24,-404.73 138.96,-408.93 146.88,-411.69"/>
<polygon fill="black" stroke="black" points="51.7,-231.22 46.46,-222.01 44.81,-232.48 51.7,-231.22"/>
</g>
<!-- Node1&#45;&gt;Node13 -->
<g id="edge12" class="edge">
<title>Node1&#45;&gt;Node13</title>
<path fill="none" stroke="black" d="M50.62,-231.99C60.55,-263.27 84.04,-324.87 124,-361.5 128.73,-365.83 134.65,-369.21 140.56,-371.82"/>
<polygon fill="black" stroke="black" points="53.92,-230.83 47.66,-222.29 47.23,-232.87 53.92,-230.83"/>
</g>
<!-- Node1&#45;&gt;Node2 -->
<g id="edge1" class="edge">
<title>Node1&#45;&gt;Node2</title>
<path fill="none" stroke="black" d="M54.01,-231.23C66.6,-255.67 91.6,-298.38 124,-324.5 128.12,-327.82 132.94,-330.62 137.82,-332.96"/>
<polygon fill="black" stroke="black" points="57.13,-229.64 49.52,-222.26 50.86,-232.77 57.13,-229.64"/>
</g>
<!-- Node1&#45;&gt;Node11 -->
<g id="edge10" class="edge">
<title>Node1&#45;&gt;Node11</title>
<path fill="none" stroke="black" d="M60.25,-230.27C75.17,-246.8 99.21,-271.26 124,-287.5 130.57,-291.8 138.34,-295.45 145.42,-298.31"/>
<polygon fill="black" stroke="black" points="62.57,-227.61 53.32,-222.44 57.33,-232.25 62.57,-227.61"/>
</g>
<!-- Node1&#45;&gt;Node7 -->
<g id="edge6" class="edge">
<title>Node1&#45;&gt;Node7</title>
<path fill="none" stroke="black" d="M73.59,-226.66C88.53,-233.95 107.16,-242.89 124,-250.5 132.62,-254.39 142.32,-258.52 150.28,-261.84"/>
<polygon fill="black" stroke="black" points="74.88,-223.39 64.36,-222.13 71.8,-229.68 74.88,-223.39"/>
</g>
<!-- Node1&#45;&gt;Node9 -->
<g id="edge8" class="edge">
<title>Node1&#45;&gt;Node9</title>
<path fill="none" stroke="black" d="M98.37,-220.85C114.08,-223.3 130.47,-225.87 143.24,-227.86"/>
<polygon fill="black" stroke="black" points="98.6,-217.34 88.18,-219.25 97.52,-224.26 98.6,-217.34"/>
</g>
<!-- Node1&#45;&gt;Node10 -->
<g id="edge9" class="edge">
<title>Node1&#45;&gt;Node10</title>
<path fill="none" stroke="black" d="M98.27,-204.61C112.33,-202.53 126.93,-200.36 139,-198.57"/>
<polygon fill="black" stroke="black" points="97.56,-201.18 88.18,-206.1 98.58,-208.1 97.56,-201.18"/>
</g>
<!-- Node1&#45;&gt;Node4 -->
<g id="edge3" class="edge">
<title>Node1&#45;&gt;Node4</title>
<path fill="none" stroke="black" d="M74.94,-198.79C89.7,-192.05 107.77,-183.82 124,-176.5 131.66,-173.04 140.11,-169.26 147.45,-165.98"/>
<polygon fill="black" stroke="black" points="73.41,-195.64 65.77,-202.98 76.32,-202.01 73.41,-195.64"/>
</g>
<!-- Node5 -->
<g id="node10" class="node">
<title>Node5</title>
<g id="a_node10"><a xlink:href="group__gr__la.html" target="_top" xlink:title="API for Linear Algebra (LA)">
<polygon fill="white" stroke="black" points="211,-130 124,-130 124,-111 211,-111 211,-130"/>
<text text-anchor="middle" x="167.5" y="-118" font-family="Helvetica,sans-Serif" font-size="10.00">Linear Algebra</text>
</a>
</g>
</g>
<!-- Node1&#45;&gt;Node5 -->
<g id="edge4" class="edge">
<title>Node1&#45;&gt;Node5</title>
<path fill="none" stroke="black" d="M60.42,-195.34C75.46,-179.35 99.58,-155.61 124,-139.5 129.4,-135.94 135.57,-132.75 141.51,-130.04"/>
<polygon fill="black" stroke="black" points="57.64,-193.19 53.43,-202.92 62.78,-197.94 57.64,-193.19"/>
</g>
<!-- Node12 -->
<g id="node11" class="node">
<title>Node12</title>
<g id="a_node11"><a xlink:href="group__gr__vector.html" target="_top" xlink:title="API for operations on Vector data structures.">
<polygon fill="white" stroke="black" points="191,-93 144,-93 144,-74 191,-74 191,-93"/>
<text text-anchor="middle" x="167.5" y="-81" font-family="Helvetica,sans-Serif" font-size="10.00">Vector</text>
</a>
</g>
</g>
<!-- Node1&#45;&gt;Node12 -->
<g id="edge11" class="edge">
<title>Node1&#45;&gt;Node12</title>
<path fill="none" stroke="black" d="M54.34,-193.88C67.16,-169.94 92.27,-128.38 124,-102.5 129.76,-97.8 136.87,-94.02 143.62,-91.12"/>
<polygon fill="black" stroke="black" points="51.12,-192.48 49.61,-202.97 57.33,-195.71 51.12,-192.48"/>
</g>
<!-- Node6 -->
<g id="node12" class="node">
<title>Node6</title>
<g id="a_node12"><a xlink:href="group__gr__list.html" target="_top" xlink:title="API for list handling.">
<polygon fill="white" stroke="black" points="184.5,-56 150.5,-56 150.5,-37 184.5,-37 184.5,-56"/>
<text text-anchor="middle" x="167.5" y="-44" font-family="Helvetica,sans-Serif" font-size="10.00">List</text>
</a>
</g>
</g>
<!-- Node1&#45;&gt;Node6 -->
<g id="edge5" class="edge">
<title>Node1&#45;&gt;Node6</title>
<path fill="none" stroke="black" d="M50.77,-193.36C60.93,-162.62 84.71,-102.03 124,-65.5 131.34,-58.68 141.54,-54 150.11,-51"/>
<polygon fill="black" stroke="black" points="47.44,-192.3 47.75,-202.89 54.11,-194.42 47.44,-192.3"/>
</g>
<!-- Node8 -->
<g id="node13" class="node">
<title>Node8</title>
<g id="a_node13"><a xlink:href="group__gr__math.html" target="_top" xlink:title="API for Mathematical operations.">
<polygon fill="white" stroke="black" points="188,-19 147,-19 147,0 188,0 188,-19"/>
<text text-anchor="middle" x="167.5" y="-7" font-family="Helvetica,sans-Serif" font-size="10.00">Math</text>
</a>
</g>
</g>
<!-- Node1&#45;&gt;Node8 -->
<g id="edge7" class="edge">
<title>Node1&#45;&gt;Node8</title>
<path fill="none" stroke="black" d="M48.55,-192.74C56.11,-155.88 77.12,-76.08 124,-28.5 130.24,-22.17 138.96,-17.77 146.89,-14.81"/>
<polygon fill="black" stroke="black" points="45.08,-192.23 46.61,-202.71 51.95,-193.56 45.08,-192.23"/>
</g>
</g>
</svg>
