<?xml version="1.0" encoding="UTF-8" standalone="no"?>
<!DOCTYPE svg PUBLIC "-//W3C//DTD SVG 1.1//EN"
 "http://www.w3.org/Graphics/SVG/1.1/DTD/svg11.dtd">
<!-- Generated by graphviz version 2.43.0 (0)
 -->
<!-- Title: ifx_Avian_Shape_Set_s Pages: 1 -->
<svg width="326pt" height="307pt"
 viewBox="0.00 0.00 325.50 307.00" xmlns="http://www.w3.org/2000/svg" xmlns:xlink="http://www.w3.org/1999/xlink">
<g id="graph0" class="graph" transform="scale(1 1) rotate(0) translate(4 303)">
<title>ifx_Avian_Shape_Set_s</title>
<polygon fill="white" stroke="transparent" points="-4,4 -4,-303 321.5,-303 321.5,4 -4,4"/>
<!-- Node1 -->
<g id="node1" class="node">
<title>Node1</title>
<g id="a_node1"><a xlink:title=" ">
<polygon fill="#bfbfbf" stroke="black" points="94,-0.5 94,-19.5 222,-19.5 222,-0.5 94,-0.5"/>
<text text-anchor="middle" x="158" y="-7.5" font-family="Helvetica,sans-Serif" font-size="10.00">ifx_Avian_Shape_Set_s</text>
</a>
</g>
</g>
<!-- Node2 -->
<g id="node2" class="node">
<title>Node2</title>
<g id="a_node2"><a xlink:href="structifx___avian___shape__s.html" target="_top" xlink:title=" ">
<polygon fill="white" stroke="black" points="104.5,-67.5 104.5,-86.5 211.5,-86.5 211.5,-67.5 104.5,-67.5"/>
<text text-anchor="middle" x="158" y="-74.5" font-family="Helvetica,sans-Serif" font-size="10.00">ifx_Avian_Shape_s</text>
</a>
</g>
</g>
<!-- Node2&#45;&gt;Node1 -->
<g id="edge1" class="edge">
<title>Node2&#45;&gt;Node1</title>
<path fill="none" stroke="#9a32cd" stroke-dasharray="5,2" d="M158,-57.04C158,-44.67 158,-29.12 158,-19.63"/>
<polygon fill="#9a32cd" stroke="#9a32cd" points="154.5,-57.23 158,-67.23 161.5,-57.23 154.5,-57.23"/>
<text text-anchor="middle" x="174.5" y="-41" font-family="Helvetica,sans-Serif" font-size="10.00"> shape</text>
</g>
<!-- Node3 -->
<g id="node3" class="node">
<title>Node3</title>
<g id="a_node3"><a xlink:href="structifx___avian___shape___config__s.html" target="_top" xlink:title=" ">
<polygon fill="white" stroke="black" points="86.5,-134.5 86.5,-153.5 229.5,-153.5 229.5,-134.5 86.5,-134.5"/>
<text text-anchor="middle" x="158" y="-141.5" font-family="Helvetica,sans-Serif" font-size="10.00">ifx_Avian_Shape_Config_s</text>
</a>
</g>
</g>
<!-- Node3&#45;&gt;Node2 -->
<g id="edge2" class="edge">
<title>Node3&#45;&gt;Node2</title>
<path fill="none" stroke="#9a32cd" stroke-dasharray="5,2" d="M158,-124.04C158,-111.67 158,-96.12 158,-86.63"/>
<polygon fill="#9a32cd" stroke="#9a32cd" points="154.5,-124.23 158,-134.23 161.5,-124.23 154.5,-124.23"/>
<text text-anchor="middle" x="174.5" y="-108" font-family="Helvetica,sans-Serif" font-size="10.00"> config</text>
</g>
<!-- Node4 -->
<g id="node4" class="node">
<title>Node4</title>
<g id="a_node4"><a xlink:href="structifx___avian___chirp___config__s.html" target="_top" xlink:title=" ">
<polygon fill="white" stroke="black" points="88.5,-212.5 88.5,-231.5 227.5,-231.5 227.5,-212.5 88.5,-212.5"/>
<text text-anchor="middle" x="158" y="-219.5" font-family="Helvetica,sans-Serif" font-size="10.00">ifx_Avian_Chirp_Config_s</text>
</a>
</g>
</g>
<!-- Node4&#45;&gt;Node3 -->
<g id="edge3" class="edge">
<title>Node4&#45;&gt;Node3</title>
<path fill="none" stroke="#9a32cd" stroke-dasharray="5,2" d="M158,-202.22C158,-186.7 158,-165.36 158,-153.62"/>
<polygon fill="#9a32cd" stroke="#9a32cd" points="154.5,-202.28 158,-212.28 161.5,-202.28 154.5,-202.28"/>
<text text-anchor="middle" x="173" y="-186" font-family="Helvetica,sans-Serif" font-size="10.00"> down</text>
<text text-anchor="middle" x="173" y="-175" font-family="Helvetica,sans-Serif" font-size="10.00">up</text>
</g>
<!-- Node5 -->
<g id="node5" class="node">
<title>Node5</title>
<g id="a_node5"><a xlink:href="structifx___avian___chirp___settings__s.html" target="_top" xlink:title=" ">
<polygon fill="white" stroke="black" points="0,-279.5 0,-298.5 148,-298.5 148,-279.5 0,-279.5"/>
<text text-anchor="middle" x="74" y="-286.5" font-family="Helvetica,sans-Serif" font-size="10.00">ifx_Avian_Chirp_Settings_s</text>
</a>
</g>
</g>
<!-- Node5&#45;&gt;Node4 -->
<g id="edge4" class="edge">
<title>Node5&#45;&gt;Node4</title>
<path fill="none" stroke="#9a32cd" stroke-dasharray="5,2" d="M93.3,-273.07C109.88,-260.24 133.21,-242.19 146.85,-231.63"/>
<polygon fill="#9a32cd" stroke="#9a32cd" points="91.1,-270.35 85.33,-279.23 95.38,-275.88 91.1,-270.35"/>
<text text-anchor="middle" x="155.5" y="-253" font-family="Helvetica,sans-Serif" font-size="10.00"> chirp_setting</text>
</g>
<!-- Node6 -->
<g id="node6" class="node">
<title>Node6</title>
<g id="a_node6"><a xlink:href="structifx___avian___antenna___setup__s.html" target="_top" xlink:title=" ">
<polygon fill="white" stroke="black" points="166.5,-279.5 166.5,-298.5 317.5,-298.5 317.5,-279.5 166.5,-279.5"/>
<text text-anchor="middle" x="242" y="-286.5" font-family="Helvetica,sans-Serif" font-size="10.00">ifx_Avian_Antenna_Setup_s</text>
</a>
</g>
</g>
<!-- Node6&#45;&gt;Node4 -->
<g id="edge5" class="edge">
<title>Node6&#45;&gt;Node4</title>
<path fill="none" stroke="#9a32cd" stroke-dasharray="5,2" d="M222.74,-273.04C213.71,-266.04 202.81,-257.59 193,-250 184.99,-243.8 175.93,-236.82 169.04,-231.51"/>
<polygon fill="#9a32cd" stroke="#9a32cd" points="220.67,-275.87 230.72,-279.24 224.96,-270.34 220.67,-275.87"/>
<text text-anchor="middle" x="244" y="-253" font-family="Helvetica,sans-Serif" font-size="10.00"> antenna_setup</text>
</g>
</g>
</svg>
