<?xml version="1.0" encoding="UTF-8" standalone="no"?>
<!DOCTYPE svg PUBLIC "-//W3C//DTD SVG 1.1//EN"
 "http://www.w3.org/Graphics/SVG/1.1/DTD/svg11.dtd">
<!-- Generated by graphviz version 2.43.0 (0)
 -->
<!-- Title: ifx_Avian_Shape_s Pages: 1 -->
<svg width="326pt" height="240pt"
 viewBox="0.00 0.00 325.50 240.00" xmlns="http://www.w3.org/2000/svg" xmlns:xlink="http://www.w3.org/1999/xlink">
<g id="graph0" class="graph" transform="scale(1 1) rotate(0) translate(4 236)">
<title>ifx_Avian_Shape_s</title>
<polygon fill="white" stroke="transparent" points="-4,4 -4,-236 321.5,-236 321.5,4 -4,4"/>
<!-- Node1 -->
<g id="node1" class="node">
<title>Node1</title>
<g id="a_node1"><a xlink:title=" ">
<polygon fill="#bfbfbf" stroke="black" points="104.5,-0.5 104.5,-19.5 211.5,-19.5 211.5,-0.5 104.5,-0.5"/>
<text text-anchor="middle" x="158" y="-7.5" font-family="Helvetica,sans-Serif" font-size="10.00">ifx_Avian_Shape_s</text>
</a>
</g>
</g>
<!-- Node2 -->
<g id="node2" class="node">
<title>Node2</title>
<g id="a_node2"><a xlink:href="structifx___avian___shape___config__s.html" target="_top" xlink:title=" ">
<polygon fill="white" stroke="black" points="86.5,-67.5 86.5,-86.5 229.5,-86.5 229.5,-67.5 86.5,-67.5"/>
<text text-anchor="middle" x="158" y="-74.5" font-family="Helvetica,sans-Serif" font-size="10.00">ifx_Avian_Shape_Config_s</text>
</a>
</g>
</g>
<!-- Node2&#45;&gt;Node1 -->
<g id="edge1" class="edge">
<title>Node2&#45;&gt;Node1</title>
<path fill="none" stroke="#9a32cd" stroke-dasharray="5,2" d="M158,-57.04C158,-44.67 158,-29.12 158,-19.63"/>
<polygon fill="#9a32cd" stroke="#9a32cd" points="154.5,-57.23 158,-67.23 161.5,-57.23 154.5,-57.23"/>
<text text-anchor="middle" x="174.5" y="-41" font-family="Helvetica,sans-Serif" font-size="10.00"> config</text>
</g>
<!-- Node3 -->
<g id="node3" class="node">
<title>Node3</title>
<g id="a_node3"><a xlink:href="structifx___avian___chirp___config__s.html" target="_top" xlink:title=" ">
<polygon fill="white" stroke="black" points="88.5,-145.5 88.5,-164.5 227.5,-164.5 227.5,-145.5 88.5,-145.5"/>
<text text-anchor="middle" x="158" y="-152.5" font-family="Helvetica,sans-Serif" font-size="10.00">ifx_Avian_Chirp_Config_s</text>
</a>
</g>
</g>
<!-- Node3&#45;&gt;Node2 -->
<g id="edge2" class="edge">
<title>Node3&#45;&gt;Node2</title>
<path fill="none" stroke="#9a32cd" stroke-dasharray="5,2" d="M158,-135.22C158,-119.7 158,-98.36 158,-86.62"/>
<polygon fill="#9a32cd" stroke="#9a32cd" points="154.5,-135.28 158,-145.28 161.5,-135.28 154.5,-135.28"/>
<text text-anchor="middle" x="173" y="-119" font-family="Helvetica,sans-Serif" font-size="10.00"> down</text>
<text text-anchor="middle" x="173" y="-108" font-family="Helvetica,sans-Serif" font-size="10.00">up</text>
</g>
<!-- Node4 -->
<g id="node4" class="node">
<title>Node4</title>
<g id="a_node4"><a xlink:href="structifx___avian___chirp___settings__s.html" target="_top" xlink:title=" ">
<polygon fill="white" stroke="black" points="0,-212.5 0,-231.5 148,-231.5 148,-212.5 0,-212.5"/>
<text text-anchor="middle" x="74" y="-219.5" font-family="Helvetica,sans-Serif" font-size="10.00">ifx_Avian_Chirp_Settings_s</text>
</a>
</g>
</g>
<!-- Node4&#45;&gt;Node3 -->
<g id="edge3" class="edge">
<title>Node4&#45;&gt;Node3</title>
<path fill="none" stroke="#9a32cd" stroke-dasharray="5,2" d="M93.3,-206.07C109.88,-193.24 133.21,-175.19 146.85,-164.63"/>
<polygon fill="#9a32cd" stroke="#9a32cd" points="91.1,-203.35 85.33,-212.23 95.38,-208.88 91.1,-203.35"/>
<text text-anchor="middle" x="155.5" y="-186" font-family="Helvetica,sans-Serif" font-size="10.00"> chirp_setting</text>
</g>
<!-- Node5 -->
<g id="node5" class="node">
<title>Node5</title>
<g id="a_node5"><a xlink:href="structifx___avian___antenna___setup__s.html" target="_top" xlink:title=" ">
<polygon fill="white" stroke="black" points="166.5,-212.5 166.5,-231.5 317.5,-231.5 317.5,-212.5 166.5,-212.5"/>
<text text-anchor="middle" x="242" y="-219.5" font-family="Helvetica,sans-Serif" font-size="10.00">ifx_Avian_Antenna_Setup_s</text>
</a>
</g>
</g>
<!-- Node5&#45;&gt;Node3 -->
<g id="edge4" class="edge">
<title>Node5&#45;&gt;Node3</title>
<path fill="none" stroke="#9a32cd" stroke-dasharray="5,2" d="M222.74,-206.04C213.71,-199.04 202.81,-190.59 193,-183 184.99,-176.8 175.93,-169.82 169.04,-164.51"/>
<polygon fill="#9a32cd" stroke="#9a32cd" points="220.67,-208.87 230.72,-212.24 224.96,-203.34 220.67,-208.87"/>
<text text-anchor="middle" x="244" y="-186" font-family="Helvetica,sans-Serif" font-size="10.00"> antenna_setup</text>
</g>
</g>
</svg>
