<?xml version="1.0" encoding="UTF-8" standalone="no"?>
<!DOCTYPE svg PUBLIC "-//W3C//DTD SVG 1.1//EN"
 "http://www.w3.org/Graphics/SVG/1.1/DTD/svg11.dtd">
<!-- Generated by graphviz version 2.43.0 (0)
 -->
<!-- Title: ifx_Avian_CW_Config_t Pages: 1 -->
<svg width="402pt" height="127pt"
 viewBox="0.00 0.00 402.00 126.50" xmlns="http://www.w3.org/2000/svg" xmlns:xlink="http://www.w3.org/1999/xlink">
<g id="graph0" class="graph" transform="scale(1 1) rotate(0) translate(4 122.5)">
<title>ifx_Avian_CW_Config_t</title>
<polygon fill="white" stroke="transparent" points="-4,4 -4,-122.5 398,-122.5 398,4 -4,4"/>
<!-- Node1 -->
<g id="node1" class="node">
<title>Node1</title>
<g id="a_node1"><a xlink:title="Used to define a default set for the configuration values including their min and max values.">
<polygon fill="#bfbfbf" stroke="black" points="266,-55 266,-74 394,-74 394,-55 266,-55"/>
<text text-anchor="middle" x="330" y="-62" font-family="Helvetica,sans-Serif" font-size="10.00">ifx_Avian_CW_Config_t</text>
</a>
</g>
</g>
<!-- Node2 -->
<g id="node2" class="node">
<title>Node2</title>
<g id="a_node2"><a xlink:href="structifx___avian___a_d_c___config__t.html" target="_top" xlink:title="Defines the structure for the ADC configuration.">
<polygon fill="white" stroke="black" points="0,-99 0,-118 133,-118 133,-99 0,-99"/>
<text text-anchor="middle" x="66.5" y="-106" font-family="Helvetica,sans-Serif" font-size="10.00">ifx_Avian_ADC_Config_t</text>
</a>
</g>
</g>
<!-- Node2&#45;&gt;Node1 -->
<g id="edge1" class="edge">
<title>Node2&#45;&gt;Node1</title>
<path fill="none" stroke="#9a32cd" stroke-dasharray="5,2" d="M139.03,-97.41C172.21,-92.16 212.15,-85.7 248,-79.5 257.86,-77.79 268.39,-75.9 278.48,-74.05"/>
<polygon fill="#9a32cd" stroke="#9a32cd" points="138.3,-93.98 128.97,-99 139.39,-100.9 138.3,-93.98"/>
<text text-anchor="middle" x="199.5" y="-97.5" font-family="Helvetica,sans-Serif" font-size="10.00"> adc_configs</text>
</g>
<!-- Node3 -->
<g id="node3" class="node">
<title>Node3</title>
<g id="a_node3"><a xlink:href="structifx___avian___baseband___config__t.html" target="_top" xlink:title="Defines the structure for the Baseband configuration.">
<polygon fill="white" stroke="black" points="9,-49.5 9,-79.5 124,-79.5 124,-49.5 9,-49.5"/>
<text text-anchor="start" x="17" y="-67.5" font-family="Helvetica,sans-Serif" font-size="10.00">ifx_Avian_Baseband</text>
<text text-anchor="middle" x="66.5" y="-56.5" font-family="Helvetica,sans-Serif" font-size="10.00">_Config_t</text>
</a>
</g>
</g>
<!-- Node3&#45;&gt;Node1 -->
<g id="edge2" class="edge">
<title>Node3&#45;&gt;Node1</title>
<path fill="none" stroke="#9a32cd" stroke-dasharray="5,2" d="M134.29,-64.5C174.79,-64.5 226.15,-64.5 265.95,-64.5"/>
<polygon fill="#9a32cd" stroke="#9a32cd" points="134.24,-61 124.24,-64.5 134.24,-68 134.24,-61"/>
<text text-anchor="middle" x="199.5" y="-67.5" font-family="Helvetica,sans-Serif" font-size="10.00"> baseband_configs</text>
</g>
<!-- Node4 -->
<g id="node4" class="node">
<title>Node4</title>
<g id="a_node4"><a xlink:href="structifx___avian___test___signal___generator__t.html" target="_top" xlink:title="Defines the structure for the Test Signal configuration.">
<polygon fill="white" stroke="black" points="5.5,-0.5 5.5,-30.5 127.5,-30.5 127.5,-0.5 5.5,-0.5"/>
<text text-anchor="start" x="13.5" y="-18.5" font-family="Helvetica,sans-Serif" font-size="10.00">ifx_Avian_Test_Signal</text>
<text text-anchor="middle" x="66.5" y="-7.5" font-family="Helvetica,sans-Serif" font-size="10.00">_Generator_t</text>
</a>
</g>
</g>
<!-- Node4&#45;&gt;Node1 -->
<g id="edge3" class="edge">
<title>Node4&#45;&gt;Node1</title>
<path fill="none" stroke="#9a32cd" stroke-dasharray="5,2" d="M137.66,-28.65C181.97,-36.95 238.21,-47.49 278.22,-54.98"/>
<polygon fill="#9a32cd" stroke="#9a32cd" points="138.3,-25.2 127.82,-26.8 137.01,-32.09 138.3,-25.2"/>
<text text-anchor="middle" x="199.5" y="-51.5" font-family="Helvetica,sans-Serif" font-size="10.00"> test_signal_configs</text>
</g>
</g>
</svg>
