<?xml version="1.0" encoding="UTF-8" standalone="no"?>
<!DOCTYPE svg PUBLIC "-//W3C//DTD SVG 1.1//EN"
 "http://www.w3.org/Graphics/SVG/1.1/DTD/svg11.dtd">
<!-- Generated by graphviz version 2.43.0 (0)
 -->
<!-- Title: ifx_PresenceSensing_Result_t Pages: 1 -->
<svg width="260pt" height="173pt"
 viewBox="0.00 0.00 259.50 173.00" xmlns="http://www.w3.org/2000/svg" xmlns:xlink="http://www.w3.org/1999/xlink">
<g id="graph0" class="graph" transform="scale(1 1) rotate(0) translate(4 169)">
<title>ifx_PresenceSensing_Result_t</title>
<polygon fill="white" stroke="transparent" points="-4,4 -4,-169 255.5,-169 255.5,4 -4,4"/>
<!-- Node1 -->
<g id="node1" class="node">
<title>Node1</title>
<g id="a_node1"><a xlink:title="Result structure for Presence Sensing algorithm.">
<polygon fill="#bfbfbf" stroke="black" points="47,-0.5 47,-30.5 164,-30.5 164,-0.5 47,-0.5"/>
<text text-anchor="start" x="55" y="-18.5" font-family="Helvetica,sans-Serif" font-size="10.00">ifx_PresenceSensing</text>
<text text-anchor="middle" x="105.5" y="-7.5" font-family="Helvetica,sans-Serif" font-size="10.00">_Result_t</text>
</a>
</g>
</g>
<!-- Node2 -->
<g id="node2" class="node">
<title>Node2</title>
<g id="a_node2"><a xlink:href="structifx___matrix___r__s.html" target="_top" xlink:title="Defines the structure for a two&#45;dimensional floating point data array.">
<polygon fill="white" stroke="black" points="0,-78.5 0,-97.5 89,-97.5 89,-78.5 0,-78.5"/>
<text text-anchor="middle" x="44.5" y="-85.5" font-family="Helvetica,sans-Serif" font-size="10.00">ifx_Matrix_R_s</text>
</a>
</g>
</g>
<!-- Node2&#45;&gt;Node1 -->
<g id="edge1" class="edge">
<title>Node2&#45;&gt;Node1</title>
<path fill="none" stroke="#9a32cd" stroke-dasharray="5,2" d="M41.32,-68.37C41.12,-61.83 42.01,-54.69 45.5,-49 50.27,-41.22 57.6,-35.19 65.52,-30.54"/>
<polygon fill="#9a32cd" stroke="#9a32cd" points="37.86,-68.91 42.43,-78.46 44.82,-68.14 37.86,-68.91"/>
<text text-anchor="middle" x="95.5" y="-52" font-family="Helvetica,sans-Serif" font-size="10.00"> range_doppler_map</text>
</g>
<!-- Node3 -->
<g id="node3" class="node">
<title>Node3</title>
<g id="a_node3"><a xlink:href="structifx___matrix___c__s.html" target="_top" xlink:title="Defines the structure for a two&#45;dimensional Complex data array.">
<polygon fill="white" stroke="black" points="123,-78.5 123,-97.5 212,-97.5 212,-78.5 123,-78.5"/>
<text text-anchor="middle" x="167.5" y="-85.5" font-family="Helvetica,sans-Serif" font-size="10.00">ifx_Matrix_C_s</text>
</a>
</g>
</g>
<!-- Node3&#45;&gt;Node1 -->
<g id="edge2" class="edge">
<title>Node3&#45;&gt;Node1</title>
<path fill="none" stroke="#9a32cd" stroke-dasharray="5,2" d="M158.97,-69.25C155.32,-62.55 150.69,-55.08 145.5,-49 139.81,-42.33 132.61,-36.01 125.9,-30.74"/>
<polygon fill="#9a32cd" stroke="#9a32cd" points="155.92,-70.97 163.59,-78.28 162.15,-67.78 155.92,-70.97"/>
<text text-anchor="middle" x="202.5" y="-52" font-family="Helvetica,sans-Serif" font-size="10.00"> range_spectrogram</text>
</g>
<!-- Node4 -->
<g id="node4" class="node">
<title>Node4</title>
<g id="a_node4"><a xlink:href="structifx___complex__s.html" target="_top" xlink:title="Defines the structure for Complex data core parameters.">
<polygon fill="white" stroke="black" points="123,-145.5 123,-164.5 212,-164.5 212,-145.5 123,-145.5"/>
<text text-anchor="middle" x="167.5" y="-152.5" font-family="Helvetica,sans-Serif" font-size="10.00">ifx_Complex_s</text>
</a>
</g>
</g>
<!-- Node4&#45;&gt;Node3 -->
<g id="edge3" class="edge">
<title>Node4&#45;&gt;Node3</title>
<path fill="none" stroke="#9a32cd" stroke-dasharray="5,2" d="M167.5,-135.04C167.5,-122.67 167.5,-107.12 167.5,-97.63"/>
<polygon fill="#9a32cd" stroke="#9a32cd" points="164,-135.23 167.5,-145.23 171,-135.23 164,-135.23"/>
<text text-anchor="middle" x="172.5" y="-119" font-family="Helvetica,sans-Serif" font-size="10.00"> d</text>
</g>
</g>
</svg>
